<svg xmlns="http://www.w3.org/2000/svg" width="406" height="41" viewBox="0 0 406 41">
    <g fill="#FFF" fill-rule="evenodd">
        <text font-family="OpenSans-Bold, Open Sans" font-size="42" font-weight="bold" transform="translate(0 -10)">
            <tspan x="232" y="45">90% OFF</tspan>
        </text>
        <path fill-rule="nonzero" d="M63.008 18.403h-6.504v-6.728H52.44v17.017h4.065V21.57h6.504v7.123h4.065V11.675h-4.065v6.728zM25.61 12.229l10.162 5.778V5.027L25.61 0v12.229zm-13.212 14.88H25.61v8.588L35.772 41V21.806l-33.658-.158s10.284 5.54 10.284 5.461zm10.529-13.297H9.757V5.184L0 0v19.194h33.09l-10.163-5.382zM0 35.697l9.756 5.026V28.811L0 23.15v12.546zm87.033-22.004c-.773-.752-1.708-1.306-2.765-1.702-1.057-.395-2.195-.554-3.374-.554-1.179 0-2.276.198-3.333.554-1.057.396-1.992.95-2.764 1.702-.813.752-1.423 1.702-1.91 2.81-.489 1.108-.692 2.374-.692 3.839 0 1.464.244 2.73.691 3.839a8.026 8.026 0 0 0 1.87 2.77c.772.752 1.707 1.306 2.764 1.702 1.057.395 2.195.554 3.374.554 1.22 0 2.399-.198 3.456-.554 1.057-.396 1.991-.95 2.764-1.702.772-.752 1.382-1.662 1.83-2.77.446-1.109.65-2.375.65-3.84 0-1.464-.244-2.73-.692-3.838-.447-1.108-1.056-2.058-1.87-2.81zm-1.83 8.904a5.47 5.47 0 0 1-.894 1.742c-.407.475-.894.87-1.463 1.108-.57.277-1.22.396-1.952.396-.731 0-1.382-.12-1.95-.396a4.437 4.437 0 0 1-1.464-1.108c-.407-.475-.691-1.069-.895-1.742a7.766 7.766 0 0 1-.325-2.255c0-.831.122-1.583.325-2.256a5.47 5.47 0 0 1 .895-1.741 4.55 4.55 0 0 1 1.463-1.148c.57-.277 1.22-.396 1.951-.396.732 0 1.382.119 1.952.396.569.277 1.056.633 1.463 1.108.406.475.691 1.069.894 1.741.204.673.325 1.425.325 2.256 0 .87-.08 1.623-.325 2.295zm97.317-1.028h6.91v-3.166h-6.91v-3.167h7.724v-3.561h-11.789v17.017h12.602v-3.166h-8.537V21.57zm26.504 5.303a73.704 73.704 0 0 0-1.097-1.82c-.366-.594-.773-1.149-1.138-1.703-.407-.554-.773-1.029-1.098-1.464 1.057-.435 1.87-.99 2.44-1.741.568-.752.853-1.702.853-2.929 0-1.9-.691-3.324-2.114-4.234-1.382-.91-3.415-1.346-6.057-1.346-.732 0-1.626.04-2.52.119-.935.079-1.91.198-2.724.356v16.622h4.065v-5.937h1.951c.326.396.691.792 1.017 1.267.325.475.69.95 1.016 1.504.366.554.69.989 1.016 1.583.325.593.65 1.187.976 1.583H210c-.325-.436-.65-1.227-.976-1.86zm-5.122-7.836c-.65.356-1.707.554-3.17.554h-1.139v-4.63c.407 0 .407-.04.65-.04.245 0 .489-.04.773-.04 1.26 0 2.236.159 2.886.515.65.356.976.95.976 1.78 0 .91-.325 1.505-.976 1.86zm-98.82 1.583c-.448-.436-1.017-.792-1.667-1.108a51.52 51.52 0 0 0-2.358-.99c-.447-.158-.854-.277-1.22-.435-.365-.158-.69-.277-.975-.475a1.862 1.862 0 0 1-.65-.594c-.163-.198-.245-.475-.245-.791 0-.515.204-.91.61-1.187.407-.238 1.098-.396 2.033-.396.853 0 1.544.079 2.154.277.61.198 1.138.396 1.626.633l1.138-3.008a16.41 16.41 0 0 0-2.113-.83c-.854-.238-1.87-.357-3.05-.357-.975 0-1.87.119-2.682.356a6.491 6.491 0 0 0-2.033 1.03c-.569.435-.975.989-1.3 1.622a5.163 5.163 0 0 0-.448 2.137c0 .791.163 1.464.448 2.018.284.554.65 1.03 1.097 1.385.447.396.976.713 1.545.95.569.238 1.138.475 1.707.673 1.301.435 2.236.831 2.764 1.187.529.356.813.831.813 1.385 0 .277-.04.515-.122.713a1.43 1.43 0 0 1-.447.554c-.203.158-.528.277-.853.356-.366.08-.813.119-1.382.119-1.098 0-2.033-.12-2.805-.317-.773-.237-1.423-.475-1.952-.752l-1.097 3.047c.244.12.528.277.854.436.325.158.772.277 1.22.435.487.119 1.015.238 1.666.317.61.079 1.341.118 2.114.118 2.317 0 4.024-.435 5.162-1.306 1.138-.87 1.707-2.097 1.707-3.72 0-.83-.121-1.504-.325-2.097a3.37 3.37 0 0 0-.935-1.385zm64.024 5.184c-.407.04-.529.08-.854.08-.325 0-.691.039-1.138.039-.813 0-1.504-.119-2.114-.396-.61-.277-1.098-.633-1.504-1.148-.407-.475-.691-1.068-.894-1.74-.204-.674-.285-1.426-.285-2.257 0-1.741.407-3.087 1.22-4.076.813-.99 2.154-1.504 3.983-1.504.813 0 1.586.119 2.277.317.69.198 1.3.435 1.87.712l1.138-3.087c-.122-.079-.366-.198-.65-.356-.326-.158-.692-.277-1.18-.435a9.146 9.146 0 0 0-1.707-.356c-.65-.12-1.422-.159-2.235-.159-1.22 0-2.358.198-3.415.594a8.505 8.505 0 0 0-2.805 1.741 8.195 8.195 0 0 0-1.87 2.81c-.447 1.108-.691 2.375-.691 3.8 0 1.424.203 2.65.61 3.759a7.77 7.77 0 0 0 1.748 2.77 7.767 7.767 0 0 0 2.723 1.742c1.057.395 2.277.593 3.578.593 1.544 0 2.926-.119 3.943-.316 1.057-.198 1.544-.396 2.357-.594v-8.31h-4.065v5.777h-.04zM109.35 15.236h5.284v13.456h3.659V15.236h5.284v-3.561H109.35v3.561zm18.699 13.456h4.065V11.675h-4.065v17.017zm21.138-6.807c-.813-.87-1.3-1.82-1.992-2.77-.69-.95-1.423-1.9-2.114-2.77-.69-.91-1.382-1.82-2.073-2.612-.69-.792-1.3-1.267-1.87-2.058h-3.374v17.017h4.065V17.69c1.626 1.702 2.886 3.404 4.187 5.303 1.301 1.9 2.52 4.116 3.659 5.7h3.13V11.674h-3.659v10.21h.041z"/>
    </g>
</svg>
