<?xml version="1.0" encoding="UTF-8"?>
<svg width="125px" height="123px" viewBox="0 0 125 123" version="1.1" xmlns="http://www.w3.org/2000/svg" xmlns:xlink="http://www.w3.org/1999/xlink">
    <!-- Generator: Sketch 51.1 (57501) - http://www.bohemiancoding.com/sketch -->
    <title>limit-icon</title>
    <desc>Created with Sketch.</desc>
    <defs>
        <filter x="-0.5%" y="-3.6%" width="101.1%" height="107.2%" filterUnits="objectBoundingBox" id="filter-1">
            <feOffset dx="0" dy="0" in="SourceAlpha" result="shadowOffsetOuter1"></feOffset>
            <feGaussianBlur stdDeviation="2" in="shadowOffsetOuter1" result="shadowBlurOuter1"></feGaussianBlur>
            <feColorMatrix values="0 0 0 0 0.733020887   0 0 0 0 0.805431548   0 0 0 0 0.784742787  0 0 0 1 0" type="matrix" in="shadowBlurOuter1" result="shadowMatrixOuter1"></feColorMatrix>
            <feMerge>
                <feMergeNode in="shadowMatrixOuter1"></feMergeNode>
                <feMergeNode in="SourceGraphic"></feMergeNode>
            </feMerge>
        </filter>
    </defs>
    <g id="Page-1" stroke="none" stroke-width="1" fill="none" fill-rule="evenodd">
        <g id="Artboard-Copy-2" transform="translate(-50.000000, -30.000000)">
            <g id="Bitmap" filter="url(#filter-1)" transform="translate(4.000000, 4.000000)">
                <g id="limit-icon" transform="translate(50.000000, 30.000000)">
                    <g id="limit">
                        <path d="M1.53947368,104.121622 L1.53947368,1.55405405 L109.302632,1.55405405 L109.302632,102.567568 C109.302632,103.429583 108.605059,104.121622 107.763158,104.121622 L1.53947368,104.121622 Z" id="Shape" fill="#FFF1F2" fill-rule="nonzero"></path>
                        <path d="M107.763158,3.10810811 L107.763158,102.567568 L3.07894737,102.567568 L3.07894737,3.10810811 L107.763158,3.10810811 Z M110.842105,0 L0,0 L0,105.675676 L107.763158,105.675676 C109.458984,105.675676 110.842105,104.279454 110.842105,102.567568 L110.842105,0 Z" id="Shape" fill="#B60A13" fill-rule="nonzero"></path>
                        <polygon id="Shape" fill="#D37176" fill-rule="nonzero" points="3.07894737 3.10810811 107.763158 3.10810811 107.763158 18.6486486 3.07894737 18.6486486"></polygon>
                        <polygon id="Shape" fill="#FFF1F2" fill-rule="nonzero" points="111.842105 55.9459459 106.763158 55.9459459 106.763158 101.567568 55.4210526 101.567568 55.4210526 106.675676 111.842105 106.675676"></polygon>
                        <path d="M35.4078947,41.9594595 L87.75,41.9594595" id="Shape" stroke="#B60A13" stroke-width="3.10391363" stroke-linecap="round"></path>
                        <path d="M35.4078947,54.3918919 L81.5921053,54.3918919" id="Shape" stroke="#B60A13" stroke-width="3.10391363" stroke-linecap="round"></path>
                        <path d="M35.4078947,66.8243243 L60.0394737,66.8243243" id="Shape" stroke="#B60A13" stroke-width="3.10391363" stroke-linecap="round"></path>
                        <path d="M35.4078947,79.2567568 L53.8815789,79.2567568" id="Shape" stroke="#B60A13" stroke-width="3.10391363" stroke-linecap="round"></path>
                        <path d="M109.302632,59.0540541 C108.460733,59.0540541 107.763158,58.3498749 107.763158,57.5 L107.763158,51.2837838 C107.763158,50.433912 108.460733,49.7297297 109.302632,49.7297297 C110.144533,49.7297297 110.842105,50.433912 110.842105,51.2837838 L110.842105,57.5 C110.842105,58.3498749 110.144533,59.0540541 109.302632,59.0540541 Z" id="Shape" fill="#B60A13" fill-rule="nonzero"></path>
                        <path d="M50.8026316,102.567568 L56.9605263,102.567568 C57.8024275,102.567568 58.5,103.27175 58.5,104.121622 C58.5,104.971496 57.8024275,105.675676 56.9605263,105.675676 L50.8026316,105.675676 C49.9607334,105.675676 49.2631579,104.971496 49.2631579,104.121622 C49.2631579,103.27175 49.9607334,102.567568 50.8026316,102.567568 Z" id="Shape" fill="#B60A13" fill-rule="nonzero"></path>
                        <path d="M117,87.027027 C117,102.470439 104.587993,115 89.2894737,115 C73.9909539,115 61.5789474,102.470439 61.5789474,87.027027 C61.5789474,71.5836149 73.9909539,59.0540541 89.2894737,59.0540541 C104.587993,59.0540541 117,71.5836149 117,87.027027 Z" id="Shape" fill="#FFF1F2" fill-rule="nonzero"></path>
                        <path d="M89.2894737,59.0540541 L89.2894737,90.1351351 L69.5769935,67.3828141 C64.633842,72.4334897 61.5789474,79.3660254 61.5789474,87.027027 C61.5789474,102.482579 73.9789276,115 89.2894737,115 C104.60002,115 117,102.482579 117,87.027027 C117,71.5714746 104.60002,59.0540541 89.2894737,59.0540541 Z" id="Shape" fill="#D37176" fill-rule="nonzero"></path>
                        <path d="M107.763158,87.027027 C107.763158,97.3104949 99.4764605,105.675676 89.2894737,105.675676 C79.1024869,105.675676 70.8157895,97.3104949 70.8157895,87.027027 C70.8157895,76.7435592 79.1024869,68.3783784 89.2894737,68.3783784 C90.3358355,68.3783784 91.3821973,68.4755068 92.3684211,68.6576232 L92.3684211,74.5945946 L95.4473684,74.5945946 L95.4473684,69.4710742 C102.615543,71.9842686 107.763158,78.9168074 107.763158,87.027027 Z" id="Shape" fill="#FFF1F2" fill-rule="nonzero"></path>
                        <path d="M78.5131579,76.1486486 L89.2894737,87.027027" id="Shape" stroke="#B60A13" stroke-width="3.10391363" stroke-linecap="round"></path>
                        <path d="M92.3684211,87.027027 C92.3684211,88.7389139 90.9852994,90.1351351 89.2894737,90.1351351 C87.593648,90.1351351 86.2105263,88.7389139 86.2105263,87.027027 C86.2105263,85.3151401 87.593648,83.9189189 89.2894737,83.9189189 C90.9852994,83.9189189 92.3684211,85.3151401 92.3684211,87.027027 Z" id="Shape" fill="#B60A13" fill-rule="nonzero"></path>
                        <path d="M70.7556546,68.3783784 C66.02899,73.1498092 63.1184211,79.7423986 63.1184211,87.027027 C63.1184211,101.620567 74.8328552,113.445946 89.2894737,113.445946 C103.746095,113.445946 115.460526,101.620567 115.460526,87.027027 C115.460526,72.9555524 104.563941,61.457983 90.8289474,60.6566723 L90.8289474,74.5945946" id="Shape" stroke="#B60A13" stroke-width="3.10391363"></path>
                    </g>
                </g>
            </g>
        </g>
    </g>
</svg>