<?xml version="1.0" encoding="utf-8"?>
<!-- Generator: Adobe Illustrator 23.1.1, SVG Export Plug-In . SVG Version: 6.00 Build 0)  -->
<svg version="1.1" id="Layer_1" xmlns="http://www.w3.org/2000/svg" xmlns:xlink="http://www.w3.org/1999/xlink" x="0px" y="0px"
	 viewBox="0 0 1024 1024" enable-background="new 0 0 1024 1024" xml:space="preserve">
<rect x="-0.5" y="-0.5" display="none" fill="#0B98DE" stroke="#000000" stroke-miterlimit="10" width="1024.5" height="1024.5"/>
<rect x="-0.5" y="-0.5" fill="#E2F4FE" width="1024.5" height="1024.5"/>
<g>
	<g>
		<defs>
			<rect id="SVGID_1_" x="166.489" y="148.433" width="691.445" height="691.445"/>
		</defs>
		<clipPath id="SVGID_2_">
			<use xlink:href="#SVGID_1_"  overflow="visible"/>
		</clipPath>
		<g clip-path="url(#SVGID_2_)">
			<defs>
				<rect id="SVGID_3_" x="166.489" y="148.433" width="691.445" height="691.445"/>
			</defs>
			<clipPath id="SVGID_4_">
				<use xlink:href="#SVGID_3_"  overflow="visible"/>
			</clipPath>
			<path clip-path="url(#SVGID_4_)" fill="#FBD63B" d="M231.654,437.835c-3.365,204.127,174.751,278.949,387.496,278.949
				c98.706,0,178.724-80.018,178.724-178.724s-80.018-178.724-178.724-178.724S233.022,354.94,231.654,437.835"/>
			<path clip-path="url(#SVGID_4_)" fill="#0E4158" d="M604.222,492.197c0,27.054,21.927,48.986,48.981,48.986
				c27.054,0,48.985-21.931,48.985-48.986c0-27.054-21.931-48.985-48.985-48.985C626.149,443.211,604.222,465.143,604.222,492.197"
				/>
			<path clip-path="url(#SVGID_4_)" fill="#FFFFFF" d="M625.062,479.783c0,8.687,7.041,15.728,15.728,15.728
				c8.692,0,15.733-7.041,15.733-15.728c0-8.687-7.041-15.728-15.733-15.728C632.103,464.055,625.062,471.096,625.062,479.783"/>
			<path clip-path="url(#SVGID_4_)" fill="#FFFFFF" d="M605.561,361.652L373.26,559.084c-21.819,20.057-51.323,31.724-83.266,30.063
				c-63.107-3.282-111.61-57.098-108.328-120.204c3.277-63.111,57.098-111.61,120.204-108.333L605.561,361.652z"/>
			<path clip-path="url(#SVGID_4_)" fill="#0E4158" d="M828.819,277.224c-18.099-4.728-36.539,4.09-44.618,20.154
				c-42.329,5.39-80.295,24.804-111.814,57.229c-6.316-1.617-12.758-2.892-19.312-3.857c7.353-24.824,20.081-46.142,38.365-63.608
				c8.468,3.034,18.012,3.194,27.069-0.282c20.086-7.713,30.112-30.243,22.399-50.325c-7.708-20.081-30.239-30.107-50.32-22.399
				c-17.461,6.705-27.307,24.619-24.512,42.383c-26.611,24.726-44.739,55.871-53.689,92.181c-6.861-0.015-14.253-0.029-22.209-0.029
				c-18.124,0-38.872,0.083-61.076,0.458l-229.443-0.784c-2.24-0.117-4.465-0.175-6.676-0.175
				c-66.905,0.005-122.809,52.448-126.32,120.034c-3.238,62.264,39.096,116.309,97.81,129.865c0.01,0.02,0.024,0.039,0.034,0.054
				l-60.394,102.056l125.122-42.66c75.265,49.156,180.891,69.89,296.119,69.89c104.579,0,189.349-84.77,189.349-189.349
				c0-72.758-41.058-135.893-101.248-167.597c21.751-18.387,46.322-29.571,73.507-33.418c5.113,7.406,12.777,13.099,22.165,15.548
				c20.816,5.439,42.095-7.026,47.53-27.838C862.096,303.942,849.631,282.663,828.819,277.224 M206.285,470.259
				c2.401-46.21,40.484-82.409,86.698-82.409c1.529,0,3.077,0.039,4.611,0.117l0.964,0.054h0.964l228.625,0.784L352.954,537.709
				l-0.589,0.497l-0.57,0.521c-16.113,14.812-36.934,22.969-58.627,22.969c-1.519,0-3.063-0.044-4.592-0.122
				C240.716,559.09,203.802,518.125,206.285,470.259 M318.45,598.79c22.837-4.679,43.542-15.543,60.195-30.852l8.458-7.187
				c0.234,29.898,7.289,60.862,21.186,92.722C372.227,639.424,342.125,621.106,318.45,598.79 M461.239,670.028
				c-31.008-52.871-41.136-102.134-30.117-146.684l61.392-52.18c-8.054,21.493-13.478,45.324-13.654,70.98
				c-0.341,49.609,18.708,96.802,56.543,140.836C509.002,680.025,484.256,675.686,461.239,670.028 M610.133,388.372
				c5.449,0.01,10.537,0.02,15.221,0.02c82.53,0,149.674,67.138,149.674,149.669s-67.143,149.673-149.674,149.673
				c-10.206,0-20.213-0.185-30.054-0.511c-51.245-45.47-77.111-94.168-76.765-144.804c0.594-87.127,77.724-153.408,78.498-154.066
				L610.133,388.372z"/>
		</g>
	</g>
</g>
</svg>
