<svg xmlns="http://www.w3.org/2000/svg" viewBox="0 0 65 65"><title>Asset 7</title><g id="Layer_2" data-name="Layer 2"><g id="Layer_1-2" data-name="Layer 1"><rect width="65" height="65" style="fill:#124257"/><path d="M19.795,24.683l-.05835-.0002-.05824-.003c-.093-.00484-.18706-.00728-.27973-.00728a5.26743,5.26743,0,0,0-.26691,10.52775c.09258.00479.18615.00725.27826.00725a5.24085,5.24085,0,0,0,3.55288-1.39183l.03434-.03157.03558-.03021,10.6168-9.0234Z" style="fill:#fff"/><path d="M39.54057,24.70526c-.284,0-.59247-.00057-.92255-.00117-.26117-.00048-.5404-.00088-.82723-.00115l.01408.01668c-.047.03977-4.70179,4.0397-4.73773,9.31949-.0209,3.06875,1.54646,6.0199,4.65191,8.77524q.89481.02985,1.82152.031a9.07,9.07,0,1,0,0-18.14009Zm1.68754,9.259a2.96835,2.96835,0,1,1,2.96836-2.96834A2.96835,2.96835,0,0,1,41.22811,33.96421Z" style="fill:#fad648"/><circle cx="40.4759" cy="30.24366" r="0.95326" style="fill:#fff"/><path d="M38.75633,22.29987c.2766.00051.54171.001.78424.001a11.56178,11.56178,0,0,1,1.67987.12363,8.6181,8.6181,0,0,1,2.32467-3.8547,2.35917,2.35917,0,1,0-1.53692-1.85594A11.13963,11.13963,0,0,0,38.75633,22.29987Z" style="fill:#fad648"/><path d="M51.87036,17.96859A2.36059,2.36059,0,0,0,49.1665,19.19a11.32071,11.32071,0,0,0-6.776,3.468,11.39149,11.39149,0,0,1,2.48877.96081A8.68079,8.68079,0,0,1,49.334,21.59387a2.3596,2.3596,0,1,0,2.53638-3.62528Z" style="fill:#fad648"/><path d="M17.67314,37.41511l-3.66,6.1846,7.58261-2.585A15.55669,15.55669,0,0,1,17.67314,37.41511Z" style="fill:#fad648"/><path d="M31.48357,29.727l-3.71373,3.15636c-.66768,2.69994-.054,5.68523,1.82508,8.889a35.2631,35.2631,0,0,0,4.49453.78495,12.80767,12.80767,0,0,1-3.42657-8.53453A12.48419,12.48419,0,0,1,31.48357,29.727Z" style="fill:#fad648"/><path d="M24.58992,35.586a7.66725,7.66725,0,0,1-3.64793,1.8696,16.67094,16.67094,0,0,0,5.44433,3.31372,14.30478,14.30478,0,0,1-1.28322-5.61948Z" style="fill:#fad648"/></g></g></svg>