<svg width="70" height="70" viewBox="0 0 70 70" fill="none" xmlns="http://www.w3.org/2000/svg">
<circle cx="35" cy="35" r="35" fill="#007AFF"/>
<path d="M31.4482 25.9823C28.477 24.6726 25.1446 24.6726 22.1735 25.9823L21.6016 26.2613C21.1369 26.4938 20.6886 26.7623 20.2603 27.0649C19.5352 27.5663 18.8624 28.15 18.2536 28.8059L9.93551 37.7343C9.31784 38.4063 8.83018 39.2029 8.50064 40.0781C7.99826 41.3908 7.87039 42.8341 8.13325 44.225C8.39611 45.6158 9.03785 46.8916 9.9771 47.8904C10.6043 48.5626 11.3502 49.0938 12.171 49.4529C12.9707 49.7992 13.8249 49.9773 14.6872 49.9774H14.9264C14.1331 49.6571 13.428 49.1269 12.8766 48.4361C12.3252 47.7452 11.9452 46.916 11.772 46.0255C11.5988 45.1349 11.638 44.2118 11.8859 43.3419C12.1338 42.4719 12.5823 41.6832 13.19 41.049H13.2108L20.146 33.5938L20.8842 32.8014L21.1337 32.5447L21.4145 32.2434C21.5811 32.0571 21.7582 31.8819 21.9447 31.7188C23.1865 30.552 24.5895 29.5995 26.1038 28.8952C28.618 27.7509 31.368 27.3353 34.0788 27.6899C33.2775 26.9962 32.3926 26.4218 31.4482 25.9823ZM59.5217 29.4979C59.0143 28.1715 58.1494 27.0379 57.0379 26.2426C55.9264 25.4472 54.619 25.0262 53.2831 25.0337C52.4175 25.034 51.5599 25.2121 50.7565 25.5582H50.6733C50.3109 25.7126 49.9628 25.9032 49.6336 26.1274C49.2277 26.4067 48.8512 26.7322 48.5106 27.0984L43.447 32.5335L42.7088 33.3148L42.6464 33.3929C42.2184 33.8163 41.6539 34.0447 41.072 34.0302C40.4902 34.0156 39.9363 33.7591 39.5271 33.3148L35.7112 29.1296C34.588 28.8367 33.4359 28.6905 32.28 28.6943C30.4595 28.7064 28.6572 29.085 26.9668 29.8104C28.9405 29.8501 30.8229 30.7103 32.2176 32.2099L38.9344 39.4196C39.2267 39.7366 39.5749 39.9878 39.9588 40.1583C40.3427 40.3289 40.7545 40.4154 41.1699 40.4129C41.5871 40.4169 42.0009 40.3311 42.3866 40.1605C42.7724 39.9899 43.1224 39.738 43.4158 39.4196L45.3394 37.3549L46.1712 36.462L51.37 30.8818L51.6819 30.547C51.7611 30.4598 51.8482 30.3812 51.9419 30.3126C52.5587 29.729 53.2995 29.3169 54.0994 29.1124C54.8993 28.908 55.7337 28.9175 56.5294 29.1401C57.325 29.3627 58.0576 29.7916 58.6627 30.3891C59.2679 30.9866 59.7271 31.7345 60 32.567C60 32.4443 60 32.3215 60 32.1987C59.9999 31.2731 59.834 30.3562 59.5113 29.4979H59.5217ZM55.2587 30.1675C55.032 30.1671 54.8057 30.1895 54.5828 30.2345C54.6904 30.3142 54.7913 30.4038 54.8844 30.5023C55.2909 30.9504 55.5183 31.551 55.5183 32.1764C55.5183 32.8018 55.2909 33.4024 54.8844 33.8505L46.6287 42.7454V42.8012C46.4831 42.9575 46.3271 43.1137 46.1816 43.2476C44.5288 44.8303 42.5837 46.0211 40.4732 46.7423C38.3627 47.4634 36.1342 47.6987 33.9332 47.4328C35.605 48.7636 37.5672 49.6113 39.6318 49.8946C41.6963 50.178 43.7941 49.8875 45.7241 49.0511L46.3479 48.7609C46.8081 48.5231 47.2559 48.2586 47.6892 47.9685C48.4439 47.4652 49.1417 46.8697 49.7687 46.194L57.8061 37.5669L58.066 37.2879C58.1579 37.1967 58.2447 37.0999 58.326 36.9977C58.7892 36.3811 59.0803 35.6364 59.1657 34.8496C59.2511 34.0629 59.1274 33.2662 58.8087 32.5518C58.49 31.8374 57.9895 31.2343 57.365 30.8124C56.7405 30.3905 56.0174 30.1669 55.2795 30.1675H55.2587ZM41.0971 45.2007C39.0972 45.1861 37.1837 44.3236 35.7736 42.8012L29.0775 35.625C28.7837 35.3018 28.4329 35.0445 28.0455 34.8682C27.6581 34.6919 27.242 34.6002 26.8212 34.5982C26.404 34.5942 25.9903 34.68 25.6045 34.8506C25.2187 35.0212 24.8688 35.2731 24.5753 35.5915L22.5686 37.712L21.7368 38.6049L19.8132 40.6807L19.0126 41.5401L17.7233 42.9575L16.538 44.2186L16.33 44.4753C16.096 44.7264 15.8129 44.9185 15.5013 45.0379C15.1897 45.1573 14.8573 45.201 14.528 45.1658C14.1987 45.1305 13.8809 45.0173 13.5973 44.8342C13.3138 44.6511 13.0717 44.4027 12.8884 44.107C12.838 44.3676 12.8136 44.6332 12.8156 44.8994C12.8156 45.4514 12.9171 45.998 13.1142 46.5079C13.3113 47.0177 13.6003 47.4808 13.9644 47.8706C14.3285 48.2604 14.7607 48.5693 15.2362 48.7795C15.7118 48.9898 16.2213 49.0972 16.7355 49.0958C16.8809 49.1067 17.0269 49.1067 17.1722 49.0958C17.5303 49.048 17.8802 48.9466 18.212 48.7944C18.6308 48.605 19.0147 48.3367 19.3453 48.002H19.3973V47.9462L19.4701 47.8793L21.6432 45.5355L24.461 42.5222L25.2304 41.6852C25.6478 41.2489 26.2074 41.0047 26.79 41.0047C27.3727 41.0047 27.9323 41.2489 28.3497 41.6852L32.3112 45.9373C35.2267 46.6582 38.2779 46.4051 41.0556 45.2119L41.0971 45.2007Z" fill="white"/>
</svg>
