<svg width="62" height="62" viewBox="0 0 62 62" fill="none" xmlns="http://www.w3.org/2000/svg">
<rect width="62" height="62" fill="white"/>
<circle cx="31" cy="31" r="30" fill="#FA2356"/>
<path fill-rule="evenodd" clip-rule="evenodd" d="M47.9207 30.1998C47.5614 30.8572 47.029 31.3082 46.3243 31.5542C45.6223 31.799 44.9555 31.7679 44.3226 31.4627C43.6875 31.1456 43.2731 30.6469 43.078 29.9654C42.8807 29.2777 42.9581 28.5999 43.3104 27.9307C43.6671 27.2726 44.1944 26.8158 44.8934 26.561C45.5949 26.3055 46.2633 26.3284 46.8981 26.6313C47.545 26.9457 47.9691 27.452 48.169 28.1496C48.3674 28.8412 48.2841 29.5248 47.9207 30.1998ZM46.8997 23.1027C45.2952 22.8093 43.8117 23.1453 42.4502 24.1034C41.0954 25.0568 40.2566 26.3431 39.9263 27.9611C39.6013 29.5748 39.8714 31.0544 40.7344 32.4083C41.5939 33.7567 42.8017 34.5953 44.3648 34.9248C45.9346 35.2508 47.4104 34.9635 48.7939 34.0553C50.1839 33.1425 51.0695 31.8681 51.4428 30.2297C51.8147 28.5756 51.5575 27.0472 50.6693 25.6539C49.7776 24.255 48.5184 23.404 46.8997 23.1027ZM10.1058 31.0492V28.0672L18.2723 27.0001V29.5214L13.984 35.5039L18.6069 34.9974V38.0594L10 38.9247V36.4643L14.1866 30.5666L10.1058 31.0492ZM27.2996 25.5379V31.2242C27.2996 31.9258 27.0685 32.5513 26.6075 33.1002C26.1539 33.647 25.6053 33.9549 24.9635 34.0249C24.3236 34.0949 23.7781 33.9078 23.3257 33.4649C22.8748 33.0234 22.6498 32.4573 22.6498 31.7653V26.1539L19.7655 26.536V32.1008C19.7655 33.6265 20.2651 34.8835 21.2695 35.8759C22.2792 36.8616 23.509 37.2848 24.9635 37.1395C26.0329 37.0329 26.8129 36.6637 27.2996 36.0317V36.4248C27.2996 37.1258 27.0685 37.7479 26.6075 38.29C26.1539 38.83 25.6053 39.1294 24.9635 39.1899C24.9635 39.1899 23.2618 39.4023 22.1241 38.1926L20.3337 39.7212L19.7566 40.2138C19.7566 40.2138 21.5635 42.3232 24.4121 42.3314C24.4126 42.3303 24.4131 42.3293 24.4139 42.3282C24.5945 42.3319 24.777 42.3301 24.9635 42.3143C26.4178 42.1911 27.6715 41.5275 28.7205 40.3183C29.7754 39.1149 30.3089 37.72 30.3153 36.1393V25.1382L27.2996 25.5379ZM38.8409 24.0646V26.7631C35.8069 27.0336 35.3836 29.2354 35.3264 29.9577L35.2337 36.1351L32.4227 36.3761V24.9027L35.4083 24.5127L35.4006 25.0306C35.5325 24.9177 35.6763 24.8206 35.823 24.7382V24.738C36.8588 24.0856 38.8409 24.0646 38.8409 24.0646Z" fill="white"/>
</svg>
