<svg width="540" height="324" viewBox="0 0 540 324" fill="none" xmlns="http://www.w3.org/2000/svg">
<path fill-rule="evenodd" clip-rule="evenodd" d="M405 162C405 232.84 347.571 290.269 276.731 290.269C205.89 290.269 148.461 232.841 148.461 162C148.461 91.1596 205.889 33.7307 276.731 33.7307C347.571 33.7307 405 91.1586 405 162Z" fill="#EDF5FC"/>
<path fill-rule="evenodd" clip-rule="evenodd" d="M338.891 93.6953C338.891 93.6953 344.824 91.4531 343.895 90.5193C342.071 88.6865 338.891 93.6953 338.891 93.6953Z" fill="#5D44C2"/>
<path fill-rule="evenodd" clip-rule="evenodd" d="M260.977 93.8165C260.977 73.4273 244.448 56.8983 224.059 56.8983C203.669 56.8983 187.14 73.4273 187.14 93.8165C187.14 111.46 199.52 126.204 216.067 129.857L221.349 139.072L226.73 130.628C245.872 129.258 260.978 113.307 260.978 93.8157" fill="white"/>
<mask id="mask0" mask-type="alpha" maskUnits="userSpaceOnUse" x="148" y="33" width="257" height="258">
<path d="M148.459 162C148.459 232.839 205.887 290.269 276.728 290.269C347.569 290.269 404.997 232.84 404.997 162C404.997 91.1596 347.569 33.7307 276.728 33.7307C205.888 33.7307 148.459 91.1596 148.459 162Z" fill="white"/>
</mask>
<g mask="url(#mask0)">
<path fill-rule="evenodd" clip-rule="evenodd" d="M134.296 113.203C134.224 113.882 134.813 115.135 134.813 115.135C134.813 115.135 134.797 115.142 134.769 115.162C134.679 115.228 134.479 115.428 134.382 115.95C134.328 116.24 134.305 116.629 134.351 117.148C134.504 118.9 134.843 119.835 134.74 120.064C134.732 120.081 134.721 120.105 134.708 120.139C134.64 120.29 134.514 120.607 134.406 121.075C134.215 121.896 134.085 123.18 134.448 124.842C135.062 127.658 139.409 139.913 139.409 139.913L143.04 150.235C143.04 150.235 159.399 142.398 163.614 139.277C163.614 139.277 155.443 125.142 153.85 122.753C152.258 120.363 150.823 117.297 150.041 117.594C149.259 117.89 149.6 121.062 150.192 122.625C150.784 124.189 151.48 125.301 150.289 124.789C149.098 124.277 146.003 121.186 142.61 117.312C139.217 113.437 137.023 109.006 135.764 109.312C134.77 109.552 134.972 111.03 135.102 111.644C135.135 111.81 135.165 111.911 135.165 111.911C135.165 111.911 134.959 111.931 134.745 112.131C134.554 112.309 134.356 112.628 134.296 113.203" fill="#AB5546"/>
</g>
<mask id="mask1" mask-type="alpha" maskUnits="userSpaceOnUse" x="148" y="33" width="257" height="258">
<path d="M148.459 162C148.459 232.839 205.887 290.269 276.728 290.269C347.569 290.269 404.997 232.84 404.997 162C404.997 91.1596 347.569 33.7307 276.728 33.7307C205.888 33.7307 148.459 91.1596 148.459 162Z" fill="white"/>
</mask>
<g mask="url(#mask1)">
</g>
<mask id="mask2" mask-type="alpha" maskUnits="userSpaceOnUse" x="148" y="33" width="257" height="258">
<path d="M148.459 162C148.459 232.839 205.887 290.269 276.728 290.269C347.569 290.269 404.997 232.84 404.997 162C404.997 91.1596 347.569 33.7307 276.728 33.7307C205.888 33.7307 148.459 91.1596 148.459 162Z" fill="white"/>
</mask>
<g mask="url(#mask2)">
</g>
<mask id="mask3" mask-type="alpha" maskUnits="userSpaceOnUse" x="148" y="33" width="257" height="258">
<path d="M148.459 162C148.459 232.839 205.887 290.269 276.728 290.269C347.569 290.269 404.997 232.84 404.997 162C404.997 91.1596 347.569 33.7307 276.728 33.7307C205.888 33.7307 148.459 91.1596 148.459 162Z" fill="white"/>
</mask>
<g mask="url(#mask3)">
</g>
<mask id="mask4" mask-type="alpha" maskUnits="userSpaceOnUse" x="148" y="33" width="257" height="258">
<path d="M148.459 162C148.459 232.839 205.887 290.269 276.728 290.269C347.569 290.269 404.997 232.84 404.997 162C404.997 91.1596 347.569 33.7307 276.728 33.7307C205.888 33.7307 148.459 91.1596 148.459 162Z" fill="white"/>
</mask>
<g mask="url(#mask4)">
<path fill-rule="evenodd" clip-rule="evenodd" d="M304.679 218.812C310.728 221.803 280.634 208.412 270.042 197.61C260.448 187.826 254.274 173.846 254.274 173.846L200.965 194.963L163.609 135.568L142.643 148.39C142.643 148.39 147.914 178.266 161.777 210.905C170.713 231.946 182.285 252.052 191.349 252.643C200.413 253.235 218.255 255.78 222.126 253.272C225.997 250.765 304.678 218.812 304.678 218.812" fill="#673DE6"/>
</g>
<mask id="mask5" mask-type="alpha" maskUnits="userSpaceOnUse" x="148" y="33" width="257" height="258">
<path d="M148.459 162C148.459 232.839 205.887 290.269 276.728 290.269C347.569 290.269 404.997 232.84 404.997 162C404.997 91.1596 347.569 33.7307 276.728 33.7307C205.888 33.7307 148.459 91.1596 148.459 162Z" fill="white"/>
</mask>
<g mask="url(#mask5)">
<path fill-rule="evenodd" clip-rule="evenodd" d="M284.121 104.96C284.121 104.96 276.024 131.685 276.972 190.596C276.972 190.596 283.342 188.18 302.1 186.174C330.426 183.143 316.377 161.584 317.736 161.272C319.097 160.958 284.122 104.961 284.122 104.961" fill="#140012"/>
</g>
<mask id="mask6" mask-type="alpha" maskUnits="userSpaceOnUse" x="148" y="33" width="257" height="258">
<path d="M148.459 162C148.459 232.839 205.887 290.269 276.728 290.269C347.569 290.269 404.997 232.84 404.997 162C404.997 91.1596 347.569 33.7307 276.728 33.7307C205.888 33.7307 148.459 91.1596 148.459 162Z" fill="white"/>
</mask>
<g mask="url(#mask6)">
<path fill-rule="evenodd" clip-rule="evenodd" d="M349.672 115.428C349.672 115.428 350.173 123.621 349.861 137.572C349.739 143.096 349.973 155.038 352.595 160.848C354.857 165.865 363.887 194.757 363.887 194.757C363.887 194.757 339.977 175.867 334.99 177.854C330.005 179.84 319.418 177.075 318.646 176.43C317.874 175.785 325.246 141.409 325.396 140.022C325.546 138.635 329.622 137.62 330.584 136.348C331.546 135.074 349.671 115.427 349.671 115.427" fill="#140012"/>
</g>
<mask id="mask7" mask-type="alpha" maskUnits="userSpaceOnUse" x="148" y="33" width="257" height="258">
<path d="M148.459 162C148.459 232.839 205.887 290.269 276.728 290.269C347.569 290.269 404.997 232.84 404.997 162C404.997 91.1596 347.569 33.7307 276.728 33.7307C205.888 33.7307 148.459 91.1596 148.459 162Z" fill="white"/>
</mask>
<g mask="url(#mask7)">
<path fill-rule="evenodd" clip-rule="evenodd" d="M319.276 129.254C319.276 129.254 308.556 119.392 305.738 114.316C302.921 109.239 297.164 100.196 297.164 100.196L281.849 108.198C281.849 108.198 282.524 89.5558 299.777 86.4462C299.777 86.4462 323.14 78.0311 337.758 93.3671C352.373 108.703 350.429 118.876 348.937 124.89C347.443 130.902 340.657 139.148 340.657 139.148L324.916 152.318L322.047 139.94C322.047 139.94 329.058 134.805 326.802 132.316C324.546 129.826 321.428 127.523 319.276 129.255" fill="#140012"/>
</g>
<mask id="mask8" mask-type="alpha" maskUnits="userSpaceOnUse" x="148" y="33" width="257" height="258">
<path d="M148.459 162C148.459 232.839 205.887 290.269 276.728 290.269C347.569 290.269 404.997 232.84 404.997 162C404.997 91.1596 347.569 33.7307 276.728 33.7307C205.888 33.7307 148.459 91.1596 148.459 162Z" fill="white"/>
</mask>
<g mask="url(#mask8)">
<path fill-rule="evenodd" clip-rule="evenodd" d="M281.848 108.197C281.848 108.197 280.225 110.834 279.414 126.806C279.014 134.713 279.005 148.759 283.807 152.883C287.404 155.972 293.149 154.905 294.536 155.055L295.46 166.497L328.914 170.142L325.789 143.588L328.945 138.44C328.945 138.44 333.831 133.285 332.126 129.805C329.368 124.173 322.597 127.088 321.397 127.8C320.198 128.512 306.101 114.755 299.065 99.3984C298.697 98.5962 281.848 108.198 281.848 108.198" fill="#F79C68"/>
</g>
<mask id="mask9" mask-type="alpha" maskUnits="userSpaceOnUse" x="148" y="33" width="257" height="258">
<path d="M148.459 162C148.459 232.839 205.887 290.269 276.728 290.269C347.569 290.269 404.997 232.84 404.997 162C404.997 91.1596 347.569 33.7307 276.728 33.7307C205.888 33.7307 148.459 91.1596 148.459 162Z" fill="white"/>
</mask>
<g mask="url(#mask9)">
<path d="M289.647 127.133C289.647 127.133 286.582 134.698 286.803 136.286C286.966 137.459 290.185 137.28 291.016 137.37" stroke="#DB702F" stroke-width="1.10031" stroke-linecap="round"/>
</g>
<mask id="mask10" mask-type="alpha" maskUnits="userSpaceOnUse" x="148" y="33" width="257" height="258">
<path d="M148.459 162C148.459 232.839 205.887 290.269 276.728 290.269C347.569 290.269 404.997 232.84 404.997 162C404.997 91.1596 347.569 33.7307 276.728 33.7307C205.888 33.7307 148.459 91.1596 148.459 162Z" fill="white"/>
</mask>
<g mask="url(#mask10)">
<path fill-rule="evenodd" clip-rule="evenodd" d="M282.45 124.289C282.292 125.745 282.723 126.985 283.412 127.06C284.102 127.134 284.789 126.015 284.946 124.56C285.103 123.105 284.673 121.864 283.984 121.79C283.294 121.714 282.607 122.834 282.45 124.289Z" fill="#140012"/>
</g>
<mask id="mask11" mask-type="alpha" maskUnits="userSpaceOnUse" x="148" y="33" width="257" height="258">
<path d="M148.459 162C148.459 232.839 205.887 290.269 276.728 290.269C347.569 290.269 404.997 232.84 404.997 162C404.997 91.1596 347.569 33.7307 276.728 33.7307C205.888 33.7307 148.459 91.1596 148.459 162Z" fill="white"/>
</mask>
<g mask="url(#mask11)">
<path fill-rule="evenodd" clip-rule="evenodd" d="M296.58 126.662C296.423 128.117 296.853 129.358 297.542 129.432C298.232 129.507 298.918 128.388 299.076 126.932C299.234 125.477 298.803 124.237 298.113 124.162C297.424 124.087 296.737 125.207 296.58 126.662Z" fill="#140012"/>
</g>
<mask id="mask12" mask-type="alpha" maskUnits="userSpaceOnUse" x="148" y="33" width="257" height="258">
<path d="M148.459 162C148.459 232.839 205.887 290.269 276.728 290.269C347.569 290.269 404.997 232.84 404.997 162C404.997 91.1596 347.569 33.7307 276.728 33.7307C205.888 33.7307 148.459 91.1596 148.459 162Z" fill="white"/>
</mask>
<g mask="url(#mask12)">
<path d="M287.577 116.953C287.577 116.953 284.987 116.252 282.217 117.215" stroke="#500C0E" stroke-width="1.58668" stroke-linecap="round"/>
</g>
<mask id="mask13" mask-type="alpha" maskUnits="userSpaceOnUse" x="148" y="33" width="257" height="258">
<path d="M148.459 162C148.459 232.839 205.887 290.269 276.728 290.269C347.569 290.269 404.997 232.84 404.997 162C404.997 91.1596 347.569 33.7307 276.728 33.7307C205.888 33.7307 148.459 91.1596 148.459 162Z" fill="white"/>
</mask>
<g mask="url(#mask13)">
<path d="M297.501 118.59C297.501 118.59 300.459 118.489 302.682 119.993" stroke="#500C0E" stroke-width="1.58668" stroke-linecap="round"/>
</g>
<mask id="mask14" mask-type="alpha" maskUnits="userSpaceOnUse" x="148" y="33" width="257" height="258">
<path d="M148.459 162C148.459 232.839 205.887 290.269 276.728 290.269C347.569 290.269 404.997 232.84 404.997 162C404.997 91.1596 347.569 33.7307 276.728 33.7307C205.888 33.7307 148.459 91.1596 148.459 162Z" fill="white"/>
</mask>
<g mask="url(#mask14)">
<path fill-rule="evenodd" clip-rule="evenodd" d="M294.124 141.975C293.774 142.599 290.893 143.134 289.854 142.843L294.124 141.975Z" fill="white"/>
<path d="M294.124 141.975C293.774 142.599 290.893 143.134 289.854 142.843" stroke="white" stroke-width="1.58668" stroke-linecap="round"/>
</g>
<mask id="mask15" mask-type="alpha" maskUnits="userSpaceOnUse" x="148" y="33" width="257" height="258">
<path d="M148.459 162C148.459 232.839 205.887 290.269 276.728 290.269C347.569 290.269 404.997 232.84 404.997 162C404.997 91.1596 347.569 33.7307 276.728 33.7307C205.888 33.7307 148.459 91.1596 148.459 162Z" fill="white"/>
</mask>
<g mask="url(#mask15)">
<path fill-rule="evenodd" clip-rule="evenodd" d="M322.821 137.915C322.631 139.677 323.904 141.261 325.665 141.45C327.428 141.642 329.01 140.369 329.202 138.606C329.393 136.845 328.119 135.261 326.357 135.07C324.595 134.88 323.012 136.153 322.821 137.915Z" fill="#FEE8E6"/>
</g>
<mask id="mask16" mask-type="alpha" maskUnits="userSpaceOnUse" x="148" y="33" width="257" height="258">
<path d="M148.459 162C148.459 232.839 205.887 290.269 276.728 290.269C347.569 290.269 404.997 232.84 404.997 162C404.997 91.1596 347.569 33.7307 276.728 33.7307C205.888 33.7307 148.459 91.1596 148.459 162Z" fill="white"/>
</mask>
<g mask="url(#mask16)">
<path fill-rule="evenodd" clip-rule="evenodd" d="M294.522 155.037C298.2 154.89 303.077 154.305 305.479 153.843C305.479 153.843 300.641 157.745 294.946 157.424L294.523 155.037H294.522Z" fill="#DB702F"/>
</g>
<mask id="mask17" mask-type="alpha" maskUnits="userSpaceOnUse" x="148" y="33" width="257" height="258">
<path d="M148.459 162C148.459 232.839 205.887 290.269 276.728 290.269C347.569 290.269 404.997 232.84 404.997 162C404.997 91.1596 347.569 33.7307 276.728 33.7307C205.888 33.7307 148.459 91.1596 148.459 162Z" fill="white"/>
</mask>
<g mask="url(#mask17)">
<path fill-rule="evenodd" clip-rule="evenodd" d="M242.448 244.392C231.579 248.944 223.321 252.497 222.13 253.268C218.26 255.776 200.418 253.231 191.354 252.639C182.289 252.047 170.718 231.942 161.781 210.901C147.919 178.261 142.648 148.386 142.648 148.386L163.614 135.564L200.97 194.958L250.575 175.308L250.578 175.289C269.639 166.29 299.301 166.226 302.595 164.695C305.89 163.164 330.667 171.336 330.667 171.336C330.667 171.336 362.8 177.025 376.885 199.504C388.678 218.325 393.402 241.831 403.395 270.966C412.595 297.79 421.749 329.007 421.749 329.007L337.18 338.503C337.18 338.503 265.702 321.05 251.309 302.791C242.423 291.517 242.249 246.092 242.249 246.092L242.449 244.392L242.448 244.392Z" fill="#673DE6"/>
</g>
<mask id="mask18" mask-type="alpha" maskUnits="userSpaceOnUse" x="148" y="33" width="257" height="258">
<path d="M148.459 162C148.459 232.839 205.887 290.269 276.728 290.269C347.569 290.269 404.997 232.84 404.997 162C404.997 91.1596 347.569 33.7307 276.728 33.7307C205.888 33.7307 148.459 91.1596 148.459 162Z" fill="white"/>
</mask>
<g mask="url(#mask18)">
<path fill-rule="evenodd" clip-rule="evenodd" d="M368.892 335.67C368.6 335.67 368.325 335.492 368.215 335.205C368.141 335.009 360.662 315.485 354.19 291.038C348.207 268.439 341.881 236.886 345.73 214.894C345.8 214.498 346.188 214.234 346.571 214.304C346.966 214.373 347.23 214.749 347.161 215.144C343.358 236.873 349.646 268.199 355.59 290.652C362.043 315.023 369.496 334.488 369.571 334.681C369.715 335.056 369.528 335.477 369.155 335.62C369.068 335.653 368.98 335.669 368.893 335.669" fill="#5025D1"/>
</g>
<mask id="mask19" mask-type="alpha" maskUnits="userSpaceOnUse" x="148" y="33" width="257" height="258">
<path d="M148.459 162C148.459 232.839 205.887 290.269 276.728 290.269C347.569 290.269 404.997 232.84 404.997 162C404.997 91.1596 347.569 33.7307 276.728 33.7307C205.888 33.7307 148.459 91.1596 148.459 162Z" fill="white"/>
</mask>
<g mask="url(#mask19)">
<path fill-rule="evenodd" clip-rule="evenodd" d="M329.501 170.808L328.775 163.283C328.775 163.283 308.254 166.317 293.982 160.766L292.88 167.489C307.898 176.292 329.501 170.808 329.501 170.808" fill="#634FCB"/>
<path fill-rule="evenodd" clip-rule="evenodd" d="M350.324 125.238C350.324 125.238 335.624 119.57 323.959 111.094C311.557 102.083 295.878 87.4966 295.878 87.4966C295.878 87.4966 306.117 79.7947 316.779 81.4388C327.441 83.0839 344.011 90.7828 350.174 107.163C354.021 117.388 350.323 125.239 350.323 125.239" fill="#673DE6"/>
</g>
<path fill-rule="evenodd" clip-rule="evenodd" d="M134.296 113.203C134.224 113.882 134.814 115.135 134.814 115.135C134.814 115.135 134.797 115.142 134.769 115.162C134.679 115.228 134.479 115.427 134.382 115.95C134.328 116.239 134.305 116.628 134.351 117.148C134.504 118.899 134.843 119.835 134.74 120.064C134.732 120.081 134.721 120.105 134.708 120.139C134.64 120.29 134.514 120.606 134.406 121.075C134.215 121.895 134.085 123.18 134.448 124.842C135.062 127.658 139.409 139.912 139.409 139.912L143.04 150.235C143.04 150.235 159.399 142.398 163.614 139.277C163.614 139.277 155.443 125.142 153.85 122.753C152.258 120.363 150.823 117.296 150.041 117.593C149.259 117.889 149.6 121.062 150.192 122.624C150.784 124.189 151.48 125.301 150.289 124.789C149.098 124.277 146.003 121.185 142.61 117.312C139.217 113.437 137.023 109.006 135.764 109.312C134.77 109.552 134.972 111.029 135.102 111.644C135.135 111.809 135.165 111.911 135.165 111.911C135.165 111.911 134.959 111.93 134.745 112.131C134.554 112.309 134.356 112.628 134.296 113.203" fill="#F79C68"/>
<path fill-rule="evenodd" clip-rule="evenodd" d="M166.505 140.161L163.615 135.566L142.649 148.388C142.649 148.388 145.135 158.036 150.106 177.333L166.504 140.161L166.505 140.161Z" fill="#673DE6"/>
<path fill-rule="evenodd" clip-rule="evenodd" d="M134.744 112.131C134.755 112.161 134.767 112.191 134.787 112.22C135.602 113.446 139.692 119.579 140.11 119.95C140.158 119.992 140.213 120.02 140.272 120.034C140.4 120.063 140.539 120.023 140.632 119.918C140.77 119.766 140.754 119.531 140.602 119.395C140.283 119.081 137.244 114.574 135.404 111.808C135.333 111.704 135.219 111.646 135.101 111.645C135.135 111.809 135.166 111.911 135.166 111.911C135.166 111.911 134.959 111.93 134.744 112.131" fill="#DB702F"/>
<path fill-rule="evenodd" clip-rule="evenodd" d="M134.769 115.162C134.773 115.165 134.776 115.171 134.779 115.176C136.341 117.755 138.932 121.95 139.313 122.36C139.449 122.456 139.507 122.634 139.445 122.795C139.377 122.969 139.193 123.064 139.016 123.024C139 123.02 138.982 123.014 138.966 123.007C138.802 122.944 138.672 122.894 136.36 119.169C135.557 117.878 134.764 116.579 134.382 115.95C134.479 115.427 134.679 115.228 134.769 115.162" fill="#DB702F"/>
<path fill-rule="evenodd" clip-rule="evenodd" d="M134.708 120.14C134.773 120.176 134.827 120.232 134.861 120.304C135.827 122.347 137.431 125.676 137.708 126.075C137.802 126.163 137.849 126.297 137.818 126.432C137.772 126.631 137.574 126.756 137.373 126.71C137.15 126.658 137.096 126.646 135.597 123.553C135.13 122.591 134.667 121.623 134.406 121.075C134.515 120.607 134.642 120.291 134.708 120.14" fill="#DB702F"/>
<path fill-rule="evenodd" clip-rule="evenodd" d="M241.481 244.795C240.474 209.813 251.621 175.828 251.738 175.479C251.863 175.102 252.269 174.899 252.657 175.024C253.034 175.15 253.247 175.557 253.112 175.944C253.005 176.273 242.061 209.678 242.922 244.195L241.48 244.795L241.481 244.795Z" fill="#5025D1"/>
<path fill-rule="evenodd" clip-rule="evenodd" d="M223.734 70.8611C210.914 70.8611 200.532 81.266 200.532 94.0861C200.532 106.906 210.914 117.311 223.734 117.311C236.577 117.311 246.982 106.906 246.982 94.0861C246.982 81.266 236.577 70.8611 223.734 70.8611ZM239.829 84.7961H232.978C232.234 81.893 231.167 79.106 229.772 76.5281C234.046 77.9913 237.599 80.964 239.829 84.7961ZM223.757 75.5991C225.686 78.3861 227.194 81.475 228.193 84.7961H219.321C220.321 81.475 221.829 78.3861 223.757 75.5991ZM205.781 98.7309C205.409 97.2446 205.177 95.6885 205.177 94.086C205.177 92.4835 205.409 90.9274 205.781 89.4411H213.632C213.445 90.974 213.307 92.5067 213.307 94.086C213.307 95.6653 213.445 97.1981 213.632 98.7309H205.781ZM207.685 103.376H214.537C215.281 106.279 216.348 109.066 217.743 111.644C213.469 110.181 209.916 107.231 207.685 103.376ZM214.537 84.7958H207.685C209.916 80.9405 213.469 77.991 217.743 76.5278C216.348 79.1057 215.281 81.8927 214.537 84.7958ZM223.757 112.573C221.829 109.786 220.321 106.697 219.321 103.376H228.193C227.194 106.697 225.685 109.786 223.757 112.573ZM229.192 98.7308H218.322C218.113 97.1979 217.951 95.6652 217.951 94.0859C217.951 92.5066 218.113 90.9505 218.322 89.441H229.192C229.4 90.9505 229.563 92.5066 229.563 94.0859C229.563 95.6652 229.4 97.198 229.192 98.7308ZM229.772 111.644C231.167 109.066 232.234 106.279 232.978 103.376H239.829C237.599 107.208 234.045 110.181 229.772 111.644ZM233.883 98.7308C234.07 97.1979 234.208 95.6652 234.208 94.0859C234.208 92.5066 234.07 90.9738 233.883 89.441H241.734C242.104 90.9273 242.338 92.4834 242.338 94.0859C242.338 95.6884 242.104 97.2445 241.734 98.7308H233.883Z" fill="#CECECE"/>
<mask id="mask20" mask-type="alpha" maskUnits="userSpaceOnUse" x="200" y="70" width="47" height="48">
<path d="M200.532 94.0855C200.532 106.906 210.913 117.311 223.733 117.311C236.577 117.311 246.982 106.906 246.982 94.0855C246.982 81.2654 236.577 70.8605 223.733 70.8605C210.913 70.8605 200.532 81.2654 200.532 94.0855V94.0855ZM223.757 75.5988C225.685 78.3858 227.194 81.4746 228.193 84.7957H219.321C220.32 81.4746 221.829 78.3858 223.757 75.5988ZM229.772 76.5277C234.045 77.9909 237.598 80.9637 239.828 84.7957H232.977C232.233 81.8927 231.166 79.1057 229.772 76.5277ZM217.742 76.5277C216.347 79.1057 215.28 81.8927 214.536 84.7957H207.685C209.915 80.9405 213.468 77.9909 217.742 76.5277ZM234.207 94.0851C234.207 92.5059 234.069 90.973 233.882 89.4402H241.733C242.104 90.9266 242.336 92.4826 242.336 94.0851C242.336 95.6876 242.104 97.2437 241.733 98.73H233.882C234.069 97.1972 234.207 95.6644 234.207 94.0851ZM217.95 94.0851C217.95 92.5059 218.113 90.9498 218.322 89.4402H229.192C229.4 90.9498 229.563 92.5059 229.563 94.0851C229.563 95.6644 229.4 97.1973 229.192 98.73H218.322C218.113 97.1972 217.95 95.6644 217.95 94.0851ZM205.177 94.0851C205.177 92.4826 205.409 90.9266 205.781 89.4402H213.631C213.445 90.9731 213.306 92.5059 213.306 94.0851C213.306 95.6644 213.445 97.1973 213.631 98.73H205.781C205.409 97.2437 205.177 95.6876 205.177 94.0851ZM232.977 103.375H239.828C237.598 107.207 234.044 110.179 229.772 111.643C231.165 109.065 232.233 106.278 232.977 103.375ZM219.321 103.375H228.193C227.194 106.696 225.684 109.785 223.757 112.572C221.829 109.785 220.319 106.696 219.321 103.375ZM207.685 103.375H214.536C215.28 106.278 216.347 109.065 217.742 111.643C213.468 110.179 209.915 107.23 207.685 103.375Z" fill="white"/>
</mask>
<g mask="url(#mask20)">
<path fill-rule="evenodd" clip-rule="evenodd" d="M133.761 291.498H404.715V33.121H133.761V291.498Z" fill="#CECECE"/>
<path fill-rule="evenodd" clip-rule="evenodd" d="M195.693 122.149H251.819V66.0227H195.693V122.149Z" fill="#CECECE"/>
</g>
</svg>
