<svg xmlns="http://www.w3.org/2000/svg" width="230" height="69" viewBox="0 0 230 69">
    <g fill="none" fill-rule="nonzero">
        <path fill="#1A1A1A" d="M94 29.753c0-2.908.507-5.147 1.522-6.718 1.013-1.57 2.42-2.356 4.217-2.356 1.798 0 3.204.786 4.219 2.356 1.014 1.571 1.52 3.81 1.52 6.718s-.506 5.146-1.52 6.717c-1.015 1.57-2.42 2.356-4.219 2.356-1.797 0-3.204-.785-4.217-2.356C94.507 34.9 94 32.66 94 29.753zm9.055 0c0-.953-.053-1.855-.161-2.708-.107-.851-.289-1.594-.544-2.23-.256-.635-.598-1.14-1.027-1.516-.429-.376-.957-.564-1.584-.564-.627 0-1.154.188-1.583.564-.428.376-.771.882-1.026 1.517-.256.635-.437 1.378-.545 2.23-.11.898-.164 1.803-.16 2.708 0 .953.053 1.854.16 2.706.108.853.289 1.596.545 2.232.256.635.598 1.14 1.026 1.516.43.376.957.564 1.583.564.627 0 1.155-.188 1.584-.564.429-.376.77-.882 1.027-1.516.256-.636.437-1.38.544-2.232.11-.898.163-1.802.16-2.706v-.001zm4.633 0c0-2.908.507-5.147 1.522-6.718 1.014-1.57 2.42-2.356 4.218-2.356s3.204.786 4.217 2.356c1.015 1.571 1.522 3.81 1.522 6.718s-.507 5.146-1.522 6.717c-1.013 1.57-2.42 2.356-4.217 2.356-1.798 0-3.204-.785-4.218-2.356-1.015-1.57-1.522-3.81-1.522-6.717zm9.055 0c0-.953-.053-1.855-.16-2.708-.109-.851-.29-1.595-.546-2.23-.256-.635-.598-1.14-1.026-1.517-.43-.376-.956-.563-1.583-.563s-1.155.187-1.584.563c-.429.376-.77.882-1.027 1.517-.255.635-.436 1.379-.544 2.23-.11.899-.163 1.803-.16 2.708 0 .953.052 1.855.16 2.706.108.853.289 1.597.544 2.232.256.635.598 1.14 1.027 1.516.43.376.957.564 1.584.564.627 0 1.154-.188 1.583-.564.428-.375.771-.882 1.026-1.516.256-.635.437-1.379.545-2.232.11-.897.164-1.801.16-2.706zm4.633 0c0-2.908.508-5.147 1.521-6.718 1.015-1.57 2.42-2.356 4.219-2.356 1.797 0 3.203.786 4.218 2.356 1.014 1.571 1.521 3.81 1.521 6.718s-.507 5.146-1.521 6.717c-1.015 1.57-2.42 2.356-4.218 2.356s-3.204-.785-4.219-2.356c-1.013-1.57-1.52-3.81-1.52-6.717h-.001zm9.054 0c0-.953-.053-1.855-.16-2.708-.107-.851-.288-1.595-.544-2.23-.256-.635-.598-1.14-1.027-1.517-.429-.376-.957-.563-1.583-.563-.627 0-1.155.187-1.583.563-.43.376-.771.882-1.027 1.517-.257.635-.438 1.379-.544 2.23-.11.899-.164 1.803-.161 2.708 0 .953.053 1.855.16 2.706.107.853.29 1.597.545 2.232.256.635.597 1.14 1.027 1.516.428.376.956.564 1.583.564s1.154-.188 1.583-.564c.429-.375.771-.882 1.027-1.516.256-.635.437-1.379.544-2.232.11-.897.163-1.801.16-2.706zm15.89 8.697a104.717 104.717 0 0 1-1.471-4.122 68.891 68.891 0 0 1-1.423-4.826 73.69 73.69 0 0 1-1.41 4.826 93.928 93.928 0 0 1-1.46 4.122h-2.003c-.758-1.721-1.501-3.684-2.226-5.89a104.442 104.442 0 0 1-2.053-7.143h2.473c.165.785.362 1.637.594 2.556.232.922.475 1.842.73 2.758.256.919.524 1.804.804 2.656.28.852.545 1.596.792 2.23.28-.785.556-1.616.828-2.493.272-.877.532-1.762.78-2.657.247-.894.482-1.772.705-2.632.208-.802.402-1.608.58-2.418h1.906c.148.752.33 1.558.545 2.418.213.861.445 1.738.692 2.632.247.895.507 1.78.78 2.657.272.877.547 1.71.828 2.494a38.33 38.33 0 0 0 .779-2.23c.273-.853.54-1.738.804-2.658.265-.919.512-1.838.742-2.757.215-.848.413-1.7.595-2.556h2.374c-.6 2.405-1.284 4.788-2.053 7.143-.726 2.206-1.468 4.17-2.226 5.89h-2.005zm7.727-6.492c0-1.152.165-2.16.494-3.02.33-.86.767-1.574 1.312-2.143a5.32 5.32 0 0 1 1.88-1.278 5.806 5.806 0 0 1 2.177-.427c1.731 0 3.059.548 3.983 1.642.923 1.095 1.386 2.761 1.386 5.002v.387c0 .16-.009.305-.026.439h-8.807c.099 1.353.487 2.381 1.163 3.083.676.702 1.731 1.053 3.167 1.053.808 0 1.488-.072 2.04-.213.553-.142.97-.28 1.25-.414l.322 1.956c-.28.15-.772.308-1.472.476-.701.167-1.497.25-2.388.25-1.122 0-2.09-.17-2.906-.514-.817-.342-1.49-.814-2.017-1.416a5.8 5.8 0 0 1-1.175-2.143c-.256-.827-.383-1.734-.383-2.72zm8.83-1.278c.018-1.052-.242-1.918-.778-2.594-.536-.676-1.274-1.016-2.214-1.016-.528 0-.994.105-1.398.314-.392.2-.741.476-1.026.815a3.761 3.761 0 0 0-.656 1.153 5.76 5.76 0 0 0-.31 1.328h6.384-.001zm7.752-4.687c.28-.184.705-.376 1.274-.576.569-.201 1.225-.302 1.967-.302.924 0 1.744.168 2.461.501a5.124 5.124 0 0 1 1.82 1.405c.494.601.868 1.32 1.125 2.156.256.834.383 1.753.383 2.756 0 1.053-.153 2.002-.458 2.845-.305.844-.738 1.558-1.298 2.143a5.72 5.72 0 0 1-2.03 1.354c-.79.318-1.682.476-2.67.476-1.073 0-2.021-.075-2.846-.225-.825-.15-1.501-.301-2.029-.451V19.402l2.3-.402v6.993zm0 10.427c.231.067.556.13.978.188.42.058.944.088 1.57.088 1.237 0 2.226-.413 2.969-1.241.742-.827 1.112-2 1.112-3.522a8.54 8.54 0 0 0-.196-1.879c-.133-.586-.347-1.091-.644-1.517a3.123 3.123 0 0 0-1.15-1.002c-.47-.243-1.035-.363-1.696-.363-.626 0-1.203.107-1.73.325-.529.218-.932.443-1.213.677v8.246zm12.006 2.03V19.402l2.3-.402v6.667a7.72 7.72 0 0 1 1.373-.389 7.784 7.784 0 0 1 1.447-.137c1.023 0 1.872.146 2.548.438.676.292 1.217.702 1.62 1.228.405.527.69 1.158.855 1.893.164.735.247 1.546.247 2.432v7.318h-2.302v-6.817c0-.802-.053-1.487-.16-2.056-.107-.568-.285-1.028-.532-1.377a2.108 2.108 0 0 0-.99-.765c-.411-.16-.923-.238-1.533-.238-.247 0-.503.016-.767.05-.265.033-.515.07-.755.112a7.762 7.762 0 0 0-.643.138 3.787 3.787 0 0 0-.408.125V38.45h-2.301zm25.216-6.517c0 1.036-.148 1.972-.445 2.808a6.43 6.43 0 0 1-1.25 2.155 5.498 5.498 0 0 1-1.917 1.392 5.964 5.964 0 0 1-2.424.488 5.964 5.964 0 0 1-2.425-.488 5.498 5.498 0 0 1-1.916-1.392 6.413 6.413 0 0 1-1.25-2.156c-.297-.835-.446-1.77-.446-2.807 0-1.02.149-1.95.445-2.794.298-.845.714-1.567 1.25-2.169a5.498 5.498 0 0 1 1.917-1.39 5.964 5.964 0 0 1 2.425-.49 5.95 5.95 0 0 1 2.424.49c.742.325 1.382.789 1.918 1.39.536.602.953 1.324 1.25 2.169.296.844.444 1.775.444 2.794zm-2.399 0c0-1.47-.327-2.636-.978-3.496-.651-.861-1.537-1.29-2.659-1.29-1.121 0-2.008.429-2.66 1.29-.651.86-.976 2.026-.976 3.496 0 1.471.325 2.636.976 3.497.652.86 1.539 1.29 2.66 1.29 1.122 0 2.008-.43 2.66-1.29.651-.86.977-2.026.977-3.497zm8.368 4.838c.94 0 1.638-.125 2.092-.376.453-.25.68-.652.68-1.203 0-.568-.223-1.02-.668-1.354-.446-.334-1.18-.71-2.202-1.127a33.321 33.321 0 0 1-1.422-.615 4.98 4.98 0 0 1-1.176-.739c-.33-.284-.6-.634-.792-1.028-.198-.4-.297-.894-.297-1.479 0-1.152.42-2.067 1.262-2.744.841-.677 1.987-1.016 3.44-1.016.361 0 .725.022 1.088.063.362.042.7.092 1.014.15.313.06.59.122.83.188.238.067.423.125.556.176l-.42 2.005c-.248-.134-.637-.271-1.164-.413-.528-.143-1.163-.214-1.905-.214-.643 0-1.203.13-1.682.39-.479.259-.717.663-.717 1.215 0 .284.053.535.16.751.107.218.273.414.495.59.223.175.499.338.828.488.33.15.726.31 1.188.477.61.234 1.154.464 1.633.69.443.202.856.468 1.225.788.338.302.598.665.779 1.092.182.425.272.947.272 1.566 0 1.203-.442 2.113-1.323 2.731-.883.618-2.14.928-3.774.928-1.137 0-2.028-.096-2.671-.288-.643-.192-1.08-.338-1.311-.438l.42-2.006c.265.1.684.25 1.263.451.576.2 1.343.301 2.3.301zm9.928-11.354h4.874v1.955h-4.874v6.015c0 .652.05 1.19.149 1.617.099.426.247.76.445 1.002.198.243.446.414.742.515.297.1.644.15 1.04.15.692 0 1.249-.08 1.67-.238.42-.16.713-.272.878-.34l.445 1.932c-.23.116-.635.263-1.213.438-.576.175-1.236.263-1.978.263-.874 0-1.596-.113-2.165-.338a3.151 3.151 0 0 1-1.373-1.016c-.347-.45-.59-1.006-.73-1.667-.14-.659-.21-1.424-.21-2.293v-11.63l2.3-.401V25.417zM96.871 45.921c.987 0 1.745.18 2.274.54.529.36.793.948.793 1.767 0 .825-.268 1.42-.803 1.787s-1.299.55-2.293.55h-.468v2.296h-1.49v-6.762c.34-.068.685-.114 1.031-.138.363-.027.681-.04.956-.04zm.095 1.317c-.107 0-.213.003-.32.01-.09.005-.182.011-.272.02v1.98h.468c.516 0 .905-.072 1.166-.218.261-.145.392-.416.392-.812 0-.191-.034-.35-.101-.476a.778.778 0 0 0-.286-.301 1.26 1.26 0 0 0-.454-.159 3.621 3.621 0 0 0-.593-.044zm6.191 2.188c0 .336.04.64.12.91.079.271.194.504.344.699.15.194.332.344.549.45.216.105.464.158.745.158.274 0 .521-.053.74-.158.218-.104.408-.258.555-.45.15-.195.265-.428.344-.698.08-.271.12-.575.12-.911 0-.337-.04-.642-.12-.916a2.104 2.104 0 0 0-.345-.703 1.521 1.521 0 0 0-.554-.45 1.688 1.688 0 0 0-.74-.159c-.28 0-.529.054-.745.163a1.582 1.582 0 0 0-.55.456c-.15.194-.264.429-.344.703-.08.273-.119.576-.119.906zm5.055 0c0 .587-.085 1.103-.253 1.549a3.2 3.2 0 0 1-.693 1.118 2.833 2.833 0 0 1-1.046.68c-.418.153-.86.23-1.305.227-.452 0-.88-.076-1.28-.228a2.931 2.931 0 0 1-1.051-.678c-.311-.318-.552-.7-.707-1.118-.173-.447-.258-.963-.258-1.55 0-.588.088-1.104.267-1.55.179-.445.419-.82.722-1.123a2.954 2.954 0 0 1 1.05-.684 3.487 3.487 0 0 1 1.257-.227c.452 0 .879.076 1.28.227.402.152.751.38 1.052.684.3.304.535.678.706 1.123.172.446.259.962.259 1.55zm6.458-2.693c.076.27.161.575.253.915.093.34.191.692.297 1.055.105.363.211.726.32 1.089.108.363.213.7.314 1.01.19-.77.355-1.546.498-2.327.148-.824.292-1.649.43-2.475h1.548a73.301 73.301 0 0 1-.77 3.495 52.192 52.192 0 0 1-.94 3.366h-1.367a46.516 46.516 0 0 1-.65-1.995c-.21-.696-.418-1.394-.62-2.094l-.613 2.094a37.764 37.764 0 0 1-.64 1.995h-1.366a52.192 52.192 0 0 1-.942-3.366 73.3 73.3 0 0 1-.769-3.495h1.615c.138.827.288 1.652.45 2.475.082.422.167.832.253 1.228.085.396.173.762.262 1.1.115-.325.226-.667.335-1.03.108-.364.212-.727.315-1.09.102-.363.196-.713.282-1.05.086-.336.164-.636.234-.9h1.271zm5.484 6.129V46h4.472v1.297h-2.982v1.346h2.647v1.268h-2.647v1.653h3.202v1.298h-4.692zm8.598-6.94c.994 0 1.755.182 2.284.549.528.366.793.935.793 1.707 0 .482-.107.873-.32 1.174-.214.3-.521.536-.922.707.133.171.273.368.42.59.467.702.876 1.442 1.223 2.212h-1.672l-.368-.683a16.558 16.558 0 0 0-.77-1.292 6.691 6.691 0 0 0-.381-.53h-.736v2.506h-1.49v-6.763c.332-.067.668-.113 1.007-.138.348-.027.658-.04.932-.04zm.086 1.316c-.097 0-.194.002-.291.01-.082.006-.163.012-.244.02v1.86h.42c.561 0 .963-.071 1.204-.217.242-.145.364-.393.364-.743 0-.336-.124-.575-.368-.718-.246-.142-.607-.212-1.085-.212zm5.216 5.623V46h4.472v1.296h-2.982v1.346h2.647v1.268h-2.647v1.653h3.202v1.298h-4.692v-.001zm8.15-1.257a8.687 8.687 0 0 0 .573.02c.745 0 1.297-.196 1.658-.585.36-.389.54-.927.54-1.613 0-.72-.173-1.264-.516-1.634-.345-.37-.89-.554-1.634-.554-.103 0-.208.001-.316.005-.102.003-.204.01-.306.024v4.337zm4.309-2.178c0 .593-.089 1.111-.268 1.554a2.878 2.878 0 0 1-.76 1.099c-.348.302-.757.525-1.199.653a5.38 5.38 0 0 1-1.586.218c-.267 0-.58-.011-.936-.035a7.16 7.16 0 0 1-1.05-.144V46.09a8.452 8.452 0 0 1 1.073-.135c.32-.02.64-.032.961-.034.52-.006 1.04.06 1.543.197.462.133.858.34 1.19.625.331.283.586.647.764 1.089.179.442.268.973.268 1.594zm7.479 3.524a16.2 16.2 0 0 1-1.085-.035 7.415 7.415 0 0 1-1.123-.163v-6.653a9.22 9.22 0 0 1 1.004-.134c.362-.03.7-.045 1.013-.045.42 0 .807.033 1.16.095.354.063.658.17.914.322.254.152.454.351.597.599.143.247.214.552.214.915 0 .548-.254.98-.764 1.298.42.164.707.389.86.673.153.283.23.603.23.96 0 .719-.253 1.261-.76 1.623-.506.364-1.26.545-2.26.545zm-.755-3.08v1.773c.108.014.226.023.353.03.128.007.268.01.421.01.446 0 .806-.066 1.08-.197.273-.133.411-.377.411-.734 0-.317-.115-.542-.344-.678-.23-.134-.558-.203-.984-.203h-.937zm0-1.177h.727c.458 0 .786-.061.983-.183.198-.122.296-.319.296-.589 0-.277-.101-.472-.305-.584-.203-.113-.504-.168-.898-.168-.128 0-.265.001-.411.004-.131.002-.262.01-.392.025V48.693zm7.94.13c.267-.47.522-.939.764-1.407.24-.464.462-.936.668-1.416h1.644a44.567 44.567 0 0 1-1.127 2.148 56.295 56.295 0 0 1-1.233 2.09v2.623h-1.491v-2.604c-.428-.69-.841-1.39-1.239-2.099A45.23 45.23 0 0 1 158.031 46h1.73c.203.475.424.948.66 1.416.235.468.487.937.754 1.406h.001zM173.088 46h1.491v6.86h-1.49v-2.91h-2.504v2.91h-1.491V46h1.49v2.623h2.504V46zm5.14 3.426c0 .336.039.64.12.91.079.271.194.504.344.699.149.194.332.344.548.45.217.105.465.158.745.158.274 0 .521-.053.741-.158a1.53 1.53 0 0 0 .555-.45c.15-.195.264-.428.344-.698.079-.271.119-.575.119-.911 0-.337-.04-.642-.12-.916a2.104 2.104 0 0 0-.344-.703 1.521 1.521 0 0 0-.554-.45 1.688 1.688 0 0 0-.74-.159c-.28 0-.529.054-.746.163a1.582 1.582 0 0 0-.55.456c-.15.194-.264.429-.344.703-.08.273-.119.576-.119.906h.001zm5.054 0c0 .587-.084 1.103-.252 1.549a3.2 3.2 0 0 1-.694 1.118 2.833 2.833 0 0 1-1.046.68c-.418.153-.86.23-1.305.227a3.605 3.605 0 0 1-1.28-.228 2.931 2.931 0 0 1-1.051-.678c-.31-.318-.551-.7-.706-1.118-.173-.447-.26-.963-.26-1.55 0-.588.09-1.104.268-1.55.179-.445.42-.82.722-1.123a2.954 2.954 0 0 1 1.05-.684 3.494 3.494 0 0 1 1.257-.227c.453 0 .88.076 1.281.227.402.152.751.38 1.05.684.301.304.536.678.708 1.123.172.446.258.962.258 1.55zm3.917 2.257c.21 0 .384-.018.52-.054a.945.945 0 0 0 .33-.149.495.495 0 0 0 .172-.223.82.82 0 0 0 .048-.287c0-.224-.102-.411-.305-.559-.204-.148-.555-.309-1.051-.48a7.769 7.769 0 0 1-.65-.272c-.212-.1-.409-.23-.583-.387a1.841 1.841 0 0 1-.421-.564 1.833 1.833 0 0 1-.163-.807c0-.317.057-.603.172-.857a1.82 1.82 0 0 1 .488-.648c.21-.178.465-.315.765-.411.299-.096.636-.143 1.012-.143a3.977 3.977 0 0 1 1.96.475l-.43 1.218a3.994 3.994 0 0 0-.617-.263 2.582 2.582 0 0 0-.817-.113c-.357 0-.613.05-.77.153-.156.102-.233.26-.233.47 0 .126.028.231.085.317a.848.848 0 0 0 .244.233 2.2 2.2 0 0 0 .363.188c.137.056.289.113.454.173.344.132.644.262.898.391.255.13.467.279.636.45.169.172.295.373.377.604a2.5 2.5 0 0 1 .124.841c0 .64-.216 1.137-.65 1.49-.432.354-1.086.53-1.958.53a4.96 4.96 0 0 1-1.42-.187 3.512 3.512 0 0 1-.797-.337l.42-1.228c.197.113.442.213.732.302.29.09.644.134 1.065.134zM196.543 46v1.317h-1.996v5.544h-1.491v-5.543h-1.997v-1.317h5.484zm1.825 0h1.49v6.86h-1.49V46zm8.33 6.86a34.76 34.76 0 0 0-1.386-2.325 23.584 23.584 0 0 0-1.586-2.168v4.494h-1.47V46h1.213c.21.217.442.484.697.8.255.318.514.656.78 1.015.263.36.526.734.787 1.119.261.386.507.758.736 1.115V46h1.481v6.86h-1.252zm6.88-5.672c-.695 0-1.197.2-1.506.6-.31.399-.464.945-.464 1.637 0 .337.038.643.115.916.077.274.19.51.344.708.153.198.345.352.574.46.23.11.496.164.802.164.165 0 .308-.003.425-.01.118-.006.22-.02.311-.04v-2.386h1.49v3.397a5.67 5.67 0 0 1-.86.232c-.394.083-.883.124-1.462.124a3.68 3.68 0 0 1-1.351-.238 2.819 2.819 0 0 1-1.038-.693 3.114 3.114 0 0 1-.664-1.118 4.563 4.563 0 0 1-.234-1.515c0-.574.087-1.083.258-1.525.158-.42.398-.802.707-1.123a2.97 2.97 0 0 1 1.057-.698c.413-.16.852-.241 1.294-.238a5.061 5.061 0 0 1 1.495.213c.247.072.483.177.703.311l-.43 1.238a3.81 3.81 0 0 0-.703-.292 2.89 2.89 0 0 0-.864-.124zm4.344 5.673V46h4.473v1.296h-2.98v1.346h2.646v1.268h-2.647v1.653h3.201v1.298h-4.692v-.001zm8.6-6.94c.994 0 1.755.183 2.283.55.53.366.794.935.794 1.707 0 .482-.107.873-.32 1.174-.214.3-.522.536-.922.707.133.171.273.368.42.59.467.702.876 1.442 1.223 2.212h-1.673l-.367-.683a16.558 16.558 0 0 0-.77-1.292 6.691 6.691 0 0 0-.382-.53h-.735v2.506h-1.49v-6.763c.332-.067.668-.113 1.007-.138.347-.027.658-.04.931-.04zm.086 1.317c-.097 0-.194.002-.291.01l-.244.02v1.86h.42c.56 0 .963-.071 1.204-.217.242-.145.363-.393.363-.743 0-.336-.122-.575-.368-.718-.245-.142-.606-.212-1.084-.212z"/>
        <path fill="#D10303" d="M27.483 26.545c-3.567 32.444 25.83 37.45 34.178 28.13-14.698 36.155-49.224-4.746-34.178-28.13zm-5.654-4.056C9.132 24.301-9.74 64.425 12.61 59.852c-13.74-4.92.088-33.307 9.219-37.362zm0-5.09C17.394 15.328 1.218 21.453 0 33.791c3.044-6.557 10.958-15.444 21.829-16.394zm5.566-4.575c-6.783-5.263-14.872.778-17.393 2.158 6.783-7.852 16.958-6.557 17.393-2.157zm6.436-1.638c4.696-4.23-2.348-12.254-9.133-5.782 2.437-1.035 10.61-2.415 9.133 5.782zm7.74 1.208C50.53 3.937 43.05.659 40.701.485c12.524-3.192 6.958 10.356.87 11.909zm1.478 5.177c9.307 3.538 37.05-11.735 14.96-14.756 5.044 1.209 6.175 11.305-14.958 14.756h-.002zm-6.522 7.68c6.175 17.689 61.313 16.048 37.57-7.853 5.131 8.197-7.653 22.78-37.57 7.852z"/>
    </g>
</svg>
