<svg xmlns="http://www.w3.org/2000/svg" xmlns:xlink="http://www.w3.org/1999/xlink" viewBox="0 0 200 100"><defs><style>.cls-1{fill:url(#radial-gradient);}.cls-2{fill:#3acfe8;}.cls-2,.cls-7{opacity:0.3;}.cls-3{fill:url(#linear-gradient);}.cls-4{fill:url(#linear-gradient-2);}.cls-5{opacity:0.7;}.cls-6{fill:#f7e6b7;}.cls-7{fill:#fff;}</style><radialGradient id="radial-gradient" cx="105.46" cy="1960.69" r="746.24" gradientTransform="translate(79.17 -192.34) scale(0.21 0.13)" gradientUnits="userSpaceOnUse"><stop offset="0" stop-color="#f7e6b7"/><stop offset="0.13" stop-color="#f1d8b8"/><stop offset="0.37" stop-color="#e2b2bb"/><stop offset="0.7" stop-color="#ca75c0"/><stop offset="1" stop-color="#b23ac5"/></radialGradient><linearGradient id="linear-gradient" x1="100" y1="80.65" x2="100" y2="46.07" gradientUnits="userSpaceOnUse"><stop offset="0" stop-color="#3acfe8"/><stop offset="0.18" stop-color="#40c9e6"/><stop offset="0.41" stop-color="#51b8e0"/><stop offset="0.68" stop-color="#6c9cd5"/><stop offset="0.97" stop-color="#9276c7"/><stop offset="1" stop-color="#9771c5"/></linearGradient><linearGradient id="linear-gradient-2" x1="100" y1="99.14" x2="100" y2="58.57" gradientUnits="userSpaceOnUse"><stop offset="0" stop-color="#2f134f"/><stop offset="0.21" stop-color="#301552"/><stop offset="0.38" stop-color="#321a5c"/><stop offset="0.52" stop-color="#36226c"/><stop offset="0.65" stop-color="#3b2e83"/><stop offset="0.78" stop-color="#433da0"/><stop offset="0.9" stop-color="#4b50c4"/><stop offset="1" stop-color="#5463e8"/></linearGradient></defs><title>Asset 5</title><g id="Layer_2" data-name="Layer 2"><g id="Layer_1-2" data-name="Layer 1"><rect class="cls-1" width="200" height="100"/><path class="cls-2" d="M200,49.45a11.08,11.08,0,0,1-7.29,2.74c-4.87-.08-9.4,1.93-14,1.12-5.06-.89-17.6-5.71-23.73-4.85-6.91,1-17.34,3.43-22.22,2.71-3.21-.48-10.16-3.57-14-3.57s-5.84,6-23.2,6.3c-5.85.09-14.39-3.49-19.06-3.56-4-.06-10.36,3-16.58,3-4.54,0-18.18-3.79-21.39-3.77-7.26.07-8.3.9-25.66,2C7.92,52,0,50.54,0,50.54V80.65H200Z"/><path class="cls-3" d="M0,50.93S8.38,53,12.58,53.74c1.41.23,7.55-2.42,8.53-2.05,3.65,1.39,6.47,5.08,9.94,5.08,3.84,0,4.74-3,7.75-3.1,3.34-.07,6.44,1.93,9.6,1.12,3.47-.89,10.49-6.2,13.86-4.55,4.4,2.15,9.12-4.54,11.74-4.15,2.22.33,5.78,2.83,8.44,2.83s11.12,6.2,23,6.47c4,.09,9.86-3.5,13.06-3.57,2.79,0,7.11,3,11.38,3,3.11,0,12.47-3.79,14.67-3.76,5,.07,13.51,7.52,25.42,8.64,3.36.32,6-3.56,11.64-4.15s5.16,1.78,10,1.51C193.63,57,200,52,200,52V80.65H0Z"/><path class="cls-4" d="M0,53.8s15.87,8.61,20.13,8.71c3.12.07,16.67-6.33,22.54-5.74,4.68.48,22,7.87,28.93,6.93,3.55-.48,8.53-5.64,16.93-5.15,6.8.4,18.54,7.13,19.6,7.13s3.34-1.09,6.67-.79c2.85.25,10,2.68,13.21,3.07s15.2-6.68,18.4-6.08,16.35-6.67,18.8-6.53c3.6.19,8.86,4,11,4.45,1.8.36,7.58,1.27,9.39,1.62,6.11,1.21,14.4,5.94,14.4,5.94V100H0Z"/><g class="cls-5"><path class="cls-6" d="M16.38,18.12a.36.36,0,1,0,0,.72A.36.36,0,1,0,16.38,18.12Z"/><path class="cls-6" d="M190.29,41.79a.37.37,0,1,0,0,.73A.37.37,0,1,0,190.29,41.79Z"/><path class="cls-6" d="M191.54,8.58a.36.36,0,1,0,0,.72A.36.36,0,1,0,191.54,8.58Z"/><path class="cls-6" d="M25.9,4.55c-.64,0-.6.75,0,.73A.37.37,0,1,0,25.9,4.55Z"/><path class="cls-6" d="M153.26,15.85a.37.37,0,1,0,0,.73A.37.37,0,1,0,153.26,15.85Z"/><path class="cls-6" d="M92.17,10.72a.37.37,0,1,0,0,.73A.37.37,0,1,0,92.17,10.72Z"/><path class="cls-6" d="M6,8.18c-.64,0-.6.75,0,.73A.37.37,0,1,0,6,8.18Z"/><path class="cls-6" d="M51.48,5.27a.23.23,0,1,0,0,.45C51.93,5.71,51.91,5.25,51.48,5.27Z"/><path class="cls-6" d="M11.9,39.57a.23.23,0,1,0,0,.45A.23.23,0,1,0,11.9,39.57Z"/><path class="cls-6" d="M37.16,16.57a.23.23,0,1,0,0,.45A.23.23,0,1,0,37.16,16.57Z"/><path class="cls-6" d="M107.64,4.28a.23.23,0,1,0,0,.45A.23.23,0,1,0,107.64,4.28Z"/><path class="cls-6" d="M70.93,8.31a.23.23,0,1,0,0,.46C71.38,8.75,71.36,8.3,70.93,8.31Z"/></g><path class="cls-7" d="M172.42,21.53h.34A2.75,2.75,0,0,1,175.7,24a2.75,2.75,0,0,1-2.94,2.51h-.34A2.7,2.7,0,0,0,175,24,2.7,2.7,0,0,0,172.42,21.53Z"/></g></g></svg>