<svg xmlns="http://www.w3.org/2000/svg" xmlns:xlink="http://www.w3.org/1999/xlink" viewBox="0 0 200 100"><defs><style>.cls-1{fill:url(#linear-gradient);}.cls-2{fill:#1e3152;}.cls-3,.cls-4,.cls-5,.cls-6{opacity:0.4;}.cls-3{fill:url(#linear-gradient-2);}.cls-4{fill:url(#linear-gradient-3);}.cls-5{fill:url(#linear-gradient-4);}.cls-6{fill:url(#linear-gradient-5);}.cls-7{fill:url(#linear-gradient-6);}.cls-8{fill:#e6ebff;opacity:0.7;}.cls-9{fill:#747eb6;}.cls-10{fill:url(#linear-gradient-7);}.cls-11{fill:url(#linear-gradient-8);}.cls-12{fill:url(#linear-gradient-9);}.cls-13{fill:#95a5df;}.cls-14{fill:url(#linear-gradient-10);}.cls-15{fill:url(#linear-gradient-11);}.cls-16{fill:url(#linear-gradient-12);}.cls-17{fill:url(#linear-gradient-13);}.cls-18{fill:url(#linear-gradient-14);}.cls-19{fill:url(#linear-gradient-15);}.cls-20{fill:url(#linear-gradient-16);}.cls-21{fill:url(#linear-gradient-17);}.cls-22{fill:url(#linear-gradient-18);}.cls-23{fill:url(#linear-gradient-19);}.cls-24{fill:url(#linear-gradient-20);}.cls-25{fill:#475791;}.cls-26{fill:#fff;}</style><linearGradient id="linear-gradient" x1="100" y1="171.19" x2="100" y2="-0.34" gradientUnits="userSpaceOnUse"><stop offset="0" stop-color="#98abdf"/><stop offset="0.06" stop-color="#9dade0"/><stop offset="0.15" stop-color="#adb2e1"/><stop offset="0.24" stop-color="#c6bbe4"/><stop offset="0.33" stop-color="#eac8e8"/><stop offset="0.35" stop-color="#f0cae9"/><stop offset="0.49" stop-color="#f3d5e7"/><stop offset="0.63" stop-color="#f6e5e5"/><stop offset="0.67" stop-color="#f4dae7"/><stop offset="0.73" stop-color="#f1cee8"/><stop offset="0.78" stop-color="#f0cae9"/><stop offset="0.99" stop-color="#9dabdf"/></linearGradient><linearGradient id="linear-gradient-2" x1="0.08" y1="69.16" x2="202.83" y2="69.16" gradientUnits="userSpaceOnUse"><stop offset="0" stop-color="#fff"/><stop offset="1" stop-color="#f0cae9"/></linearGradient><linearGradient id="linear-gradient-3" x1="0.08" y1="49.8" x2="58.05" y2="49.8" xlink:href="#linear-gradient-2"/><linearGradient id="linear-gradient-4" x1="98.04" y1="48.96" x2="152.28" y2="48.96" xlink:href="#linear-gradient-2"/><linearGradient id="linear-gradient-5" x1="139.35" y1="90.07" x2="242.51" y2="90.07" gradientTransform="matrix(1, 0, 0, -1, 0, 150)" gradientUnits="userSpaceOnUse"><stop offset="0" stop-color="#fff"/><stop offset="0.34" stop-color="#fbf1f9"/><stop offset="0.98" stop-color="#f0cbe9"/><stop offset="1" stop-color="#f0cae9"/></linearGradient><linearGradient id="linear-gradient-6" x1="49.91" y1="-3.94" x2="99.89" y2="82.99" gradientUnits="userSpaceOnUse"><stop offset="0.01" stop-color="#e6ebff"/><stop offset="0.25" stop-color="#d7def9"/><stop offset="0.73" stop-color="#afbbe9"/><stop offset="1" stop-color="#95a5df"/></linearGradient><linearGradient id="linear-gradient-7" x1="64.51" y1="39.72" x2="122.92" y2="78.32" gradientUnits="userSpaceOnUse"><stop offset="0" stop-color="#747eb6"/><stop offset="0.59" stop-color="#8c9cd1"/><stop offset="0.99" stop-color="#98abdf"/></linearGradient><linearGradient id="linear-gradient-8" x1="67.57" y1="36.01" x2="125.61" y2="74.36" xlink:href="#linear-gradient-7"/><linearGradient id="linear-gradient-9" x1="71.99" y1="29.28" x2="130.59" y2="68" xlink:href="#linear-gradient-7"/><linearGradient id="linear-gradient-10" x1="143.4" y1="61.65" x2="144.69" y2="110.18" gradientUnits="userSpaceOnUse"><stop offset="0" stop-color="#475791"/><stop offset="0.19" stop-color="#4f5f98"/><stop offset="0.48" stop-color="#6475ad"/><stop offset="0.83" stop-color="#8699ce"/><stop offset="0.99" stop-color="#98abdf"/></linearGradient><linearGradient id="linear-gradient-11" x1="152.16" y1="61.47" x2="153.44" y2="109.87" xlink:href="#linear-gradient-10"/><linearGradient id="linear-gradient-12" x1="128.85" y1="61.96" x2="130.13" y2="110.63" xlink:href="#linear-gradient-10"/><linearGradient id="linear-gradient-13" x1="98.66" y1="62.72" x2="99.93" y2="111.09" xlink:href="#linear-gradient-10"/><linearGradient id="linear-gradient-14" x1="114.73" y1="62.3" x2="116.01" y2="110.78" xlink:href="#linear-gradient-10"/><linearGradient id="linear-gradient-15" x1="91.08" y1="62.89" x2="92.35" y2="111.22" xlink:href="#linear-gradient-10"/><linearGradient id="linear-gradient-16" x1="74.61" y1="22.75" x2="154.36" y2="73.33" gradientUnits="userSpaceOnUse"><stop offset="0" stop-color="#fff"/><stop offset="0.33" stop-color="#f5f7ff"/><stop offset="0.99" stop-color="#e6ebff"/></linearGradient><linearGradient id="linear-gradient-17" x1="62.17" y1="37.84" x2="143.2" y2="89.24" xlink:href="#linear-gradient-16"/><linearGradient id="linear-gradient-18" x1="66.31" y1="31.77" x2="147.53" y2="83.29" xlink:href="#linear-gradient-16"/><linearGradient id="linear-gradient-19" x1="69.11" y1="27.77" x2="150.39" y2="79.33" xlink:href="#linear-gradient-16"/><linearGradient id="linear-gradient-20" x1="59.31" y1="42.19" x2="140.07" y2="93.42" xlink:href="#linear-gradient-16"/></defs><title>Asset 3</title><g id="Layer_2" data-name="Layer 2"><g id="Layer_1-2" data-name="Layer 1"><rect class="cls-1" width="200" height="100"/><rect class="cls-2" y="80.36" width="200" height="19.64"/><polygon class="cls-3" points="88.71 72.15 0.08 72.15 0.08 66.17 177.33 69.25 88.71 72.15"/><polygon class="cls-4" points="28.39 50.12 24.26 47.54 0.08 47.54 0.08 52.06 21.92 50.64 25.16 51.54 58.05 51.54 28.39 50.12"/><polygon class="cls-5" points="125.62 48.31 98.03 49.6 122.02 49.6 124.02 49.18 152.28 49.61 125.62 48.31"/><polygon class="cls-6" points="162.35 61.86 139.35 60.94 166.18 56.9 184.65 59.19 199.99 58.18 199.99 62.96 162.35 61.86"/><polygon class="cls-7" points="35.9 80.36 30.66 73.09 37.11 70.89 46.71 58.7 56.56 52.44 59.84 46.5 63.97 43.38 69.56 46.5 70.17 44.94 73.82 44.94 88.77 53.59 91.44 53.27 92.05 51.19 94.48 50.67 100.56 53.81 101.16 53.28 102.99 54.32 103.59 52.75 106.02 52.23 132.67 60.56 133.32 60.04 141.85 65.25 142.47 64.21 144.3 64.73 161.93 80.36 35.9 80.36"/><polygon class="cls-8" points="151.89 80.36 100.56 53.81 101.16 53.28 102.99 54.32 103.59 52.75 106.02 52.23 132.67 60.56 133.32 60.04 141.85 65.25 142.47 64.21 144.3 64.73 161.93 80.36 151.89 80.36"/><polygon class="cls-9" points="24.11 80.36 30.66 73.09 37.11 70.89 46.71 58.7 56.56 52.44 59.84 46.5 63.97 43.38 63.49 49.11 101.53 80.36 24.11 80.36"/><polygon class="cls-10" points="70.17 44.94 102.99 61.71 69.56 46.5 70.17 44.94"/><polygon class="cls-11" points="92.05 51.19 91.44 53.27 105.42 59.52 92.05 51.19"/><polygon class="cls-12" points="103.59 52.75 102.99 54.31 138.84 68.9 103.59 52.75"/><polygon class="cls-9" points="142.48 64.21 141.88 65.25 161.93 80.36 142.48 64.21"/><polygon class="cls-13" points="76.25 80.36 66.8 69.94 67.47 80.36 76.25 80.36"/><polygon class="cls-14" points="161.93 80.36 125.47 65.25 148.45 80.36 161.93 80.36"/><polygon class="cls-15" points="143.09 68.9 161.93 80.36 154.5 80.36 143.09 68.9"/><polygon class="cls-16" points="101.16 63.17 157.05 80.36 120.38 80.36 101.16 63.17"/><polygon class="cls-17" points="83.66 60.04 98.25 80.36 114.05 80.36 83.66 60.04"/><polygon class="cls-18" points="102.38 68.22 127.72 80.36 111.93 80.36 102.38 68.22"/><polygon class="cls-19" points="81.11 63.69 101.53 80.36 89.94 80.36 81.11 63.69"/><polygon class="cls-20" points="142.48 64.21 161.93 80.36 144.31 64.73 142.48 64.21"/><polygon class="cls-21" points="70.17 44.94 73.82 44.94 102.99 61.71 70.17 44.94"/><polygon class="cls-22" points="92.05 51.19 94.48 50.67 129.72 68.9 105.42 59.52 92.05 51.19"/><polygon class="cls-23" points="138.84 68.9 103.59 52.75 106.02 52.23 138.84 68.9"/><polygon class="cls-24" points="63.97 43.38 63.49 49.11 102.38 65.25 63.97 43.38"/><polygon class="cls-25" points="0.08 67.41 0.08 80.36 61.88 80.36 0.08 67.41"/><polygon class="cls-25" points="199.99 60.63 175.63 73.25 123.13 80.36 199.99 80.36 199.99 60.63"/><polygon class="cls-2" points="185.63 80.36 187.2 74.83 188.78 80.36 185.63 80.36"/><polygon class="cls-2" points="144.71 80.36 146.29 74.83 147.86 80.36 144.71 80.36"/><polygon class="cls-2" points="117.66 80.36 119.23 74.83 120.81 80.36 117.66 80.36"/><polygon class="cls-2" points="83.01 80.36 84.59 74.83 86.16 80.36 83.01 80.36"/><polygon class="cls-2" points="180.16 80.36 181.41 76 182.65 80.36 180.16 80.36"/><polygon class="cls-2" points="150.98 80.36 152.22 76 153.46 80.36 150.98 80.36"/><polygon class="cls-2" points="190.79 80.36 192.67 73.75 194.55 80.36 190.79 80.36"/><polygon class="cls-2" points="194.25 80.36 197.13 70.27 200 80.36 194.25 80.36"/><polygon class="cls-2" points="181.77 80.36 183.83 73.12 185.89 80.36 181.77 80.36"/><polygon class="cls-2" points="14.04 80.36 16.58 71.43 19.13 80.36 14.04 80.36"/><polygon class="cls-2" points="18.47 80.36 21.51 69.7 24.54 80.36 18.47 80.36"/><polygon class="cls-2" points="4.88 80.36 7.25 72.04 9.62 80.36 4.88 80.36"/><polygon class="cls-2" points="165.34 80.36 167.72 71.98 170.1 80.36 165.34 80.36"/><polygon class="cls-2" points="55.04 80.36 56.93 73.71 58.83 80.36 55.04 80.36"/><polygon class="cls-2" points="52.89 80.36 54.13 76 55.38 80.36 52.89 80.36"/><polygon class="cls-2" points="110.33 80.36 111.08 77.73 111.82 80.36 110.33 80.36"/><polygon class="cls-2" points="162.97 80.36 163.72 77.73 164.47 80.36 162.97 80.36"/><polygon class="cls-2" points="29.04 80.36 29.78 77.73 30.53 80.36 29.04 80.36"/><polygon class="cls-2" points="79.14 80.36 79.89 77.73 80.64 80.36 79.14 80.36"/><polygon class="cls-2" points="50.89 80.36 52.13 76 53.38 80.36 50.89 80.36"/><polygon class="cls-2" points="57.52 80.36 60.56 69.7 63.59 80.36 57.52 80.36"/><polygon class="cls-2" points="46.86 80.36 49.24 71.98 51.63 80.36 46.86 80.36"/><polygon class="cls-2" points="130.15 80.36 132.54 71.98 134.92 80.36 130.15 80.36"/><polygon class="cls-2" points="146.81 80.36 149.2 71.98 151.58 80.36 146.81 80.36"/><polygon class="cls-2" points="34.87 80.36 37.25 71.98 39.63 80.36 34.87 80.36"/><polygon class="cls-2" points="96.6 80.36 97.51 77.17 98.42 80.36 96.6 80.36"/><polygon class="cls-2" points="42.76 80.36 44.34 74.83 45.91 80.36 42.76 80.36"/><polygon class="cls-2" points="124.59 80.36 126.17 74.83 127.74 80.36 124.59 80.36"/><polygon class="cls-2" points="122.46 80.36 124.03 74.83 125.61 80.36 122.46 80.36"/><polygon class="cls-2" points="133.62 80.36 135.5 73.75 137.38 80.36 133.62 80.36"/><polygon class="cls-2" points="152.67 80.36 155.71 69.7 158.75 80.36 152.67 80.36"/><polygon class="cls-2" points="188.03 80.36 189.27 76 190.51 80.36 188.03 80.36"/><polygon class="cls-2" points="189.72 80.36 192.76 69.7 195.79 80.36 189.72 80.36"/><polygon class="cls-2" points="109.26 80.36 110.01 77.73 110.76 80.36 109.26 80.36"/><polygon class="cls-2" points="121.26 80.36 122 77.73 122.75 80.36 121.26 80.36"/><polygon class="cls-2" points="120.19 80.36 120.94 77.73 121.69 80.36 120.19 80.36"/><polygon class="cls-2" points="104.86 80.36 105.61 77.73 106.36 80.36 104.86 80.36"/><polygon class="cls-2" points="85.81 80.36 86.56 77.73 87.3 80.36 85.81 80.36"/><polygon class="cls-2" points="63.15 80.36 63.9 77.73 64.65 80.36 63.15 80.36"/><polygon class="cls-2" points="45.69 80.36 46.44 77.73 47.19 80.36 45.69 80.36"/><polygon class="cls-2" points="3.72 80.36 4.96 76 6.2 80.36 3.72 80.36"/><polygon class="cls-2" points="0 80.36 1.89 73.71 3.79 80.36 0 80.36"/><polygon class="cls-2" points="21.54 80.36 23.91 72.04 26.28 80.36 21.54 80.36"/><polygon class="cls-2" points="38.73 80.36 41.12 71.98 43.5 80.36 38.73 80.36"/><path class="cls-26" d="M146.58,42.79l.35,0a2.18,2.18,0,1,1,0,4.31l-.35,0a2.14,2.14,0,1,0,0-4.27Z"/></g></g></svg>