<svg xmlns="http://www.w3.org/2000/svg" xmlns:xlink="http://www.w3.org/1999/xlink" viewBox="0 0 200 100"><defs><style>.cls-1{fill:url(#linear-gradient);}.cls-2{fill:url(#linear-gradient-2);}.cls-3,.cls-36,.cls-47,.cls-48,.cls-5,.cls-6,.cls-72{opacity:0.1;}.cls-3{fill:url(#linear-gradient-3);}.cls-27,.cls-30,.cls-33,.cls-4,.cls-43,.cls-63,.cls-71{opacity:0.2;}.cls-4{fill:url(#linear-gradient-4);}.cls-5{fill:url(#linear-gradient-5);}.cls-6{fill:#fef7f5;}.cls-7,.cls-70{opacity:0.05;}.cls-7{fill:url(#linear-gradient-6);}.cls-12,.cls-21,.cls-40,.cls-8{opacity:0.15;}.cls-8{fill:url(#linear-gradient-7);}.cls-9{fill:url(#linear-gradient-8);}.cls-10{fill:url(#linear-gradient-9);}.cls-11{fill:#5a4996;}.cls-11,.cls-74{opacity:0.4;}.cls-12{fill:url(#linear-gradient-10);}.cls-13{fill:url(#linear-gradient-11);}.cls-14{fill:url(#radial-gradient);}.cls-15,.cls-24,.cls-73{opacity:0.3;}.cls-15{fill:url(#linear-gradient-12);}.cls-16{fill:url(#linear-gradient-13);}.cls-17{fill:url(#linear-gradient-14);}.cls-18,.cls-37{opacity:0.25;}.cls-18{fill:url(#linear-gradient-15);}.cls-19{fill:url(#linear-gradient-16);}.cls-20{fill:url(#linear-gradient-17);}.cls-21{fill:url(#linear-gradient-18);}.cls-22{fill:url(#linear-gradient-19);}.cls-23{fill:#8a69ab;}.cls-24{fill:url(#linear-gradient-20);}.cls-25{fill:url(#linear-gradient-21);}.cls-26{fill:url(#linear-gradient-22);}.cls-27{fill:url(#linear-gradient-23);}.cls-28{fill:url(#linear-gradient-24);}.cls-29{fill:url(#radial-gradient-2);}.cls-30{fill:url(#linear-gradient-25);}.cls-31{fill:url(#linear-gradient-26);}.cls-32,.cls-34,.cls-35{opacity:0.7;}.cls-32{fill:url(#linear-gradient-27);}.cls-33,.cls-36{fill:#ffccd3;}.cls-34{fill:url(#linear-gradient-28);}.cls-35{fill:url(#linear-gradient-29);}.cls-37{fill:url(#linear-gradient-30);}.cls-38{fill:url(#linear-gradient-31);}.cls-39{fill:url(#linear-gradient-32);}.cls-40{fill:url(#linear-gradient-33);}.cls-41{fill:url(#linear-gradient-34);}.cls-42{fill:url(#linear-gradient-35);}.cls-43{fill:url(#linear-gradient-36);}.cls-44{fill:url(#linear-gradient-37);}.cls-45{fill:url(#linear-gradient-38);}.cls-46{fill:url(#linear-gradient-39);}.cls-47{fill:url(#linear-gradient-40);}.cls-48{fill:url(#linear-gradient-41);}.cls-49{fill:#302653;}.cls-50{fill:url(#linear-gradient-42);}.cls-51,.cls-53,.cls-58{opacity:0.8;}.cls-51{fill:url(#linear-gradient-43);}.cls-52{fill:url(#linear-gradient-44);}.cls-53{fill:url(#linear-gradient-45);}.cls-54{fill:url(#linear-gradient-46);}.cls-55{fill:url(#linear-gradient-47);}.cls-56{fill:url(#linear-gradient-48);}.cls-57{fill:url(#linear-gradient-49);}.cls-58{fill:url(#linear-gradient-50);}.cls-59{fill:url(#linear-gradient-51);}.cls-60{fill:url(#linear-gradient-52);}.cls-61{fill:url(#linear-gradient-53);}.cls-62{fill:url(#linear-gradient-54);}.cls-64{fill:#735dc5;}.cls-65{fill:url(#linear-gradient-55);}.cls-66{fill:url(#linear-gradient-56);}.cls-67{fill:url(#linear-gradient-57);}.cls-68{fill:url(#linear-gradient-58);}.cls-69{fill:url(#linear-gradient-59);}.cls-70,.cls-71,.cls-72,.cls-73,.cls-74,.cls-75{fill:#fff;}.cls-75{opacity:0.6;}</style><linearGradient id="linear-gradient" x1="-57.21" y1="80" x2="267.61" y2="80" gradientUnits="userSpaceOnUse"><stop offset="0.02" stop-color="#5954bf"/><stop offset="0.2" stop-color="#8675c5"/><stop offset="0.48" stop-color="#f0c7ee"/><stop offset="0.7" stop-color="#f9dfd6"/></linearGradient><linearGradient id="linear-gradient-2" x1="137.07" y1="-13.23" x2="-27.27" y2="178.4" gradientUnits="userSpaceOnUse"><stop offset="0" stop-color="#feeab9"/><stop offset="0.51" stop-color="#c493e3"/><stop offset="0.53" stop-color="#bd8fe1"/><stop offset="0.75" stop-color="#876fcf"/><stop offset="0.91" stop-color="#665bc3"/><stop offset="1" stop-color="#5954bf"/></linearGradient><linearGradient id="linear-gradient-3" x1="62.4" y1="75.83" x2="173.07" y2="75.83" gradientUnits="userSpaceOnUse"><stop offset="0" stop-color="#735dc5"/><stop offset="1" stop-color="#e1b2e2"/></linearGradient><linearGradient id="linear-gradient-4" x1="-0.4" y1="89.49" x2="161.53" y2="89.49" xlink:href="#linear-gradient-3"/><linearGradient id="linear-gradient-5" x1="26.07" y1="12.94" x2="184.66" y2="12.94" gradientTransform="matrix(0.91, 0.03, -0.03, 1, 5.82, 13.02)" gradientUnits="userSpaceOnUse"><stop offset="0" stop-color="#f9dfd6"/><stop offset="1" stop-color="#fef7f5"/></linearGradient><linearGradient id="linear-gradient-6" x1="0" y1="30.61" x2="104" y2="30.61" gradientTransform="matrix(1, 0, 0, 1, 0, 0)" xlink:href="#linear-gradient-5"/><linearGradient id="linear-gradient-7" x1="166.67" y1="82.57" x2="166.67" y2="85.43" gradientUnits="userSpaceOnUse"><stop offset="0" stop-color="#240b7a"/><stop offset="0.24" stop-color="#28107c"/><stop offset="0.51" stop-color="#341e82"/><stop offset="0.8" stop-color="#48358d"/><stop offset="1" stop-color="#5a4996"/></linearGradient><linearGradient id="linear-gradient-8" x1="166.67" y1="78" x2="166.67" y2="82.57" gradientUnits="userSpaceOnUse"><stop offset="0" stop-color="#debade"/><stop offset="1" stop-color="#7a5b96"/></linearGradient><linearGradient id="linear-gradient-9" x1="168.64" y1="79.72" x2="157.71" y2="91.59" gradientUnits="userSpaceOnUse"><stop offset="0" stop-color="#7a5b96"/><stop offset="1" stop-color="#5a4996"/></linearGradient><linearGradient id="linear-gradient-10" x1="146.27" y1="88.86" x2="146.27" y2="91.14" xlink:href="#linear-gradient-7"/><linearGradient id="linear-gradient-11" x1="146.27" y1="86.69" x2="146.27" y2="88.97" xlink:href="#linear-gradient-8"/><radialGradient id="radial-gradient" cx="672.4" cy="345.64" r="32.58" gradientTransform="translate(7.92 23.82) scale(0.21 0.18)" xlink:href="#linear-gradient-9"/><linearGradient id="linear-gradient-12" x1="46.8" y1="81.43" x2="46.8" y2="83.14" xlink:href="#linear-gradient-7"/><linearGradient id="linear-gradient-13" x1="46.8" y1="79.14" x2="46.8" y2="81.43" xlink:href="#linear-gradient-8"/><linearGradient id="linear-gradient-14" x1="46.8" y1="53.54" x2="46.8" y2="107.47" xlink:href="#linear-gradient-9"/><linearGradient id="linear-gradient-15" x1="110.56" y1="97.29" x2="110.56" y2="99" xlink:href="#linear-gradient-7"/><linearGradient id="linear-gradient-16" x1="110.56" y1="95" x2="110.56" y2="97.29" xlink:href="#linear-gradient-8"/><linearGradient id="linear-gradient-17" x1="110.56" y1="52.83" x2="110.56" y2="106.76" xlink:href="#linear-gradient-9"/><linearGradient id="linear-gradient-18" x1="134.8" y1="76.86" x2="134.8" y2="78.69" xlink:href="#linear-gradient-7"/><linearGradient id="linear-gradient-19" x1="134.8" y1="75.03" x2="134.8" y2="76.86" xlink:href="#linear-gradient-8"/><linearGradient id="linear-gradient-20" x1="20.13" y1="75.71" x2="20.13" y2="77.54" xlink:href="#linear-gradient-7"/><linearGradient id="linear-gradient-21" x1="20.13" y1="74" x2="20.13" y2="75.83" xlink:href="#linear-gradient-8"/><linearGradient id="linear-gradient-22" x1="20.13" y1="53.89" x2="20.13" y2="107.81" xlink:href="#linear-gradient-9"/><linearGradient id="linear-gradient-23" x1="183" y1="95.71" x2="183" y2="99.72" xlink:href="#linear-gradient-7"/><linearGradient id="linear-gradient-24" x1="183" y1="90.56" x2="183" y2="95.71" xlink:href="#linear-gradient-8"/><radialGradient id="radial-gradient-2" cx="858" cy="369.96" r="74.57" gradientTransform="translate(7.92 23.82) scale(0.21 0.18)" gradientUnits="userSpaceOnUse"><stop offset="0.03" stop-color="#8a69ab"/><stop offset="0.4" stop-color="#7a5b96"/><stop offset="1" stop-color="#5a4996"/></radialGradient><linearGradient id="linear-gradient-25" x1="47.67" y1="67.14" x2="47.67" y2="76.86" xlink:href="#linear-gradient-7"/><linearGradient id="linear-gradient-26" x1="74.3" y1="46.13" x2="17.18" y2="80.19" gradientUnits="userSpaceOnUse"><stop offset="0" stop-color="#8a69ab"/><stop offset="0.02" stop-color="#8868aa"/><stop offset="0.4" stop-color="#67519c"/><stop offset="0.61" stop-color="#5a4996"/><stop offset="0.99" stop-color="#302653"/></linearGradient><linearGradient id="linear-gradient-27" x1="59.44" y1="51.03" x2="16.17" y2="76.06" gradientUnits="userSpaceOnUse"><stop offset="0" stop-color="#f7bcf3"/><stop offset="0.3" stop-color="#be92d1"/><stop offset="0.62" stop-color="#886bb1"/><stop offset="0.87" stop-color="#67529e"/><stop offset="1" stop-color="#5a4996"/></linearGradient><linearGradient id="linear-gradient-28" x1="64.92" y1="51.59" x2="49.53" y2="85.27" xlink:href="#linear-gradient-27"/><linearGradient id="linear-gradient-29" x1="55.91" y1="42.83" x2="21.48" y2="64.99" xlink:href="#linear-gradient-27"/><linearGradient id="linear-gradient-30" x1="84.63" y1="89.36" x2="84.63" y2="93.36" xlink:href="#linear-gradient-7"/><linearGradient id="linear-gradient-31" x1="84.63" y1="83.64" x2="84.63" y2="89.36" xlink:href="#linear-gradient-8"/><linearGradient id="linear-gradient-32" x1="87.7" y1="86.93" x2="56.54" y2="106.29" gradientUnits="userSpaceOnUse"><stop offset="0.05" stop-color="#5a4996"/><stop offset="0.99" stop-color="#302653"/></linearGradient><linearGradient id="linear-gradient-33" x1="99" y1="63.03" x2="99" y2="66.01" xlink:href="#linear-gradient-7"/><linearGradient id="linear-gradient-34" x1="99" y1="58.69" x2="99" y2="63.03" xlink:href="#linear-gradient-8"/><linearGradient id="linear-gradient-35" x1="101.94" y1="60.56" x2="83.36" y2="72.1" gradientUnits="userSpaceOnUse"><stop offset="0" stop-color="#8a69ab"/><stop offset="0.02" stop-color="#8868aa"/><stop offset="0.37" stop-color="#67519c"/><stop offset="0.56" stop-color="#5a4996"/><stop offset="0.99" stop-color="#302653"/></linearGradient><linearGradient id="linear-gradient-36" x1="63" y1="70.57" x2="63" y2="73.43" xlink:href="#linear-gradient-7"/><linearGradient id="linear-gradient-37" x1="63" y1="66" x2="63" y2="70.57" xlink:href="#linear-gradient-8"/><linearGradient id="linear-gradient-38" x1="63" y1="65.71" x2="63" y2="119.64" xlink:href="#linear-gradient-32"/><linearGradient id="linear-gradient-39" x1="64.77" y1="67.74" x2="17.71" y2="96.56" xlink:href="#linear-gradient-32"/><linearGradient id="linear-gradient-40" x1="53.98" y1="82.82" x2="44.85" y2="104.49" gradientUnits="userSpaceOnUse"><stop offset="0" stop-color="#b59f93"/><stop offset="0.31" stop-color="#ab9299"/><stop offset="0.88" stop-color="#9071a7"/><stop offset="1" stop-color="#8a69ab"/></linearGradient><linearGradient id="linear-gradient-41" x1="26.13" y1="71.22" x2="16.94" y2="93.03" xlink:href="#linear-gradient-40"/><linearGradient id="linear-gradient-42" x1="27.92" y1="32.73" x2="10" y2="100.36" gradientUnits="userSpaceOnUse"><stop offset="0" stop-color="#f0cbd5"/><stop offset="0.1" stop-color="#d0aadc"/><stop offset="0.22" stop-color="#ad84e3"/><stop offset="0.26" stop-color="#a47dd9"/><stop offset="0.42" stop-color="#7e60b0"/><stop offset="0.58" stop-color="#604990"/><stop offset="0.73" stop-color="#4a3879"/><stop offset="0.87" stop-color="#3d2e6b"/><stop offset="0.99" stop-color="#392b66"/></linearGradient><linearGradient id="linear-gradient-43" x1="26.55" y1="38.76" x2="12.01" y2="100.06" gradientUnits="userSpaceOnUse"><stop offset="0" stop-color="#ffe39c"/><stop offset="0.35" stop-color="#c493e3"/><stop offset="1" stop-color="#564a82"/></linearGradient><linearGradient id="linear-gradient-44" x1="2.07" y1="24.3" x2="6.27" y2="100.39" xlink:href="#linear-gradient-42"/><linearGradient id="linear-gradient-45" x1="4.41" y1="32.52" x2="7.33" y2="100.21" xlink:href="#linear-gradient-43"/><linearGradient id="linear-gradient-46" x1="14.21" y1="20.38" x2="2.34" y2="99.95" xlink:href="#linear-gradient-42"/><linearGradient id="linear-gradient-47" x1="38.28" y1="68.03" x2="23.24" y2="101.44" gradientUnits="userSpaceOnUse"><stop offset="0" stop-color="#f0cbd5"/><stop offset="0.06" stop-color="#e2b9da"/><stop offset="0.19" stop-color="#c493e3"/><stop offset="0.27" stop-color="#ac81cd"/><stop offset="0.43" stop-color="#8362a9"/><stop offset="0.58" stop-color="#634a8c"/><stop offset="0.73" stop-color="#4c3977"/><stop offset="0.87" stop-color="#3e2f6a"/><stop offset="0.99" stop-color="#392b66"/></linearGradient><linearGradient id="linear-gradient-48" x1="84.16" y1="70.77" x2="19.4" y2="104.77" gradientUnits="userSpaceOnUse"><stop offset="0" stop-color="#f0cbd5"/><stop offset="0.07" stop-color="#e2b9da"/><stop offset="0.22" stop-color="#c493e3"/><stop offset="0.3" stop-color="#ac81cd"/><stop offset="0.45" stop-color="#8362a9"/><stop offset="0.6" stop-color="#634a8c"/><stop offset="0.74" stop-color="#4c3977"/><stop offset="0.87" stop-color="#3e2f6a"/><stop offset="0.99" stop-color="#392b66"/></linearGradient><linearGradient id="linear-gradient-49" x1="11.09" y1="50.83" x2="16.14" y2="100.26" xlink:href="#linear-gradient-42"/><linearGradient id="linear-gradient-50" x1="11.1" y1="57.92" x2="17.49" y2="100.1" gradientUnits="userSpaceOnUse"><stop offset="0" stop-color="#ffe39c"/><stop offset="0.35" stop-color="#c493e3"/><stop offset="0.43" stop-color="#a37dc6"/><stop offset="0.52" stop-color="#876aad"/><stop offset="0.61" stop-color="#715c9a"/><stop offset="0.71" stop-color="#62528c"/><stop offset="0.83" stop-color="#594c84"/><stop offset="1" stop-color="#564a82"/></linearGradient><linearGradient id="linear-gradient-51" x1="190.61" y1="80.96" x2="135.84" y2="139.78" gradientUnits="userSpaceOnUse"><stop offset="0" stop-color="#fff3eb"/><stop offset="0.15" stop-color="#e1bdd3"/><stop offset="0.17" stop-color="#d3b0d1"/><stop offset="0.25" stop-color="#aa8acd"/><stop offset="0.33" stop-color="#8a6cca"/><stop offset="0.4" stop-color="#7356c7"/><stop offset="0.46" stop-color="#6549c6"/><stop offset="0.52" stop-color="#6045c5"/><stop offset="0.99" stop-color="#392b66"/></linearGradient><linearGradient id="linear-gradient-52" x1="149.44" y1="91.86" x2="152.95" y2="109.06" xlink:href="#linear-gradient-51"/><linearGradient id="linear-gradient-53" x1="184.88" y1="77.48" x2="132.02" y2="134.27" xlink:href="#linear-gradient-51"/><linearGradient id="linear-gradient-54" x1="194.18" y1="73.53" x2="142.96" y2="128.54" xlink:href="#linear-gradient-51"/><linearGradient id="linear-gradient-55" x1="187.31" y1="58.08" x2="87.09" y2="23.74" gradientUnits="userSpaceOnUse"><stop offset="0" stop-color="#c493e3"/><stop offset="0.63" stop-color="#9e81d1"/><stop offset="1" stop-color="#8675c5"/></linearGradient><linearGradient id="linear-gradient-56" x1="34.72" y1="124.85" x2="-65.69" y2="90.45" gradientTransform="translate(84.87 -92.71) rotate(-9.52)" xlink:href="#linear-gradient-55"/><linearGradient id="linear-gradient-57" x1="157.09" y1="56.29" x2="57.12" y2="22.04" gradientTransform="matrix(1, -0.06, 0.06, 1, 20.25, -0.7)" xlink:href="#linear-gradient-55"/><linearGradient id="linear-gradient-58" x1="188.75" y1="36.35" x2="89.12" y2="2.22" xlink:href="#linear-gradient-55"/><linearGradient id="linear-gradient-59" x1="189.83" y1="55.24" x2="89.7" y2="20.93" xlink:href="#linear-gradient-55"/></defs><title>Asset 6</title><g id="Layer_2" data-name="Layer 2"><g id="Layer_1-2" data-name="Layer 1"><rect class="cls-1" y="60" width="200" height="40"/><rect class="cls-2" width="200" height="60"/><polygon class="cls-3" points="200 72.06 138.67 72.06 89.33 72.06 139.33 78.91 152 77.77 200 79.6 200 72.06"/><polygon class="cls-4" points="83.33 92.28 54 79.74 0 78.98 0 100 138.67 100 163.33 100 83.33 92.28"/><polygon class="cls-5" points="78.33 29.45 30.07 0 36.59 33.31 73.47 51.64 173.36 57.91 78.33 29.45"/><polygon class="cls-6" points="96.56 5.24 108 30.32 168.81 54.86 96.56 5.24"/><polygon class="cls-7" points="37.33 47.47 0 1.75 0 45.02 21.33 57.18 104 59.47 37.33 47.47"/><polygon class="cls-8" points="167.33 85.43 161.33 84.29 160 82.57 173.33 82.57 167.33 85.43"/><polygon class="cls-9" points="167.33 78 161.33 79.71 160 82.57 173.33 82.57 167.33 78"/><polygon class="cls-10" points="167.33 79.14 161.33 79.71 160 82.57 173.33 82.57 167.33 79.14"/><polygon class="cls-11" points="167.33 79.14 161.33 79.71 160 82.57 167.33 79.14"/><polygon class="cls-12" points="147.6 91.14 144.93 90.57 142.93 88.86 149.6 88.86 147.6 91.14"/><polygon class="cls-13" points="147.6 86.69 144.93 87.26 142.93 88.97 149.6 88.97 147.6 86.69"/><polygon class="cls-14" points="144.93 87.26 142.93 88.97 149.6 88.97 144.93 87.26"/><polygon class="cls-15" points="45.47 83.14 48.13 83.14 50.13 81.43 43.47 81.43 45.47 83.14"/><polygon class="cls-16" points="45.47 79.14 48.13 79.71 50.13 81.43 43.47 81.43 45.47 79.14"/><polygon class="cls-17" points="45.33 79.71 50.13 81.43 43.47 81.43 45.33 79.71"/><polygon class="cls-18" points="110.49 98.43 107.83 99 105.83 97.29 115.29 97.29 110.49 98.43"/><polygon class="cls-19" points="110.49 95 107.83 95.57 105.83 97.29 115.29 97.29 110.49 95"/><polygon class="cls-20" points="108.63 96.14 105.83 97.29 115.29 97.29 108.63 96.14"/><polygon class="cls-21" points="135.33 78.57 134 78.69 132.67 76.86 136.93 76.86 135.33 78.57"/><polygon class="cls-22" points="135.33 75.14 134 75.03 132.67 76.86 136.93 76.86 135.33 75.14"/><polygon class="cls-23" points="135.33 75.71 134 75.71 132.67 76.86 136.93 76.86 135.33 75.71"/><polygon class="cls-24" points="20.67 77.43 19.33 77.54 18 75.71 22.27 75.71 20.67 77.43"/><polygon class="cls-25" points="20.67 74.11 19.33 74 18 75.83 22.27 75.83 20.67 74.11"/><polygon class="cls-26" points="19.33 74 18 75.83 22.27 75.83 19.33 74"/><polygon class="cls-27" points="189.87 97.43 187.33 98.57 183.33 99.72 180.22 97.43 177.55 97.43 176 95.71 190 95.71 189.87 97.43"/><polygon class="cls-28" points="189.87 94 187.33 91.71 183.33 90.56 180.22 92.86 177.55 92.86 176 95.71 190 95.71 189.87 94"/><polygon class="cls-29" points="189.87 94 186.67 92.29 183.33 91.14 180.67 94 178 93.43 176 95.71 190 95.71 189.87 94"/><polygon class="cls-11" points="177.55 92.86 176 95.71 190 95.71 177.55 92.86"/><polygon class="cls-30" points="54 75.71 36.67 76.86 28 70 28 67.14 67.33 67.14 66 70 54 75.71"/><polygon class="cls-31" points="54 52.86 36.67 51.71 28 59.71 28 67.14 67.33 67.14 66 59.71 54 52.86"/><polygon class="cls-32" points="54 52.86 36.67 51.71 38.67 57.43 49.33 64.86 66 59.71 54 52.86"/><polygon class="cls-33" points="54 52.86 36.67 51.71 66 59.71 54 52.86"/><polygon class="cls-34" points="48.67 67.14 67.33 67.14 66 59.71 49.33 64.86 48.67 67.14"/><polygon class="cls-35" points="38.67 57.43 36.67 51.71 28 59.71 38.67 57.43"/><polygon class="cls-36" points="54 52.86 67.33 67.14 66 59.71 54 52.86"/><polygon class="cls-37" points="91.96 90.5 87.96 93.36 80.63 92.21 78.63 91.07 75.96 91.07 73.96 89.36 95.29 89.36 91.96 90.5"/><polygon class="cls-38" points="91.96 87.64 87.96 83.64 80.63 84.79 78.63 87.07 75.96 87.07 73.96 89.36 95.29 89.36 91.96 87.64"/><polygon class="cls-39" points="91.29 88.21 87.29 85.36 81.29 85.36 78.63 88.21 75.96 87.07 73.96 89.36 95.29 89.36 91.29 88.21"/><polygon class="cls-33" points="91.96 87.64 87.96 83.64 80.63 84.79 95.29 89.36 91.96 87.64"/><polygon class="cls-40" points="104.9 63.87 101.89 66.01 96.36 65.15 94.85 64.29 92.84 64.29 91.33 63.03 106.67 63.03 104.9 63.87"/><polygon class="cls-41" points="104.9 61.72 101.89 58.69 96.36 59.55 94.85 60.63 93.09 60.63 91.33 63.03 106.67 63.03 104.9 61.72"/><polygon class="cls-42" points="101.38 59.94 96.86 59.94 94.85 61.47 93.09 60.64 91.33 63.03 106.67 63.03 101.38 59.94"/><polygon class="cls-33" points="101.89 58.68 96.36 59.54 106.67 62.99 101.89 58.68"/><polygon class="cls-43" points="70.67 71.71 66.67 72.29 64 73.43 58.67 73.43 54.67 70.57 71.33 70.57 70.67 71.71"/><polygon class="cls-44" points="70.67 69.43 66.67 68.86 64 66 58.67 66 54.67 70.57 71.33 70.57 70.67 69.43"/><polygon class="cls-45" points="70.67 69.43 66 69.54 63.33 66.69 58.67 66 54.67 70.57 71.33 70.57 70.67 69.43"/><polygon class="cls-33" points="70.67 69.43 66.67 68.86 64 66 58.67 66 71.33 70.57 70.67 69.43"/><polygon class="cls-46" points="53.33 96.57 42 90.86 30 90.29 26 81.14 12 76.57 0 80.92 0 100 55.33 100 53.33 96.57"/><polygon class="cls-47" points="53.33 96.57 42 90.86 46.67 100 55.33 100 53.33 96.57"/><polygon class="cls-48" points="30.21 89.75 26.21 80.61 12.21 76.04 30.21 89.75"/><polygon class="cls-49" points="39.33 96 18 92.57 12 76.57 0 80.92 0 100 55.33 100 39.33 96"/><polygon class="cls-50" points="8.3 100 11.9 100 27.24 39.3 8.3 100"/><polygon class="cls-51" points="11.2 100 11.9 100 27.24 39.3 11.2 100"/><polygon class="cls-52" points="4.15 38.82 4.85 100 7.65 100 4.15 38.82"/><polygon class="cls-53" points="4.15 32.23 7 100 7.65 100 4.15 32.23"/><polygon class="cls-54" points="10.45 39.42 0.93 100 3.73 100 10.45 39.42"/><polygon class="cls-55" points="22.48 100 25.28 100 36.34 73.01 22.48 100"/><polygon class="cls-56" points="34.94 91.6 36.62 100 38.02 100 34.94 91.6"/><polygon class="cls-57" points="10.45 58.02 14.09 100 18.15 100 10.45 58.02"/><polygon class="cls-58" points="10.45 58.02 17.45 100 18.15 100 10.45 58.02"/><polygon class="cls-59" points="173.77 100 176.57 100 184.27 83.81 173.77 100"/><polygon class="cls-60" points="149.7 94.6 150.4 100 151.8 100 149.7 94.6"/><polygon class="cls-61" points="168.17 100 170.13 100 170.55 86.2 168.17 100"/><polygon class="cls-62" points="177.97 77.81 179.79 100 181.75 100 177.97 77.81"/><g class="cls-63"><path class="cls-64" d="M130.2,65.75c.05.23,0,.73-4.58.81-2.42,0-4-.61-3.67-.78s3.43,1,3.43,1S130.15,65.51,130.2,65.75Z"/><path class="cls-64" d="M63.76,84c.7,0-.72-1.49-6.5-1.06-3.9.29-2.86,1.31-2.75,1s3.16-1.34,3.16-1.34S63.09,84,63.76,84Z"/><path class="cls-64" d="M164.24,69.23c.7,0-1.1-1.45-6.73-.74C153.7,69,155,69.93,155,69.62s2.8-1.49,2.8-1.49S163.56,69.21,164.24,69.23Z"/><path class="cls-64" d="M156.38,78.58c.7,0-1.28-1.41-6.82-.57-3.73.57-2.33,1.5-2.33,1.19s2.61-1.55,2.61-1.55S155.7,78.58,156.38,78.58Z"/><path class="cls-64" d="M186.47,63.22c.74,0-.51.94-5.17.79-3.14-.11-4.52-.52-4-.52a32,32,0,0,1,4.34.77S185.93,63.21,186.47,63.22Z"/></g><path class="cls-65" d="M127.5,36.57c0-.45,0-1.42-4.58-1.57-2.42-.08-4,1.17-3.67,1.51.5.47,3.43-1.94,3.43-1.94S127.45,37,127.5,36.57Z"/><path class="cls-66" d="M57.3,9.18c.7-.1-.72,2.88-6.5,2.05-3.9-.56-2.86-2.54-2.75-1.94.16.8,3.16,2.6,3.16,2.6S56.63,9.28,57.3,9.18Z"/><path class="cls-67" d="M163.51,40.05c.7,0-1.1,2.8-6.73,1.43-3.81-.92-2.52-2.79-2.48-2.19,0,.81,2.8,2.88,2.8,2.88S162.83,40.09,163.51,40.05Z"/><path class="cls-68" d="M151.76,21.66c.7,0-1.28,2.74-6.82,1.1-3.73-1.1-2.33-2.91-2.33-2.31,0,.82,2.61,3,2.61,3S151.07,21.66,151.76,21.66Z"/><path class="cls-69" d="M186.47,53.14c.74,0-.51-1.82-5.17-1.52-3.14.2-4.52,1-4,1,1.12,0,4.34-1.5,4.34-1.5A39.31,39.31,0,0,0,186.47,53.14Z"/><ellipse class="cls-70" cx="73.87" cy="86.21" rx="9.33" ry="8"/><ellipse class="cls-71" cx="82.63" cy="82.13" rx="1.56" ry="1.34"/><path class="cls-72" d="M31.59,76.27a.74.74,0,0,1-1.46,0,.74.74,0,0,1,1.46,0Z"/><path class="cls-72" d="M63.35,96.33a.75.75,0,1,1-.74-.62A.69.69,0,0,1,63.35,96.33Z"/><path class="cls-72" d="M8.05,91.13a.9.9,0,0,1-1,.82.84.84,0,1,1,0-1.65A.9.9,0,0,1,8.05,91.13Z"/><path class="cls-72" d="M43.59,84.17a.74.74,0,0,1-1.46,0,.74.74,0,0,1,1.46,0Z"/><path class="cls-72" d="M49,82.66a.74.74,0,0,1-1.47,0,.74.74,0,0,1,1.47,0Z"/><path class="cls-72" d="M10.81,67.67a.51.51,0,1,1-.51-.43A.48.48,0,0,1,10.81,67.67Z"/><ellipse class="cls-73" cx="37.23" cy="82.6" rx="0.5" ry="0.43"/><path class="cls-72" d="M61.58,90.5a.51.51,0,1,1-.5-.43A.46.46,0,0,1,61.58,90.5Z"/><path class="cls-73" d="M48.27,94.14a.51.51,0,1,1-.51-.43A.47.47,0,0,1,48.27,94.14Z"/><path class="cls-73" d="M80.6,95.64a.51.51,0,1,1-.5-.43A.46.46,0,0,1,80.6,95.64Z"/><path class="cls-73" d="M24.27,91a.51.51,0,1,1-.5-.43A.47.47,0,0,1,24.27,91Z"/><path class="cls-74" d="M182,95.52a.88.88,0,1,1-.86-.74A.81.81,0,0,1,182,95.52Z"/><ellipse class="cls-74" cx="165.61" cy="78.4" rx="1.13" ry="0.97"/><path class="cls-74" d="M159.13,94.33a.88.88,0,1,1-.87-.74A.82.82,0,0,1,159.13,94.33Z"/><path class="cls-74" d="M132.66,96.48a.6.6,0,1,1-.59-.51A.55.55,0,0,1,132.66,96.48Z"/><path class="cls-75" d="M149.61,94.41a.56.56,0,0,1-.6.51.52.52,0,1,1,0-1A.56.56,0,0,1,149.61,94.41Z"/><path class="cls-74" d="M156.18,85.22a.56.56,0,0,1-.6.51.52.52,0,1,1,0-1A.56.56,0,0,1,156.18,85.22Z"/><path class="cls-75" d="M192.66,98.26a.6.6,0,1,1-.6-.51A.56.56,0,0,1,192.66,98.26Z"/><ellipse class="cls-75" cx="166.3" cy="91.74" rx="0.59" ry="0.51"/><ellipse class="cls-72" cx="163.93" cy="86.04" rx="6.33" ry="5.43"/><ellipse class="cls-71" cx="169.53" cy="83.29" rx="3" ry="2.57"/><ellipse class="cls-70" cx="39.8" cy="89.58" rx="6.33" ry="5.43"/><ellipse class="cls-71" cx="45.56" cy="88.07" rx="1.56" ry="1.34"/><ellipse class="cls-74" cx="152.94" cy="11.78" rx="1.13" ry="0.97"/><ellipse class="cls-72" cx="151.27" cy="19.41" rx="6.33" ry="5.43"/><ellipse class="cls-71" cx="156.87" cy="16.66" rx="3" ry="2.57"/></g></g></svg>