<svg xmlns="http://www.w3.org/2000/svg" xmlns:xlink="http://www.w3.org/1999/xlink" viewBox="0 0 200 100"><defs><style>.cls-1{fill:url(#linear-gradient);}.cls-2{fill:url(#linear-gradient-2);}.cls-3{fill:#ffecda;}.cls-4{fill:url(#linear-gradient-3);}.cls-5{fill:url(#linear-gradient-4);}.cls-6{fill:url(#linear-gradient-5);}.cls-7{opacity:0.3;fill:url(#radial-gradient);}.cls-8{fill:url(#linear-gradient-6);}.cls-9{fill:url(#linear-gradient-7);}.cls-10{fill:#fff;}</style><linearGradient id="linear-gradient" x1="100" y1="98.39" x2="100" y2="9.46" gradientUnits="userSpaceOnUse"><stop offset="0" stop-color="#fff"/><stop offset="0.28" stop-color="#f1f4f7"/><stop offset="0.81" stop-color="#cbd9e1"/><stop offset="0.99" stop-color="#becfd9"/></linearGradient><linearGradient id="linear-gradient-2" x1="132.43" y1="88.71" x2="200.05" y2="122.71" gradientUnits="userSpaceOnUse"><stop offset="0" stop-color="#f7d2cd"/><stop offset="0.2" stop-color="#f5ccca"/><stop offset="0.99" stop-color="#eeb8c0"/></linearGradient><linearGradient id="linear-gradient-3" x1="5.36" y1="51.37" x2="231" y2="136.66" gradientUnits="userSpaceOnUse"><stop offset="0" stop-color="#d19eaf"/><stop offset="0.55" stop-color="#e8bec1"/><stop offset="0.99" stop-color="#f7d2cd"/></linearGradient><linearGradient id="linear-gradient-4" x1="5.36" y1="51.37" x2="231" y2="136.66" gradientUnits="userSpaceOnUse"><stop offset="0" stop-color="#d19eaf"/><stop offset="0.56" stop-color="#e8bec1"/><stop offset="1" stop-color="#f7d2cd"/></linearGradient><linearGradient id="linear-gradient-5" x1="114.67" y1="61.33" x2="191.51" y2="79.06" gradientUnits="userSpaceOnUse"><stop offset="0" stop-color="#ffecda"/><stop offset="0.2" stop-color="#fde6d7"/><stop offset="0.99" stop-color="#f7d2cd"/></linearGradient><radialGradient id="radial-gradient" cx="-138.28" cy="70" r="373.32" gradientTransform="translate(79.17 41.07) scale(0.21 0.18)" gradientUnits="userSpaceOnUse"><stop offset="0" stop-color="#845a7e"/><stop offset="0.01" stop-color="#865c7f"/><stop offset="0.33" stop-color="#b3839b"/><stop offset="0.61" stop-color="#d3a0af"/><stop offset="0.84" stop-color="#e7b2bc"/><stop offset="1" stop-color="#eeb8c0"/></radialGradient><linearGradient id="linear-gradient-6" x1="53.19" y1="49.31" x2="-16.07" y2="79.91" gradientUnits="userSpaceOnUse"><stop offset="0.01" stop-color="#ffecda"/><stop offset="0.4" stop-color="#fde7d7"/><stop offset="0.87" stop-color="#f9d8d0"/><stop offset="1" stop-color="#f7d2cd"/></linearGradient><linearGradient id="linear-gradient-7" x1="7.64" y1="81.04" x2="117.23" y2="120.08" gradientUnits="userSpaceOnUse"><stop offset="0.01" stop-color="#b3849d"/><stop offset="0.03" stop-color="#b4859e"/><stop offset="0.62" stop-color="#c997aa"/><stop offset="1" stop-color="#d19eaf"/></linearGradient></defs><title>Asset 4</title><g id="Layer_2" data-name="Layer 2"><g id="Layer_1-2" data-name="Layer 1"><rect class="cls-1" width="200" height="100"/><polygon class="cls-2" points="44.33 100 166 56.57 200 67.09 200 100 44.33 100"/><polygon class="cls-3" points="44.33 100 166 56.57 158 64.57 200 100 44.33 100"/><polygon class="cls-4" points="143.33 70.86 51.33 46.29 0 66.29 0 100 200 100 200 74.29 143.33 70.86"/><polygon class="cls-5" points="143.33 70.86 51.33 46.29 0 66.29 0 100 200 100 200 74.29 143.33 70.86"/><polygon class="cls-6" points="200 74.29 200 87.76 143.33 70.86 200 74.29"/><polygon class="cls-7" points="200 93.1 200 100 0 100 0 66.29 51.33 46.29 58 53.71 200 93.1"/><polygon class="cls-8" points="51.33 46.29 58 53.71 0 77.69 0 66.29 51.33 46.29"/><polygon class="cls-9" points="14.11 67.36 121.75 100 0 100 0 73.4 14.11 67.36"/><path class="cls-10" d="M132.09,48.22a4.62,4.62,0,0,0,.65,0,4.57,4.57,0,0,1-1.83.38A3.69,3.69,0,0,1,127,45.18a3.69,3.69,0,0,1,3.94-3.38,4.41,4.41,0,0,1,1.83.39,4.62,4.62,0,0,0-.65,0,3.32,3.32,0,0,0-3.55,3A3.32,3.32,0,0,0,132.09,48.22Z"/></g></g></svg>