<?xml version="1.0" encoding="utf-8"?>
<!-- Generator: Adobe Illustrator 23.1.1, SVG Export Plug-In . SVG Version: 6.00 Build 0)  -->
<svg version="1.1" id="Layer_1" xmlns="http://www.w3.org/2000/svg" xmlns:xlink="http://www.w3.org/1999/xlink" x="0px" y="0px"
	 viewBox="0 0 370 330" style="enable-background:new 0 0 370 330;" xml:space="preserve">
<style type="text/css">
	.st0{fill:#313134;}
	.st1{filter:url(#Adobe_OpacityMaskFilter);}
	.st2{fill-rule:evenodd;clip-rule:evenodd;fill:#FFFFFF;}
	.st3{opacity:0.1;mask:url(#mask-2_1_);}
	.st4{filter:url(#filter-4);}
	.st5{fill-rule:evenodd;clip-rule:evenodd;fill:#939393;}
	.st6{filter:url(#Adobe_OpacityMaskFilter_1_);}
	.st7{opacity:0.1;mask:url(#mask-2_2_);}
	.st8{filter:url(#filter-6);}
	.st9{filter:url(#Adobe_OpacityMaskFilter_2_);}
	.st10{opacity:0.1;mask:url(#mask-2_3_);}
	.st11{filter:url(#filter-8);}
	.st12{filter:url(#Adobe_OpacityMaskFilter_3_);}
	.st13{opacity:0.1;mask:url(#mask-2_4_);}
	.st14{filter:url(#filter-10);}
	.st15{filter:url(#Adobe_OpacityMaskFilter_4_);}
	.st16{opacity:0.1;mask:url(#mask-2_5_);}
	.st17{filter:url(#filter-12);}
	.st18{filter:url(#Adobe_OpacityMaskFilter_5_);}
	.st19{opacity:0.1;mask:url(#mask-2_6_);}
	.st20{filter:url(#filter-14);}
</style>
<filter  filterUnits="objectBoundingBox" height="128.9%" id="filter-8" width="128.9%" x="-14.4%" y="-4.3%">
	<feOffset  dx="0" dy="0" in="SourceAlpha" result="shadowOffsetOuter1"></feOffset>
	<feGaussianBlur  in="shadowOffsetOuter1" result="shadowBlurOuter1" stdDeviation="4.5"></feGaussianBlur>
	
		<feColorMatrix  in="shadowBlurOuter1" type="matrix" values="0 0 0 0 1   0 0 0 0 0.270588235   0 0 0 0 0.274509804  0 0 0 0.0967001748 0">
		</feColorMatrix>
</filter>
<filter  filterUnits="objectBoundingBox" height="133.1%" id="filter-6" width="133.1%" x="-16.5%" y="-5.0%">
	<feOffset  dx="0" dy="0" in="SourceAlpha" result="shadowOffsetOuter1"></feOffset>
	<feGaussianBlur  in="shadowOffsetOuter1" result="shadowBlurOuter1" stdDeviation="4.5"></feGaussianBlur>
	
		<feColorMatrix  in="shadowBlurOuter1" type="matrix" values="0 0 0 0 1   0 0 0 0 0.270588235   0 0 0 0 0.274509804  0 0 0 0.0967001748 0">
		</feColorMatrix>
</filter>
<filter  filterUnits="objectBoundingBox" height="119.1%" id="filter-4" width="119.1%" x="-9.6%" y="-2.9%">
	<feOffset  dx="0" dy="0" in="SourceAlpha" result="shadowOffsetOuter1"></feOffset>
	<feGaussianBlur  in="shadowOffsetOuter1" result="shadowBlurOuter1" stdDeviation="4.5"></feGaussianBlur>
	
		<feColorMatrix  in="shadowBlurOuter1" type="matrix" values="0 0 0 0 1   0 0 0 0 0.270588235   0 0 0 0 0.274509804  0 0 0 0.0967001748 0">
		</feColorMatrix>
</filter>
<filter  filterUnits="objectBoundingBox" height="155.5%" id="filter-14" width="152.9%" x="-26.5%" y="-10.5%">
	<feOffset  dx="0" dy="0" in="SourceAlpha" result="shadowOffsetOuter1"></feOffset>
	<feGaussianBlur  in="shadowOffsetOuter1" result="shadowBlurOuter1" stdDeviation="4.5"></feGaussianBlur>
	
		<feColorMatrix  in="shadowBlurOuter1" type="matrix" values="0 0 0 0 1   0 0 0 0 0.270588235   0 0 0 0 0.274509804  0 0 0 0.0967001748 0">
		</feColorMatrix>
</filter>
<filter  filterUnits="objectBoundingBox" height="141.8%" id="filter-12" width="141.8%" x="-20.9%" y="-6.3%">
	<feOffset  dx="0" dy="0" in="SourceAlpha" result="shadowOffsetOuter1"></feOffset>
	<feGaussianBlur  in="shadowOffsetOuter1" result="shadowBlurOuter1" stdDeviation="4.5"></feGaussianBlur>
	
		<feColorMatrix  in="shadowBlurOuter1" type="matrix" values="0 0 0 0 1   0 0 0 0 0.270588235   0 0 0 0 0.274509804  0 0 0 0.0967001748 0">
		</feColorMatrix>
</filter>
<filter  filterUnits="objectBoundingBox" height="128.9%" id="filter-10" width="128.9%" x="-14.4%" y="-4.3%">
	<feOffset  dx="0" dy="0" in="SourceAlpha" result="shadowOffsetOuter1"></feOffset>
	<feGaussianBlur  in="shadowOffsetOuter1" result="shadowBlurOuter1" stdDeviation="4.5"></feGaussianBlur>
	
		<feColorMatrix  in="shadowBlurOuter1" type="matrix" values="0 0 0 0 1   0 0 0 0 0.270588235   0 0 0 0 0.274509804  0 0 0 0.0967001748 0">
		</feColorMatrix>
</filter>
<g id="Page-1">
	<g transform="translate(-575.000000, -277.000000)">
		<g id="Group-12" transform="translate(575.000000, 277.000000)">
			<g>
				<path class="st0" d="M3.5,0.5h363c1.7,0,3,1.3,3,3v323c0,1.7-1.3,3-3,3H3.5c-1.7,0-3-1.3-3-3V3.5C0.5,1.8,1.8,0.5,3.5,0.5z"/>
				<defs>
					<filter id="Adobe_OpacityMaskFilter" filterUnits="userSpaceOnUse" x="315.8" y="-17.5" width="92" height="85">
						<feColorMatrix  type="matrix" values="1 0 0 0 0  0 1 0 0 0  0 0 1 0 0  0 0 0 1 0"/>
					</filter>
				</defs>
				<mask maskUnits="userSpaceOnUse" x="315.8" y="-17.5" width="92" height="85" id="mask-2_1_">
					<g class="st1">
						<path id="path-1_1_" class="st2" d="M3,0h364c1.7,0,3,1.3,3,3v324c0,1.7-1.3,3-3,3H3c-1.7,0-3-1.3-3-3V3C0,1.3,1.3,0,3,0z"/>
					</g>
				</mask>
				
					<g id="Triangle-Copy-10" transform="translate(349.500000, 34.500000) rotate(-126.000000) translate(-349.500000, -34.500000) " class="st3">
					<g class="st4">
						<path id="path-3_1_" class="st5" d="M357.5,9.1L384.5,63c2.2,4.4,0.4,9.9-4,12.1c-1.2,0.6-2.6,1-4,1l-53.9,0c-5,0-9-4-9-9
							c0-1.4,0.3-2.8,1-4l26.9-53.9c2.2-4.4,7.6-6.2,12.1-4C355.3,5.9,356.7,7.4,357.5,9.1z"/>
					</g>
					<g>
						<path class="st5" d="M357.5,9.1L384.5,63c2.2,4.4,0.4,9.9-4,12.1c-1.2,0.6-2.6,1-4,1l-53.9,0c-5,0-9-4-9-9c0-1.4,0.3-2.8,1-4
							l26.9-53.9c2.2-4.4,7.6-6.2,12.1-4C355.3,5.9,356.7,7.4,357.5,9.1z"/>
					</g>
				</g>
				<defs>
					<filter id="Adobe_OpacityMaskFilter_1_" filterUnits="userSpaceOnUse" x="2" y="18.5" width="50" height="51">
						<feColorMatrix  type="matrix" values="1 0 0 0 0  0 1 0 0 0  0 0 1 0 0  0 0 0 1 0"/>
					</filter>
				</defs>
				<mask maskUnits="userSpaceOnUse" x="2" y="18.5" width="50" height="51" id="mask-2_2_">
					<g class="st6">
						<path id="path-1_2_" class="st2" d="M3,0h364c1.7,0,3,1.3,3,3v324c0,1.7-1.3,3-3,3H3c-1.7,0-3-1.3-3-3V3C0,1.3,1.3,0,3,0z"/>
					</g>
				</mask>
				
					<g id="Triangle-Copy-20" transform="translate(34.000000, 47.000000) rotate(-220.000000) translate(-34.000000, -47.000000) " class="st7">
					<g class="st8">
						<path id="path-5_1_" class="st5" d="M42,39.1L51.5,58c2.2,4.4,0.4,9.9-4,12.1c-1.2,0.6-2.6,1-4,1l-18.9,0c-5,0-9-4-9-9
							c0-1.4,0.3-2.8,1-4L26,39.1c2.2-4.4,7.6-6.2,12.1-4C39.8,35.9,41.2,37.4,42,39.1z"/>
					</g>
					<g>
						<path class="st5" d="M42,39.1L51.5,58c2.2,4.4,0.4,9.9-4,12.1c-1.2,0.6-2.6,1-4,1l-18.9,0c-5,0-9-4-9-9c0-1.4,0.3-2.8,1-4
							L26,39.1c2.2-4.4,7.6-6.2,12.1-4C39.8,35.9,41.2,37.4,42,39.1z"/>
					</g>
				</g>
				<defs>
					<filter id="Adobe_OpacityMaskFilter_2_" filterUnits="userSpaceOnUse" x="289.4" y="202.9" width="60" height="55">
						<feColorMatrix  type="matrix" values="1 0 0 0 0  0 1 0 0 0  0 0 1 0 0  0 0 0 1 0"/>
					</filter>
				</defs>
				<mask maskUnits="userSpaceOnUse" x="289.4" y="202.9" width="60" height="55" id="mask-2_3_">
					<g class="st9">
						<path id="path-1_3_" class="st2" d="M3,0h364c1.7,0,3,1.3,3,3v324c0,1.7-1.3,3-3,3H3c-1.7,0-3-1.3-3-3V3C0,1.3,1.3,0,3,0z"/>
					</g>
				</mask>
				
					<g id="Triangle-Copy-16" transform="translate(311.500000, 217.500000) rotate(-59.000000) translate(-311.500000, -217.500000) " class="st10">
					<g class="st11">
						<path id="path-7_1_" class="st5" d="M319.5,206.1l12.9,25.9c2.2,4.4,0.4,9.9-4,12.1c-1.2,0.6-2.6,1-4,1h-25.9c-5,0-9-4-9-9
							c0-1.4,0.3-2.8,1-4l12.9-25.9c2.2-4.4,7.6-6.2,12.1-4C317.3,202.9,318.7,204.4,319.5,206.1z"/>
					</g>
					<g>
						<path class="st5" d="M319.5,206.1l12.9,25.9c2.2,4.4,0.4,9.9-4,12.1c-1.2,0.6-2.6,1-4,1h-25.9c-5,0-9-4-9-9c0-1.4,0.3-2.8,1-4
							l12.9-25.9c2.2-4.4,7.6-6.2,12.1-4C317.3,202.9,318.7,204.4,319.5,206.1z"/>
					</g>
				</g>
				<defs>
					<filter id="Adobe_OpacityMaskFilter_3_" filterUnits="userSpaceOnUse" x="0.3" y="234.9" width="57" height="59">
						<feColorMatrix  type="matrix" values="1 0 0 0 0  0 1 0 0 0  0 0 1 0 0  0 0 0 1 0"/>
					</filter>
				</defs>
				<mask maskUnits="userSpaceOnUse" x="0.3" y="234.9" width="57" height="59" id="mask-2_4_">
					<g class="st12">
						<path id="path-1_4_" class="st2" d="M3,0h364c1.7,0,3,1.3,3,3v324c0,1.7-1.3,3-3,3H3c-1.7,0-3-1.3-3-3V3C0,1.3,1.3,0,3,0z"/>
					</g>
				</mask>
				
					<g id="Triangle-Copy-18" transform="translate(37.500000, 251.500000) rotate(40.000000) translate(-37.500000, -251.500000) " class="st13">
					<g class="st14">
						<path id="path-9_1_" class="st5" d="M45.5,240.1L58.5,266c2.2,4.4,0.4,9.9-4,12.1c-1.2,0.6-2.6,1-4,1H24.6c-5,0-9-4-9-9
							c0-1.4,0.3-2.8,1-4l12.9-25.9c2.2-4.4,7.6-6.2,12.1-4C43.3,236.9,44.7,238.4,45.5,240.1z"/>
					</g>
					<g>
						<path class="st5" d="M45.5,240.1L58.5,266c2.2,4.4,0.4,9.9-4,12.1c-1.2,0.6-2.6,1-4,1H24.6c-5,0-9-4-9-9c0-1.4,0.3-2.8,1-4
							l12.9-25.9c2.2-4.4,7.6-6.2,12.1-4C43.3,236.9,44.7,238.4,45.5,240.1z"/>
					</g>
				</g>
				<defs>
					<filter id="Adobe_OpacityMaskFilter_4_" filterUnits="userSpaceOnUse" x="30.6" y="244.1" width="37" height="40">
						<feColorMatrix  type="matrix" values="1 0 0 0 0  0 1 0 0 0  0 0 1 0 0  0 0 0 1 0"/>
					</filter>
				</defs>
				<mask maskUnits="userSpaceOnUse" x="30.6" y="244.1" width="37" height="40" id="mask-2_5_">
					<g class="st15">
						<path id="path-1_5_" class="st2" d="M3,0h364c1.7,0,3,1.3,3,3v324c0,1.7-1.3,3-3,3H3c-1.7,0-3-1.3-3-3V3C0,1.3,1.3,0,3,0z"/>
					</g>
				</mask>
				
					<g id="Triangle-Copy-19" transform="translate(45.434781, 253.803093) rotate(-22.000000) translate(-45.434781, -253.803093) " class="st16">
					<g class="st17">
						<path id="path-11_1_" class="st5" d="M53.5,250.9l4.4,8.9c2.2,4.4,0.4,9.9-4,12.1c-1.2,0.6-2.6,1-4,1H41c-5,0-9-4-9-9
							c0-1.4,0.3-2.8,1-4l4.4-8.9c2.2-4.4,7.6-6.2,12.1-4C51.2,247.7,52.6,249.2,53.5,250.9z"/>
					</g>
					<g>
						<path class="st5" d="M53.5,250.9l4.4,8.9c2.2,4.4,0.4,9.9-4,12.1c-1.2,0.6-2.6,1-4,1H41c-5,0-9-4-9-9c0-1.4,0.3-2.8,1-4
							l4.4-8.9c2.2-4.4,7.6-6.2,12.1-4C51.2,247.7,52.6,249.2,53.5,250.9z"/>
					</g>
				</g>
				<defs>
					<filter id="Adobe_OpacityMaskFilter_5_" filterUnits="userSpaceOnUse" x="350" y="283.1" width="29" height="30">
						<feColorMatrix  type="matrix" values="1 0 0 0 0  0 1 0 0 0  0 0 1 0 0  0 0 0 1 0"/>
					</filter>
				</defs>
				<mask maskUnits="userSpaceOnUse" x="350" y="283.1" width="29" height="30" id="mask-2_6_">
					<g class="st18">
						<path id="path-1_6_" class="st2" d="M3,0h364c1.7,0,3,1.3,3,3v324c0,1.7-1.3,3-3,3H3c-1.7,0-3-1.3-3-3V3C0,1.3,1.3,0,3,0z"/>
					</g>
				</mask>
				
					<g id="Triangle-Copy-17" transform="translate(361.000000, 299.000000) rotate(-139.000000) translate(-361.000000, -299.000000) " class="st19">
					<g class="st20">
						<path id="path-13_1_" class="st5" d="M368.5,299l1,2c2.2,4.4,0.4,9.9-4,12.1c-1.2,0.6-2.6,1-4,1h-0.9c-5,0-9-4-9-9
							c0-1.4,0.3-2.8,1-4l1-2c2.1-4.1,7.1-5.8,11.2-3.7C366.4,296.1,367.7,297.4,368.5,299z"/>
					</g>
					<g>
						<path class="st5" d="M368.5,299l1,2c2.2,4.4,0.4,9.9-4,12.1c-1.2,0.6-2.6,1-4,1h-0.9c-5,0-9-4-9-9c0-1.4,0.3-2.8,1-4l1-2
							c2.1-4.1,7.1-5.8,11.2-3.7C366.4,296.1,367.7,297.4,368.5,299z"/>
					</g>
				</g>
			</g>
		</g>
	</g>
</g>
<title>Triangle Copy 10 + Triangle Copy 20 + Triangle Copy 16 + Triangle Copy 18 + Triangle Copy 19 + Triangle Copy 17 Mask
	</title>
<desc>Created with Sketch.</desc>
</svg>
