<svg xmlns="http://www.w3.org/2000/svg" xmlns:xlink="http://www.w3.org/1999/xlink" width="176" height="176" viewBox="0 0 176 176">
    <defs>
        <path id="a" d="M87.927 176h87.928V.145H0V176z"/>
    </defs>
    <g fill="none" fill-rule="evenodd">
        <g>
            <mask id="b" fill="#fff">
                <use xlink:href="#a"/>
            </mask>
            <path fill="#B5B5B5" d="M175.854 148.523c0 15.174-12.301 27.477-27.477 27.477h-120.9C12.302 176 0 163.697 0 148.523v-120.9C0 12.447 12.302.145 27.477.145h120.9c15.176 0 27.478 12.302 27.478 27.478v120.9z" mask="url(#b)"/>
        </g>
        <path fill="#99999A" d="M176 147.673V120.21l-57.957-68.464c-1.239-1.364-40.855 11.364-13.513 1.703l-5.427-4.29-2.62 3.468c-9.708-8.579 11.129-5.364-2.876-5.364-30.362 0-34.136 20.025-53.54 43.625-10.515 12.79 1.079 13.013-7.006 22.046l65.397 62.093h50.054c15.182 0 27.488-12.248 27.488-27.355"/>
        <path fill="#FEFEFE" d="M100.56 89.398v21.149H79.33v-21.15H63.406l26.538-26.436 26.537 26.437H100.56zm28.66-15.862c-3.715-17.977-19.638-31.724-39.275-31.724-15.392 0-28.661 8.46-35.03 21.15-16.454 2.114-28.66 15.333-28.66 31.723 0 17.448 14.33 31.724 31.844 31.724h68.998c14.862 0 26.538-11.632 26.538-26.437 0-13.747-11.146-25.379-24.414-26.436z"/>
    </g>
</svg>
