<svg xmlns="http://www.w3.org/2000/svg" xmlns:xlink="http://www.w3.org/1999/xlink" width="176" height="176" viewBox="0 0 176 176">
    <defs>
        <path id="a" d="M87.927 175.2h87.928V.145H0V175.2z"/>
    </defs>
    <g fill="none" fill-rule="evenodd">
        <g>
            <mask id="b" fill="#fff">
                <use xlink:href="#a"/>
            </mask>
            <path fill="#CF2526" d="M175.854 147.848c0 15.105-12.301 27.352-27.477 27.352h-120.9C12.302 175.2 0 162.953 0 147.848V27.498C0 12.39 12.302.144 27.477.144h120.9c15.176 0 27.478 12.246 27.478 27.352v120.35z" mask="url(#b)"/>
        </g>
        <path fill="#9B2121" d="M176 147.92v-27.386L117.998 52.26c-1.24-1.36-40.886 11.333-13.523 1.699l-5.432-4.28-2.623 3.46c-9.714-8.556 11.138-5.35-2.876-5.35-30.387 0-34.163 19.97-53.582 43.505-10.523 12.755 1.08 12.977-7.012 21.985L98.398 175.2h50.092c15.194 0 27.51-12.214 27.51-27.28"/>
        <path fill="#FEFEFE" d="M101.06 89.3v21.2H79.761V89.3H63.79l26.62-26.5 26.622 26.5h-15.973zm28.75-15.9c-3.727-18.02-19.7-31.8-39.4-31.8-15.44 0-28.75 8.48-35.139 21.2-16.505 2.12-28.75 15.37-28.75 31.8 0 17.49 14.375 31.8 31.945 31.8h69.214c14.908 0 26.621-11.66 26.621-26.5 0-13.78-11.18-25.44-24.491-26.5z"/>
    </g>
</svg>
