<svg xmlns="http://www.w3.org/2000/svg" xmlns:xlink="http://www.w3.org/1999/xlink" width="176" height="176" viewBox="0 0 176 176">
    <defs>
        <path id="a" d="M87.927 176h87.928V.145H0V176z"/>
        <path id="c" d="M137.594.09v134.427H.11V.09z"/>
        <path id="e" d="M0 175.597h176V0H0z"/>
    </defs>
    <g fill="none" fill-rule="evenodd">
        <mask id="b" fill="#fff">
            <use xlink:href="#a"/>
        </mask>
        <path fill="#B5B5B5" d="M175.854 148.523c0 15.175-12.301 27.477-27.477 27.477h-120.9C12.302 176 0 163.698 0 148.523v-120.9C0 12.447 12.302.145 27.477.145h120.9c15.176 0 27.478 12.302 27.478 27.478v120.9z" mask="url(#b)"/>
        <g transform="translate(38.26 41.483)">
            <mask id="d" fill="#fff">
                <use xlink:href="#c"/>
            </mask>
            <path fill="#99999A" d="M137.593 107.04V31.882L98.57 1.105c-1.24-1.37-45.236-1.571-63.833.764L60.63 8.083l-2.623 3.484c-9.716-8.618 11.139-5.388-2.877-5.388-30.389 0-23.729-3.013-42.07 1.567C-3.061 11.772 2.785 80.011.112 92.724l59.875 41.793h50.096c15.195 0 27.511-12.303 27.511-27.478" mask="url(#d)"/>
        </g>
        <mask id="f" fill="#fff">
            <use xlink:href="#e"/>
        </mask>
        <path fill="#99999A" d="M39.872 127.67h41.483V43.9H39.872z" mask="url(#f)"/>
        <path fill="#FEFEFE" d="M135.196 41.08H114.38v11.68h23.762V44c0-1.614-1.318-2.92-2.946-2.92M55.579 120.421H79.34V73.3H55.579zM108.741 41.08H40.803c-1.628 0-2.945 1.306-2.945 2.92v8.76h70.883V41.08z" mask="url(#f)"/>
        <path fill="#FEFEFE" d="M49.61 70.573a2.939 2.939 0 0 1 2.938-2.943h29.576a2.939 2.939 0 0 1 2.938 2.943v52.977a2.939 2.939 0 0 1-2.938 2.943H52.548a2.939 2.939 0 0 1-2.938-2.943V70.573zm44.266 44.148h29.576a2.939 2.939 0 0 1 2.938 2.943 2.939 2.939 0 0 1-2.938 2.943H93.876a2.939 2.939 0 0 1-2.938-2.943 2.939 2.939 0 0 1 2.938-2.943zm0-11.773h29.576a2.939 2.939 0 0 1 2.938 2.943 2.939 2.939 0 0 1-2.938 2.943H93.876a2.939 2.939 0 0 1-2.938-2.943 2.939 2.939 0 0 1 2.938-2.943zm0-17.659h29.576a2.939 2.939 0 0 1 2.938 2.943 2.939 2.939 0 0 1-2.938 2.943H93.876a2.939 2.939 0 0 1-2.938-2.943 2.939 2.939 0 0 1 2.938-2.943zm0-11.772h29.576a2.939 2.939 0 0 1 2.938 2.943 2.939 2.939 0 0 1-2.938 2.943H93.876a2.939 2.939 0 0 1-2.938-2.943 2.939 2.939 0 0 1 2.938-2.943zM37.858 132.38a2.939 2.939 0 0 0 2.938 2.943h94.408a2.939 2.939 0 0 0 2.938-2.943V58.8H37.858v73.58z" mask="url(#f)"/>
    </g>
</svg>
