<svg xmlns="http://www.w3.org/2000/svg" xmlns:xlink="http://www.w3.org/1999/xlink" width="176" height="176" viewBox="0 0 176 176">
    <defs>
        <path id="a" d="M87.927 175.038h87.928V.144H0v174.894z"/>
        <path id="c" d="M137.174.089v133.594H.11V.09z"/>
        <path id="e" d="M0 175.038h176V0H0z"/>
    </defs>
    <g fill="none" fill-rule="evenodd">
        <mask id="b" fill="#fff">
            <use xlink:href="#a"/>
        </mask>
        <path fill="#2D6999" d="M175.854 147.711c0 15.092-12.301 27.327-27.477 27.327h-120.9C12.302 175.038 0 162.803 0 147.711V27.471C0 12.38 12.302.145 27.477.145h120.9c15.176 0 27.478 12.235 27.478 27.328v120.24z" mask="url(#b)"/>
        <g transform="translate(38.681 41.355)">
            <mask id="d" fill="#fff">
                <use xlink:href="#c"/>
            </mask>
            <path fill="#24597C" d="M137.173 106.376v-74.69L98.269 1.098C97.03-.264 53.17-.463 34.63 1.857l25.816 6.176-2.615 3.462C48.145 2.931 68.936 6.14 54.963 6.14c-30.296 0-23.657-2.993-41.94 1.558C-3.054 11.699 2.775 79.514.11 92.148l59.692 41.535h49.943c15.148 0 27.427-12.226 27.427-27.307" mask="url(#d)"/>
        </g>
        <mask id="f" fill="#fff">
            <use xlink:href="#e"/>
        </mask>
        <path fill="#24597C" d="M39.648 127.913h41.583V44.24H39.648z" mask="url(#f)"/>
        <path fill="#FEFEFE" d="M136.256 41.355h-21.18v11.541h24.177V44.24c0-1.594-1.34-2.885-2.997-2.885M55.12 120.219h24.177V73.093H55.12zM108.308 41.355h-67.66c-1.622 0-2.934 1.29-2.934 2.885v8.656h70.594v-11.54z" mask="url(#f)"/>
        <path fill="#FEFEFE" d="M49.5 70.356c0-1.616 1.318-2.923 2.946-2.923h29.661c1.629 0 2.947 1.307 2.947 2.923v52.6c0 1.615-1.318 2.922-2.947 2.922h-29.66c-1.63 0-2.947-1.307-2.947-2.922v-52.6zm44.393 43.833h29.66c1.629 0 2.947 1.307 2.947 2.922 0 1.616-1.318 2.923-2.946 2.923H93.893c-1.629 0-2.947-1.307-2.947-2.923 0-1.615 1.318-2.922 2.947-2.922zm0-11.689h29.66c1.629 0 2.947 1.307 2.947 2.922 0 1.616-1.318 2.923-2.946 2.923H93.893c-1.629 0-2.947-1.307-2.947-2.923 0-1.615 1.318-2.922 2.947-2.922zm0-17.533h29.66c1.629 0 2.947 1.307 2.947 2.922 0 1.615-1.318 2.922-2.946 2.922H93.893c-1.629 0-2.947-1.307-2.947-2.922 0-1.615 1.318-2.922 2.947-2.922zm0-11.69h29.66c1.629 0 2.947 1.308 2.947 2.923s-1.318 2.922-2.946 2.922H93.893c-1.629 0-2.947-1.307-2.947-2.922 0-1.615 1.318-2.922 2.947-2.922zm-56.179 58.446c0 1.615 1.318 2.922 2.947 2.922h94.678c1.629 0 2.947-1.307 2.947-2.922V58.667H37.714v73.056z" mask="url(#f)"/>
    </g>
</svg>
