<?xml version="1.0" encoding="utf-8"?>
<!-- Generator: Adobe Illustrator 19.2.0, SVG Export Plug-In . SVG Version: 6.00 Build 0)  -->
<svg version="1.1" id="Layer_1" xmlns="http://www.w3.org/2000/svg" xmlns:xlink="http://www.w3.org/1999/xlink" x="0px" y="0px"
	 viewBox="0 0 80 80" style="enable-background:new 0 0 80 80;" xml:space="preserve">
<style type="text/css">
	.st0{fill:#EA1B1B;}
	.st1{fill:#D10303;}
	.st2{fill:#FFFFFF;}
	.st3{fill:#231F20;}
</style>
<g>
	<g>
		<g>
			<path class="st0" d="M40,0.9c20.1,0,36.4,16.3,36.4,36.4S60.1,73.7,40,73.7c-5.2,0-14.4-3.1-18.8-5c-5.2,6.4-8.8,8.8-8.8,8.8V61
				c-5.5-6.4-8.8-14.7-8.8-23.7C3.6,17.2,19.9,0.9,40,0.9z"/>
			<g>
				<path class="st1" d="M46.5,1.5c-2.1-0.4-4.3-0.6-6.5-0.6C19.9,0.9,3.6,17.2,3.6,37.3c0,9.1,3.3,17.3,8.8,23.7v16.5
					c0,0,3.6-2.4,8.8-8.8c1,0.4,2.3,0.9,3.6,1.4c-5.7-7.4-9-16.5-9-26.4C15.8,24.5,28.5,8.1,46.5,1.5z"/>
			</g>
		</g>
		<g>
			<g id="XMLID_59_">
				<g>
					<path class="st2" d="M40,57.4c2.1,0,3.8,1.7,3.8,3.8s-1.7,3.8-3.8,3.8c-2.1,0-3.8-1.7-3.8-3.8S37.9,57.4,40,57.4z"/>
					<rect x="36.2" y="9.7" class="st2" width="7.5" height="42.7"/>
				</g>
			</g>
		</g>
	</g>
	<g>
		<g>
			<g id="XMLID_38_">
				<g>
					<g>
						<path class="st3" d="M69.5,60.9l-1.9-1.5c5-6.3,7.6-13.8,7.6-21.9c0-9.4-3.7-18.3-10.3-24.9C58.3,6,49.4,2.4,40,2.4
							c-7.1,0-13.9,2.1-19.8,6.1l-1.3-2C25.1,2.2,32.4,0,40,0c10,0,19.5,3.9,26.6,11c7.1,7.1,11,16.5,11,26.6
							C77.6,46.2,74.8,54.2,69.5,60.9z"/>
					</g>
					<g>
						<path class="st3" d="M11.2,80V61.7C5.5,55,2.4,46.4,2.4,37.6c0-11,4.8-21.4,13.1-28.5l1.5,1.8C9.2,17.6,4.8,27.3,4.8,37.6
							c0,8.4,3,16.6,8.5,22.9l0.3,0.3v14.4c1.5-1.3,3.9-3.6,6.7-7.1l0.6-0.7l0.8,0.4c4.5,2,13.5,4.9,18.4,4.9
							c9.1,0,17.7-3.5,24.3-9.7l1.6,1.7c-7,6.7-16.2,10.4-25.9,10.4c-4.9,0-13.5-2.7-18.5-4.8c-5,5.9-8.3,8.2-8.5,8.3L11.2,80z"/>
					</g>
					<g>
						<path class="st3" d="M44.9,53.8h-9.9V8.8h9.9V53.8z M37.4,51.5h5.2V11.2h-5.2V51.5z"/>
					</g>
					<g>
						<path class="st3" d="M40,66.4c-2.7,0-4.9-2.2-4.9-4.9c0-2.7,2.2-4.9,4.9-4.9c2.7,0,4.9,2.2,4.9,4.9
							C44.9,64.2,42.7,66.4,40,66.4z M40,58.9c-1.4,0-2.6,1.2-2.6,2.6c0,1.4,1.2,2.6,2.6,2.6c1.4,0,2.6-1.2,2.6-2.6
							C42.6,60,41.4,58.9,40,58.9z"/>
					</g>
					<g>
						<path class="st2" d="M59.6,60.4l-1.5-1.8c6.1-5.3,9.6-12.9,9.6-21h2.4C70.1,46.4,66.2,54.7,59.6,60.4z"/>
					</g>
					<g>
						<path class="st2" d="M12.3,37.6H9.9c0-11,6-21.1,15.7-26.4l1.1,2.1C17.8,18.1,12.3,27.5,12.3,37.6z"/>
					</g>
					<g>
						<rect x="9.9" y="40.2" class="st3" width="2.5" height="2.4"/>
					</g>
					<g>
						<rect x="9.9" y="45.2" class="st3" width="2.5" height="2.4"/>
					</g>
					<g>
						<rect x="67.6" y="32.6" class="st3" width="2.5" height="2.4"/>
					</g>
					<g>
						<rect x="67.6" y="27.6" class="st2" width="2.5" height="2.4"/>
					</g>
				</g>
			</g>
		</g>
	</g>
</g>
</svg>
