<?xml version="1.0" encoding="UTF-8"?>
<svg width="640px" height="250px" viewBox="0 0 640 250" version="1.1" xmlns="http://www.w3.org/2000/svg" xmlns:xlink="http://www.w3.org/1999/xlink">
    <!-- Generator: Sketch 53.2 (72643) - https://sketchapp.com -->
    <title>wix</title>
    <desc>Created with Sketch.</desc>
    <g id="Page-1" stroke="none" stroke-width="1" fill="none" fill-rule="evenodd">
        <g id="wix" fill="#666666" fill-rule="nonzero">
            <path d="M393.38,0.69 C393.38,13.72 395.46,33.38 364.7,44.52 C355.18,47.97 348.75,54.18 348.75,54.18 C348.75,23.18 353.47,11.96 366.15,5.32 C375.9,0.21 393.38,0.69 393.38,0.69 Z M277.58,36.23 L243.34,168.89 L214.86,60.32 C207.17,28.33 194.05,11.79 166.43,11.79 C139.06,11.79 125.77,27.97 118,60.32 L89.52,168.89 L55.28,36.23 C49.73,9.51 23.86,-2.04 0,0.96 L65.57,248.89 C65.57,248.89 87.2,250.45 98.03,244.93 C112.25,237.68 119.01,232.09 127.62,198.36 C135.29,168.29 156.73,79.95 158.74,73.66 C163.5,58.72 169.83,59.85 174.14,73.66 C176.11,79.96 197.59,168.29 205.26,198.36 C213.86,232.09 220.63,237.68 234.85,244.93 C245.67,250.45 267.31,248.89 267.31,248.89 L332.88,0.96 C308.46,-2.11 283.06,9.89 277.58,36.23 Z M393.36,41.44 C393.36,41.44 389.26,47.78 379.9,53.01 C373.89,56.37 368.12,58.65 361.93,61.62 C346.79,68.88 348.75,75.57 348.75,96.82 L348.75,248.89 C348.75,248.89 365.3,250.98 376.12,245.46 C390.05,238.36 393.25,231.51 393.38,200.68 L393.38,50.41 L393.36,50.42 L393.36,41.44 L393.36,41.44 Z M556.8,125.52 L640,1.78 C640,1.78 604.89,-4.2 587.5,11.63 C574.2,23.73 563.09,41.18 533.32,84.1 C532.85,84.83 527.07,94.64 520.25,84.1 C490.96,41.87 479.45,23.81 466.07,11.63 C448.68,-4.2 413.57,1.78 413.57,1.78 L496.77,125.52 L413.8,248.88 C413.8,248.88 450.37,253.5 467.75,237.67 C479.24,227.21 485.33,217.3 520.26,166.95 C527.07,156.43 532.83,166.18 533.33,166.95 C562.73,209.33 572.56,225.01 586.47,237.67 C603.86,253.5 639.79,248.88 639.79,248.88 L556.8,125.52 Z" id="Shape"></path>
        </g>
    </g>
</svg>