<svg xmlns="http://www.w3.org/2000/svg" xmlns:xlink="http://www.w3.org/1999/xlink" width="176" height="176" viewBox="0 0 176 176">
    <defs>
        <path id="a" d="M87.927 176h87.928V.145H0V176z"/>
    </defs>
    <g fill="none" fill-rule="evenodd">
        <g>
            <mask id="b" fill="#fff">
                <use xlink:href="#a"/>
            </mask>
            <path fill="#41474D" d="M175.854 148.523c0 15.174-12.301 27.477-27.477 27.477h-120.9C12.302 176 0 163.697 0 148.523v-120.9C0 12.447 12.302.145 27.477.145h120.9c15.176 0 27.478 12.302 27.478 27.478v120.9z" mask="url(#b)"/>
        </g>
        <path fill="#2D3134" d="M176 148.529V98.394l-47.153-47.151a55.164 55.164 0 0 0-3.915-3.915l-.355-.356-.021.022c-9.702-8.616-22.472-13.851-36.468-13.851-30.346 0-54.945 24.599-54.945 54.942 0 16.596 7.358 31.472 18.99 41.547L98.503 176h50.024C163.701 176 176 163.7 176 148.529"/>
        <path fill="#FEFEFE" d="M136.14 61.677c.245 1.753.38 3.625.38 5.648 0 5.563-1.045 11.818-4.178 19.647l-16.756 48.434c16.306-9.503 27.271-27.165 27.271-47.402a54.577 54.577 0 0 0-6.716-26.327zM88.97 92.8l-16.465 47.83a54.9 54.9 0 0 0 15.5 2.227 54.707 54.707 0 0 0 18.219-3.115 4.761 4.761 0 0 1-.394-.749L88.97 92.8zm36.07-7.57c0-6.78-2.441-11.479-4.523-15.13-2.78-4.522-5.383-8.342-5.383-12.867 0-5.043 3.812-9.734 9.212-9.734.233 0 .47.033.703.048-9.756-8.939-22.759-14.404-37.041-14.404-19.171 0-36.031 9.838-45.836 24.727 1.29.041 2.498.07 3.527.07 5.74 0 14.622-.705 14.622-.705 2.95-.164 3.3 4.168.344 4.525 0 0-2.968.343-6.277.521l19.98 59.41 12.008-35.997-8.55-23.413c-2.955-.178-5.753-.521-5.753-.521-2.96-.179-2.607-4.689.352-4.525 0 0 9.054.704 14.441.704 5.736 0 14.63-.704 14.63-.704 2.944-.164 3.296 4.168.337 4.525 0 0-2.963.343-6.273.521l19.829 58.958 5.473-18.275c2.781-7.13 4.178-13.033 4.178-17.734zM33.143 88c0 21.704 12.617 40.48 30.92 49.357L37.897 65.672A54.59 54.59 0 0 0 33.143 88z"/>
    </g>
</svg>
