<svg xmlns="http://www.w3.org/2000/svg" xmlns:xlink="http://www.w3.org/1999/xlink" width="176" height="176" viewBox="0 0 176 176">
    <defs>
        <path id="a" d="M87.927 176h87.928V.145H0V176z"/>
    </defs>
    <g fill="none" fill-rule="evenodd">
        <g>
            <mask id="b" fill="#fff">
                <use xlink:href="#a"/>
            </mask>
            <path fill="#B5B5B5" d="M175.854 148.523c0 15.174-12.301 27.477-27.477 27.477h-120.9C12.302 176 0 163.697 0 148.523v-120.9C0 12.447 12.302.145 27.477.145h120.9c15.176 0 27.478 12.302 27.478 27.478v120.9z" mask="url(#b)"/>
        </g>
        <path fill="#99999A" d="M176 148.478V98.251l-47.24-47.238a55.266 55.266 0 0 0-3.922-3.923l-.356-.356-.021.022c-9.72-8.632-22.514-13.877-36.536-13.877-30.4 0-55.046 24.644-55.046 55.044 0 16.626 7.372 31.53 19.025 41.623L98.36 176h50.117C163.678 176 176 163.677 176 148.478"/>
        <path fill="#FEFEFE" d="M136.372 61.55a41.07 41.07 0 0 1 .38 5.676c0 5.589-1.048 11.874-4.197 19.741l-16.837 48.667c16.385-9.549 27.403-27.296 27.403-47.63a54.84 54.84 0 0 0-6.749-26.453zM88.974 92.824l-16.543 48.06a55.165 55.165 0 0 0 15.575 2.238 54.97 54.97 0 0 0 18.305-3.13 4.784 4.784 0 0 1-.395-.753L88.974 92.823zm36.244-7.607c0-6.811-2.453-11.533-4.545-15.201-2.794-4.545-5.408-8.384-5.408-12.93 0-5.067 3.83-9.78 9.256-9.78.234 0 .472.032.706.048-9.803-8.982-22.868-14.474-37.22-14.474-19.262 0-36.203 9.885-46.055 24.846 1.297.041 2.51.07 3.544.07 5.768 0 14.692-.708 14.692-.708 2.964-.164 3.317 4.188.345 4.547 0 0-2.982.345-6.307.524l20.077 59.694 12.066-36.169-8.592-23.525c-2.97-.18-5.781-.524-5.781-.524-2.973-.18-2.62-4.711.354-4.547 0 0 9.097.708 14.51.708 5.764 0 14.701-.708 14.701-.708 2.958-.164 3.312 4.188.338 4.547 0 0-2.977.345-6.302.524l19.923 59.24 5.5-18.363c2.795-7.164 4.198-13.095 4.198-17.819zM32.88 88.001c0 21.807 12.678 40.673 31.07 49.594l-26.293-72.03A54.853 54.853 0 0 0 32.879 88z"/>
    </g>
</svg>
