<svg xmlns="http://www.w3.org/2000/svg" width="24" height="24" viewBox="0 0 24 24">
    <g fill="#5358E2" fill-rule="evenodd">
        <path fill-rule="nonzero" d="M15.535 6.368H8.4a2.067 2.067 0 0 0-2.065 2.065v7.134c0 1.139.926 2.065 2.065 2.065h7.134a2.068 2.068 0 0 0 2.065-2.065V8.433a2.067 2.067 0 0 0-2.065-2.065zm-3.567 9.34A3.712 3.712 0 0 1 8.26 12a3.712 3.712 0 0 1 3.708-3.708A3.712 3.712 0 0 1 15.676 12a3.713 3.713 0 0 1-3.708 3.708zm3.827-6.65a.878.878 0 0 1 0-1.754.878.878 0 0 1 0 1.755z"/>
        <path d="M11.968 9.859c-1.18 0-2.142.96-2.142 2.14 0 1.182.961 2.142 2.142 2.142 1.18 0 2.14-.96 2.14-2.141 0-1.18-.96-2.141-2.14-2.141z"/>
        <path fill-rule="nonzero" d="M11.968 0C5.358 0 0 5.358 0 11.968s5.358 11.967 11.968 11.967 11.967-5.358 11.967-11.967C23.935 5.358 18.577 0 11.968 0zm7.199 15.567a3.636 3.636 0 0 1-3.632 3.632H8.4a3.636 3.636 0 0 1-3.632-3.632V8.433A3.636 3.636 0 0 1 8.4 4.801h7.134a3.636 3.636 0 0 1 3.632 3.632v7.134z"/>
    </g>
</svg>
