<svg xmlns="http://www.w3.org/2000/svg" width="28" height="28" viewBox="0 0 28 28">
    <g fill="none" fill-rule="evenodd">
        <path d="M-4-4h36v36H-4z"/>
        <path fill="#FF5C62" d="M3.5.5c-1.64 0-3 1.36-3 3v21c0 1.64 1.36 3 3 3h21c1.64 0 3-1.36 3-3v-21c0-1.64-1.36-3-3-3h-21zm3 3a1.5 1.5 0 1 1-.001 3.001A1.5 1.5 0 0 1 6.5 3.5zm4.5 0a1.5 1.5 0 1 1-.001 3.001A1.5 1.5 0 0 1 11 3.5zm4.5 0h9v3h-9v-3zm-12 6h21v15h-21v-15zm5.25 3a2.25 2.25 0 1 0 0 4.5 2.25 2.25 0 0 0 0-4.5zm6.75 0v3h6v-3h-6zm-6.75 6c-1.251 0-3.75.628-3.75 1.875V21.5h7.5v-1.125c0-1.247-2.499-1.875-3.75-1.875zm6.75 0v3h6v-3h-6z"/>
    </g>
</svg>
