<svg xmlns="http://www.w3.org/2000/svg" xmlns:xlink="http://www.w3.org/1999/xlink" width="30" height="30" viewBox="0 0 30 30">
    <defs>
        <path id="a" d="M0 0h30v30H0z"/>
    </defs>
    <g fill="none" fill-rule="evenodd">
        <path d="M-3-3h36v36H-3z"/>
        <g>
            <mask id="b" fill="#fff">
                <use xlink:href="#a"/>
            </mask>
            <g fill="#FF5C62" mask="url(#b)">
                <path d="M2.121 14.941c0 5.074 2.945 9.459 7.216 11.537L3.23 9.725A12.782 12.782 0 0 0 2.12 14.94zm21.446-.646c0-1.585-.568-2.682-1.056-3.535-.649-1.056-1.257-1.95-1.257-3.006 0-1.179.892-2.275 2.15-2.275.056 0 .11.007.166.01a12.748 12.748 0 0 0-8.646-3.365c-4.473 0-8.408 2.297-10.697 5.777.3.01.584.016.824.016 1.34 0 3.412-.163 3.412-.163.69-.04.772.974.082 1.056 0 0-.693.081-1.465.122l4.662 13.884 2.802-8.413-1.995-5.471a23.3 23.3 0 0 1-1.342-.122c-.69-.041-.61-1.097.08-1.056 0 0 2.115.162 3.373.162 1.339 0 3.412-.162 3.412-.162.69-.041.772.974.082 1.056 0 0-.695.081-1.465.122l4.626 13.779 1.277-4.273c.554-1.773.975-3.046.975-4.143z"/>
                <path d="M15.149 16.063l-3.842 11.175a12.78 12.78 0 0 0 7.869-.204 1.086 1.086 0 0 1-.092-.177L15.15 16.063zm11.009-7.271c.055.408.086.847.086 1.318 0 1.3-.242 2.763-.973 4.591l-3.911 11.32a12.815 12.815 0 0 0 6.366-11.08 12.76 12.76 0 0 0-1.568-6.15z"/>
                <path d="M14.924 0C6.695 0 0 6.703 0 14.941c0 8.24 6.695 14.943 14.924 14.943S29.85 23.18 29.85 14.94C29.849 6.703 23.153 0 14.924 0zm0 29.199c-7.851 0-14.24-6.396-14.24-14.258C.684 7.081 7.072.685 14.924.685c7.851 0 14.24 6.396 14.24 14.256 0 7.862-6.389 14.258-14.24 14.258z"/>
            </g>
        </g>
    </g>
</svg>
