<?xml version="1.0" encoding="utf-8"?>
<!-- Generator: Adobe Illustrator 19.2.0, SVG Export Plug-In . SVG Version: 6.00 Build 0)  -->
<svg version="1.1" id="Layer_1" xmlns="http://www.w3.org/2000/svg" xmlns:xlink="http://www.w3.org/1999/xlink" x="0px" y="0px"
	 viewBox="0 0 893 399.3" style="enable-background:new 0 0 893 399.3;" xml:space="preserve">
<style type="text/css">
	.st0{fill:#F8F7FF;}
	.st1{fill:#FFF0F0;}
	.st2{fill:#4F0B11;}
	.st3{fill:#FF5C62;}
	.st4{fill:#D13D47;}
	.st5{fill:#A8222B;}
	.st6{fill:#FF95A9;}
	.st7{fill:#B22852;}
	.st8{fill:none;}
	.st9{fill:#2FC2A7;}
	.st10{fill:#FF809F;}
	.st11{fill:#32454C;}
	.st12{fill:#FFFFFF;}
	.st13{opacity:5.400000e-02;fill:#FF5C62;enable-background:new    ;}
</style>
<g>
	<path class="st0" d="M111.6,360c0,0-97.3-43.2-56.7-84.5s179-38.8,167.3-84.8c-11.7-46-40.7-61.4-21.9-96.3
		c22.6-41.9,88.8-7.9,120.9,6.8c59.6,27.3,125.6,30.3,102.7-7.8s-47.1-52.7-25.4-74.4c29.6-29.6,156.5,57.2,226.1,142.9
		c41.6,51.3,72,15.6,67.8-17.4c-2.7-20.9-32.2-64.1-1.2-83.8c29.8-18.9,99.5,39.6,123.2,75.7c62,94.5-8.1,223.5-8.1,223.5H111.6
		L111.6,360z"/>
	<path class="st1" d="M112.6,360c0,0-97.3-43.2-56.7-84.5c40.6-41.3,179-38.8,167.3-84.8c-11.7-46-40.7-61.4-21.9-96.3
		c22.6-41.9,88.8-7.9,120.9,6.8c59.6,27.3,125.6,30.3,102.7-7.8c-22.9-38.1-47.1-52.7-25.3-74.4c29.6-29.6,156.5,57.2,226.1,142.9
		c41.6,51.3,72,15.6,67.8-17.4c-2.7-21-32.2-64.2-1.2-83.8c29.8-18.9,99.5,39.6,123.2,75.7c62,94.5-8.1,223.5-8.1,223.5L112.6,360z"
		/>
	<path class="st2" d="M557,200l-1.4,29.2l-0.2,3.6l-0.3,5.6L555,242h-59l0.2-3.7L498,200H557z"/>
	<path class="st3" d="M555,238l-0.2,4H469v-4H555z"/>
	<path class="st4" d="M556,229l-0.2,3.5l-0.3,5.5H497l2-0.3L556,229z"/>
	<path class="st5" d="M493,281.9l36.4,0.1l0.6-14.3l-36.3-2.7L493,281.9z"/>
	<path class="st6" d="M525.4,225l-47.4,9.5l0.7,7.5l2.5,0l3.7,0l42.1,0L525.4,225z"/>
	<path class="st6" d="M478.7,242l-0.7-7.4l3-0.6v8H478.7z M491.4,185H471v-22.6c0-3.3,1.3-6.5,3.6-8.8c2.3-2.3,5.4-3.6,8.7-3.6
		c6.6,0,12.5,5.2,12.9,11.8l0.8,17.2c0.1,1.5-0.5,3-1.5,4.2C494.4,184.4,493,185,491.4,185L491.4,185z"/>
	<path class="st6" d="M497,179.1c0.1,1.5-0.5,3-1.5,4.2c-1.1,1.1-2.5,1.8-4.1,1.8H471v-22.6c0-3.3,1.3-6.5,3.6-8.8
		c2.3-2.3,5.4-3.6,8.7-3.6c3.3,0,6.6,1.2,9.1,3.4c2.3,2.2,3.7,5.2,3.8,8.4L497,179.1L497,179.1z"/>
	<path class="st7" d="M500,151.8v6.7c0,0.5-0.1,1-0.2,1.5H487v-15h6.1c1.8,0,3.6,0.7,4.9,2C499.3,148.3,500,150,500,151.8z"/>
	<path class="st8" d="M496.8,173l-0.6-11L496.8,173z"/>
	<path class="st7" d="M476.8,148h1.2v21h-13v-9.4C465,153.2,470.3,148,476.8,148z"/>
	<path class="st7" d="M498,158h-13.5c-5.3,0-9.5-4.2-9.5-9.4c-0.1-1.6,0.8-3.2,2.2-4c1.4-0.8,3.2-0.8,4.6,0c1.4,0.8,2.3,2.4,2.2,4
		c0,0.3,0.2,0.5,0.5,0.5h0H498V158z"/>
	<path class="st7" d="M493.5,154h-7c-2.5,0-4.5-2-4.5-4.5s2-4.5,4.5-4.5h7c2.5,0,4.5,2,4.5,4.5S496,154,493.5,154z"/>
	<path class="st7" d="M503,156.5c0,3.6-3,6.5-6.7,6.5c-3.7,0-7.3-2.9-7.3-6.5s3.5-6.5,7.3-6.5C500,150,503,152.9,503,156.5z"/>
	<path class="st7" d="M475,155h19v7h-19V155z M475,162h14v9h-14V162z"/>
	<path class="st7" d="M465,167h21v4.4c0,4.2-3.3,7.6-7.3,7.6h-3.8c-5.4,0-9.9-4.6-9.9-10.3L465,167L465,167z"/>
	<path class="st6" d="M478.5,202c-4.2,0-7.5-3.4-7.5-7.6V179h15v15.4C486,198.6,482.7,202,478.5,202z M489.5,174h3.5v-7h-3.5
		c-1.9,0-3.5,1.6-3.5,3.5c0,0,0,0,0,0C486,172.4,487.6,174,489.5,174C489.5,174,489.5,174,489.5,174z"/>
	<path class="st7" d="M486,159h8v2.1c0,3.2-2.5,5.9-5.6,5.9H486L486,159L486,159z"/>
	<circle class="st6" cx="478.5" cy="194.5" r="7.5"/>
	
		<ellipse transform="matrix(0.9621 -0.2728 0.2728 0.9621 -76.6359 155.6205)" class="st9" cx="521.4" cy="353.4" rx="5.2" ry="5.2"/>
	<ellipse transform="matrix(0.9733 -0.2297 0.2297 0.9733 -49.0246 128.9663)" class="st5" cx="529.4" cy="275" rx="7.1" ry="7.1"/>
	<path class="st5" d="M516,353.2l6-78.2l14,1.1l-9.8,77.9L516,353.2z"/>
	<path class="st7" d="M531.4,360H516v-6h10.3l5.9,3.1c0.5,0.3,0.8,0.8,0.8,1.3c0,0.4-0.2,0.8-0.4,1.1
		C532.3,359.9,531.9,360,531.4,360L531.4,360z"/>
	<ellipse transform="matrix(0.9733 -0.2297 0.2297 0.9733 -68.0608 122.2491)" class="st5" cx="491" cy="353.5" rx="5.2" ry="5.2"/>
	<ellipse transform="matrix(0.9756 -0.2193 0.2193 0.9756 -48.1644 116.1763)" class="st5" cx="499.1" cy="275" rx="7.1" ry="7.1"/>
	<path class="st5" d="M486,353.2l6.1-78.2l13.9,1.1l-9.8,77.9L486,353.2z"/>
	<path class="st7" d="M501.5,360H486v-6h10.3l5.9,3.1c0.5,0.3,0.8,0.8,0.8,1.3c0,0.4-0.1,0.8-0.4,1.1
		C502.3,359.8,501.9,360,501.5,360L501.5,360z"/>
	<path class="st5" d="M679,266l-26.9,93H649l22-93H679z M707,266l26.9,93h3.1l-22-93H707z"/>
	<circle class="st10" cx="693.5" cy="253.5" r="45.5"/>
	<path class="st10" d="M737.2,268l-1.2-0.4c0.8-2.5,1.4-5,1.8-7.6l1.2,0.2C738.6,262.8,738,265.5,737.2,268z M692.9,299
		c-7.3,0-14.4-1.7-20.9-5l0.6-1.1c6.3,3.2,13.3,4.9,20.3,4.9c17.7,0,33.8-10.5,41-26.8l1.1,0.5C727.6,288.2,711.1,299,692.9,299z"/>
	<circle class="st5" cx="686.5" cy="249.5" r="14.5"/>
	<path class="st6" d="M606.2,236c-0.6-1.6,0.2-3.3,1.8-3.9c1.6-0.6,3.3,0.2,3.8,1.8s-0.2,3.3-1.8,3.9
		C608.5,238.4,606.8,237.6,606.2,236z"/>
	<circle class="st5" cx="678" cy="204" r="8"/>
	<path class="st6" d="M601.3,232.2c-0.5,0-1,0.1-1.4,0.3c-2.3,0.8-3.5,3.4-2.7,5.6c0.3,0.7,0.7,1.4,1.3,1.9c1.2,1,2.9,1.3,4.4,0.7
		l7-2.6l-1.2-6.1L601.3,232.2L601.3,232.2z"/>
	
		<ellipse transform="matrix(0.2035 -0.9791 0.9791 0.2035 302.4164 807.1953)" class="st6" cx="647.3" cy="217.7" rx="5.8" ry="5.8"/>
	<path class="st6" d="M674.6,197L645,212.5l4.7,10.5l31.3-11.6L674.6,197z M644.3,213L607,232.4l2.5,5.6l39.5-14.5L644.3,213z"/>
	<circle class="st11" cx="664" cy="354" r="4"/>
	<path class="st5" d="M670,204.4l2.1,44.6H701l11.9-46.9c0.4-1.5,0-3-0.9-4.2c-0.9-1.2-2.4-1.9-3.9-1.9h-30c-2.2,0-4.3,0.9-5.8,2.5
		C670.7,200,669.9,202.2,670,204.4L670,204.4z"/>
	<ellipse transform="matrix(0.9037 -0.4281 0.4281 0.9037 -22.0516 310.0497)" class="st5" cx="678.3" cy="204.1" rx="8" ry="8"/>
	<path class="st11" d="M672.7,249h28.5l1.5,1.2c5.2,4.1,8.2,10.3,8.2,16.9v6.2c0,4.8-3.8,8.7-8.6,8.7h-24.8c-4.8,0-8.6-3.9-8.6-8.7
		v-8.5C669,259.4,670.3,253.9,672.7,249z"/>
	<path class="st5" d="M686,206.7l-5.9,16l-0.1,0c-1.3,3.6-4.9,5.8-8.6,5.1c-3.7-0.7-6.4-4-6.4-7.9c0-1,0.2-2,0.5-2.9h0l5.8-16.1
		L686,206.7z"/>
	<ellipse transform="matrix(0.6674 -0.7447 0.7447 0.6674 83.4432 594.9298)" class="st5" cx="707.8" cy="204" rx="8" ry="8"/>
	
		<ellipse transform="matrix(0.6351 -0.7724 0.7724 0.6351 80.2496 641.6665)" class="st6" cx="719.3" cy="235.9" rx="5.8" ry="5.8"/>
	<path class="st6" d="M715.8,202l9.2,32.1l-10.7,3.9L701,207.4L715.8,202z"/>
	<path class="st5" d="M701,207.5l8.7,20.5l12.3-4.5l-6.1-21.5L701,207.5z M681,211.4l-20.7,7.6l-5.3-11.9l19.5-10.1L681,211.4z"/>
	<circle class="st11" cx="677.5" cy="273.5" r="8.5"/>
	<circle class="st11" cx="702.5" cy="273.5" r="8.5"/>
	<path class="st7" d="M660,354h8v6h-11.3c-0.5,0-0.9-0.2-1.2-0.5c-0.3-0.4-0.5-0.8-0.5-1.3c0-0.7,0.3-1.3,0.9-1.6L660,354L660,354z"
		/>
	<circle class="st11" cx="649" cy="275" r="7"/>
	<path class="st11" d="M642,277.1l18.1,77.9l7.9-1.2L655.7,275L642,277.1z"/>
	<circle class="st11" cx="684" cy="354" r="4"/>
	<path class="st7" d="M679.9,354h8.1v6h-11.3c-1,0-1.7-0.8-1.7-1.9c0-0.7,0.3-1.3,0.9-1.6L679.9,354z"/>
	<circle class="st11" cx="669" cy="275" r="7"/>
	<path class="st11" d="M662,277.1l18.1,77.9l7.9-1.2L675.7,275L662,277.1z"/>
	<path class="st6" d="M682,179h14v17h-14V179z"/>
	<circle class="st6" cx="689" cy="196" r="7"/>
	
		<ellipse transform="matrix(0.9871 -0.1602 0.1602 0.9871 -19.389 114.5707)" class="st11" cx="700.7" cy="177.5" rx="9.6" ry="9.6"/>
	<path class="st11" d="M664,164.5c0-11.9,9.6-21.5,21.5-21.5c11.9,0,21.5,9.6,21.5,21.5s-9.6,21.5-21.5,21.5l-11-11
		C668.7,175,664,170.3,664,164.5L664,164.5z"/>
	<path class="st6" d="M696,175h-3v-6h3c1.7,0,3,1.3,3,3c0,0.8-0.3,1.6-0.9,2.1C697.6,174.7,696.8,175,696,175z"/>
	<path class="st6" d="M672.2,158H695v30h-14.2c-2.7,0-5.3-1.1-7.2-3.2c-1.9-2-2.8-4.7-2.7-7.5L672.2,158L672.2,158z"/>
	<path class="st11" d="M695.4,169h0.6v-18h-18.3c-4.8,0-8.7,4-8.7,8.9v0.4h0.6c5.2,0,10.3,1.7,14.5,4.9
		C687.3,167.6,691.3,169,695.4,169L695.4,169z"/>
	<path class="st5" d="M313,266l26.9,93h3.1l-22-93H313z M284,266l-26.9,93H254l22-93H284z"/>
	<circle class="st6" cx="298.5" cy="253.5" r="45.5"/>
	<path class="st11" d="M321,265.6c0,2.9-0.5,5.8-1.6,8.4h-41.7c-3.4-8.4-1.4-18.1,5-24.5c6.4-6.4,16.1-8.3,24.5-4.8
		C315.5,248.2,321,256.5,321,265.6z"/>
	<circle class="st11" cx="299" cy="265" r="6"/>
	
		<ellipse transform="matrix(0.9564 -0.2922 0.2922 0.9564 -51.8322 112.0393)" class="st7" cx="349.1" cy="229.5" rx="8.4" ry="8.4"/>
	<path class="st5" d="M310,218.2l35.7,18.8l9.3-13.8L323.6,198L310,218.2z"/>
	
		<ellipse transform="matrix(0.4266 -0.9045 0.9045 0.4266 -6.472 403.9729)" class="st5" cx="315.4" cy="207.1" rx="12.3" ry="12.3"/>
	<path class="st5" d="M289,216.8L255.8,240L245,227.1l28.1-29.1L289,216.8z"/>
	
		<ellipse transform="matrix(0.9984 -5.686704e-02 5.686704e-02 0.9984 -11.3204 16.3736)" class="st5" cx="282" cy="207.1" rx="12.3" ry="12.3"/>
	<circle class="st11" cx="285.5" cy="273.5" r="8.5"/>
	<circle class="st11" cx="312.5" cy="273.5" r="8.5"/>
	<path class="st5" d="M324,204l-3,61H276l-3-61c-0.1-2.3,0.7-4.6,2.4-6.3c1.6-1.7,3.9-2.7,6.3-2.7h33.7c2.4,0,4.6,1,6.2,2.7
		C323.2,199.4,324.1,201.6,324,204L324,204z"/>
	<path class="st11" d="M321,265l-0.4,8.5v0.4c-0.2,4.5-3.9,8.1-8.4,8.1h-27.3c-4.5,0-8.2-3.6-8.4-8.1v-0.4L276,265H321z"/>
	
		<ellipse transform="matrix(0.1568 -0.9876 0.9876 0.1568 -82.9641 609.6972)" class="st11" cx="315.6" cy="353.4" rx="5.2" ry="5.2"/>
	<ellipse transform="matrix(0.2297 -0.9733 0.9733 0.2297 -26.0365 517.097)" class="st11" cx="313.7" cy="275" rx="7.1" ry="7.1"/>
	<path class="st11" d="M310.8,353l-3.8-78h14v78H310.8z"/>
	<path class="st6" d="M325.5,360H310v-6h10.3l5.9,3.1c0.5,0.3,0.8,0.8,0.8,1.3c0,0.4-0.2,0.8-0.4,1.1
		C326.3,359.8,325.9,360,325.5,360L325.5,360z"/>
	<path class="st11" d="M349.7,281.3c2.6,0.9,4,3.8,3,6.4c-0.9,2.6-3.8,4-6.4,3c-2.6-0.9-4-3.8-3-6.4c0,0,0,0,0,0
		C344.2,281.7,347.1,280.4,349.7,281.3z M276.4,255.4c3.7,1.3,5.6,5.2,4.3,8.9c-1.3,3.7-5.2,5.6-8.9,4.3c0,0-0.1,0-0.1,0
		c-3.6-1.3-5.5-5.4-4.2-9C268.8,256,272.7,254.2,276.4,255.4z"/>
	<path class="st11" d="M346.5,291L271,268.4l4.8-13.4l74.2,26.2L346.5,291z"/>
	<path class="st6" d="M350.9,298l5.1-14.9l-5.6-2.1l-3.4,9.9l1,6.8c0.1,0.6,0.5,1,1,1.2C349.8,299.2,350.6,298.8,350.9,298
		L350.9,298z M292.9,177.7l15.4,0.9l-1,16.7l-15.4-0.9L292.9,177.7z"/>
	
		<ellipse transform="matrix(0.2573 -0.9663 0.9663 0.2573 34.2842 434.2235)" class="st6" cx="299.6" cy="194.8" rx="7.7" ry="7.7"/>
	<path class="st11" d="M278.6,279L268,266l10.5-10l12.5,11.2L278.6,279z"/>
	<path class="st5" d="M231,242l-0.6,6.2L218.1,360H215l9.2-118H231z M768,242l0.6,6.2L780.9,360h3.1l-9.2-118H768z"/>
	<path class="st11" d="M217,242h563v6H217V242z"/>
	<path class="st5" d="M259.8,235.1c-0.8,4.6-5.3,7.7-9.9,6.8c-4.6-0.8-7.7-5.3-6.8-9.9c0-0.1,0-0.2,0-0.2c0.9-4.6,5.4-7.6,10-6.6
		C257.7,226.2,260.7,230.6,259.8,235.1L259.8,235.1z"/>
	<path class="st11" d="M305,238h30v4h-30V238z"/>
	<path class="st3" d="M393,200l-1.5,32.8L391,242h-59l2-42H393z"/>
	<path class="st12" d="M367,220.5c-0.1,2.5-2.2,4.5-4.7,4.5c-1.2,0-2.3-0.5-3.1-1.3c-0.8-0.9-1.2-2-1.2-3.2c0.1-2.5,2.2-4.5,4.7-4.5
		c1.2,0,2.3,0.5,3.1,1.3C366.7,218.2,367.1,219.3,367,220.5z"/>
	<path class="st4" d="M392,233l-0.4,9H332L392,233z"/>
	<path class="st11" d="M683,242h-30v-4h30V242z"/>
	<path class="st3" d="M656,242h-59l0-0.1l-0.4-9.2L595,200h59l1.5,32.8L656,242z"/>
	
		<ellipse transform="matrix(0.6988 -0.7153 0.7153 0.6988 30.4791 513.5811)" class="st12" cx="625.1" cy="220.6" rx="4.2" ry="4.4"/>
	<path class="st4" d="M656,242h-60l0.4-0.1l59.1-8.9L656,242z"/>
	<path class="st11" d="M316.3,165.8l-2.1,0.2l-1.2-14.8l2.1-0.2c1.9-0.2,3.8,0.5,5.3,1.7c1.5,1.3,2.4,3.1,2.5,5.1
		C323.3,161.9,320.3,165.5,316.3,165.8z M287.2,171.2l11.2-0.9l0.9,11.7l-3.8,0.3c-4,0.3-7.6-2.7-7.9-6.7c0,0,0,0,0,0L287.2,171.2
		L287.2,171.2z"/>
	<path class="st11" d="M308.2,148l3.3-0.3c4.9-0.4,9.1,3.2,9.5,8.1c0,0,0,0.1,0,0.1l0.2,2.7c0.4,4.4-2.9,8.3-7.3,8.6l-4.2,0.3
		L308.2,148L308.2,148z"/>
	<path class="st6" d="M314.8,186.4l-19.9,1.6l-1.8-22.5c-0.3-3.3,0.8-6.6,2.9-9.1c2.1-2.5,5.2-4.1,8.5-4.3
		c6.6-0.5,12.5,4.2,13.3,10.8L320,180c0.2,1.5-0.3,3.1-1.2,4.3C317.8,185.5,316.3,186.2,314.8,186.4z"/>
	<path class="st8" d="M319,174l-1-11L319,174z"/>
	<path class="st11" d="M297.2,151l1.2-0.1l1.7,21l-12.8,1l-0.8-9.4C286,157.1,290.8,151.5,297.2,151L297.2,151z"/>
	<path class="st6" d="M293.6,175l3.4-0.3l-0.3-3.5c-0.1-0.9-0.5-1.8-1.2-2.4c-0.7-0.6-1.6-0.9-2.5-0.8c-1.9,0.2-3.2,1.8-3.1,3.8
		c0.1,0.9,0.5,1.8,1.2,2.4C291.9,174.8,292.7,175.1,293.6,175L293.6,175z"/>
	<path class="st11" d="M319,159.9l-12.8,1c-5.2,0.4-9.8-3.5-10.2-8.7c-0.3-1.7,0.4-3.4,1.8-4.4c1.4-1,3.2-1.2,4.7-0.4
		c1.5,0.8,2.5,2.3,2.4,4.1c0,0.3,0.3,0.5,0.5,0.4l12.8-1L319,159.9L319,159.9z"/>
	<path class="st11" d="M313.6,155.5l-6.2,0.5c-2.3,0-4.2-1.7-4.3-3.9c-0.2-2.2,1.4-4.2,3.6-4.5l6.2-0.5c1.6-0.3,3.3,0.4,4.3,1.7
		c1,1.3,1.1,3,0.4,4.5C316.8,154.6,315.2,155.5,313.6,155.5L313.6,155.5z M320,185.2c0.2,1.2-0.2,2.4-0.9,3.4
		c-0.7,0.9-1.8,1.6-3,1.7l-8.7,0.7c-2.3,0.2-4.6-0.6-6.4-2.1c-1.8-1.6-2.9-3.8-3.1-6.1l-0.8-10.5l3.3-0.3c0.1,1,0.5,1.9,1.3,2.6
		c0.7,0.6,1.7,1,2.7,0.9l14.4-1.2L320,185.2L320,185.2z"/>
	<path class="st6" d="M312.8,235.6c-0.7-2.7-3.5-4.2-6.2-3.5c-2.7,0.7-4.2,3.5-3.5,6.2c0,0,0,0.1,0,0.1c0.8,2.6,3.6,4.1,6.2,3.3
		C312,240.9,313.5,238.2,312.8,235.6z M302.9,237.5c0.5,1.9-0.5,3.8-2.4,4.3c-0.9,0.3-1.9,0.2-2.7-0.3c-1.7-0.9-2.3-3.1-1.4-4.7
		c0.4-0.8,1.2-1.4,2.1-1.7C300.4,234.6,302.3,235.7,302.9,237.5C302.9,237.5,302.9,237.5,302.9,237.5L302.9,237.5z"/>
	<path class="st6" d="M308,242l-8.9,0l-1.1-7.5l8.6-2.5L308,242z"/>
	<path class="st5" d="M252.6,225l47.4,9.5l-0.7,7.5h-6.2l-42.1,0L252.6,225z"/>
	<path class="st6" d="M299.3,242l0.7-7.4l-3-0.6v8H299.3z"/>
	<path class="st5" d="M270,226h7v7h-7V226z"/>
	<path class="st11" d="M676,265l-28,3.3l0.8,13.7H677L676,265z"/>
	<path class="st6" d="M674.2,238c-0.6,1.6,0.2,3.3,1.8,3.9c1.6,0.6,3.3-0.2,3.9-1.8c0,0,0-0.1,0-0.1c0.5-1.6-0.4-3.3-1.9-3.8
		C676.4,235.7,674.7,236.5,674.2,238z"/>
	<path class="st6" d="M668,241.8c0.5,0.2,0.9,0.2,1.4,0.2h7.6l1-6.2l-7.1-2.5c-2.3-0.8-4.8,0.4-5.6,2.8S665.7,240.9,668,241.8
		L668,241.8L668,241.8z"/>
	<path class="st6" d="M719,242l-42.6,0l-0.4-6.3l42.2-5.7L719,242z"/>
	<path class="st5" d="M484,266l26.9,93h3.1l-22-93H484z M456,266l-26.9,93H426l22-93H456z"/>
	<path class="st5" d="M457,265.6c0,2.9,0.5,5.8,1.6,8.4h41.7c3.4-8.4,1.4-18.1-5-24.5c-6.4-6.4-16.1-8.3-24.5-4.8
		C462.5,248.2,457,256.5,457,265.6L457,265.6z"/>
	<circle class="st11" cx="480" cy="265" r="6"/>
	<ellipse transform="matrix(0.1704 -0.9854 0.9854 0.1704 128.5211 619.2648)" class="st6" cx="432" cy="233.3" rx="8.4" ry="8.4"/>
	<path class="st6" d="M470,216.9L436.8,240L426,227.1l28.2-29.1L470,216.9z"/>
	
		<ellipse transform="matrix(0.2105 -0.9776 0.9776 0.2105 163.0558 616.1489)" class="st11" cx="463" cy="207.1" rx="12.3" ry="12.3"/>
	<path class="st6" d="M466.1,242c-0.5-2.7,1.2-5.3,3.9-5.9c2.7-0.5,5.3,1.2,5.9,3.9c0.5,2.7-1.2,5.3-3.9,5.9
		C469.3,246.4,466.6,244.7,466.1,242z"/>
	<path class="st6" d="M475.1,239.2c0.3,1.9,2.2,3.2,4.1,2.8c1.9-0.3,3.2-2.2,2.8-4.1c0,0,0-0.1,0-0.1c-0.4-1.9-2.3-3.1-4.1-2.7
		C475.9,235.5,474.7,237.3,475.1,239.2z"/>
	<path class="st6" d="M473.3,245l7.7-4l-2.4-7l-8.6,1.7L473.3,245z"/>
	
		<ellipse transform="matrix(0.9972 -7.515277e-02 7.515277e-02 0.9972 -16.0459 40.2816)" class="st6" cx="527.2" cy="233.3" rx="8.4" ry="8.4"/>
	<path class="st6" d="M489,216.8l33.2,23.2l10.8-12.8L504.9,198L489,216.8z"/>
	<path class="st11" d="M489,216.8l27.4,19.2l11.6-13.8L504.8,198L489,216.8z M470,216.8L442.6,236L431,222.1l23.2-24.1L470,216.8z"
		/>
	
		<ellipse transform="matrix(5.059297e-02 -0.9987 0.9987 5.059297e-02 264.3524 692.3109)" class="st11" cx="496.3" cy="207.1" rx="12.3" ry="12.3"/>
	<circle class="st5" cx="493.5" cy="273.5" r="8.5"/>
	<circle class="st5" cx="466.5" cy="273.5" r="8.5"/>
	<path class="st11" d="M454,204l3,61h45l3-61c0.1-2.3-0.7-4.6-2.4-6.3c-1.6-1.7-3.9-2.7-6.2-2.7h-33.7c-2.4,0-4.6,1-6.2,2.7
		C454.8,199.4,453.9,201.6,454,204z"/>
	<path class="st5" d="M457,265l0.4,8.5v0.4c0.2,4.5,3.9,8.1,8.4,8.1h27.3c4.5,0,8.2-3.6,8.4-8.1v-0.4l0.4-8.5H457z"/>
	<circle class="st10" cx="469.5" cy="253.5" r="45.5"/>
	<path class="st12" d="M510.5,275l-1.1-0.6c8.5-16,6.6-35.6-4.8-49.6c-11.4-14.1-30.1-19.9-47.4-14.7l-0.4-1.2
		c17.8-5.3,37,0.6,48.7,15.1C517.4,238.5,519.3,258.6,510.5,275z"/>
	<path class="st11" d="M476.9,224h-14.8c-0.8,0-1.6-0.3-2.2-0.9c-0.6-0.6-0.9-1.3-0.9-2.1c0-1.7,1.4-3,3.1-3h14.8
		c1.7,0,3.1,1.3,3.1,3C480,222.7,478.6,224,476.9,224z"/>
	<path class="st12" d="M702.6,213.6l1.1-0.5l6.1,14l-1.1,0.5L702.6,213.6z M265.6,228.2l0.2-1.2l31.3,6.1l-0.2,1.2L265.6,228.2z"/>
	<path class="st3" d="M284.4,273l0.4-1.2l21.6,6.5l-0.4,1.2L284.4,273z M131.1,157.8c-1.8,8.4-4.8,16.5-7.3,24.8
		c-2.5,8.5-5,17.1-5,26c0.1,11.6,4.5,22.8,12.5,31.3c3.1,3.3,6.7,6.1,9.1,10c2.4,3.8,3.2,9.1,0.6,12.7c-3.8,5.3-12,4.1-17.6,7.4
		c-7,4.1-8.1,14.7-4,21.8c4,7.1,22.3,27.5,48.4,22.5c11.7-2.3,27.5-13.4,27.1-25.4c-0.5-12.4-12.3-22.5-11.9-34.9
		c0.3-8.1,5.7-15,10.5-21.7c4.8-6.6,9.1-14.7,7-22.6c-3.2-11.6-18-15.1-25.2-24.7c-4.6-6.2-5.6-14.3-5.9-22
		c-0.3-7.7-0.1-15.6-2.7-22.9C160.4,122.3,138.3,124.4,131.1,157.8L131.1,157.8z"/>
	<path class="st11" d="M158,202h1v134h-1V202z"/>
	<path class="st11" d="M159.2,241l-1.2-0.2c2-12,15.8-19.5,16.4-19.8l0.6,1.1C174.9,222.1,161.1,229.6,159.2,241L159.2,241z
		 M157.8,294c-1.3-8.4-10.7-13.8-10.8-13.9l0.6-1.1c0.4,0.2,10,5.8,11.4,14.8L157.8,294z M136,332h44v8c0,11-8.9,20-19.9,20h-4.3
		c-11,0-19.9-9-19.9-20L136,332L136,332L136,332z"/>
	<path class="st11" d="M144.4,359c-5.2-2.8-8.4-8.3-8.4-14.2V340h1.2v4.8c0,5.5,3,10.6,7.8,13.1L144.4,359L144.4,359z"/>
	<path class="st12" d="M136,336h44v1h-44V336z"/>
	<path class="st11" d="M63,360h766v1H63V360z M460,369h258v1H460V369z M655,378h112v1H655V378z M416,378h205v1H416V378z M755,369h23
		v1h-23V369z M359,369h80v1h-80V369z"/>
	<path class="st12" d="M672.2,228c-4.5,0-8.2-3.8-8.2-8.5c0-0.8,0.1-1.7,0.4-2.5l0.2-0.6l3.5-9.4l1.1,0.4l-3.2,8.8l-0.2,0.6
		c-1,2.5-0.5,5.4,1.2,7.4c1.7,2,4.4,2.9,6.9,2.3l0.3,1.2C673.4,227.9,672.8,228,672.2,228L672.2,228z"/>
	<path class="st11" d="M152,331h28v1h-28V331z"/>
	<path class="st13" d="M579.6,64.6c-2.6-5.9-3.4-10.5-1.6-14.3c5.4-11.1,33.1-12.9,50.7-2.1c24.7,15.1,31.2,55.5,19.9,64.5
		C635.5,123.2,592.9,95.4,579.6,64.6L579.6,64.6z"/>
	<path class="st12" d="M317,177c0.2,2-1.3,3.8-3.2,4c-1.9,0.2-3.6-1.3-3.8-3.3L317,177L317,177z M681,178c0,1.7-1.6,3-3.5,3
		s-3.5-1.3-3.5-3H681z M332.5,221.3l1-21.8l1.2,0.1l-1,21.8L332.5,221.3z M520,206h17v1h-17V206z M525,210h19v1h-19V210z M530,213
		h17v1h-17V213z M533,217h5v1h-5V217z M540,217h7v1h-7V217z M541,206h6v1h-6V206z"/>
</g>
</svg>
