<svg xmlns="http://www.w3.org/2000/svg" width="893" height="506" viewBox="0 0 893 506">
    <g fill="none" fill-rule="evenodd">
        <path fill="#FFF" fill-rule="nonzero" d="M0 0h893v506H0z"/>
        <path fill="#FFF" fill-rule="nonzero" d="M0 56h893v450H0z"/>
        <path fill="#F8F7FF" fill-rule="nonzero" d="M111.589 464s-97.309-43.208-56.662-84.478c40.647-41.27 179.006-38.766 167.34-84.8-11.664-46.035-40.735-61.38-21.89-96.318 22.635-41.9 88.811-7.898 120.856 6.768 59.596 27.282 125.627 30.31 102.741-7.842-22.886-38.152-47.074-52.681-25.384-74.423 29.572-29.583 156.476 57.22 226.072 142.95 41.649 51.333 72.013 15.62 67.793-17.364-2.7-20.925-32.183-64.133-1.237-83.75 29.838-18.867 99.515 39.573 123.185 75.714C876.384 334.95 806.32 464 806.32 464H111.59z"/>
        <path fill="#FFF0F0" fill-rule="nonzero" d="M112.586 464s-97.304-43.205-56.66-84.472c40.646-41.267 179-38.763 167.335-84.794-11.665-46.032-40.742-61.376-21.9-96.311 22.635-41.897 88.809-7.898 120.861 6.767 59.586 27.28 125.614 30.308 102.729-7.841-22.886-38.15-47.072-52.702-25.343-74.442 29.57-29.581 156.47 57.216 226.062 142.94 41.648 51.329 72.01 15.618 67.79-17.363-2.683-20.956-32.18-64.202-1.236-83.777 29.837-18.865 99.511 39.57 123.18 75.71 61.979 94.485-8.083 223.526-8.083 223.526L112.586 464z"/>
        <path fill="#4F0B11" fill-rule="nonzero" d="M557 304l-1.364 29.178-.162 3.582-.258 5.562-.178 3.678H496l.17-3.678L497.962 304z"/>
        <path fill="#FF5C62" fill-rule="nonzero" d="M555 342l-.177 4H469v-4z"/>
        <path fill="#D13D47" fill-rule="nonzero" d="M556 333l-.162 3.526-.259 5.474H497l2.015-.309z"/>
        <path fill="#A8222B" fill-rule="nonzero" d="M493 385.87l36.43.13.57-14.295L493.668 369z"/>
        <path fill="#FF95A9" fill-rule="nonzero" d="M525.397 329L478 338.515l.7 7.468 2.49.009 3.673-.009L527 346z"/>
        <path fill="#FF95A9" fill-rule="nonzero" d="M478.665 346l-.665-7.373 3-.627v8zM491.418 289H471v-22.567a12.482 12.482 0 0 1 3.604-8.791 12.258 12.258 0 0 1 8.71-3.642c6.577 0 12.548 5.21 12.863 11.83l.816 17.243a5.68 5.68 0 0 1-1.531 4.167 5.576 5.576 0 0 1-4.044 1.76z"/>
        <path fill="#FF95A9" fill-rule="nonzero" d="M496.994 283.08a5.681 5.681 0 0 1-1.54 4.168 5.575 5.575 0 0 1-4.052 1.752H471v-22.564a12.486 12.486 0 0 1 3.604-8.793 12.257 12.257 0 0 1 8.71-3.643 13.663 13.663 0 0 1 9.058 3.433 12.429 12.429 0 0 1 3.806 8.4l.816 17.247z"/>
        <path fill="#B22852" fill-rule="nonzero" d="M500 255.792v6.701c0 .508-.063 1.015-.19 1.507H487v-15h6.128c1.827 0 3.578.716 4.868 1.99a6.715 6.715 0 0 1 2.004 4.802z"/>
        <path d="M496.815 277l-.63-11 .63 11z"/>
        <path fill="#B22852" fill-rule="nonzero" d="M476.767 252H478v21h-13v-9.388c0-6.413 5.268-11.612 11.767-11.612z"/>
        <path fill="#B22852" fill-rule="nonzero" d="M498 262h-13.469c-5.26-.004-9.522-4.192-9.527-9.36a4.432 4.432 0 0 1 2.206-4.012 4.6 4.6 0 0 1 4.641 0 4.432 4.432 0 0 1 2.206 4.012.47.47 0 0 0 .474.466H498V262z"/>
        <path fill="#B22852" fill-rule="nonzero" d="M493.482 258h-6.964c-2.495 0-4.518-2.015-4.518-4.5s2.023-4.5 4.518-4.5h6.964c2.495 0 4.518 2.015 4.518 4.5s-2.023 4.5-4.518 4.5z"/>
        <path fill="#B22852" fill-rule="nonzero" d="M503 260.5c0 3.59-3.017 6.5-6.738 6.5-3.72 0-7.262-2.911-7.262-6.5s3.518-6.5 7.262-6.5c3.721 0 6.738 2.91 6.738 6.5z"/>
        <path fill="#B22852" fill-rule="nonzero" d="M475 259h19v7h-19zM475 266h14v9h-14z"/>
        <path fill="#B22852" fill-rule="nonzero" d="M465 271h21v4.358c0 4.22-3.285 7.642-7.338 7.642h-3.812c-5.44 0-9.85-4.593-9.85-10.259V271z"/>
        <path fill="#FF95A9" fill-rule="nonzero" d="M478.516 306c-4.152-.004-7.516-3.398-7.516-7.582V283h15v15.418c0 4.172-3.344 7.56-7.484 7.582zM489.513 278H493v-7h-3.504a3.496 3.496 0 0 0-3.496 3.504 3.496 3.496 0 0 0 3.513 3.496z"/>
        <path fill="#B22852" fill-rule="nonzero" d="M486.031 263H494v2.14c0 3.237-2.524 5.86-5.638 5.86H486v-8h.031z"/>
        <circle cx="478.5" cy="298.5" r="7.5" fill="#FF95A9" fill-rule="nonzero"/>
        <ellipse cx="521.354" cy="457.423" fill="#2FC2A7" fill-rule="nonzero" rx="5.196" ry="5.198" transform="rotate(-15.83 521.354 457.423)"/>
        <ellipse cx="529.412" cy="379.049" fill="#A8222B" fill-rule="nonzero" rx="7.12" ry="7.122" transform="rotate(-13.28 529.412 379.049)"/>
        <path fill="#A8222B" fill-rule="nonzero" d="M516 457.186L522.05 379l13.95 1.112L526.179 458z"/>
        <path fill="#B22852" fill-rule="nonzero" d="M531.448 464H516v-6h10.296l5.904 3.15c.493.262.8.77.8 1.322.008.408-.152.801-.445 1.09a1.533 1.533 0 0 1-1.107.438z"/>
        <ellipse cx="491.043" cy="457.453" fill="#A8222B" fill-rule="nonzero" rx="5.196" ry="5.198" transform="rotate(-13.28 491.043 457.453)"/>
        <ellipse cx="499.143" cy="379.007" fill="#A8222B" fill-rule="nonzero" rx="7.12" ry="7.122" transform="rotate(-12.67 499.143 379.007)"/>
        <path fill="#A8222B" fill-rule="nonzero" d="M486 457.186L492.052 379 506 380.112 496.183 458z"/>
        <path fill="#B22852" fill-rule="nonzero" d="M501.464 464H486v-6h10.288l5.912 3.15c.492.264.798.77.8 1.322.008.405-.15.796-.44 1.084-.29.288-.685.448-1.096.444z"/>
        <path fill="#A8222B" fill-rule="nonzero" d="M679 370l-26.905 93H649l22.01-93zM707 370l26.913 93H737l-22.002-93z"/>
        <circle cx="693.5" cy="357.5" r="45.5" fill="#FF809F" fill-rule="nonzero"/>
        <path fill="#FF809F" fill-rule="nonzero" d="M737.176 372l-1.176-.387a46.937 46.937 0 0 0 1.784-7.613l1.216.181a46.762 46.762 0 0 1-1.824 7.819zM692.887 403A45.438 45.438 0 0 1 672 397.986l.556-1.098a44.221 44.221 0 0 0 20.331 4.885c17.745-.01 33.816-10.507 40.993-26.773l1.12.5c-7.373 16.711-23.883 27.492-42.113 27.5z"/>
        <circle cx="686.5" cy="353.5" r="14.5" fill="#A8222B" fill-rule="nonzero"/>
        <path fill="#FF95A9" fill-rule="nonzero" d="M606.184 340.034a3 3 0 1 1 5.633-2.067 3 3 0 0 1-5.633 2.067z"/>
        <circle cx="678" cy="308" r="8" fill="#A8222B" fill-rule="nonzero"/>
        <path fill="#FF95A9" fill-rule="nonzero" d="M601.33 336.182c-.482.01-.96.102-1.412.272a4.41 4.41 0 0 0-1.323 7.542 4.364 4.364 0 0 0 4.355.712l7.05-2.609-1.159-6.099-7.51.182z"/>
        <ellipse cx="647.304" cy="321.735" fill="#FF95A9" fill-rule="nonzero" rx="5.82" ry="5.819" transform="rotate(-78.26 647.304 321.735)"/>
        <path fill="#FF95A9" fill-rule="nonzero" d="M674.585 301L645 316.514 649.666 327 681 315.435zM644.307 317L607 336.444l2.483 5.556L649 327.49z"/>
        <circle cx="664" cy="458" r="4" fill="#32454C" fill-rule="nonzero"/>
        <path fill="#A8222B" fill-rule="nonzero" d="M670.009 308.35l2.085 44.65h28.862l11.893-46.89a4.868 4.868 0 0 0-.898-4.22 4.98 4.98 0 0 0-3.916-1.89h-29.97a8.107 8.107 0 0 0-5.834 2.47 7.93 7.93 0 0 0-2.222 5.88z"/>
        <ellipse cx="678.276" cy="308.05" fill="#A8222B" fill-rule="nonzero" rx="8.001" ry="8.002" transform="rotate(-25.35 678.276 308.05)"/>
        <path fill="#32454C" fill-rule="nonzero" d="M672.708 353h28.538l1.54 1.203c5.183 4.066 8.215 10.317 8.214 16.939v6.185c0 4.787-3.846 8.669-8.593 8.673h-24.805c-4.751 0-8.602-3.883-8.602-8.673v-8.477c.01-5.5 1.28-10.925 3.708-15.85z"/>
        <path fill="#A8222B" fill-rule="nonzero" d="M686 310.742l-5.857 16.045-.126-.05c-1.292 3.649-4.92 5.814-8.612 5.141-3.693-.673-6.391-3.99-6.405-7.876a8.047 8.047 0 0 1 .545-2.94h-.047L671.331 305 686 310.742z"/>
        <ellipse cx="707.804" cy="308.042" fill="#A8222B" fill-rule="nonzero" rx="8.002" ry="8.002" transform="rotate(-48.13 707.804 308.042)"/>
        <ellipse cx="719.313" cy="339.891" fill="#FF95A9" fill-rule="nonzero" rx="5.82" ry="5.819" transform="rotate(-50.57 719.313 339.891)"/>
        <path fill="#FF95A9" fill-rule="nonzero" d="M715.762 306L725 338.106 714.278 342 701 311.358z"/>
        <path fill="#A8222B" fill-rule="nonzero" d="M701 311.503L709.743 332 722 327.473 715.912 306zM681 315.448L660.334 323 655 311.128 674.51 301z"/>
        <circle cx="677.5" cy="377.5" r="8.5" fill="#32454C" fill-rule="nonzero"/>
        <circle cx="702.5" cy="377.5" r="8.5" fill="#32454C" fill-rule="nonzero"/>
        <path fill="#B22852" fill-rule="nonzero" d="M659.971 458H668v6h-11.273a1.656 1.656 0 0 1-1.22-.54 1.935 1.935 0 0 1-.507-1.317c.002-.666.333-1.28.868-1.612L659.97 458z"/>
        <circle cx="649" cy="379" r="7" fill="#32454C" fill-rule="nonzero"/>
        <path fill="#32454C" fill-rule="nonzero" d="M642 381.135L660.118 459l7.882-1.233L655.725 379z"/>
        <circle cx="684" cy="458" r="4" fill="#32454C" fill-rule="nonzero"/>
        <path fill="#B22852" fill-rule="nonzero" d="M679.926 458H688v6h-11.271c-.955 0-1.729-.831-1.729-1.857-.001-.665.329-1.28.864-1.612l4.062-2.531z"/>
        <circle cx="669" cy="379" r="7" fill="#32454C" fill-rule="nonzero"/>
        <path fill="#32454C" fill-rule="nonzero" d="M662 381.135L680.118 459l7.882-1.233L675.725 379z"/>
        <path fill="#FF95A9" fill-rule="nonzero" d="M682 283h14v17h-14z"/>
        <circle cx="689" cy="300" r="7" fill="#FF95A9" fill-rule="nonzero"/>
        <ellipse cx="700.744" cy="281.514" fill="#32454C" fill-rule="nonzero" rx="9.641" ry="9.644" transform="rotate(-9.22 700.744 281.514)"/>
        <path fill="#32454C" fill-rule="nonzero" d="M664 268.492c.005-11.873 9.632-21.495 21.505-21.492 11.874.003 21.497 9.63 21.495 21.503-.002 11.873-9.627 21.497-21.5 21.497l-10.958-10.958c-5.82 0-10.537-4.715-10.542-10.534v-.016z"/>
        <path fill="#FF95A9" fill-rule="nonzero" d="M696 279h-3v-6h3a3.002 3.002 0 0 1 3 2.988 2.982 2.982 0 0 1-.87 2.128A3.006 3.006 0 0 1 696 279z"/>
        <path fill="#FF95A9" fill-rule="nonzero" d="M672.197 262H695v30h-14.161a9.755 9.755 0 0 1-7.168-3.153 10.12 10.12 0 0 1-2.652-7.477l1.178-19.37z"/>
        <path fill="#32454C" fill-rule="nonzero" d="M695.388 273H696v-18h-18.268c-4.823 0-8.732 3.97-8.732 8.87v.35h.612a23.751 23.751 0 0 1 14.499 4.91 18.554 18.554 0 0 0 11.277 3.845V273z"/>
        <path fill="#A8222B" fill-rule="nonzero" d="M313 370l26.905 93H343l-22.002-93zM284 370l-26.905 93H254l22.002-93z"/>
        <circle cx="298.5" cy="357.5" r="45.5" fill="#FF95A9" fill-rule="nonzero"/>
        <path fill="#32454C" fill-rule="nonzero" d="M321 369.556a22.525 22.525 0 0 1-1.62 8.444h-41.743a22.596 22.596 0 0 1 5.05-24.488 22.459 22.459 0 0 1 24.486-4.769C315.547 352.25 321 360.458 321 369.556z"/>
        <circle cx="299" cy="369" r="6" fill="#32454C" fill-rule="nonzero"/>
        <ellipse cx="349.144" cy="333.532" fill="#B22852" fill-rule="nonzero" rx="8.397" ry="8.399" transform="rotate(-16.99 349.144 333.532)"/>
        <path fill="#A8222B" fill-rule="nonzero" d="M310 322.228L345.73 341l9.27-13.792L323.598 302z"/>
        <ellipse cx="315.35" cy="311.091" fill="#A8222B" fill-rule="nonzero" rx="12.319" ry="12.317" transform="rotate(-64.75 315.35 311.09)"/>
        <path fill="#A8222B" fill-rule="nonzero" d="M289 320.846L255.808 344 245 331.148 273.148 302z"/>
        <ellipse cx="282.035" cy="311.093" fill="#A8222B" fill-rule="nonzero" rx="12.316" ry="12.32" transform="rotate(-3.26 282.035 311.093)"/>
        <circle cx="285.5" cy="377.5" r="8.5" fill="#32454C" fill-rule="nonzero"/>
        <circle cx="312.5" cy="377.5" r="8.5" fill="#32454C" fill-rule="nonzero"/>
        <path fill="#A8222B" fill-rule="nonzero" d="M323.99 307.991L320.972 369h-44.944l-3.018-61.009a8.54 8.54 0 0 1 2.372-6.331 8.664 8.664 0 0 1 6.253-2.66h33.738a8.662 8.662 0 0 1 6.248 2.663 8.54 8.54 0 0 1 2.369 6.328z"/>
        <path fill="#32454C" fill-rule="nonzero" d="M321 369l-.413 8.5v.417c-.22 4.528-3.926 8.084-8.422 8.083h-27.338c-4.494 0-8.197-3.557-8.414-8.083v-.417L276 369h45z"/>
        <ellipse cx="315.576" cy="457.435" fill="#32454C" fill-rule="nonzero" rx="5.198" ry="5.196" transform="rotate(-80.98 315.576 457.435)"/>
        <ellipse cx="313.657" cy="378.997" fill="#32454C" fill-rule="nonzero" rx="7.122" ry="7.12" transform="rotate(-76.72 313.657 378.997)"/>
        <path fill="#32454C" fill-rule="nonzero" d="M310.782 457L307 379h14v78z"/>
        <path fill="#FF95A9" fill-rule="nonzero" d="M325.472 464H310v-6h10.296l5.904 3.15c.493.263.8.77.8 1.322.006.403-.152.792-.44 1.08a1.54 1.54 0 0 1-1.088.448z"/>
        <path fill="#32454C" fill-rule="nonzero" d="M349.671 385.287a5 5 0 1 1-6.382 3.04 5.006 5.006 0 0 1 6.382-3.04zM276.35 359.406a7 7 0 1 1-4.702 13.186 7 7 0 0 1 4.702-13.186z"/>
        <path fill="#32454C" fill-rule="nonzero" d="M346.5 395L271 372.384 275.807 359 350 385.236z"/>
        <path fill="#FF95A9" fill-rule="nonzero" d="M350.916 401.987L356 387.093 350.384 385 347 394.916l1.034 6.76c.088.567.463 1.039.98 1.235.769.282 1.613-.128 1.902-.924zM292.881 281.698l15.37.892-.966 16.657-15.37-.892z"/>
        <ellipse cx="299.628" cy="298.808" fill="#FF95A9" fill-rule="nonzero" rx="7.696" ry="7.694" transform="rotate(-75.09 299.628 298.808)"/>
        <path fill="#32454C" fill-rule="nonzero" d="M278.604 383L268 370.003 278.497 360 291 371.207z"/>
        <path fill="#A8222B" fill-rule="nonzero" d="M231 346l-.646 6.166L218.11 464H215l9.196-118zM768 346l.646 6.166L780.89 464H784l-9.188-118z"/>
        <path fill="#32454C" fill-rule="nonzero" d="M217 346h563v6H217z"/>
        <path fill="#A8222B" fill-rule="nonzero" d="M259.84 339.139a8.5 8.5 0 1 1-16.679-3.279 8.5 8.5 0 0 1 16.68 3.279z"/>
        <path fill="#32454C" fill-rule="nonzero" d="M305 342h30v4h-30z"/>
        <path fill="#FF5C62" fill-rule="nonzero" d="M393 304l-1.526 32.761-.435 9.239H332l1.97-42z"/>
        <path fill="#FFF" fill-rule="nonzero" d="M366.99 324.504a4.76 4.76 0 0 1-4.698 4.496 4.248 4.248 0 0 1-3.115-1.318 4.263 4.263 0 0 1-1.17-3.178 4.76 4.76 0 0 1 4.706-4.503 4.206 4.206 0 0 1 3.127 1.31 4.221 4.221 0 0 1 1.15 3.193z"/>
        <path fill="#D13D47" fill-rule="nonzero" d="M392 337l-.44 9H332z"/>
        <path fill="#32454C" fill-rule="nonzero" d="M683 346h-30v-4h30z"/>
        <path fill="#FF5C62" fill-rule="nonzero" d="M656 346h-59.038l-.008-.064-.428-9.176L595 304h59.038l1.534 32.824z"/>
        <ellipse cx="625.077" cy="324.599" fill="#FFF" fill-rule="nonzero" rx="4.211" ry="4.413" transform="rotate(-45.67 625.077 324.599)"/>
        <path fill="#D13D47" fill-rule="nonzero" d="M656 346h-60l.432-.063L655.568 337z"/>
        <path fill="#32454C" fill-rule="nonzero" d="M316.313 269.825l-2.147.175L313 255.207l2.146-.183a7.17 7.17 0 0 1 5.296 1.747 7.483 7.483 0 0 1 2.535 5.062c.317 4.086-2.665 7.663-6.664 7.992zM287.16 275.25l11.157-.898.94 11.692-3.834.309a7.347 7.347 0 0 1-7.911-6.736l-.351-4.367z"/>
        <path fill="#32454C" fill-rule="nonzero" d="M308.235 252.003l3.33-.266a8.844 8.844 0 0 1 9.527 8.186l.213 2.66a7.997 7.997 0 0 1-7.331 8.608l-4.178.334-1.561-19.522z"/>
        <path fill="#FF95A9" fill-rule="nonzero" d="M314.788 290.366L294.848 292l-1.808-22.543a12.484 12.484 0 0 1 2.925-9.081 12.388 12.388 0 0 1 8.47-4.335c6.6-.535 12.456 4.226 13.308 10.818l2.213 17.158a5.678 5.678 0 0 1-1.229 4.286 5.634 5.634 0 0 1-3.939 2.063z"/>
        <path d="M319 278l-1-11 1 11z"/>
        <path fill="#32454C" fill-rule="nonzero" d="M297.208 254.992l1.216-.098 1.693 21.039-12.824 1.032-.759-9.428c-.516-6.412 4.263-12.029 10.674-12.545z"/>
        <path fill="#FF95A9" fill-rule="nonzero" d="M293.64 278.989l3.36-.286-.268-3.485a3.538 3.538 0 0 0-1.173-2.383 3.291 3.291 0 0 0-2.455-.824c-1.858.157-3.242 1.844-3.093 3.771.07.924.492 1.782 1.173 2.383.68.602 1.564.898 2.455.824z"/>
        <path fill="#32454C" fill-rule="nonzero" d="M319 263.937l-12.757 1.033c-5.203.412-9.756-3.48-10.178-8.7a4.516 4.516 0 0 1 1.766-4.394 4.48 4.48 0 0 1 4.707-.382 4.51 4.51 0 0 1 2.448 4.053.473.473 0 0 0 .51.43l12.75-1.025.754 8.985z"/>
        <path fill="#32454C" fill-rule="nonzero" d="M313.56 259.516l-6.202.484c-2.276-.019-4.16-1.717-4.344-3.914-.183-2.198 1.395-4.168 3.638-4.54l6.21-.485c1.641-.272 3.3.377 4.285 1.677a4.148 4.148 0 0 1 .369 4.463c-.76 1.435-2.29 2.331-3.955 2.315zM319.962 289.2a4.557 4.557 0 0 1-.928 3.393 4.372 4.372 0 0 1-3.04 1.664l-8.731.714a8.669 8.669 0 0 1-6.404-2.11 9.035 9.035 0 0 1-3.065-6.116l-.794-10.47 3.286-.275a3.754 3.754 0 0 0 1.282 2.561 3.602 3.602 0 0 0 2.687.867l14.398-1.183 1.31 10.956z"/>
        <path fill="#FF95A9" fill-rule="nonzero" d="M312.798 339.594a5 5 0 1 0-9.595 2.814 5 5 0 0 0 9.595-2.814zM302.858 341.516a3.499 3.499 0 0 1-5.037 4.055 3.499 3.499 0 0 1 .695-6.428 3.493 3.493 0 0 1 4.342 2.373z"/>
        <path fill="#FF95A9" fill-rule="nonzero" d="M308 345.992l-8.928.008-1.072-7.498 8.568-2.502z"/>
        <path fill="#A8222B" fill-rule="nonzero" d="M252.603 329L300 338.515l-.7 7.477h-6.163L251 346z"/>
        <path fill="#FF95A9" fill-rule="nonzero" d="M299.335 346l.665-7.366-3-.634v8z"/>
        <path fill="#A8222B" fill-rule="nonzero" d="M270 330h7v7h-7z"/>
        <path fill="#32454C" fill-rule="nonzero" d="M675.986 369L648 372.262l.82 13.738H677z"/>
        <path fill="#FF95A9" fill-rule="nonzero" d="M674.167 342.016a3 3 0 1 0 5.667 1.967 3 3 0 0 0-5.667-1.967z"/>
        <path fill="#FF95A9" fill-rule="nonzero" d="M667.969 345.756c.46.163.943.246 1.43.244h7.559l1.042-6.23-7.145-2.522c-2.302-.81-4.814.43-5.611 2.77-.797 2.34.423 4.894 2.725 5.705v.033z"/>
        <path fill="#FF95A9" fill-rule="nonzero" d="M719 345.975l-42.602.025-.398-6.343L718.244 334z"/>
        <path fill="#A8222B" fill-rule="nonzero" d="M484 370l26.913 93H514l-22.002-93zM456 370l-26.906 93H426l22.004-93z"/>
        <path fill="#A8222B" fill-rule="nonzero" d="M457.016 369.556a22.523 22.523 0 0 0 1.62 8.444h41.727a22.596 22.596 0 0 0-5.05-24.488 22.459 22.459 0 0 0-24.486-4.769C462.453 352.25 457 360.458 457 369.556h.016z"/>
        <circle cx="480" cy="369" r="6" fill="#32454C" fill-rule="nonzero"/>
        <ellipse cx="432.026" cy="337.307" fill="#FF95A9" fill-rule="nonzero" rx="8.399" ry="8.397" transform="rotate(-80.19 432.026 337.307)"/>
        <path fill="#FF95A9" fill-rule="nonzero" d="M470 320.854L436.808 344 426 331.14 454.156 302z"/>
        <ellipse cx="462.988" cy="311.126" fill="#32454C" fill-rule="nonzero" rx="12.319" ry="12.316" transform="rotate(-77.85 462.988 311.126)"/>
        <path fill="#FF95A9" fill-rule="nonzero" d="M466.093 345.958a5 5 0 1 1 5.87 3.949 5.007 5.007 0 0 1-5.87-3.949z"/>
        <path fill="#FF95A9" fill-rule="nonzero" d="M475.066 343.177a3.5 3.5 0 1 0 6.867-1.355 3.5 3.5 0 0 0-6.867 1.355z"/>
        <path fill="#FF95A9" fill-rule="nonzero" d="M473.257 349l7.743-4.002-2.439-6.998-8.561 1.678z"/>
        <ellipse cx="527.215" cy="337.349" fill="#FF95A9" fill-rule="nonzero" rx="8.397" ry="8.399" transform="rotate(-4.31 527.215 337.349)"/>
        <path fill="#FF95A9" fill-rule="nonzero" d="M489 320.827L522.174 344 533 331.164 504.871 302z"/>
        <path fill="#32454C" fill-rule="nonzero" d="M489 320.797L516.39 340 528 326.169 504.782 302zM470 320.817L442.599 340 431 326.15 454.246 302z"/>
        <ellipse cx="496.311" cy="311.114" fill="#32454C" fill-rule="nonzero" rx="12.32" ry="12.316" transform="rotate(-87.1 496.311 311.114)"/>
        <circle cx="493.5" cy="377.5" r="8.5" fill="#A8222B" fill-rule="nonzero"/>
        <circle cx="466.5" cy="377.5" r="8.5" fill="#A8222B" fill-rule="nonzero"/>
        <path fill="#32454C" fill-rule="nonzero" d="M454.01 307.991L457.02 369h44.96l3.01-61.009a8.53 8.53 0 0 0-2.368-6.33 8.655 8.655 0 0 0-6.25-2.661h-33.744a8.663 8.663 0 0 0-6.248 2.663 8.539 8.539 0 0 0-2.37 6.328z"/>
        <path fill="#A8222B" fill-rule="nonzero" d="M457 369l.414 8.5v.417c.22 4.528 3.927 8.084 8.424 8.083h27.332c4.496 0 8.2-3.557 8.416-8.083v-.417L502 369h-45z"/>
        <circle cx="469.5" cy="357.5" r="45.5" fill="#FF809F" fill-rule="nonzero"/>
        <path fill="#FFF" fill-rule="nonzero" d="M510.544 379l-1.076-.582c8.51-15.99 6.634-35.559-4.759-49.618-11.392-14.06-30.068-19.856-47.356-14.698l-.353-1.18c17.765-5.32 36.968.628 48.679 15.08 11.71 14.452 13.63 34.57 4.865 50.998z"/>
        <path fill="#32454C" fill-rule="nonzero" d="M476.91 328h-14.82a3.128 3.128 0 0 1-2.188-.876A2.949 2.949 0 0 1 459 325c0-1.657 1.383-3 3.09-3h14.82c1.705.004 3.086 1.345 3.09 3 0 1.657-1.383 3-3.09 3z"/>
        <path fill="#FFF" fill-rule="nonzero" d="M702.578 317.614l1.126-.492 6.12 14.025-1.126.491zM265.612 332.215l.236-1.206 31.311 6.134-.236 1.205z"/>
        <path fill="#FF5C62" fill-rule="nonzero" d="M284.383 377l.355-1.176 21.647 6.534-.354 1.176zM131.104 261.756c-1.806 8.406-4.838 16.503-7.257 24.755-2.492 8.495-5 17.127-4.967 25.986a46.492 46.492 0 0 0 12.458 31.323c3.088 3.28 6.684 6.146 9.063 9.976 2.378 3.83 3.225 9.086.596 12.73-3.83 5.256-12.014 4.114-17.61 7.394-7.047 4.13-8.063 14.665-4.031 21.8 4.031 7.133 22.319 27.532 48.427 22.487 11.683-2.267 27.52-13.434 27.068-25.379-.468-12.43-12.296-22.504-11.893-34.942.266-8.147 5.716-15.038 10.482-21.67 4.765-6.632 9.135-14.665 7.007-22.56-3.226-11.565-18.03-15.136-25.214-24.732-4.62-6.178-5.644-14.3-5.926-22.026-.282-7.725-.089-15.637-2.653-22.925-6.265-17.67-28.35-15.548-35.55 17.783z"/>
        <path fill="#32454C" fill-rule="nonzero" d="M158 306h1v134h-1z"/>
        <path fill="#32454C" fill-rule="nonzero" d="M159.218 345l-1.218-.2c1.998-12.04 15.83-19.487 16.415-19.8l.585 1.075c-.138.073-13.881 7.512-15.782 18.925zM157.827 398c-1.305-8.381-10.733-13.833-10.827-13.883l.563-1.117c.406.24 10.038 5.792 11.437 14.793l-1.173.207zM136.008 436H180v8.006c0 11.042-8.887 19.994-19.85 19.994h-4.3c-10.963 0-19.85-8.952-19.85-19.994V436h.008z"/>
        <path fill="#32454C" fill-rule="nonzero" d="M144.43 463c-5.19-2.77-8.44-8.258-8.43-14.238V444h1.22v4.762c.003 5.509 3 10.56 7.78 13.115l-.57 1.123z"/>
        <path fill="#FFF" fill-rule="nonzero" d="M136 440h44v1h-44z"/>
        <path fill="#32454C" fill-rule="nonzero" d="M63 464h766v1H63zM460 473h258v1H460zM655 482h112v1H655zM416 482h205v1H416zM755 473h23v1h-23zM359 473h80v1h-80z"/>
        <path fill="#FFF" fill-rule="nonzero" d="M672.167 332c-4.509-.004-8.163-3.787-8.167-8.454a8.525 8.525 0 0 1 .356-2.466l.185-.633 3.457-9.447 1.099.424-3.225 8.807-.201.64c-.973 2.5-.518 5.352 1.18 7.394 1.697 2.042 4.354 2.933 6.886 2.31l.263 1.193a8.188 8.188 0 0 1-1.833.232z"/>
        <path fill="#32454C" fill-rule="nonzero" d="M152 435h28v1h-28z"/>
        <path fill="#FF5C62" fill-rule="nonzero" d="M579.56 168.626c-2.58-5.95-3.403-10.515-1.572-14.275 5.419-11.14 33.063-12.931 50.748-2.083 24.677 15.121 31.2 55.527 19.903 64.496-13.129 10.441-55.773-17.384-69.079-48.138z" opacity=".054"/>
        <path fill="#FFF" fill-rule="nonzero" d="M316.986 281c.171 2.022-1.254 3.806-3.183 3.985-1.93.18-3.632-1.314-3.803-3.336l6.986-.649zM681 282c0 1.657-1.567 3-3.5 3s-3.5-1.343-3.5-3h7zM332.55 325.259l1.01-21.754 1.227.057-1.01 21.754zM520 310h17v1h-17zM525 314h19v1h-19zM530 317h17v1h-17zM533 321h5v1h-5zM540 321h7v1h-7zM541 310h6v1h-6z"/>
    </g>
</svg>
