<svg xmlns="http://www.w3.org/2000/svg" width="28" height="28" viewBox="0 0 28 28">
    <g fill="none" fill-rule="evenodd">
        <path fill="#FF5C62" d="M14 .5C6.545.5.5 6.545.5 14S6.545 27.5 14 27.5a2.247 2.247 0 0 0 2.25-2.25c0-.585-.225-1.11-.585-1.515a2.253 2.253 0 0 1-.57-1.485 2.247 2.247 0 0 1 2.25-2.25H20c4.14 0 7.5-3.36 7.5-7.5 0-6.63-6.045-12-13.5-12zM5.75 14a2.247 2.247 0 0 1-2.25-2.25A2.247 2.247 0 0 1 5.75 9.5 2.247 2.247 0 0 1 8 11.75 2.247 2.247 0 0 1 5.75 14zm4.5-6A2.247 2.247 0 0 1 8 5.75a2.247 2.247 0 0 1 2.25-2.25 2.247 2.247 0 0 1 2.25 2.25A2.247 2.247 0 0 1 10.25 8zm7.5 0a2.247 2.247 0 0 1-2.25-2.25 2.247 2.247 0 0 1 2.25-2.25A2.247 2.247 0 0 1 20 5.75 2.247 2.247 0 0 1 17.75 8zm4.5 6A2.247 2.247 0 0 1 20 11.75a2.247 2.247 0 0 1 2.25-2.25 2.247 2.247 0 0 1 2.25 2.25A2.247 2.247 0 0 1 22.25 14z"/>
        <path d="M-4-4h36v36H-4z"/>
    </g>
</svg>
