<?xml version="1.0" encoding="utf-8"?>
<!-- Generator: Adobe Illustrator 23.1.1, SVG Export Plug-In . SVG Version: 6.00 Build 0)  -->
<svg version="1.1" id="Layer_1" xmlns="http://www.w3.org/2000/svg" xmlns:xlink="http://www.w3.org/1999/xlink" x="0px" y="0px"
	 viewBox="0 0 165 32" style="enable-background:new 0 0 165 32;" xml:space="preserve">
<style type="text/css">
	.st0{fill:#FFFFFF;}
	.st1{fill:#D10303;}
</style>
<g id="Group" transform="translate(45.000000, 2.000000)">
	<g id="Group-5">
		<path class="st0" d="M4.5,13c0.4,0.3,0.8,0.5,1.4,0.5s1-0.2,1.4-0.5s0.7-0.7,0.9-1.3c0.2-0.5,0.3-1.1,0.4-1.7
			C8.6,9.4,8.6,8.7,8.6,8c0-3.6-0.9-5.4-2.8-5.4C4,2.5,3.1,4.3,3,7.9c0,0.8,0,1.4,0.1,2.1c0.1,0.6,0.2,1.2,0.4,1.8
			C3.8,12.3,4.1,12.7,4.5,13z M8,15.2c-0.6,0.3-1.3,0.4-2.1,0.4s-1.5-0.1-2.1-0.4s-1.2-0.6-1.6-1.1c-0.4-0.5-0.8-1-1-1.7
			c-0.3-0.6-0.5-1.3-0.6-2C0.4,9.6,0.3,8.9,0.3,8c0-0.8,0.1-1.6,0.2-2.3s0.3-1.4,0.6-2.1s0.6-1.2,1-1.7s0.9-0.8,1.6-1.1
			s1.3-0.4,2.1-0.4S7.3,0.6,8,0.9C8.6,1.1,9.1,1.5,9.5,2s0.8,1,1,1.7C10.8,4.3,11,5,11.1,5.7c0.1,0.7,0.2,1.5,0.2,2.3
			c0,0.8-0.1,1.6-0.2,2.3c-0.1,0.7-0.3,1.4-0.6,2.1c-0.3,0.7-0.6,1.2-1,1.7C9.1,14.5,8.6,14.9,8,15.2z M16.1,13
			c0.4,0.3,0.8,0.5,1.4,0.5s1-0.2,1.4-0.5s0.7-0.7,0.9-1.3c0.2-0.5,0.3-1.1,0.4-1.7c0.1-0.6,0.1-1.3,0.1-2.1c0-3.6-0.9-5.4-2.8-5.4
			c-1.8,0-2.8,1.8-2.8,5.4c0,0.8,0,1.4,0.1,2.1c0.1,0.6,0.2,1.2,0.4,1.8C15.5,12.3,15.8,12.7,16.1,13z M19.6,15.2
			c-0.6,0.3-1.3,0.4-2.1,0.4s-1.5-0.1-2.1-0.4s-1.2-0.6-1.6-1.1c-0.4-0.5-0.8-1-1-1.7c-0.3-0.6-0.5-1.3-0.6-2C12.1,9.6,12,8.9,12,8
			c0-0.8,0.1-1.6,0.2-2.3c0.1-0.7,0.3-1.4,0.6-2.1s0.6-1.2,1-1.7s0.9-0.8,1.6-1.1c0.6-0.3,1.3-0.4,2.1-0.4s1.5,0.1,2.1,0.4
			s1.1,0.6,1.6,1.1c0.4,0.5,0.8,1,1,1.7s0.5,1.3,0.6,2.1C22.9,6.4,23,7.2,23,8c0,0.8-0.1,1.6-0.2,2.3c-0.1,0.7-0.3,1.4-0.6,2.1
			c-0.3,0.7-0.6,1.2-1,1.7C20.8,14.5,20.3,14.9,19.6,15.2z M27.8,13c0.4,0.3,0.8,0.5,1.4,0.5s1-0.2,1.4-0.5c0.4-0.3,0.7-0.7,0.9-1.3
			c0.2-0.5,0.3-1.1,0.4-1.7c0.1-0.6,0.1-1.3,0.1-2.1c0-3.6-0.9-5.4-2.8-5.4c-1.8,0-2.8,1.8-2.8,5.4c0,0.8,0,1.4,0.1,2.1
			c0.1,0.6,0.2,1.2,0.4,1.8S27.4,12.7,27.8,13z M31.3,15.2c-0.6,0.3-1.3,0.4-2.1,0.4s-1.5-0.1-2.1-0.4c-0.6-0.3-1.2-0.6-1.6-1.1
			c-0.4-0.5-0.8-1-1-1.7c-0.3-0.6-0.5-1.3-0.6-2c-0.1-0.7-0.2-1.5-0.2-2.3c0-0.8,0.1-1.6,0.2-2.3s0.3-1.4,0.6-2.1s0.6-1.2,1-1.7
			s0.9-0.8,1.6-1.1s1.3-0.4,2.1-0.4s1.5,0.1,2.1,0.4c0.6,0.3,1.1,0.6,1.6,1.1c0.4,0.5,0.8,1,1,1.7c0.3,0.7,0.5,1.3,0.6,2.1
			c0.1,0.7,0.2,1.5,0.2,2.3c0,0.8-0.1,1.6-0.2,2.3c-0.1,0.7-0.3,1.4-0.6,2.1c-0.3,0.7-0.6,1.2-1,1.7C32.4,14.5,31.9,14.9,31.3,15.2z
			 M39.1,15.4l-3.3-11h2.7l2.1,8.1c0-0.2,0.4-1.5,1.1-3.9c0.7-2.5,1.1-3.8,1.2-4.1h2.7C45.6,4.7,46,6,46.7,8.5s1,3.8,1.1,3.9l2.2-8
			h2.6l-3.4,11h-2.6c-0.1-0.3-0.5-1.7-1.2-4.3c-0.7-2.6-1.1-4-1.2-4.2c-0.1,0.5-0.6,2-1.3,4.4s-1.1,3.8-1.2,4.2H39.1z M59.1,15.6
			c-1.8,0-3.1-0.5-4.1-1.5s-1.5-2.4-1.5-4.2c0-1.7,0.5-3.1,1.4-4.2c0.9-1,2.2-1.6,3.8-1.6c1.5,0,2.7,0.5,3.5,1.4
			c0.8,0.9,1.3,2.2,1.3,3.8c0,0.1,0,0.3,0,0.6c0,0.3,0,0.4,0,0.6h-7.3c0,1,0.3,1.8,0.8,2.4s1.3,0.8,2.2,0.8c1.2,0,2.3-0.3,3.5-0.9
			l0.4,1.9C61.9,15.2,60.6,15.6,59.1,15.6z M56.2,8.8H61c0-0.9-0.2-1.6-0.6-2.1C60,6.2,59.4,6,58.7,6C58,6,57.5,6.2,57,6.7
			S56.3,7.8,56.2,8.8z M71.5,15.6c-0.7,0-1.4-0.2-2-0.5c-0.6-0.3-1-0.7-1.3-1.1l-0.3,1.4h-2.3v-15l2.6-0.2v3.4c0,0.7,0,1.4-0.1,2.3
			c0.9-1.1,2-1.7,3.4-1.7c1.4,0,2.5,0.5,3.3,1.6S76,8.1,76,9.7c0,1.7-0.4,3.2-1.2,4.2S72.9,15.6,71.5,15.6z M70.8,13.6
			c0.8,0,1.4-0.3,1.9-1c0.5-0.7,0.7-1.6,0.7-2.8c0-1.2-0.2-2.1-0.7-2.8s-1.1-0.9-1.9-0.9c-1.8,0-2.7,1.2-2.7,3.6
			c0,1.3,0.2,2.3,0.7,3C69.3,13.3,70,13.6,70.8,13.6z M78.2,15.4v-15l2.6-0.2v3.2c0,0.2,0,0.6,0,1.3c0,0.7,0,1.1,0,1.1
			c0.9-1,2-1.6,3.5-1.6c1.2,0,2.2,0.4,2.8,1.1s1,1.8,1,3.2v7h-2.6V8.7c0-0.9-0.1-1.6-0.4-2s-0.8-0.6-1.5-0.6c-0.6,0-1.1,0.1-1.6,0.4
			s-0.8,0.7-1,1.1c-0.2,0.6-0.2,1.4-0.2,2.4v5.3H78.2z M95.4,13.6c0.9,0,1.6-0.3,2-1c0.4-0.6,0.7-1.6,0.7-2.8c0-1.2-0.2-2.1-0.7-2.8
			c-0.4-0.6-1.1-1-2-1c-0.9,0-1.6,0.3-2,1c-0.4,0.6-0.7,1.6-0.7,2.8c0,1.2,0.2,2.1,0.7,2.8C93.9,13.3,94.5,13.6,95.4,13.6z
			 M95.4,15.6c-1.6,0-2.9-0.5-3.8-1.6c-0.9-1.1-1.4-2.4-1.4-4.2c0-1.8,0.5-3.2,1.4-4.2c0.9-1,2.2-1.5,3.9-1.5c1.6,0,2.9,0.5,3.8,1.6
			s1.4,2.4,1.4,4.2c0,1.8-0.5,3.1-1.4,4.2C98.4,15.1,97.1,15.6,95.4,15.6z M106.4,15.6c-1.6,0-2.9-0.3-3.9-0.8l0.3-2
			c0.4,0.2,1,0.5,1.7,0.6c0.7,0.2,1.3,0.3,1.9,0.3c0.6,0,1-0.1,1.4-0.3c0.3-0.2,0.5-0.5,0.5-1c0-0.4-0.2-0.7-0.5-0.9
			c-0.3-0.2-0.9-0.5-1.7-0.8c-0.3-0.1-0.5-0.2-0.6-0.2c-1-0.4-1.7-0.8-2.2-1.3c-0.4-0.5-0.7-1.1-0.7-2c0-1,0.4-1.8,1.1-2.3
			s1.7-0.8,3-0.8c1.4,0,2.6,0.3,3.7,0.8l-0.6,1.8c-1-0.5-2-0.7-3-0.7c-0.5,0-0.9,0.1-1.2,0.3C105.1,6.4,105,6.7,105,7
			c0,0.3,0.1,0.6,0.4,0.8c0.3,0.2,0.8,0.4,1.7,0.7c0,0,0.1,0,0.3,0.1c0.1,0.1,0.3,0.1,0.3,0.1c1,0.4,1.7,0.8,2.2,1.3
			c0.5,0.5,0.7,1.2,0.7,2c0,1.1-0.4,1.9-1.1,2.6S107.7,15.6,106.4,15.6z M117.1,15.5c-0.7,0-1.4-0.1-1.9-0.3
			c-0.5-0.2-0.9-0.5-1.2-0.8s-0.5-0.8-0.6-1.3c-0.1-0.5-0.2-1.2-0.2-1.9V6h-1.8l0.1-1.4l1.9-0.2l0.8-3l1.6,0v3h2.7V6h-2.7v5.2
			c0,0.8,0.1,1.4,0.4,1.8c0.2,0.4,0.7,0.5,1.3,0.5c0.4,0,0.8,0,1.2-0.1l0.1,1.9c0,0-0.1,0-0.2,0c-0.1,0-0.3,0.1-0.4,0.1
			s-0.3,0-0.5,0.1C117.5,15.5,117.3,15.5,117.1,15.5z"/>
	</g>
	<path id="poweredbyHOSTINGER" class="st0" d="M1.9,28.2v-8.1h0.8l0.1,0.8c0.5-0.6,1.1-0.9,1.8-0.9c0.5,0,0.9,0.1,1.3,0.4
		c0.4,0.3,0.6,0.6,0.8,1c0.2,0.4,0.3,0.9,0.3,1.5c0,0.6-0.1,1.1-0.3,1.5c-0.2,0.4-0.5,0.8-0.8,1c-0.4,0.3-0.8,0.4-1.3,0.4
		c-0.4,0-0.7-0.1-1-0.2C3.2,25.5,3,25.3,2.8,25c0,0.4,0,0.7,0,1.1v2.1L1.9,28.2z M4.4,25.2c0.3,0,0.5-0.1,0.7-0.2
		c0.2-0.1,0.4-0.3,0.5-0.5c0.1-0.2,0.2-0.4,0.3-0.7C6,23.6,6,23.3,6,23c0-0.6-0.1-1.2-0.4-1.6c-0.3-0.4-0.7-0.6-1.2-0.6
		c-1.1,0-1.6,0.7-1.6,2.1c0,0.8,0.1,1.3,0.4,1.7S3.8,25.2,4.4,25.2z M8.7,23c0,0.7,0.1,1.2,0.4,1.6c0.3,0.4,0.7,0.6,1.3,0.6
		c0.6,0,1-0.2,1.3-0.6c0.3-0.4,0.4-0.9,0.4-1.6c0-0.7-0.1-1.2-0.4-1.6c-0.3-0.4-0.7-0.6-1.3-0.6c-0.6,0-1,0.2-1.3,0.6
		C8.9,21.8,8.7,22.3,8.7,23z M13,23c0,0.9-0.2,1.6-0.7,2.1c-0.5,0.5-1.1,0.8-1.9,0.8c-0.8,0-1.4-0.3-1.9-0.8
		c-0.5-0.5-0.7-1.2-0.7-2.1c0-0.9,0.2-1.6,0.7-2.1c0.5-0.5,1.1-0.8,1.9-0.8c0.8,0,1.4,0.3,1.9,0.8C12.8,21.4,13,22.1,13,23z
		 M19.1,25.8c-0.8-2.5-1.3-4.1-1.5-4.7c-0.1,0.4-0.2,0.8-0.4,1.2c-0.1,0.4-0.3,0.8-0.4,1.1c-0.1,0.3-0.2,0.7-0.4,1.2
		c-0.2,0.5-0.3,0.9-0.4,1.1h-0.9l-1.6-5.6h0.9l1.2,4.6c0.2-0.5,0.7-2.1,1.5-4.6h1c0.8,2.6,1.3,4.1,1.4,4.6l1.2-4.6h0.9L20,25.8H19.1
		z M25.6,21.2c-0.2-0.3-0.6-0.5-1-0.5c-0.4,0-0.8,0.2-1.1,0.5c-0.3,0.3-0.4,0.7-0.5,1.3h3C26,21.9,25.9,21.5,25.6,21.2z M24.8,25.9
		c-0.8,0-1.5-0.3-1.9-0.8c-0.5-0.5-0.7-1.2-0.7-2.1c0-0.9,0.2-1.6,0.7-2.1c0.5-0.5,1.1-0.8,1.8-0.8c0.7,0,1.3,0.2,1.7,0.7
		c0.4,0.5,0.6,1.1,0.6,1.9c0,0,0,0.1,0,0.2c0,0.1,0,0.2,0,0.2H23c0,0.6,0.2,1.1,0.5,1.5c0.3,0.4,0.7,0.5,1.3,0.5
		c0.6,0,1.2-0.2,1.8-0.5l0.1,0.7C26.2,25.7,25.5,25.9,24.8,25.9z M30.6,20.1c0.2,0,0.3,0,0.4,0l0,0.8c-0.2,0-0.3,0-0.4,0
		c-0.5,0-0.9,0.2-1.2,0.5c-0.3,0.3-0.4,0.7-0.4,1.2v3.2h-0.9c0-3.5,0-5.3,0-5.6h0.7l0.1,1c0.2-0.3,0.4-0.6,0.7-0.8
		C29.9,20.2,30.3,20.1,30.6,20.1z M35,21.2c-0.2-0.3-0.6-0.5-1-0.5c-0.4,0-0.8,0.2-1.1,0.5c-0.3,0.3-0.4,0.7-0.5,1.3h3
		C35.4,21.9,35.3,21.5,35,21.2z M34.2,25.9c-0.8,0-1.5-0.3-1.9-0.8c-0.5-0.5-0.7-1.2-0.7-2.1c0-0.9,0.2-1.6,0.7-2.1
		c0.5-0.5,1.1-0.8,1.8-0.8c0.7,0,1.3,0.2,1.7,0.7c0.4,0.5,0.6,1.1,0.6,1.9c0,0,0,0.1,0,0.2c0,0.1,0,0.2,0,0.2h-3.9
		c0,0.6,0.2,1.1,0.5,1.5c0.3,0.4,0.7,0.5,1.3,0.5c0.6,0,1.2-0.2,1.8-0.5l0.1,0.7C35.6,25.7,34.9,25.9,34.2,25.9z M39.7,25.2
		c0.6,0,1-0.2,1.3-0.5c0.3-0.4,0.4-0.9,0.4-1.6c0-0.8-0.1-1.3-0.4-1.7c-0.3-0.4-0.7-0.6-1.3-0.6c-0.3,0-0.5,0.1-0.7,0.2
		c-0.2,0.1-0.4,0.3-0.5,0.5c-0.1,0.2-0.2,0.4-0.3,0.7c-0.1,0.3-0.1,0.5-0.1,0.9c0,0.4,0.1,0.8,0.2,1.1c0.1,0.3,0.3,0.6,0.5,0.8
		C39,25.1,39.3,25.2,39.7,25.2z M41.4,25c-0.2,0.3-0.4,0.5-0.7,0.7c-0.3,0.2-0.7,0.3-1,0.3c-0.7,0-1.3-0.3-1.7-0.8
		c-0.4-0.5-0.6-1.2-0.6-2.2c0-0.9,0.2-1.6,0.6-2.1c0.4-0.5,1-0.8,1.7-0.8c0.4,0,0.7,0.1,1.1,0.2c0.3,0.2,0.6,0.4,0.7,0.7l0-0.5V18
		l0.8-0.1v7.9h-0.7L41.4,25z M48.9,20.8c-0.5,0-1,0.2-1.2,0.6c-0.3,0.4-0.4,0.9-0.4,1.6c0,1.5,0.6,2.2,1.7,2.2
		c0.3,0,0.5-0.1,0.7-0.2c0.2-0.1,0.4-0.3,0.5-0.5c0.1-0.2,0.2-0.4,0.3-0.7c0.1-0.3,0.1-0.5,0.1-0.9c0-0.4-0.1-0.8-0.2-1.1
		c-0.1-0.3-0.3-0.6-0.5-0.8C49.5,20.9,49.2,20.8,48.9,20.8z M49,20.1c0.5,0,0.9,0.1,1.3,0.4c0.4,0.3,0.6,0.6,0.8,1
		c0.2,0.4,0.3,0.9,0.3,1.5c0,0.6-0.1,1.1-0.3,1.5c-0.2,0.4-0.5,0.8-0.8,1c-0.4,0.3-0.8,0.4-1.3,0.4c-0.4,0-0.7-0.1-1-0.2
		c-0.3-0.2-0.6-0.4-0.8-0.7l-0.1,0.8h-0.7V18l0.9-0.1v1.9c0,0.5,0,0.9,0,1.2c0.2-0.3,0.5-0.5,0.8-0.7C48.3,20.1,48.6,20.1,49,20.1z
		 M51.8,20.2h0.9l1.8,4.7l1.6-4.7h0.9c-1.5,4.2-2.3,6.3-2.4,6.5c-0.2,0.6-0.5,1-0.9,1.3c-0.3,0.3-0.8,0.4-1.3,0.4
		c-0.2,0-0.3,0-0.5,0l-0.1-0.7c0.2,0,0.3,0,0.4,0c0.4,0,0.7-0.1,0.9-0.2c0.2-0.1,0.4-0.4,0.5-0.8c0.1-0.4,0.2-0.6,0.3-0.8L51.8,20.2
		z M60.6,25.8v-7.5H62v3.1h3.4v-3.1h1.4v7.5h-1.4v-3.3H62v3.3H60.6z M70.1,24.1c0.4,0.5,0.9,0.7,1.7,0.7c0.7,0,1.3-0.2,1.6-0.7
		c0.4-0.5,0.6-1.1,0.6-2c0-0.9-0.2-1.6-0.6-2c-0.4-0.5-0.9-0.7-1.6-0.7c-0.7,0-1.3,0.2-1.7,0.7c-0.4,0.5-0.6,1.2-0.6,2
		C69.5,22.9,69.7,23.6,70.1,24.1z M71.7,25.9c-1.1,0-2-0.3-2.7-1c-0.7-0.7-1-1.6-1-2.8c0-1.2,0.3-2.2,1-2.8c0.7-0.7,1.6-1,2.7-1
		c1.1,0,2,0.3,2.7,1c0.7,0.7,1,1.6,1,2.8c0,1.2-0.3,2.1-1,2.8C73.7,25.6,72.9,25.9,71.7,25.9z M78.8,25.9c-0.9,0-1.7-0.2-2.4-0.6
		l0.3-1.1c0.3,0.2,0.7,0.3,1,0.4c0.4,0.1,0.7,0.2,1.1,0.2c0.4,0,0.8-0.1,1-0.3c0.2-0.2,0.3-0.5,0.3-0.8c0-0.5-0.3-0.8-0.9-1
		c0,0-0.2-0.1-0.4-0.1c-0.2-0.1-0.4-0.1-0.6-0.2c-0.2-0.1-0.3-0.1-0.4-0.1c-1-0.4-1.5-1-1.5-2c0-0.7,0.2-1.2,0.7-1.6
		c0.5-0.4,1.1-0.6,1.9-0.6c0.9,0,1.7,0.2,2.3,0.6l-0.4,1c-0.7-0.3-1.3-0.5-1.9-0.5c-0.4,0-0.7,0.1-0.9,0.2c-0.2,0.1-0.3,0.4-0.3,0.7
		c0,0.4,0.2,0.7,0.6,0.8c0.1,0,0.3,0.1,0.6,0.2c0.3,0.1,0.5,0.2,0.6,0.2c0.7,0.2,1.2,0.5,1.5,0.8c0.3,0.3,0.4,0.8,0.4,1.4
		c0,0.7-0.3,1.3-0.8,1.6C80.4,25.7,79.7,25.9,78.8,25.9z M84.3,25.8v-6.4h-2.2v-1.1h5.8v1.1h-2.2v6.4H84.3z M88.7,25.8v-7.5h1.4v7.5
		H88.7z M91.8,25.8v-7.5h1.5c0.3,0.4,0.8,1.3,1.6,2.5c0.8,1.3,1.3,2,1.5,2.3c0.1,0.1,0.1,0.2,0.3,0.4c0.1,0.2,0.2,0.3,0.3,0.4
		c0-1.2,0-1.8,0-1.8v-3.8h1.3v7.5h-1.5l-3.4-5.3L93,20.1c0,0.9,0,1.5,0,1.9v3.8H91.8z M103.1,25.9c-1.1,0-2-0.3-2.7-1
		c-0.6-0.7-1-1.6-1-2.8c0-0.8,0.2-1.4,0.5-2c0.3-0.6,0.7-1,1.3-1.4c0.6-0.3,1.3-0.5,2.1-0.5c0.9,0,1.7,0.2,2.3,0.6l-0.5,1
		c-0.6-0.3-1.2-0.5-1.9-0.5c-0.8,0-1.4,0.2-1.8,0.7c-0.4,0.5-0.7,1.2-0.7,2c0,0.8,0.2,1.5,0.6,2c0.4,0.5,1,0.7,1.7,0.7
		c0.5,0,0.9-0.1,1.3-0.2v-1.7h-1.6l0-1.1h2.9v3.6c-0.5,0.2-0.9,0.3-1.3,0.4C104,25.9,103.6,25.9,103.1,25.9z M107.3,25.8v-7.5h4.6
		l-0.1,1.1h-3.1v1.9h3v1.1h-3v2.3h3.2l0,1.1H107.3z M113.1,25.8v-7.5h2.8c0.4,0,0.7,0,1,0.1c0.3,0,0.5,0.1,0.8,0.2
		c0.3,0.1,0.5,0.2,0.6,0.4c0.2,0.2,0.3,0.4,0.4,0.6c0.1,0.2,0.1,0.5,0.1,0.9c0,1-0.5,1.7-1.4,2c0.2,0.2,0.4,0.6,0.7,1.2l1.1,2.3
		h-1.5l-0.9-2c-0.3-0.7-0.5-1.1-0.6-1.3c-0.1,0-0.3,0-0.6,0l-1.2,0v3.2H113.1z M116.1,21.6c0.5,0,0.9-0.1,1.1-0.3
		c0.2-0.2,0.3-0.5,0.3-0.9c0-0.4-0.1-0.6-0.4-0.8c-0.2-0.2-0.6-0.3-1.1-0.3h-1.6v2.3c0.1,0,0.3,0,0.8,0
		C115.7,21.6,116,21.6,116.1,21.6z"/>
</g>
<path id="Shape" class="st1" d="M12.6,12.2C11,27.3,24.5,29.7,28.3,25.3C21.6,42.2,5.7,23.1,12.6,12.2z M10.3,10.2
	C4.5,11.1-4.2,29.4,6.1,27.4C-0.3,25.1,6.1,12.1,10.3,10.2L10.3,10.2z M10.3,7.9C8.2,6.9,0.6,9.7,0,15.4C1.4,12.4,5.2,8.3,10.3,7.9z
	 M12.9,6.1C9.6,3.7,5.7,6.4,4.5,7C7.8,3.5,12.7,4.1,12.9,6.1L12.9,6.1z M16,5.1c2.3-2-1.1-5.7-4.4-2.7C12.8,1.9,16.7,1.3,16,5.1z
	 M19.7,5.8c3.8-3.9,0.6-5.5-0.4-5.5C24.7-1.3,22.3,5,19.7,5.8z M20,8.1c4.4,1.6,17.4-5.4,7-6.8C29.3,1.8,29.9,6.5,20,8.1L20,8.1z
	 M16.7,11.9c2.9,8,29.1,7.3,17.8-3.6C37,12,30.9,18.7,16.7,11.9L16.7,11.9z"/>
</svg>
