
<svg width="165px" height="32px" viewBox="0 0 165 32" version="1.1" xmlns="http://www.w3.org/2000/svg" xmlns:xlink="http://www.w3.org/1999/xlink">
    <g id="Symbols" stroke="none" stroke-width="1" fill="none" fill-rule="evenodd">
        <g id="MainBar" transform="translate(-30.000000, -9.000000)" fill-rule="nonzero">
            <g id="Group-10">
                <g id="Group-8" transform="translate(30.000000, 9.000000)">
                    <g id="Group" transform="translate(45.000000, 2.000000)" fill="#1A1A1A">
                        <g id="Group-5">
                            <path d="M4.47201426,13.03 C4.8513388,13.3366682 5.30718688,13.49 5.83957219,13.49 C6.3719575,13.49 6.82614191,13.3366682 7.20213904,13.03 C7.57813616,12.7233318 7.86428898,12.2983361 8.06060606,11.755 C8.25692314,11.211664 8.39833587,10.6316698 8.48484848,10.015 C8.5713611,9.39833025 8.61461676,8.7133371 8.61461676,7.96 C8.61461676,4.3466486 7.68961115,2.54 5.83957219,2.54 C4.00284287,2.54 3.07118255,4.3333154 3.04456328,7.92 C3.04456328,8.6800038 3.08781894,9.3699969 3.17433155,9.99 C3.26084416,10.6100031 3.40392057,11.1949973 3.60356506,11.745 C3.80320955,12.2950028 4.09268973,12.7233318 4.47201426,13.03 Z M7.9657754,15.17 C7.34022266,15.436668 6.63149534,15.57 5.83957219,15.57 C5.04764904,15.57 4.33559437,15.4350014 3.70338681,15.165 C3.07117925,14.8949987 2.548784,14.5283357 2.13618538,14.065 C1.72358677,13.6016644 1.37920518,13.0466699 1.1030303,12.4 C0.826855422,11.7533301 0.630541283,11.0700036 0.514081996,10.35 C0.397622709,9.6299964 0.339393939,8.8600041 0.339393939,8.04 C0.339393939,7.2066625 0.399286389,6.42500365 0.519073084,5.695 C0.638859779,4.96499635 0.838501276,4.27500325 1.11800357,3.625 C1.39750585,2.97499675 1.7452148,2.4200023 2.16114082,1.96 C2.57706684,1.4999977 3.09779842,1.13500135 3.72335116,0.865 C4.3489039,0.59499865 5.05430386,0.46 5.83957219,0.46 C6.62484053,0.46 7.33024048,0.59499865 7.95579323,0.865 C8.58134597,1.13500135 9.10041386,1.50166435 9.51301248,1.965 C9.92561109,2.42833565 10.2699927,2.98499675 10.5461676,3.635 C10.8223424,4.28500325 11.0203203,4.9733297 11.140107,5.7 C11.2598936,6.4266703 11.3197861,7.2066625 11.3197861,8.04 C11.3197861,8.8600041 11.2615573,9.6299964 11.145098,10.35 C11.0286388,11.0700036 10.8339883,11.7549968 10.5611408,12.405 C10.2882933,13.0550033 9.94557544,13.6099977 9.53297683,14.07 C9.12037821,14.5300023 8.59798296,14.8966653 7.9657754,15.17 Z M16.1311943,13.03 C16.5105188,13.3366682 16.9663669,13.49 17.4987522,13.49 C18.0311375,13.49 18.4853219,13.3366682 18.8613191,13.03 C19.2373162,12.7233318 19.523469,12.2983361 19.7197861,11.755 C19.9161032,11.211664 20.0575159,10.6316698 20.1440285,10.015 C20.2305411,9.39833025 20.2737968,8.7133371 20.2737968,7.96 C20.2737968,4.3466486 19.3487912,2.54 17.4987522,2.54 C15.6620229,2.54 14.7303626,4.3333154 14.7037433,7.92 C14.7037433,8.6800038 14.746999,9.3699969 14.8335116,9.99 C14.9200242,10.6100031 15.0631006,11.1949973 15.2627451,11.745 C15.4623896,12.2950028 15.7518698,12.7233318 16.1311943,13.03 Z M19.6249554,15.17 C18.9994027,15.436668 18.2906754,15.57 17.4987522,15.57 C16.7068291,15.57 15.9947744,15.4350014 15.3625668,15.165 C14.7303593,14.8949987 14.207964,14.5283357 13.7953654,14.065 C13.3827668,13.6016644 13.0383852,13.0466699 12.7622103,12.4 C12.4860355,11.7533301 12.2897213,11.0700036 12.173262,10.35 C12.0568027,9.6299964 11.998574,8.8600041 11.998574,8.04 C11.998574,7.2066625 12.0584664,6.42500365 12.1782531,5.695 C12.2980398,4.96499635 12.4976813,4.27500325 12.7771836,3.625 C13.0566859,2.97499675 13.4043948,2.4200023 13.8203209,1.96 C14.2362469,1.4999977 14.7569785,1.13500135 15.3825312,0.865 C16.0080839,0.59499865 16.7134839,0.46 17.4987522,0.46 C18.2840206,0.46 18.9894205,0.59499865 19.6149733,0.865 C20.240526,1.13500135 20.7595939,1.50166435 21.1721925,1.965 C21.5847911,2.42833565 21.9291727,2.98499675 22.2053476,3.635 C22.4815225,4.28500325 22.6795003,4.9733297 22.799287,5.7 C22.9190737,6.4266703 22.9789661,7.2066625 22.9789661,8.04 C22.9789661,8.8600041 22.9207374,9.6299964 22.8042781,10.35 C22.6878188,11.0700036 22.4931683,11.7549968 22.2203209,12.405 C21.9474734,13.0550033 21.6047555,13.6099977 21.1921569,14.07 C20.7795582,14.5300023 20.257163,14.8966653 19.6249554,15.17 Z M27.7903743,13.03 C28.1696989,13.3366682 28.625547,13.49 29.1579323,13.49 C29.6903176,13.49 30.144502,13.3366682 30.5204991,13.03 C30.8964962,12.7233318 31.182649,12.2983361 31.3789661,11.755 C31.5752832,11.211664 31.7166959,10.6316698 31.8032086,10.015 C31.8897212,9.39833025 31.9329768,8.7133371 31.9329768,7.96 C31.9329768,4.3466486 31.0079712,2.54 29.1579323,2.54 C27.3212029,2.54 26.3895426,4.3333154 26.3629234,7.92 C26.3629234,8.6800038 26.406179,9.3699969 26.4926916,9.99 C26.5792042,10.6100031 26.7222806,11.1949973 26.9219251,11.745 C27.1215696,12.2950028 27.4110498,12.7233318 27.7903743,13.03 Z M31.2841355,15.17 C30.6585827,15.436668 29.9498554,15.57 29.1579323,15.57 C28.3660091,15.57 27.6539544,15.4350014 27.0217469,15.165 C26.3895393,14.8949987 25.8671441,14.5283357 25.4545455,14.065 C25.0419468,13.6016644 24.6975653,13.0466699 24.4213904,12.4 C24.1452155,11.7533301 23.9489014,11.0700036 23.8324421,10.35 C23.7159828,9.6299964 23.657754,8.8600041 23.657754,8.04 C23.657754,7.2066625 23.7176465,6.42500365 23.8374332,5.695 C23.9572199,4.96499635 24.1568613,4.27500325 24.4363636,3.625 C24.7158659,2.97499675 25.0635749,2.4200023 25.4795009,1.96 C25.8954269,1.4999977 26.4161585,1.13500135 27.0417112,0.865 C27.667264,0.59499865 28.3726639,0.46 29.1579323,0.46 C29.9432006,0.46 30.6486006,0.59499865 31.2741533,0.865 C31.899706,1.13500135 32.4187739,1.50166435 32.8313725,1.965 C33.2439712,2.42833565 33.5883527,2.98499675 33.8645276,3.635 C34.1407025,4.28500325 34.3386803,4.9733297 34.458467,5.7 C34.5782537,6.4266703 34.6381462,7.2066625 34.6381462,8.04 C34.6381462,8.8600041 34.5799174,9.6299964 34.4634581,10.35 C34.3469988,11.0700036 34.1523484,11.7549968 33.8795009,12.405 C33.6066534,13.0550033 33.2639355,13.6099977 32.8513369,14.07 C32.4387383,14.5300023 31.916343,14.8966653 31.2841355,15.17 Z M39.0702317,15.36 L35.7461676,4.37 L38.4114082,4.37 L40.5176471,12.43 C40.5642308,12.2766659 40.9435496,10.966679 41.655615,8.5 C42.3676803,6.033321 42.7702907,4.6566681 42.8634581,4.37 L45.5486631,4.37 C45.6351757,4.6500014 46.0178219,6.0133211 46.6966132,8.46 C47.3754045,10.9066789 47.7414139,12.2199991 47.7946524,12.4 L49.9607843,4.37 L52.5860963,4.37 L49.1522282,15.36 L46.5468806,15.36 C46.460368,15.0733319 46.0560939,13.6233464 45.3340463,11.01 C44.6119988,8.3966536 44.2210342,6.9866677 44.1611408,6.78 C44.0280445,7.2666691 43.6038063,8.7333211 42.8884135,11.18 C42.1730208,13.6266789 41.7587647,15.0199983 41.6456328,15.36 L39.0702317,15.36 Z M59.1144385,15.57 C57.3509122,15.57 55.9783769,15.0616718 54.9967914,14.045 C54.015206,13.0283283 53.5244207,11.6233423 53.5244207,9.83 C53.5244207,8.0833246 53.9869235,6.6933385 54.911943,5.66 C55.8369624,4.6266615 57.0980312,4.1066667 58.6951872,4.1 C60.2058305,4.1 61.3787243,4.5733286 62.2139037,5.52 C63.0490832,6.4666714 63.4666667,7.7233255 63.4666667,9.29 C63.4666667,9.4033339 63.465003,9.5866654 63.4616756,9.84 C63.4583482,10.0933346 63.4566845,10.2799994 63.4566845,10.4 L56.1597148,10.4 C56.1863341,11.4266718 56.4674958,12.2216639 57.0032086,12.785 C57.5389213,13.3483362 58.2759311,13.63 59.2142602,13.63 C60.4121272,13.63 61.5633932,13.3166698 62.6680927,12.69 L63.0374332,14.55 C61.9393884,15.2300034 60.6317366,15.57 59.1144385,15.57 Z M56.2096257,8.75 L61.0010695,8.75 C61.0010695,7.8566622 60.7981007,7.1700024 60.3921569,6.69 C59.9862131,6.2099976 59.4238895,5.97 58.7051693,5.97 C58.0330329,5.97 57.4657183,6.203331 57.0032086,6.67 C56.5406988,7.136669 56.2761738,7.8299954 56.2096257,8.75 Z M71.4723708,15.57 C70.7270313,15.57 70.0499139,15.4050017 69.4409982,15.075 C68.8320825,14.7449984 68.3912075,14.3700021 68.1183601,13.95 L67.8588235,15.35 L65.5928699,15.35 L65.5928699,0.32 L68.2081996,0.15 L68.2081996,3.55 C68.2081996,4.2100033 68.1882355,4.9599958 68.1483066,5.8 C69.0134327,4.666661 70.1414072,4.1 71.5322638,4.1 C72.9297753,4.1 74.0261398,4.6199948 74.8213904,5.66 C75.6166409,6.7000052 76.0142602,8.0599916 76.0142602,9.74 C76.0142602,11.4866754 75.6033315,12.8949947 74.7814617,13.965 C73.9595919,15.0350054 72.8565726,15.57 71.4723708,15.57 Z M70.8434938,13.58 C71.6221073,13.58 72.2443233,13.2500033 72.7101604,12.59 C73.1759976,11.9299967 73.4089127,10.9933394 73.4089127,9.78 C73.4089127,8.5599939 73.1809886,7.6366698 72.7251337,7.01 C72.2692788,6.3833302 71.6520538,6.07 70.8734403,6.07 C69.1032591,6.07 68.2081997,7.2666547 68.1882353,9.66 C68.1882353,11.0066734 68.4111683,11.9966635 68.857041,12.63 C69.3029137,13.2633365 69.965058,13.58 70.8434938,13.58 Z M78.1504456,15.36 L78.1504456,0.32 L80.7657754,0.15 L80.7657754,3.32 C80.7657754,3.4733341 80.7557933,3.89832985 80.7358289,4.595 C80.7158644,5.29167015 80.7058824,5.6466666 80.7058824,5.66 C81.5776633,4.6199948 82.7488934,4.1 84.2196078,4.1 C85.4440941,4.1 86.3940549,4.45166315 87.0695187,5.155 C87.7449826,5.85833685 88.0827094,6.9399927 88.0827094,8.4 L88.0827094,15.36 L85.4673797,15.36 L85.4673797,8.69 C85.4673797,7.7899955 85.3243033,7.1300021 85.0381462,6.71 C84.7519891,6.2899979 84.2661948,6.08 83.5807487,6.08 C82.9951248,6.08 82.4760569,6.22833185 82.0235294,6.525 C81.5710019,6.82166815 81.2316114,7.203331 81.0053476,7.67 C80.845632,8.2833364 80.7657754,9.0833284 80.7657754,10.07 L80.7657754,15.36 L78.1504456,15.36 Z M95.4395722,13.58 C96.3246628,13.58 96.9901344,13.2566699 97.4360071,12.61 C97.8818798,11.9633301 98.1048128,11.0366727 98.1048128,9.83 C98.1048128,8.6099939 97.8818798,7.6800032 97.4360071,7.04 C96.9901344,6.3999968 96.3180081,6.08 95.4196078,6.08 C94.5345173,6.08 93.8673819,6.40166345 93.4181818,7.045 C92.9689817,7.68833655 92.744385,8.6199939 92.744385,9.84 C92.744385,11.040006 92.9706454,11.9633301 93.4231729,12.61 C93.8757004,13.2566699 94.5478268,13.58 95.4395722,13.58 Z M95.369697,15.57 C93.7459218,15.57 92.4682162,15.0433386 91.5365419,13.99 C90.6048676,12.9366614 90.1390374,11.5500086 90.1390374,9.83 C90.1390374,8.0566578 90.6048676,6.65833845 91.5365419,5.635 C92.4682162,4.61166155 93.7825227,4.1 95.4795009,4.1 C97.1165857,4.1 98.3992823,4.62166145 99.3276292,5.665 C100.255976,6.70833855 100.720143,8.096658 100.720143,9.83 C100.720143,11.5833421 100.250985,12.9783282 99.312656,14.015 C98.3743269,15.0516719 97.0600203,15.57 95.369697,15.57 Z M106.360071,15.56 C104.742951,15.56 103.448609,15.2833361 102.477005,14.73 L102.746524,12.76 C103.185742,13.0000012 103.744738,13.2149991 104.423529,13.405 C105.102321,13.595001 105.721209,13.69 106.280214,13.69 C106.859183,13.69 107.31004,13.5816678 107.632799,13.365 C107.955557,13.1483323 108.120261,12.8300021 108.126916,12.41 C108.126916,12.0299981 107.975521,11.7300011 107.672727,11.51 C107.369933,11.2899989 106.792636,11.0166683 105.94082,10.69 C105.648008,10.5833328 105.458349,10.5133335 105.371836,10.48 C104.360304,10.0866647 103.631612,9.64833575 103.18574,9.165 C102.739867,8.68166425 102.516934,8.0266708 102.516934,7.2 C102.516934,6.199995 102.877952,5.433336 103.6,4.9 C104.322048,4.366664 105.328573,4.1 106.619608,4.1 C108.017119,4.1 109.244914,4.3633307 110.30303,4.89 L109.654189,6.7 C108.609383,6.2133309 107.614503,5.97 106.669519,5.97 C106.143788,5.97 105.732859,6.05833245 105.43672,6.235 C105.140581,6.41166755 104.992513,6.6799982 104.992513,7.04 C104.992513,7.3800017 105.13559,7.64499905 105.421747,7.835 C105.707904,8.02500095 106.2669,8.2733318 107.098752,8.58 C107.125371,8.5866667 107.211883,8.6166664 107.358289,8.67 C107.504695,8.7233336 107.617825,8.7666665 107.697683,8.8 C108.70256,9.1666685 109.441234,9.60499745 109.913725,10.115 C110.386217,10.6250026 110.62246,11.2899959 110.62246,12.11 C110.615805,13.2100055 110.243141,14.059997 109.504456,14.66 C108.765772,15.260003 107.717654,15.56 106.360071,15.56 Z M117.070945,15.51 C116.325605,15.51 115.705053,15.4216676 115.209269,15.245 C114.713485,15.0683325 114.325848,14.7900019 114.046346,14.41 C113.766844,14.0299981 113.568866,13.5816693 113.452406,13.065 C113.335947,12.5483308 113.277718,11.9100038 113.277718,11.15 L113.277718,5.96 L111.480927,5.96 L111.580749,4.54 L113.457398,4.37 L114.2959,1.39 L115.893048,1.38 L115.893048,4.37 L118.618182,4.37 L118.618182,5.96 L115.893048,5.96 L115.893048,11.2 C115.893048,12.0333375 116.012833,12.6266649 116.252406,12.98 C116.49198,13.3333351 116.934518,13.51 117.580036,13.51 C117.95936,13.51 118.365298,13.476667 118.797861,13.41 L118.867736,15.29 C118.854427,15.29 118.772906,15.3049999 118.623173,15.335 C118.47344,15.3650002 118.330363,15.3916666 118.193939,15.415 C118.057516,15.4383335 117.882829,15.4599999 117.669875,15.48 C117.456921,15.5000001 117.25728,15.51 117.070945,15.51 Z" id="000webhost"></path>
                        </g>
                        <path d="M1.9331543,28.2404297 L1.9331543,20.1757324 L2.68681641,20.1757324 L2.76884766,20.9396484 C3.26103762,20.3517549 3.8523403,20.0578125 4.54277344,20.0578125 C5.05547131,20.0578125 5.489549,20.185985 5.84501953,20.442334 C6.20049006,20.6986829 6.46281654,21.0456033 6.63200684,21.4831055 C6.80119714,21.9206077 6.88579102,22.4315889 6.88579102,23.0160645 C6.88579102,23.5766141 6.79350678,24.0747781 6.60893555,24.5105713 C6.42436431,24.9463645 6.153493,25.2898669 5.79631348,25.5410889 C5.43913396,25.7923108 5.02129146,25.9179199 4.54277344,25.9179199 C4.18046694,25.9179199 3.84038245,25.836744 3.52250977,25.6743896 C3.20463708,25.5120353 2.95000096,25.2975599 2.75859375,25.030957 C2.77910167,25.4000995 2.78935547,25.7589826 2.78935547,26.1076172 L2.78935547,28.1840332 L1.9331543,28.2404297 Z M4.42485352,25.1950195 C4.68462044,25.1950195 4.91703999,25.1360602 5.12211914,25.0181396 C5.32719829,24.9002191 5.49296812,24.7387217 5.61943359,24.5336426 C5.74589907,24.3285634 5.84160124,24.0952894 5.90654297,23.8338135 C5.9714847,23.5723376 6.00395508,23.2895035 6.00395508,22.9853027 C6.00395508,22.3427214 5.86894666,21.815505 5.59892578,21.4036377 C5.3289049,20.9917704 4.93413346,20.7858398 4.41459961,20.7858398 C3.32768011,20.7858398 2.78422852,21.4882254 2.78422852,22.8930176 C2.78422852,23.6552284 2.91154658,24.2294414 3.16618652,24.6156738 C3.42082647,25.0019062 3.84037794,25.1950195 4.42485352,25.1950195 Z M8.71611328,23.0006836 C8.71611328,23.6671908 8.86393895,24.2012431 9.15959473,24.6028564 C9.4552505,25.0044698 9.88676474,25.2052734 10.4541504,25.2052734 C11.0147001,25.2052734 11.4376695,25.0053243 11.7230713,24.6054199 C12.0084731,24.2055156 12.1511719,23.6671909 12.1511719,22.9904297 C12.1511719,22.3034145 12.0101821,21.7625264 11.7281982,21.367749 C11.4462144,20.9729717 11.0164091,20.7755859 10.4387695,20.7755859 C9.87821985,20.7755859 9.45097803,20.9772441 9.15703125,21.3805664 C8.86308447,21.7838887 8.71611328,22.3239224 8.71611328,23.0006836 Z M13.0381348,22.9853027 C13.0381348,23.8568891 12.8057152,24.5635471 12.3408691,25.1052979 C11.8760231,25.6470486 11.2334514,25.9179199 10.4131348,25.9179199 C9.62358004,25.9179199 8.99553456,25.6444852 8.52897949,25.0976074 C8.06242443,24.5507297 7.82915039,23.8483441 7.82915039,22.9904297 C7.82915039,22.1154253 8.06327891,21.4079129 8.53154297,20.8678711 C8.99980703,20.3278293 9.64237873,20.0578125 10.4592773,20.0578125 C11.262504,20.0578125 11.8931129,20.3286838 12.351123,20.8704346 C12.8091331,21.4121853 13.0381348,22.1171343 13.0381348,22.9853027 Z M19.0674316,25.8 C18.2778769,23.2775265 17.7891123,21.7069855 17.601123,21.0883301 C17.4951655,21.4643085 17.3738288,21.8710427 17.2371094,22.3085449 C17.1003899,22.7460471 16.9807622,23.1220199 16.8782227,23.4364746 C16.7756831,23.7509293 16.6423836,24.1576635 16.4783203,24.6566895 C16.314257,25.1557154 16.1895024,25.5368151 16.1040527,25.8 L15.1812012,25.8 L13.5764648,20.1757324 L14.4634277,20.1757324 L15.6682617,24.7797363 C15.835743,24.2328586 16.3279256,22.698206 17.1448242,20.1757324 L18.1138184,20.1757324 C18.927299,22.7528937 19.4058098,24.2824195 19.5493652,24.7643555 L20.7388184,20.1757324 L21.6155273,20.1757324 L19.9954102,25.8 L19.0674316,25.8 Z M25.6350586,21.2165039 C25.3855456,20.9157212 25.0420432,20.765332 24.604541,20.765332 C24.1670388,20.765332 23.8098647,20.9199936 23.5330078,21.2293213 C23.256151,21.538649 23.0937991,21.9616184 23.0459473,22.4982422 L26.0144531,22.4982422 C26.0144531,21.9411105 25.8879895,21.5138687 25.6350586,21.2165039 Z M24.7737305,25.9179199 C23.9568319,25.9179199 23.3134057,25.6581569 22.8434326,25.138623 C22.3734596,24.6190892 22.1384766,23.9081588 22.1384766,23.0058105 C22.1384766,22.1342242 22.3657692,21.4275662 22.8203613,20.8858154 C23.2749534,20.3440647 23.873092,20.0680665 24.6147949,20.0578125 C25.312064,20.0578125 25.8649149,20.2962134 26.2733643,20.7730225 C26.6818136,21.2498315 26.8860352,21.8864218 26.8860352,22.6828125 C26.8860352,22.7238283 26.8851807,22.7990229 26.8834717,22.9083984 C26.8817627,23.017774 26.8809082,23.0963865 26.8809082,23.1442383 L23.0203125,23.1442383 C23.0305665,23.7834016 23.1954818,24.2815656 23.5150635,24.6387451 C23.8346452,24.9959246 24.2644504,25.1745117 24.8044922,25.1745117 C25.3992217,25.1745117 25.9956513,25.0172867 26.5937988,24.702832 L26.7270996,25.3949707 C26.156296,25.7436053 25.5051794,25.9179199 24.7737305,25.9179199 Z M30.5979492,20.1244629 C30.7517586,20.1244629 30.8918939,20.1347167 31.0183594,20.1552246 L30.9875977,20.9447754 C30.8303703,20.9174315 30.6936529,20.9037598 30.5774414,20.9037598 C30.0989234,20.9037598 29.7101333,21.0703841 29.4110596,21.4036377 C29.1119858,21.7368913 28.9624512,22.1496069 28.9624512,22.6417969 L28.9624512,25.8 L28.10625,25.8 C28.102832,22.3478343 28.101123,20.4730972 28.101123,20.1757324 L28.8137695,20.1757324 L28.8958008,21.1857422 C29.090626,20.8678695 29.3384262,20.6115244 29.639209,20.4166992 C29.9399917,20.221874 30.2595686,20.1244629 30.5979492,20.1244629 Z M35.0378906,21.2165039 C34.7883777,20.9157212 34.4448752,20.765332 34.007373,20.765332 C33.5698709,20.765332 33.2126967,20.9199936 32.9358398,21.2293213 C32.658983,21.538649 32.4966311,21.9616184 32.4487793,22.4982422 L35.4172852,22.4982422 C35.4172852,21.9411105 35.2908216,21.5138687 35.0378906,21.2165039 Z M34.1765625,25.9179199 C33.3596639,25.9179199 32.7162377,25.6581569 32.2462646,25.138623 C31.7762916,24.6190892 31.5413086,23.9081588 31.5413086,23.0058105 C31.5413086,22.1342242 31.7686012,21.4275662 32.2231934,20.8858154 C32.6777855,20.3440647 33.275924,20.0680665 34.017627,20.0578125 C34.7148961,20.0578125 35.267747,20.2962134 35.6761963,20.7730225 C36.0846456,21.2498315 36.2888672,21.8864218 36.2888672,22.6828125 C36.2888672,22.7238283 36.2880127,22.7990229 36.2863037,22.9083984 C36.2845947,23.017774 36.2837402,23.0963865 36.2837402,23.1442383 L32.4231445,23.1442383 C32.4333985,23.7834016 32.5983138,24.2815656 32.9178955,24.6387451 C33.2374772,24.9959246 33.6672825,25.1745117 34.2073242,25.1745117 C34.8020538,25.1745117 35.3984833,25.0172867 35.9966309,24.702832 L36.1299316,25.3949707 C35.559128,25.7436053 34.9080115,25.9179199 34.1765625,25.9179199 Z M39.6726562,25.1796387 C40.2366239,25.1796387 40.6561754,24.9984881 40.9313232,24.6361816 C41.2064711,24.2738751 41.344043,23.7560581 41.344043,23.0827148 C41.344043,22.323922 41.211598,21.7522724 40.9467041,21.367749 C40.6818102,20.9832256 40.2537139,20.7909668 39.6624023,20.7909668 C39.3992174,20.7909668 39.1667979,20.8473627 38.9651367,20.9601563 C38.7634756,21.0729498 38.6011237,21.2301748 38.4780762,21.4318359 C38.3550287,21.6334971 38.26189,21.8650622 38.1986572,22.1265381 C38.1354245,22.388014 38.1038086,22.674266 38.1038086,22.9853027 C38.1038086,23.4228049 38.1576411,23.8021957 38.2653076,24.1234863 C38.3729742,24.444777 38.5464344,24.7011221 38.7856934,24.8925293 C39.0249524,25.0839365 39.3206037,25.1796387 39.6726562,25.1796387 Z M41.3594238,24.9848145 C41.1748526,25.2685073 40.9287613,25.494091 40.6211426,25.6615723 C40.3135239,25.8290536 39.9700214,25.912793 39.590625,25.912793 C38.8489221,25.912793 38.2678732,25.6487575 37.8474609,25.1206787 C37.4270487,24.5925999 37.2168457,23.8739792 37.2168457,22.9647949 C37.2168457,22.0966265 37.4304666,21.3950954 37.8577148,20.8601807 C38.2849631,20.3252659 38.8574671,20.0578125 39.5752441,20.0578125 C39.9478046,20.0578125 40.2989974,20.1389884 40.628833,20.3013428 C40.9586686,20.4636971 41.2056144,20.6815904 41.3696777,20.9550293 L41.3542969,20.4679688 L41.3542969,17.9916504 L42.2002441,17.9403809 L42.2002441,25.8 L41.4722168,25.8 L41.3594238,24.9848145 Z M48.8652832,20.770459 C48.3218235,20.770459 47.9056899,20.9575909 47.6168701,21.3318604 C47.3280503,21.7061298 47.1836426,22.2555628 47.1836426,22.9801758 C47.1836426,24.4635816 47.7424749,25.2052734 48.8601562,25.2052734 C49.1370131,25.2052734 49.3805409,25.148023 49.5907471,25.0335205 C49.8009532,24.919018 49.966723,24.7583751 50.0880615,24.5515869 C50.2094,24.3447988 50.2999753,24.1115247 50.35979,23.8517578 C50.4196048,23.5919909 50.4495117,23.3031754 50.4495117,22.9853027 C50.4495117,22.5546365 50.3990972,22.1786637 50.2982666,21.857373 C50.197436,21.5360824 50.0256848,21.2746104 49.7830078,21.0729492 C49.5403308,20.8712881 49.2344257,20.770459 48.8652832,20.770459 Z M48.9524414,20.0578125 C49.4514673,20.0578125 49.8821271,20.1842761 50.2444336,20.437207 C50.6067401,20.690138 50.8784659,21.0336404 51.0596191,21.4677246 C51.2407724,21.9018088 51.3313477,22.3991183 51.3313477,22.959668 C51.3313477,23.5407256 51.2416269,24.0517068 51.0621826,24.492627 C50.8827384,24.9335471 50.6110126,25.281322 50.2469971,25.5359619 C49.8829816,25.7906019 49.4480494,25.9179199 48.9421875,25.9179199 C48.569627,25.9179199 48.2295426,25.8375985 47.9219238,25.6769531 C47.6143051,25.5163078 47.35796,25.29756 47.1528809,25.0207031 L47.0657227,25.8 L46.3325684,25.8 L46.3325684,17.9916504 L47.1887695,17.9403809 L47.1887695,19.8014648 C47.1887695,20.2594749 47.1819337,20.6525374 47.1682617,20.9806641 C47.3665049,20.6969712 47.6237045,20.472242 47.9398682,20.3064697 C48.2560319,20.1406974 48.5935529,20.0578125 48.9524414,20.0578125 Z M51.7671387,20.1757324 L52.6746094,20.1757324 L54.4485352,24.8566406 L56.0276367,20.1757324 L56.9351074,20.1757324 C55.4175217,24.3525111 54.6331057,26.5058099 54.5818359,26.6356934 C54.3459949,27.2270049 54.0605974,27.6602281 53.7256348,27.935376 C53.3906722,28.2105238 52.9497586,28.3480957 52.4028809,28.3480957 C52.2388175,28.3480957 52.0662118,28.334424 51.8850586,28.3070801 L51.8337891,27.5790527 C52.0251963,27.5927247 52.1687495,27.5995605 52.2644531,27.5995605 C52.6506855,27.5995605 52.9437734,27.5286384 53.1437256,27.386792 C53.3436778,27.2449456 53.5222648,26.9792012 53.6794922,26.5895508 C53.8196296,26.2306623 53.9238766,25.9538096 53.9922363,25.7589844 L51.7671387,20.1757324 Z M60.5752441,25.8 L60.5752441,18.2890137 L61.9646484,18.2890137 L61.9646484,21.3600586 L65.3586914,21.3600586 L65.3586914,18.2890137 L66.7480957,18.2890137 L66.7480957,25.8 L65.3586914,25.8 L65.3586914,22.4572266 L61.9646484,22.4572266 L61.9646484,25.8 L60.5752441,25.8 Z M70.0806152,24.0619629 C70.4531757,24.5370629 71.0034632,24.7746094 71.7314941,24.7746094 C72.4595251,24.7746094 73.0089581,24.5379174 73.3798096,24.0645264 C73.750661,23.5911353 73.936084,22.9220746 73.936084,22.0573242 C73.936084,21.1823198 73.750661,20.5038598 73.3798096,20.0219238 C73.0089581,19.5399878 72.4612341,19.2990234 71.7366211,19.2990234 C71.0085901,19.2990234 70.4574482,19.5408423 70.0831787,20.0244873 C69.7089093,20.5081323 69.5217773,21.1857378 69.5217773,22.0573242 C69.5217773,22.9186567 69.7080548,23.5868629 70.0806152,24.0619629 Z M71.7263672,25.907666 C70.5950139,25.907666 69.7020785,25.5650181 69.0475342,24.8797119 C68.3929899,24.1944058 68.0657227,23.2484924 68.0657227,22.0419434 C68.0657227,20.8285584 68.3938444,19.8817905 69.0500977,19.2016113 C69.7063509,18.5214321 70.6001408,18.1813477 71.7314941,18.1813477 C72.8628475,18.1813477 73.7549284,18.5222866 74.4077637,19.2041748 C75.060599,19.886063 75.3870117,20.8336853 75.3870117,22.0470703 C75.3870117,23.2467833 75.05889,24.1901333 74.4026367,24.8771484 C73.7463834,25.5641636 72.8543025,25.907666 71.7263672,25.907666 Z M78.8118164,25.9025391 C77.9060502,25.9025391 77.0942907,25.6940451 76.3765137,25.2770508 L76.7148926,24.1747559 C77.0361832,24.3524911 77.3856671,24.4960444 77.7633545,24.6054199 C78.1410419,24.7147955 78.5093244,24.7694824 78.8682129,24.7694824 C79.3091331,24.7694824 79.6423817,24.6746347 79.8679687,24.4849365 C80.0935558,24.2952383 80.2063477,24.022658 80.2063477,23.6671875 C80.2063477,23.1955055 79.8918977,22.8690927 79.2629883,22.6879395 C79.2185545,22.6742675 79.0937999,22.6375247 78.8887207,22.57771 C78.6836416,22.5178952 78.4913827,22.4597903 78.3119385,22.4033936 C78.1324942,22.3469968 78.0034672,22.3034181 77.9248535,22.2726563 C76.9165477,21.9171857 76.4124023,21.2541064 76.4124023,20.2833984 C76.4124023,19.6032193 76.6542212,19.0785663 77.1378662,18.7094238 C77.6215112,18.3402814 78.2632284,18.1557129 79.0630371,18.1557129 C79.9688034,18.1557129 80.7498014,18.3419903 81.4060547,18.7145508 L80.9856445,19.7296875 C80.3157193,19.4289047 79.6936552,19.2785156 79.1194336,19.2785156 C78.7058573,19.2785156 78.3939708,19.3511467 78.1837646,19.4964111 C77.9735585,19.6416755 77.8616212,19.8834944 77.8479492,20.221875 C77.8479492,20.6388693 78.0547343,20.9105951 78.4683105,21.0370605 C78.5503422,21.0678224 78.7520003,21.1344721 79.073291,21.2370117 C79.3945817,21.3395513 79.6030757,21.406201 79.6987793,21.4369629 C80.3857945,21.66255 80.8771225,21.9428206 81.1727783,22.2777832 C81.4684341,22.6127458 81.6162598,23.0792939 81.6162598,23.6774414 C81.6162598,24.3918004 81.3633326,24.9412334 80.8574707,25.3257568 C80.3516088,25.7102802 79.6697309,25.9025391 78.8118164,25.9025391 Z M84.2515137,25.8 L84.2515137,19.4015625 L82.0623047,19.4015625 L82.0623047,18.2890137 L87.825,18.2890137 L87.825,19.4015625 L85.6460449,19.4015625 L85.6460449,25.8 L84.2515137,25.8 Z M88.7427246,25.8 L88.7427246,18.2890137 L90.1321289,18.2890137 L90.1321289,25.8 L88.7427246,25.8 Z M91.7932617,25.8 L91.7932617,18.2890137 L93.2698242,18.2890137 C93.5364271,18.7060079 94.0781697,19.5468198 94.8950684,20.8114746 C95.711967,22.0761294 96.2092765,22.8451646 96.3870117,23.1186035 C96.4382815,23.1972172 96.5262933,23.3296622 96.6510498,23.5159424 C96.7758063,23.7022226 96.8638181,23.8346676 96.9150879,23.9132813 C96.891162,22.7409121 96.8791992,22.1325198 96.8791992,22.0880859 L96.8791992,18.2890137 L98.1455566,18.2890137 L98.1455566,25.8 L96.6484863,25.8 L93.2595703,20.5192383 L93.0134766,20.114209 C93.0408204,21.0165572 93.0544922,21.6505841 93.0544922,22.0163086 L93.0544922,25.8 L91.7932617,25.8 Z M103.113574,25.907666 C101.968549,25.907666 101.073905,25.5624546 100.429614,24.8720215 C99.7853239,24.1815883 99.4631836,23.2365294 99.4631836,22.0368164 C99.4631836,21.2746056 99.6135727,20.6038359 99.9143555,20.0244873 C100.215138,19.4451387 100.657761,18.9931169 101.242236,18.6684082 C101.826712,18.3436995 102.517135,18.1813477 103.313525,18.1813477 C104.226128,18.1813477 105.008835,18.3778789 105.66167,18.7709473 L105.210498,19.8065918 C104.588425,19.4716292 103.964652,19.3041504 103.33916,19.3041504 C102.580367,19.3041504 101.983938,19.5502417 101.549854,20.0424316 C101.115769,20.5346216 100.89873,21.2045368 100.89873,22.0521973 C100.89873,22.8930218 101.091844,23.5578101 101.478076,24.046582 C101.864309,24.535354 102.429977,24.7797363 103.175098,24.7797363 C103.653616,24.7797363 104.087693,24.7045418 104.477344,24.5541504 L104.477344,22.8109863 L102.903369,22.8109863 L102.913623,21.7189453 L105.784717,21.7189453 L105.784717,25.3437012 C105.319871,25.5351084 104.879812,25.6769527 104.464526,25.7692383 C104.049241,25.8615239 103.598928,25.907666 103.113574,25.907666 Z M107.27666,25.8 L107.27666,18.2890137 L111.829395,18.2890137 L111.772998,19.3913086 L108.666064,19.3913086 L108.666064,21.3292969 L111.619189,21.3292969 L111.619189,22.4315918 L108.666064,22.4315918 L108.666064,24.6925781 L111.885791,24.6925781 L111.839648,25.8 L107.27666,25.8 Z M113.147021,25.8 L113.147021,18.2685059 L115.930957,18.2685059 C116.310353,18.2685059 116.63933,18.2855955 116.917896,18.3197754 C117.196461,18.3539552 117.461351,18.4163326 117.712573,18.5069092 C117.963795,18.5974858 118.167162,18.719677 118.322681,18.8734863 C118.478199,19.0272957 118.601245,19.2280993 118.691821,19.4759033 C118.782398,19.7237073 118.827686,20.0167952 118.827686,20.3551758 C118.827686,21.3532276 118.374809,22.0094711 117.469043,22.3239258 C117.653614,22.5324229 117.882616,22.9186495 118.156055,23.4826172 L119.27373,25.8 L117.756152,25.8 L116.879443,23.836377 C116.547899,23.1322719 116.342823,22.7152839 116.264209,22.5854004 C116.206103,22.5819824 116.01299,22.5802734 115.684863,22.5802734 L114.521045,22.5700195 L114.521045,25.8 L113.147021,25.8 Z M116.054004,21.5753906 C116.58721,21.5753906 116.970018,21.4805429 117.202441,21.2908447 C117.434864,21.1011465 117.551074,20.7960959 117.551074,20.3756836 C117.551074,20.0065411 117.433155,19.7348153 117.197314,19.560498 C116.961473,19.3861808 116.600881,19.2990234 116.115527,19.2990234 L114.521045,19.2990234 L114.521045,21.5702637 C114.572315,21.5702637 114.826951,21.5711182 115.284961,21.5728271 C115.742971,21.5745361 115.999316,21.5753906 116.054004,21.5753906 Z" id="poweredbyHOSTINGER"></path>
                    </g>
                    <path d="M12.6472358,12.16 C11.0116073,27.3218789 24.4929907,29.6607409 28.3218391,25.3055044 C21.5813515,42.2013744 5.74714488,23.087782 12.6472358,12.16 Z M10.2988506,10.24 C4.45648672,11.0699354 -4.22739977,29.4484662 6.05704459,27.3537708 C-0.26573236,25.1006258 6.0971814,12.0976289 10.2988506,10.2404052 L10.2988506,10.24 Z M10.2988506,7.86126459 C8.20632571,6.91431149 0.574467995,9.71632142 -1.56319402e-13,15.36 C1.43616999,12.3605058 5.17021196,8.2954871 10.2988506,7.86126459 Z M12.8735632,6.06726469 C9.61027766,3.69465201 5.71882782,6.41783228 4.50574713,7.04 C7.76903269,3.50042401 12.6641751,4.08390566 12.8735632,6.06766352 L12.8735632,6.06726469 Z M15.9992322,5.12 C18.2689724,3.14286628 14.8645772,-0.608724276 11.5862069,2.41695212 C12.7634438,1.93300935 16.7136606,1.28775232 15.9992322,5.12 Z M19.6824739,5.76 C23.5157459,1.82989824 20.3147505,0.306048358 19.3103448,0.22545619 C24.6694602,-1.2580976 22.2873772,5.03837115 19.6824739,5.76 Z M19.954023,8.07656766 C24.3253406,9.70622794 37.3548518,2.67126286 26.9802357,1.28 C29.3491997,1.83666815 29.8800951,6.48684405 19.954859,8.07656766 L19.954023,8.07656766 Z M16.7356322,11.8865493 C19.6614758,19.9214323 45.7857417,19.1763751 34.5365522,8.32 C36.9677266,12.0432765 30.9106653,18.6672125 16.7360539,11.8865493 L16.7356322,11.8865493 Z" id="Shape" fill="#D10303"></path>
                </g>
            </g>
        </g>
    </g>
</svg>