<?xml version="1.0" encoding="utf-8"?>
<!-- Generator: Adobe Illustrator 23.1.1, SVG Export Plug-In . SVG Version: 6.00 Build 0)  -->
<svg version="1.1" id="Layer_1" xmlns="http://www.w3.org/2000/svg" xmlns:xlink="http://www.w3.org/1999/xlink" x="0px" y="0px"
	 viewBox="0 0 39.3 33.7" style="enable-background:new 0 0 39.3 33.7;" xml:space="preserve">
<style type="text/css">
	.st0{fill:#FF5C62;}
</style>
<path id="Shape" class="st0" d="M13.6,13C12,28.1,25.5,30.5,29.3,26.1C22.6,43,6.7,23.9,13.6,13z M11.3,11
	C5.5,11.9-3.2,30.2,7.1,28.2C0.7,25.9,7.1,12.9,11.3,11L11.3,11z M11.3,8.7c-2.1-1-9.7,1.8-10.3,7.5C2.4,13.2,6.2,9.1,11.3,8.7z
	 M13.9,6.9c-3.3-2.4-7.2,0.3-8.4,0.9C8.8,4.3,13.7,4.9,13.9,6.9L13.9,6.9z M17,5.9c2.3-2-1.1-5.7-4.4-2.7C13.8,2.7,17.7,2.1,17,5.9z
	 M20.7,6.6c3.8-3.9,0.6-5.5-0.4-5.5C25.7-0.5,23.3,5.8,20.7,6.6z M21,8.9c4.4,1.6,17.4-5.4,7-6.8C30.3,2.6,30.9,7.3,21,8.9L21,8.9z
	 M17.7,12.7c2.9,8,29.1,7.3,17.8-3.6C38,12.8,31.9,19.5,17.7,12.7L17.7,12.7z"/>
</svg>
