
<svg viewBox="0 0 38 32" version="1.1" xmlns="http://www.w3.org/2000/svg" xmlns:xlink="http://www.w3.org/1999/xlink">
    <g id="Symbols" stroke="none" stroke-width="1" fill="none" fill-rule="evenodd">
        <g id="MainBar" transform="translate(-30.000000, -9.000000)" fill="#D10303" fill-rule="nonzero">
            <g id="Group-10">
                <g id="Group" transform="translate(30.000000, 9.000000)">
                    <path d="M12.6472358,12.16 C11.0116073,27.3218789 24.4929907,29.6607409 28.3218391,25.3055044 C21.5813515,42.2013744 5.74714488,23.087782 12.6472358,12.16 Z M10.2988506,10.24 C4.45648672,11.0699354 -4.22739977,29.4484662 6.05704459,27.3537708 C-0.26573236,25.1006258 6.0971814,12.0976289 10.2988506,10.2404052 L10.2988506,10.24 Z M10.2988506,7.86126459 C8.20632571,6.91431149 0.574467995,9.71632142 0,15.36 C1.43616999,12.3605058 5.17021196,8.2954871 10.2988506,7.86126459 Z M12.8735632,6.06726469 C9.61027766,3.69465201 5.71882782,6.41783228 4.50574713,7.04 C7.76903269,3.50042401 12.6641751,4.08390566 12.8735632,6.06766352 L12.8735632,6.06726469 Z M15.9992322,5.12 C18.2689724,3.14286628 14.8645772,-0.608724276 11.5862069,2.41695212 C12.7634438,1.93300935 16.7136606,1.28775232 15.9992322,5.12 Z M19.6824739,5.76 C23.5157459,1.82989824 20.3147505,0.306048358 19.3103448,0.22545619 C24.6694602,-1.2580976 22.2873772,5.03837115 19.6824739,5.76 Z M19.954023,8.07656766 C24.3253406,9.70622794 37.3548518,2.67126286 26.9802357,1.28 C29.3491997,1.83666815 29.8800951,6.48684405 19.954859,8.07656766 L19.954023,8.07656766 Z M16.7356322,11.8865493 C19.6614758,19.9214323 45.7857417,19.1763751 34.5365522,8.32 C36.9677266,12.0432765 30.9106653,18.6672125 16.7360539,11.8865493 L16.7356322,11.8865493 Z" id="Shape"></path>
                </g>
            </g>
        </g>
    </g>
</svg>