<svg width="151" height="30" viewBox="0 0 151 30" fill="none" xmlns="http://www.w3.org/2000/svg">
    <path fill-rule="evenodd" clip-rule="evenodd" d="M45.6099 8.89819H48.4239V21.3612H45.6099V16.0739H40.8842V21.3612H38.0703V8.89819H40.8842V13.6637H45.6099V8.89819Z" fill="white"/>
    <path fill-rule="evenodd" clip-rule="evenodd" d="M92.0547 21.3615H94.8686V8.89832H92.0547V21.3615Z" fill="white"/>
    <path fill-rule="evenodd" clip-rule="evenodd" d="M128.02 21.3613V8.89832H136.461V11.2542H130.833V13.6998H135.83V16.0021H130.833V19.0054H136.876V21.3613H128.02Z" fill="white"/>
    <path fill-rule="evenodd" clip-rule="evenodd" d="M107.466 21.3613C106.66 19.9347 105.789 18.5261 104.85 17.135C103.912 15.744 102.914 14.4313 101.856 13.1963V21.3613H99.0786V8.89832H101.369C101.766 9.29364 102.205 9.77924 102.686 10.3549C103.167 10.9305 103.657 11.5451 104.156 12.1985C104.655 12.8518 105.151 13.5293 105.644 14.2304C106.137 14.9318 106.6 15.606 107.033 16.2535V8.89832H109.829V21.3613H107.466Z" fill="white"/>
    <path fill-rule="evenodd" clip-rule="evenodd" d="M88.9312 8.89819V11.2902H85.1614V21.3612H82.3477V11.2902H78.5776V8.89819H88.9312Z" fill="white"/>
    <path fill-rule="evenodd" clip-rule="evenodd" d="M144.096 11.1462C143.892 11.1462 143.709 11.1522 143.546 11.1641C143.384 11.1764 143.231 11.1885 143.086 11.2V14.5809H143.88C144.937 14.5809 145.695 14.4496 146.152 14.1856C146.609 13.9223 146.837 13.4724 146.837 12.8366C146.837 12.225 146.606 11.791 146.143 11.5325C145.68 11.2752 144.998 11.1462 144.096 11.1462ZM143.935 8.75415C145.811 8.75415 147.247 9.0866 148.245 9.75226C149.243 10.4177 149.743 11.4517 149.743 12.8547C149.743 13.7296 149.541 14.4406 149.138 14.986C148.736 15.5312 148.156 15.9602 147.398 16.2716C147.651 16.5836 147.915 16.9402 148.191 17.3419C148.468 17.7437 148.742 18.1634 149.012 18.601C149.283 19.0386 149.544 19.494 149.797 19.9673C150.049 20.4413 150.284 20.9058 150.5 21.3612H147.355C147.125 20.9536 146.892 20.5401 146.658 20.1204C146.422 19.701 146.181 19.2931 145.933 18.8972C145.687 18.5014 145.441 18.1272 145.2 17.7736C144.959 17.4196 144.717 17.0989 144.476 16.8107H143.087V21.3612H140.273V9.07755C140.887 8.95835 141.521 8.87385 142.176 8.82632C142.831 8.77804 143.418 8.75415 143.935 8.75415Z" fill="white"/>
    <path fill-rule="evenodd" clip-rule="evenodd" d="M54.9922 15.1209C54.9922 15.732 55.0671 16.2834 55.2174 16.7751C55.3677 17.267 55.5844 17.6895 55.8671 18.043C56.1491 18.3971 56.4951 18.6695 56.9042 18.8611C57.3128 19.0535 57.7816 19.1495 58.311 19.1495C58.8278 19.1495 59.2939 19.0535 59.709 18.8611C60.1234 18.6695 60.4725 18.3971 60.7547 18.043C61.0372 17.6895 61.2541 17.267 61.4044 16.7751C61.5547 16.2834 61.6299 15.732 61.6299 15.1209C61.6299 14.509 61.5547 13.9545 61.4044 13.4568C61.2541 12.9594 61.0372 12.5342 60.7547 12.1801C60.4725 11.8265 60.1234 11.5534 59.709 11.362C59.2939 11.1702 58.8278 11.0743 58.311 11.0743C57.7816 11.0743 57.3128 11.1732 56.9042 11.3708C56.4951 11.5687 56.1491 11.8446 55.8671 12.1984C55.5844 12.552 55.3677 12.9775 55.2174 13.4749C55.0671 13.9729 54.9922 14.5213 54.9922 15.1209ZM64.5355 15.1209C64.5355 16.1876 64.3758 17.1261 64.0578 17.9349C63.7387 18.7444 63.3027 19.4219 62.7498 19.9671C62.1967 20.513 61.5382 20.9235 60.7748 21.1991C60.0113 21.4752 59.1904 21.613 58.3129 21.613C57.4589 21.613 56.6536 21.4752 55.896 21.1991C55.1383 20.9235 54.4768 20.513 53.9118 19.9671C53.3464 19.4219 52.902 18.7444 52.5771 17.9349C52.2525 17.1261 52.0898 16.1876 52.0898 15.1209C52.0898 14.0536 52.2583 13.1153 52.595 12.3063C52.9315 11.4968 53.3857 10.8163 53.957 10.2648C54.5277 9.71335 55.1893 9.29992 55.9411 9.02405C56.6922 8.74792 57.4831 8.60986 58.3129 8.60986C59.1664 8.60986 59.972 8.74792 60.7299 9.02405C61.4872 9.29992 62.1485 9.71335 62.7138 10.2648C63.2787 10.8163 63.7239 11.4968 64.0485 12.3063C64.3733 13.1153 64.5355 14.0536 64.5355 15.1209Z" fill="white"/>
    <path fill-rule="evenodd" clip-rule="evenodd" d="M71.611 19.2212C72.0077 19.2212 72.3353 19.1885 72.5938 19.1221C72.8524 19.0565 73.0599 18.9667 73.216 18.852C73.3722 18.7386 73.4806 18.6038 73.5409 18.4479C73.6012 18.2922 73.6312 18.1182 73.6312 17.9263C73.6312 17.519 73.4385 17.1797 73.0539 16.9104C72.669 16.6403 72.0077 16.3498 71.07 16.0375C70.6609 15.8942 70.252 15.7289 69.8432 15.5433C69.4344 15.3578 69.0677 15.1239 68.7431 14.842C68.4187 14.5603 68.1539 14.2186 67.9496 13.8165C67.7451 13.4151 67.6429 12.9267 67.6429 12.3511C67.6429 11.7755 67.7511 11.2569 67.9675 10.7955C68.1842 10.3337 68.4906 9.94144 68.8876 9.61728C69.2843 9.29338 69.765 9.04517 70.3302 8.8709C70.8954 8.69738 71.5325 8.60986 72.2423 8.60986C73.0839 8.60986 73.8115 8.7004 74.4249 8.87995C75.0378 9.05976 75.5429 9.25792 75.9397 9.47369L75.1283 11.6857C74.7793 11.5059 74.3913 11.3469 73.9649 11.2089C73.5379 11.0713 73.0239 11.0019 72.4228 11.0019C71.7492 11.0019 71.2652 11.0955 70.9706 11.2811C70.676 11.4669 70.5285 11.7518 70.5285 12.1351C70.5285 12.3632 70.583 12.5553 70.6912 12.7107C70.7991 12.8666 70.9527 13.0074 71.1509 13.1334C71.3494 13.2592 71.5779 13.3733 71.8367 13.4749C72.0947 13.577 72.3805 13.6817 72.6935 13.7895C73.3424 14.0297 73.9076 14.2663 74.3888 14.5002C74.8695 14.7341 75.2695 15.0069 75.5883 15.3185C75.9066 15.6301 76.1442 15.996 76.3008 16.4157C76.4567 16.8357 76.5351 17.3449 76.5351 17.9439C76.5351 19.107 76.1261 20.0093 75.3084 20.6506C74.4907 21.2924 73.2582 21.6133 71.611 21.6133C71.0579 21.6133 70.5587 21.5801 70.1138 21.5142C69.6689 21.4478 69.2752 21.3671 68.9325 21.2712C68.59 21.1754 68.2951 21.0736 68.0485 20.9657C67.8021 20.8576 67.5947 20.756 67.4263 20.6597L68.2202 18.4298C68.5925 18.634 69.0525 18.8166 69.6001 18.978C70.1469 19.1402 70.8175 19.2212 71.611 19.2212Z" fill="white"/>
    <path fill-rule="evenodd" clip-rule="evenodd" d="M120.133 11.0564C118.823 11.0564 117.876 11.419 117.293 12.1443C116.71 12.8698 116.418 13.8616 116.418 15.121C116.418 15.7318 116.49 16.2868 116.634 16.7843C116.779 17.2814 116.995 17.71 117.284 18.0698C117.573 18.4297 117.933 18.7086 118.366 18.9065C118.799 19.1041 119.304 19.203 119.881 19.203C120.193 19.203 120.461 19.1969 120.684 19.1851C120.906 19.1733 121.102 19.1494 121.27 19.1132V14.7792H124.084V20.9477C123.747 21.0798 123.206 21.2203 122.46 21.37C121.715 21.5196 120.795 21.595 119.701 21.595C118.763 21.595 117.912 21.4509 117.149 21.1635C116.385 20.8753 115.732 20.4561 115.191 19.9043C114.651 19.3531 114.233 18.6754 113.938 17.8722C113.643 17.0694 113.496 16.1521 113.496 15.121C113.496 14.0776 113.659 13.1544 113.983 12.351C114.308 11.548 114.752 10.867 115.318 10.3097C115.883 9.7522 116.547 9.32972 117.311 9.04203C118.074 8.75409 118.889 8.60974 119.755 8.60974C120.344 8.60974 120.876 8.64922 121.351 8.72693C121.826 8.80514 122.234 8.89492 122.577 8.99702C122.92 9.09861 123.203 9.20348 123.425 9.31161C123.648 9.4195 123.807 9.50374 123.903 9.56359L123.092 11.8113C122.707 11.6076 122.265 11.4311 121.766 11.2809C121.267 11.1311 120.723 11.0564 120.133 11.0564Z" fill="white"/>
    <path fill-rule="evenodd" clip-rule="evenodd" d="M18.8924 26.1177V19.8441L9.43577 19.8375C9.4446 19.8793 2.1123 15.8418 2.1123 15.8418L26.1725 15.9547V30L18.8924 26.1177ZM0.5 26.1177L0.500252 16.9393L7.58916 21.0683V29.8033L0.5 26.1177ZM0.50025 14.046V0.000497794L7.58916 3.78046V10.1086L16.9735 10.1132L24.1774 14.046H0.50025ZM18.8906 8.95058V0L26.1707 3.6859V13.1797L18.8906 8.95058Z" fill="white"/>
</svg>
