<svg xmlns="http://www.w3.org/2000/svg" width="141" height="42" viewBox="0 0 141 42">
    <g fill="none" fill-rule="nonzero">
        <path fill="#1A1A1A" d="M57 16.642c0-1.797.313-3.18.94-4.15.626-.97 1.494-1.455 2.605-1.455 1.11 0 1.979.486 2.606 1.455.626.97.939 2.353.939 4.15 0 1.796-.313 3.178-.94 4.149-.626.97-1.495 1.455-2.605 1.455-1.11 0-1.979-.485-2.605-1.455-.627-.97-.94-2.353-.94-4.15zm5.593 0c0-.589-.033-1.146-.1-1.673a5.553 5.553 0 0 0-.336-1.377c-.158-.392-.369-.704-.634-.937-.265-.232-.59-.348-.978-.348-.387 0-.713.116-.978.348-.265.233-.476.545-.634.937-.158.392-.27.852-.336 1.378a13.407 13.407 0 0 0-.1 1.672c0 .589.034 1.146.1 1.672s.178.986.336 1.378c.158.392.37.704.634.937.265.232.591.348.978.348s.713-.116.978-.348c.265-.232.476-.545.634-.937.158-.392.27-.852.336-1.378.068-.555.101-1.113.1-1.672zm2.862 0c0-1.797.313-3.18.94-4.15.626-.97 1.494-1.455 2.604-1.455 1.111 0 1.98.486 2.606 1.455.626.97.94 2.353.94 4.15 0 1.796-.314 3.178-.94 4.149-.627.97-1.495 1.455-2.606 1.455-1.11 0-1.978-.485-2.605-1.455-.626-.97-.94-2.353-.94-4.15zm5.592 0c0-.589-.033-1.146-.1-1.673a5.557 5.557 0 0 0-.336-1.377c-.158-.393-.369-.704-.634-.937-.265-.232-.59-.348-.978-.348-.387 0-.712.116-.978.348-.265.232-.476.545-.634.937-.158.392-.27.851-.336 1.377a13.407 13.407 0 0 0-.1 1.673c0 .588.034 1.145.1 1.671.067.527.178.986.336 1.379.158.392.37.704.634.936.266.232.591.348.978.348.388 0 .713-.116.978-.348.265-.232.477-.545.634-.936.158-.393.27-.852.337-1.379.068-.554.1-1.113.1-1.671zm2.862 0c0-1.797.313-3.18.94-4.15.626-.97 1.494-1.455 2.605-1.455 1.11 0 1.978.486 2.605 1.455.627.97.94 2.353.94 4.15 0 1.796-.313 3.178-.94 4.149-.627.97-1.494 1.455-2.605 1.455-1.11 0-1.979-.485-2.606-1.455-.626-.97-.939-2.353-.939-4.15zm5.592 0c0-.589-.033-1.146-.1-1.673a5.534 5.534 0 0 0-.335-1.377c-.158-.393-.37-.704-.634-.937-.265-.232-.591-.348-.978-.348s-.713.116-.978.348c-.265.232-.476.545-.634.937-.159.392-.27.851-.336 1.377a13.407 13.407 0 0 0-.1 1.673c0 .588.033 1.145.1 1.671.066.527.178.986.336 1.379.158.392.369.704.634.936.265.232.59.348.978.348.387 0 .713-.116.978-.348.265-.232.476-.545.634-.936.158-.393.27-.852.336-1.379.068-.554.1-1.113.1-1.671zm9.814 5.371a64.68 64.68 0 0 1-.908-2.546 42.551 42.551 0 0 1-.879-2.98 45.516 45.516 0 0 1-.871 2.98c-.28.856-.582 1.705-.902 2.547h-1.237a40.217 40.217 0 0 1-1.375-3.638 64.51 64.51 0 0 1-1.268-4.413h1.528c.102.485.223 1.012.366 1.58.144.569.294 1.137.451 1.703.159.567.324 1.114.497 1.64.173.526.336.986.489 1.378.173-.485.344-.999.512-1.54.168-.542.328-1.089.481-1.641.153-.553.298-1.095.436-1.626.128-.495.248-.993.358-1.494h1.177c.092.465.204.963.337 1.494a63.428 63.428 0 0 0 .909 3.267c.168.541.338 1.055.511 1.54.153-.392.314-.851.482-1.378a54.74 54.74 0 0 0 1.322-4.923h1.466a64.51 64.51 0 0 1-1.268 4.413 40.317 40.317 0 0 1-1.375 3.638h-1.238zm4.773-4.01c0-.711.102-1.333.305-1.864.204-.532.474-.973.81-1.324a3.286 3.286 0 0 1 1.161-.79 3.586 3.586 0 0 1 1.345-.263c1.07 0 1.89.338 2.46 1.014.57.676.856 1.705.856 3.09v.238c0 .099-.005.189-.016.271h-5.44c.062.836.301 1.471.719 1.905.417.433 1.07.65 1.956.65.5 0 .92-.044 1.26-.132a4.47 4.47 0 0 0 .772-.255l.199 1.208c-.174.092-.477.19-.91.294a6.377 6.377 0 0 1-1.474.154c-.693 0-1.291-.105-1.795-.317a3.341 3.341 0 0 1-1.246-.875 3.582 3.582 0 0 1-.726-1.323 5.66 5.66 0 0 1-.236-1.68zm5.454-.789c.011-.65-.15-1.184-.48-1.602-.332-.418-.787-.627-1.368-.627-.327 0-.614.064-.864.193a2.04 2.04 0 0 0-.634.504 2.323 2.323 0 0 0-.405.712c-.096.268-.16.542-.19.82h3.942zm4.788-2.895c.173-.113.435-.232.787-.356a3.635 3.635 0 0 1 1.214-.186c.571 0 1.078.104 1.52.31.435.2.82.496 1.124.867.306.372.537.815.695 1.332.158.515.237 1.083.237 1.702 0 .65-.094 1.237-.283 1.758a3.715 3.715 0 0 1-.801 1.323 3.533 3.533 0 0 1-1.254.836 4.397 4.397 0 0 1-1.65.294 9.885 9.885 0 0 1-1.757-.139c-.51-.093-.928-.186-1.253-.278V10.248l1.42-.248v4.32zm0 6.44c.143.042.343.08.603.117.26.036.584.054.97.054.764 0 1.375-.255 1.834-.767.458-.51.687-1.235.687-2.175 0-.413-.04-.8-.121-1.16a2.628 2.628 0 0 0-.398-.938 1.929 1.929 0 0 0-.71-.618c-.29-.15-.64-.225-1.047-.225-.387 0-.744.066-1.07.201-.326.135-.575.274-.748.418v5.094zm7.415 1.255V10.248l1.42-.248v4.118c.275-.106.56-.186.849-.24.294-.056.594-.085.894-.085.631 0 1.156.09 1.573.27.418.181.752.434 1.001.76.25.325.426.714.528 1.168.101.454.152.955.152 1.502v4.52h-1.421v-4.21c0-.496-.033-.919-.1-1.27-.065-.35-.175-.635-.328-.85a1.302 1.302 0 0 0-.61-.473c-.255-.099-.571-.147-.948-.147-.153 0-.311.01-.474.03a9.57 9.57 0 0 0-.466.07 4.794 4.794 0 0 0-.398.085c-.085.021-.169.047-.252.078v6.688h-1.42zm15.575-4.026c0 .64-.092 1.218-.275 1.734-.183.517-.44.96-.772 1.332-.328.37-.732.663-1.184.86a3.684 3.684 0 0 1-1.497.3 3.684 3.684 0 0 1-1.498-.3 3.396 3.396 0 0 1-1.184-.86 3.961 3.961 0 0 1-.772-1.332 5.152 5.152 0 0 1-.275-1.734c0-.63.092-1.204.275-1.726.184-.521.44-.967.772-1.34.329-.369.733-.662 1.184-.858a3.684 3.684 0 0 1 1.498-.302c.54 0 1.039.1 1.497.302.458.201.853.487 1.184.859.331.372.589.818.772 1.34.183.52.275 1.096.275 1.725zm-1.482 0c0-.908-.202-1.628-.604-2.16-.402-.531-.95-.796-1.642-.796-.693 0-1.24.265-1.643.797-.403.531-.603 1.251-.603 2.16 0 .908.2 1.627.603 2.159.402.532.95.797 1.643.797.693 0 1.24-.265 1.642-.797.403-.532.604-1.251.604-2.16zm5.169 2.988c.58 0 1.011-.077 1.291-.232.28-.154.42-.403.42-.743 0-.35-.137-.63-.412-.836-.275-.206-.729-.438-1.36-.696a20.58 20.58 0 0 1-.879-.38 3.076 3.076 0 0 1-.726-.457 1.99 1.99 0 0 1-.489-.635c-.122-.247-.183-.552-.183-.913 0-.712.26-1.277.78-1.695.519-.418 1.227-.627 2.123-.627.224 0 .449.013.673.038.224.026.432.057.626.093.194.037.364.075.512.116.148.042.262.078.344.11l-.26 1.237c-.152-.082-.392-.167-.718-.255a4.547 4.547 0 0 0-1.177-.132c-.397 0-.743.08-1.039.24a.796.796 0 0 0-.443.751c0 .176.033.33.1.464.066.135.168.256.305.365.138.108.308.208.512.301.204.093.448.191.733.295.377.144.713.286 1.009.425.274.126.528.29.756.488.21.186.37.41.482.674.112.262.168.585.168.967 0 .743-.273 1.305-.818 1.687-.545.382-1.322.573-2.33.573-.703 0-1.253-.059-1.65-.178a8.67 8.67 0 0 1-.81-.27l.26-1.24c.163.063.422.155.78.28.356.123.829.185 1.42.185zm6.132-7.013h3.01v1.208h-3.01v3.715c0 .403.03.735.091.999.061.263.153.47.275.619.122.15.276.256.458.318.184.062.399.092.642.092.429 0 .772-.049 1.032-.147.26-.098.44-.168.543-.209l.275 1.193a5.263 5.263 0 0 1-.75.27 4.203 4.203 0 0 1-1.221.163c-.54 0-.986-.07-1.338-.209a1.946 1.946 0 0 1-.848-.627 2.528 2.528 0 0 1-.45-1.03 6.86 6.86 0 0 1-.13-1.416v-7.183l1.42-.248v2.492zM58.773 26.628c.61 0 1.078.11 1.405.333.327.223.49.586.49 1.092 0 .51-.166.877-.496 1.103-.33.227-.803.34-1.417.34h-.289v1.418h-.92v-4.176c.21-.042.423-.07.637-.086.224-.016.42-.024.59-.024zm.06.813c-.067 0-.133.002-.199.006a7.34 7.34 0 0 0-.168.012v1.223h.29c.318 0 .558-.044.72-.134.16-.09.241-.257.241-.501a.621.621 0 0 0-.062-.294.48.48 0 0 0-.176-.187.779.779 0 0 0-.28-.097 2.236 2.236 0 0 0-.367-.028zm3.823 1.352c0 .208.024.395.073.562.05.167.12.31.213.431.093.12.205.213.34.278.133.066.286.098.46.098.169 0 .322-.032.457-.098a.94.94 0 0 0 .342-.278 1.3 1.3 0 0 0 .213-.43c.05-.168.074-.355.074-.563 0-.209-.025-.397-.074-.566a1.3 1.3 0 0 0-.213-.434.94.94 0 0 0-.342-.278c-.143-.067-.3-.1-.457-.098-.174 0-.327.033-.46.1a.977.977 0 0 0-.34.282c-.093.12-.163.265-.213.434-.049.17-.073.356-.073.56zm3.122 0c0 .362-.052.681-.157.956-.093.258-.239.494-.427.691a1.75 1.75 0 0 1-.647.42 2.27 2.27 0 0 1-.805.14c-.28 0-.543-.047-.791-.14a1.81 1.81 0 0 1-.65-.42 1.966 1.966 0 0 1-.436-.69 2.649 2.649 0 0 1-.16-.957c0-.363.055-.682.166-.957a2.04 2.04 0 0 1 .446-.694c.184-.186.405-.33.649-.423.245-.094.504-.14.776-.14.28 0 .543.047.79.14.248.094.464.235.65.423.185.187.33.418.436.694.107.275.16.594.16.957zm3.989-1.664c.047.167.1.356.156.566.057.21.118.427.183.651.065.225.131.448.198.673.067.224.132.432.194.624a24.509 24.509 0 0 0 .307-1.438 118.545 118.545 0 0 0 .266-1.528h.956c-.14.723-.299 1.443-.475 2.158-.17.7-.364 1.393-.581 2.08h-.844a28.732 28.732 0 0 1-.402-1.233c-.13-.43-.258-.861-.383-1.293l-.378 1.293c-.125.43-.257.841-.395 1.232h-.844c-.217-.686-.411-1.38-.582-2.079a45.276 45.276 0 0 1-.475-2.158h.998a54.065 54.065 0 0 0 .434 2.287c.052.244.106.47.161.679.071-.2.14-.412.208-.636.066-.225.13-.45.194-.673.063-.224.121-.44.174-.648.053-.208.101-.394.145-.557h.785zm3.387 3.786v-4.238h2.762v.801h-1.842v.831h1.635v.783h-1.635v1.022h1.978v.8h-2.898zm5.31-4.287c.614 0 1.085.113 1.411.34.326.225.49.577.49 1.054 0 .298-.066.54-.198.725a1.308 1.308 0 0 1-.57.436c.083.107.17.228.26.365a9.552 9.552 0 0 1 .756 1.366H79.58l-.227-.421c-.147-.274-.305-.54-.475-.798a4.133 4.133 0 0 0-.237-.327h-.454v1.547h-.92v-4.177c.205-.041.413-.07.622-.086.215-.016.406-.024.575-.024zm.054.813c-.06 0-.12.002-.18.006l-.15.012v1.15h.259c.346 0 .594-.044.743-.135.15-.09.225-.242.225-.458 0-.208-.076-.356-.228-.443-.151-.088-.374-.132-.67-.132zm3.221 3.473v-4.237h2.762v.801H82.66v.831h1.635v.783H82.66v1.022h1.977v.8H81.74zm5.034-.776a5.365 5.365 0 0 0 .354.012c.46 0 .801-.12 1.024-.36.222-.241.333-.573.333-.997 0-.445-.106-.781-.318-1.01-.213-.228-.55-.342-1.01-.342l-.195.003a1.778 1.778 0 0 0-.188.015v2.679zm2.661-1.345c0 .366-.054.686-.165.96-.101.26-.262.493-.469.678a1.98 1.98 0 0 1-.74.404 3.322 3.322 0 0 1-.98.135c-.166 0-.359-.008-.579-.023a4.422 4.422 0 0 1-.649-.088v-4.127a5.22 5.22 0 0 1 .664-.083c.197-.013.395-.02.593-.02.322-.005.642.036.953.12.285.082.53.21.735.386.205.176.362.4.472.673.11.273.165.601.165.985zm4.62 2.177c-.224 0-.447-.008-.67-.023a4.58 4.58 0 0 1-.694-.1v-4.109c.205-.039.412-.067.62-.083a7.74 7.74 0 0 1 .626-.027c.26 0 .499.02.717.058.218.039.406.105.564.2.157.092.28.216.368.369.089.152.133.34.133.565 0 .338-.157.606-.472.801.26.102.437.24.531.416.095.175.142.373.142.593 0 .444-.156.78-.47 1.003-.312.224-.777.337-1.395.337zm-.467-1.903v1.095a4.705 4.705 0 0 0 .478.024c.276 0 .498-.04.667-.121.17-.082.255-.233.255-.453 0-.196-.071-.335-.213-.42-.142-.082-.344-.125-.608-.125h-.578zm0-.727h.45c.282 0 .485-.038.607-.113.122-.075.183-.197.183-.364 0-.171-.063-.292-.189-.36-.125-.07-.31-.105-.555-.105l-.253.003a2.66 2.66 0 0 0-.243.016v.923zm4.904.08c.165-.29.323-.58.472-.869.148-.286.286-.578.413-.874h1.015c-.22.448-.452.89-.696 1.327-.24.428-.494.858-.761 1.29v1.62h-.921v-1.608c-.265-.426-.52-.858-.765-1.296a27.937 27.937 0 0 1-.7-1.333h1.07c.125.293.261.585.406.874.146.29.301.58.467.869zm7.358-1.743h.921v4.237h-.92v-1.797h-1.547v1.797h-.92v-4.237h.92v1.62h1.546v-1.62zm3.175 2.116c0 .208.024.395.073.562.05.167.12.31.213.431.092.12.205.213.339.278.134.066.287.098.46.098.17 0 .322-.032.458-.098a.945.945 0 0 0 .342-.278 1.31 1.31 0 0 0 .213-.43c.049-.168.073-.355.073-.563 0-.209-.024-.397-.073-.566a1.3 1.3 0 0 0-.213-.434.94.94 0 0 0-.342-.278c-.143-.067-.3-.1-.458-.098-.173 0-.326.033-.46.1a.977.977 0 0 0-.34.282c-.092.12-.163.265-.212.434-.05.17-.074.356-.074.56zm3.121 0c0 .362-.051.681-.156.956-.093.258-.24.494-.428.691a1.75 1.75 0 0 1-.646.42 2.27 2.27 0 0 1-.806.14c-.279 0-.542-.047-.79-.14a1.81 1.81 0 0 1-.65-.42 1.966 1.966 0 0 1-.436-.69 2.649 2.649 0 0 1-.16-.957c0-.363.055-.682.165-.957.11-.276.26-.507.446-.694.184-.186.406-.33.65-.423.245-.094.504-.14.775-.14.28 0 .544.047.791.14.248.094.464.235.65.423.185.187.33.418.436.694.107.275.16.594.16.957zm2.42 1.394c.13 0 .237-.012.321-.034a.584.584 0 0 0 .204-.091.306.306 0 0 0 .106-.139.507.507 0 0 0 .03-.176.413.413 0 0 0-.19-.346c-.125-.092-.342-.19-.648-.297a4.798 4.798 0 0 1-.402-.168 1.474 1.474 0 0 1-.36-.238 1.137 1.137 0 0 1-.26-.348 1.132 1.132 0 0 1-.1-.499c0-.196.035-.372.106-.53.071-.156.171-.29.301-.4.13-.11.288-.195.473-.254a2.05 2.05 0 0 1 .625-.088 2.456 2.456 0 0 1 1.21.293l-.266.753a2.467 2.467 0 0 0-.38-.162 1.595 1.595 0 0 0-.505-.07c-.22 0-.378.03-.475.094-.096.063-.144.16-.144.29 0 .078.017.143.052.196.04.058.092.107.151.144.065.042.14.081.224.116.085.035.179.07.28.107.213.081.398.162.555.242.158.08.289.172.393.278.104.106.182.23.233.373.051.142.077.316.077.52 0 .395-.134.702-.402.92-.267.218-.67.327-1.21.327a3.063 3.063 0 0 1-.876-.116 2.169 2.169 0 0 1-.493-.208l.26-.759c.122.07.273.132.452.187.179.055.398.083.658.083zm5.77-3.51v.813h-1.232v3.424h-.922v-3.423h-1.233v-.814h3.387zm1.127 0h.921v4.237h-.92v-4.237zm5.146 4.237a21.47 21.47 0 0 0-.856-1.437 14.567 14.567 0 0 0-.98-1.339v2.776h-.909v-4.237h.75c.13.134.273.3.43.495a18.973 18.973 0 0 1 .968 1.317c.162.24.314.468.455.689v-2.501h.915v4.237h-.773zm4.249-3.503c-.43 0-.74.123-.93.37-.191.246-.287.583-.287 1.011 0 .209.024.397.071.566.048.17.118.315.213.437a.968.968 0 0 0 .354.285c.142.067.307.1.496.1.102 0 .19-.001.262-.005.073-.005.137-.013.192-.025v-1.474h.92v2.098c-.11.044-.287.092-.53.144a4.52 4.52 0 0 1-.904.076 2.273 2.273 0 0 1-.834-.147 1.741 1.741 0 0 1-.641-.428 1.923 1.923 0 0 1-.41-.69 2.818 2.818 0 0 1-.145-.936c0-.355.054-.669.16-.942.097-.259.246-.495.436-.694.185-.19.407-.336.653-.431.255-.099.526-.149.8-.147.312-.003.623.042.923.131.152.045.298.11.434.193l-.266.765a2.353 2.353 0 0 0-.434-.181 1.785 1.785 0 0 0-.534-.076zm2.683 3.503v-4.237h2.763v.801h-1.841v.831h1.634v.783h-1.634v1.022h1.977v.8h-2.898zm5.311-4.286c.615 0 1.085.113 1.411.34.327.225.49.577.49 1.054 0 .298-.066.54-.198.725a1.308 1.308 0 0 1-.57.436c.083.107.17.228.26.365a9.552 9.552 0 0 1 .756 1.366h-1.033l-.227-.421c-.146-.274-.305-.54-.475-.798a4.133 4.133 0 0 0-.236-.327h-.455v1.547h-.92v-4.177c.205-.041.413-.07.622-.086.214-.016.406-.024.575-.024zm.054.813c-.06 0-.12.002-.18.006l-.15.012v1.15h.259c.346 0 .595-.044.743-.135.15-.09.225-.242.225-.458 0-.208-.076-.356-.227-.443-.152-.088-.375-.132-.67-.132z"/>
        <path fill="#D10303" d="M16.49 16.158C14.35 35.907 31.987 38.953 36.997 33.28 28.178 55.288 7.462 30.391 16.49 16.158zm-3.393-2.469C5.48 14.792-5.844 39.215 7.567 36.432c-8.245-2.995.052-20.274 5.53-22.742v-.001zm0-3.099C10.437 9.33.731 13.06 0 20.57c1.826-3.992 6.575-9.402 13.097-9.98zm3.34-2.784c-4.07-3.204-8.923.474-10.436 1.314 4.07-4.78 10.175-3.992 10.436-1.313zm3.861-.997c2.818-2.574-1.408-7.459-5.479-3.52 1.462-.63 6.366-1.47 5.48 3.52zm4.645.735C30.317 2.397 25.829.4 24.42.295c7.514-1.943 4.174 6.304.522 7.249zm.886 3.151c5.585 2.154 22.23-7.143 8.977-8.981 3.026.735 3.704 6.88-8.976 8.981zm-3.913 4.675c3.705 10.767 36.788 9.769 22.542-4.78 3.079 4.99-4.591 13.866-22.542 4.78z"/>
    </g>
</svg>
