<svg width="151" height="30" fill="none" xmlns="http://www.w3.org/2000/svg"><path fill-rule="evenodd" clip-rule="evenodd" d="M45.61 8.898h2.814v12.463H45.61v-5.287h-4.726v5.287H38.07V8.898h2.814v4.766h4.726V8.898zm46.445 12.464h2.814V8.898h-2.814v12.464zm35.965 0V8.897h8.441v2.356h-5.628V13.7h4.997v2.302h-4.997v3.004h6.043v2.355h-8.856zm-20.555 0a62.525 62.525 0 0 0-2.615-4.227 43.004 43.004 0 0 0-2.994-3.939v8.165h-2.778V8.898h2.291c.396.396.835.881 1.317 1.457.48.576.97 1.19 1.469 1.844.499.653.995 1.33 1.488 2.031.493.702.956 1.376 1.389 2.024V8.898h2.796v12.463h-2.363zM88.932 8.897v2.393h-3.77v10.07h-2.814v-10.07h-3.77V8.898h10.354zm55.164 2.248a7.61 7.61 0 0 0-.55.018l-.46.036v3.38h.794c1.057 0 1.815-.13 2.272-.394.457-.264.685-.714.685-1.35 0-.611-.231-1.045-.694-1.303-.463-.258-1.145-.387-2.047-.387zm-.161-2.392c1.876 0 3.312.333 4.31.998.998.666 1.498 1.7 1.498 3.103 0 .875-.202 1.586-.605 2.131-.402.545-.982.974-1.74 1.286.253.312.517.668.793 1.07.277.402.551.821.821 1.259.271.438.532.893.785 1.366.252.474.487.939.703 1.394h-3.145c-.23-.407-.463-.82-.697-1.24a31.782 31.782 0 0 0-1.458-2.347 12.228 12.228 0 0 0-.724-.963h-1.389v4.55h-2.814V9.078c.614-.12 1.248-.204 1.903-.252a24.183 24.183 0 0 1 1.759-.072zm-88.943 6.367c0 .611.075 1.163.225 1.654.15.492.367.915.65 1.268.282.354.628.627 1.037.818.409.193.878.289 1.407.289.517 0 .983-.096 1.398-.289a2.844 2.844 0 0 0 1.046-.818c.282-.353.5-.776.65-1.268.15-.491.225-1.043.225-1.654 0-.612-.075-1.166-.226-1.664a3.772 3.772 0 0 0-.65-1.277 2.848 2.848 0 0 0-1.045-.818 3.293 3.293 0 0 0-1.398-.287c-.53 0-.998.098-1.407.296-.409.198-.755.474-1.037.828-.283.353-.5.779-.65 1.276a5.678 5.678 0 0 0-.225 1.646zm9.544 0c0 1.067-.16 2.005-.478 2.814-.32.81-.755 1.487-1.308 2.032a5.364 5.364 0 0 1-1.975 1.232 7.186 7.186 0 0 1-2.462.414c-.854 0-1.66-.138-2.417-.414a5.55 5.55 0 0 1-1.984-1.232c-.566-.545-1.01-1.222-1.335-2.032-.325-.809-.487-1.747-.487-2.814s.168-2.005.505-2.814c.337-.81.79-1.49 1.362-2.042a5.598 5.598 0 0 1 1.984-1.24 6.82 6.82 0 0 1 2.372-.415c.853 0 1.659.138 2.417.414.757.276 1.419.69 1.984 1.241.565.552 1.01 1.232 1.335 2.042.324.809.486 1.747.486 2.814zm7.075 4.1c.396 0 .724-.032.982-.099.259-.066.466-.155.623-.27a.902.902 0 0 0 .324-.404c.06-.156.09-.33.09-.522 0-.407-.192-.746-.577-1.016-.385-.27-1.046-.56-1.983-.872-.41-.144-.818-.31-1.227-.495a4.506 4.506 0 0 1-1.1-.701 3.354 3.354 0 0 1-.794-1.026c-.204-.4-.307-.89-.307-1.465 0-.576.109-1.094.325-1.556.217-.461.523-.854.92-1.178a4.215 4.215 0 0 1 1.443-.746c.565-.174 1.202-.261 1.912-.261.841 0 1.569.09 2.182.27.613.18 1.118.378 1.515.594l-.811 2.212a7.746 7.746 0 0 0-1.164-.477c-.427-.138-.94-.207-1.542-.207-.673 0-1.157.093-1.452.28-.294.185-.442.47-.442.853 0 .228.054.42.163.576.108.156.261.296.46.422.198.126.426.24.685.342.258.102.544.207.857.315.649.24 1.214.476 1.695.71.481.234.881.507 1.2.819.318.311.556.677.712 1.097.156.42.235.929.235 1.528 0 1.163-.41 2.065-1.227 2.707-.818.641-2.05.962-3.698.962-.553 0-1.052-.033-1.497-.099a9.773 9.773 0 0 1-1.181-.243 6.8 6.8 0 0 1-.884-.305 6.696 6.696 0 0 1-.622-.306l.794-2.23c.372.204.832.387 1.38.548.546.162 1.217.243 2.01.243zm48.522-8.165c-1.31 0-2.257.363-2.84 1.088-.583.726-.875 1.718-.875 2.977 0 .611.072 1.166.216 1.663.145.498.361.926.65 1.286.289.36.649.639 1.082.837.433.197.938.296 1.515.296.312 0 .58-.006.803-.018.222-.012.418-.035.586-.072V14.78h2.814v6.169c-.337.132-.878.272-1.624.422-.745.15-1.665.225-2.759.225-.938 0-1.789-.144-2.552-.431a5.341 5.341 0 0 1-1.958-1.26c-.54-.55-.958-1.229-1.253-2.032-.295-.802-.442-1.72-.442-2.75 0-1.044.163-1.967.487-2.77.325-.804.769-1.485 1.335-2.042a5.622 5.622 0 0 1 1.993-1.268 6.866 6.866 0 0 1 2.444-.432 9.935 9.935 0 0 1 2.822.387 5.616 5.616 0 0 1 1.326.567l-.811 2.247a7.384 7.384 0 0 0-1.326-.53 5.654 5.654 0 0 0-1.633-.225zM18.893 26.118v-6.274l-9.457-.007c.009.042-7.324-3.995-7.324-3.995l24.06.113V30l-7.28-3.882zm-18.393 0v-9.179l7.09 4.13v8.734L.5 26.118zm0-12.072V0l7.09 3.78v6.329l9.384.004 7.203 3.933H.5zm18.39-5.095V0l7.28 3.686v9.494l-7.28-4.23z" fill="#2F1C6A"/></svg>