<svg height="66" viewBox="0 0 191 66" width="191" xmlns="http://www.w3.org/2000/svg"><g fill="#fff" fill-rule="evenodd"><path d="m88.81 30.698h-3.76v-5.775l.347-.346h-7.925l.348.346v5.775h-3.76v-15.541h3.76v5.775l-.348.345h7.925l-.347-.345v-5.775h3.76zm11.088-12.433c-3.162 0-4.473 1.938-4.473 4.739 0 2.744 1.31 4.586 4.473 4.586 3.182 0 4.454-1.842 4.454-4.586s-1.292-4.739-4.454-4.739m-.02 12.625c-5.417 0-8.271-3.262-8.271-7.886 0-4.566 2.854-8.039 8.272-8.039 5.457 0 8.291 3.454 8.291 8.039 0 4.624-2.95 7.886-8.291 7.886m17.875 0c-2.95 0-5.63-.96-7.559-2.725l2.565-2.571c1.273 1.228 3.529 2.015 5.322 2.015 2.275 0 3.047-.576 3.047-1.363 0-.306-.29-1.036-2.295-1.515a159.18 159.18 0 0 1 -2.892-.69c-2.777-.672-5.457-1.708-5.457-4.452 0-2.61 2.564-4.624 7.076-4.624 2.989 0 5.438 1.017 7.096 2.705l-2.603 2.552c-.925-1.074-2.834-1.995-4.55-1.995-2.218-.02-3.201.594-3.201 1.266 0 .595.732.863 3.065 1.439.347.096 2.14.537 2.507.614 3.317.767 5.071 2.552 5.071 4.7 0 2.456-2.275 4.644-7.192 4.644m23.101-12.452h-5.592l.193.345v11.915h-3.76v-11.915l.192-.345h-5.591v-3.281h14.558zm2.218 12.26h3.76v-15.541h-3.76zm22.077 0h-3.104l-6.517-7.656-1.33-1.957h-.04v9.613h-3.759v-15.541h3.104l6.633 7.713 1.215 1.803h.039v-9.516h3.76zm18.994.019h-3.297v-1.209c-.964.825-2.738 1.382-4.339 1.382-5.418 0-8.56-3.09-8.56-7.828 0-4.835 3.22-8.097 8.676-8.097 2.815 0 5.168.92 6.556 2.417l-2.545 2.533c-.945-1.113-2.295-1.67-3.992-1.67-3.335 0-4.878 1.728-4.878 4.817 0 2.935 1.446 4.547 4.763 4.547 2.217 0 3.798-1.094 4.088-2.706l.347-.345h-5.477v-3.28h8.658zm4.802.153c-1.253 0-1.91-.863-1.91-2.053 0-1.17.657-2.033 1.91-2.033s1.909.863 1.909 2.033c0 1.19-.675 2.053-1.91 2.053m-106.307 7.551h-5.303l.419.417v3.47l-.419.417h5.047c2.326 0 3.14-1.157 3.14-2.129 0-1.272-.884-2.175-2.884-2.175zm9.699 14.788h-5.07l-2.675-4.976c-.698-1.273-1.652-1.874-3.768-1.874h-3.465l.395.393v6.457h-4.535v-18.745h9.42c3.813 0 7.488 1.851 7.488 5.97 0 1.829-1.465 3.703-3.093 4.444v.046c.628.3 1.325.925 1.86 1.92zm18.373 0h-16.164v-18.745h16.164v3.957h-12.047l.418.417v2.592l-.418.416h10.93v3.98h-10.93l.418.417v2.592l-.418.416h12.047zm23.444-18.745-8.791 18.745h-3.884l-8.792-18.745h5.024l5.07 11.224.651 1.874h.047l.605-1.874 5.093-11.224zm2.558 18.745h4.536v-18.745h-4.536zm25.002 0h-16.164v-18.745h16.164v3.957h-12.047l.418.417v2.592l-.418.416h10.93v3.98h-10.93l.418.417v2.592l-.418.416h12.047zm28.305-18.745-5.652 18.745h-4.675l-2.349-8.077-.395-2.129h-.046l-.442 2.13-2.326 8.076h-4.559l-5.651-18.745h4.79l2.792 9.812.465 2.083h.046l.419-2.083 2.837-9.812h3.42l2.837 9.812.465 2.036h.046l.396-2.036 2.837-9.812z"/><path d="m61.436 56.032-3.26-1.532-4.528-2.13a28.507 28.507 0 0 1 -3.936 3.424 28.208 28.208 0 0 1 -16.547 5.336c-15.587 0-28.27-12.62-28.27-28.13s12.683-28.13 28.27-28.13c15.588 0 28.27 12.62 28.27 28.13v23.032zm-28.27-55.932c-18.235 0-33.066 14.758-33.066 32.9s14.832 32.9 33.065 32.9c8.15 0 15.618-2.947 21.388-7.828l6.883 3.237 4.795 2.256v-30.565c-.001-18.142-14.833-32.9-33.066-32.9z"/><path d="m44.927 26.925-.002.002c-.06.103-.12.207-.182.31-.268.451-.555.896-.863 1.336l-.186.26a19.847 19.847 0 0 1 -.487.648c-.15.195-.306.388-.464.58-.084.1-.168.202-.253.301a39.662 39.662 0 0 1 -.521.594l-.219.237-.203.217c-.316.334-.644.662-.981.984l-.19.179c-.108.103-.22.204-.33.304-.384.348-.777.69-1.183 1.022l-.207.169a41.657 41.657 0 0 1 -.919.716c-.018.011-.036.025-.054.039a32.224 32.224 0 0 1 -.963.692l-.044.03c-.17.117-.342.234-.516.347a34.369 34.369 0 0 1 -2.767 1.65 31.29 31.29 0 0 1 -1.403.708 31.274 31.274 0 0 1 -1.92.84c-.281.114-.563.224-.847.327-.107.04-.215.078-.323.117a30.442 30.442 0 0 1 -.73.249c-.28.093-.559.18-.84.262-.087.026-.172.052-.258.076-.13.038-.26.073-.39.107-.184.052-.368.1-.551.145-.072.018-.142.036-.212.052-.154.038-.308.074-.462.107a18.81 18.81 0 0 1 -.825.171c-.285.058-.571.108-.857.151l.5-3.878-8.541-8.747 12.137-2.237 5.994-10.486 5.993 10.486s7.08-.592 6.388-10.669c1.494 3.88.785 7.912-1.319 11.602"/><path d="m43.454 36.976 1.549 12.027-11.138-5.218-11.139 5.218.91-7.055c10.87-1.37 21.31-8.96 26.673-14.03 0 0-2.035 5.28-6.855 9.058"/></g></svg>