<?xml version="1.0" encoding="utf-8"?>
<!-- Generator: Adobe Illustrator 23.0.3, SVG Export Plug-In . SVG Version: 6.00 Build 0)  -->
<svg version="1.1" id="Layer_1" xmlns="http://www.w3.org/2000/svg" xmlns:xlink="http://www.w3.org/1999/xlink" x="0px" y="0px"
	 viewBox="0 0 82 82" style="enable-background:new 0 0 82 82;" xml:space="preserve">
<style type="text/css">
	.st0{fill-rule:evenodd;clip-rule:evenodd;fill:#55447F;}
	.st1{fill-rule:evenodd;clip-rule:evenodd;fill:#FEFEFE;}
</style>
<g>
	<path class="st0" d="M13.68,0h54.67c7.53,0,13.67,6.15,13.67,13.68v54.67c0,7.53-6.14,13.67-13.67,13.67H13.68
		C6.15,82.02,0,75.87,0,68.35V13.68C0,6.15,6.15,0,13.68,0L13.68,0z"/>
	<path class="st1" d="M53.4,51.13c-1.07,1.5-2.66,2.68-4.71,3.53c-2.03,0.83-4.47,1.25-7.24,1.25c-3.33,0-6.12-0.58-8.31-1.72
		c-1.55-0.83-2.84-1.94-3.81-3.34c-0.98-1.4-1.49-2.78-1.49-4.13c0-0.83,0.32-1.56,0.97-2.15c0.63-0.58,1.44-0.88,2.41-0.88
		c0.8,0,1.49,0.23,2.04,0.69c0.54,0.45,0.99,1.12,1.36,1.97c0.41,0.93,0.86,1.71,1.33,2.32c0.46,0.6,1.11,1.09,1.94,1.48
		c0.84,0.39,1.98,0.59,3.36,0.59c1.92,0,3.5-0.4,4.67-1.2c1.16-0.78,1.72-1.72,1.72-2.86c0-0.9-0.29-1.61-0.89-2.17
		c-0.64-0.58-1.46-1.03-2.48-1.34c-1.05-0.32-2.48-0.68-4.24-1.04c-2.41-0.51-4.46-1.12-6.07-1.8c-1.66-0.69-3-1.66-3.99-2.87
		c-0.31-0.39-0.58-0.83-0.79-1.28c-0.47-0.96-0.7-2.07-0.7-3.29c0-1.73,0.52-3.28,1.57-4.62c1.03-1.33,2.55-2.37,4.5-3.08
		c1.92-0.7,4.21-1.06,6.8-1.06c2.07,0,3.89,0.25,5.4,0.71c1.53,0.46,2.81,1.09,3.83,1.88c1.02,0.78,1.78,1.62,2.26,2.5
		c0.48,0.87,0.73,1.75,0.73,2.6c0,0.82-0.32,1.56-0.95,2.21c-0.64,0.65-1.44,0.97-2.39,0.97c-0.86,0-1.53-0.2-1.99-0.61
		c-0.44-0.38-0.88-0.97-1.38-1.82c-0.58-1.07-1.28-1.93-2.08-2.53c-0.78-0.58-2.09-0.87-3.87-0.87c-1.66,0-3.02,0.32-4.02,0.97
		c-0.96,0.63-1.43,1.34-1.43,2.19c0,0.53,0.15,0.96,0.46,1.33c0.33,0.4,0.79,0.75,1.38,1.04c0.6,0.3,1.24,0.55,1.86,0.71
		c0.12,0.03,0.26,0.07,0.4,0.11c0.66,0.17,1.6,0.39,2.8,0.66c1.88,0.4,3.61,0.85,5.13,1.33c1.54,0.49,2.88,1.08,3.96,1.79
		c1.12,0.71,1.99,1.62,2.61,2.71c0.63,1.11,0.95,2.46,0.95,4.03C55.02,47.91,54.47,49.63,53.4,51.13L53.4,51.13z M64.15,45.11
		c0.36-1.57,0.54-3.22,0.54-4.9c0-0.58-0.03-1.15-0.08-1.72c-0.89-11.81-10.89-21.13-23.1-21.13c-1.35,0-2.67,0.11-3.95,0.33
		c-2.08-1.3-4.52-2.04-7.16-2.04c-7.43,0-13.43,5.94-13.43,13.27c0,2.45,0.67,4.73,1.84,6.7c-0.18,0.83-0.29,1.66-0.37,2.52
		c-0.07,0.68-0.1,1.37-0.1,2.07c0,12.63,10.37,22.86,23.17,22.86c1.45,0,2.87-0.13,4.24-0.38c1.9,0.99,4.06,1.56,6.35,1.56
		c7.44,0,13.44-5.93,13.44-13.25C65.55,48.89,65.04,46.89,64.15,45.11L64.15,45.11z"/>
</g>
</svg>
