<svg xmlns="http://www.w3.org/2000/svg" width="202" height="41" viewBox="0 0 202 41">
    <g fill="#6747C7" fill-rule="evenodd">
        <path d="M61.195 12H65v17h-3.805v-7.212h-6.39V29H51V12h3.805v6.5h6.39zM73.103 20.023c0 .817.101 1.554.303 2.21.203.658.494 1.222.875 1.695.38.473.845.837 1.395 1.093.55.257 1.18.385 1.893.385.696 0 1.323-.128 1.881-.385a3.825 3.825 0 0 0 1.407-1.093 5.03 5.03 0 0 0 .875-1.694c.202-.657.303-1.394.303-2.21 0-.818-.101-1.559-.303-2.224a5.027 5.027 0 0 0-.875-1.706 3.828 3.828 0 0 0-1.407-1.093c-.558-.256-1.185-.384-1.88-.384-.713 0-1.344.132-1.894.396a3.972 3.972 0 0 0-1.395 1.106c-.38.472-.672 1.04-.875 1.705a7.536 7.536 0 0 0-.303 2.2zm12.84 0c0 1.426-.216 2.68-.644 3.76-.429 1.082-1.016 1.987-1.76 2.716a7.227 7.227 0 0 1-2.657 1.646 9.73 9.73 0 0 1-3.313.553 9.482 9.482 0 0 1-3.252-.553 7.476 7.476 0 0 1-2.67-1.646c-.76-.729-1.359-1.634-1.796-2.716-.437-1.08-.656-2.334-.656-3.76 0-1.426.227-2.68.68-3.76.453-1.082 1.064-1.991 1.833-2.728a7.541 7.541 0 0 1 2.67-1.658 9.235 9.235 0 0 1 3.191-.553c1.149 0 2.233.184 3.252.553a7.41 7.41 0 0 1 2.67 1.658c.76.737 1.36 1.646 1.796 2.728.437 1.08.655 2.334.655 3.76zM95.463 25.502c.534 0 .975-.044 1.323-.132.347-.088.627-.208.837-.361.21-.152.356-.332.437-.54.081-.208.121-.44.121-.697 0-.544-.259-.998-.776-1.358-.518-.36-1.408-.749-2.67-1.166-.55-.191-1.1-.412-1.65-.66a6.073 6.073 0 0 1-1.481-.937 4.486 4.486 0 0 1-1.068-1.37c-.275-.537-.412-1.19-.412-1.958 0-.77.145-1.462.436-2.079a4.45 4.45 0 0 1 1.238-1.574c.534-.433 1.181-.765 1.942-.998.76-.231 1.618-.348 2.573-.348 1.132 0 2.111.12 2.936.36.825.24 1.505.506 2.039.794l-1.092 2.955c-.47-.24-.992-.452-1.566-.637-.574-.183-1.266-.276-2.074-.276-.907 0-1.558.125-1.955.373-.396.248-.595.629-.595 1.14 0 .306.074.562.22.77.145.208.351.397.618.565.267.168.575.32.923.456.347.137.731.276 1.153.42.873.321 1.633.638 2.28.95.648.313 1.186.677 1.615 1.093.428.417.748.906.959 1.466.21.562.315 1.242.315 2.042 0 1.554-.55 2.76-1.65 3.617-1.101.857-2.76 1.286-4.976 1.286a13.93 13.93 0 0 1-2.014-.132 13.258 13.258 0 0 1-1.59-.325 9.196 9.196 0 0 1-1.19-.408 9.037 9.037 0 0 1-.837-.409l1.068-2.98c.501.273 1.12.517 1.857.733.736.217 1.638.325 2.706.325M118.77 11.709v3.196h-5.073v13.456h-3.786V14.905h-5.073V11.71zM122.975 28.362h3.786V11.709h-3.786zM143.71 28.361a83.618 83.618 0 0 0-3.52-5.647 57.606 57.606 0 0 0-4.029-5.262v10.91h-3.738V11.708h3.083a29.51 29.51 0 0 1 1.772 1.946c.647.77 1.305 1.59 1.977 2.464a85.872 85.872 0 0 1 2.003 2.714c.663.938 1.286 1.838 1.869 2.704v-9.828h3.762v16.652h-3.18M160.753 14.593c-1.762 0-3.037.484-3.822 1.453-.785.97-1.177 2.295-1.177 3.978 0 .816.097 1.557.291 2.222.195.664.486 1.237.874 1.718.389.48.874.853 1.456 1.118.583.264 1.262.396 2.039.396.42 0 .78-.008 1.08-.024.3-.016.562-.048.789-.096v-5.791h3.786v8.242c-.453.176-1.18.364-2.184.564-1.003.2-2.241.3-3.714.3-1.262 0-2.407-.192-3.434-.576a7.192 7.192 0 0 1-2.634-1.682c-.727-.737-1.29-1.642-1.686-2.715-.397-1.073-.595-2.299-.595-3.676 0-1.395.219-2.628.656-3.702.437-1.072 1.035-1.982 1.796-2.727a7.578 7.578 0 0 1 2.681-1.694 9.3 9.3 0 0 1 3.29-.577 13.465 13.465 0 0 1 3.797.517 7.62 7.62 0 0 1 1.784.757l-1.092 3.003a9.995 9.995 0 0 0-1.783-.708c-.672-.2-1.404-.3-2.198-.3M171.367 28.361V11.71h11.358v3.148h-7.572v3.268h6.723V21.2h-6.723v4.013h8.131v3.147zM192.998 14.713c-.275 0-.52.008-.74.023l-.619.048v4.518h1.069c1.423 0 2.443-.176 3.057-.528.616-.352.923-.953.923-1.803 0-.817-.312-1.397-.935-1.742-.623-.344-1.54-.516-2.755-.516m-.218-3.197c2.525 0 4.458.445 5.8 1.334 1.343.89 2.015 2.27 2.015 4.145 0 1.17-.27 2.12-.813 2.848-.541.729-1.322 1.302-2.342 1.718.34.417.696.893 1.068 1.43.372.537.74 1.098 1.105 1.682.363.585.716 1.193 1.055 1.826.34.633.655 1.254.946 1.862h-4.232c-.309-.544-.622-1.097-.938-1.658a39.63 39.63 0 0 0-.975-1.634 43.938 43.938 0 0 0-.986-1.501c-.325-.473-.65-.902-.974-1.287h-1.87v6.08h-3.785V11.95c.825-.16 1.678-.273 2.56-.336.881-.065 1.67-.097 2.366-.097M0 19.196V.001l9.665 5.166v8.648l12.794.006 9.82 5.375H0zm25.075-6.964V0L35 5.037v12.975l-9.925-5.78zm0 23.462V27.12l-12.893-.009c.012.057-9.984-5.46-9.984-5.46L35 21.804V41l-9.925-5.306zM0 35.694V23.15l9.665 5.643v11.938L0 35.694z"/>
    </g>
</svg>
