<?xml version="1.0" encoding="UTF-8"?>
<svg width="202px" height="41px" viewBox="0 0 202 41" version="1.1" xmlns="http://www.w3.org/2000/svg" xmlns:xlink="http://www.w3.org/1999/xlink">
    <!-- Generator: Sketch 52.4 (67378) - http://www.bohemiancoding.com/sketch -->
    <title>white-hostinger</title>
    <desc>Created with Sketch.</desc>
    <g id="Page-1" stroke="none" stroke-width="1" fill="none" fill-rule="evenodd">
        <g id="white-hostinger" fill="#FFFFFF">
            <path d="M61.195,12 L65,12 L65,29 L61.195,29 L61.195,21.788 L54.805,21.788 L54.805,29 L51,29 L51,12 L54.805,12 L54.805,18.5 L61.195,18.5 L61.195,12 Z M73.103,20.023 C73.103,20.84 73.204,21.577 73.406,22.233 C73.609,22.891 73.9,23.455 74.281,23.928 C74.661,24.401 75.126,24.765 75.676,25.021 C76.226,25.278 76.856,25.406 77.569,25.406 C78.265,25.406 78.892,25.278 79.45,25.021 C79.9984965,24.7724969 80.480573,24.3980053 80.857,23.928 C81.2539973,23.4242813 81.5509986,22.8492868 81.732,22.234 C81.934,21.577 82.035,20.84 82.035,20.024 C82.035,19.206 81.934,18.465 81.732,17.8 C81.5524839,17.1804635 81.2554151,16.6012642 80.857,16.094 C80.4804932,15.6240758 79.9984377,15.2496006 79.45,15.001 C78.892,14.745 78.265,14.617 77.57,14.617 C76.857,14.617 76.226,14.749 75.676,15.013 C75.1333075,15.2713698 74.6563286,15.6495337 74.281,16.119 C73.901,16.591 73.609,17.159 73.406,17.824 C73.1969091,18.5383459 73.0948007,19.2797273 73.103,20.024 L73.103,20.023 Z M85.943,20.023 C85.943,21.449 85.727,22.703 85.299,23.783 C84.87,24.865 84.283,25.77 83.539,26.499 C82.7840002,27.2349077 81.877128,27.7967111 80.882,28.145 C79.8180733,28.519991 78.6970404,28.7071118 77.569,28.698 C76.461016,28.7050866 75.3603639,28.5179216 74.317,28.145 C73.3206202,27.7913086 72.4105941,27.2302963 71.647,26.499 C70.887,25.77 70.288,24.865 69.851,23.783 C69.414,22.703 69.195,21.449 69.195,20.023 C69.195,18.597 69.422,17.343 69.875,16.263 C70.328,15.181 70.939,14.272 71.708,13.535 C72.4716749,12.8009435 73.3814306,12.2360091 74.378,11.877 C75.4007893,11.5061445 76.4810634,11.3189331 77.569,11.324 C78.718,11.324 79.802,11.508 80.821,11.877 C81.819315,12.2323935 82.7297918,12.7977758 83.491,13.535 C84.251,14.272 84.851,15.181 85.287,16.263 C85.724,17.343 85.942,18.597 85.942,20.023 L85.943,20.023 Z M95.463,25.502 C95.997,25.502 96.438,25.458 96.786,25.37 C97.133,25.282 97.413,25.162 97.623,25.009 C97.833,24.857 97.979,24.677 98.06,24.469 C98.141,24.261 98.181,24.029 98.181,23.772 C98.181,23.228 97.922,22.774 97.405,22.414 C96.887,22.054 95.997,21.665 94.735,21.248 C94.185,21.057 93.635,20.836 93.085,20.588 C92.5486269,20.3489142 92.0497672,20.0332954 91.604,19.651 C91.1621389,19.26828 90.7993382,18.8028897 90.536,18.281 C90.261,17.744 90.124,17.091 90.124,16.323 C90.124,15.553 90.269,14.861 90.56,14.244 C90.8477223,13.6320902 91.271108,13.0937953 91.798,12.67 C92.332,12.237 92.979,11.905 93.74,11.672 C94.5,11.441 95.358,11.324 96.313,11.324 C97.445,11.324 98.424,11.444 99.249,11.684 C100.074,11.924 100.754,12.19 101.288,12.478 L100.196,15.433 C99.726,15.193 99.204,14.981 98.63,14.796 C98.056,14.613 97.364,14.52 96.556,14.52 C95.649,14.52 94.998,14.645 94.601,14.893 C94.205,15.141 94.006,15.522 94.006,16.033 C94.006,16.339 94.08,16.595 94.226,16.803 C94.371,17.011 94.577,17.2 94.844,17.368 C95.111,17.536 95.419,17.688 95.767,17.824 C96.114,17.961 96.498,18.1 96.92,18.244 C97.793,18.565 98.553,18.882 99.2,19.194 C99.848,19.507 100.386,19.871 100.815,20.287 C101.243,20.704 101.563,21.193 101.774,21.753 C101.984,22.315 102.089,22.995 102.089,23.795 C102.089,25.349 101.539,26.555 100.439,27.412 C99.338,28.269 97.679,28.698 95.463,28.698 C94.789358,28.7027567 94.1162584,28.6586409 93.449,28.566 C92.9128606,28.4902367 92.3818661,28.3817001 91.859,28.241 C91.4534852,28.132323 91.0558884,27.9960041 90.669,27.833 C90.3831539,27.7111473 90.1037828,27.5746327 89.832,27.424 L90.9,24.444 C91.401,24.717 92.02,24.961 92.757,25.177 C93.493,25.394 94.395,25.502 95.463,25.502 Z M118.77,11.709 L118.77,14.905 L113.697,14.905 L113.697,28.361 L109.911,28.361 L109.911,14.905 L104.838,14.905 L104.838,11.71 L118.77,11.709 Z M122.975,28.362 L126.761,28.362 L126.761,11.709 L122.975,11.709 L122.975,28.362 Z M143.71,28.361 C142.612058,26.4327074 141.437795,24.5488828 140.19,22.714 C138.949092,20.8841361 137.603866,19.1272294 136.161,17.452 L136.161,28.362 L132.423,28.362 L132.423,11.708 L135.506,11.708 C136.125313,12.3299909 136.716568,12.9793032 137.278,13.654 C137.925,14.424 138.583,15.244 139.255,16.118 C139.940372,17.009465 140.608167,17.9143062 141.258,18.832 C141.921,19.77 142.544,20.67 143.127,21.536 L143.127,11.708 L146.889,11.708 L146.889,28.36 L143.709,28.36 L143.71,28.361 Z M160.753,14.593 C158.991,14.593 157.716,15.077 156.931,16.046 C156.146,17.016 155.754,18.341 155.754,20.024 C155.754,20.84 155.851,21.581 156.045,22.246 C156.24,22.91 156.531,23.483 156.919,23.964 C157.308,24.444 157.793,24.817 158.375,25.082 C158.958,25.346 159.637,25.478 160.414,25.478 C160.834,25.478 161.194,25.47 161.494,25.454 C161.794,25.438 162.056,25.406 162.283,25.358 L162.283,19.567 L166.069,19.567 L166.069,27.809 C165.616,27.985 164.889,28.173 163.885,28.373 C162.882,28.573 161.644,28.673 160.171,28.673 C158.909,28.673 157.764,28.481 156.737,28.097 C155.746324,27.7361816 154.847097,27.1619593 154.103,26.415 C153.376,25.678 152.813,24.773 152.417,23.7 C152.02,22.627 151.822,21.401 151.822,20.024 C151.822,18.629 152.041,17.396 152.478,16.322 C152.915,15.25 153.513,14.34 154.274,13.595 C155.038187,12.8475638 155.951859,12.2702571 156.955,11.901 C158.007857,11.511688 159.122498,11.3162023 160.245,11.324 C161.528842,11.3144315 162.807454,11.4885274 164.042,11.841 C164.666461,12.0163771 165.265975,12.2707673 165.826,12.598 L164.734,15.601 C164.163743,15.3083763 163.56666,15.0712844 162.951,14.893 C162.279,14.693 161.547,14.593 160.753,14.593 Z M171.367,28.361 L171.367,11.71 L182.725,11.71 L182.725,14.858 L175.153,14.858 L175.153,18.126 L181.876,18.126 L181.876,21.2 L175.153,21.2 L175.153,25.213 L183.284,25.213 L183.284,28.36 L171.367,28.361 Z M192.998,14.713 C192.723,14.713 192.478,14.721 192.258,14.736 L191.639,14.784 L191.639,19.302 L192.708,19.302 C194.131,19.302 195.151,19.126 195.765,18.774 C196.381,18.422 196.688,17.821 196.688,16.971 C196.688,16.154 196.376,15.574 195.753,15.229 C195.13,14.885 194.213,14.713 192.998,14.713 Z M192.78,11.516 C195.305,11.516 197.238,11.961 198.58,12.85 C199.923,13.74 200.595,15.12 200.595,16.995 C200.595,18.165 200.325,19.115 199.782,19.843 C199.241,20.572 198.46,21.145 197.44,21.561 C197.78,21.978 198.136,22.454 198.508,22.991 C198.88,23.528 199.248,24.089 199.613,24.673 C199.976,25.258 200.329,25.866 200.668,26.499 C201.008,27.132 201.323,27.753 201.614,28.361 L197.382,28.361 C197.073,27.817 196.76,27.264 196.444,26.703 C196.132124,26.1506085 195.807031,25.6057848 195.469,25.069 C195.150594,24.5620014 194.821859,24.0615636 194.483,23.568 C194.158,23.095 193.833,22.666 193.509,22.281 L191.639,22.281 L191.639,28.361 L187.854,28.361 L187.854,11.95 C188.679,11.79 189.532,11.677 190.414,11.614 C191.295,11.549 192.084,11.517 192.78,11.517 L192.78,11.516 Z M0,19.196 L0,0.001 L9.665,5.167 L9.665,13.815 L22.459,13.821 L32.279,19.196 L0,19.196 Z M25.075,12.232 L25.075,0 L35,5.037 L35,18.012 L25.075,12.232 Z M25.075,35.694 L25.075,27.12 L12.182,27.111 C12.194,27.168 2.198,21.651 2.198,21.651 L35,21.804 L35,41 L25.075,35.694 Z M0,35.694 L0,23.15 L9.665,28.793 L9.665,40.731 L0,35.694 Z" id="Shape"></path>
        </g>
    </g>
</svg>