<svg width="75" height="23" viewBox="0 0 75 23" fill="none" xmlns="http://www.w3.org/2000/svg">
<path fill-rule="evenodd" clip-rule="evenodd" d="M9.81211 7.25668L4.7254 14.387L10.2088 13.7836V17.4334L0 18.4647V15.532L4.96582 8.50206L0.125555 9.07755V5.52346L9.81211 4.25118V7.25668ZM43.1745 10.2646C44.0114 9.96988 44.644 9.42802 45.0708 8.63955C45.5023 7.82993 45.601 7.00994 45.3657 6.18033C45.1282 5.34303 44.6244 4.73582 43.8561 4.35831C43.1022 3.99502 42.3082 3.96734 41.4748 4.27411C40.6445 4.57974 40.0183 5.12756 39.5946 5.91757C39.1762 6.72046 39.0846 7.53315 39.3186 8.35834C39.5505 9.17603 40.0428 9.7744 40.7969 10.155C41.5487 10.521 42.3409 10.5583 43.1745 10.2646ZM38.5725 1.32388C40.1895 0.174616 41.9516 -0.228847 43.8574 0.123102C45.7798 0.484854 47.2754 1.50591 48.3346 3.18416C49.3896 4.85587 49.6951 6.68904 49.2534 8.67425C48.8102 10.6395 47.7582 12.1684 46.1069 13.2638C44.4636 14.3533 42.7111 14.6981 40.8467 14.3068C38.9898 13.9114 37.5552 12.9055 36.5345 11.2878C35.5094 9.6634 35.1887 7.88789 35.5743 5.95189C35.9669 4.01088 36.9632 2.46757 38.5725 1.32369V1.32388ZM20.7731 2.85197V9.67432C20.7731 10.5158 20.4986 11.2663 19.9511 11.9252C19.4124 12.581 18.7609 12.9505 17.9982 13.0345C17.2383 13.1179 16.5905 12.8936 16.0533 12.3625C15.5175 11.8327 15.2502 11.1534 15.2502 10.3232V3.59124L11.8245 4.04948V10.7261C11.8245 12.5564 12.4179 14.0644 13.6106 15.2551C14.8102 16.4379 16.271 16.9451 17.9982 16.771C19.2686 16.643 20.1951 16.2005 20.7731 15.4418V15.9135C20.7731 16.7546 20.4986 17.5012 19.9511 18.1515C19.4124 18.7992 18.7609 19.1587 17.9982 19.231C17.9982 19.231 15.9771 19.4858 14.626 18.0342L12.4993 19.8685L11.814 20.4598C11.814 20.4598 13.9601 22.9903 17.3435 22.9999L17.3456 22.9961C17.5602 23.0007 17.7769 22.9984 17.9982 22.9794C19.7257 22.8316 21.215 22.0356 22.4609 20.5847C23.7141 19.1412 24.3475 17.4676 24.3551 15.5713V2.37277L20.7731 2.85197ZM34.4797 4.32218V1.08486C34.4797 1.08486 32.1253 1.11004 30.895 1.89275H30.8952C30.7167 1.99321 30.5486 2.11077 30.3934 2.24374L30.4025 1.62288L26.8561 2.09035V15.8556L30.1951 15.5663L30.3053 8.15479C30.3734 7.28847 30.8762 4.64683 34.4797 4.32218Z" fill="white"/>
<path d="M51.5117 12.0238C51.5117 12.3814 51.2218 12.6712 50.8642 12.6712C50.5067 12.6712 50.2168 12.3814 50.2168 12.0238C50.2168 11.6662 50.5067 11.3763 50.8642 11.3763C51.2218 11.3763 51.5117 11.6662 51.5117 12.0238Z" fill="white"/>
<path d="M55.404 7.43237C56.1228 7.43237 56.6974 7.73185 57.1279 8.3308L57.8691 7.80297C57.2589 6.94572 56.4372 6.51709 55.404 6.51709C54.558 6.51709 53.8355 6.82031 53.2366 7.42675C52.6414 8.03694 52.3438 8.77066 52.3438 9.62792C52.3438 10.4814 52.6414 11.2133 53.2366 11.8235C53.8355 12.4299 54.558 12.7331 55.404 12.7331C56.4372 12.7331 57.2589 12.3045 57.8691 11.4472L57.1279 10.9194C56.6974 11.5184 56.1228 11.8179 55.404 11.8179C54.8126 11.8179 54.3072 11.6026 53.8879 11.1721C53.4687 10.7453 53.259 10.2306 53.259 9.62792C53.259 9.02522 53.4687 8.50862 53.8879 8.07812C54.3072 7.64762 54.8126 7.43237 55.404 7.43237Z" fill="white"/>
<path d="M61.2933 6.51709C60.4472 6.51709 59.7248 6.82031 59.1258 7.42675C58.5306 8.03694 58.233 8.77066 58.233 9.62792C58.233 10.4814 58.5306 11.2133 59.1258 11.8235C59.7248 12.4299 60.4472 12.7331 61.2933 12.7331C62.1318 12.7331 62.8506 12.4299 63.4495 11.8235C64.0447 11.2133 64.3423 10.4814 64.3423 9.62792C64.3423 8.77066 64.0447 8.03694 63.4495 7.42675C62.8506 6.82031 62.1318 6.51709 61.2933 6.51709ZM61.2933 11.8179C60.7018 11.8179 60.1964 11.6026 59.7772 11.1721C59.3579 10.7453 59.1483 10.2306 59.1483 9.62792C59.1483 9.02522 59.3579 8.50862 59.7772 8.07812C60.1964 7.64762 60.7018 7.43237 61.2933 7.43237C61.881 7.43237 62.3845 7.64762 62.8038 8.07812C63.2193 8.50862 63.4271 9.02522 63.4271 9.62792C63.4271 10.2306 63.2193 10.7453 62.8038 11.1721C62.3845 11.6026 61.881 11.8179 61.2933 11.8179Z" fill="white"/>
<path d="M72.079 6.52271C71.626 6.52271 71.2011 6.64624 70.8043 6.89331C70.4225 7.13663 70.1099 7.46606 69.8666 7.88159C69.6195 7.46606 69.3051 7.13663 68.9232 6.89331C68.5264 6.64624 68.1015 6.52271 67.6486 6.52271C66.9747 6.52271 66.3851 6.77913 65.8798 7.29199V6.57886H64.9813V12.6714H65.8798V9.56615C65.8798 8.97468 66.052 8.46931 66.3964 8.05004C66.7445 7.63077 67.1619 7.42114 67.6486 7.42114C68.1352 7.42114 68.5507 7.63077 68.8951 8.05004C69.2433 8.47306 69.4174 8.9803 69.4174 9.57177V12.6714H70.3158V9.57177C70.3158 8.9803 70.488 8.47306 70.8324 8.05004C71.1768 7.63077 71.5923 7.42114 72.079 7.42114C72.5694 7.42114 72.9868 7.63077 73.3312 8.05004C73.6756 8.47306 73.8478 8.9803 73.8478 9.57177V12.6714H74.7462V9.57177C74.7462 8.72948 74.486 8.01074 73.9657 7.41552C73.4453 6.82031 72.8164 6.52271 72.079 6.52271Z" fill="white"/>
</svg>
