<svg width="204" height="204" viewBox="0 0 204 204" fill="none" xmlns="http://www.w3.org/2000/svg">
<g filter="url(#filter0_d)">
<rect x="14" y="8" width="176" height="176" rx="28" fill="#FA2356"/>
</g>
<path fill-rule="evenodd" clip-rule="evenodd" d="M153.783 91.3847C152.677 93.3953 151.037 94.7748 148.867 95.5274C146.705 96.2759 144.651 96.181 142.702 95.2473C140.746 94.2774 139.47 92.7522 138.869 90.6676C138.261 88.5644 138.5 86.491 139.585 84.4442C140.683 82.4312 142.307 81.034 144.46 80.2548C146.62 79.4733 148.679 79.5433 150.634 80.4697C152.626 81.4316 153.932 82.9802 154.548 85.1139C155.159 87.2291 154.902 89.3202 153.783 91.3847ZM150.638 69.6723C145.697 68.7749 141.128 69.8027 136.935 72.7333C132.763 75.6493 130.179 79.5836 129.162 84.5328C128.161 89.4683 128.993 93.9941 131.651 98.1352C134.298 102.259 138.018 104.825 142.832 105.832C147.666 106.83 152.211 105.951 156.472 103.173C160.753 100.381 163.48 96.4828 164.63 91.4716C165.775 86.4122 164.983 81.7374 162.248 77.4756C159.501 73.1969 155.624 70.5939 150.638 69.6723ZM37.3257 93.9743V84.8535L62.4766 81.5893V89.3013L49.2696 107.6L63.5069 106.051V115.416L37 118.063V110.537L49.8937 92.4982L37.3257 93.9743ZM90.2788 77.1181V94.5107C90.2788 96.6565 89.5669 98.5697 88.1474 100.249C86.7503 101.921 85.0609 102.863 83.0844 103.077C81.1136 103.291 79.4334 102.719 78.0404 101.364C76.6515 100.014 75.9587 98.2824 75.9587 96.1656V79.0023L67.0758 80.171V97.1918C67.0758 101.858 68.6145 105.703 71.7076 108.739C74.8173 111.754 78.6048 113.048 83.0844 112.604C86.3778 112.278 88.7798 111.148 90.2788 109.215V110.418C90.2788 112.562 89.5669 114.464 88.1474 116.123C86.7503 117.774 85.0609 118.69 83.0844 118.875C83.0844 118.875 77.8434 119.525 74.3397 115.825L68.8255 120.5L67.0485 122.007C67.0485 122.007 72.6131 128.459 81.3859 128.484C81.3876 128.481 81.3892 128.477 81.3917 128.474C81.9479 128.485 82.5099 128.48 83.0844 128.432C87.5631 128.055 91.4243 126.025 94.6548 122.327C97.9036 118.646 99.5466 114.379 99.5664 109.544V75.8955L90.2788 77.1181ZM125.818 72.6134V80.8674C116.474 81.6949 115.171 88.4293 114.994 90.6387L114.709 109.533L106.052 110.27V75.177L115.247 73.9841L115.223 75.5681C115.629 75.2228 116.072 74.9258 116.524 74.6739V74.6731C119.714 72.6778 125.818 72.6134 125.818 72.6134Z" fill="white"/>
<defs>
<filter id="filter0_d" x="0" y="0" width="204" height="204" filterUnits="userSpaceOnUse" color-interpolation-filters="sRGB">
<feFlood flood-opacity="0" result="BackgroundImageFix"/>
<feColorMatrix in="SourceAlpha" type="matrix" values="0 0 0 0 0 0 0 0 0 0 0 0 0 0 0 0 0 0 127 0"/>
<feOffset dy="6"/>
<feGaussianBlur stdDeviation="7"/>
<feColorMatrix type="matrix" values="0 0 0 0 0 0 0 0 0 0 0 0 0 0 0 0 0 0 0.1 0"/>
<feBlend mode="normal" in2="BackgroundImageFix" result="effect1_dropShadow"/>
<feBlend mode="normal" in="SourceGraphic" in2="effect1_dropShadow" result="shape"/>
</filter>
</defs>
</svg>
