<?xml version="1.0" encoding="UTF-8"?>
<svg width="20px" height="20px" viewBox="0 0 20 20" version="1.1" xmlns="http://www.w3.org/2000/svg" xmlns:xlink="http://www.w3.org/1999/xlink">
    <!-- Generator: Sketch 54.1 (76490) - https://sketchapp.com -->
    <title>account-billing-cycle-mono</title>
    <desc>Created with Sketch.</desc>
    <g id="account-billing-cycle-mono" stroke="none" stroke-width="1" fill="none" fill-rule="evenodd">
        <g id="billing_cycle_icon" transform="translate(3.000000, 4.000000)" fill="#696E92" fill-rule="nonzero">
            <g id="wallet-(1)">
                <path d="M11.9853659,7 L9.73159341,7 C8.5982394,7 7.66666667,7.90228163 7.66666667,9 C7.66666667,10.0977184 8.5982394,11 9.73159341,11 L11.9853659,11 L11.9853659,12.2948224 C11.9853659,12.6630123 11.686889,12.9614891 11.3186992,12.9614891 L0.666666667,12.9614891 C0.298476833,12.9614891 -3.9899896e-16,12.6630123 -4.4408921e-16,12.2948224 L0,5.14035088 C-4.50902501e-17,4.77216104 0.298476833,4.47368421 0.666666667,4.47368421 L11.3186992,4.47368421 C11.686889,4.47368421 11.9853659,4.77216104 11.9853659,5.14035088 L11.9853659,7 Z M9.94177919,0.3 L11.4485634,4.10668293 C4.16933097,4.10019512 0.517117174,4.10019512 0.491922,4.10668293 L9.94177919,0.3 Z" id="Combined-Shape"></path>
                <g id="Group-14" transform="translate(7.666667, 7.000000)">
                    <path d="M5.45591746,3.62513736 L2.16187805,3.62513736 C1.21315041,3.62513736 0.433333333,2.88636329 0.433333333,1.98756868 C0.433333333,1.08877407 1.21315041,0.35 2.16187805,0.35 L5.45591746,0.35 L5.45591746,3.62513736 Z M3.50322764,1.91852118 C3.50322764,1.5308973 3.17431301,1.21670603 2.76885366,1.21670603 C2.36313821,1.21670603 2.03447967,1.5308973 2.03447967,1.91852118 C2.03447967,2.30614506 2.36313821,2.62033633 2.76885366,2.62033633 C3.17431301,2.62033633 3.50322764,2.30614506 3.50322764,1.91852118 Z" id="Combined-Shape"></path>
                </g>
            </g>
        </g>
    </g>
</svg>