<?xml version="1.0" encoding="UTF-8"?>
<svg width="20px" height="20px" viewBox="0 0 20 20" version="1.1" xmlns="http://www.w3.org/2000/svg" xmlns:xlink="http://www.w3.org/1999/xlink">
    <!-- Generator: Sketch 54.1 (76490) - https://sketchapp.com -->
    <title>account-upgrade-mono</title>
    <desc>Created with Sketch.</desc>
    <g id="account-upgrade-mono" stroke="none" stroke-width="1" fill="none" fill-rule="evenodd">
        <g id="upgrade_icon" transform="translate(3.000000, 3.000000)">
            <g id="tools-and-utensils" fill="#696E92" fill-rule="nonzero">
                <path d="M12.1118095,6.60226462 L12.1408151,6.60226462 C12.1408151,4.10091399 10.4705839,1.98840423 8.18123489,1.31402363 C7.68384341,1.16735197 7.15705992,1.08877511 6.61191287,1.08877511 C4.32393274,1.08877511 2.36058203,2.47441668 1.5199393,4.45019601 C2.39756742,3.13962869 3.89402926,2.27633911 5.59287762,2.27633911 C6.29102847,2.27633911 6.95493168,2.42221239 7.55566012,2.68485639 C7.8966015,2.83387272 8.21722682,3.02051473 8.51225963,3.23951589 L4.71324173,8.02465782 C4.49042543,8.30370742 4.536683,8.70998406 4.81652704,8.9321678 C5.09637109,9.15435155 5.50380439,9.10822531 5.72662069,8.82917571 C5.75769152,8.79028647 5.8075908,8.70807823 5.8075908,8.70807823 L5.89463043,8.54644322 L8.68151713,3.37097674 C9.4996837,4.03554349 10.0982822,4.9585734 10.3523139,6.01530236 C10.2362259,6.00517179 10.1187169,6 10,6 C7.790861,6 6,7.790861 6,10 C6,10.5469417 6.10977358,11.0682444 6.30849059,11.5430779 L2.23402589,11.5430779 C0.863861913,10.3350649 1.48325796e-13,8.56915866 1.48325796e-13,6.60226462 C1.48325796e-13,2.96096998 2.96025154,0.00912229667 6.61191287,0.00912229667 C7.10876196,0.00912229667 7.59264551,0.063747511 8.05790722,0.167357713 C8.27462816,0.215518557 8.48701003,0.274187222 8.69507867,0.343080408 C11.3260776,1.21311765 13.2238257,3.68675648 13.2238257,6.60226462 C13.2238257,6.92178354 13.2010294,7.23599726 13.1569696,7.54337616 C12.8672566,7.17160305 12.5133117,6.85234107 12.1118095,6.60226462 Z" id="Combined-Shape"></path>
            </g>
            <g id="Group-25" transform="translate(10.236085, 9.931738) rotate(-90.000000) translate(-10.236085, -9.931738) translate(6.236085, 5.931738)">
                <path d="M4.02340426,7.01710607 C2.25149068,7.01710607 0.815070922,5.55012419 0.815070922,3.74051033 C0.815070922,1.93089647 2.25149068,0.463914585 4.02340426,0.463914585 C5.79531783,0.463914585 7.23173759,1.93089647 7.23173759,3.74051033 C7.23173759,5.55012419 5.79531783,7.01710607 4.02340426,7.01710607 Z M2.16080484,3.16313417 L2.16080484,4.34116341 L4.46967622,4.34116341 L4.46967622,3.16313417 L2.16080484,3.16313417 Z M4.46967622,2.39485421 L4.46967622,3.80336747 L6.22189008,3.80336747 L4.46967622,2.39485421 Z M4.46967622,5.21188072 L6.22189008,3.80336747 L4.46967622,3.80336747 L4.46967622,5.21188072 Z" id="Combined-Shape" fill="#696E92" fill-rule="nonzero"></path>
                <g id="Group-30" transform="translate(3.128155, 2.620050)">
                    <g id="Group-29" transform="translate(0.217884, 0.000000)"></g>
                </g>
            </g>
        </g>
    </g>
</svg>