<?xml version="1.0" encoding="UTF-8"?>
<svg width="20px" height="20px" viewBox="0 0 20 20" version="1.1" xmlns="http://www.w3.org/2000/svg" xmlns:xlink="http://www.w3.org/1999/xlink">
    <!-- Generator: Sketch 54.1 (76490) - https://sketchapp.com -->
    <title>advanced-cron-jobs-mono</title>
    <desc>Created with Sketch.</desc>
    <g id="advanced-cron-jobs-mono" stroke="none" stroke-width="1" fill="none" fill-rule="evenodd">
        <g id="cron_jobs_icon-copy" transform="translate(3.000000, 3.000000)" fill-rule="nonzero">
            <g id="Group-25">
                <ellipse id="Oval" cx="6.125" cy="6.16548729" rx="6.125" ry="6.02118644"></ellipse>
                <path d="M10.9946967,8.17206708 C11.2590188,7.55447215 11.4051724,6.87644198 11.4051724,6.16548729 C11.4051724,3.30334746 9.03648707,0.974809322 6.125,0.974809322 C3.21351293,0.974809322 0.844827586,3.30334746 0.844827586,6.16548729 C0.844827586,9.02762712 3.21351293,11.3561653 6.125,11.3561653 C6.39856651,11.3561653 6.6673408,11.3356073 6.92980819,11.2959804 C7.08245376,11.454361 7.16918263,11.6667327 7.172,11.8885 C7.17285152,11.9598149 7.16590834,12.0317643 7.14954971,12.1028045 C6.81639422,12.1579602 6.47410748,12.1866737 6.125,12.1866737 C2.74231034,12.1866737 0,9.49084322 0,6.16548729 C0,2.84013136 2.74231034,0.144300847 6.125,0.144300847 C9.50768966,0.144300847 12.25,2.84013136 12.25,6.16548729 C12.25,6.80825427 12.1475416,7.42750087 11.9578046,8.00830465 L11.7395,7.79 L11.737,7.7875 L11.733,7.79 L11.382,8.0275 C11.2597779,8.11072357 11.1272108,8.15709296 10.9946967,8.17206708 Z" id="Combined-Shape" fill="#696E92"></path>
                <g id="Group" transform="translate(1.267241, 1.245763)">
                    <path d="M4.85775862,0.118970339 C4.74117241,0.118970339 4.64655172,0.211779661 4.64655172,0.326597458 L4.64655172,0.534224576 C4.64655172,0.649042373 4.74117241,0.741851695 4.85775862,0.741851695 C4.97434483,0.741851695 5.06896552,0.649042373 5.06896552,0.534224576 L5.06896552,0.326597458 C5.06896552,0.211987288 4.97434483,0.118970339 4.85775862,0.118970339 Z" id="Shape" fill="#696E92"></path>
                    <path d="M4.85775862,9.04693644 C4.74117241,9.04693644 4.64655172,9.13974576 4.64655172,9.25456356 L4.64655172,9.46219068 C4.64655172,9.57700847 4.74117241,9.6698178 4.85775862,9.6698178 C4.97434483,9.6698178 5.06896552,9.57700847 5.06896552,9.46219068 L5.06896552,9.25456356 C5.06896552,9.13995339 4.97434483,9.04693644 4.85775862,9.04693644 Z" id="Shape" fill="#696E92"></path>
                    <path d="M9.50431034,4.68676695 L9.29310345,4.68676695 C9.17651724,4.68676695 9.08189655,4.77957627 9.08189655,4.89439407 C9.08189655,5.00921186 9.17651724,5.10202119 9.29310345,5.10202119 L9.50431034,5.10202119 C9.62089655,5.10202119 9.71551724,5.00921186 9.71551724,4.89439407 C9.71551724,4.77957627 9.62089655,4.68676695 9.50431034,4.68676695 Z" id="Shape" fill="#696E92"></path>
                    <path d="M0.422413793,4.68676695 L0.211206897,4.68676695 C0.0946206897,4.68676695 0,4.77957627 0,4.89439407 C0,5.00921186 0.0946206897,5.10202119 0.211206897,5.10202119 L0.422413793,5.10202119 C0.539,5.10202119 0.63362069,5.00921186 0.63362069,4.89439407 C0.63362069,4.77957627 0.539,4.68676695 0.422413793,4.68676695 Z" id="Shape" fill="#696E92"></path>
                    <path d="M7.99396983,1.51775424 L7.84464655,1.66454661 C7.76206466,1.74572881 7.76206466,1.87694915 7.84464655,1.95813136 C7.8858319,1.99861864 7.93990086,2.0189661 7.99396983,2.0189661 C8.04803879,2.0189661 8.10210776,1.99861864 8.1432931,1.95813136 L8.29261638,1.81133898 C8.37519828,1.73015678 8.37519828,1.59893644 8.29261638,1.51775424 C8.21003448,1.43657203 8.07655172,1.43657203 7.99396983,1.51775424 Z" id="Shape" fill="#696E92"></path>
                    <path d="M1.57222414,7.83086441 L1.42290086,7.97765678 C1.34031897,8.05883898 1.34031897,8.19005932 1.42290086,8.27124153 C1.46408621,8.31172881 1.51815517,8.33207627 1.57222414,8.33207627 C1.6262931,8.33207627 1.68036207,8.31172881 1.72154741,8.27124153 L1.87087069,8.12444915 C1.95345259,8.04326695 1.95345259,7.91204661 1.87087069,7.83086441 C1.78828879,7.7496822 1.65459483,7.7496822 1.57222414,7.83086441 Z" id="Shape" fill="#696E92"></path>
                    <path d="M8.1432931,7.83086441 C8.06071121,7.7496822 7.92722845,7.7496822 7.84464655,7.83086441 C7.76206466,7.91204661 7.76206466,8.04326695 7.84464655,8.12444915 L7.99396983,8.27124153 C8.03515517,8.31172881 8.08922414,8.33207627 8.1432931,8.33207627 C8.19736207,8.33207627 8.25143103,8.31172881 8.29261638,8.27124153 C8.37519828,8.19005932 8.37519828,8.05883898 8.29261638,7.97765678 L8.1432931,7.83086441 Z" id="Shape" fill="#95A5A5"></path>
                    <path d="M1.72154741,1.51775424 C1.63896552,1.43657203 1.50548276,1.43657203 1.42290086,1.51775424 C1.34031897,1.59893644 1.34031897,1.73015678 1.42290086,1.81133898 L1.57222414,1.95813136 C1.61340948,1.99861864 1.66747845,2.0189661 1.72154741,2.0189661 C1.77561638,2.0189661 1.82968534,1.99861864 1.87087069,1.95813136 C1.95345259,1.87694915 1.95345259,1.74572881 1.87087069,1.66454661 L1.72154741,1.51775424 Z" id="Shape" fill="#696E92"></path>
                </g>
                <path d="M5.49137931,6.34799153 L3.80172414,6.34799153 C3.68513793,6.34799153 3.59051724,6.2551822 3.59051724,6.14036441 C3.59051724,6.02554661 3.68513793,5.93273729 3.80172414,5.93273729 L5.49137931,5.93273729 C5.60796552,5.93273729 5.70258621,6.02554661 5.70258621,6.14036441 C5.70258621,6.2551822 5.60796552,6.34799153 5.49137931,6.34799153 Z" id="Shape" fill="#696E92"></path>
                <path d="M6.125,5.72511017 C6.00841379,5.72511017 5.9137931,5.63230085 5.9137931,5.51748305 L5.9137931,3.23358475 C5.9137931,3.11876695 6.00841379,3.02595763 6.125,3.02595763 C6.24158621,3.02595763 6.3362069,3.11876695 6.3362069,3.23358475 L6.3362069,5.51748305 C6.3362069,5.63209322 6.24158621,5.72511017 6.125,5.72511017 Z" id="Shape" fill="#696E92"></path>
                <path d="M6.125,6.97087288 C5.65907759,6.97087288 5.28017241,6.59838983 5.28017241,6.14036441 C5.28017241,5.68233898 5.65907759,5.30985593 6.125,5.30985593 C6.59092241,5.30985593 6.96982759,5.68233898 6.96982759,6.14036441 C6.96982759,6.59838983 6.59092241,6.97087288 6.125,6.97087288 Z M6.125,5.72511017 C5.89203879,5.72511017 5.70258621,5.91135169 5.70258621,6.14036441 C5.70258621,6.36937712 5.89203879,6.55561864 6.125,6.55561864 C6.35796121,6.55561864 6.54741379,6.36937712 6.54741379,6.14036441 C6.54741379,5.91135169 6.35796121,5.72511017 6.125,5.72511017 Z" id="Shape" fill="#696E92"></path>
            </g>
        </g>
        <g id="Group-41" transform="translate(9.000000, 10.000000)" fill="#696E92">
            <path d="M3.5,4 C3.47966026,4 3.46021457,3.99620112 3.44054537,3.99418994 C3.25927582,3.9722905 3.10706303,3.85564246 3.03889137,3.69340782 C3.01385785,3.63396648 3,3.56849162 3,3.50011173 C3,3.22391061 3.22396066,3 3.5,3 C3.5688422,3 3.63433169,3.01407821 3.69378632,3.03910615 C3.85650425,3.1077095 3.97295485,3.2603352 3.99418865,3.44223464 C3.9966473,3.46145251 4,3.48022346 4,3.50011173 C4,3.77608939 3.77603934,4 3.5,4 L3.5,4 Z M5.69892857,3.20178571 C5.25285714,3.11571429 5.04821429,2.59428571 5.31714286,2.2275 L5.50571429,1.97035714 L5.37464286,1.83928571 L5.09964286,1.56428571 L5.09785714,1.5625 L5.095,1.56428571 L4.84428571,1.73392857 C4.73571429,1.80785714 4.61571429,1.84107143 4.49857143,1.84107143 C4.49571429,1.84107143 4.49285714,1.84035714 4.49,1.84035714 C4.28821429,1.83785714 4.09714286,1.73464286 3.98357143,1.56428571 C3.93535714,1.4925 3.89964286,1.40964286 3.88535714,1.31607143 L3.83678571,1 L3.25964286,1 L3.18464286,1.38857143 C3.17214286,1.45321429 3.14607143,1.51035714 3.11714286,1.56428571 C3.0075,1.76678571 2.79785714,1.89142857 2.57535714,1.89142857 C2.5225,1.89142857 2.46892857,1.88214286 2.41642857,1.86785714 C2.35214286,1.85035714 2.28928571,1.82428571 2.22964286,1.78392857 L1.905,1.56428571 L1.9025,1.5625 L1.90071429,1.56428571 L1.6025,1.8625 L1.49428571,1.97035714 L1.54785714,2.04357143 L1.68285714,2.2275 C1.95178571,2.59428571 1.74714286,3.11571429 1.30107143,3.20178571 L1.07857143,3.24464286 L1,3.25964286 L1,3.40535714 L1,3.83642857 L1.31607143,3.88535714 C1.41571429,3.90071429 1.50214286,3.94035714 1.57678571,3.99357143 C1.73964286,4.10857143 1.83464286,4.295 1.83714286,4.49178571 C1.83857143,4.61142857 1.80928571,4.73357143 1.73428571,4.84392857 L1.56214286,5.0975 L1.83821429,5.37357143 L1.97035714,5.50571429 L2.22785714,5.31678571 C2.34035714,5.23428571 2.4675,5.19642857 2.59178571,5.19642857 C2.87321429,5.19642857 3.14214286,5.39 3.20178571,5.69892857 L3.25964286,6 L3.83678571,6 L3.87071429,5.77821429 C3.92035714,5.45678571 4.19535714,5.25214286 4.48464286,5.25214286 C4.60928571,5.25214286 4.73607143,5.29035714 4.84892857,5.37285714 L5.02964286,5.50571429 L5.43785714,5.0975 L5.26571429,4.84392857 C5.01107143,4.46821429 5.23535714,3.95392857 5.68392857,3.88535714 L6,3.83642857 L6,3.25964286 L5.69892857,3.20178571 Z" id="Fill-15"></path>
        </g>
    </g>
</svg>