<?xml version="1.0" encoding="UTF-8"?>
<svg width="20px" height="20px" viewBox="0 0 20 20" version="1.1" xmlns="http://www.w3.org/2000/svg" xmlns:xlink="http://www.w3.org/1999/xlink">
    <!-- Generator: Sketch 54.1 (76490) - https://sketchapp.com -->
    <title>advanced-php-info-mono</title>
    <desc>Created with Sketch.</desc>
    <g id="advanced-php-info-mono" stroke="none" stroke-width="1" fill="none" fill-rule="evenodd">
        <g id="Group-48" transform="translate(3.000000, 4.000000)">
            <g id="php_information" transform="translate(0.000000, 0.171053)">
                <g id="analytics-(1)" fill="#696E92" fill-rule="nonzero">
                    <path d="M5.7636609,9.55508305 L0.482753906,9.55508305 C0.216042969,9.55508305 -7.99360578e-15,9.3363453 -7.99360578e-15,9.06630758 L-7.99360578e-15,8.33313051 L0.965535156,8.33313051 L0.965535156,0.512639793 C0.965535156,0.242602069 1.18157812,0.023864314 1.44828906,0.023864314 L12.5517383,0.023864314 C12.8184492,0.023864314 13.0344922,0.242602069 13.0344922,0.512639793 L13.0344922,4.67287564 C12.2721522,4.11658064 11.3399632,3.78947368 10.3333332,3.78947368 C7.75600443,3.78947368 5.66666667,5.93379402 5.66666667,8.5789472 C5.66666667,8.91344249 5.70007748,9.23992891 5.7636609,9.55508305 Z M3.78332323,2.37345225 C3.99655808,2.37345225 4.13866162,2.41270619 4.20970455,2.49124932 C4.28069444,2.56977482 4.29761111,2.70457135 4.26047222,2.895586 C4.22165404,3.09451845 4.14695202,3.23650977 4.03618939,3.32157759 C3.92542677,3.40664542 3.75687879,3.44914406 3.53059848,3.44914406 L3.18922475,3.44914406 L3.39878283,2.37345225 L3.78332323,2.37345225 Z M2.41586616,4.53806158 L2.97710354,4.53806158 L3.11022727,3.85473277 L3.59096465,3.85473277 C3.80308586,3.85473277 3.97757323,3.83254883 4.11456818,3.78803988 C4.25156313,3.74363673 4.37606061,3.66907895 4.48811364,3.56443706 C4.58217172,3.47822301 4.65825253,3.383086 4.71653283,3.27906131 C4.77474242,3.1751248 4.81610606,3.06036082 4.84055303,2.93485757 C4.89992929,2.63017227 4.85511869,2.39286761 4.70624495,2.22287303 C4.55737121,2.05286082 4.32053788,1.96786354 3.99586869,1.96786354 L2.91661364,1.96786354 L2.41586616,4.53806158 Z M5.2527399,1.28453473 L4.75199242,3.85473277 L5.30881061,3.85473277 L5.59565152,2.3822694 L6.04066414,2.3822694 C6.18312121,2.3822694 6.27627778,2.40582881 6.32004545,2.4528771 C6.36383081,2.49992539 6.37307576,2.58816739 6.34786869,2.71753256 L6.12636111,3.85473277 L6.69201768,3.85473277 L6.92499747,2.65870456 C6.97237121,2.41540423 6.93687626,2.23939636 6.81838889,2.13076913 C6.69990152,2.02221243 6.48459848,1.96786354 6.17249747,1.96786354 L5.67643434,1.96786354 L5.80955808,1.28453473 L5.2527399,1.28453473 Z M8.16390909,2.37345225 C8.37712626,2.37345225 8.5192298,2.41270619 8.5902904,2.49124932 C8.6612803,2.56977482 8.67819697,2.70457135 8.6410404,2.895586 C8.6022399,3.09451845 8.52753788,3.23650977 8.41675758,3.32157759 C8.30601263,3.40664542 8.13746465,3.44914406 7.91120202,3.44914406 L7.56981061,3.44914406 L7.77936869,2.37345225 L8.16390909,2.37345225 Z M6.79645202,4.53806158 L7.35768939,4.53806158 L7.49081313,3.85473277 L7.97153283,3.85473277 C8.18365404,3.85473277 8.35814141,3.83254883 8.49513636,3.78803988 C8.63213131,3.74363673 8.75662879,3.66907895 8.86869949,3.56443706 C8.9627399,3.47822301 9.03883838,3.383086 9.09711869,3.27906131 C9.15532828,3.1751248 9.19669192,3.06036082 9.22112121,2.93485757 C9.28051515,2.63017227 9.23570455,2.39286761 9.08683081,2.22287303 C8.93795707,2.05286082 8.70112374,1.96786354 8.37643687,1.96786354 L7.29718182,1.96786354 L6.79645202,4.53806158 Z" id="Combined-Shape"></path>
                </g>
                <g id="Group-49" transform="translate(6.333333, 4.197368)">
                    <g id="php_configuration_icon" transform="translate(0.333333, 0.592105)">
                        <g id="Group-54">
                            <path d="M3.66666667,7.52631579 C1.64162258,7.52631579 7.59392549e-14,5.84149261 7.59392549e-14,3.76315789 C7.59392549e-14,1.68482318 1.64162258,-1.9095836e-13 3.66666667,-1.9095836e-13 C5.69171075,-1.9095836e-13 7.33333333,1.68482318 7.33333333,3.76315789 C7.33333333,5.84149261 5.69171075,7.52631579 3.66666667,7.52631579 Z M3.31746032,3.4047619 L3.31746032,5.36722105 L4.04710064,5.36722105 L4.04710064,3.4047619 L3.31746032,3.4047619 Z M3.68238094,2.89942353 C3.88392103,2.89942353 4.04730156,2.73174351 4.04730156,2.52489973 C4.04730156,2.31805595 3.88392103,2.15037594 3.68238094,2.15037594 C3.48084084,2.15037594 3.31746032,2.31805595 3.31746032,2.52489973 C3.31746032,2.73174351 3.48084084,2.89942353 3.68238094,2.89942353 Z" id="Combined-Shape" fill="#696E92"></path>
                            <g id="Group-2" transform="translate(3.317460, 2.150376)"></g>
                        </g>
                    </g>
                </g>
            </g>
        </g>
    </g>
</svg>