<?xml version="1.0" encoding="UTF-8"?>
<svg width="20px" height="20px" viewBox="0 0 20 20" version="1.1" xmlns="http://www.w3.org/2000/svg" xmlns:xlink="http://www.w3.org/1999/xlink">
    <!-- Generator: Sketch 54.1 (76490) - https://sketchapp.com -->
    <title>advanced-git.svg-mono</title>
    <desc>Created with Sketch.</desc>
    <g id="advanced-git.svg-mono" stroke="none" stroke-width="1" fill="none" fill-rule="evenodd">
        <g id="Group-51" transform="translate(3.000000, 3.000000)" fill="#696E92" fill-rule="nonzero">
            <path d="M13.7358896,7.62353675 L7.62338534,13.7359186 C7.27152756,14.0880271 6.70059284,14.0880271 6.34826276,13.7359186 L5.07909741,12.4664995 L6.68910498,10.856399 C7.06334428,10.9827528 7.49244805,10.8979481 7.79061453,10.5997148 C8.09057884,10.2996226 8.17460481,9.86682317 8.04503875,9.49128135 L9.59690614,7.93956597 C9.9724405,8.06901271 10.4054142,7.98533551 10.7053785,7.68495386 C11.1243656,7.2660803 11.1243656,6.58704865 10.7053785,6.16782466 C10.2860866,5.74858542 9.6072056,5.74858542 9.18773092,6.16782466 C8.87260689,6.48325967 8.79464482,6.94634868 8.95443889,7.33464319 L7.5070288,8.78196014 L7.5070288,4.97338289 C7.60909407,4.92279871 7.70550681,4.85542425 7.79061453,4.77055862 C8.20960166,4.35160888 8.20960166,3.67265341 7.79061453,3.25306374 C7.3716274,2.83425113 6.69225881,2.83425113 6.2735764,3.25306374 C5.85458926,3.67265341 5.85458926,4.35160888 6.2735764,4.77055862 C6.37713478,4.87399717 6.49705651,4.95225029 6.62500757,5.00463233 L6.62500757,8.84843567 C6.49705651,8.90081772 6.37742426,8.97841568 6.2735764,9.08257033 C5.95624316,9.39980322 5.87988085,9.86563474 6.04266116,10.2554072 L4.45538555,11.8429428 L0.264024169,7.65186084 C-0.0880080564,7.29946281 -0.0880080564,6.72851675 0.264024169,6.37642345 L6.37683006,0.264029413 C6.72874878,-0.0880098044 7.29950067,-0.0880098044 7.65195264,0.264029413 L13.7358896,6.34809935 C14.0880368,6.70025361 14.0880368,7.27148915 13.7358896,7.62353675" id="git_icon-copy"></path>
        </g>
    </g>
</svg>