<?xml version="1.0" encoding="UTF-8"?>
<svg width="20px" height="20px" viewBox="0 0 20 20" version="1.1" xmlns="http://www.w3.org/2000/svg" xmlns:xlink="http://www.w3.org/1999/xlink">
    <!-- Generator: Sketch 54.1 (76490) - https://sketchapp.com -->
    <title>advanced-ssh-access-mono</title>
    <desc>Created with Sketch.</desc>
    <g id="advanced-ssh-access-mono" stroke="none" stroke-width="1" fill="none" fill-rule="evenodd">
        <g id="Group-55" transform="translate(3.000000, 5.000000)">
            <g id="ssh_access_icon">
                <g id="Group-51">
                    <g id="ssh_console_icon-copy">
                        <g id="analyze_website_icon">
                            <g id="statistics_icon-copy-2" fill="#696E92" fill-rule="nonzero">
                                <g id="website_builder_icon-copy-3">
                                    <g id="Group-39">
                                        <path d="M11.1153119,3.02747289 C10.8610483,2.98344727 10.5997989,2.96052632 10.3333332,2.96052632 C7.75600443,2.96052632 5.66666667,5.10484665 5.66666667,7.74999983 C5.66666667,7.76660663 5.66674902,7.78319368 5.66691333,7.79976059 L0.670565926,7.79976059 C0.300308808,7.79976059 4.08562073e-14,7.5228379 4.08562073e-14,7.18119174 L4.08562073e-14,0.637611105 C4.08562073e-14,0.295964946 0.300308808,0.0190422549 0.670565926,0.0190422549 L10.4449414,0.0190422549 C10.8151985,0.0190422549 11.1153119,0.295964946 11.1153119,0.637611105 L11.1153119,3.02747289 Z M0.927179653,0.557121086 C1.02974281,0.557121086 1.11288668,0.473977217 1.11288668,0.371414057 C1.11288668,0.268850897 1.02974281,0.185707029 0.927179653,0.185707029 C0.824616493,0.185707029 0.741472624,0.268850897 0.741472624,0.371414057 C0.741472624,0.473977217 0.824616493,0.557121086 0.927179653,0.557121086 Z M1.48430074,0.557121086 C1.5868639,0.557121086 1.67000777,0.473977217 1.67000777,0.371414057 C1.67000777,0.268850897 1.5868639,0.185707029 1.48430074,0.185707029 C1.38173758,0.185707029 1.29859371,0.268850897 1.29859371,0.371414057 C1.29859371,0.473977217 1.38173758,0.557121086 1.48430074,0.557121086 Z M2.04142182,0.557121086 C2.14398498,0.557121086 2.22712885,0.473977217 2.22712885,0.371414057 C2.22712885,0.268850897 2.14398498,0.185707029 2.04142182,0.185707029 C1.93885866,0.185707029 1.8557148,0.268850897 1.8557148,0.371414057 C1.8557148,0.473977217 1.93885866,0.557121086 2.04142182,0.557121086 Z M1.0852385,3.50759553 L1.0852385,3.9384186 L2.87522726,3.14887673 L2.87522726,2.89110393 L1.0852385,1.99701085 L1.0852385,2.42963653 L2.3182217,3.00106295 L1.0852385,3.50759553 Z M4.55886222,4.8883925 L4.55886222,4.63602752 L3.02664625,4.63602752 L3.02664625,4.8883925 L4.55886222,4.8883925 Z" id="Combined-Shape"></path>
                                    </g>
                                </g>
                            </g>
                            <g id="browser-(3)-copy-2" transform="translate(0.555766, 0.000000)"></g>
                        </g>
                    </g>
                </g>
            </g>
        </g>
        <g id="Group-49" transform="translate(9.333333, 8.368421)">
            <g id="php_configuration_icon" transform="translate(0.333333, 0.592105)">
                <g id="Group-54">
                    <path d="M3.66666667,7.52631579 C1.64162258,7.52631579 7.59392549e-14,5.84149261 7.59392549e-14,3.76315789 C7.59392549e-14,1.68482318 1.64162258,-1.9095836e-13 3.66666667,-1.9095836e-13 C5.69171075,-1.9095836e-13 7.33333333,1.68482318 7.33333333,3.76315789 C7.33333333,5.84149261 5.69171075,7.52631579 3.66666667,7.52631579 Z M3.31746032,3.4047619 L3.31746032,5.36722105 L4.04710064,5.36722105 L4.04710064,3.4047619 L3.31746032,3.4047619 Z M3.68238094,2.89942353 C3.88392103,2.89942353 4.04730156,2.73174351 4.04730156,2.52489973 C4.04730156,2.31805595 3.88392103,2.15037594 3.68238094,2.15037594 C3.48084084,2.15037594 3.31746032,2.31805595 3.31746032,2.52489973 C3.31746032,2.73174351 3.48084084,2.89942353 3.68238094,2.89942353 Z" id="Combined-Shape" fill="#696E92"></path>
                    <g id="Group-2" transform="translate(3.317460, 2.150376)"></g>
                </g>
            </g>
        </g>
    </g>
</svg>