<?xml version="1.0" encoding="UTF-8"?>
<svg width="20px" height="20px" viewBox="0 0 20 20" version="1.1" xmlns="http://www.w3.org/2000/svg" xmlns:xlink="http://www.w3.org/1999/xlink">
    <!-- Generator: Sketch 54.1 (76490) - https://sketchapp.com -->
    <title>advanced-ssl-mono</title>
    <desc>Created with Sketch.</desc>
    <g id="advanced-ssl-mono" stroke="none" stroke-width="1" fill="none" fill-rule="evenodd">
        <g id="Group" transform="translate(3.000000, 4.000000)" fill="#696E92" fill-rule="nonzero">
            <g id="Group-56">
                <g id="SSL_icon" transform="translate(0.152174, 0.000000)">
                    <g id="php_configuration_icon-copy">
                        <g id="analytics-(1)">
                            <path d="M13.628606,7 L13.628606,6.84932321 C13.628606,6.35519929 13.4402938,5.89095436 13.0978915,5.54174358 C12.7558552,5.19253279 12.3007217,5 11.8164905,5 C10.8172833,5 10.0041921,5.82970242 10.0041921,6.84932321 L10.0041921,7 L9.21980676,7 C9.01436751,7 8.84782609,7.16654142 8.84782609,7.37198068 L8.84782609,8.94516612 L5.32530978,8.94516612 L5.32530978,8.44821714 L1.04347826,8.44821714 L1.04347826,0.496948982 C1.04347826,0.222395577 1.2689144,8.07354184e-13 1.54722147,8.07354184e-13 L13.1334293,8.07354184e-13 C13.4117364,8.07354184e-13 13.6371726,0.222395577 13.6371726,0.496948982 L13.6371726,7 L13.628606,7 Z M12.9847944,7 L10.6480037,7 L10.6480037,6.84932321 C10.6480037,6.19179852 11.17213,5.65715121 11.8164905,5.65715121 C12.1286971,5.65715121 12.4220541,5.7809623 12.6425751,6.00636199 C12.8632791,6.23138819 12.9847944,6.5307384 12.9847944,6.84932321 L12.9847944,7 Z M8.84782609,9.71486705 L0.503743207,9.71486705 C0.225436141,9.71486705 7.1942452e-14,9.49247148 7.1942452e-14,9.21791807 L7.1942452e-14,8.47248052 L5.28934647,8.47248052 L5.28934647,8.9694295 L8.84782609,8.9694295 L8.84782609,9.71486705 Z M5.11961021,4.55489469 C5.11961021,4.35849539 5.06742097,4.1926572 4.96304092,4.05737516 C4.85866086,3.92209312 4.66569801,3.78715645 4.38414655,3.65256112 C4.17126618,3.55092792 4.03632952,3.48054111 3.97933252,3.44139859 C3.92233552,3.40225607 3.88079013,3.36174074 3.85469512,3.31985137 C3.8286001,3.27796201 3.81555279,3.22886292 3.81555279,3.17255263 C3.81555279,3.08190679 3.84782772,3.00842983 3.91237854,2.95211954 C3.97692936,2.89580925 4.06963394,2.86765453 4.19049505,2.86765453 C4.29212826,2.86765453 4.3954767,2.88070184 4.50054346,2.90679685 C4.60561022,2.93289186 4.73848678,2.9789008 4.89917713,3.04482505 L5.10518936,2.54833557 C4.9499927,2.48103791 4.80132203,2.42884866 4.65917288,2.39176628 C4.51702373,2.35468389 4.36766635,2.33614297 4.21109628,2.33614297 C3.89246243,2.33614297 3.64284678,2.41236674 3.46224182,2.56481655 C3.28163686,2.71726636 3.19133574,2.92671003 3.19133574,3.19315385 C3.19133574,3.33461629 3.21880376,3.45822239 3.27374063,3.56397587 C3.3286775,3.66972934 3.40215446,3.76243392 3.49417372,3.84209238 C3.58619297,3.92175084 3.72421979,4.00484161 3.9082583,4.09136718 C4.10465761,4.18475985 4.23478736,4.25274321 4.29865147,4.29531928 C4.36251558,4.33789536 4.41092797,4.38218754 4.4438901,4.42819717 C4.47685222,4.4742068 4.49333303,4.52673939 4.49333303,4.58579653 C4.49333303,4.69155 4.45590785,4.77120727 4.38105637,4.82477071 C4.30620488,4.87833416 4.19873624,4.90511548 4.05864723,4.90511548 C3.94190638,4.90511548 3.81315002,4.88657457 3.67237429,4.84949218 C3.53159857,4.8124098 3.35958007,4.74854664 3.15631366,4.65790081 L3.15631366,5.25121603 C3.40352957,5.37207714 3.6878236,5.43250679 4.00920429,5.43250679 C4.35805341,5.43250679 4.63033019,5.35422293 4.82604278,5.19765285 C5.02175538,5.04108277 5.11961021,4.8268322 5.11961021,4.55489469 Z M7.44342817,4.55489469 C7.44342817,4.35849539 7.39123892,4.1926572 7.28685887,4.05737516 C7.18247882,3.92209312 6.98951596,3.78715645 6.70796451,3.65256112 C6.49508414,3.55092792 6.36014748,3.48054111 6.30315047,3.44139859 C6.24615347,3.40225607 6.20460809,3.36174074 6.17851307,3.31985137 C6.15241806,3.27796201 6.13937075,3.22886292 6.13937075,3.17255263 C6.13937075,3.08190679 6.17164568,3.00842983 6.2361965,2.95211954 C6.30074732,2.89580925 6.3934519,2.86765453 6.51431301,2.86765453 C6.61594622,2.86765453 6.71929465,2.88070184 6.82436142,2.90679685 C6.92942818,2.93289186 7.06230474,2.9789008 7.22299508,3.04482505 L7.42900731,2.54833557 C7.27381066,2.48103791 7.12513998,2.42884866 6.98299083,2.39176628 C6.84084168,2.35468389 6.69148431,2.33614297 6.53491423,2.33614297 C6.21628039,2.33614297 5.96666473,2.41236674 5.78605978,2.56481655 C5.60545482,2.71726636 5.51515369,2.92671003 5.51515369,3.19315385 C5.51515369,3.33461629 5.54262172,3.45822239 5.59755859,3.56397587 C5.65249545,3.66972934 5.72597242,3.76243392 5.81799167,3.84209238 C5.91001093,3.92175084 6.04803774,4.00484161 6.23207625,4.09136718 C6.42847556,4.18475985 6.55860532,4.25274321 6.62246943,4.29531928 C6.68633354,4.33789536 6.73474593,4.38218754 6.76770805,4.42819717 C6.80067017,4.4742068 6.81715099,4.52673939 6.81715099,4.58579653 C6.81715099,4.69155 6.77972581,4.77120727 6.70487432,4.82477071 C6.63002284,4.87833416 6.5225542,4.90511548 6.38246518,4.90511548 C6.26572434,4.90511548 6.13696798,4.88657457 5.99619225,4.84949218 C5.85541652,4.8124098 5.68339803,4.74854664 5.48013161,4.65790081 L5.48013161,5.25121603 C5.72734753,5.37207714 6.01164156,5.43250679 6.33302225,5.43250679 C6.68187137,5.43250679 6.95414814,5.35422293 7.14986074,5.19765285 C7.34557334,5.04108277 7.44342817,4.8268322 7.44342817,4.55489469 Z M7.98936058,5.39130435 L9.84965102,5.39130435 L9.84965102,4.86391304 L8.62799849,4.86391304 L8.62799849,2.37940554 L7.98936058,2.37940554 L7.98936058,5.39130435 Z" id="Combined-Shape"></path>
                        </g>
                    </g>
                </g>
            </g>
            <path d="M9.67198068,7.2 L14.2281254,7.2 C14.4335646,7.2 14.600106,7.36654142 14.600106,7.57198068 L14.600106,11.1711451 C14.600106,11.3765843 14.4335646,11.5431257 14.2281254,11.5431257 L9.67198068,11.5431257 C9.46654142,11.5431257 9.3,11.3765843 9.3,11.1711451 L9.3,7.57198068 C9.3,7.36654142 9.46654142,7.2 9.67198068,7.2 Z M12.2517845,9.38460508 C12.381901,9.29907644 12.4680964,9.15005494 12.4680964,8.98049163 C12.4680964,8.71512878 12.2572746,8.5 11.9974076,8.5 C11.7373575,8.5 11.5265357,8.71512878 11.5265357,8.98049163 C11.5265357,9.15005494 11.6127311,9.29907644 11.7428476,9.38460508 L11.5,10.0428767 L12.4948151,10.0428767 L12.2517845,9.38460508 Z" id="Combined-Shape"></path>
        </g>
    </g>
</svg>