<?xml version="1.0" encoding="UTF-8"?>
<svg width="20px" height="20px" viewBox="0 0 20 20" version="1.1" xmlns="http://www.w3.org/2000/svg" xmlns:xlink="http://www.w3.org/1999/xlink">
    <!-- Generator: Sketch 54.1 (76490) - https://sketchapp.com -->
    <title>databases-import-database-mono</title>
    <desc>Created with Sketch.</desc>
    <g id="databases-import-database-mono" stroke="none" stroke-width="1" fill="none" fill-rule="evenodd">
        <g id="Group-44" transform="translate(3.000000, 4.000000)">
            <g id="phpmyadmin_icon">
                <g id="Group" transform="translate(0.000000, 6.946021)" fill="#424A60" fill-rule="nonzero">
                    <path d="M0.112608696,0 L0.112608696,0.221585316 C0.112608696,0.14713265 0.116662609,0.0735663249 0.122743478,0 L0.112608696,0 Z" id="Shape"></path>
                    <path d="M10.9129087,0 C10.9189896,0.0735663249 10.9230435,0.14713265 10.9230435,0.221585316 L10.9230435,0 L10.9129087,0 Z" id="Shape"></path>
                </g>
                <path d="M8.72028104,6.59500169 C8.05547534,7.30922728 7.64880952,8.26696069 7.64880952,9.319676 C7.64880952,9.3495944 7.64913799,9.37943609 7.64979152,9.40919764 C6.995703,9.5051702 6.27496712,9.5583265 5.51782609,9.5583265 C2.63954783,9.5583265 0.287377391,8.79013995 0.122743478,7.82182116 L0.112608696,7.82182116 L0.112608696,5.10853158 C0.112608696,6.12742609 2.53256957,6.9535685 5.51782609,6.9535685 C6.71646596,6.9535685 7.82396987,6.82037929 8.72028104,6.59500169 Z M10.8568661,5.39806375 C10.9004258,5.30373609 10.9230435,5.2070346 10.9230435,5.10853158 L10.9230435,5.38535453 C10.9009202,5.38940946 10.8788605,5.39364641 10.8568661,5.39806375 Z M0.112608696,4 L0.122743478,4 C0.116662609,4.03603249 0.112608696,4.07206497 0.112608696,4.10853158 L0.112608696,4 Z M10.9129087,4 L10.9230435,4 L10.9230435,4.10853158 C10.9230435,4.07206497 10.9189896,4.03603249 10.9129087,4 Z" id="Combined-Shape" fill="#696E92" fill-rule="nonzero"></path>
                <ellipse id="Oval" fill="#696E92" fill-rule="nonzero" cx="5.51782609" cy="1.84503692" rx="5.40521739" ry="1.84503692"></ellipse>
                <path d="M5.51782609,3.69007383 C2.53256957,3.69007383 0.112608696,2.86393142 0.112608696,1.84503692 L0.112608696,4.5583265 L0.122743478,4.5583265 C0.287377391,5.52664528 2.63954783,6.29483183 5.51782609,6.29483183 C8.39610435,6.29483183 10.7482748,5.52664528 10.9129087,4.5583265 L10.9230435,4.5583265 L10.9230435,1.84503692 C10.9230435,2.86393142 8.50308261,3.69007383 5.51782609,3.69007383 Z" id="Shape" fill="#696E92" fill-rule="nonzero"></path>
                <g id="Group-25" transform="translate(11.200000, 8.900000) rotate(-90.000000) translate(-11.200000, -8.900000) translate(6.700000, 4.900000)">
                    <path d="M4.20226843,7.20604274 C2.43370441,7.20604274 1,5.81677275 1,4.10302137 C1,2.38926999 2.43370441,1 4.20226843,1 C5.97083245,1 7.40453686,2.38926999 7.40453686,4.10302137 C7.40453686,5.81677275 5.97083245,7.20604274 4.20226843,7.20604274 Z M2.34318999,3.55623113 L2.34318999,4.67185546 L4.64769678,4.67185546 L4.64769678,3.55623113 L2.34318999,3.55623113 Z M4.64769678,2.82865004 L4.64769678,4.16254871 L6.39659833,4.16254871 L4.64769678,2.82865004 Z M4.64769678,5.49644739 L6.39659833,4.16254871 L4.64769678,4.16254871 L4.64769678,5.49644739 Z" id="Combined-Shape" fill="#696E92" fill-rule="nonzero"></path>
                    <g id="Group-30" transform="translate(3.136288, 1.770653)">
                        <g id="Group-29" transform="translate(2.343256, 0.000000)"></g>
                    </g>
                </g>
            </g>
        </g>
    </g>
</svg>