<?xml version="1.0" encoding="UTF-8"?>
<svg width="20px" height="20px" viewBox="0 0 20 20" version="1.1" xmlns="http://www.w3.org/2000/svg" xmlns:xlink="http://www.w3.org/1999/xlink">
    <!-- Generator: Sketch 54.1 (76490) - https://sketchapp.com -->
    <title>databases-mysql-databases-mono</title>
    <desc>Created with Sketch.</desc>
    <g id="databases-mysql-databases-mono" stroke="none" stroke-width="1" fill="none" fill-rule="evenodd">
        <g id="mysql_databases_icon" transform="translate(5.000000, 6.000000)" fill-rule="nonzero">
            <g id="databases_icon">
                <g id="Group" transform="translate(0.000000, 6.063987)" fill="#424A60">
                    <path d="M0.1,0 L0.1,0.221082855 C0.1,0.146799016 0.1036,0.0733995078 0.109,0 L0.1,0 Z" id="Shape"></path>
                    <path d="M9.691,0 C9.6964,0.0733995078 9.7,0.146799016 9.7,0.221082855 L9.7,0 L9.691,0 Z" id="Shape"></path>
                </g>
                <g id="Group" transform="translate(0.000000, 3.789992)">
                    <path d="M4.9,2.27692488 C2.249,2.27692488 0.1,1.55568944 0.1,0.666178366 L0.1,3.03492324 L0.109,3.03492324 C0.2552,3.88028091 2.344,4.55091996 4.9,4.55091996 C7.456,4.55091996 9.5448,3.88028091 9.691,3.03492324 L9.7,3.03492324 L9.7,0.666178366 C9.7,1.55568944 7.551,2.27692488 4.9,2.27692488 Z" id="Shape" fill="#696E92"></path>
                    <path d="M0.1,0 L0.1,0.0947497949 C0.1,0.0629138638 0.1036,0.0314569319 0.109,0 L0.1,0 Z" id="Shape" fill="#556080"></path>
                    <path d="M9.691,0 C9.6964,0.0314569319 9.7,0.0629138638 9.7,0.0947497949 L9.7,0 L9.691,0 Z" id="Shape" fill="#556080"></path>
                </g>
                <ellipse id="Oval" fill="#696E92" cx="4.9" cy="1.61074651" rx="4.8" ry="1.61074651"></ellipse>
                <g id="Group" transform="translate(0.000000, 1.515997)" fill="#7383BF">
                    <path d="M0.1,0 L0.1,0.221082855 C0.1,0.146799016 0.1036,0.0733995078 0.109,0 L0.1,0 Z" id="Shape"></path>
                    <path d="M9.691,0 C9.6964,0.0733995078 9.7,0.146799016 9.7,0.221082855 L9.7,0 L9.691,0 Z" id="Shape"></path>
                </g>
                <path d="M4.9,3.22149303 C2.249,3.22149303 0.1,2.50025759 0.1,1.61074651 L0.1,3.97949139 L0.109,3.97949139 C0.2552,4.82484906 2.344,5.49548811 4.9,5.49548811 C7.456,5.49548811 9.5448,4.82484906 9.691,3.97949139 L9.7,3.97949139 L9.7,1.61074651 C9.7,2.50025759 7.551,3.22149303 4.9,3.22149303 Z" id="Shape" fill="#696E92"></path>
            </g>
        </g>
    </g>
</svg>