<?xml version="1.0" encoding="UTF-8"?>
<svg width="20px" height="20px" viewBox="0 0 20 20" version="1.1" xmlns="http://www.w3.org/2000/svg" xmlns:xlink="http://www.w3.org/1999/xlink">
    <!-- Generator: Sketch 54.1 (76490) - https://sketchapp.com -->
    <title>domains-cloudflare-mono</title>
    <desc>Created with Sketch.</desc>
    <g id="domains-cloudflare-mono" stroke="none" stroke-width="1" fill="none" fill-rule="evenodd">
        <g id="cf-logo-v" transform="translate(3.000000, 7.000000)" fill="#696E92" fill-rule="nonzero">
            <g id="Group" transform="translate(0.101590, 0.000000)">
                <path d="M9.54136784,5.60397377 C9.62670376,5.32930658 9.59419484,5.07752831 9.45196831,4.89060203 C9.32193264,4.71893503 9.10249743,4.61974965 8.83836246,4.60830519 L3.83605249,4.54726803 C3.80354357,4.54726803 3.77509826,4.53200874 3.7588438,4.50911981 C3.74258935,4.48623088 3.73852573,4.4557123 3.74665296,4.42519372 C3.76290742,4.37941586 3.8116708,4.34508246 3.86449779,4.34126763 L8.91150753,4.28023048 C9.50885892,4.25352672 10.1590373,3.79956288 10.3865997,3.24259885 L10.6751164,2.53685675 C10.6873073,2.50633817 10.6913709,2.47581959 10.6832436,2.44530101 C10.3581544,1.06433539 9.04560682,0.0343333996 7.47705146,0.0343333996 C6.03040455,0.0343333996 4.80319284,0.9117425 4.36432243,2.12867077 C4.07986938,1.93030002 3.71820766,1.823485 3.32810062,1.8578184 C2.63322247,1.92267038 2.07650723,2.44530101 2.00742577,3.09763561 C1.99117131,3.26548778 2.00336216,3.42952513 2.04399831,3.58211802 C0.910249743,3.6126366 0.00406361492,4.48241605 0.00406361492,5.55438108 C0.00406361492,5.64975164 0.0121908448,5.74512219 0.0243816895,5.84049275 C0.0325089194,5.88627061 0.0731450686,5.92060401 0.121908448,5.92060401 L9.35444156,5.92060401 C9.40726855,5.92060401 9.45603193,5.88627061 9.47228639,5.83667793 L9.54136784,5.60397377 Z" id="Shape"></path>
                <path d="M11.1343049,2.58644943 C11.0896051,2.58644943 11.0408417,2.58644943 10.996142,2.59026426 C10.9636331,2.59026426 10.9351878,2.61315319 10.9229969,2.64367177 L10.7279434,3.28074707 C10.6426075,3.55541427 10.6751164,3.80719253 10.8173429,3.99411882 C10.9473786,4.16578581 11.1668138,4.26497119 11.4309488,4.27641566 L12.4956159,4.33745281 C12.5281248,4.33745281 12.5565701,4.3527121 12.5728246,4.37560103 C12.589079,4.39848997 12.5931426,4.43282337 12.5850154,4.45952712 C12.568761,4.50530499 12.5199976,4.53963839 12.4671706,4.54345321 L11.3578037,4.60449036 C10.7563887,4.63119412 10.1102739,5.08515796 9.8827115,5.64212199 L9.8014392,5.83667793 C9.78518474,5.87482615 9.81363004,5.91297437 9.85832981,5.91297437 L13.6700006,5.91297437 C13.7147004,5.91297437 13.7553365,5.88627061 13.7675274,5.84430757 C13.8325452,5.62304788 13.8691177,5.39034373 13.8691177,5.15000993 C13.8691177,3.73852573 12.641906,2.58644943 11.1343049,2.58644943" id="Shape"></path>
            </g>
        </g>
    </g>
</svg>