<?xml version="1.0" encoding="UTF-8"?>
<svg width="20px" height="20px" viewBox="0 0 20 20" version="1.1" xmlns="http://www.w3.org/2000/svg" xmlns:xlink="http://www.w3.org/1999/xlink">
    <!-- Generator: Sketch 54.1 (76490) - https://sketchapp.com -->
    <title>emails-mail-service-control-mono</title>
    <desc>Created with Sketch.</desc>
    <g id="emails-mail-service-control-mono" stroke="none" stroke-width="1" fill="none" fill-rule="evenodd">
        <g id="Group" transform="translate(3.000000, 5.000000)" fill="#696E92">
            <path d="M10.2791226,5.6733194 C10.2547351,5.67547657 10.230174,5.67657143 10.2055,5.67657143 C10.1315,5.67657143 10.0565,5.66357143 9.983,5.64357143 C9.893,5.61907143 9.805,5.58257143 9.7215,5.52607143 L9.267,5.21857143 L9.2635,5.21607143 L9.261,5.21857143 L8.8435,5.63607143 L8.692,5.78707143 L8.767,5.88957143 L8.956,6.14707143 C9.08274706,6.31993893 9.13435617,6.51734243 9.12322676,6.70776827 L4.17443857e-14,6.70776827 L4.17443857e-14,0.428571429 L5.13956131,5.50023041 L10.2791226,0.428571429 L10.2791226,5.6733194 Z M10.5,5.62327275 L10.5,1.42857143 L12,1.42857143 L12,4.61403099 L11.9715,4.42857143 L11.1635,4.42857143 L11.0585,4.97257143 C11.041,5.06307143 11.0045,5.14307143 10.964,5.21857143 C10.8605087,5.40971016 10.6933789,5.55130185 10.5,5.62327275 Z M8.18733577,8.42857143 L1,8.42857143 L1,6.92857143 L9.08131972,6.92857143 C8.98866562,7.21199361 8.75258303,7.44718751 8.4215,7.51107143 L8.11,7.57107143 L8,7.59207143 L8,7.79607143 L8,8.39957143 L8.18733577,8.42857143 Z M2.93098879e-14,-1.63868918e-13 L10.2791226,-1.63868918e-13 L5.13956131,5.07165899 L2.93098879e-14,-1.63868918e-13 Z" id="Combined-Shape"></path>
            <g id="Group-41" transform="translate(9.000000, 5.428571)">
                <path d="M2.5,3 C2.47966026,3 2.46021457,2.99620112 2.44054537,2.99418994 C2.25927582,2.9722905 2.10706303,2.85564246 2.03889137,2.69340782 C2.01385785,2.63396648 2,2.56849162 2,2.50011173 C2,2.22391061 2.22396066,2 2.5,2 C2.5688422,2 2.63433169,2.01407821 2.69378632,2.03910615 C2.85650425,2.1077095 2.97295485,2.2603352 2.99418865,2.44223464 C2.9966473,2.46145251 3,2.48022346 3,2.50011173 C3,2.77608939 2.77603934,3 2.5,3 L2.5,3 Z M4.69892857,2.20178571 C4.25285714,2.11571429 4.04821429,1.59428571 4.31714286,1.2275 L4.50571429,0.970357143 L4.37464286,0.839285714 L4.09964286,0.564285714 L4.09785714,0.5625 L4.095,0.564285714 L3.84428571,0.733928571 C3.73571429,0.807857143 3.61571429,0.841071429 3.49857143,0.841071429 C3.49571429,0.841071429 3.49285714,0.840357143 3.49,0.840357143 C3.28821429,0.837857143 3.09714286,0.734642857 2.98357143,0.564285714 C2.93535714,0.4925 2.89964286,0.409642857 2.88535714,0.316071429 L2.83678571,0 L2.25964286,0 L2.18464286,0.388571429 C2.17214286,0.453214286 2.14607143,0.510357143 2.11714286,0.564285714 C2.0075,0.766785714 1.79785714,0.891428571 1.57535714,0.891428571 C1.5225,0.891428571 1.46892857,0.882142857 1.41642857,0.867857143 C1.35214286,0.850357143 1.28928571,0.824285714 1.22964286,0.783928571 L0.905,0.564285714 L0.9025,0.5625 L0.900714286,0.564285714 L0.6025,0.8625 L0.494285714,0.970357143 L0.547857143,1.04357143 L0.682857143,1.2275 C0.951785714,1.59428571 0.747142857,2.11571429 0.301071429,2.20178571 L0.0785714286,2.24464286 L0,2.25964286 L0,2.40535714 L0,2.83642857 L0.316071429,2.88535714 C0.415714286,2.90071429 0.502142857,2.94035714 0.576785714,2.99357143 C0.739642857,3.10857143 0.834642857,3.295 0.837142857,3.49178571 C0.838571429,3.61142857 0.809285714,3.73357143 0.734285714,3.84392857 L0.562142857,4.0975 L0.838214286,4.37357143 L0.970357143,4.50571429 L1.22785714,4.31678571 C1.34035714,4.23428571 1.4675,4.19642857 1.59178571,4.19642857 C1.87321429,4.19642857 2.14214286,4.39 2.20178571,4.69892857 L2.25964286,5 L2.83678571,5 L2.87071429,4.77821429 C2.92035714,4.45678571 3.19535714,4.25214286 3.48464286,4.25214286 C3.60928571,4.25214286 3.73607143,4.29035714 3.84892857,4.37285714 L4.02964286,4.50571429 L4.43785714,4.0975 L4.26571429,3.84392857 C4.01107143,3.46821429 4.23535714,2.95392857 4.68392857,2.88535714 L5,2.83642857 L5,2.25964286 L4.69892857,2.20178571 Z" id="Fill-15"></path>
            </g>
        </g>
    </g>
</svg>