<?xml version="1.0" encoding="UTF-8"?>
<svg width="20px" height="20px" viewBox="0 0 20 20" version="1.1" xmlns="http://www.w3.org/2000/svg" xmlns:xlink="http://www.w3.org/1999/xlink">
    <!-- Generator: Sketch 54.1 (76490) - https://sketchapp.com -->
    <title>emails-edit-mx-record-mono</title>
    <desc>Created with Sketch.</desc>
    <g id="emails-edit-mx-record-mono" stroke="none" stroke-width="1" fill="none" fill-rule="evenodd">
        <g id="Group-69" transform="translate(3.000000, 4.000000)" fill="#696E92">
            <g id="Group-26">
                <path d="M1.33226763e-14,1 L5.13956131,6.07165899 L10.2791226,1 L10.2791226,7.27919684 L2.7533531e-14,7.27919684 L2.7533531e-14,1 Z" id="Combined-Shape"></path>
                <path d="M1.50990331e-14,0.571428571 L10.2791226,0.571428571 L5.13956131,5.64308756 L1.50990331e-14,0.571428571 Z M3.88532715,3.5 L3.42126465,1.9878418 L3.40939941,1.9878418 C3.42609872,2.29546052 3.43444824,2.50068308 3.43444824,2.60351562 L3.43444824,3.5 L3.0692627,3.5 L3.0692627,1.57255859 L3.62561035,1.57255859 L4.0817627,3.04648437 L4.08967285,3.04648437 L4.57351074,1.57255859 L5.1298584,1.57255859 L5.1298584,3.5 L4.74885254,3.5 L4.74885254,2.58769531 C4.74885254,2.54462869 4.74951171,2.49497098 4.75083008,2.4387207 C4.75214844,2.38247042 4.758081,2.23305785 4.76862793,1.99047852 L4.7567627,1.99047852 L4.25974121,3.5 L3.88532715,3.5 Z M7.17331543,3.5 L6.70661621,3.5 L6.25837402,2.77094727 L5.81013184,3.5 L5.37243652,3.5 L6.01184082,2.50595703 L5.41330566,1.57255859 L5.86418457,1.57255859 L6.27946777,2.26601562 L6.68684082,1.57255859 L7.12717285,1.57255859 L6.5220459,2.52836914 L7.17331543,3.5 Z" id="Combined-Shape"></path>
            </g>
            <path d="M12,5.91684284 C11.9147394,6.16172923 11.9018867,6.42612679 11.9584094,6.67987151 L9.68020813,8.9609302 C9.43295345,8.90508393 9.16999401,8.91713128 8.92511111,9 L1,9 L1,7.5 L10.5,7.5 L10.5,2 L12,2 L12,5.91684284 Z M12,8.46320192 L12,9 L11.4619169,9 L12,8.46320192 Z" id="Combined-Shape"></path>
            <path d="M14.7358812,6.23290919 C14.7275635,6.17484496 14.710928,6.11678073 14.6943135,6.0670144 L13.8462396,6.90476521 L13.0480511,6.10848283 L12.9399624,6.00065227 L13.7215365,5.22094463 C13.2974995,5.1462846 12.8485092,5.27071096 12.5242432,5.60250055 C12.1750238,5.95088593 12.0586385,6.43197452 12.1584094,6.87987151 L9.88020813,9.1609302 C9.43953563,9.06139754 8.94897766,9.177526 8.59977942,9.52589032 C8.27551337,9.84938201 8.15078916,10.2973001 8.21731014,10.7203244 L8.99888423,9.94061678 L9.10697292,10.0484473 L9.90516142,10.8447297 L9.05708745,11.6907784 C9.11529068,11.7073742 9.16517614,11.723949 9.22337936,11.7322469 C9.64741635,11.8069069 10.0964066,11.6824805 10.4206727,11.3506909 C10.769892,11.0023056 10.8862774,10.521217 10.7865064,10.07332 L13.0730044,7.79228235 C13.5136769,7.89181501 14.0042348,7.77568655 14.3534331,7.42732223 C14.677678,7.1038516 14.8024022,6.65593354 14.7358812,6.23290919 Z" id="Shape-Copy" fill-rule="nonzero"></path>
        </g>
    </g>
</svg>