<?xml version="1.0" encoding="UTF-8"?>
<svg width="20px" height="20px" viewBox="0 0 20 20" version="1.1" xmlns="http://www.w3.org/2000/svg" xmlns:xlink="http://www.w3.org/1999/xlink">
    <!-- Generator: Sketch 54.1 (76490) - https://sketchapp.com -->
    <title>emails-email-accounts-mono</title>
    <desc>Created with Sketch.</desc>
    <g id="emails-email-accounts-mono" stroke="none" stroke-width="1" fill="none" fill-rule="evenodd">
        <path d="M13.2791226,9.79474324 C12.8058253,10.1837494 12.4364144,10.6945364 12.2187975,11.2791968 L3,11.2791968 L3,5 L8.13956131,10.071659 L13.2791226,5 L13.2791226,9.79474324 Z M12.0311247,12.9687983 C11.9954833,12.9777578 11.9601125,12.9881555 11.9251111,13 L4,13 L4,11.5 L12.1449393,11.5 C12.0506388,11.8168547 12,12.1525137 12,12.5 C12,12.658964 12.0105975,12.8154527 12.0311247,12.9687983 Z M13.5,9.62734464 L13.5,6 L15,6 L15,9.03544443 C14.4479714,9.11440594 13.9374963,9.3221811 13.5,9.62734464 Z M3,4.57142857 L13.2791226,4.57142857 L8.13956131,9.64308756 L3,4.57142857 Z" id="Combined-Shape" fill="#696E92"></path>
        <g id="Group-34" transform="translate(12.300000, 7.300000)" fill="#696E92" fill-rule="nonzero">
            <path d="M6.32184896,5.31403176 C6.32184896,3.48379844 4.90660156,2 3.16092448,2 C1.4152474,2 -4.17443857e-14,3.48379844 -4.17443857e-14,5.31403176 C-4.17443857e-14,6.33586698 0.446325955,7.24279954 1.13981771,7.85037454 C1.21210069,7.69727945 1.32673177,7.56668437 1.47509332,7.48186514 L2.374477,6.96751872 C2.49247396,6.90014387 2.52873481,6.77044978 2.52873481,6.62949318 L2.52873481,6.2430889 C2.52873481,6.2430889 2.20799696,5.91234646 2.10728299,5.45213519 C2.02382812,5.39557235 1.89654514,5.29771363 1.89654514,5.18613968 L1.89654514,4.76349513 C1.89654514,4.67049181 2.04595703,4.58719928 2.10728299,4.52908471 L2.10728299,3.9179808 C2.10728299,3.9179808 2.07503255,2.88378185 3.16092448,2.88378185 C4.29148003,2.88378185 4.21456597,3.9179808 4.21456597,3.9179808 L4.21456597,4.52908471 C4.27589193,4.58719928 4.42530382,4.67049181 4.42530382,4.76349513 L4.42530382,5.18613968 C4.42530382,5.29771363 4.29802083,5.39559737 4.21456597,5.45213519 C4.11382812,5.91234646 3.79311415,6.2430889 3.79311415,6.2430889 L3.79311415,6.62949318 C3.79311415,6.77044978 3.82935113,6.90014387 3.94737196,6.96751872 L4.84675564,7.48186514 C4.99511719,7.56670939 5.10974826,7.69727945 5.18203125,7.85037454 C5.875523,7.24279954 6.32184896,6.33586698 6.32184896,5.31403176" id="Shape"></path>
        </g>
    </g>
</svg>