<?xml version="1.0" encoding="UTF-8"?>
<svg width="20px" height="20px" viewBox="0 0 20 20" version="1.1" xmlns="http://www.w3.org/2000/svg" xmlns:xlink="http://www.w3.org/1999/xlink">
    <!-- Generator: Sketch 54.1 (76490) - https://sketchapp.com -->
    <title>emails-email-forwarders-mono</title>
    <desc>Created with Sketch.</desc>
    <g id="emails-email-forwarders-mono" stroke="none" stroke-width="1" fill="none" fill-rule="evenodd">
        <g id="Group-2" transform="translate(2.000000, 5.000000)" fill="#696E92">
            <g id="Group">
                <g id="Group-26">
                    <path d="M4.26105204,5.20475631 C3.50625992,5.86833013 2.99699315,6.58436518 2.65627825,7.27919684 L2.7533531e-14,7.27919684 L2.7533531e-14,1 L4.26105204,5.20475631 Z M7.40565333,3.83550589 L9.21725944,2.04783416 L9.21725944,3.72727273 C8.53536666,3.70785346 7.93225899,3.75289203 7.40565333,3.83550589 Z M9.75816772,1.5140722 L10.2791226,1 L10.2791226,2.00918098 L9.75816772,1.5140722 Z M8.35667482,7.27919684 L8.12707778,7.27919684 C8.20726076,7.27775352 8.28389373,7.27787145 8.35667463,7.27919684 Z" id="Combined-Shape"></path>
                    <path d="M9.53693249,1.30381311 L9.21725944,1 L9.21725944,1.61926273 L6.8676394,3.93784031 C5.31960235,4.28600378 4.58587295,4.93455564 4.58587295,4.93471568 C4.55527337,4.95878233 4.52502726,4.98293534 4.49513067,5.00717094 L1.50990331e-14,0.571428571 L10.2791226,0.571428571 L9.53693249,1.30381311 Z" id="Combined-Shape"></path>
                </g>
                <g id="Group-26" transform="translate(8.000000, 3.000000)">
                    <path d="M0.011316271,0.761515725 C0.00754093355,0.761850694 0.00376884344,0.762187651 2.73114864e-14,0.76252659 L2.7533531e-14,0.75 L0.011316271,0.761515725 Z M5.85075364,2.40361274 L7.47572554,0.75 L7.47572554,5.45939763 L2.93394057,5.45939763 L6,2.54545455 L5.85075364,2.40361274 Z M1.21725944,5.45939763 L2.7533531e-14,5.45939763 L2.7533531e-14,4.28273282 C0.741637194,4.25483677 1.21725944,4.36363636 1.21725944,4.36363636 L1.21725944,5.45939763 Z" id="Combined-Shape"></path>
                    <path d="M1.21725944,0.428571429 L1.21725944,0.727272727 C0.896094598,0.71812644 0.592406794,0.723278952 0.305957494,0.739921558 L1.50990331e-14,0.428571429 L1.21725944,0.428571429 Z M3.7726094,0.428571429 L7.47572554,0.428571429 L5.68742715,2.24838936 L3.7726094,0.428571429 Z" id="Combined-Shape"></path>
                </g>
            </g>
            <g id="Group-70" transform="translate(2.000000, 1.000000)" fill-rule="nonzero">
                <path d="M7.56510627,3.15878428 L7.56510627,0.972222222 L11.3941716,4.54607662 L7.56510627,8.13319196 L7.56510627,6.02564103 C7.56510627,6.02564103 2.84500997,4.96518614 0.400252189,8.86420544 C0.400252189,8.86420544 0.181420762,6.34251195 2.91194518,4.18613745 C2.91194518,4.18594591 4.52675876,2.83683899 7.56510627,3.15878428 Z" id="Shape"></path>
            </g>
        </g>
    </g>
</svg>