<?xml version="1.0" encoding="UTF-8"?>
<svg width="20px" height="20px" viewBox="0 0 20 20" version="1.1" xmlns="http://www.w3.org/2000/svg" xmlns:xlink="http://www.w3.org/1999/xlink">
    <!-- Generator: Sketch 54.1 (76490) - https://sketchapp.com -->
    <title>emails-gsuite-mono</title>
    <desc>Created with Sketch.</desc>
    <g id="emails-gsuite-mono" stroke="none" stroke-width="1" fill="none" fill-rule="evenodd">
        <g id="G" transform="translate(3.000000, 3.000000)" fill="#696E92">
            <path d="M0.749936902,3.7864044 C1.90856319,1.54147701 4.28935595,-3.46389584e-13 7.03973257,-3.46389584e-13 C8.93850489,-3.46389584e-13 10.5292889,0.681498953 11.7495092,1.79060509 L9.74025222,3.75206217 L9.74025222,3.75110769 C9.00694673,3.06865426 8.0771154,2.72026893 7.03973257,2.72026893 C5.20354548,2.72026893 3.64503376,3.92862809 3.08771387,5.55695833 C2.94496457,5.97216432 2.86674532,6.41504319 2.86674532,6.87223927 C2.86674532,7.32943534 2.94496457,7.77231421 3.0877147,8.18751316 C3.64501709,9.81587568 5.20353566,11.0242478 7.03973257,11.0242478 C7.99107421,11.0242478 8.80455443,10.7818098 9.43617488,10.3666108 C10.1851346,9.87506206 10.6788931,9.14097164 10.8421757,8.27821743 L7.03974236,8.27821743 L7.03974236,5.63144348 L13.6786012,5.63144348 C13.7577983,6.07814026 13.7998411,6.54488115 13.7998411,7.02880268 C13.7998411,9.12006907 13.0342702,10.8887211 11.7055207,12.0856395 C10.5390566,13.135562 8.93947683,13.7445167 7.03973257,13.7445167 C4.28934817,13.7445167 1.90854972,12.203031 0.749927068,9.95809325 C0.270840248,9.03040047 9.77740639e-06,7.98229233 9.77740639e-06,6.87223927 C9.77740639e-06,5.76217864 0.270843933,4.71415924 0.749936845,3.78640437 Z" id="Combined-Shape"></path>
        </g>
    </g>
</svg>