<?xml version="1.0" encoding="UTF-8"?>
<svg width="20px" height="20px" viewBox="0 0 20 20" version="1.1" xmlns="http://www.w3.org/2000/svg" xmlns:xlink="http://www.w3.org/1999/xlink">
    <!-- Generator: Sketch 54.1 (76490) - https://sketchapp.com -->
    <title>files-ftp-access-mono</title>
    <desc>Created with Sketch.</desc>
    <g id="files-ftp-access-mono" stroke="none" stroke-width="1" fill="none" fill-rule="evenodd">
        <g id="Group" transform="translate(4.000000, 4.000000)">
            <g id="ftp_access_icon">
                <g id="databases_icon">
                    <g id="Group-46" fill="#696E92">
                        <g id="Group-45">
                            <path d="M11.8545542,11.6273236 L10.7990756,10.6624066 C11.2265678,9.85043122 11.2069568,8.94874753 10.4998311,8.27045517 C9.57261051,7.3812197 8.03928221,7.42722397 7.1748451,8.40873859 C6.42355938,9.26171187 6.48902352,10.5568674 7.3172014,11.3415108 C7.51793829,11.5316959 7.74290051,11.6746321 7.98170254,11.7727273 L0.573643411,11.7727273 C0.256828903,11.7727273 -1.07303648e-14,11.5158984 -1.07691633e-14,11.1990839 L-1.07691633e-14,0.573643411 C-1.08079619e-14,0.256828903 0.256828903,6.62528277e-13 0.573643411,6.62470079e-13 L11.4728682,6.62470079e-13 C11.7896827,6.63537432e-13 12.0465116,0.256828903 12.0465116,0.573643411 L12.0465116,11.1990839 C12.0465116,11.3693361 11.9723431,11.5222654 11.8545542,11.6273236 Z M1.97313553,2.74020376 C2.37461598,2.74020376 2.70008019,2.42213646 2.70008019,2.02978056 C2.70008019,1.63742467 2.37461598,1.31935737 1.97313553,1.31935737 C1.57165507,1.31935737 1.24619086,1.63742467 1.24619086,2.02978056 C1.24619086,2.42213646 1.57165507,2.74020376 1.97313553,2.74020376 Z M1.97313553,6.66444619 C2.37461598,6.66444619 2.70008019,6.34637889 2.70008019,5.95402299 C2.70008019,5.56166709 2.37461598,5.24359979 1.97313553,5.24359979 C1.57165507,5.24359979 1.24619086,5.56166709 1.24619086,5.95402299 C1.24619086,6.34637889 1.57165507,6.66444619 1.97313553,6.66444619 Z M1.97313553,10.5886886 C2.37461598,10.5886886 2.70008019,10.2706213 2.70008019,9.87826541 C2.70008019,9.48590951 2.37461598,9.16784222 1.97313553,9.16784222 C1.57165507,9.16784222 1.24619086,9.48590951 1.24619086,9.87826541 C1.24619086,10.2706213 1.57165507,10.5886886 1.97313553,10.5886886 Z" id="Combined-Shape"></path>
                        </g>
                    </g>
                    <g id="Group-46-Copy-2" transform="translate(1.147287, 8.969697)">
                        <g id="Group-45"></g>
                    </g>
                </g>
            </g>
            <g id="key" transform="translate(7.000000, 8.000000)" fill="#696E92" fill-rule="nonzero">
                <path d="M3.47455037,2.59375109 C3.83264445,1.89777221 3.81621703,1.12490048 3.22388451,0.543507029 C2.44718673,-0.218694803 1.16277536,-0.179262572 0.438668946,0.662035677 C-0.190654807,1.39315563 -0.135817958,2.50328892 0.557915456,3.17584041 C1.08560195,3.68741562 1.81313566,3.80014541 2.47165058,3.57781721 L2.80587172,3.91241129 L3.39997698,3.91241129 L3.39997698,4.37631989 L3.87270844,4.37631989 L3.87270844,4.8402285 L4.46362276,4.8402285 L4.46362276,5.42011425 L4.81817136,5.42011425 L4.81817136,5.74206682 C4.81817136,5.83566038 4.82278049,5.86337892 4.88329011,5.92264324 C4.92914506,5.96764238 4.98989106,5.99512896 5.05453708,6 L6,6 L6,4.95620565 L3.47455037,2.59375109 Z M1.64802525,1.63725703 C1.45272037,1.83254726 1.13621246,1.83254726 0.940907576,1.63725703 C0.745602693,1.44196679 0.745602693,1.12548261 0.940907576,0.930192378 C1.13621246,0.734902143 1.45272037,0.734902143 1.64802525,0.930192378 C1.84323013,1.12538262 1.84323013,1.44196679 1.64802525,1.63725703 Z" id="Shape"></path>
            </g>
        </g>
    </g>
</svg>