<?xml version="1.0" encoding="UTF-8"?>
<svg width="20px" height="20px" viewBox="0 0 20 20" version="1.1" xmlns="http://www.w3.org/2000/svg" xmlns:xlink="http://www.w3.org/1999/xlink">
    <!-- Generator: Sketch 54.1 (76490) - https://sketchapp.com -->
    <title>other-ip-deny-manager-mono</title>
    <desc>Created with Sketch.</desc>
    <g id="other-ip-deny-manager-mono" stroke="none" stroke-width="1" fill="none" fill-rule="evenodd">
        <g id="Group-60" transform="translate(4.000000, 3.000000)" fill="#696E92">
            <g id="ip_deny_manager_icon" transform="translate(0.142857, 0.000000)">
                <g id="Group" transform="translate(0.000000, 4.714286)" fill-rule="nonzero">
                    <path d="M2.75823237,7.81773214 L0.695600755,7.81773214 C0.316529108,7.81773214 0.00804823028,7.49946429 0.00804823028,7.10836607 L0.00804823028,4.98029464 C0.00804823028,4.58919643 0.316529108,4.27092857 0.695600755,4.27092857 L10.0920654,4.27092857 C10.2185784,4.27092857 10.3212582,4.16499107 10.3212582,4.03446429 L10.3212582,0.724125 C10.3212582,0.593598214 10.2185784,0.487660714 10.0920654,0.487660714 L8.94615316,0.487660714 C8.81940651,0.487660714 8.71696033,0.381964286 8.71696033,0.251196429 C8.71696033,0.120428571 8.81940651,0.0147321429 8.94615316,0.0147321429 L10.0920654,0.0147321429 C10.471137,0.0147321429 10.7796179,0.333 10.7796179,0.724098214 L10.7796179,4.0344375 C10.7796179,4.42553571 10.471137,4.74380357 10.0920654,4.74380357 L0.695600755,4.74380357 C0.569087767,4.74380357 0.466407926,4.84974107 0.466407926,4.98026786 L0.466407926,7.10833929 C0.466407926,7.23886607 0.569087767,7.34480357 0.695600755,7.34480357 L2.75823237,7.34480357 C2.88497901,7.34480357 2.98742519,7.4505 2.98742519,7.58126786 C2.98742519,7.71203571 2.88497901,7.81773214 2.75823237,7.81773214" id="Shape"></path>
                </g>
                <path d="M8.94615316,5.20197321 L1.15396045,5.20197321 L1.15396045,0.472901786 C1.15396045,0.211875 1.35932013,0 1.61232015,0 L8.48779346,0 C8.74081944,0 8.94615316,0.211875 8.94615316,0.472901786 L8.94615316,5.20197321 Z M5.10009718,4.24489796 C5.98031777,4.24489796 6.69387755,3.51393429 6.69387755,2.6122449 C6.69387755,1.71055551 5.98031777,0.979591837 5.10009718,0.979591837 C4.21987659,0.979591837 3.50631681,1.71055551 3.50631681,2.6122449 C3.50631681,3.51393429 4.21987659,4.24489796 5.10009718,4.24489796 Z" id="Combined-Shape" fill-rule="nonzero"></path>
                <g id="Group" transform="translate(3.506317, 1.979592)">
                    <rect id="Rectangle-17-Copy" x="0.796890185" y="0.469387755" width="1.59378037" height="1"></rect>
                </g>
                <path d="M8.48779346,6.14777679 L1.61232015,6.14777679 C1.35929417,6.14777679 1.15396045,5.93590179 1.15396045,5.674875 L1.15396045,5.20197321 L8.94615316,5.20197321 L8.94615316,5.674875 C8.94615316,5.93592857 8.74081944,6.14777679 8.48779346,6.14777679" id="Shape" fill-rule="nonzero"></path>
                <path d="M6.84927763,7.71873214 L3.25340622,7.71873214 C3.04186758,7.71873214 2.91558825,7.47541071 3.03293664,7.29358929 L3.67487387,6.3 L6.42505801,6.3 L7.06860488,7.29570536 C7.18548596,7.47658929 7.0599076,7.71873214 6.84927763,7.71873214" id="Shape" fill-rule="nonzero"></path>
                <g id="Group-56" transform="translate(2.550049, 10.775510)" fill-rule="nonzero">
                    <path d="M8.22956931,2.93877551 L0.895736299,2.93877551 C0.51598964,2.93877551 0.208183775,2.62123087 0.208183775,2.22940944 L0.208183775,0.810677296 C0.208183775,0.418882653 0.515963678,0.101311224 0.895736299,0.101311224 L8.22956931,0.101311224 C8.60931597,0.101311224 8.91712184,0.418855867 8.91712184,0.810677296 L8.91712184,2.22940944 C8.91712184,2.62123087 8.60931597,2.93877551 8.22956931,2.93877551 Z M3.64592043,1.99297194 C3.77266708,1.99297194 3.87511326,1.88727551 3.87511326,1.75650765 L3.87511326,1.28360587 C3.87511326,1.15283801 3.77266708,1.04714158 3.64592043,1.04714158 L3.18756074,1.04714158 C3.06081409,1.04714158 2.95836791,1.15283801 2.95836791,1.28360587 L2.95836791,1.75650765 C2.95836791,1.88727551 3.06081409,1.99297194 3.18756074,1.99297194 L3.64592043,1.99297194 Z M1.81245569,1.99297194 C1.93920234,1.99297194 2.04164852,1.88727551 2.04164852,1.75650765 L2.04164852,1.28360587 C2.04164852,1.15283801 1.93920234,1.04714158 1.81245569,1.04714158 L1.35409599,1.04714158 C1.22734935,1.04714158 1.12490317,1.15283801 1.12490317,1.28360587 L1.12490317,1.75650765 C1.12490317,1.88727551 1.22734935,1.99297194 1.35409599,1.99297194 L1.81245569,1.99297194 Z M7.77120962,1.75650765 C7.8979303,1.75650765 8.00037648,1.65081122 8.00040245,1.52004337 C8.00040245,1.38927551 7.89795626,1.28357908 7.77120962,1.28357908 L4.79183265,1.28357908 C4.66508601,1.28357908 4.56263983,1.38927551 4.56263983,1.52004337 C4.56263983,1.65081122 4.66508601,1.75650765 4.79183265,1.75650765 L7.77120962,1.75650765 Z" id="Combined-Shape"></path>
                </g>
            </g>
        </g>
    </g>
</svg>