<?xml version="1.0" encoding="UTF-8"?>
<svg width="20px" height="20px" viewBox="0 0 20 20" version="1.1" xmlns="http://www.w3.org/2000/svg" xmlns:xlink="http://www.w3.org/1999/xlink">
    <!-- Generator: Sketch 54.1 (76490) - https://sketchapp.com -->
    <title>other-password-protect-directories-mono</title>
    <desc>Created with Sketch.</desc>
    <g id="other-password-protect-directories-mono" stroke="none" stroke-width="1" fill="none" fill-rule="evenodd">
        <g id="Group-3" transform="translate(3.000000, 3.000000)" fill="#696E92">
            <g id="Group" fill-rule="nonzero">
                <g id="Group-23">
                    <g id="backups_icon">
                        <g id="files_icon-copy-2">
                            <path d="M10.5486447,3.04092689 C10.5486447,2.53618236 10.1358627,2.1232332 9.63138025,2.1232332 L6.87956103,2.1232332 L5.73296753,0.746666667 L1.60522571,0.746666667 C1.21538184,0.746666667 0.917264414,1.06787245 0.917264414,1.43494993 L0.917264414,3.04092689 L10.5486447,3.04092689 Z" id="Shape"></path>
                            <path d="M11.9245413,6.14285714 L11.8739496,6.14285714 C11.7250716,6.14285714 11.5821037,6.16816133 11.4491121,6.21470347 C10.5887095,6.44482235 9.95570682,7.2011456 9.95570682,8.0959689 L9.95570682,8.59923903 L9.4359341,8.59923903 C9.20431141,8.59923903 9.01654412,8.78700632 9.01654412,9.01862901 L9.01654412,11.4989999 L0.687961299,11.4989999 C0.298117429,11.4989999 -1.62536651e-13,11.200743 -1.62536651e-13,10.8107167 L-1.62536651e-13,3.92793601 C-1.62536651e-13,3.53790969 0.298117429,3.23965274 0.687961299,3.23965274 L11.236606,3.23965274 C11.6035117,3.23967873 11.9245413,3.56085853 11.9245413,3.92793601 L11.9245413,6.14285714 Z" id="Combined-Shape"></path>
                            <path d="M13.0158284,6.40096402 C12.7478507,6.25349511 12.4474673,6.16634897 12.1333333,6.14698471 L12.1333333,4.15737243 L12.3626364,4.15737243 C12.9359332,4.15737243 13.3716273,4.70798864 13.2569887,5.25860486 L13.0158284,6.40096402 Z" id="Combined-Shape"></path>
                        </g>
                    </g>
                </g>
            </g>
            <g id="Group-2" transform="translate(9.352941, 6.400000)">
                <path d="M0.359477124,2.4 L4.7624741,2.4 C4.96100783,2.4 5.12195122,2.56094339 5.12195122,2.75947712 L5.12195122,6.11774295 C5.12195122,6.31627669 4.96100783,6.47722008 4.7624741,6.47722008 L0.359477124,6.47722008 C0.160943391,6.47722008 5.48693308e-14,6.31627669 5.48450174e-14,6.11774295 L5.4678484e-14,2.75947712 C5.46541706e-14,2.56094339 0.160943391,2.4 0.359477124,2.4 Z M2.78444358,4.33716153 C2.89985067,4.26588858 2.97630178,4.14170557 2.97630178,4.00040461 C2.97630178,3.77927171 2.78931308,3.6 2.55882353,3.6 C2.32817167,3.6 2.14118296,3.77927171 2.14118296,4.00040461 C2.14118296,4.14170557 2.21763407,4.26588858 2.33304116,4.33716153 L2.11764706,4.88571429 L3,4.88571429 L2.78444358,4.33716153 Z" id="Combined-Shape"></path>
                <path d="M4.47317302,1.73609934 L4.47317302,3.0679328 L3.85100219,3.0679328 L3.85100219,1.73609934 C3.85100219,1.43701972 3.73357142,1.15599708 3.52028603,0.944747991 C3.30717749,0.733148283 3.02368123,0.616917458 2.72196905,0.616917458 C2.09926766,0.616917458 1.59275906,1.11883126 1.59275906,1.73609934 L1.59275906,3.0679328 L0.970588235,3.0679328 L0.970588235,1.73609934 C0.970588235,0.77890431 1.75634861,3.15525384e-13 2.72196905,3.15525384e-13 C3.18992358,3.15525384e-13 3.62975838,0.180745069 3.96029769,0.508575603 C4.2911907,0.836406136 4.47317302,1.2722279 4.47317302,1.73609934 Z" id="Shape" fill-rule="nonzero"></path>
            </g>
        </g>
    </g>
</svg>