<?xml version="1.0" encoding="UTF-8"?>
<svg width="20px" height="20px" viewBox="0 0 20 20" version="1.1" xmlns="http://www.w3.org/2000/svg" xmlns:xlink="http://www.w3.org/1999/xlink">
    <!-- Generator: Sketch 54.1 (76490) - https://sketchapp.com -->
    <title>other-hotlink-protection-mono</title>
    <desc>Created with Sketch.</desc>
    <g id="other-hotlink-protection-mono" stroke="none" stroke-width="1" fill="none" fill-rule="evenodd">
        <g id="Group" transform="translate(3.000000, 4.000000)" fill="#696E92">
            <g id="Group-2" fill-rule="nonzero">
                <path d="M9.01654412,9.19295104 L0.74377709,9.19295104 C0.333095975,9.19295104 0,8.86646256 0,8.4636659 L0,0.748864055 C0,0.346067396 0.333095975,0.0195789171 0.74377709,0.0195789171 L11.585301,0.0195789171 C11.9959821,0.0195789171 12.3288614,0.346067396 12.3288614,0.748864055 L12.3288614,5.16802332 C12.2208125,5.15135368 12.1105839,5.14285714 11.9989844,5.14285714 C11.9897055,5.14285714 11.9804409,5.14291659 11.9711909,5.1430351 C11.9640014,5.14291662 11.9567976,5.14285714 11.9495798,5.14285714 L11.8739496,5.14285714 C11.7250716,5.14285714 11.5821037,5.16816133 11.4491121,5.21470347 C10.5887095,5.44482235 9.95570682,6.2011456 9.95570682,7.0959689 L9.95570682,7.59923903 L9.4359341,7.59923903 C9.20431141,7.59923903 9.01654412,7.78700632 9.01654412,8.01862901 L9.01654412,9.19295104 Z M8.454613,11.0964637 L3.874441,11.0964637 C3.82683523,11.0964637 3.80812521,11.0324603 3.84807362,11.0053474 L4.23154455,10.7399574 C4.64562092,10.4535006 4.84119711,9.92874309 4.72043688,9.42857143 L7.60878569,9.42857143 L7.60856897,9.42899654 C7.48804954,9.92914459 7.68381837,10.4541146 8.09789474,10.7403825 L8.48114895,11.005371 C8.52092879,11.0326728 8.50221878,11.0964637 8.454613,11.0964637 Z M0.981348612,0.572822263 C1.08990386,0.572822263 1.17790527,0.487335175 1.17790527,0.381881509 C1.17790527,0.276427842 1.08990386,0.190940754 0.981348612,0.190940754 C0.872793367,0.190940754 0.784791953,0.276427842 0.784791953,0.381881509 C0.784791953,0.487335175 0.872793367,0.572822263 0.981348612,0.572822263 Z M1.57101859,0.572822263 C1.67957383,0.572822263 1.76757525,0.487335175 1.76757525,0.381881509 C1.76757525,0.276427842 1.67957383,0.190940754 1.57101859,0.190940754 C1.46246334,0.190940754 1.37446193,0.276427842 1.37446193,0.381881509 C1.37446193,0.487335175 1.46246334,0.572822263 1.57101859,0.572822263 Z M2.16068857,0.572822263 C2.26924381,0.572822263 2.35724522,0.487335175 2.35724522,0.381881509 C2.35724522,0.276427842 2.26924381,0.190940754 2.16068857,0.190940754 C2.05213332,0.190940754 1.96413191,0.276427842 1.96413191,0.381881509 C1.96413191,0.487335175 2.05213332,0.572822263 2.16068857,0.572822263 Z M7.08206683,5.16773326 C7.21565805,5.12281138 7.34105402,5.04843638 7.44769627,4.94443638 L8.2398146,4.17185826 C8.61527352,3.80570201 8.61527352,3.21211607 8.2398146,2.84604576 C7.86444381,2.47988951 7.25577707,2.47988951 6.88031815,2.84604576 L6.0881117,3.61853795 C5.9814727,3.72253477 5.90520951,3.84490548 5.85913367,3.97510045 C5.72554246,4.02002232 5.60014649,4.09448326 5.49350423,4.19848326 L4.70129778,4.97097545 C4.32592699,5.3371317 4.32592699,5.93071763 4.70129778,6.29687388 C5.07675669,6.6629442 5.68542344,6.6629442 6.06088235,6.29687388 L6.85300069,5.52429576 C6.95964294,5.42029576 7.03599565,5.29801451 7.08205882,5.16772545 Z M6.45374113,5.16772545 L5.67838979,5.92386607 C5.51441291,6.08378013 5.24767109,6.08378013 5.08378233,5.92386607 C4.91980545,5.76403795 4.91980545,5.50390513 5.08378233,5.34399107 L5.85913367,4.58785045 L5.87600481,4.57142857 L5.85914969,4.58786607 C5.90521286,4.71814732 5.98156558,4.84043638 6.08811971,4.94443638 C6.19476196,5.04843638 6.32014992,5.12281138 6.45374914,5.16773326 Z M6.76787494,4.69136412 L6.76785892,4.69134849 C6.87553025,4.69135048 6.98321323,4.65137196 7.06520371,4.57141295 L7.08205882,4.55497545 C7.03599565,4.42478013 6.95964294,4.30240513 6.85300069,4.19849107 C6.74636161,4.09449416 6.62096992,4.02003456 6.48747128,3.97511227 L7.26281872,3.21897545 C7.42670748,3.05914732 7.6934493,3.05914732 7.85742618,3.21897545 C8.02131495,3.37888951 8.02131495,3.63902232 7.85742618,3.79885045 L7.08207485,4.55499107 L7.06521973,4.57142857 C6.98322926,4.65138759 6.87554627,4.6913661 6.76787494,4.69136412 Z" id="Combined-Shape"></path>
            </g>
            <path d="M9.7124183,7.8 L14.1154153,7.8 C14.313949,7.8 14.4748924,7.96094339 14.4748924,8.15947712 L14.4748924,11.517743 C14.4748924,11.7162767 14.313949,11.8772201 14.1154153,11.8772201 L9.7124183,11.8772201 C9.51388457,11.8772201 9.35294118,11.7162767 9.35294118,11.517743 L9.35294118,8.15947712 C9.35294118,7.96094339 9.51388457,7.8 9.7124183,7.8 Z M12.1373848,9.73716153 C12.2527918,9.66588858 12.329243,9.54170557 12.329243,9.40040461 C12.329243,9.17927171 12.1422543,9 11.9117647,9 C11.6811128,9 11.4941241,9.17927171 11.4941241,9.40040461 C11.4941241,9.54170557 11.5705752,9.66588858 11.6859823,9.73716153 L11.4705882,10.2857143 L12.3529412,10.2857143 L12.1373848,9.73716153 Z" id="Combined-Shape"></path>
            <path d="M13.8261142,7.13609934 L13.8261142,8.4679328 L13.2039434,8.4679328 L13.2039434,7.13609934 C13.2039434,6.83701972 13.0865126,6.55599708 12.8732272,6.34474799 C12.6601187,6.13314828 12.3766224,6.01691746 12.0749102,6.01691746 C11.4522088,6.01691746 10.9457002,6.51883126 10.9457002,7.13609934 L10.9457002,8.4679328 L10.3235294,8.4679328 L10.3235294,7.13609934 C10.3235294,6.17890431 11.1092898,5.4 12.0749102,5.4 C12.5428648,5.4 12.9826996,5.58074507 13.3132389,5.9085756 C13.6441319,6.23640614 13.8261142,6.6722279 13.8261142,7.13609934 Z" id="Shape" fill-rule="nonzero"></path>
        </g>
    </g>
</svg>