<?xml version="1.0" encoding="UTF-8"?>
<svg width="20px" height="20px" viewBox="0 0 20 20" version="1.1" xmlns="http://www.w3.org/2000/svg" xmlns:xlink="http://www.w3.org/1999/xlink">
    <!-- Generator: Sketch 54.1 (76490) - https://sketchapp.com -->
    <title>other-reload-account-mono</title>
    <desc>Created with Sketch.</desc>
    <g id="other-reload-account-mono" stroke="none" stroke-width="1" fill="none" fill-rule="evenodd">
        <g id="Group-44" transform="translate(3.000000, 3.000000)">
            <path d="M7,14 C3.13400675,14 -7.99360578e-15,10.8659932 -8.8817842e-16,7 C-7.99360578e-15,3.13400675 3.13400675,-8.8817842e-16 7,-8.8817842e-16 C10.8659932,-8.8817842e-16 14,3.13400675 14,7 C14,10.8659932 10.8659932,14 7,14 Z M3.35215061,7.32743646 C3.43102927,8.0166534 3.70421877,8.64746213 4.11400302,9.16534831 C4.28137969,9.37951177 4.58535111,9.4242914 4.80274839,9.26269534 C5.03168888,9.09331151 5.07401402,8.7662255 4.897018,8.54232734 C4.56611241,8.12178819 4.35641061,7.60195507 4.32755256,7.03734232 C4.30639,6.62653787 4.38142092,6.23520282 4.52955888,5.88085965 C4.92010444,4.94243432 5.82817095,4.2785276 6.89207091,4.26100513 L6.89207091,5.24031622 C6.89207091,5.29483055 6.95748248,5.32403466 7.00365535,5.29093667 L8.99678439,3.80736799 C9.02949017,3.78400471 9.02949017,3.73338425 8.99678439,3.70807403 L7.00173148,2.22450535 C6.95748248,2.19140736 6.89014704,2.22061147 6.89014704,2.2751258 L6.89014704,3.25638383 C5.2721726,3.27585323 3.90814896,4.37976851 3.4733544,5.88085965 C3.34253126,6.33254985 3.29443452,6.82123192 3.35215061,7.32743646 Z M9.11221657,5.44279803 C9.44504604,5.86139024 9.65474784,6.3831703 9.68168201,6.94778306 C9.70284458,7.36053445 9.62588979,7.75186949 9.47967569,8.10426573 C9.08913014,9.04269106 8.18106363,9.70854472 7.11716367,9.72412024 L7.11716367,8.74480916 C7.11716367,8.69029482 7.04982823,8.66109071 7.00557922,8.6941887 L5.01052632,10.1777574 C4.97782053,10.2030676 4.97782053,10.2536881 5.01052632,10.2770513 L7.00365535,11.76062 C7.04982823,11.793718 7.1152398,11.7645139 7.1152398,11.7099996 L7.1152398,10.7287415 C8.73321424,10.7112191 10.0991617,9.60730381 10.5320324,8.10426573 C10.6628556,7.65257552 10.7090284,7.16389345 10.6532362,6.65768892 C10.5762814,5.96847197 10.3030919,5.33766324 9.89330768,4.81977706 C9.72400715,4.60561361 9.4219596,4.56083398 9.20456232,4.72243004 C8.97754569,4.89181386 8.93522056,5.21889987 9.11221657,5.44279803 Z" id="Combined-Shape" fill="#696E92" fill-rule="nonzero"></path>
            <g id="refresh" transform="translate(3.315789, 2.210526)"></g>
        </g>
    </g>
</svg>