<?xml version="1.0" encoding="UTF-8"?>
<svg width="20px" height="20px" viewBox="0 0 20 20" version="1.1" xmlns="http://www.w3.org/2000/svg" xmlns:xlink="http://www.w3.org/1999/xlink">
    <!-- Generator: Sketch 54.1 (76490) - https://sketchapp.com -->
    <title>website-learn-to-code-mono</title>
    <desc>Created with Sketch.</desc>
    <g id="website-learn-to-code-mono" stroke="none" stroke-width="1" fill="none" fill-rule="evenodd">
        <path d="M8.448,8.69026468 L8.448,7.11983321 L10.3363556,7.11983321 C10.7057778,7.11983321 10.976,7.18611766 11.1466667,7.31868655 C11.3173333,7.45125544 11.4030222,7.64670957 11.4030222,7.90504895 C11.4030222,8.16338832 11.3173333,8.35884246 11.1466667,8.49141135 C10.976,8.62398024 10.7057778,8.69026468 10.3363556,8.69026468 L8.75448889,8.69026468 L8.448,8.69026468 Z M8.75448889,9.96496555 L10.4213333,9.96496555 C10.7982222,9.96496555 11.0808889,10.0465464 11.2696889,10.2097081 C11.4577778,10.3728698 11.552,10.5836204 11.552,10.8419598 C11.552,11.1002991 11.4616889,11.3093501 11.28,11.4691126 C11.0986667,11.6288751 10.8120889,11.7087563 10.4213333,11.7087563 L8.448,11.7087563 L8.448,9.96496555 L8.75448889,9.96496555 Z M14.6666667,13.4936775 L10,16.4679795 L5.33333333,13.4936775 L5.33333333,9.96496555 L7.008,9.96496555 L7.008,12.7081218 C7.008,12.7829043 7.03644444,12.8474891 7.09333333,12.9018764 C7.15022222,12.9562636 7.21777778,12.9834572 7.296,12.9834572 L10.688,12.9834572 C11.0648889,12.9834572 11.3973333,12.920572 11.6853333,12.7948015 C11.9733333,12.669031 12.2133333,12.5041697 12.4053333,12.3002175 C12.5973333,12.0962654 12.7431111,11.8668193 12.8426667,11.6118791 C12.9422222,11.3569389 12.992,11.1002991 12.992,10.8419598 C12.992,10.4408539 12.8995556,10.1094317 12.7146667,9.84769307 C12.5294222,9.5859545 12.3271111,9.38370196 12.1066667,9.24093546 C12.1564444,9.21374184 12.2222222,9.16275381 12.304,9.08797136 C12.3857778,9.01318891 12.4675556,8.91971084 12.5493333,8.80753716 C12.6311111,8.69536349 12.7004444,8.5593954 12.7573333,8.39963289 C12.8142222,8.23987038 12.8426667,8.05801305 12.8426667,7.85406091 C12.8426667,7.65010877 12.8017778,7.43086022 12.72,7.19631526 C12.6382222,6.9617703 12.5048889,6.74422136 12.32,6.54366842 C12.1351111,6.34311548 11.8897778,6.17655457 11.584,6.04398568 C11.2782222,5.91141679 10.8977778,5.84513234 10.4426667,5.84513234 L7.296,5.84513234 C7.21777778,5.84513234 7.15022222,5.87232596 7.09333333,5.9267132 C7.03644444,5.98110044 7.008,6.04568528 7.008,6.12046773 L7.008,8.69026468 L5.33333333,8.69026468 L5.33333333,4.27470087 L14.6666667,4.27470087 L14.6666667,13.4936775 Z M4,3 L4,14.1758974 L10,18 L16,14.1758974 L16,3 L4,3 Z" id="Fill-1" fill="#696E92"></path>
    </g>
</svg>