<svg height="20" viewBox="0 0 20 20" width="20" xmlns="http://www.w3.org/2000/svg"><g fill="#696e92" fill-rule="nonzero"><g transform="translate(3 2.166667)"><path d="m7.43193275 11.0333333c.23825423.9828033.83949862 1.8237593 1.65378842 2.3729234h-4.74926893c-.26619103 0-.48181286-.2177023-.48181286-.4864617s.21562183-.4864617.48181286-.4864617h.61545181c.3606125-.3488811.51857475-.8855859.39792441-1.4z"/><path d="m8.30855597 7.45417242c-.10889028-.10055364-.14516202-.24739454-.14516202-.40424947v-.53813878s.50252759-.46061948.66032484-1.10154804c.13075591-.07877412.33018112-.21506032.33018112-.3704475v-.58861c0-.12952417-.23409647-.24552429-.33018112-.32645947v-.85107422s.12050788-1.44031161-1.65083081-1.44031161c-1.70136033 0-1.6508308 1.44031161-1.6508308 1.44031161v.85107422c-.09608465.08093518-.33018113.1969353-.33018113.32645947v.58861c0 .15538718.19942521.29170824.33018113.3704475.15783465.64092856.66032484 1.10154804.66032484 1.10154804v.53813878c0 .1963079-.05677559.37693069-.24168899.47076252l-1.40914182.71632167c-.23607875.12000853-.41833664.30523229-.53155121.52339478.85941344.66923147 1.96515366 1.07293141 3.17288798 1.07293141.05174826 0 .10330927-.00074115.15467168-.00221258-.00536551.08479577-.00808896.17030905-.00808896.25645845 0 .2169787.01727627.4299223.05052829.6375303h-6.52705162c-.4654386 0-.84294737-.3809032-.84294737-.85083262v-9.00060215c0-.46992943.37750877-.85083266.84294737-.85083266h12.28706043c.4654386 0 .8427018.38090323.8427018.85083266v6.22046482c-.7060487-.626269-1.6352329-1.00656038-2.6532389-1.00656038-1.2006365 0-2.27772328.52897957-3.01091473 1.36659325zm-7.19636088-6.47531066c.12302928 0 .22276422-.09973493.22276422-.22276421s-.09973494-.22276422-.22276422-.22276422c-.12302927 0-.22276421.09973494-.22276421.22276422s.09973494.22276421.22276421.22276421zm.66829264 0c.12302928 0 .22276422-.09973493.22276422-.22276421s-.09973494-.22276422-.22276422-.22276422c-.12302927 0-.22276421.09973494-.22276421.22276422s.09973494.22276421.22276421.22276421zm.66829264 0c.12302928 0 .22276422-.09973493.22276422-.22276421s-.09973494-.22276422-.22276422-.22276422c-.12302927 0-.22276421.09973494-.22276421.22276422s.09973494.22276421.22276421.22276421z"/></g><path d="m11.6400286 12.3230828c0-1.4769102 1.2480124-2.70770355 2.8160028-2.70770355s2.8160027 1.20001565 2.8160027 2.70770355-1.2480123 2.7077036-2.8160027 2.7077036-2.8160028-1.2307934-2.8160028-2.7077036m7.2639771 4.1538361-1.9200134-1.9076931c.5440026-.5846016.8959893-1.384612.8959893-2.246143 0-1.8461726-1.5359817-3.3230828-3.4559951-3.3230828-1.9200135 0-3.4239865 1.4769102-3.4239865 3.3230828s1.5359817 3.3230828 3.4559951 3.3230828c.7679909 0 1.5040093-.2461517 2.0799844-.6769346l1.9200134 1.9384708c.0640173.0615554.1600071.0922982.2239882.0922982.0640174 0 .1600072-.0307777.2239883-.0922982.1280348-.1230758.1280348-.3076722.0000363-.4307829"/></g></svg>