<?xml version="1.0" encoding="UTF-8"?>
<svg width="20px" height="20px" viewBox="0 0 20 20" version="1.1" xmlns="http://www.w3.org/2000/svg" xmlns:xlink="http://www.w3.org/1999/xlink">
    <!-- Generator: Sketch 54.1 (76490) - https://sketchapp.com -->
    <title>website-latest-requests-mono</title>
    <desc>Created with Sketch.</desc>
    <g id="website-latest-requests-mono" stroke="none" stroke-width="1" fill="none" fill-rule="evenodd">
        <g id="Group-11" transform="translate(3.000000, 2.000000)">
            <g id="error_pages_icon" transform="translate(0.000000, 0.166667)">
                <g id="statistics_icon" fill="#696E92" fill-rule="nonzero">
                    <g id="website_builder_icon-copy-3">
                        <g id="coding-(1)">
                            <path d="M7.43193275,11.0333333 C7.67018698,12.0161366 8.27143137,12.8570926 9.08572117,13.4062567 L4.33645224,13.4062567 C4.07026121,13.4062567 3.85463938,13.1885544 3.85463938,12.919795 C3.85463938,12.6510356 4.07026121,12.4333333 4.33645224,12.4333333 L4.95190405,12.4333333 C5.31251655,12.0844522 5.4704788,11.5477474 5.34982846,11.0333333 L7.43193275,11.0333333 Z" id="Combined-Shape"></path>
                            <path d="M8.30855597,7.45417242 C8.19966569,7.35361878 8.16339395,7.20677788 8.16339395,7.04992295 L8.16339395,6.51178417 C8.16339395,6.51178417 8.66592154,6.05116469 8.82371879,5.41023613 C8.9544747,5.33146201 9.15389991,5.19517581 9.15389991,5.03978863 L9.15389991,4.45117863 C9.15389991,4.32165446 8.91980344,4.20565434 8.82371879,4.12471916 L8.82371879,3.27364494 C8.82371879,3.27364494 8.94422667,1.83333333 7.17288798,1.83333333 C5.47152765,1.83333333 5.52205718,3.27364494 5.52205718,3.27364494 L5.52205718,4.12471916 C5.42597253,4.20565434 5.19187605,4.32165446 5.19187605,4.45117863 L5.19187605,5.03978863 C5.19187605,5.19517581 5.39130126,5.33149687 5.52205718,5.41023613 C5.67989183,6.05116469 6.18238202,6.51178417 6.18238202,6.51178417 L6.18238202,7.04992295 C6.18238202,7.24623085 6.12560643,7.42685364 5.94069303,7.52068547 L4.53155121,8.23700714 C4.29547246,8.35701567 4.11321457,8.54223943 4,8.76040192 C4.85941344,9.42963339 5.96515366,9.83333333 7.17288798,9.83333333 C7.22463624,9.83333333 7.27619725,9.83259218 7.32755966,9.83112075 C7.32219415,9.91591652 7.3194707,10.0014298 7.3194707,10.0875792 C7.3194707,10.3045579 7.33674697,10.5175015 7.36999899,10.7251095 L0.842947368,10.7251095 C0.377508772,10.7251095 -2.7533531e-14,10.3442063 -2.7533531e-14,9.87427688 L-2.7533531e-14,0.873674731 C-2.7533531e-14,0.403745296 0.377508772,0.0228420699 0.842947368,0.0228420699 L13.1300078,0.0228420699 C13.5954464,0.0228420699 13.9727096,0.403745296 13.9727096,0.873674731 L13.9727096,7.09413955 C13.2666609,6.46787055 12.3374767,6.08757917 11.3194707,6.08757917 C10.1188342,6.08757917 9.04174742,6.61655874 8.30855597,7.45417242 Z M1.11219509,0.97886176 C1.23522437,0.97886176 1.33495931,0.879126825 1.33495931,0.756097547 C1.33495931,0.633068269 1.23522437,0.533333333 1.11219509,0.533333333 C0.989165816,0.533333333 0.88943088,0.633068269 0.88943088,0.756097547 C0.88943088,0.879126825 0.989165816,0.97886176 1.11219509,0.97886176 Z M1.78048773,0.97886176 C1.90351701,0.97886176 2.00325195,0.879126825 2.00325195,0.756097547 C2.00325195,0.633068269 1.90351701,0.533333333 1.78048773,0.533333333 C1.65745846,0.533333333 1.55772352,0.633068269 1.55772352,0.756097547 C1.55772352,0.879126825 1.65745846,0.97886176 1.78048773,0.97886176 Z M2.44878037,0.97886176 C2.57180965,0.97886176 2.67154459,0.879126825 2.67154459,0.756097547 C2.67154459,0.633068269 2.57180965,0.533333333 2.44878037,0.533333333 C2.3257511,0.533333333 2.22601616,0.633068269 2.22601616,0.756097547 C2.22601616,0.879126825 2.3257511,0.97886176 2.44878037,0.97886176 Z" id="Combined-Shape"></path>
                        </g>
                    </g>
                </g>
                <g id="browser-(3)" transform="translate(0.666667, 0.000000)"></g>
            </g>
        </g>
        <path d="M11.6400286,12.3230828 C11.6400286,10.8461726 12.888041,9.61537925 14.4560314,9.61537925 C16.0240218,9.61537925 17.2720341,10.8153949 17.2720341,12.3230828 C17.2720341,13.8307707 16.0240218,15.0307864 14.4560314,15.0307864 C12.888041,15.0307864 11.6400286,13.799993 11.6400286,12.3230828 M18.9040057,16.4769189 L16.9839923,14.5692258 C17.5279949,13.9846242 17.8799816,13.1846138 17.8799816,12.3230828 C17.8799816,10.4769102 16.3439999,9 14.4239865,9 C12.503973,9 11,10.4769102 11,12.3230828 C11,14.1692554 12.5359817,15.6461656 14.4559951,15.6461656 C15.223986,15.6461656 15.9600044,15.4000139 16.5359795,14.969231 L18.4559929,16.9077018 C18.5200102,16.9692572 18.616,17 18.6799811,17 C18.7439985,17 18.8399883,16.9692223 18.9039694,16.9077018 C19.0320042,16.784626 19.0320042,16.6000296 18.9040057,16.4769189" id="Shape" fill="#696E92" fill-rule="nonzero"></path>
    </g>
</svg>