<?xml version="1.0" encoding="UTF-8"?>
<svg width="20px" height="20px" viewBox="0 0 20 20" version="1.1" xmlns="http://www.w3.org/2000/svg" xmlns:xlink="http://www.w3.org/1999/xlink">
    <!-- Generator: Sketch 54.1 (76490) - https://sketchapp.com -->
    <title>website-error-pages-mono</title>
    <desc>Created with Sketch.</desc>
    <g id="website-error-pages-mono" stroke="none" stroke-width="1" fill="none" fill-rule="evenodd">
        <g id="Group-11" transform="translate(3.000000, 3.000000)">
            <g id="error_pages_icon" transform="translate(0.000000, 0.166667)">
                <g id="statistics_icon" fill="#696E92" fill-rule="nonzero">
                    <g id="website_builder_icon-copy-3">
                        <g id="coding-(1)">
                            <path d="M9.58189474,12.9792077 L4.39103314,12.9792077 C4.33707992,12.9792077 4.31587524,12.904537 4.3611501,12.8729052 L4.79575049,12.5632836 C5.26503704,12.229084 5.48669006,11.6168669 5.34982846,11.0333333 L8.62329045,11.0333333 L8.62304483,11.0338293 C8.48645614,11.6173353 8.70832749,12.2298004 9.17761404,12.5637796 L9.61196881,12.8729328 C9.65705263,12.9047849 9.63584795,12.9792077 9.58189474,12.9792077" id="Shape"></path>
                            <path d="M13.1300078,10.7251095 L0.842947368,10.7251095 C0.377508772,10.7251095 -2.84217094e-14,10.3442063 -2.84217094e-14,9.87427688 L-2.84217094e-14,0.873674731 C-2.84217094e-14,0.403745296 0.377508772,0.0228420699 0.842947368,0.0228420699 L13.1300078,0.0228420699 C13.5954464,0.0228420699 13.9727096,0.403745296 13.9727096,0.873674731 L13.9727096,9.87427688 C13.9727096,10.3442063 13.5954464,10.7251095 13.1300078,10.7251095 Z M6.92615392,8.18433078 C8.35812918,8.18433078 9.5189745,7.02377881 9.5189745,5.59216539 C9.5189745,4.16055198 8.35812918,3 6.92615392,3 C5.49417865,3 4.33333333,4.16055198 4.33333333,5.59216539 C4.33333333,7.02377881 5.49417865,8.18433078 6.92615392,8.18433078 Z M1.11219509,0.97886176 C1.23522437,0.97886176 1.33495931,0.879126825 1.33495931,0.756097547 C1.33495931,0.633068269 1.23522437,0.533333333 1.11219509,0.533333333 C0.989165816,0.533333333 0.88943088,0.633068269 0.88943088,0.756097547 C0.88943088,0.879126825 0.989165816,0.97886176 1.11219509,0.97886176 Z M1.78048773,0.97886176 C1.90351701,0.97886176 2.00325195,0.879126825 2.00325195,0.756097547 C2.00325195,0.633068269 1.90351701,0.533333333 1.78048773,0.533333333 C1.65745846,0.533333333 1.55772352,0.633068269 1.55772352,0.756097547 C1.55772352,0.879126825 1.65745846,0.97886176 1.78048773,0.97886176 Z M2.44878037,0.97886176 C2.57180965,0.97886176 2.67154459,0.879126825 2.67154459,0.756097547 C2.67154459,0.633068269 2.57180965,0.533333333 2.44878037,0.533333333 C2.3257511,0.533333333 2.22601616,0.633068269 2.22601616,0.756097547 C2.22601616,0.879126825 2.3257511,0.97886176 2.44878037,0.97886176 Z" id="Combined-Shape"></path>
                            <path d="M9.63644834,13.4062567 L4.33645224,13.4062567 C4.07026121,13.4062567 3.85463938,13.1885544 3.85463938,12.919795 C3.85463938,12.6510356 4.07026121,12.4333333 4.33645224,12.4333333 L9.63644834,12.4333333 C9.90263938,12.4333333 10.1182612,12.6510356 10.1182612,12.919795 C10.1182612,13.1885544 9.90263938,13.4062567 9.63644834,13.4062567" id="Shape"></path>
                        </g>
                    </g>
                </g>
                <g id="browser-(3)" transform="translate(0.666667, 0.000000)"></g>
                <g id="Group-8" transform="translate(5.333333, 4.000000)" fill="#696E92" fill-rule="nonzero">
                    <path d="M1.83268748,1.52690593 L2.7602304,0.599558761 C2.84470962,0.515097372 2.84470962,0.378576662 2.7602304,0.294115273 C2.67575118,0.209653884 2.53920166,0.209653884 2.45472244,0.294115273 L1.52717952,1.22146244 L0.599636606,0.294115273 C0.515157389,0.209653884 0.378607861,0.209653884 0.294128644,0.294115273 C0.209649426,0.378576662 0.209649426,0.515097372 0.294128644,0.599558761 L1.22167156,1.52690593 L0.294128644,2.4542531 C0.209649426,2.53871449 0.209649426,2.6752352 0.294128644,2.75969659 C0.336260223,2.80181928 0.391571424,2.82298863 0.446882625,2.82298863 C0.502193826,2.82298863 0.557505027,2.80181928 0.599636606,2.75969659 L1.52717952,1.83234942 L2.45472244,2.75969659 C2.49685402,2.80181928 2.55216522,2.82298863 2.60747642,2.82298863 C2.66278762,2.82298863 2.71809882,2.80181928 2.7602304,2.75969659 C2.84470962,2.6752352 2.84470962,2.53871449 2.7602304,2.4542531 L1.83268748,1.52690593 Z" id="Shape"></path>
                </g>
            </g>
        </g>
    </g>
</svg>