<?xml version="1.0" encoding="UTF-8"?>
<svg width="20px" height="20px" viewBox="0 0 20 20" version="1.1" xmlns="http://www.w3.org/2000/svg" xmlns:xlink="http://www.w3.org/1999/xlink">
    <!-- Generator: Sketch 54.1 (76490) - https://sketchapp.com -->
    <title>website-earn-money-mono</title>
    <desc>Created with Sketch.</desc>
    <g id="website-earn-money-mono" stroke="none" stroke-width="1" fill="none" fill-rule="evenodd">
        <g id="Group" transform="translate(4.000000, 3.000000)">
            <g id="Group-18">
                <g id="Group-24">
                    <g id="earn_money_icon">
                        <g id="Group-11-Copy" fill="#696E92">
                            <g id="wallet-(1)">
                                <g id="Group-6">
                                    <path d="M9.94177911,0.2625 L0.045995122,4.42605945 C0.071190296,4.41896341 3.82399554,4.41896341 11.3044109,4.42605945 L9.94177911,0.2625 Z" id="Shape" fill-rule="nonzero"></path>
                                    <path d="M8.74121855,7.71697114 C8.17267146,6.83064652 7.15611546,6.24022836 5.9966857,6.24022836 C4.21521635,6.24022836 2.7710501,7.6341152 2.7710501,9.35356175 C2.7710501,9.96030313 2.95087386,10.5265067 3.2618875,11.0052317 C3.8304346,11.8915564 4.84699059,12.4819745 6.00642036,12.4819745 C7.78788971,12.4819745 9.23205595,11.0880877 9.23205595,9.36864113 C9.23205595,8.76189975 9.0522322,8.19569621 8.74121855,7.71697114 Z M0.680555556,4.67434211 L11.3048103,4.67434211 C11.6806708,4.67434211 11.9853659,4.97903721 11.9853659,5.35489766 L11.9853659,13.2773231 C11.9853659,13.6531836 11.6806708,13.9578787 11.3048103,13.9578787 L0.680555556,13.9578787 C0.304695101,13.9578787 -6.49926722e-17,13.6531836 -1.11022302e-16,13.2773231 L0,5.35489766 C-4.60296303e-17,4.97903721 0.304695101,4.67434211 0.680555556,4.67434211 Z" id="Combined-Shape"></path>
                                </g>
                            </g>
                        </g>
                        <g id="Group-25" transform="translate(6.536184, 8.486894) rotate(-90.000000) translate(-6.536184, -8.486894) translate(2.536184, 4.486894)">
                            <g id="Group-40" transform="translate(0.019999, 0.165783)"></g>
                            <g id="Group-30" transform="translate(1.123655, 1.840619)">
                                <g id="Group-29" transform="translate(2.317205, 0.000000)"></g>
                            </g>
                        </g>
                    </g>
                </g>
            </g>
            <path d="M5.48571429,9.63614748 L5.48571429,7.83480162 L6.6217544,7.83480162 L6.6217544,9.63614748 L7.47512318,9.63614748 L6.11681432,11.3719012 L4.75850546,9.63614748 L5.48571429,9.63614748 Z" id="Combined-Shape" fill="#696E92" fill-rule="nonzero"></path>
        </g>
    </g>
</svg>