<?xml version="1.0" encoding="UTF-8"?>
<svg width="20px" height="20px" viewBox="0 0 20 20" version="1.1" xmlns="http://www.w3.org/2000/svg" xmlns:xlink="http://www.w3.org/1999/xlink">
    <!-- Generator: Sketch 54.1 (76490) - https://sketchapp.com -->
    <title>wordpress-wp-mono</title>
    <desc>Created with Sketch.</desc>
    <g id="wordpress-wp-mono" stroke="none" stroke-width="1" fill="none" fill-rule="evenodd">
        <g id="wordpress_wordpress" transform="translate(3.000000, 3.000000)" fill="#696E92">
            <path d="M6.99968498,0.980941881 C8.57004635,0.980941881 9.99991,1.58261143 11.0715989,2.56764845 C10.54615,2.553788 10.0219612,2.86596314 10.00054,3.58103638 C9.9564376,5.02630335 11.7287251,5.33438337 10.7735925,8.24161285 L9.98352909,10.646401 L7.83196076,4.30839502 C7.79856892,4.21011183 7.83731605,4.15404001 7.95796769,4.15404001 L8.56595113,4.15404001 C8.59776788,4.15404001 8.6235993,4.12726414 8.6235993,4.09418806 L8.6235993,3.73381635 C8.6235993,3.70074027 8.59776788,3.67238935 8.56626614,3.6739644 C7.41424778,3.72436604 6.26884479,3.72436604 5.13037217,3.6739644 C5.09887044,3.67238935 5.07303902,3.70074027 5.07303902,3.73381635 L5.07303902,4.09418806 C5.07303902,4.12726414 5.09887044,4.15404001 5.13037217,4.15404001 L5.74213582,4.15404001 C5.8782233,4.15404001 5.9163404,4.19971649 5.94847217,4.28728934 L6.83241078,6.70530792 L5.50240763,10.7210584 L3.31618739,4.28193416 C3.2890959,4.20129154 3.3218577,4.15435502 3.39966698,4.15435502 L4.09680032,4.15435502 C4.12830206,4.15435502 4.15413348,4.12726414 4.15413348,4.09450307 L4.15413348,3.73381635 C4.15413348,3.70074027 4.12830206,3.67207434 4.09680032,3.6739644 C3.36564511,3.71271066 2.63133972,3.72058592 1.94775213,3.72751614 C3.02070114,2.07465743 4.88245353,0.98062687 6.99968498,0.98062687 L6.99968498,0.980941881 Z M12.2938662,4.13419436 C12.7711957,5.01383158 13.0205104,5.99904645 13.019036,6.99984249 C13.019036,9.27673649 11.7539265,11.2584659 9.88870888,12.2813041 L11.7662121,6.96424634 C12.0569731,6.1414396 12.326943,5.02945346 12.2938662,4.13387935 L12.2938662,4.13419436 Z M9.01516583,12.6722318 C8.38513118,12.8965191 7.70689888,13.0187431 7,13.0187431 C6.39107151,13.0187431 5.80324918,12.9280202 5.24944872,12.7598047 L7.1036407,7.44589699 L9.01516583,12.6725469 L9.01516583,12.6722318 Z M4.42441834,12.4406993 C2.38877638,11.476138 0.980648936,9.40211057 0.980648936,7.00015751 C0.980648936,6.10962356 1.17438459,5.26445109 1.52153368,4.50401638 L4.42441834,12.4413293 L4.42441834,12.4406993 Z M6.99968498,0.416128524 C10.6349849,0.416128524 13.5835471,3.36462435 13.5835471,6.99984249 C13.5835471,10.6350606 10.6349849,13.5835565 6.99968498,13.5835565 C3.36438504,13.5835565 0.41582287,10.6350606 0.41582287,6.99984249 C0.41582287,3.36462435 3.36438504,0.416128524 6.99968498,0.416128524 Z M6.99968498,0 C10.8649476,0 14,3.13466688 14,7.00015751 C14,10.8653331 10.8649476,14 6.99968498,14 C3.13442239,14 0,10.8653331 0,7.00015751 C0,3.13498189 3.13442239,6.99463238e-17 6.99968498,0 Z" id="Shape"></path>
        </g>
    </g>
</svg>