<svg xmlns="http://www.w3.org/2000/svg" width="56" height="48" viewBox="0 0 56 48">
    <g fill="none" fill-rule="evenodd">
        <path d="M-4-8h64v64H-4z"/>
        <path fill="#FF5C62" d="M53.536.585c-4.983-1.887-12.986 7.172-13.74 7.852-.552.496-1.846.911-2.506 1.1-2.884-2.402-12.783-3.13-18.76-.053-.693-.207-1.82-.593-2.325-1.047-.755-.68-8.758-9.74-13.74-7.852-4.983 1.888-.454 12.306 5.284 17.44 3.094 2.769 3.128 3.688 3.115 4.209a22.65 22.65 0 0 0-.204 1.645l.793.114c-1.416 2.604-1.076 10.305-1.076 10.305l.68-.397c.622 4.87 5.548 7.135 5.548 7.135l.566-.51c1.755 2.434 7.927 5.265 7.927 5.265l.056-.68c2.548 1.813 5.667 1.133 5.667 1.133l1.015 1.132c2.604-1.358 4.982-3.793 4.982-3.793l.283.453c4.87-2.717 7.87-8.21 7.87-8.21l.567.396c2.095-2.83.679-6.001.679-6.001l.51-.871c.17-3.534-1.756-5.754-1.756-5.754l.623-.622c-.15-.104-.305-.354-.456-.686-.014-.513-.091-1.396 3.113-4.263C53.99 12.89 58.52 2.473 53.536.585"/>
        <path fill="#FFFFFE" d="M46.022 33.901s-.644-5.181-4.293-4.023c-3.649 1.158-7.197-.982-8.506-2.844-1.308-1.862-3.246-3.146-3.12-4.203.1-.836-.4-10.799 2.084-15.138-2.916-.68-5.437-.403-7.582-.114 2.808 4.061 2.267 14.385 2.37 15.252.126 1.057-1.812 2.34-3.12 4.203-1.309 1.862-4.857 4.002-8.506 2.844S11.056 33.9 11.056 33.9c.623 4.87 5.549 7.135 5.549 7.135l.566-.51c1.755 2.434 7.927 5.265 7.927 5.265l.056-.68c2.548 1.813 5.667 1.133 5.667 1.133l1.015 1.132c2.604-1.358 4.982-3.793 4.982-3.793l.283.453c4.87-2.717 7.87-8.21 7.87-8.21l.567.396a5.795 5.795 0 0 0 .846-1.623c-.2-.477-.362-.698-.362-.698"/>
        <path fill="#32454C" d="M30.821 45.94c.086 0 .169.036.227.101l.855.955c2.449-1.338 4.675-3.602 4.698-3.626a.305.305 0 0 1 .475.052l.128.205c2.35-1.378 4.232-3.408 5.412-4.894 1.33-1.674 2.081-3.039 2.088-3.052a.304.304 0 0 1 .441-.104l.318.222c.7-1.052 1.001-2.259.898-3.593-.083-1.087-.419-1.854-.422-1.862a.303.303 0 0 1 .016-.277l.47-.806c.134-3.33-1.665-5.444-1.684-5.465a.304.304 0 0 1 .015-.415l.414-.414a3.2 3.2 0 0 1-.309-.553.296.296 0 0 1-.027-.118v-.024c-.017-.583-.044-1.558 3.214-4.474 2.106-1.884 4.116-4.558 5.516-7.337 1.423-2.828 2.05-5.467 1.72-7.241-.219-1.176-.843-1.967-1.856-2.35a3.855 3.855 0 0 0-1.37-.239c-1.791 0-4.045 1.038-6.7 3.086-2.168 1.673-3.997 3.556-4.877 4.46-.238.246-.395.407-.482.486-.59.53-1.898.958-2.625 1.166a.305.305 0 0 1-.278-.06c-1.475-1.227-4.923-2.02-8.787-2.02-3.705 0-7.129.712-9.64 2.005a.304.304 0 0 1-.226.021c-.822-.245-1.914-.637-2.442-1.112-.087-.079-.244-.24-.482-.485-.88-.905-2.71-2.788-4.878-4.46C7.987 1.668 5.733.63 3.941.63c-.49 0-.951.08-1.369.238C1.559 1.253.935 2.044.716 3.22c-.33 1.775.297 4.414 1.72 7.242 1.4 2.779 3.41 5.453 5.516 7.337 3.004 2.688 3.235 3.703 3.216 4.444a.315.315 0 0 1-.004.039c-.092.592-.147 1.06-.175 1.339l.507.072a.304.304 0 0 1 .224.446c-1.154 2.123-1.1 7.895-1.056 9.64l.24-.14a.304.304 0 0 1 .454.225c.309 2.416 1.745 4.157 2.895 5.193.978.88 1.922 1.415 2.303 1.614l.412-.37a.302.302 0 0 1 .45.048c1.437 1.993 6.036 4.315 7.413 4.98l.02-.241a.304.304 0 0 1 .48-.223c1.395.993 2.98 1.201 4.062 1.201.808 0 1.359-.117 1.364-.118a.273.273 0 0 1 .064-.007zm1.015 1.74a.305.305 0 0 1-.227-.1l-.9-1.007c-.24.04-.71.1-1.316.1-1.06 0-2.569-.187-3.978-1.029l-.014.172a.302.302 0 0 1-.15.237.302.302 0 0 1-.28.014c-.246-.112-5.842-2.697-7.84-5.097l-.323.291c-.09.081-.22.101-.33.05-.052-.024-1.289-.598-2.617-1.79-1.64-1.472-2.682-3.238-3.036-5.133l-.295.172a.304.304 0 0 1-.457-.249c-.013-.304-.3-7.152.928-10.075l-.384-.055a.305.305 0 0 1-.26-.324c.002-.026.05-.66.203-1.65.01-.414-.016-1.273-3.014-3.956-2.16-1.933-4.22-4.673-5.653-7.517C.39 7.747-.24 5.039.118 3.108.375 1.73 1.148.758 2.357.301A4.458 4.458 0 0 1 3.94.023c1.93 0 4.309 1.081 7.072 3.213 2.202 1.7 4.053 3.603 4.942 4.518.213.219.38.392.453.457.329.296 1.088.639 2.093.947 2.584-1.301 6.061-2.017 9.808-2.017 3.892 0 7.41.805 9.048 2.06 1.076-.319 1.887-.677 2.235-.99.072-.065.24-.238.453-.457.89-.915 2.74-2.818 4.942-4.518C47.75 1.104 50.13.023 52.06.023a4.46 4.46 0 0 1 1.585.278c1.207.458 1.981 1.428 2.237 2.807.36 1.931-.27 4.64-1.774 7.626-1.432 2.844-3.493 5.584-5.654 7.517-2.963 2.653-3.023 3.51-3.013 3.966.181.385.296.485.327.507a.304.304 0 0 1 .042.465l-.433.432c.19.259.505.735.812 1.4.434.94.933 2.457.842 4.343a.317.317 0 0 1-.041.139l-.434.743c.11.29.338.983.41 1.89.127 1.574-.282 3.05-1.184 4.268a.305.305 0 0 1-.418.068l-.294-.206A26.018 26.018 0 0 1 43.1 39.1c-1.256 1.584-3.292 3.772-5.85 5.2a.303.303 0 0 1-.406-.104l-.083-.131c-.702.68-2.653 2.468-4.785 3.58a.298.298 0 0 1-.14.035z"/>
        <path fill="#FFC2C4" d="M10.341 19.61s2.199.726 3.39-1.449c1.19-2.174 2.398-6.176.964-7.157l.652-.378S7.221-.547 2.577 1.19c-4.673 1.748 1.221 13.288 7.764 18.421M45.66 19.61s-2.2.726-3.39-1.449c-1.191-2.174-2.399-6.176-.965-7.157l-.652-.378S48.779-.547 53.423 1.19c4.673 1.748-1.22 13.288-7.764 18.421"/>
        <path fill="#FFFFFE" d="M36.51 32.691s.226 3.756-2.774 4.209c-3.001.453-5.197-.85-5.197-.85s-2.196 1.303-5.196.85c-3.001-.453-2.775-4.209-2.775-4.209"/>
        <path fill="#32454C" d="M36.51 32.691c.027.227.03.456.027.685a6.133 6.133 0 0 1-.058.687 4.891 4.891 0 0 1-.147.68 4.063 4.063 0 0 1-.249.657 3.59 3.59 0 0 1-.374.608c-.148.19-.322.362-.512.513-.19.154-.405.274-.627.378l-.17.067c-.028.011-.056.024-.085.033l-.087.026-.175.053-.178.038-.09.019-.01.002h-.003l-.007.002h-.005l-.02.004-.043.007-.168.026c-.056.01-.117.015-.175.023-.058.007-.118.016-.176.021-.117.01-.234.023-.35.028l-.175.01-.176.004-.088.002H32.3l-.176-.001c-.117-.004-.234-.007-.35-.016a8.837 8.837 0 0 1-2.073-.383 8.566 8.566 0 0 1-.99-.383 6.512 6.512 0 0 1-.16-.08l-.082-.042-.041-.022-.045-.025h.31l-.044.026-.042.022-.08.041a7.902 7.902 0 0 1-1.151.462 8.695 8.695 0 0 1-1.373.313 8.53 8.53 0 0 1-.7.071c-.117.01-.234.012-.351.017h-.176l-.088.001-.088-.002-.175-.004-.176-.01c-.117-.005-.233-.018-.35-.028a9.15 9.15 0 0 1-.348-.044l-.173-.027-.043-.007-.022-.003h-.005l-.012-.003h-.003l-.01-.003-.084-.018-.166-.036c-.06-.016-.12-.035-.18-.053l-.09-.028c-.03-.009-.058-.021-.087-.032l-.17-.068c-.055-.026-.11-.054-.164-.081l-.082-.041-.079-.048c-.051-.033-.105-.062-.155-.098l-.147-.109a3.158 3.158 0 0 1-.511-.513 3.643 3.643 0 0 1-.375-.608 4.16 4.16 0 0 1-.248-.659 4.848 4.848 0 0 1-.147-.679 6.032 6.032 0 0 1-.058-.687c-.003-.23 0-.458.027-.685.008.228.03.453.065.677a6.087 6.087 0 0 0 .336 1.299c.081.206.175.406.288.592.112.188.24.364.382.524.145.158.305.298.478.418l.133.085c.045.027.093.05.139.075l.069.038.072.03c.049.021.096.043.145.062l.15.05c.025.008.05.018.075.023l.074.018.148.037.168.028.084.014.074.008.164.018c.11.01.22.018.33.026.11.003.22.012.33.013l.165.003.165-.002.083-.001.082-.004.165-.006c.11-.01.22-.013.33-.025a9.08 9.08 0 0 0 1.3-.218c.212-.052.423-.112.631-.181a8.087 8.087 0 0 0 .914-.36l.144-.07.07-.038.063-.034.003-.003c.099-.054.215-.05.307.003l.03.016.033.018.07.037a6.698 6.698 0 0 0 .441.204 8.672 8.672 0 0 0 2.548.626c.11.012.22.016.33.025l.165.007.082.004h.083l.165.003.165-.003c.11 0 .22-.01.33-.014.055-.002.108-.007.163-.012.055-.004.107-.006.164-.013l.17-.018.042-.006.021-.002h.006l.01-.002.078-.013.157-.026.154-.037.078-.018c.025-.007.05-.016.074-.025l.15-.05c.049-.018.096-.04.145-.06l.073-.032.069-.037.07-.037c.022-.012.047-.024.068-.038l.133-.086c.173-.12.334-.26.479-.418.143-.16.269-.336.381-.523a3.92 3.92 0 0 0 .289-.593c.081-.206.147-.42.204-.637.056-.217.1-.438.132-.662.033-.224.056-.45.064-.677"/>
        <path fill="#FF7D82" d="M47.111 19.409l-.75-.183c-9.445-3.598-14.854.063-14.854.063-1.252-.647-2.968-.595-2.968-.595s-1.716-.052-2.968.595c0 0-5.41-3.66-14.854-.063l-.75.183s-.655 1.722-.278 2.183c0 0 .358.755.953.953 0 0 .358 8.18 6.949 8.219 6.59.04 8.906-7.188 9.092-8.735 0 0-.675-1.032-.12-1.39.556-.357 1.976-.335 1.976-.335s1.42-.022 1.976.335c.555.358-.12 1.39-.12 1.39.186 1.547 2.502 8.775 9.092 8.735 6.592-.04 6.949-8.219 6.949-8.219.595-.198.953-.953.953-.953.377-.461-.278-2.183-.278-2.183"/>
        <path fill="#32454C" d="M30.712 22.094c.253 1.604 2.488 8.366 8.721 8.366h.053c2.598-.016 4.503-1.338 5.663-3.929.884-1.974.982-3.98.983-4a.304.304 0 0 1 .208-.274c.46-.153.771-.789.774-.795a.298.298 0 0 1 .04-.062c.048-.06.099-.344-.057-.997a8.229 8.229 0 0 0-.217-.738l-.591-.144a.324.324 0 0 1-.036-.011c-2.723-1.037-5.368-1.563-7.863-1.563-4.292 0-6.69 1.578-6.713 1.594a.305.305 0 0 1-.31.018c-1.01-.522-2.348-.562-2.735-.562a3.118 3.118 0 0 0-.102 0h-.083c-.387 0-1.727.04-2.736.562a.304.304 0 0 1-.31-.018c-.024-.016-2.421-1.594-6.713-1.594-2.495 0-5.14.526-7.863 1.563a.292.292 0 0 1-.036.01l-.59.145a8.096 8.096 0 0 0-.218.738c-.155.653-.105.938-.056.997.015.019.029.04.04.062.084.177.39.667.773.795.12.04.203.149.208.275 0 .02.1 2.025.983 4 1.16 2.59 3.065 3.912 5.663 3.928h.053c6.233 0 8.468-6.762 8.722-8.366-.131-.226-.403-.766-.306-1.217a.762.762 0 0 1 .338-.493c.54-.347 1.642-.384 2.091-.384a4.899 4.899 0 0 1 .097 0c.45 0 1.553.037 2.092.384a.763.763 0 0 1 .338.493c.096.451-.175.991-.305 1.217zm8.721 8.974c-1.566 0-3.016-.401-4.307-1.193-1.066-.653-2.024-1.57-2.845-2.724-1.381-1.938-2.074-4.148-2.188-5.086a.31.31 0 0 1 .048-.202c.115-.176.334-.618.282-.86a.155.155 0 0 0-.073-.108c-.309-.198-1.108-.287-1.763-.287h-.053-.044c-.654 0-1.453.089-1.762.287a.154.154 0 0 0-.073.108c-.052.242.168.684.282.86.04.06.056.132.047.202-.112.938-.806 3.148-2.186 5.086-.822 1.155-1.78 2.071-2.845 2.725-1.292.79-2.741 1.192-4.308 1.192h-.056c-1.574-.01-2.938-.47-4.055-1.368-.888-.714-1.617-1.702-2.167-2.937-.774-1.737-.97-3.447-1.016-4.012-.526-.274-.848-.854-.92-.997-.204-.282-.216-.76-.04-1.497.12-.502.285-.938.292-.957a.304.304 0 0 1 .212-.187l.732-.178c2.785-1.059 5.497-1.596 8.061-1.596 3.921 0 6.293 1.242 6.9 1.603 1.107-.512 2.456-.553 2.859-.553a4 4 0 0 1 .092 0h.093c.401 0 1.752.041 2.857.553.607-.361 2.98-1.603 6.9-1.603 2.565 0 5.277.537 8.062 1.596l.732.178a.304.304 0 0 1 .212.187c.006.019.172.455.292.957.177.738.164 1.215-.039 1.497-.073.143-.395.723-.921.997-.046.565-.242 2.275-1.016 4.012-.55 1.235-1.28 2.223-2.167 2.937-1.117.898-2.481 1.359-4.054 1.367l-.057.001z"/>
        <path fill="#32454C" d="M32.572 31.544c0 1.502-1.806 3.7-4.033 3.7-2.227 0-4.032-2.198-4.032-3.7 0-1.5 1.805-2.34 4.032-2.34 2.227 0 4.033.84 4.033 2.34M25.117 22.23c0 2.563-2.077 7.586-7.475 7.586-4.952 0-5.737-4.758-5.737-7.323 0-2.564 2.015-4.001 5.85-4.001 3.837 0 7.362 1.173 7.362 3.737M31.961 22.23c0 2.563 2.077 7.586 7.475 7.586 4.951 0 5.737-4.758 5.737-7.323 0-2.564-2.014-4.001-5.85-4.001s-7.362 1.173-7.362 3.737"/>
        <path fill="#32454C" d="M28.235 36.05h.608v-2.114h-.608z"/>
    </g>
</svg>
