<svg xmlns="http://www.w3.org/2000/svg" xmlns:xlink="http://www.w3.org/1999/xlink" width="738" height="483" viewBox="0 0 738 483">
    <defs>
        <rect id="a" width="730" height="475" rx="3"/>
        <filter id="b" width="101.9%" height="102.9%" x="-1%" y="-1.1%" filterUnits="objectBoundingBox">
            <feOffset dy="2" in="SourceAlpha" result="shadowOffsetOuter1"/>
            <feGaussianBlur in="shadowOffsetOuter1" result="shadowBlurOuter1" stdDeviation="2"/>
            <feColorMatrix in="shadowBlurOuter1" values="0 0 0 0 0 0 0 0 0 0 0 0 0 0 0 0 0 0 0.1 0"/>
        </filter>
    </defs>
    <g fill="none" fill-rule="evenodd">
        <g transform="translate(4 2)">
            <mask id="c" fill="#fff">
                <use xlink:href="#a"/>
            </mask>
            <use fill="#000" filter="url(#b)" xlink:href="#a"/>
            <use fill="#FFF" xlink:href="#a"/>
            <path fill="#6F7C81" d="M691.619 29.233c-1.248 11.285 9.04 13.026 11.962 9.784-5.144 12.576-17.228-1.65-11.962-9.784zm-1.979-1.41c-4.444.63-11.049 14.586-3.226 12.995-4.81-1.71.03-11.585 3.226-12.995zm0-1.771c-1.552-.72-7.214 1.41-7.64 5.702 1.065-2.281 3.835-5.372 7.64-5.702zm1.948-1.591c-2.374-1.831-5.205.27-6.087.75 2.374-2.73 5.935-2.28 6.087-.75zm2.253-.57c1.644-1.471-.822-4.262-3.197-2.011.853-.36 3.714-.84 3.197 2.01zm2.709.42c3.135-2.942.517-4.082-.304-4.142 4.383-1.11 2.435 3.602.304 4.142zm.517 1.8c3.258 1.231 12.968-4.081 5.236-5.132 1.766.42 2.161 3.932-5.235 5.133zm-2.283 2.672c2.162 6.152 21.46 5.582 13.15-2.731 1.796 2.85-2.678 7.923-13.15 2.73z" mask="url(#c)"/>
            <path fill="#F8F8F8" d="M159 442h191v111H159z" mask="url(#c)"/>
        </g>
        <path fill="#F8F8F8" d="M4 66h350v350H4z"/>
        <path fill="#B2B9BC" d="M128.465 315c-46.519 0-67.201-11.34-68.435-25.947-1.478-17.493 52.652-36.341 120.901-42.096C196.53 245.64 211.511 245 225.35 245c46.718 0 80.489 7.32 81.63 20.815 1.479 17.496-79.576 42.038-147.829 47.793-11.268.95-21.487 1.392-30.686 1.392"/>
        <path fill="#FFFFFE" d="M89.11 256s-35.263 21.152-26.798 34.16c0 0-.336 6.427 8.184 5.703 0 0 2.476 4.375 11.162.606 8.686-3.766 20.584-10.458 26.342-22.754"/>
        <path fill="#32454C" d="M74.84 300c-3.042 0-4.745-1.265-5.543-2.106-3.005.13-5.331-.587-6.923-2.127-1.68-1.626-1.993-3.699-2.045-4.619-1.31-2.198-1.654-4.703-1.021-7.447 2.998-12.993 27.582-27.878 28.627-28.505a1.36 1.36 0 0 1 1.87.467 1.366 1.366 0 0 1-.467 1.87c-.246.147-24.638 14.913-27.375 26.785-.499 2.164-.217 4.025.862 5.685.158.242.234.528.22.815-.001.006-.048 1.779 1.248 3.013 1.13 1.073 2.982 1.51 5.506 1.298.53-.047 1.04.222 1.302.685.069.11 2.138 3.228 9.498.031 13.005-5.644 21.446-12.915 25.804-22.227a1.363 1.363 0 0 1 2.468 1.155c-4.652 9.943-13.545 17.653-27.187 23.574C78.88 299.564 76.629 300 74.84 300"/>
        <path fill="#FFFFFE" d="M281 267.24s11.955 8.038 14.826 3.224c0 0 10.45.443 8.13-8.105 0 0 8.126-12-20.959-25.359"/>
        <path fill="#0A0B09" d="M293.171 274c-4.909 0-11.729-4.462-12.561-5.021a1.38 1.38 0 0 1-.382-1.905c.42-.628 1.265-.8 1.893-.38 2.228 1.489 8.707 5.199 11.89 4.478.552-.124.928-.377 1.18-.796.256-.433.737-.69 1.225-.663 1.272.045 4.899-.243 6.403-2.148.806-1.023.952-2.426.447-4.287a1.38 1.38 0 0 1 .188-1.135c.055-.083 1.484-2.341.44-5.965-1.197-4.156-5.827-10.581-21.077-17.556a1.378 1.378 0 0 1-.679-1.817 1.363 1.363 0 0 1 1.808-.682c13.087 5.987 20.692 12.522 22.606 19.42 1.027 3.706.044 6.428-.515 7.567.556 2.482.19 4.555-1.085 6.171-2.143 2.704-6.23 3.12-7.909 3.171-.617.7-1.446 1.177-2.435 1.4a6.494 6.494 0 0 1-1.437.148"/>
        <path fill="#FF5C62" d="M110 205.504s-33.866-28.197-51.862-18.459C40.143 196.784 74.398 258.93 84.585 261"/>
        <path fill="#32454C" d="M84.103 262c-.09 0-.183-.007-.275-.027-4.855-.987-12.55-11.846-18.134-21.684-7.406-13.047-12.723-26.78-14.224-36.734-1.425-9.456.395-15.625 5.41-18.337 18.681-10.1 52.213 17.5 53.631 18.68a1.35 1.35 0 0 1 .17 1.91 1.374 1.374 0 0 1-1.925.17c-.334-.278-33.516-27.6-50.568-18.377-3.902 2.11-5.252 7.342-4.014 15.553 1.453 9.644 6.65 23.03 13.902 35.804 7.18 12.651 13.634 19.817 16.3 20.356.74.153 1.216.868 1.065 1.6A1.363 1.363 0 0 1 84.103 262"/>
        <path fill="#FFC2C4" d="M54.272 189.26C69.847 186.126 95 212.314 95 212.314 77.18 227.619 81.682 260 81.682 260c-11.567-8.555-37.465-56.622-27.41-70.74"/>
        <path fill="#32454C" d="M55.43 189.873c-3.549 5.921-1.362 19.21 5.926 35.799 5.502 12.523 12.99 24.77 18.542 30.607-.594-9.014-.523-31.753 12.784-44.566-4.371-4.412-22.58-21.976-35.394-21.976-.641 0-1.265.045-1.859.136zM81.55 261c-.288 0-.575-.089-.818-.274-5.93-4.478-15.33-19.075-21.865-33.948-4.695-10.685-11.635-29.951-5.37-38.934.199-.286.5-.485.84-.555.935-.192 1.927-.289 2.951-.289 15.75 0 37.425 22.854 38.34 23.827a1.372 1.372 0 0 1-.094 1.972c-16.234 14.24-12.917 44.342-12.651 46.525A1.37 1.37 0 0 1 81.557 261h-.007z"/>
        <path fill="#FF5C62" d="M181.733 207.289s76.182-26.09 103.8 28.014c17.903 35.076-23.792 42.615-23.792 42.615s-36.525 11.389-49.133 12.067C200.003 290.667 170 267.46 170 267.46l11.733-60.17"/>
        <path fill="#32454C" d="M170.86 266.707c4.415 3.301 29.375 21.573 40.65 21.573.166 0 .329-.003.485-.01 12.325-.66 48.554-11.8 48.922-11.912.05-.017.105-.03.16-.04.186-.034 18.991-3.55 25.203-16.141 3.288-6.666 2.506-14.798-2.329-24.168-14.191-27.514-41.771-33.29-62.412-33.29-19.067 0-35.6 4.795-39.242 5.929l-11.438 58.06zM211.51 291c-13.247 0-41.769-21.716-42.976-22.64a1.357 1.357 0 0 1-.508-1.343l11.759-59.682c.095-.478.438-.869.897-1.025.187-.063 18.876-6.31 40.857-6.31 13.518 0 25.51 2.317 35.645 6.887 12.804 5.774 22.623 15.152 29.184 27.875 5.253 10.185 6.042 19.143 2.346 26.629-6.674 13.51-25.455 17.286-27.073 17.588-2.356.728-37.012 11.338-49.5 12.004a9.686 9.686 0 0 1-.632.017z"/>
        <path fill="#FF5C62" d="M146.245 197.03s-54.773-2.381-71.83 35.054c-12.791 28.077-7.164 61.46 23.308 72.896 10.157 3.81 25.88 3.387 41.84 2.122 60.53-4.796 74.046-53.978 36.604-97.8 0 0-12.01-12.38-29.922-12.272"/>
        <path fill="#FFFFFE" d="M198 257.993c-4.616-5.46-10.746-5.906-10.746-5.906l3.26-2.01c-7.672-4.147-11.18-1.626-11.18-1.626l2.765-3.793c-14.346-7.966-29.859.813-29.859.813-1.871-9.085-20.063-11.336-20.063-11.336 2.01-8.946 3.605-29.81 3.608-37.11-.28.028-2.556-.049-2.842-.017l-.16.017c-.29.033-.585.067-.882.103l-.02.002c-.314.038-.631.077-.951.118l-.024.003c-4.293.552-11.147 1.306-16.203 2.644-1.992 8.035-2.216 26.927-.914 35.755l-16.481 16.114s-11.699.367-16.488 4.875l2.753 1.5s-6.932 1.568-10.394 7.62l2.452 1.327s-2.775 2.241-5.631 5.286c3.347 13.896 12.5 25.7 28.363 31.617 10.196 3.8 25.978 3.378 41.997 2.115 37.664-2.963 57.187-22.941 57.64-48.111"/>
        <path fill="#32454C" d="M144.824 198.711c-8.87 0-53.876 1.643-68.776 34.068-7.387 16.074-8.353 33.173-2.652 46.905 4.593 11.062 13.323 19.254 25.246 23.69 5.27 1.962 12.536 2.915 22.213 2.915h.003c5.336 0 11.413-.282 19.127-.888 26.88-2.112 45.73-13.042 53.082-30.777 7.716-18.616 1.253-42.583-17.296-64.124-.624-.618-12.131-11.76-28.747-11.76l-.227.001h-.067c-.006 0-.692-.03-1.906-.03zM120.858 309h-.003c-10.008 0-17.586-1.01-23.166-3.084-12.65-4.708-21.92-13.421-26.809-25.198-5.99-14.424-5.008-32.308 2.692-49.067 6.596-14.355 19.31-24.627 37.786-30.53 14.463-4.622 28.222-5.121 33.466-5.121 1.142 0 1.834.024 1.99.03h.21c18.184 0 30.22 12.09 30.723 12.604l.059.063c9.614 11.157 16.289 23.217 19.305 34.88 2.96 11.438 2.433 22.534-1.525 32.08-3.737 9.02-10.283 16.411-19.45 21.973-9.62 5.832-21.71 9.357-35.937 10.475-7.786.61-13.932.895-19.341.895z"/>
        <path fill="#32454C" d="M147 262.574s-4.425 17.223-27.404 16.397c-22.979-.826-22.42-13.408-21.05-17.42 1.37-4.01 48.454 1.023 48.454 1.023"/>
        <path fill="#FF5C62" d="M147 198.233s33.272-35.542 56.276-31.982c23.007 3.56 3.348 78.56-6.733 84.749"/>
        <path fill="#32454C" d="M196.123 252c-.46 0-.906-.233-1.165-.65a1.35 1.35 0 0 1 .453-1.86c2.927-1.773 8.091-12.1 12.299-28.402 4.268-16.537 5.655-32.169 3.71-41.815-1.383-6.844-4.323-10.656-8.742-11.33-22.127-3.385-54.994 30.956-55.323 31.303a1.37 1.37 0 0 1-1.926.057 1.346 1.346 0 0 1-.058-1.912c.084-.089 8.564-8.993 19.771-17.336 15.225-11.334 27.993-16.309 37.952-14.788 5.668.866 9.368 5.4 10.997 13.475 2.023 10.025.623 26.107-3.741 43.018-3.083 11.947-8.473 26.982-13.518 30.04-.222.136-.467.2-.709.2"/>
        <path fill="#FFC2C4" d="M207.194 169C189.724 171.545 165 202.372 165 202.372 189.47 211.906 198.5 249 198.5 249c8.805-13.448 24.6-68.8 8.694-80"/>
        <path fill="#32454C" d="M166.57 201.306c9.683 4.387 18.322 13.647 25.074 26.911 3.473 6.826 5.7 13.219 6.837 16.979 4.04-7.69 9.172-22.6 11.925-37.785 3.482-19.2 2.033-32.844-3.962-37.624-14.705 2.63-34.877 25.59-39.874 31.52zM198.05 250a1.356 1.356 0 0 1-1.324-1.051c-.204-.814-9.322-36.687-32.86-45.838a1.357 1.357 0 0 1-.567-2.113c1.029-1.28 25.405-31.383 43.301-33.984.343-.05.693.034.975.233 4.066 2.856 6.487 8.366 7.2 16.378.59 6.64.02 14.806-1.698 24.27-3.187 17.575-9.566 34.897-13.894 41.491-.254.39-.685.614-1.133.614z"/>
        <path fill="#FF8D91" d="M107 266.97s3.955 25.46 19.99 20.353c16.034-5.106 7.67-22.276 8.952-23.676 1.282-1.404-26.487-11.472-28.942 3.324"/>
        <path fill="#32454C" d="M108.745 267.422c.393 2.198 3.888 19.8 14.663 19.804h.002c1.176 0 2.427-.208 3.719-.62 10.4-3.31 9.76-11.586 8.345-19.084-.268-1.418-.456-2.413-.398-3.162-1.938-1.162-8.983-3.586-15.482-3.586-6.36 0-10.008 2.237-10.849 6.648zM123.41 290h-.003c-13.752-.003-17.248-21.451-17.39-22.363a1.44 1.44 0 0 1 .002-.451c.984-5.923 5.805-9.186 13.575-9.186 4.77 0 9.342 1.176 11.643 1.88 2.695.825 6.029 2.087 6.604 3.436.199.465.174.967-.053 1.387.007.423.201 1.453.36 2.296.546 2.888 1.37 7.258.41 11.52-1.187 5.26-4.76 8.873-10.618 10.735-1.554.493-3.079.746-4.53.746z"/>
        <path fill="#32454C" d="M124.62 281c-.34 0-.68-.129-.946-.379-5.288-5.01-4.667-17.767-4.638-18.309a1.377 1.377 0 0 1 1.453-1.31 1.383 1.383 0 0 1 1.304 1.46c-.176 3.328.159 12.712 3.772 16.134.556.528.582 1.407.06 1.966a1.381 1.381 0 0 1-1.006.438"/>
        <path fill="#FFFFFE" d="M112.965 237s-22.662 7.93-21.949 20.58c.714 12.65 16.437 18.103 23.699 8.62 0 0 39.862 10.181 31-11.64"/>
        <path fill="#32454C" d="M104.46 272c-1.43 0-2.896-.213-4.362-.657-6.355-1.924-10.704-7.482-11.08-14.161-.764-13.613 21.993-21.764 22.962-22.104.712-.25 1.492.12 1.743.825.252.705-.12 1.479-.83 1.73-.219.076-21.798 7.806-21.147 19.4.31 5.53 3.902 10.13 9.15 11.719 4.676 1.412 9.355-.03 12.21-3.77.332-.437.897-.63 1.43-.495 6.482 1.66 24.397 4.732 29.392-.91 1.727-1.952 1.777-4.983.146-9.01a1.355 1.355 0 0 1 .759-1.765c.7-.278 1.495.061 1.776.755 2.046 5.054 1.834 9.027-.63 11.811-6.454 7.286-26.762 3.011-31.268 1.951-2.638 3.042-6.31 4.681-10.251 4.681"/>
        <path fill="#32454C" d="M123.981 245.375c.33 3.155-3.738 11.84-9.803 12.575-6.065.735-11.829-6.76-12.16-9.914-.33-3.154 3.708-5.033 9.773-5.769 6.065-.731 11.86-.046 12.19 3.108"/>
        <path fill="#32454C" d="M114.747 268c-.261 0-.525-.092-.75-.285-4.885-4.179-2.355-14.266-2.244-14.693.194-.754.89-1.185 1.553-.964.663.22 1.043 1.01.849 1.764-.611 2.39-1.56 9.134 1.346 11.62.552.47.663 1.363.248 1.992-.246.37-.622.566-1.002.566M104.959 234.772a6.5 6.5 0 1 1-12.917 1.456 6.5 6.5 0 0 1 12.917-1.456"/>
        <path fill="#FFFFFE" d="M103.984 233.22a2.5 2.5 0 1 1-4.967.56 2.5 2.5 0 0 1 4.967-.56"/>
        <path fill="#32454C" d="M157.959 230.772a6.5 6.5 0 1 1-12.919 1.455 6.5 6.5 0 0 1 12.919-1.455"/>
        <path fill="#FFFFFE" d="M155.984 229.22a2.5 2.5 0 1 1-4.968.56 2.5 2.5 0 0 1 4.968-.56"/>
        <path fill="#FF5C62" d="M199.145 267s-38.705 15.254-32.464 29.752c0 0-1.419 6.394 7.193 7.115 0 0 1.73 4.814 11.02 2.507 9.29-2.31 24.154-7.3 33.106-17.175"/>
        <path fill="#FFFFFE" d="M202.246 283.377c.182-3.317-2.229-6.286-6.128-7.521-2.219-.704-4.132-3.537-5.374-5.856-10.929 5.182-29.539 15.75-25.062 25.942 0 0-1.42 6.275 7.206 6.983 0 0 1.733 4.725 11.039 2.46 6.992-1.702 17.805-4.633 26.073-10.716-8.724-4.44-7.935-7.978-7.754-11.292"/>
        <path fill="#32454C" d="M179.751 308c-4.511 0-6.522-1.992-7.313-3.154-3.013-.373-5.209-1.457-6.534-3.232-1.398-1.873-1.362-3.953-1.258-4.865-.934-2.37-.855-4.885.237-7.466 5.171-12.236 32.149-22.748 33.294-23.189a1.38 1.38 0 0 1 1.782.766 1.35 1.35 0 0 1-.781 1.758c-.268.102-27.033 10.529-31.755 21.705-.862 2.043-.895 3.913-.1 5.718.117.265.145.556.081.834-.001.007-.346 1.734.737 3.16.943 1.24 2.713 1.976 5.262 2.186.536.04.997.39 1.18.887.05.119 1.586 3.517 9.447 1.606 10.192-2.473 24.115-7.341 32.58-16.468a1.39 1.39 0 0 1 1.943-.084 1.34 1.34 0 0 1 .086 1.914c-8.926 9.628-23.389 14.706-33.949 17.27-1.909.464-3.542.654-4.939.654"/>
        <path fill="#FFFFFE" d="M167 296s1.804-2.459 5-3"/>
        <path fill="#32454C" d="M167.23 298c-.268 0-.538-.107-.764-.321-.53-.506-.622-1.426-.204-2.064.08-.122 1.975-2.966 5.315-3.597.67-.126 1.301.42 1.408 1.23.106.805-.353 1.562-1.024 1.687-2.36.447-3.754 2.493-3.768 2.511-.243.362-.602.554-.963.554"/>
        <path fill="#FFFFFE" d="M173 303s1.055-1.91 3-3"/>
        <path fill="#32454C" d="M173.25 305c-.197 0-.396-.055-.582-.168-.61-.377-.845-1.254-.525-1.967.042-.095 1.065-2.348 2.969-3.66.595-.414 1.362-.18 1.714.515.351.695.154 1.59-.441 2-1.276.881-2.02 2.49-2.027 2.505-.225.493-.66.775-1.108.775"/>
        <path fill="#FFFFFE" d="M305 263s-2.77-3.927-5-5"/>
        <path fill="#0A0B09" d="M304.756 264c-.405 0-.801-.215-1.041-.615-.897-1.485-2.789-4.1-4.038-4.804-.61-.342-.854-1.165-.54-1.837.312-.673 1.063-.936 1.677-.595 2.237 1.257 4.705 5.276 4.98 5.73.38.629.22 1.476-.353 1.892a1.168 1.168 0 0 1-.685.229"/>
        <path fill="#FFFFFE" d="M296 271s-1.31-2.323-4-5"/>
        <path fill="#0A0B09" d="M295.763 272c-.421 0-.83-.227-1.063-.634-.012-.02-1.109-1.922-3.305-4.088a1.372 1.372 0 0 1-.062-1.86 1.189 1.189 0 0 1 1.75-.066c2.47 2.439 3.69 4.568 3.74 4.657.352.62.163 1.43-.425 1.804a1.163 1.163 0 0 1-.635.187"/>
        <path fill="#FFFFFE" d="M62 290s1.976-4.247 4-5"/>
        <path fill="#0A0B09" d="M61.392 291c-.206 0-.414-.04-.611-.125-.69-.306-.977-1.053-.64-1.672.39-.715 2.46-4.324 5.001-5.13.725-.232 1.52.109 1.778.759.257.65-.123 1.365-.848 1.597-1.084.343-2.687 2.515-3.429 3.871-.242.444-.737.7-1.251.7"/>
        <path fill="#FFFFFE" d="M70 296s2.297-2.793 4-3"/>
        <path fill="#0A0B09" d="M70.41 298c-.28 0-.564-.075-.81-.238-.638-.41-.791-1.225-.344-1.815.645-.847 2.921-3.64 5.132-3.932.771-.108 1.486.39 1.597 1.1.112.714-.423 1.376-1.194 1.477-.674.091-2.259 1.58-3.226 2.854a1.445 1.445 0 0 1-1.156.554"/>
        <g>
            <path d="M24 22h24v24H24z"/>
            <g stroke="#32454C" stroke-linecap="round">
                <path d="M27 26.5h18M27 34.5h18M27 42.5h18"/>
            </g>
        </g>
        <path fill="#FF5C62" fill-rule="nonzero" d="M73.874 26.796c1.992 0 3.615.411 4.869 1.233 1.254.822 1.881 2.349 1.881 4.581 0 1.776-.393 3.135-1.179 4.077-.786.942-1.677 1.563-2.673 1.863-.996.3-1.968.45-2.916.45l-2.138.006a90.338 90.338 0 0 0-2.776.048c0-.444.036-.762.108-.954.336-.024.591-.084.765-.18.174-.096.297-.273.369-.531.072-.258.108-.633.108-1.125v-6.858c0-.444-.036-.78-.108-1.008-.072-.228-.195-.39-.369-.486-.174-.096-.429-.156-.765-.18-.06-.216-.09-.534-.09-.954l.591.025c.442.015.978.024 1.609.027h1.058c.24-.003.432-.008.576-.016l1.08-.018zm.198 11.25c1.272 0 2.289-.381 3.051-1.143s1.143-2.097 1.143-4.005c0-1.812-.435-3.138-1.305-3.978-.87-.84-1.965-1.26-3.285-1.26-.456 0-.846.06-1.17.18v8.406c0 .492.042.864.126 1.116a.848.848 0 0 0 .459.531c.222.102.549.153.981.153zm12.132 1.116c-1.332 0-2.379-.381-3.141-1.143s-1.143-1.797-1.143-3.105c0-.852.186-1.605.558-2.259a3.908 3.908 0 0 1 1.539-1.521c.654-.36 1.395-.54 2.223-.54 1.356 0 2.412.387 3.168 1.161.756.774 1.134 1.803 1.134 3.087 0 .852-.18 1.602-.54 2.25a3.863 3.863 0 0 1-1.521 1.521c-.654.366-1.413.549-2.277.549zm.198-1.008c.612 0 1.08-.273 1.404-.819.324-.546.486-1.269.486-2.169 0-.732-.102-1.368-.306-1.908-.204-.54-.477-.954-.819-1.242-.342-.288-.717-.432-1.125-.432-.6 0-1.059.264-1.377.792-.318.528-.477 1.224-.477 2.088 0 1.14.198 2.04.594 2.7.396.66.936.99 1.62.99zm10.278-.45c1.176.012 2.025.168 2.547.468.522.3.783.84.783 1.62 0 .612-.207 1.203-.621 1.773-.414.57-.993 1.032-1.737 1.386-.744.354-1.584.531-2.52.531-1.164 0-2.004-.198-2.52-.594-.516-.396-.774-.972-.774-1.728 0-.42.114-.792.342-1.116.228-.324.558-.576.99-.756-.288-.132-.498-.312-.63-.54-.132-.228-.198-.522-.198-.882 0-.696.336-1.35 1.008-1.962-.828-.516-1.242-1.296-1.242-2.34 0-.888.303-1.605.909-2.151.606-.546 1.461-.819 2.565-.819.48 0 .9.054 1.26.162h3.186c.096.3.144.72.144 1.26a8.852 8.852 0 0 0-1.728-.324c.264.276.465.582.603.918.138.336.207.654.207.954 0 .852-.312 1.551-.936 2.097-.624.546-1.512.819-2.664.819-.48 0-.918-.054-1.314-.162-.252.252-.378.486-.378.702 0 .204.081.354.243.45.162.096.423.159.783.189l.428.025c.33.013.752.02 1.264.02zm-1.152-6.228c-.408 0-.723.174-.945.522-.222.348-.333.792-.333 1.332 0 .708.144 1.254.432 1.638.288.384.69.576 1.206.576.384 0 .687-.159.909-.477.222-.318.333-.771.333-1.359 0-.66-.144-1.197-.432-1.611-.288-.414-.678-.621-1.17-.621zm.108 10.926c.756 0 1.359-.165 1.809-.495.45-.33.675-.741.675-1.233 0-.276-.069-.486-.207-.63-.138-.144-.39-.249-.756-.315-.32-.058-.771-.09-1.354-.097l-.257-.002c-.48 0-.942-.03-1.386-.09-.18.18-.306.363-.378.549a1.761 1.761 0 0 0-.108.639c0 .576.15.999.45 1.269.3.27.804.405 1.512.405zm10.602-4.698c1.176.012 2.025.168 2.547.468.522.3.783.84.783 1.62 0 .612-.207 1.203-.621 1.773-.414.57-.993 1.032-1.737 1.386-.744.354-1.584.531-2.52.531-1.164 0-2.004-.198-2.52-.594-.516-.396-.774-.972-.774-1.728 0-.42.114-.792.342-1.116.228-.324.558-.576.99-.756-.288-.132-.498-.312-.63-.54-.132-.228-.198-.522-.198-.882 0-.696.336-1.35 1.008-1.962-.828-.516-1.242-1.296-1.242-2.34 0-.888.303-1.605.909-2.151.606-.546 1.461-.819 2.565-.819.48 0 .9.054 1.26.162h3.186c.096.3.144.72.144 1.26a8.852 8.852 0 0 0-1.728-.324c.264.276.465.582.603.918.138.336.207.654.207.954 0 .852-.312 1.551-.936 2.097-.624.546-1.512.819-2.664.819-.48 0-.918-.054-1.314-.162-.252.252-.378.486-.378.702 0 .204.081.354.243.45.162.096.423.159.783.189l.428.025c.33.013.752.02 1.264.02zm-1.152-6.228c-.408 0-.723.174-.945.522-.222.348-.333.792-.333 1.332 0 .708.144 1.254.432 1.638.288.384.69.576 1.206.576.384 0 .687-.159.909-.477.222-.318.333-.771.333-1.359 0-.66-.144-1.197-.432-1.611-.288-.414-.678-.621-1.17-.621zm.108 10.926c.756 0 1.359-.165 1.809-.495.45-.33.675-.741.675-1.233 0-.276-.069-.486-.207-.63-.138-.144-.39-.249-.756-.315-.32-.058-.771-.09-1.354-.097l-.257-.002c-.48 0-.942-.03-1.386-.09-.18.18-.306.363-.378.549a1.761 1.761 0 0 0-.108.639c0 .576.15.999.45 1.269.3.27.804.405 1.512.405zm10.08-3.24c-1.332 0-2.379-.381-3.141-1.143s-1.143-1.797-1.143-3.105c0-.852.186-1.605.558-2.259a3.908 3.908 0 0 1 1.539-1.521c.654-.36 1.395-.54 2.223-.54 1.356 0 2.412.387 3.168 1.161.756.774 1.134 1.803 1.134 3.087 0 .852-.18 1.602-.54 2.25a3.863 3.863 0 0 1-1.521 1.521c-.654.366-1.413.549-2.277.549zm.198-1.008c.612 0 1.08-.273 1.404-.819.324-.546.486-1.269.486-2.169 0-.732-.102-1.368-.306-1.908-.204-.54-.477-.954-.819-1.242-.342-.288-.717-.432-1.125-.432-.6 0-1.059.264-1.377.792-.318.528-.477 1.224-.477 2.088 0 1.14.198 2.04.594 2.7.396.66.936.99 1.62.99zm11.034-7.56c1.08 0 1.926.321 2.538.963.612.642.918 1.617.918 2.925 0 .888-.195 1.686-.585 2.394a4.27 4.27 0 0 1-1.656 1.674c-.714.408-1.533.612-2.457.612-.84 0-1.611-.117-2.313-.351-.702-.234-1.245-.537-1.629-.909.144-.168.249-.414.315-.738s.099-.786.099-1.386V28.83c0-.312-.033-.555-.099-.729a.714.714 0 0 0-.387-.396c-.192-.09-.48-.141-.864-.153 0-.372.06-.654.18-.846.444 0 .969-.063 1.575-.189s1.023-.267 1.251-.423c.3.12.45.402.45.846v4.248c0 .288-.024.612-.072.972.108-.18.21-.318.306-.414.216-.288.543-.552.981-.792.438-.24.921-.36 1.449-.36zm-1.206 7.614c.624 0 1.182-.255 1.674-.765s.738-1.389.738-2.637c0-.624-.087-1.155-.261-1.593-.174-.438-.402-.765-.684-.981-.282-.216-.579-.324-.891-.324-.564 0-1.044.264-1.44.792-.396.528-.594 1.344-.594 2.448v2.43c.204.204.423.36.657.468.234.108.501.162.801.162zm10.278.954c-1.332 0-2.379-.381-3.141-1.143s-1.143-1.797-1.143-3.105c0-.852.186-1.605.558-2.259a3.908 3.908 0 0 1 1.539-1.521c.654-.36 1.395-.54 2.223-.54 1.356 0 2.412.387 3.168 1.161.756.774 1.134 1.803 1.134 3.087 0 .852-.18 1.602-.54 2.25a3.863 3.863 0 0 1-1.521 1.521c-.654.366-1.413.549-2.277.549zm.198-1.008c.612 0 1.08-.273 1.404-.819.324-.546.486-1.269.486-2.169 0-.732-.102-1.368-.306-1.908-.204-.54-.477-.954-.819-1.242-.342-.288-.717-.432-1.125-.432-.6 0-1.059.264-1.377.792-.318.528-.477 1.224-.477 2.088 0 1.14.198 2.04.594 2.7.396.66.936.99 1.62.99zm9.756 1.008c-1.332 0-2.379-.381-3.141-1.143s-1.143-1.797-1.143-3.105c0-.852.186-1.605.558-2.259a3.908 3.908 0 0 1 1.539-1.521c.654-.36 1.395-.54 2.223-.54 1.356 0 2.412.387 3.168 1.161.756.774 1.134 1.803 1.134 3.087 0 .852-.18 1.602-.54 2.25a3.863 3.863 0 0 1-1.521 1.521c-.654.366-1.413.549-2.277.549zm.198-1.008c.612 0 1.08-.273 1.404-.819.324-.546.486-1.269.486-2.169 0-.732-.102-1.368-.306-1.908-.204-.54-.477-.954-.819-1.242-.342-.288-.717-.432-1.125-.432-.6 0-1.059.264-1.377.792-.318.528-.477 1.224-.477 2.088 0 1.14.198 2.04.594 2.7.396.66.936.99 1.62.99zm12.697-1.725l.479.591c.312.396.576.66.792.792.216.132.516.216.9.252 0 .396-.048.708-.144.936-1.056 0-1.926.054-2.61.162-.324-.516-.798-1.164-1.422-1.944a39.05 39.05 0 0 0-1.872-2.178v1.494c0 .588.072.993.216 1.215.144.222.402.339.774.351.072.228.108.546.108.954l-.464-.024c-.412-.017-.89-.026-1.434-.03l-.964.003c-.696.006-1.254.023-1.674.051 0-.42.036-.738.108-.954.48-.012.804-.126.972-.342.168-.216.252-.624.252-1.224V28.83c0-.312-.033-.555-.099-.729a.714.714 0 0 0-.387-.396c-.192-.09-.48-.141-.864-.153 0-.372.06-.654.18-.846.444 0 .969-.063 1.575-.189s1.023-.267 1.251-.423c.3.12.45.402.45.846v7.434l1.296-1.188c.672-.588 1.008-1.008 1.008-1.26 0-.18-.168-.276-.504-.288a3.236 3.236 0 0 1-.144-.918l.487.018c.437.012 1.013.018 1.727.018l.963-.009c.282-.006.525-.015.729-.027 0 .336-.054.648-.162.936a3.013 3.013 0 0 0-1.098.261c-.324.15-.702.423-1.134.819l-1.422 1.296.324.328c.508.529 1.11 1.219 1.807 2.07z"/>
        <g>
            <path fill="#32454C" fill-rule="nonzero" d="M403.792 190.324c-1.464 0-2.796-.186-3.996-.558-1.2-.372-2.448-.93-3.744-1.674.24-1.368.36-3.168.36-5.4.696-.192 1.572-.288 2.628-.288.12 2.04.564 3.528 1.332 4.464.768.936 2.016 1.404 3.744 1.404 1.44 0 2.514-.318 3.222-.954.708-.636 1.062-1.446 1.062-2.43 0-.792-.222-1.476-.666-2.052a5.806 5.806 0 0 0-1.674-1.458 30.95 30.95 0 0 0-2.332-1.212l-.368-.174c-1.464-.672-2.652-1.302-3.564-1.89-.912-.588-1.686-1.374-2.322-2.358-.636-.984-.954-2.208-.954-3.672 0-2.136.696-3.792 2.088-4.968 1.392-1.176 3.252-1.764 5.58-1.764 1.224 0 2.424.15 3.6.45 1.176.3 2.112.678 2.808 1.134l.003.786c.015 1.896.086 3.278.213 4.146-.6.312-1.476.468-2.628.468-.336-1.92-.828-3.24-1.476-3.96-.648-.72-1.548-1.08-2.7-1.08-1.152 0-2.058.276-2.718.828-.66.552-.99 1.332-.99 2.34 0 .84.234 1.56.702 2.16.468.6 1.05 1.104 1.746 1.512l.448.255c.637.353 1.436.76 2.396 1.221 1.464.696 2.652 1.332 3.564 1.908a7.8 7.8 0 0 1 2.322 2.286c.636.948.954 2.106.954 3.474 0 1.344-.318 2.544-.954 3.6-.636 1.056-1.602 1.896-2.898 2.52-1.296.624-2.892.936-4.788.936zm20.088 0c-2.664 0-4.758-.762-6.282-2.286s-2.286-3.594-2.286-6.21c0-1.704.372-3.21 1.116-4.518a7.815 7.815 0 0 1 3.078-3.042c1.308-.72 2.79-1.08 4.446-1.08 2.712 0 4.824.774 6.336 2.322 1.512 1.548 2.268 3.606 2.268 6.174 0 1.704-.36 3.204-1.08 4.5a7.726 7.726 0 0 1-3.042 3.042c-1.308.732-2.826 1.098-4.554 1.098zm.396-2.016c1.224 0 2.16-.546 2.808-1.638.648-1.092.972-2.538.972-4.338 0-1.464-.204-2.736-.612-3.816-.408-1.08-.954-1.908-1.638-2.484-.684-.576-1.434-.864-2.25-.864-1.2 0-2.118.528-2.754 1.584-.636 1.056-.954 2.448-.954 4.176 0 2.28.396 4.08 1.188 5.4.792 1.32 1.872 1.98 3.24 1.98zm25.092-13.968a27.32 27.32 0 0 0-.234 2.304c-.06.912-.078 1.728-.054 2.448-.264.12-.642.216-1.134.288a9.599 9.599 0 0 1-1.386.108c-.048-1.008-.21-1.704-.486-2.088-.276-.384-.678-.576-1.206-.576-.384 0-.798.222-1.242.666-.444.444-.816 1.032-1.116 1.764-.3.732-.45 1.506-.45 2.322v2.628c0 1.032.114 1.83.342 2.394.228.564.582.96 1.062 1.188.48.228 1.152.366 2.016.414.144.408.216 1.044.216 1.908l-.498-.027a90.341 90.341 0 0 0-3.722-.08h-1.709c-2.06.008-3.588.043-4.583.107 0-.888.06-1.524.18-1.908.672-.048 1.182-.168 1.53-.36.348-.192.594-.522.738-.99.144-.468.216-1.146.216-2.034v-5.976c0-.672-.06-1.194-.18-1.566-.12-.372-.372-.654-.756-.846-.384-.192-.96-.3-1.728-.324 0-.744.12-1.308.36-1.692a15.392 15.392 0 0 0 3.132-.414c1.08-.252 1.908-.522 2.484-.81.6.24.9.84.9 1.8a9.28 9.28 0 0 1-.162 1.674c-.108.588-.222 1.17-.342 1.746l.228-.647.132-.361c.144-.39.28-.694.406-.908l.062-.1c.552-.888 1.206-1.596 1.962-2.124a4.274 4.274 0 0 1 2.502-.792c.888 0 1.728.288 2.52.864zm16.164 0a27.32 27.32 0 0 0-.234 2.304c-.06.912-.078 1.728-.054 2.448-.264.12-.642.216-1.134.288a9.599 9.599 0 0 1-1.386.108c-.048-1.008-.21-1.704-.486-2.088-.276-.384-.678-.576-1.206-.576-.384 0-.798.222-1.242.666-.444.444-.816 1.032-1.116 1.764-.3.732-.45 1.506-.45 2.322v2.628c0 1.032.114 1.83.342 2.394.228.564.582.96 1.062 1.188.48.228 1.152.366 2.016.414.144.408.216 1.044.216 1.908l-.498-.027a90.341 90.341 0 0 0-3.722-.08h-1.709c-2.06.008-3.588.043-4.583.107 0-.888.06-1.524.18-1.908.672-.048 1.182-.168 1.53-.36.348-.192.594-.522.738-.99.144-.468.216-1.146.216-2.034v-5.976c0-.672-.06-1.194-.18-1.566-.12-.372-.372-.654-.756-.846-.384-.192-.96-.3-1.728-.324 0-.744.12-1.308.36-1.692a15.392 15.392 0 0 0 3.132-.414c1.08-.252 1.908-.522 2.484-.81.6.24.9.84.9 1.8a9.28 9.28 0 0 1-.162 1.674c-.108.588-.222 1.17-.342 1.746l.228-.647.132-.361c.144-.39.28-.694.406-.908l.062-.1c.552-.888 1.206-1.596 1.962-2.124a4.274 4.274 0 0 1 2.502-.792c.888 0 1.728.288 2.52.864zm16.488-.828l1-.005c1.144-.012 1.998-.046 2.564-.103 0 .84-.096 1.476-.288 1.908-.624.168-1.11.468-1.458.9-.348.432-.786 1.272-1.314 2.52l-5.642 13.435c-.746 1.747-1.415 3.089-2.008 4.025-.684 1.08-1.332 1.812-1.944 2.196-.612.384-1.338.576-2.178.576-.672 0-1.272-.108-1.8-.324-.528-.216-.948-.492-1.26-.828a4.544 4.544 0 0 1-.108-1.08c0-.696.084-1.32.252-1.872.984.216 1.92.324 2.808.324.792 0 1.47-.15 2.034-.45.564-.3 1.062-.798 1.494-1.494l.102-.182c.199-.369.585-1.136 1.158-2.302l-1.795-4.046a380.568 380.568 0 0 0-2.942-6.452l-.519-1.094c-.696-1.488-1.254-2.466-1.674-2.934a2.934 2.934 0 0 0-1.53-.918c-.168-.48-.252-1.104-.252-1.872l1.712.04c1.067.021 1.984.032 2.752.032l.909-.003c1.251-.008 2.665-.03 4.239-.069 0 .744-.096 1.368-.288 1.872-.744.12-1.278.288-1.602.504-.324.216-.486.528-.486.936 0 .456.24 1.188.72 2.196.936 1.824 1.896 4.068 2.88 6.732l.072-.144 2.484-6.264c.384-.936.576-1.692.576-2.268 0-.504-.156-.876-.468-1.116-.312-.24-.804-.432-1.476-.576-.192-.48-.288-1.104-.288-1.872l.346.02c.746.034 1.82.052 3.218.052zm8.82 16.812c-.912 0-1.62-.246-2.124-.738s-.756-1.146-.756-1.962c0-.84.282-1.524.846-2.052.564-.528 1.29-.792 2.178-.792.816 0 1.482.27 1.998.81s.774 1.146.774 1.818c0 .888-.27 1.596-.81 2.124s-1.242.792-2.106.792zm42.972-24.661l.48.001c1.392 0 2.58-.036 3.564-.108 0 .792-.084 1.428-.252 1.908-.432.12-.798.336-1.098.648-.3.312-.588.804-.864 1.476l-.144.365a49.92 49.92 0 0 0-.918 2.695l-5.4 17.424c-.48.168-1.188.252-2.124.252a557.195 557.195 0 0 0-6.624-17.784l-5.94 17.568c-.576.144-1.296.216-2.16.216l-.784-2.578a664.391 664.391 0 0 0-4.247-13.446l-1.116-3.352c-.324-.95-.585-1.638-.783-2.062-.252-.54-.492-.894-.72-1.062-.228-.168-.582-.276-1.062-.324-.12-.504-.18-1.152-.18-1.944l.559.03c.977.048 2.181.073 3.613.077l.436.001c1.824 0 3.444-.036 4.86-.108 0 .72-.072 1.356-.216 1.908-.816.048-1.386.168-1.71.36-.324.192-.486.516-.486.972 0 .504.204 1.344.612 2.52 1.416 4.248 2.628 8.16 3.636 11.736l5.976-17.46c.432-.144 1.104-.216 2.016-.216a882.982 882.982 0 0 1 6.588 17.856l3.312-10.656c.36-1.2.54-2.136.54-2.808 0-.72-.186-1.254-.558-1.602-.372-.348-.954-.582-1.746-.702-.192-.504-.288-1.14-.288-1.908.896.064 1.972.1 3.228.107zm20.172 20.413c.216.12.414.324.594.612s.282.576.306.864c-.864.96-1.848 1.662-2.952 2.106-1.104.444-2.364.666-3.78.666-2.688 0-4.728-.792-6.12-2.376-1.392-1.584-2.088-3.636-2.088-6.156 0-1.632.324-3.096.972-4.392a7.557 7.557 0 0 1 2.772-3.078c1.2-.756 2.592-1.134 4.176-1.134 2.352 0 4.104.684 5.256 2.052 1.152 1.368 1.788 3.204 1.908 5.508-.144.6-.384 1.092-.72 1.476-3.696 0-6.984.072-9.864.216.168 1.656.654 2.988 1.458 3.996.804 1.008 2.01 1.512 3.618 1.512a6.32 6.32 0 0 0 2.412-.486 5.911 5.911 0 0 0 2.052-1.386zm-6.3-10.908c-.936 0-1.704.414-2.304 1.242-.6.828-.936 2.142-1.008 3.942h6.3c0-1.608-.264-2.874-.792-3.798-.528-.924-1.26-1.386-2.196-1.386zm25.308 15.156c-1.464 0-2.808-.318-4.032-.954-1.224-.636-2.202-1.596-2.934-2.88-.732-1.284-1.098-2.838-1.098-4.662 0-1.488.306-2.892.918-4.212a7.698 7.698 0 0 1 2.736-3.204c1.212-.816 2.646-1.224 4.302-1.224 2.352 0 4.26.516 5.724 1.548-.216 1.2-.324 2.628-.324 4.284-.48.264-1.224.396-2.232.396-.096-1.368-.444-2.424-1.044-3.168-.6-.744-1.368-1.116-2.304-1.116-1.08 0-1.932.552-2.556 1.656-.624 1.104-.936 2.604-.936 4.5 0 1.824.438 3.384 1.314 4.68.876 1.296 2.106 1.944 3.69 1.944.768 0 1.488-.15 2.16-.45a4.92 4.92 0 0 0 1.728-1.278c.48.336.78.792.9 1.368-1.32 1.848-3.324 2.772-6.012 2.772zm16.956 0c-2.664 0-4.758-.762-6.282-2.286s-2.286-3.594-2.286-6.21c0-1.704.372-3.21 1.116-4.518a7.815 7.815 0 0 1 3.078-3.042c1.308-.72 2.79-1.08 4.446-1.08 2.712 0 4.824.774 6.336 2.322 1.512 1.548 2.268 3.606 2.268 6.174 0 1.704-.36 3.204-1.08 4.5a7.726 7.726 0 0 1-3.042 3.042c-1.308.732-2.826 1.098-4.554 1.098zm.396-2.016c1.224 0 2.16-.546 2.808-1.638.648-1.092.972-2.538.972-4.338 0-1.464-.204-2.736-.612-3.816-.408-1.08-.954-1.908-1.638-2.484-.684-.576-1.434-.864-2.25-.864-1.2 0-2.118.528-2.754 1.584-.636 1.056-.954 2.448-.954 4.176 0 2.28.396 4.08 1.188 5.4.792 1.32 1.872 1.98 3.24 1.98zm29.628-1.116c.048.84-.048 1.5-.288 1.98-.768.048-1.584.174-2.448.378-.864.204-1.632.462-2.304.774-.36-.144-.624-.354-.792-.63-.168-.276-.252-.762-.252-1.458 0-.456.048-.972.144-1.548-.264.624-.66 1.2-1.188 1.728-.6.6-1.278 1.044-2.034 1.332-.756.288-1.638.432-2.646.432-1.776 0-3.102-.498-3.978-1.494-.876-.996-1.314-2.67-1.314-5.022v-4.824c0-.696-.048-1.224-.144-1.584a1.314 1.314 0 0 0-.648-.828c-.336-.192-.852-.3-1.548-.324 0-.744.096-1.308.288-1.692a14.12 14.12 0 0 0 2.97-.396c.996-.24 1.794-.516 2.394-.828.6.24.9.84.9 1.8v7.848c0 1.632.198 2.826.594 3.582.396.756 1.062 1.134 1.998 1.134 1.152 0 2.088-.51 2.808-1.53.72-1.02 1.08-2.49 1.08-4.41v-2.952c0-.672-.066-1.194-.198-1.566a1.491 1.491 0 0 0-.756-.846c-.372-.192-.942-.3-1.71-.324 0-.408.018-.738.054-.99.036-.252.114-.486.234-.702a18.912 18.912 0 0 0 3.276-.342c1.032-.204 1.836-.438 2.412-.702.6.24.9.84.9 1.8v9.504c0 1.056.138 1.764.414 2.124.276.36.87.552 1.782.576zm2.34 2.916c0-.84.072-1.476.216-1.908.96-.024 1.608-.252 1.944-.684.336-.432.504-1.248.504-2.448v-15.516c0-.864-.18-1.482-.54-1.854-.36-.372-1.08-.57-2.16-.594 0-.744.12-1.308.36-1.692.888 0 1.938-.126 3.15-.378s2.046-.534 2.502-.846c.6.24.9.804.9 1.692v19.188c0 1.176.162 1.986.486 2.43.324.444.894.678 1.71.702.144.456.216 1.092.216 1.908l-.559-.03a82.595 82.595 0 0 0-3.613-.077h-1.226c-1.657.01-2.954.045-3.89.107zm30.384-2.916c.048.84-.048 1.5-.288 1.98-.768.048-1.584.174-2.448.378-.864.204-1.632.462-2.304.774-.36-.144-.618-.354-.774-.63-.156-.276-.234-.762-.234-1.458 0-.576.084-1.2.252-1.872a12.239 12.239 0 0 1-1.08 1.656c-.432.576-1.086 1.104-1.962 1.584-.876.48-1.842.72-2.898.72-2.16 0-3.852-.642-5.076-1.926-1.224-1.284-1.836-3.234-1.836-5.85 0-1.776.396-3.372 1.188-4.788a8.667 8.667 0 0 1 3.33-3.348c1.428-.816 3.066-1.224 4.914-1.224.792 0 1.728.144 2.808.432v-3.96c0-.624-.066-1.11-.198-1.458-.132-.348-.39-.612-.774-.792-.384-.18-.96-.282-1.728-.306 0-.744.12-1.308.36-1.692.888 0 1.938-.126 3.15-.378s2.046-.534 2.502-.846c.624.24.936.804.936 1.692v18.612c0 .72.048 1.266.144 1.638.096.372.3.642.612.81.312.168.78.252 1.404.252zm-10.476.504c1.128 0 2.088-.528 2.88-1.584.792-1.056 1.188-2.688 1.188-4.896v-4.86a4.57 4.57 0 0 0-1.314-.936c-.468-.216-1.002-.324-1.602-.324-1.248 0-2.364.51-3.348 1.53s-1.476 2.778-1.476 5.274c0 1.248.174 2.31.522 3.186.348.876.804 1.53 1.368 1.962.564.432 1.158.648 1.782.648zM415.204 238.2c.168.504.252 1.14.252 1.908l-.568-.033a67.175 67.175 0 0 0-2.832-.072l-1.197-.002c-.942.008-2.398.043-4.367.107 0-.864.084-1.5.252-1.908.792 0 1.368-.24 1.728-.72.36-.48.54-1.32.54-2.52v-4.644c0-1.512-.264-2.586-.792-3.222-.528-.636-1.284-.954-2.268-.954-.648 0-1.26.216-1.836.648-.576.432-1.044 1.086-1.404 1.962-.36.876-.54 1.962-.54 3.258v3.06c0 1.2.168 2.022.504 2.466.336.444.924.666 1.764.666.168.456.252 1.092.252 1.908l-1.904-.06a121.45 121.45 0 0 0-2.281-.046h-1.249c-1.726.008-3.047.044-3.962.106 0-.888.072-1.524.216-1.908.936 0 1.578-.222 1.926-.666.348-.444.522-1.266.522-2.466v-6.228c0-.672-.06-1.194-.18-1.566-.12-.372-.372-.654-.756-.846-.384-.192-.96-.3-1.728-.324 0-.744.12-1.308.36-1.692a15.392 15.392 0 0 0 3.132-.414c1.08-.252 1.908-.522 2.484-.81.6.24.9.84.9 1.8 0 .672-.096 1.38-.288 2.124.024-.072.108-.246.252-.522.108-.207.236-.41.385-.61l.155-.2c.48-.648 1.176-1.212 2.088-1.692.912-.48 1.92-.72 3.024-.72 1.584 0 2.892.474 3.924 1.422s1.548 2.43 1.548 4.446v5.832c0 1.2.15 2.022.45 2.466.3.444.798.666 1.494.666zm11.376 2.124c-2.664 0-4.758-.762-6.282-2.286s-2.286-3.594-2.286-6.21c0-1.704.372-3.21 1.116-4.518a7.815 7.815 0 0 1 3.078-3.042c1.308-.72 2.79-1.08 4.446-1.08 2.712 0 4.824.774 6.336 2.322 1.512 1.548 2.268 3.606 2.268 6.174 0 1.704-.36 3.204-1.08 4.5a7.726 7.726 0 0 1-3.042 3.042c-1.308.732-2.826 1.098-4.554 1.098zm.396-2.016c1.224 0 2.16-.546 2.808-1.638.648-1.092.972-2.538.972-4.338 0-1.464-.204-2.736-.612-3.816-.408-1.08-.954-1.908-1.638-2.484-.684-.576-1.434-.864-2.25-.864-1.2 0-2.118.528-2.754 1.584-.636 1.056-.954 2.448-.954 4.176 0 2.28.396 4.08 1.188 5.4.792 1.32 1.872 1.98 3.24 1.98zm17.424 2.016c-1.584 0-2.748-.408-3.492-1.224-.744-.816-1.116-2.136-1.116-3.96v-8.892c-.768-.264-1.644-.408-2.628-.432 0-.768.12-1.416.36-1.944h2.268V219.3a7.95 7.95 0 0 0 1.89-.63c.636-.3 1.17-.63 1.602-.99.288.12.48.306.576.558.096.252.144.75.144 1.494v4.14h4.572a5.9 5.9 0 0 1-.324 1.944c-1.584.024-3 .192-4.248.504v8.136c0 1.296.168 2.22.504 2.772.336.552.828.828 1.476.828.864 0 1.632-.252 2.304-.756.312.432.492.936.54 1.512-.432.432-1.068.792-1.908 1.08-.84.288-1.68.432-2.52.432zm32.472-3.132c.048.84-.048 1.5-.288 1.98-.768.048-1.584.174-2.448.378-.864.204-1.632.462-2.304.774-.36-.144-.618-.354-.774-.63-.156-.276-.234-.762-.234-1.458 0-.576.084-1.2.252-1.872a12.239 12.239 0 0 1-1.08 1.656c-.432.576-1.086 1.104-1.962 1.584-.876.48-1.842.72-2.898.72-2.16 0-3.852-.642-5.076-1.926-1.224-1.284-1.836-3.234-1.836-5.85 0-1.776.396-3.372 1.188-4.788a8.667 8.667 0 0 1 3.33-3.348c1.428-.816 3.066-1.224 4.914-1.224.792 0 1.728.144 2.808.432v-3.96c0-.624-.066-1.11-.198-1.458-.132-.348-.39-.612-.774-.792-.384-.18-.96-.282-1.728-.306 0-.744.12-1.308.36-1.692.888 0 1.938-.126 3.15-.378s2.046-.534 2.502-.846c.624.24.936.804.936 1.692v18.612c0 .72.048 1.266.144 1.638.096.372.3.642.612.81.312.168.78.252 1.404.252zm-10.476.504c1.128 0 2.088-.528 2.88-1.584.792-1.056 1.188-2.688 1.188-4.896v-4.86a4.57 4.57 0 0 0-1.314-.936c-.468-.216-1.002-.324-1.602-.324-1.248 0-2.364.51-3.348 1.53s-1.476 2.778-1.476 5.274c0 1.248.174 2.31.522 3.186.348.876.804 1.53 1.368 1.962.564.432 1.158.648 1.782.648zm17.352-17.928c-.744 0-1.356-.222-1.836-.666-.48-.444-.72-.99-.72-1.638 0-.744.252-1.344.756-1.8.504-.456 1.128-.684 1.872-.684.816 0 1.458.216 1.926.648.468.432.702 1.032.702 1.8 0 .648-.252 1.2-.756 1.656-.504.456-1.152.684-1.944.684zm-4.392 20.34c0-.84.072-1.476.216-1.908.96-.024 1.608-.252 1.944-.684.336-.432.504-1.248.504-2.448v-6.408c0-.624-.066-1.11-.198-1.458-.132-.348-.39-.612-.774-.792-.384-.18-.96-.282-1.728-.306 0-.744.12-1.308.36-1.692.888 0 1.938-.126 3.15-.378s2.046-.534 2.502-.846c.6.24.9.804.9 1.692v10.188c0 1.176.162 1.986.486 2.43.324.444.894.678 1.71.702.144.456.216 1.092.216 1.908l-.559-.03a82.595 82.595 0 0 0-3.613-.077h-1.226c-1.657.01-2.954.045-3.89.107zm24.084-11.952c-.576.36-1.332.54-2.268.54-.096-1.008-.48-1.872-1.152-2.592-.672-.72-1.536-1.08-2.592-1.08-.648 0-1.164.162-1.548.486-.384.324-.576.75-.576 1.278 0 .408.09.75.27 1.026.18.276.558.582 1.134.918.528.308 1.328.676 2.4 1.106l.3.118c1.344.528 2.388 1.038 3.132 1.53.744.492 1.278 1.026 1.602 1.602.324.576.486 1.284.486 2.124 0 1.56-.654 2.802-1.962 3.726-1.308.924-3.018 1.386-5.13 1.386-1.416 0-2.58-.102-3.492-.306a11.947 11.947 0 0 1-2.736-.99c.072-.648.108-1.464.108-2.448 0-.624-.024-1.296-.072-2.016.504-.336 1.296-.504 2.376-.504.168 1.392.594 2.448 1.278 3.168.684.72 1.578 1.08 2.682 1.08.84 0 1.506-.186 1.998-.558.492-.372.738-.858.738-1.458s-.24-1.104-.72-1.512c-.48-.408-1.464-.912-2.952-1.512-1.32-.504-2.346-.984-3.078-1.44-.732-.456-1.278-1.002-1.638-1.638-.36-.636-.54-1.446-.54-2.43 0-.984.306-1.818.918-2.502.612-.684 1.404-1.2 2.376-1.548a8.957 8.957 0 0 1 3.042-.522c1.152 0 2.166.096 3.042.288a9.618 9.618 0 0 1 2.466.9c-.024.312-.036.792-.036 1.44 0 .888.048 1.668.144 2.34zm13.5 12.168c-.792 0-1.728-.144-2.808-.432v3.024c0 1.032.114 1.83.342 2.394.228.564.582.96 1.062 1.188.48.228 1.152.366 2.016.414.144.408.216 1.044.216 1.908l-.506-.027a91.439 91.439 0 0 0-3.723-.08l-2.048.002c-1.903.01-3.315.045-4.235.105 0-.84.06-1.476.18-1.908.672-.048 1.182-.168 1.53-.36.348-.192.594-.522.738-.99.144-.468.216-1.146.216-2.034V228.84c0-.672-.06-1.194-.18-1.566-.12-.372-.372-.654-.756-.846-.384-.192-.96-.3-1.728-.324 0-.744.12-1.308.36-1.692a15.392 15.392 0 0 0 3.132-.414c1.08-.252 1.908-.522 2.484-.81.6.24.9.84.9 1.8 0 .336-.084.84-.252 1.512.216-.408.456-.744.72-1.008.432-.576 1.086-1.104 1.962-1.584.876-.48 1.842-.72 2.898-.72 2.16 0 3.852.63 5.076 1.89 1.224 1.26 1.836 3.15 1.836 5.67 0 1.848-.39 3.498-1.17 4.95a8.446 8.446 0 0 1-3.312 3.402c-1.428.816-3.078 1.224-4.95 1.224zm1.26-14.508c-1.128 0-2.088.528-2.88 1.584-.792 1.056-1.188 2.688-1.188 4.896v4.86c.408.408.846.72 1.314.936.468.216 1.002.324 1.602.324 1.248 0 2.364-.51 3.348-1.53s1.476-2.778 1.476-5.274c0-1.728-.33-3.126-.99-4.194-.66-1.068-1.554-1.602-2.682-1.602zm10.656 14.292c0-.84.072-1.476.216-1.908.96-.024 1.608-.252 1.944-.684.336-.432.504-1.248.504-2.448v-15.516c0-.864-.18-1.482-.54-1.854-.36-.372-1.08-.57-2.16-.594 0-.744.12-1.308.36-1.692.888 0 1.938-.126 3.15-.378s2.046-.534 2.502-.846c.6.24.9.804.9 1.692v19.188c0 1.176.162 1.986.486 2.43.324.444.894.678 1.71.702.144.456.216 1.092.216 1.908l-.559-.03a82.595 82.595 0 0 0-3.613-.077h-1.226c-1.657.01-2.954.045-3.89.107zm28.08-2.412c0 .528-.096 1.02-.288 1.476a13.89 13.89 0 0 0-2.376.378c-.84.204-1.596.462-2.268.774a1.32 1.32 0 0 1-.756-.684c-.168-.336-.252-.804-.252-1.404 0-.36.036-.756.108-1.188-.336.816-.804 1.464-1.404 1.944-.96.84-2.292 1.26-3.996 1.26-1.56 0-2.766-.342-3.618-1.026-.852-.684-1.278-1.65-1.278-2.898 0-2.04.936-3.486 2.808-4.338 1.872-.852 4.164-1.47 6.876-1.854l-.004-.595c-.013-.943-.06-1.645-.14-2.105-.096-.552-.3-1.02-.612-1.404-.552-.648-1.26-.972-2.124-.972-1.008 0-1.746.408-2.214 1.224-.468.816-.738 1.776-.81 2.88-1.128 0-1.944-.108-2.448-.324l.035-.464c.025-.363.037-.664.037-.904 0-1.032-.084-1.956-.252-2.772a16.656 16.656 0 0 1 3.276-1.098c1.2-.276 2.328-.414 3.384-.414 2.016 0 3.54.492 4.572 1.476.552.576.948 1.332 1.188 2.268.24.936.36 2.22.36 3.852v3.528c0 .768.054 1.344.162 1.728.108.384.312.66.612.828.3.168.762.276 1.386.324l.036.504zm-6.444-5.832c-1.704.24-3.012.606-3.924 1.098-.912.492-1.368 1.326-1.368 2.502 0 .744.18 1.308.54 1.692.36.384.816.576 1.368.576.528 0 1.056-.174 1.584-.522.528-.348.96-.876 1.296-1.584.336-.708.504-1.578.504-2.61v-1.152zm23.4-8.352l1-.005c1.144-.012 1.998-.046 2.564-.103 0 .84-.096 1.476-.288 1.908-.624.168-1.11.468-1.458.9-.348.432-.786 1.272-1.314 2.52l-5.642 13.435c-.746 1.747-1.415 3.089-2.008 4.025-.684 1.08-1.332 1.812-1.944 2.196-.612.384-1.338.576-2.178.576-.672 0-1.272-.108-1.8-.324-.528-.216-.948-.492-1.26-.828a4.544 4.544 0 0 1-.108-1.08c0-.696.084-1.32.252-1.872.984.216 1.92.324 2.808.324.792 0 1.47-.15 2.034-.45.564-.3 1.062-.798 1.494-1.494l.102-.182c.199-.369.585-1.136 1.158-2.302l-1.795-4.046a380.567 380.567 0 0 0-2.942-6.452l-.519-1.094c-.696-1.488-1.254-2.466-1.674-2.934a2.934 2.934 0 0 0-1.53-.918c-.168-.48-.252-1.104-.252-1.872l1.712.04c1.067.021 1.984.032 2.752.032l.909-.003c1.251-.008 2.665-.03 4.239-.069 0 .744-.096 1.368-.288 1.872-.744.12-1.278.288-1.602.504-.324.216-.486.528-.486.936 0 .456.24 1.188.72 2.196.936 1.824 1.896 4.068 2.88 6.732l.072-.144 2.484-6.264c.384-.936.576-1.692.576-2.268 0-.504-.156-.876-.468-1.116-.312-.24-.804-.432-1.476-.576-.192-.48-.288-1.104-.288-1.872l.346.02c.746.034 1.82.052 3.218.052zm19.08 16.812c-1.584 0-2.748-.408-3.492-1.224-.744-.816-1.116-2.136-1.116-3.96v-8.892c-.768-.264-1.644-.408-2.628-.432 0-.768.12-1.416.36-1.944h2.268V219.3a7.95 7.95 0 0 0 1.89-.63c.636-.3 1.17-.63 1.602-.99.288.12.48.306.576.558.096.252.144.75.144 1.494v4.14h4.572a5.9 5.9 0 0 1-.324 1.944c-1.584.024-3 .192-4.248.504v8.136c0 1.296.168 2.22.504 2.772.336.552.828.828 1.476.828.864 0 1.632-.252 2.304-.756.312.432.492.936.54 1.512-.432.432-1.068.792-1.908 1.08-.84.288-1.68.432-2.52.432zm26.352-2.124c.168.504.252 1.14.252 1.908l-.568-.033a67.175 67.175 0 0 0-2.832-.072l-1.197-.002c-.942.008-2.398.043-4.367.107 0-.864.084-1.5.252-1.908.792 0 1.368-.24 1.728-.72.36-.48.54-1.32.54-2.52v-4.644c0-1.512-.264-2.586-.792-3.222-.528-.636-1.284-.954-2.268-.954-.648 0-1.26.216-1.836.648-.576.432-1.044 1.086-1.404 1.962-.36.876-.54 1.962-.54 3.258v3.06c0 1.2.168 2.022.504 2.466.336.444.924.666 1.764.666.168.456.252 1.092.252 1.908l-1.908-.06c-.922-.026-1.69-.041-2.304-.046h-1.249c-1.708.008-3.02.044-3.935.106 0-.888.072-1.524.216-1.908.936 0 1.578-.222 1.926-.666.348-.444.522-1.266.522-2.466V219.66c0-.624-.066-1.11-.198-1.458-.132-.348-.39-.612-.774-.792-.384-.18-.96-.282-1.728-.306 0-.744.12-1.308.36-1.692.888 0 1.938-.126 3.15-.378s2.046-.534 2.502-.846c.6.24.9.804.9 1.692v9.108c0 .672-.096 1.38-.288 2.124.024-.072.108-.246.252-.522.108-.207.236-.41.385-.61l.155-.2c.48-.648 1.176-1.212 2.088-1.692.912-.48 1.92-.72 3.024-.72 1.584 0 2.886.474 3.906 1.422s1.53 2.43 1.53 4.446v5.832c0 1.176.15 1.992.45 2.448.3.456.81.684 1.53.684zm7.164-18.432c-.744 0-1.356-.222-1.836-.666-.48-.444-.72-.99-.72-1.638 0-.744.252-1.344.756-1.8.504-.456 1.128-.684 1.872-.684.816 0 1.458.216 1.926.648.468.432.702 1.032.702 1.8 0 .648-.252 1.2-.756 1.656-.504.456-1.152.684-1.944.684zm-4.392 20.34c0-.84.072-1.476.216-1.908.96-.024 1.608-.252 1.944-.684.336-.432.504-1.248.504-2.448v-6.408c0-.624-.066-1.11-.198-1.458-.132-.348-.39-.612-.774-.792-.384-.18-.96-.282-1.728-.306 0-.744.12-1.308.36-1.692.888 0 1.938-.126 3.15-.378s2.046-.534 2.502-.846c.6.24.9.804.9 1.692v10.188c0 1.176.162 1.986.486 2.43.324.444.894.678 1.71.702.144.456.216 1.092.216 1.908l-.559-.03a82.595 82.595 0 0 0-3.613-.077h-1.226c-1.657.01-2.954.045-3.89.107zm24.084-11.952c-.576.36-1.332.54-2.268.54-.096-1.008-.48-1.872-1.152-2.592-.672-.72-1.536-1.08-2.592-1.08-.648 0-1.164.162-1.548.486-.384.324-.576.75-.576 1.278 0 .408.09.75.27 1.026.18.276.558.582 1.134.918.528.308 1.328.676 2.4 1.106l.3.118c1.344.528 2.388 1.038 3.132 1.53.744.492 1.278 1.026 1.602 1.602.324.576.486 1.284.486 2.124 0 1.56-.654 2.802-1.962 3.726-1.308.924-3.018 1.386-5.13 1.386-1.416 0-2.58-.102-3.492-.306a11.947 11.947 0 0 1-2.736-.99c.072-.648.108-1.464.108-2.448 0-.624-.024-1.296-.072-2.016.504-.336 1.296-.504 2.376-.504.168 1.392.594 2.448 1.278 3.168.684.72 1.578 1.08 2.682 1.08.84 0 1.506-.186 1.998-.558.492-.372.738-.858.738-1.458s-.24-1.104-.72-1.512c-.48-.408-1.464-.912-2.952-1.512-1.32-.504-2.346-.984-3.078-1.44-.732-.456-1.278-1.002-1.638-1.638-.36-.636-.54-1.446-.54-2.43 0-.984.306-1.818.918-2.502.612-.684 1.404-1.2 2.376-1.548a8.957 8.957 0 0 1 3.042-.522c1.152 0 2.166.096 3.042.288a9.618 9.618 0 0 1 2.466.9c-.024.312-.036.792-.036 1.44 0 .888.048 1.668.144 2.34zm-241.2 62.168c-.792 0-1.728-.144-2.808-.432v3.024c0 1.032.114 1.83.342 2.394.228.564.582.96 1.062 1.188.48.228 1.152.366 2.016.414.144.408.216 1.044.216 1.908l-.506-.027a91.439 91.439 0 0 0-3.723-.08l-2.048.002c-1.903.01-3.315.045-4.235.105 0-.84.06-1.476.18-1.908.672-.048 1.182-.168 1.53-.36.348-.192.594-.522.738-.99.144-.468.216-1.146.216-2.034V278.84c0-.672-.06-1.194-.18-1.566-.12-.372-.372-.654-.756-.846-.384-.192-.96-.3-1.728-.324 0-.744.12-1.308.36-1.692a15.392 15.392 0 0 0 3.132-.414c1.08-.252 1.908-.522 2.484-.81.6.24.9.84.9 1.8 0 .336-.084.84-.252 1.512.216-.408.456-.744.72-1.008.432-.576 1.086-1.104 1.962-1.584.876-.48 1.842-.72 2.898-.72 2.16 0 3.852.63 5.076 1.89 1.224 1.26 1.836 3.15 1.836 5.67 0 1.848-.39 3.498-1.17 4.95a8.446 8.446 0 0 1-3.312 3.402c-1.428.816-3.078 1.224-4.95 1.224zm1.26-14.508c-1.128 0-2.088.528-2.88 1.584-.792 1.056-1.188 2.688-1.188 4.896v4.86c.408.408.846.72 1.314.936.468.216 1.002.324 1.602.324 1.248 0 2.364-.51 3.348-1.53s1.476-2.778 1.476-5.274c0-1.728-.33-3.126-.99-4.194-.66-1.068-1.554-1.602-2.682-1.602zm27.18 11.88c0 .528-.096 1.02-.288 1.476a13.89 13.89 0 0 0-2.376.378c-.84.204-1.596.462-2.268.774a1.32 1.32 0 0 1-.756-.684c-.168-.336-.252-.804-.252-1.404 0-.36.036-.756.108-1.188-.336.816-.804 1.464-1.404 1.944-.96.84-2.292 1.26-3.996 1.26-1.56 0-2.766-.342-3.618-1.026-.852-.684-1.278-1.65-1.278-2.898 0-2.04.936-3.486 2.808-4.338 1.872-.852 4.164-1.47 6.876-1.854l-.004-.595c-.013-.943-.06-1.645-.14-2.105-.096-.552-.3-1.02-.612-1.404-.552-.648-1.26-.972-2.124-.972-1.008 0-1.746.408-2.214 1.224-.468.816-.738 1.776-.81 2.88-1.128 0-1.944-.108-2.448-.324l.035-.464c.025-.363.037-.664.037-.904 0-1.032-.084-1.956-.252-2.772a16.656 16.656 0 0 1 3.276-1.098c1.2-.276 2.328-.414 3.384-.414 2.016 0 3.54.492 4.572 1.476.552.576.948 1.332 1.188 2.268.24.936.36 2.22.36 3.852v3.528c0 .768.054 1.344.162 1.728.108.384.312.66.612.828.3.168.762.276 1.386.324l.036.504zm-6.444-5.832c-1.704.24-3.012.606-3.924 1.098-.912.492-1.368 1.326-1.368 2.502 0 .744.18 1.308.54 1.692.36.384.816.576 1.368.576.528 0 1.056-.174 1.584-.522.528-.348.96-.876 1.296-1.584.336-.708.504-1.578.504-2.61v-1.152zm18.54 5.544c2.352.024 4.05.336 5.094.936 1.044.6 1.566 1.68 1.566 3.24 0 1.224-.414 2.406-1.242 3.546-.828 1.14-1.986 2.064-3.474 2.772-1.488.708-3.168 1.062-5.04 1.062-2.328 0-4.008-.396-5.04-1.188-1.032-.792-1.548-1.944-1.548-3.456 0-.84.228-1.584.684-2.232.456-.648 1.116-1.152 1.98-1.512-.576-.264-.996-.624-1.26-1.08-.264-.456-.396-1.044-.396-1.764 0-1.392.672-2.7 2.016-3.924-1.656-1.032-2.484-2.592-2.484-4.68 0-1.776.606-3.21 1.818-4.302 1.212-1.092 2.922-1.638 5.13-1.638.96 0 1.8.108 2.52.324h6.372c.192.6.288 1.44.288 2.52-1.032-.312-2.184-.528-3.456-.648.528.552.93 1.164 1.206 1.836.276.672.414 1.308.414 1.908 0 1.704-.624 3.102-1.872 4.194-1.248 1.092-3.024 1.638-5.328 1.638-.96 0-1.836-.108-2.628-.324-.504.504-.756.972-.756 1.404 0 .408.162.708.486.9.288.17.732.29 1.333.356l.233.022c.72.06 1.848.09 3.384.09zm-2.304-12.456c-.816 0-1.446.348-1.89 1.044-.444.696-.666 1.584-.666 2.664 0 1.416.288 2.508.864 3.276.576.768 1.38 1.152 2.412 1.152.768 0 1.374-.318 1.818-.954.444-.636.666-1.542.666-2.718 0-1.32-.288-2.394-.864-3.222-.576-.828-1.356-1.242-2.34-1.242zm.216 21.852c1.512 0 2.718-.33 3.618-.99.9-.66 1.35-1.482 1.35-2.466 0-.552-.138-.972-.414-1.26-.276-.288-.78-.498-1.512-.63s-1.806-.198-3.222-.198c-.96 0-1.884-.06-2.772-.18-.36.36-.612.726-.756 1.098a3.522 3.522 0 0 0-.216 1.278c0 1.152.3 1.998.9 2.538.6.54 1.608.81 3.024.81zm25.632-10.728c.216.12.414.324.594.612s.282.576.306.864c-.864.96-1.848 1.662-2.952 2.106-1.104.444-2.364.666-3.78.666-2.688 0-4.728-.792-6.12-2.376-1.392-1.584-2.088-3.636-2.088-6.156 0-1.632.324-3.096.972-4.392a7.557 7.557 0 0 1 2.772-3.078c1.2-.756 2.592-1.134 4.176-1.134 2.352 0 4.104.684 5.256 2.052 1.152 1.368 1.788 3.204 1.908 5.508-.144.6-.384 1.092-.72 1.476-3.696 0-6.984.072-9.864.216.168 1.656.654 2.988 1.458 3.996.804 1.008 2.01 1.512 3.618 1.512a6.32 6.32 0 0 0 2.412-.486 5.911 5.911 0 0 0 2.052-1.386zm-6.3-10.908c-.936 0-1.704.414-2.304 1.242-.6.828-.936 2.142-1.008 3.942h6.3c0-1.608-.264-2.874-.792-3.798-.528-.924-1.26-1.386-2.196-1.386zm13.464 15.156c-.912 0-1.62-.246-2.124-.738s-.756-1.146-.756-1.962c0-.84.282-1.524.846-2.052.564-.528 1.29-.792 2.178-.792.816 0 1.482.27 1.998.81s.774 1.146.774 1.818c0 .888-.27 1.596-.81 2.124s-1.242.792-2.106.792zM402.16 76.4c.056.192.084.404.084.636a19.285 19.285 0 0 0-1.26-.035l-.923.003c-.398.005-.698.016-.901.032 0-.272.032-.484.096-.636.2-.024.346-.064.438-.12a.276.276 0 0 0 .138-.252c0-.096-.036-.233-.108-.41l-.456-1.078-.793.003c-.887.007-1.639.026-2.255.057l-.24.624c-.104.264-.156.484-.156.66 0 .16.048.282.144.366.096.084.244.134.444.15.064.192.096.404.096.636a11.394 11.394 0 0 0-.791-.033l-.433-.003c-.232 0-.576.012-1.032.036 0-.248.032-.456.096-.624a.743.743 0 0 0 .486-.306c.116-.164.274-.486.474-.966l2.496-6.264c.168-.04.364-.06.588-.06l2.808 6.36.143.307c.089.186.165.334.229.443.096.164.186.28.27.348.084.068.19.11.318.126zm-3.156-2.472l-.78-1.824c-.216-.48-.4-.956-.552-1.428-.144.464-.308.94-.492 1.428l-.696 1.824h2.52zm6.132-1.428l.005-.01c.071-.132.15-.24.235-.326.144-.192.362-.368.654-.528.292-.16.614-.24.966-.24.72 0 1.284.21 1.692.63.408.42.612 1.05.612 1.89 0 .616-.13 1.166-.39 1.65s-.628.862-1.104 1.134c-.476.272-1.026.408-1.65.408a3.71 3.71 0 0 1-.936-.144v1.008c0 .344.038.61.114.798a.71.71 0 0 0 .354.396c.16.076.384.122.672.138.048.136.072.348.072.636l-.33-.016a34.043 34.043 0 0 0-1.097-.02l-1.026.004c-.455.005-.806.016-1.051.032 0-.28.02-.492.06-.636.224-.016.394-.056.51-.12a.535.535 0 0 0 .246-.33c.048-.156.072-.382.072-.678V73.28c0-.224-.02-.398-.06-.522a.471.471 0 0 0-.252-.282c-.128-.064-.32-.1-.576-.108 0-.248.04-.436.12-.564a5.13 5.13 0 0 0 1.044-.138c.36-.084.636-.174.828-.27.2.08.3.28.3.6 0 .112-.028.28-.084.504zm1.44-.228c-.376 0-.696.176-.96.528-.264.352-.396.896-.396 1.632v1.62c.136.136.282.24.438.312.156.072.334.108.534.108.416 0 .788-.17 1.116-.51.328-.34.492-.926.492-1.758 0-.576-.11-1.042-.33-1.398-.22-.356-.518-.534-.894-.534zm5.808.228l.005-.01c.071-.132.15-.24.235-.326.144-.192.362-.368.654-.528.292-.16.614-.24.966-.24.72 0 1.284.21 1.692.63.408.42.612 1.05.612 1.89 0 .616-.13 1.166-.39 1.65s-.628.862-1.104 1.134c-.476.272-1.026.408-1.65.408a3.71 3.71 0 0 1-.936-.144v1.008c0 .344.038.61.114.798a.71.71 0 0 0 .354.396c.16.076.384.122.672.138.048.136.072.348.072.636l-.33-.016a34.043 34.043 0 0 0-1.097-.02l-1.026.004c-.455.005-.806.016-1.051.032 0-.28.02-.492.06-.636.224-.016.394-.056.51-.12a.535.535 0 0 0 .246-.33c.048-.156.072-.382.072-.678V73.28c0-.224-.02-.398-.06-.522a.471.471 0 0 0-.252-.282c-.128-.064-.32-.1-.576-.108 0-.248.04-.436.12-.564a5.13 5.13 0 0 0 1.044-.138c.36-.084.636-.174.828-.27.2.08.3.28.3.6 0 .112-.028.28-.084.504zm1.44-.228c-.376 0-.696.176-.96.528-.264.352-.396.896-.396 1.632v1.62c.136.136.282.24.438.312.156.072.334.108.534.108.416 0 .788-.17 1.116-.51.328-.34.492-.926.492-1.758 0-.576-.11-1.042-.33-1.398-.22-.356-.518-.534-.894-.534zm3.552 4.764c0-.28.024-.492.072-.636.32-.008.536-.084.648-.228.112-.144.168-.416.168-.816v-5.172c0-.288-.06-.494-.18-.618s-.36-.19-.72-.198c0-.248.04-.436.12-.564.296 0 .646-.042 1.05-.126.404-.084.682-.178.834-.282.2.08.3.268.3.564v6.396c0 .392.054.662.162.81.108.148.298.226.57.234.048.152.072.364.072.636l-.36-.018c-.262-.01-.565-.015-.91-.017l-.746.001c-.45.005-.81.016-1.08.034zm5.364-6.78a.866.866 0 0 1-.612-.222.715.715 0 0 1-.24-.546.77.77 0 0 1 .252-.6.896.896 0 0 1 .624-.228c.272 0 .486.072.642.216.156.144.234.344.234.6 0 .216-.084.4-.252.552-.168.152-.384.228-.648.228zm-1.464 6.78c0-.28.024-.492.072-.636.32-.008.536-.084.648-.228.112-.144.168-.416.168-.816V73.22c0-.208-.022-.37-.066-.486a.476.476 0 0 0-.258-.264c-.128-.06-.32-.094-.576-.102 0-.248.04-.436.12-.564.296 0 .646-.042 1.05-.126.404-.084.682-.178.834-.282.2.08.3.268.3.564v3.396c0 .392.054.662.162.81.108.148.298.226.57.234.048.152.072.364.072.636l-.36-.018c-.262-.01-.565-.015-.91-.017l-.746.001c-.45.005-.81.016-1.08.034zm6.648.072a2.87 2.87 0 0 1-1.344-.318 2.377 2.377 0 0 1-.978-.96c-.244-.428-.366-.946-.366-1.554 0-.496.102-.964.306-1.404.204-.44.508-.796.912-1.068s.882-.408 1.434-.408c.784 0 1.42.172 1.908.516-.072.4-.108.876-.108 1.428-.16.088-.408.132-.744.132-.032-.456-.148-.808-.348-1.056a.943.943 0 0 0-.768-.372c-.36 0-.644.184-.852.552-.208.368-.312.868-.312 1.5 0 .608.146 1.128.438 1.56.292.432.702.648 1.23.648.256 0 .496-.05.72-.15.224-.1.416-.242.576-.426.16.112.26.264.3.456-.44.616-1.108.924-2.004.924zm8.244-.876c0 .176-.032.34-.096.492a4.63 4.63 0 0 0-.792.126c-.28.068-.532.154-.756.258a.44.44 0 0 1-.252-.228c-.056-.112-.084-.268-.084-.468 0-.12.012-.252.036-.396a1.58 1.58 0 0 1-.468.648c-.32.28-.764.42-1.332.42-.52 0-.922-.114-1.206-.342-.284-.228-.426-.55-.426-.966 0-.68.312-1.162.936-1.446.624-.284 1.388-.49 2.292-.618l-.004-.328a4.225 4.225 0 0 0-.044-.572.999.999 0 0 0-.204-.468.888.888 0 0 0-.708-.324c-.336 0-.582.136-.738.408a2.19 2.19 0 0 0-.27.96c-.376 0-.648-.036-.816-.108l.018-.258a4.605 4.605 0 0 0-.078-1.122 5.552 5.552 0 0 1 1.092-.366c.4-.092.776-.138 1.128-.138.672 0 1.18.164 1.524.492.184.192.316.444.396.756.08.312.12.74.12 1.284v1.176c0 .256.018.448.054.576.036.128.104.22.204.276.1.056.254.092.462.108l.012.168zm-2.148-1.944c-.568.08-1.004.202-1.308.366-.304.164-.456.442-.456.834 0 .248.06.436.18.564.12.128.272.192.456.192a.954.954 0 0 0 .528-.174c.176-.116.32-.292.432-.528.112-.236.168-.526.168-.87v-.384zm5.136 2.82c-.528 0-.916-.136-1.164-.408-.248-.272-.372-.712-.372-1.32v-2.964a2.91 2.91 0 0 0-.876-.144c0-.256.04-.472.12-.648h.756V70.1c.208-.04.418-.11.63-.21.212-.1.39-.21.534-.33.096.04.16.102.192.186s.048.25.048.498v1.38h1.524c0 .224-.036.44-.108.648-.528.008-1 .064-1.416.168v2.712c0 .432.056.74.168.924a.542.542 0 0 0 .492.276c.288 0 .544-.084.768-.252a.982.982 0 0 1 .18.504c-.144.144-.356.264-.636.36-.28.096-.56.144-.84.144zm3.66-6.852a.866.866 0 0 1-.612-.222.715.715 0 0 1-.24-.546.77.77 0 0 1 .252-.6.896.896 0 0 1 .624-.228c.272 0 .486.072.642.216.156.144.234.344.234.6 0 .216-.084.4-.252.552-.168.152-.384.228-.648.228zm-1.464 6.78c0-.28.024-.492.072-.636.32-.008.536-.084.648-.228.112-.144.168-.416.168-.816V73.22c0-.208-.022-.37-.066-.486a.476.476 0 0 0-.258-.264c-.128-.06-.32-.094-.576-.102 0-.248.04-.436.12-.564.296 0 .646-.042 1.05-.126.404-.084.682-.178.834-.282.2.08.3.268.3.564v3.396c0 .392.054.662.162.81.108.148.298.226.57.234.048.152.072.364.072.636l-.36-.018c-.262-.01-.565-.015-.91-.017l-.746.001c-.45.005-.81.016-1.08.034zm6.816.072c-.888 0-1.586-.254-2.094-.762-.508-.508-.762-1.198-.762-2.07 0-.568.124-1.07.372-1.506.248-.436.59-.774 1.026-1.014.436-.24.93-.36 1.482-.36.904 0 1.608.258 2.112.774s.756 1.202.756 2.058c0 .568-.12 1.068-.36 1.5-.24.432-.578.77-1.014 1.014-.436.244-.942.366-1.518.366zm.132-.672c.408 0 .72-.182.936-.546.216-.364.324-.846.324-1.446 0-.488-.068-.912-.204-1.272-.136-.36-.318-.636-.546-.828a1.14 1.14 0 0 0-.75-.288c-.4 0-.706.176-.918.528-.212.352-.318.816-.318 1.392 0 .76.132 1.36.396 1.8.264.44.624.66 1.08.66zm5.832-3.733l.047-.1.037-.073c.032-.061.07-.122.112-.181l.068-.089c.16-.216.392-.404.696-.564.304-.16.64-.24 1.008-.24.528 0 .964.158 1.308.474.344.316.516.81.516 1.482v1.944c0 .4.05.674.15.822.1.148.266.222.498.222.056.168.084.38.084.636-.3-.02-.678-.032-1.133-.035l-.66.003c-.3.005-.699.016-1.195.032 0-.288.028-.5.084-.636.264 0 .456-.08.576-.24.12-.16.18-.44.18-.84v-1.548c0-.504-.088-.862-.264-1.074-.176-.212-.428-.318-.756-.318-.216 0-.42.072-.612.216-.192.144-.348.362-.468.654-.12.292-.18.654-.18 1.086v1.02c0 .4.056.674.168.822.112.148.308.222.588.222.056.152.084.364.084.636l-.906-.027a32.945 32.945 0 0 0-.498-.008l-.632.001c-.467.005-.832.016-1.096.034 0-.296.024-.508.072-.636.312 0 .526-.074.642-.222.116-.148.174-.422.174-.822V73.28c0-.224-.02-.398-.06-.522a.471.471 0 0 0-.252-.282c-.128-.064-.32-.1-.576-.108 0-.248.04-.436.12-.564a5.13 5.13 0 0 0 1.044-.138c.36-.084.636-.174.828-.27.2.08.3.28.3.6 0 .224-.032.46-.096.707zm12.456 2.989a.57.57 0 0 1 .198.204c.06.096.094.192.102.288-.288.32-.616.554-.984.702a3.355 3.355 0 0 1-1.26.222c-.896 0-1.576-.264-2.04-.792-.464-.528-.696-1.212-.696-2.052 0-.544.108-1.032.324-1.464a2.52 2.52 0 0 1 .924-1.026c.4-.252.864-.378 1.392-.378.784 0 1.368.228 1.752.684.384.456.596 1.068.636 1.836-.048.2-.128.364-.24.492-1.232 0-2.328.024-3.288.072.056.552.218.996.486 1.332.268.336.67.504 1.206.504a2.107 2.107 0 0 0 1.488-.624zm-2.1-3.636c-.312 0-.568.138-.768.414-.2.276-.312.714-.336 1.314h2.1c0-.536-.088-.958-.264-1.266-.176-.308-.42-.462-.732-.462zm5.574.498l-.114.582.12-.336c.056-.152.108-.264.156-.336a2.38 2.38 0 0 1 .654-.708 1.404 1.404 0 0 1 1.674.024 9.107 9.107 0 0 0-.078.768 8.33 8.33 0 0 0-.018.816c-.088.04-.214.072-.378.096a3.2 3.2 0 0 1-.462.036c-.016-.336-.07-.568-.162-.696a.464.464 0 0 0-.402-.192c-.128 0-.266.074-.414.222a1.767 1.767 0 0 0-.372.588c-.1.244-.15.502-.15.774v.876c0 .344.038.61.114.798a.71.71 0 0 0 .354.396c.16.076.384.122.672.138.048.136.072.348.072.636l-.326-.016a33.82 33.82 0 0 0-1.098-.02l-1.024.004c-.453.005-.805.016-1.056.032 0-.296.02-.508.06-.636.224-.016.394-.056.51-.12a.535.535 0 0 0 .246-.33c.048-.156.072-.382.072-.678V73.28c0-.224-.02-.398-.06-.522a.471.471 0 0 0-.252-.282c-.128-.064-.32-.1-.576-.108 0-.248.04-.436.12-.564a5.13 5.13 0 0 0 1.044-.138c.36-.084.636-.174.828-.27.2.08.3.28.3.6 0 .176-.018.362-.054.558zm5.388 0l-.114.582.12-.336c.056-.152.108-.264.156-.336a2.38 2.38 0 0 1 .654-.708 1.404 1.404 0 0 1 1.674.024 9.107 9.107 0 0 0-.078.768 8.33 8.33 0 0 0-.018.816c-.088.04-.214.072-.378.096a3.2 3.2 0 0 1-.462.036c-.016-.336-.07-.568-.162-.696a.464.464 0 0 0-.402-.192c-.128 0-.266.074-.414.222a1.767 1.767 0 0 0-.372.588c-.1.244-.15.502-.15.774v.876c0 .344.038.61.114.798a.71.71 0 0 0 .354.396c.16.076.384.122.672.138.048.136.072.348.072.636l-.326-.016a33.82 33.82 0 0 0-1.098-.02l-1.024.004c-.453.005-.805.016-1.056.032 0-.296.02-.508.06-.636.224-.016.394-.056.51-.12a.535.535 0 0 0 .246-.33c.048-.156.072-.382.072-.678V73.28c0-.224-.02-.398-.06-.522a.471.471 0 0 0-.252-.282c-.128-.064-.32-.1-.576-.108 0-.248.04-.436.12-.564a5.13 5.13 0 0 0 1.044-.138c.36-.084.636-.174.828-.27.2.08.3.28.3.6 0 .176-.018.362-.054.558zm6.018 4.554c-.888 0-1.586-.254-2.094-.762-.508-.508-.762-1.198-.762-2.07 0-.568.124-1.07.372-1.506.248-.436.59-.774 1.026-1.014.436-.24.93-.36 1.482-.36.904 0 1.608.258 2.112.774s.756 1.202.756 2.058c0 .568-.12 1.068-.36 1.5-.24.432-.578.77-1.014 1.014-.436.244-.942.366-1.518.366zm.132-.672c.408 0 .72-.182.936-.546.216-.364.324-.846.324-1.446 0-.488-.068-.912-.204-1.272-.136-.36-.318-.636-.546-.828a1.14 1.14 0 0 0-.75-.288c-.4 0-.706.176-.918.528-.212.352-.318.816-.318 1.392 0 .76.132 1.36.396 1.8.264.44.624.66 1.08.66zm5.874-3.882l-.114.582.12-.336c.056-.152.108-.264.156-.336a2.38 2.38 0 0 1 .654-.708 1.404 1.404 0 0 1 1.674.024 9.107 9.107 0 0 0-.078.768 8.33 8.33 0 0 0-.018.816c-.088.04-.214.072-.378.096a3.2 3.2 0 0 1-.462.036c-.016-.336-.07-.568-.162-.696a.464.464 0 0 0-.402-.192c-.128 0-.266.074-.414.222a1.767 1.767 0 0 0-.372.588c-.1.244-.15.502-.15.774v.876c0 .344.038.61.114.798a.71.71 0 0 0 .354.396c.16.076.384.122.672.138.048.136.072.348.072.636l-.326-.016a33.82 33.82 0 0 0-1.098-.02l-1.024.004c-.453.005-.805.016-1.056.032 0-.296.02-.508.06-.636.224-.016.394-.056.51-.12a.535.535 0 0 0 .246-.33c.048-.156.072-.382.072-.678V73.28c0-.224-.02-.398-.06-.522a.471.471 0 0 0-.252-.282c-.128-.064-.32-.1-.576-.108 0-.248.04-.436.12-.564a5.13 5.13 0 0 0 1.044-.138c.36-.084.636-.174.828-.27.2.08.3.28.3.6 0 .176-.018.362-.054.558z"/>
            <g fill="#32454C" fill-rule="nonzero">
                <path d="M398.848 406.584c1.568.096 2.352.784 2.352 2.064 0 .712-.256 1.282-.768 1.71-.512.428-1.3.642-2.364.642l-1.886.008c-.64.006-1.172.015-1.594.028 0-.296.024-.508.072-.636.224-.016.394-.056.51-.12.116-.064.198-.182.246-.354.048-.172.072-.422.072-.75v-4.572c0-.296-.024-.52-.072-.672a.533.533 0 0 0-.246-.324c-.116-.064-.286-.104-.51-.12a2.535 2.535 0 0 1-.06-.636c.26.02.595.032 1.005.035l.819-.002c.164-.002.304-.005.42-.009l1.02-.012c.904 0 1.592.136 2.064.408.472.272.708.728.708 1.368 0 .512-.16.944-.48 1.296-.32.352-.756.568-1.308.648zm.24-1.584c0-.512-.158-.89-.474-1.134-.316-.244-.694-.366-1.134-.366-.16 0-.332.024-.516.072v2.892h.384c1.16 0 1.74-.488 1.74-1.464zm-1.092 5.376c.504 0 .888-.138 1.152-.414.264-.276.396-.662.396-1.158 0-1.144-.764-1.716-2.292-1.716h-.288v2.124c0 .336.032.586.096.75a.544.544 0 0 0 .312.33c.144.056.352.084.624.084zm9.672-.144c0 .176-.032.34-.096.492a4.63 4.63 0 0 0-.792.126c-.28.068-.532.154-.756.258a.44.44 0 0 1-.252-.228c-.056-.112-.084-.268-.084-.468 0-.12.012-.252.036-.396a1.58 1.58 0 0 1-.468.648c-.32.28-.764.42-1.332.42-.52 0-.922-.114-1.206-.342-.284-.228-.426-.55-.426-.966 0-.68.312-1.162.936-1.446.624-.284 1.388-.49 2.292-.618 0-.416-.016-.716-.048-.9a.999.999 0 0 0-.204-.468.888.888 0 0 0-.708-.324c-.336 0-.582.136-.738.408a2.19 2.19 0 0 0-.27.96c-.376 0-.648-.036-.816-.108l.018-.258a4.605 4.605 0 0 0-.078-1.122 5.552 5.552 0 0 1 1.092-.366c.4-.092.776-.138 1.128-.138.672 0 1.18.164 1.524.492.184.192.316.444.396.756.08.312.12.74.12 1.284v1.176c0 .256.018.448.054.576.036.128.104.22.204.276.1.056.254.092.462.108l.012.168zm-2.148-1.944c-.568.08-1.004.202-1.308.366-.304.164-.456.442-.456.834 0 .248.06.436.18.564.12.128.272.192.456.192a.954.954 0 0 0 .528-.174c.176-.116.32-.292.432-.528.112-.236.168-.526.168-.87v-.384zm5.664 2.82a2.87 2.87 0 0 1-1.344-.318 2.377 2.377 0 0 1-.978-.96c-.244-.428-.366-.946-.366-1.554 0-.496.102-.964.306-1.404.204-.44.508-.796.912-1.068s.882-.408 1.434-.408c.784 0 1.42.172 1.908.516-.072.4-.108.876-.108 1.428-.16.088-.408.132-.744.132-.032-.456-.148-.808-.348-1.056a.943.943 0 0 0-.768-.372c-.36 0-.644.184-.852.552-.208.368-.312.868-.312 1.5 0 .608.146 1.128.438 1.56.292.432.702.648 1.23.648.256 0 .496-.05.72-.15.224-.1.416-.242.576-.426.16.112.26.264.3.456-.44.616-1.108.924-2.004.924zm7.52-1.934l.412.506c.208.264.384.44.528.528.144.088.344.144.6.168 0 .264-.032.472-.096.624-.704 0-1.284.036-1.74.108a14.733 14.733 0 0 0-.948-1.296 26.033 26.033 0 0 0-1.248-1.452v.996c0 .392.048.662.144.81.096.148.268.226.516.234.048.152.072.364.072.636a22.18 22.18 0 0 0-1.193-.035l-.765.001c-.44.005-.796.016-1.066.034 0-.28.024-.492.072-.636.32-.008.536-.084.648-.228.112-.144.168-.416.168-.816v-5.136c0-.208-.022-.37-.066-.486a.476.476 0 0 0-.258-.264c-.128-.06-.32-.094-.576-.102 0-.248.04-.436.12-.564.296 0 .646-.042 1.05-.126.404-.084.682-.178.834-.282.2.08.3.268.3.564v4.956l.864-.792c.448-.392.672-.672.672-.84 0-.12-.112-.184-.336-.192a2.157 2.157 0 0 1-.096-.612l.597.018c.246.004.539.006.879.006l.642-.006c.188-.004.35-.01.486-.018 0 .224-.036.432-.108.624a2.009 2.009 0 0 0-.732.174c-.216.1-.468.282-.756.546l-.948.864c.358.352.801.847 1.329 1.486zm6.772 1.934c-.528 0-.916-.136-1.164-.408-.248-.272-.372-.712-.372-1.32v-2.964a2.91 2.91 0 0 0-.876-.144c0-.256.04-.472.12-.648h.756V404.1c.208-.04.418-.11.63-.21.212-.1.39-.21.534-.33.096.04.16.102.192.186s.048.25.048.498v1.38h1.524c0 .224-.036.44-.108.648-.528.008-1 .064-1.416.168v2.712c0 .432.056.74.168.924a.542.542 0 0 0 .492.276c.288 0 .544-.084.768-.252a.982.982 0 0 1 .18.504c-.144.144-.356.264-.636.36-.28.096-.56.144-.84.144zm5.064 0c-.888 0-1.586-.254-2.094-.762-.508-.508-.762-1.198-.762-2.07 0-.568.124-1.07.372-1.506.248-.436.59-.774 1.026-1.014.436-.24.93-.36 1.482-.36.904 0 1.608.258 2.112.774s.756 1.202.756 2.058c0 .568-.12 1.068-.36 1.5-.24.432-.578.77-1.014 1.014-.436.244-.942.366-1.518.366zm.132-.672c.408 0 .72-.182.936-.546.216-.364.324-.846.324-1.446 0-.488-.068-.912-.204-1.272-.136-.36-.318-.636-.546-.828a1.14 1.14 0 0 0-.75-.288c-.4 0-.706.176-.918.528-.212.352-.318.816-.318 1.392 0 .76.132 1.36.396 1.8.264.44.624.66 1.08.66zm8.208.672c-.528 0-.916-.136-1.164-.408-.248-.272-.372-.712-.372-1.32v-2.964a2.91 2.91 0 0 0-.876-.144c0-.256.04-.472.12-.648h.756V404.1c.208-.04.418-.11.63-.21.212-.1.39-.21.534-.33.096.04.16.102.192.186s.048.25.048.498v1.38h1.524c0 .224-.036.44-.108.648-.528.008-1 .064-1.416.168v2.712c0 .432.056.74.168.924a.542.542 0 0 0 .492.276c.288 0 .544-.084.768-.252a.982.982 0 0 1 .18.504c-.144.144-.356.264-.636.36-.28.096-.56.144-.84.144zm4.344-4.405l.047-.1.037-.073c.032-.061.07-.122.112-.181l.068-.089c.16-.216.392-.404.696-.564.304-.16.64-.24 1.008-.24.528 0 .962.158 1.302.474.34.316.51.81.51 1.482v1.944c0 .392.05.664.15.816.1.152.27.228.51.228.056.168.084.38.084.636-.3-.02-.678-.032-1.133-.035l-.66.003c-.3.005-.699.016-1.195.032 0-.288.028-.5.084-.636.264 0 .456-.08.576-.24.12-.16.18-.44.18-.84v-1.548c0-.504-.088-.862-.264-1.074-.176-.212-.428-.318-.756-.318-.216 0-.42.072-.612.216-.192.144-.348.362-.468.654-.12.292-.18.654-.18 1.086v1.02c0 .4.056.674.168.822.112.148.308.222.588.222.056.152.084.364.084.636l-.909-.027a33.387 33.387 0 0 0-.505-.008l-.629.001c-.462.005-.825.016-1.089.034 0-.296.024-.508.072-.636.312 0 .526-.074.642-.222.116-.148.174-.422.174-.822v-5.136c0-.208-.022-.37-.066-.486a.476.476 0 0 0-.258-.264c-.128-.06-.32-.094-.576-.102 0-.248.04-.436.12-.564.296 0 .646-.042 1.05-.126.404-.084.682-.178.834-.282.2.08.3.268.3.564v3.036c0 .224-.032.46-.096.707zm10.056 2.989a.57.57 0 0 1 .198.204c.06.096.094.192.102.288-.288.32-.616.554-.984.702a3.355 3.355 0 0 1-1.26.222c-.896 0-1.576-.264-2.04-.792-.464-.528-.696-1.212-.696-2.052 0-.544.108-1.032.324-1.464a2.52 2.52 0 0 1 .924-1.026c.4-.252.864-.378 1.392-.378.784 0 1.368.228 1.752.684.384.456.596 1.068.636 1.836-.048.2-.128.364-.24.492-1.232 0-2.328.024-3.288.072.056.552.218.996.486 1.332.268.336.67.504 1.206.504a2.107 2.107 0 0 0 1.488-.624zm-2.1-3.636c-.312 0-.568.138-.768.414-.2.276-.312.714-.336 1.314h2.1c0-.536-.088-.958-.264-1.266-.176-.308-.42-.462-.732-.462zm7.884.647l.047-.1c.01-.022.023-.046.037-.073.032-.061.07-.122.112-.181l.068-.089c.16-.216.392-.404.696-.564.304-.16.64-.24 1.008-.24.528 0 .962.158 1.302.474.34.316.51.81.51 1.482v1.944c0 .392.05.664.15.816.1.152.27.228.51.228.056.168.084.38.084.636-.3-.02-.678-.032-1.133-.035l-.66.003c-.3.005-.699.016-1.195.032 0-.288.028-.5.084-.636.264 0 .456-.08.576-.24.12-.16.18-.44.18-.84v-1.548c0-.504-.088-.862-.264-1.074-.176-.212-.428-.318-.756-.318-.216 0-.42.072-.612.216-.192.144-.348.362-.468.654-.12.292-.18.654-.18 1.086v1.02c0 .4.056.674.168.822.112.148.308.222.588.222.056.152.084.364.084.636l-.909-.027a33.387 33.387 0 0 0-.505-.008l-.629.001c-.462.005-.825.016-1.089.034 0-.296.024-.508.072-.636.312 0 .526-.074.642-.222.116-.148.174-.422.174-.822v-5.136c0-.208-.022-.37-.066-.486a.476.476 0 0 0-.258-.264c-.128-.06-.32-.094-.576-.102 0-.248.04-.436.12-.564.296 0 .646-.042 1.05-.126.404-.084.682-.178.834-.282.2.08.3.268.3.564v3.036c0 .224-.032.46-.096.707zm8.232 4.405c-.888 0-1.586-.254-2.094-.762-.508-.508-.762-1.198-.762-2.07 0-.568.124-1.07.372-1.506.248-.436.59-.774 1.026-1.014.436-.24.93-.36 1.482-.36.904 0 1.608.258 2.112.774s.756 1.202.756 2.058c0 .568-.12 1.068-.36 1.5-.24.432-.578.77-1.014 1.014-.436.244-.942.366-1.518.366zm.132-.672c.408 0 .72-.182.936-.546.216-.364.324-.846.324-1.446 0-.488-.068-.912-.204-1.272-.136-.36-.318-.636-.546-.828a1.14 1.14 0 0 0-.75-.288c-.4 0-.706.176-.918.528-.212.352-.318.816-.318 1.392 0 .76.132 1.36.396 1.8.264.44.624.66 1.08.66zm13.86-.036c.048.144.072.356.072.636-.307-.02-.683-.032-1.128-.035l-.796.002c-.41.005-.76.016-1.052.033 0-.28.024-.492.072-.636.2-.008.354-.046.462-.114a.557.557 0 0 0 .228-.342c.044-.16.066-.396.066-.708v-1.476c0-.504-.084-.86-.252-1.068-.168-.208-.408-.312-.72-.312-.352 0-.648.166-.888.498-.24.332-.36.818-.36 1.458v1.008c0 .4.054.672.162.816.108.144.31.224.606.24.048.136.072.348.072.636l-.365-.018c-.264-.01-.566-.015-.907-.017l-.264-.001c-.6 0-1.116.012-1.548.036 0-.288.024-.5.072-.636.208-.016.366-.056.474-.12.108-.064.184-.178.228-.342.044-.164.066-.41.066-.738v-1.512c0-.496-.084-.846-.252-1.05-.168-.204-.416-.306-.744-.306a.961.961 0 0 0-.606.222c-.188.148-.34.37-.456.666-.116.296-.174.656-.174 1.08v1.044c0 .28.022.492.066.636.044.144.12.246.228.306.108.06.266.098.474.114.048.144.072.356.072.636l-.37-.018c-.268-.01-.58-.015-.938-.017l-.804.002a20.36 20.36 0 0 0-1.02.033c0-.28.024-.488.072-.624.32-.024.536-.106.648-.246.112-.14.168-.41.168-.81v-2.028c0-.248-.02-.434-.06-.558a.471.471 0 0 0-.252-.282c-.128-.064-.324-.104-.588-.12 0-.208.044-.396.132-.564.288-.016.62-.064.996-.144.376-.08.652-.168.828-.264.208.072.312.26.312.564 0 .16-.028.42-.084.78.112-.272.204-.448.276-.528.168-.216.402-.404.702-.564.3-.16.63-.24.99-.24.368 0 .692.08.972.24.233.133.417.325.55.575l.074.157c.048.088.08.208.096.36.08-.216.176-.38.288-.492.168-.216.394-.4.678-.552a1.99 1.99 0 0 1 .954-.228c.56 0 1 .158 1.32.474.32.316.48.822.48 1.518v1.74c0 .328.022.576.066.744.044.168.112.282.204.342.092.06.226.098.402.114zm5.616-.708a.57.57 0 0 1 .198.204c.06.096.094.192.102.288-.288.32-.616.554-.984.702a3.355 3.355 0 0 1-1.26.222c-.896 0-1.576-.264-2.04-.792-.464-.528-.696-1.212-.696-2.052 0-.544.108-1.032.324-1.464a2.52 2.52 0 0 1 .924-1.026c.4-.252.864-.378 1.392-.378.784 0 1.368.228 1.752.684.384.456.596 1.068.636 1.836-.048.2-.128.364-.24.492-1.232 0-2.328.024-3.288.072.056.552.218.996.486 1.332.268.336.67.504 1.206.504a2.107 2.107 0 0 0 1.488-.624zm-2.1-3.636c-.312 0-.568.138-.768.414-.2.276-.312.714-.336 1.314h2.1c0-.536-.088-.958-.264-1.266-.176-.308-.42-.462-.732-.462zm5.544.444l.005-.01c.071-.132.15-.24.235-.326.144-.192.362-.368.654-.528.292-.16.614-.24.966-.24.72 0 1.284.21 1.692.63.408.42.612 1.05.612 1.89 0 .616-.13 1.166-.39 1.65s-.628.862-1.104 1.134c-.476.272-1.026.408-1.65.408a3.71 3.71 0 0 1-.936-.144v1.008c0 .344.038.61.114.798a.71.71 0 0 0 .354.396c.16.076.384.122.672.138.048.136.072.348.072.636l-.33-.016a34.043 34.043 0 0 0-1.097-.02l-1.026.004c-.455.005-.806.016-1.051.032 0-.28.02-.492.06-.636.224-.016.394-.056.51-.12a.535.535 0 0 0 .246-.33c.048-.156.072-.382.072-.678v-4.896c0-.224-.02-.398-.06-.522a.471.471 0 0 0-.252-.282c-.128-.064-.32-.1-.576-.108 0-.248.04-.436.12-.564a5.13 5.13 0 0 0 1.044-.138c.36-.084.636-.174.828-.27.2.08.3.28.3.6 0 .112-.028.28-.084.504zm1.44-.228c-.376 0-.696.176-.96.528-.264.352-.396.896-.396 1.632v1.62c.136.136.282.24.438.312.156.072.334.108.534.108.416 0 .788-.17 1.116-.51.328-.34.492-.926.492-1.758 0-.576-.11-1.042-.33-1.398-.22-.356-.518-.534-.894-.534zm9.06 3.96c0 .176-.032.34-.096.492a4.63 4.63 0 0 0-.792.126c-.28.068-.532.154-.756.258a.44.44 0 0 1-.252-.228c-.056-.112-.084-.268-.084-.468 0-.12.012-.252.036-.396a1.58 1.58 0 0 1-.468.648c-.32.28-.764.42-1.332.42-.52 0-.922-.114-1.206-.342-.284-.228-.426-.55-.426-.966 0-.68.312-1.162.936-1.446.624-.284 1.388-.49 2.292-.618l-.004-.328a4.225 4.225 0 0 0-.044-.572.999.999 0 0 0-.204-.468.888.888 0 0 0-.708-.324c-.336 0-.582.136-.738.408a2.19 2.19 0 0 0-.27.96c-.376 0-.648-.036-.816-.108l.018-.258a4.605 4.605 0 0 0-.078-1.122 5.552 5.552 0 0 1 1.092-.366c.4-.092.776-.138 1.128-.138.672 0 1.18.164 1.524.492.184.192.316.444.396.756.08.312.12.74.12 1.284v1.176c0 .256.018.448.054.576.036.128.104.22.204.276.1.056.254.092.462.108l.012.168zm-2.148-1.944c-.568.08-1.004.202-1.308.366-.304.164-.456.442-.456.834 0 .248.06.436.18.564.12.128.272.192.456.192a.954.954 0 0 0 .528-.174c.176-.116.32-.292.432-.528.112-.236.168-.526.168-.87v-.384zm6.18 1.848c.784.008 1.35.112 1.698.312.348.2.522.56.522 1.08 0 .408-.138.802-.414 1.182-.276.38-.662.688-1.158.924-.496.236-1.056.354-1.68.354-.776 0-1.336-.132-1.68-.396-.344-.264-.516-.648-.516-1.152 0-.28.076-.528.228-.744.152-.216.372-.384.66-.504a.897.897 0 0 1-.42-.36c-.088-.152-.132-.348-.132-.588 0-.464.224-.9.672-1.308-.552-.344-.828-.864-.828-1.56 0-.592.202-1.07.606-1.434.404-.364.974-.546 1.71-.546.32 0 .6.036.84.108h2.124c.064.2.096.48.096.84a5.901 5.901 0 0 0-1.152-.216c.176.184.31.388.402.612.092.224.138.436.138.636 0 .568-.208 1.034-.624 1.398-.416.364-1.008.546-1.776.546-.32 0-.612-.036-.876-.108-.168.168-.252.324-.252.468 0 .136.054.236.162.3.108.064.282.106.522.126l.239.015c.227.01.523.015.889.015zm-.768-4.152a.706.706 0 0 0-.63.348c-.148.232-.222.528-.222.888 0 .472.096.836.288 1.092.192.256.46.384.804.384a.7.7 0 0 0 .606-.318c.148-.212.222-.514.222-.906 0-.44-.096-.798-.288-1.074a.903.903 0 0 0-.78-.414zm.072 7.284c.504 0 .906-.11 1.206-.33.3-.22.45-.494.45-.822 0-.184-.046-.324-.138-.42-.092-.096-.26-.166-.504-.21-.244-.044-.602-.066-1.074-.066-.32 0-.628-.02-.924-.06-.12.12-.204.242-.252.366a1.174 1.174 0 0 0-.072.426c0 .384.1.666.3.846.2.18.536.27 1.008.27zm8.544-3.576a.57.57 0 0 1 .198.204c.06.096.094.192.102.288-.288.32-.616.554-.984.702a3.355 3.355 0 0 1-1.26.222c-.896 0-1.576-.264-2.04-.792-.464-.528-.696-1.212-.696-2.052 0-.544.108-1.032.324-1.464a2.52 2.52 0 0 1 .924-1.026c.4-.252.864-.378 1.392-.378.784 0 1.368.228 1.752.684.384.456.596 1.068.636 1.836-.048.2-.128.364-.24.492-1.232 0-2.328.024-3.288.072.056.552.218.996.486 1.332.268.336.67.504 1.206.504a2.107 2.107 0 0 0 1.488-.624zm-2.1-3.636c.312 0 .556.154.732.462.176.308.264.73.264 1.266h-2.1c.024-.6.136-1.038.336-1.314s.456-.414.768-.414zM394 414.264h119.108v.576H394z"/>
            </g>
            <g fill-rule="nonzero">
                <path fill="#32454C" d="M555.66 76.064c.016.28-.016.5-.096.66a4.889 4.889 0 0 0-.816.126 4.016 4.016 0 0 0-.768.258.492.492 0 0 1-.258-.21c-.052-.092-.078-.254-.078-.486 0-.192.028-.4.084-.624a4.08 4.08 0 0 1-.36.552c-.144.192-.362.368-.654.528-.292.16-.614.24-.966.24-.72 0-1.284-.214-1.692-.642-.408-.428-.612-1.078-.612-1.95 0-.592.132-1.124.396-1.596a2.89 2.89 0 0 1 1.11-1.116c.476-.272 1.022-.408 1.638-.408.264 0 .576.048.936.144v-1.32c0-.208-.022-.37-.066-.486a.476.476 0 0 0-.258-.264c-.128-.06-.32-.094-.576-.102 0-.248.04-.436.12-.564.296 0 .646-.042 1.05-.126.404-.084.682-.178.834-.282.208.08.312.268.312.564v6.204c0 .24.016.422.048.546.032.124.1.214.204.27.104.056.26.084.468.084zm-3.492.168c.376 0 .696-.176.96-.528.264-.352.396-.896.396-1.632v-1.62a1.523 1.523 0 0 0-.438-.312 1.26 1.26 0 0 0-.534-.108c-.416 0-.788.17-1.116.51-.328.34-.492.926-.492 1.758 0 .416.058.77.174 1.062.116.292.268.51.456.654a.962.962 0 0 0 .594.216zm7.188.876c-.888 0-1.586-.254-2.094-.762-.508-.508-.762-1.198-.762-2.07 0-.568.124-1.07.372-1.506.248-.436.59-.774 1.026-1.014.436-.24.93-.36 1.482-.36.904 0 1.608.258 2.112.774s.756 1.202.756 2.058c0 .568-.12 1.068-.36 1.5-.24.432-.578.77-1.014 1.014-.436.244-.942.366-1.518.366zm.132-.672c.408 0 .72-.182.936-.546.216-.364.324-.846.324-1.446 0-.488-.068-.912-.204-1.272-.136-.36-.318-.636-.546-.828a1.14 1.14 0 0 0-.75-.288c-.4 0-.706.176-.918.528-.212.352-.318.816-.318 1.392 0 .76.132 1.36.396 1.8.264.44.624.66 1.08.66zm6.852-.3c.784.008 1.35.112 1.698.312.348.2.522.56.522 1.08 0 .408-.138.802-.414 1.182-.276.38-.662.688-1.158.924-.496.236-1.056.354-1.68.354-.776 0-1.336-.132-1.68-.396-.344-.264-.516-.648-.516-1.152 0-.28.076-.528.228-.744.152-.216.372-.384.66-.504a.897.897 0 0 1-.42-.36c-.088-.152-.132-.348-.132-.588 0-.464.224-.9.672-1.308-.552-.344-.828-.864-.828-1.56 0-.592.202-1.07.606-1.434.404-.364.974-.546 1.71-.546.32 0 .6.036.84.108h2.124c.064.2.096.48.096.84a5.901 5.901 0 0 0-1.152-.216c.176.184.31.388.402.612.092.224.138.436.138.636 0 .568-.208 1.034-.624 1.398-.416.364-1.008.546-1.776.546-.32 0-.612-.036-.876-.108-.168.168-.252.324-.252.468 0 .136.054.236.162.3.108.064.282.106.522.126l.239.015c.227.01.523.015.889.015zm-.768-4.152a.706.706 0 0 0-.63.348c-.148.232-.222.528-.222.888 0 .472.096.836.288 1.092.192.256.46.384.804.384a.7.7 0 0 0 .606-.318c.148-.212.222-.514.222-.906 0-.44-.096-.798-.288-1.074a.903.903 0 0 0-.78-.414zm.072 7.284c.504 0 .906-.11 1.206-.33.3-.22.45-.494.45-.822 0-.184-.046-.324-.138-.42-.092-.096-.26-.166-.504-.21-.244-.044-.602-.066-1.074-.066-.32 0-.628-.02-.924-.06-.12.12-.204.242-.252.366a1.174 1.174 0 0 0-.072.426c0 .384.1.666.3.846.2.18.536.27 1.008.27zm7.068-3.132c.784.008 1.35.112 1.698.312.348.2.522.56.522 1.08 0 .408-.138.802-.414 1.182-.276.38-.662.688-1.158.924-.496.236-1.056.354-1.68.354-.776 0-1.336-.132-1.68-.396-.344-.264-.516-.648-.516-1.152 0-.28.076-.528.228-.744.152-.216.372-.384.66-.504a.897.897 0 0 1-.42-.36c-.088-.152-.132-.348-.132-.588 0-.464.224-.9.672-1.308-.552-.344-.828-.864-.828-1.56 0-.592.202-1.07.606-1.434.404-.364.974-.546 1.71-.546.32 0 .6.036.84.108h2.124c.064.2.096.48.096.84a5.901 5.901 0 0 0-1.152-.216c.176.184.31.388.402.612.092.224.138.436.138.636 0 .568-.208 1.034-.624 1.398-.416.364-1.008.546-1.776.546-.32 0-.612-.036-.876-.108-.168.168-.252.324-.252.468 0 .136.054.236.162.3.108.064.282.106.522.126l.239.015c.227.01.523.015.889.015zm-.768-4.152a.706.706 0 0 0-.63.348c-.148.232-.222.528-.222.888 0 .472.096.836.288 1.092.192.256.46.384.804.384a.7.7 0 0 0 .606-.318c.148-.212.222-.514.222-.906 0-.44-.096-.798-.288-1.074a.903.903 0 0 0-.78-.414zm.072 7.284c.504 0 .906-.11 1.206-.33.3-.22.45-.494.45-.822 0-.184-.046-.324-.138-.42-.092-.096-.26-.166-.504-.21-.244-.044-.602-.066-1.074-.066-.32 0-.628-.02-.924-.06-.12.12-.204.242-.252.366a1.174 1.174 0 0 0-.072.426c0 .384.1.666.3.846.2.18.536.27 1.008.27zm6.72-2.16c-.888 0-1.586-.254-2.094-.762-.508-.508-.762-1.198-.762-2.07 0-.568.124-1.07.372-1.506.248-.436.59-.774 1.026-1.014.436-.24.93-.36 1.482-.36.904 0 1.608.258 2.112.774s.756 1.202.756 2.058c0 .568-.12 1.068-.36 1.5-.24.432-.578.77-1.014 1.014-.436.244-.942.366-1.518.366zm.132-.672c.408 0 .72-.182.936-.546.216-.364.324-.846.324-1.446 0-.488-.068-.912-.204-1.272-.136-.36-.318-.636-.546-.828a1.14 1.14 0 0 0-.75-.288c-.4 0-.706.176-.918.528-.212.352-.318.816-.318 1.392 0 .76.132 1.36.396 1.8.264.44.624.66 1.08.66zm7.356-5.04c.72 0 1.284.214 1.692.642.408.428.612 1.078.612 1.95 0 .592-.13 1.124-.39 1.596s-.628.844-1.104 1.116c-.476.272-1.022.408-1.638.408-.56 0-1.074-.078-1.542-.234-.468-.156-.83-.358-1.086-.606.096-.112.166-.276.21-.492.044-.216.066-.524.066-.924V70.22c0-.208-.022-.37-.066-.486a.476.476 0 0 0-.258-.264c-.128-.06-.32-.094-.576-.102 0-.248.04-.436.12-.564.296 0 .646-.042 1.05-.126.404-.084.682-.178.834-.282.2.08.3.268.3.564v2.832c0 .192-.016.408-.048.648.072-.12.14-.212.204-.276.144-.192.362-.368.654-.528.292-.16.614-.24.966-.24zm-.804 5.076c.416 0 .788-.17 1.116-.51.328-.34.492-.926.492-1.758 0-.416-.058-.77-.174-1.062-.116-.292-.268-.51-.456-.654a.962.962 0 0 0-.594-.216c-.376 0-.696.176-.96.528-.264.352-.396.896-.396 1.632v1.62c.136.136.282.24.438.312.156.072.334.108.534.108zm6.852.636c-.888 0-1.586-.254-2.094-.762-.508-.508-.762-1.198-.762-2.07 0-.568.124-1.07.372-1.506.248-.436.59-.774 1.026-1.014.436-.24.93-.36 1.482-.36.904 0 1.608.258 2.112.774s.756 1.202.756 2.058c0 .568-.12 1.068-.36 1.5-.24.432-.578.77-1.014 1.014-.436.244-.942.366-1.518.366zm.132-.672c.408 0 .72-.182.936-.546.216-.364.324-.846.324-1.446 0-.488-.068-.912-.204-1.272-.136-.36-.318-.636-.546-.828a1.14 1.14 0 0 0-.75-.288c-.4 0-.706.176-.918.528-.212.352-.318.816-.318 1.392 0 .76.132 1.36.396 1.8.264.44.624.66 1.08.66zm6.504.672c-.888 0-1.586-.254-2.094-.762-.508-.508-.762-1.198-.762-2.07 0-.568.124-1.07.372-1.506.248-.436.59-.774 1.026-1.014.436-.24.93-.36 1.482-.36.904 0 1.608.258 2.112.774s.756 1.202.756 2.058c0 .568-.12 1.068-.36 1.5-.24.432-.578.77-1.014 1.014-.436.244-.942.366-1.518.366zm.132-.672c.408 0 .72-.182.936-.546.216-.364.324-.846.324-1.446 0-.488-.068-.912-.204-1.272-.136-.36-.318-.636-.546-.828a1.14 1.14 0 0 0-.75-.288c-.4 0-.706.176-.918.528-.212.352-.318.816-.318 1.392 0 .76.132 1.36.396 1.8.264.44.624.66 1.08.66zm8.373-1.262l.411.506c.208.264.384.44.528.528.144.088.344.144.6.168 0 .264-.032.472-.096.624-.704 0-1.284.036-1.74.108a14.733 14.733 0 0 0-.948-1.296 26.033 26.033 0 0 0-1.248-1.452v.996c0 .392.048.662.144.81.096.148.268.226.516.234.048.152.072.364.072.636a22.18 22.18 0 0 0-1.193-.035l-.765.001c-.44.005-.796.016-1.066.034 0-.28.024-.492.072-.636.32-.008.536-.084.648-.228.112-.144.168-.416.168-.816V70.22c0-.208-.022-.37-.066-.486a.476.476 0 0 0-.258-.264c-.128-.06-.32-.094-.576-.102 0-.248.04-.436.12-.564.296 0 .646-.042 1.05-.126.404-.084.682-.178.834-.282.2.08.3.268.3.564v4.956l.864-.792c.448-.392.672-.672.672-.84 0-.12-.112-.184-.336-.192a2.157 2.157 0 0 1-.096-.612l.597.018c.246.004.539.006.879.006l.642-.006c.188-.004.35-.01.486-.018 0 .224-.036.432-.108.624a2.009 2.009 0 0 0-.732.174c-.216.1-.468.282-.756.546l-.948.864c.358.352.801.847 1.329 1.486zm3.351 1.934c-.304 0-.54-.082-.708-.246-.168-.164-.252-.382-.252-.654 0-.28.094-.508.282-.684.188-.176.43-.264.726-.264a.88.88 0 0 1 .666.27c.172.18.258.382.258.606 0 .296-.09.532-.27.708-.18.176-.414.264-.702.264zm4.68 0a2.87 2.87 0 0 1-1.344-.318 2.377 2.377 0 0 1-.978-.96c-.244-.428-.366-.946-.366-1.554 0-.496.102-.964.306-1.404.204-.44.508-.796.912-1.068s.882-.408 1.434-.408c.784 0 1.42.172 1.908.516-.072.4-.108.876-.108 1.428-.16.088-.408.132-.744.132-.032-.456-.148-.808-.348-1.056a.943.943 0 0 0-.768-.372c-.36 0-.644.184-.852.552-.208.368-.312.868-.312 1.5 0 .608.146 1.128.438 1.56.292.432.702.648 1.23.648.256 0 .496-.05.72-.15.224-.1.416-.242.576-.426.16.112.26.264.3.456-.44.616-1.108.924-2.004.924zm5.652 0c-.888 0-1.586-.254-2.094-.762-.508-.508-.762-1.198-.762-2.07 0-.568.124-1.07.372-1.506.248-.436.59-.774 1.026-1.014.436-.24.93-.36 1.482-.36.904 0 1.608.258 2.112.774s.756 1.202.756 2.058c0 .568-.12 1.068-.36 1.5-.24.432-.578.77-1.014 1.014-.436.244-.942.366-1.518.366zm.132-.672c.408 0 .72-.182.936-.546.216-.364.324-.846.324-1.446 0-.488-.068-.912-.204-1.272-.136-.36-.318-.636-.546-.828a1.14 1.14 0 0 0-.75-.288c-.4 0-.706.176-.918.528-.212.352-.318.816-.318 1.392 0 .76.132 1.36.396 1.8.264.44.624.66 1.08.66zm13.86-.036c.048.144.072.356.072.636-.307-.02-.683-.032-1.128-.035l-.796.002c-.41.005-.76.016-1.052.033 0-.28.024-.492.072-.636.2-.008.354-.046.462-.114a.557.557 0 0 0 .228-.342c.044-.16.066-.396.066-.708V73.76c0-.504-.084-.86-.252-1.068-.168-.208-.408-.312-.72-.312-.352 0-.648.166-.888.498-.24.332-.36.818-.36 1.458v1.008c0 .4.054.672.162.816.108.144.31.224.606.24.048.136.072.348.072.636l-.365-.018c-.264-.01-.566-.015-.907-.017l-.264-.001c-.6 0-1.116.012-1.548.036 0-.288.024-.5.072-.636.208-.016.366-.056.474-.12.108-.064.184-.178.228-.342.044-.164.066-.41.066-.738v-1.512c0-.496-.084-.846-.252-1.05-.168-.204-.416-.306-.744-.306a.961.961 0 0 0-.606.222c-.188.148-.34.37-.456.666-.116.296-.174.656-.174 1.08v1.044c0 .28.022.492.066.636.044.144.12.246.228.306.108.06.266.098.474.114.048.144.072.356.072.636l-.37-.018c-.268-.01-.58-.015-.938-.017l-.804.002a20.36 20.36 0 0 0-1.02.033c0-.28.024-.488.072-.624.32-.024.536-.106.648-.246.112-.14.168-.41.168-.81v-2.028c0-.248-.02-.434-.06-.558a.471.471 0 0 0-.252-.282c-.128-.064-.324-.104-.588-.12 0-.208.044-.396.132-.564.288-.016.62-.064.996-.144.376-.08.652-.168.828-.264.208.072.312.26.312.564 0 .16-.028.42-.084.78.112-.272.204-.448.276-.528.168-.216.402-.404.702-.564.3-.16.63-.24.99-.24.368 0 .692.08.972.24.233.133.417.325.55.575l.074.157c.048.088.08.208.096.36.08-.216.176-.38.288-.492.168-.216.394-.4.678-.552a1.99 1.99 0 0 1 .954-.228c.56 0 1 .158 1.32.474.32.316.48.822.48 1.518v1.74c0 .328.022.576.066.744.044.168.112.282.204.342.092.06.226.098.402.114z"/>
                <path fill="#FF5C62" d="M636.624 77.108c-.296-.048-.516-.144-.66-.288l3.12-8.388c.104.016.218.054.342.114.124.06.226.122.306.186l-3.108 8.376zm8.772-8.364c-.048.48-.064.972-.048 1.476-.216.08-.512.12-.888.12 0-.36-.07-.648-.21-.864-.14-.216-.35-.324-.63-.324s-.48.132-.6.396-.18.68-.18 1.248v.828h1.272c0 .296-.04.52-.12.672-.456 0-.84.048-1.152.144v2.628c0 .344.036.61.108.798.072.188.188.32.348.396.16.076.384.122.672.138.056.128.084.34.084.636l-.326-.016a33.82 33.82 0 0 0-1.098-.02l-1.025.004c-.455.005-.811.016-1.067.032 0-.296.024-.508.072-.636.224-.016.392-.056.504-.12a.54.54 0 0 0 .24-.324c.048-.152.072-.38.072-.684v-2.88c-.328-.08-.64-.12-.936-.12 0-.28.056-.496.168-.648h.768v-.444c0-.592.122-1.096.366-1.512.244-.416.566-.728.966-.936.4-.208.84-.312 1.32-.312.512 0 .952.108 1.32.324zm1.782 3.81l-.114.582.12-.336c.056-.152.108-.264.156-.336a2.38 2.38 0 0 1 .654-.708 1.404 1.404 0 0 1 1.674.024 9.107 9.107 0 0 0-.078.768 8.33 8.33 0 0 0-.018.816c-.088.04-.214.072-.378.096a3.2 3.2 0 0 1-.462.036c-.016-.336-.07-.568-.162-.696a.464.464 0 0 0-.402-.192c-.128 0-.266.074-.414.222a1.767 1.767 0 0 0-.372.588c-.1.244-.15.502-.15.774v.876c0 .344.038.61.114.798a.71.71 0 0 0 .354.396c.16.076.384.122.672.138.048.136.072.348.072.636l-.326-.016a33.82 33.82 0 0 0-1.098-.02l-1.024.004c-.453.005-.805.016-1.056.032 0-.296.02-.508.06-.636.224-.016.394-.056.51-.12a.535.535 0 0 0 .246-.33c.048-.156.072-.382.072-.678V73.28c0-.224-.02-.398-.06-.522a.471.471 0 0 0-.252-.282c-.128-.064-.32-.1-.576-.108 0-.248.04-.436.12-.564a5.13 5.13 0 0 0 1.044-.138c.36-.084.636-.174.828-.27.2.08.3.28.3.6 0 .176-.018.362-.054.558zm7.842 3.138a.57.57 0 0 1 .198.204c.06.096.094.192.102.288-.288.32-.616.554-.984.702a3.355 3.355 0 0 1-1.26.222c-.896 0-1.576-.264-2.04-.792-.464-.528-.696-1.212-.696-2.052 0-.544.108-1.032.324-1.464a2.52 2.52 0 0 1 .924-1.026c.4-.252.864-.378 1.392-.378.784 0 1.368.228 1.752.684.384.456.596 1.068.636 1.836-.048.2-.128.364-.24.492-1.232 0-2.328.024-3.288.072.056.552.218.996.486 1.332.268.336.67.504 1.206.504a2.107 2.107 0 0 0 1.488-.624zm-2.1-3.636c-.312 0-.568.138-.768.414-.2.276-.312.714-.336 1.314h2.1c0-.536-.088-.958-.264-1.266-.176-.308-.42-.462-.732-.462zm8.028 3.636a.57.57 0 0 1 .198.204c.06.096.094.192.102.288-.288.32-.616.554-.984.702a3.355 3.355 0 0 1-1.26.222c-.896 0-1.576-.264-2.04-.792-.464-.528-.696-1.212-.696-2.052 0-.544.108-1.032.324-1.464a2.52 2.52 0 0 1 .924-1.026c.4-.252.864-.378 1.392-.378.784 0 1.368.228 1.752.684.384.456.596 1.068.636 1.836-.048.2-.128.364-.24.492-1.232 0-2.328.024-3.288.072.056.552.218.996.486 1.332.268.336.67.504 1.206.504a2.107 2.107 0 0 0 1.488-.624zm-2.1-3.636c-.312 0-.568.138-.768.414-.2.276-.312.714-.336 1.314h2.1c0-.536-.088-.958-.264-1.266-.176-.308-.42-.462-.732-.462zm7.212 1.38c0 .352-.052.648-.156.888l-1.052.004c-.987.007-1.78.026-2.38.056 0-.152.018-.318.054-.498.036-.18.082-.33.138-.45h3.396zm3.324 3.672c-.528 0-.916-.136-1.164-.408-.248-.272-.372-.712-.372-1.32v-2.964a2.91 2.91 0 0 0-.876-.144c0-.256.04-.472.12-.648h.756V70.1c.208-.04.418-.11.63-.21.212-.1.39-.21.534-.33.096.04.16.102.192.186s.048.25.048.498v1.38h1.524c0 .224-.036.44-.108.648-.528.008-1 .064-1.416.168v2.712c0 .432.056.74.168.924a.542.542 0 0 0 .492.276c.288 0 .544-.084.768-.252a.982.982 0 0 1 .18.504c-.144.144-.356.264-.636.36-.28.096-.56.144-.84.144zm4.434-4.554l-.114.582.12-.336c.056-.152.108-.264.156-.336a2.38 2.38 0 0 1 .654-.708 1.404 1.404 0 0 1 1.674.024 9.107 9.107 0 0 0-.078.768 8.33 8.33 0 0 0-.018.816c-.088.04-.214.072-.378.096a3.2 3.2 0 0 1-.462.036c-.016-.336-.07-.568-.162-.696a.464.464 0 0 0-.402-.192c-.128 0-.266.074-.414.222a1.767 1.767 0 0 0-.372.588c-.1.244-.15.502-.15.774v.876c0 .344.038.61.114.798a.71.71 0 0 0 .354.396c.16.076.384.122.672.138.048.136.072.348.072.636l-.326-.016a33.82 33.82 0 0 0-1.098-.02l-1.024.004c-.453.005-.805.016-1.056.032 0-.296.02-.508.06-.636.224-.016.394-.056.51-.12a.535.535 0 0 0 .246-.33c.048-.156.072-.382.072-.678V73.28c0-.224-.02-.398-.06-.522a.471.471 0 0 0-.252-.282c-.128-.064-.32-.1-.576-.108 0-.248.04-.436.12-.564a5.13 5.13 0 0 0 1.044-.138c.36-.084.636-.174.828-.27.2.08.3.28.3.6 0 .176-.018.362-.054.558zm7.842 3.138a.57.57 0 0 1 .198.204c.06.096.094.192.102.288-.288.32-.616.554-.984.702a3.355 3.355 0 0 1-1.26.222c-.896 0-1.576-.264-2.04-.792-.464-.528-.696-1.212-.696-2.052 0-.544.108-1.032.324-1.464a2.52 2.52 0 0 1 .924-1.026c.4-.252.864-.378 1.392-.378.784 0 1.368.228 1.752.684.384.456.596 1.068.636 1.836-.048.2-.128.364-.24.492-1.232 0-2.328.024-3.288.072.056.552.218.996.486 1.332.268.336.67.504 1.206.504a2.107 2.107 0 0 0 1.488-.624zm-2.1-3.636c-.312 0-.568.138-.768.414-.2.276-.312.714-.336 1.314h2.1c0-.536-.088-.958-.264-1.266-.176-.308-.42-.462-.732-.462zm8.796 4.176c0 .176-.032.34-.096.492a4.63 4.63 0 0 0-.792.126c-.28.068-.532.154-.756.258a.44.44 0 0 1-.252-.228c-.056-.112-.084-.268-.084-.468 0-.12.012-.252.036-.396a1.58 1.58 0 0 1-.468.648c-.32.28-.764.42-1.332.42-.52 0-.922-.114-1.206-.342-.284-.228-.426-.55-.426-.966 0-.68.312-1.162.936-1.446.624-.284 1.388-.49 2.292-.618 0-.416-.016-.716-.048-.9a.999.999 0 0 0-.204-.468.888.888 0 0 0-.708-.324c-.336 0-.582.136-.738.408a2.19 2.19 0 0 0-.27.96c-.376 0-.648-.036-.816-.108l.018-.258a4.605 4.605 0 0 0-.078-1.122 5.552 5.552 0 0 1 1.092-.366c.4-.092.776-.138 1.128-.138.672 0 1.18.164 1.524.492.184.192.316.444.396.756.08.312.12.74.12 1.284v1.176c0 .256.018.448.054.576.036.128.104.22.204.276.1.056.254.092.462.108l.012.168zm-2.148-1.944c-.568.08-1.004.202-1.308.366-.304.164-.456.442-.456.834 0 .248.06.436.18.564.12.128.272.192.456.192a.954.954 0 0 0 .528-.174c.176-.116.32-.292.432-.528.112-.236.168-.526.168-.87v-.384zm5.136 2.82c-.528 0-.916-.136-1.164-.408-.248-.272-.372-.712-.372-1.32v-2.964a2.91 2.91 0 0 0-.876-.144c0-.256.04-.472.12-.648h.756V70.1c.208-.04.418-.11.63-.21.212-.1.39-.21.534-.33.096.04.16.102.192.186s.048.25.048.498v1.38h1.524c0 .224-.036.44-.108.648-.528.008-1 .064-1.416.168v2.712c0 .432.056.74.168.924a.542.542 0 0 0 .492.276c.288 0 .544-.084.768-.252a.982.982 0 0 1 .18.504c-.144.144-.356.264-.636.36-.28.096-.56.144-.84.144z"/>
            </g>
            <g stroke="#FF5C62" stroke-linecap="round">
                <path stroke-width="1.1" d="M524 408h22"/>
                <path d="M547 408l-4.078-4.078M547 408l-4.078 4.078"/>
            </g>
        </g>
    </g>
</svg>
