<svg xmlns="http://www.w3.org/2000/svg" width="460" height="274" viewBox="0 0 460 274">
    <defs>
        <linearGradient id="a" x1="50%" x2="50%" y1="12.871%" y2="67.057%">
            <stop offset="0%" stop-color="#FFD0D3" stop-opacity=".363"/>
            <stop offset="100%" stop-color="#FF5C62" stop-opacity=".203"/>
        </linearGradient>
    </defs>
    <g fill="none" fill-rule="evenodd">
        <path fill="url(#a)" d="M0 0h460v274H0z"/>
        <rect width="110" height="46" x="54" y="223" fill="#FFF" opacity=".703" rx="3"/>
        <rect width="110" height="46" x="174" y="223" fill="#FFF" opacity=".703" rx="3"/>
        <rect width="110" height="46" x="294" y="223" fill="#FFF" opacity=".703" rx="3"/>
        <rect width="144" height="86" x="260" y="108" fill="#FFF" opacity=".704" rx="3"/>
        <path fill="#FFF" d="M54 0h350v24a3 3 0 0 1-3 3H57a3 3 0 0 1-3-3V0zM54 108h175v15H54zM54 129h95v15H54zM54 158h175v5H54zM54 173h175v5H54zM54 188h84v5H54z" opacity=".702"/>
        <rect width="240" height="36" x="54" y="42" fill="#FFF" opacity=".796" rx="3"/>
        <rect width="100" height="36" x="304" y="42" fill="#FF5C62" opacity=".401" rx="3"/>
        <path fill="#000" fill-opacity=".098" d="M208.342 194.855c-28.86 0-42.934-2.682-49.074-6.027-5.78-4.171-3.319-9-3.319-9 5.679-8.381 106.38-11.965 106.38-11.965s41.97 16.51-37.53 26.737c-5.958.173-11.43.255-16.457.255"/>
        <path fill="#FF5C62" d="M249.64 120.608s29.27-16.146 31.288-9.61c2.017 6.537-8.135 26.477-17.794 33.09"/>
        <path fill="#32454C" d="M263.135 145.083a.994.994 0 0 1-.562-1.815c9.5-6.505 19.256-25.98 17.405-31.976-.061-.2-.19-.453-.642-.636-4.063-1.642-19.698 5.573-29.216 10.822a.994.994 0 1 1-.96-1.741c2.509-1.384 24.685-13.444 30.92-10.925.906.366 1.528 1.021 1.797 1.893 1.044 3.383-.671 9.84-4.588 17.273-3.936 7.469-9.018 13.798-13.594 16.931a.99.99 0 0 1-.56.174"/>
        <path fill="#FFC2C4" d="M263.134 144.088l-5.732-9.973c.655-.63 1.534-1.1 2.628-.854 0 0-1.127-1.412-3.554-1.975 0 0 2.153-2.331 4.17-1.739 0 0-1.605-2.897-5.068-3.202 0 0 15.61-13.11 25.165-15.755.074.126.139.26.185.409 2.017 6.536-8.135 26.476-17.794 33.09"/>
        <path fill="#32454C" d="M258.7 134.379l4.745 8.256c8.95-6.848 17.804-24.479 16.661-30.811-7.51 2.494-18.363 10.837-22.348 14.028 2.506 1.004 3.696 3.103 3.757 3.213a.995.995 0 0 1-1.15 1.436c-.565-.166-1.276.08-1.875.438 1.524.727 2.275 1.65 2.316 1.702a.995.995 0 0 1-.994 1.59 1.563 1.563 0 0 0-1.111.148zm4.434 10.704a.99.99 0 0 1-.862-.499l-5.73-9.973a.995.995 0 0 1 .171-1.212c.285-.275.581-.503.888-.684a6.903 6.903 0 0 0-1.35-.46.994.994 0 0 1-.504-1.644c.16-.173 1.335-1.404 2.88-1.924a5.474 5.474 0 0 0-3.136-1.351.994.994 0 0 1-.552-1.752c.644-.541 15.886-13.28 25.539-15.952a.992.992 0 0 1 1.123.456c.122.208.212.41.276.615 1.044 3.385-.671 9.842-4.588 17.275-3.936 7.468-9.018 13.798-13.594 16.931a.995.995 0 0 1-.561.174z"/>
        <path fill="#FF5C62" d="M268.098 160.225s9.601-25.25-4.19-39.803c-13.792-14.553-47.407-13.335-54.97 15.128-7.562 28.463 40.137 40.395 40.137 40.395l5.868-1.951 13.155-13.769"/>
        <path fill="#32454C" d="M240.614 112.257c-11.824 0-26.102 6.186-30.715 23.548-1.53 5.757-.787 11.252 2.207 16.332 8.748 14.842 34.014 21.988 36.936 22.771l5.353-1.78 12.84-13.44c.39-1.088 2.365-6.887 2.954-14.04.592-7.2-.142-17.304-7.002-24.542-5.252-5.541-13.69-8.85-22.573-8.85zm8.461 64.682a.986.986 0 0 1-.24-.03c-.072-.018-7.25-1.833-15.497-5.623-11.15-5.124-18.868-11.226-22.942-18.135-3.276-5.557-4.09-11.565-2.418-17.857 4.903-18.452 20.073-25.026 32.636-25.026 9.418 0 18.395 3.54 24.015 9.47 5.84 6.161 8.445 15.195 7.536 26.125-.68 8.178-3.038 14.452-3.138 14.716a.997.997 0 0 1-.21.333L255.66 174.68a.998.998 0 0 1-.405.256l-5.867 1.951a.99.99 0 0 1-.314.05z"/>
        <path fill="#FFFFFE" d="M266.026 135.515s5.492-.301 4.113 5.718c-1.379 6.018-4.113 2.597-4.113 2.597v-8.315"/>
        <path fill="#32454C" d="M268.334 139.672c0 2.297-1.033 4.158-2.308 4.158s-2.309-1.861-2.309-4.158c0-2.296 1.034-4.157 2.309-4.157 1.275 0 2.308 1.861 2.308 4.157"/>
        <path fill="#FFFFFE" d="M268.098 160.225s2.73-7.182 3.187-16.092l-2.014-.78s-5.464.106-7.124-5.285c-1.659-5.392-6.103-19.693-7.98-18.567-1.878 1.125.88 7.966 1.663 11.895.783 3.928 3.115 11.37-4.328 15.696-7.443 4.326-9.43 9.25-7.348 17.11 1.077 4.066 6.28 7.321 11.052 9.516l12.892-13.493"/>
        <path fill="#FFFFFE" d="M267.156 142.794s15.378 3.463 14.955 9.892c-.422 6.43-4.046 20.068-26.727 13.898"/>
        <path fill="#32454C" d="M265.736 169.142c-3.152 0-6.694-.532-10.613-1.599a.994.994 0 0 1 .521-1.918c8.708 2.368 15.333 1.99 19.694-1.124 4.565-3.26 5.582-8.843 5.782-11.88.3-4.578-10.135-7.945-14.182-8.857a.995.995 0 0 1 .437-1.94c1.658.374 16.193 3.854 15.728 10.927-.223 3.39-1.378 9.632-6.61 13.369-2.82 2.013-6.42 3.022-10.757 3.022"/>
        <path fill="#32454C" d="M283.524 150.697c0 2.281-1.344 7.54-3.703 7.54-2.36 0-5.407-4.975-5.407-7.255 0-2.281 2.196-3.562 4.555-3.562 2.359 0 4.555.996 4.555 3.277"/>
        <path fill="#32454C" d="M278.97 148.414c-1.77 0-3.562.882-3.562 2.568 0 1.94 2.815 6.26 4.413 6.26 1.344 0 2.71-4.199 2.71-6.545 0-2.173-2.967-2.283-3.562-2.283zm.85 10.817c-3.12 0-6.4-5.724-6.4-8.25 0-2.64 2.334-4.556 5.55-4.556 3.318 0 5.548 1.717 5.548 4.272 0 2.43-1.397 8.534-4.697 8.534z"/>
        <path fill="#FF5C62" d="M240.227 118.378s-20.232-26.822-24.762-21.654c-4.53 5.168-3.39 27.625 2.76 37.656"/>
        <path fill="#32454C" d="M218.225 135.374a.993.993 0 0 1-.848-.474c-2.913-4.752-4.98-12.642-5.529-21.107-.546-8.426.527-15.052 2.87-17.725.603-.688 1.44-1.03 2.421-.997 6.75.248 22.148 20.41 23.881 22.708a.995.995 0 0 1-1.587 1.198c-6.579-8.722-17.966-21.757-22.367-21.919-.492-.02-.714.162-.854.321-4.156 4.741-3.19 26.614 2.86 36.48a.995.995 0 0 1-.847 1.515"/>
        <path fill="#FFC2C4" d="M218.792 135.232s9.23-3.643 9.346-7.08c0 0-1.524-2.208-2.628-2.43 0 0 2.464-1.117 4.921-.638 0 0-1.871-2.738-3.964-3.022 0 0 2.66-1.999 5.962-.857 0 0-8.946-18.432-16.627-24.78-.12.085-.234.18-.337.299-4.53 5.168-2.822 28.477 3.327 38.508"/>
        <path fill="#32454C" d="M215.882 97.813c-3.546 5.322-2.267 26.135 3.331 36.17 3.306-1.413 7.406-3.81 7.886-5.573-.653-.868-1.454-1.647-1.786-1.714a.994.994 0 0 1-.213-1.88 10.952 10.952 0 0 1 3.048-.79c-.558-.485-1.2-.895-1.815-.979a.995.995 0 0 1-.463-1.78c.077-.058 1.904-1.409 4.476-1.409.098 0 .196.002.294.006-2.345-4.556-8.888-16.678-14.758-22.051zm2.91 38.414a.994.994 0 0 1-.847-.475c-6.287-10.255-8.217-33.991-3.227-39.684.143-.163.308-.31.506-.452a.994.994 0 0 1 1.211.042c7.561 6.249 16.073 23.446 16.843 25.022a.993.993 0 0 1-1.174 1.465 5.375 5.375 0 0 0-1.758-.298c-.547 0-1.05.084-1.491.203 1.206.864 2.08 2.024 2.337 2.388a.994.994 0 0 1-.951 1.622c-.789-.154-1.742-.107-2.5.032a12.36 12.36 0 0 1 1.214 1.494.993.993 0 0 1 .176.6c-.132 3.892-8.332 7.323-9.974 7.971a.987.987 0 0 1-.364.07z"/>
        <path fill="#FFFFFE" d="M243.424 132.447s8.888-1.379 9.115 3.967c.227 5.345-4.74 8.816-9.727 6.459l.612-10.426"/>
        <path fill="#32454C" d="M246.367 137.748c0 2.927-1.318 5.3-2.943 5.3-1.626 0-2.943-2.373-2.943-5.3 0-2.928 1.317-5.301 2.943-5.301 1.625 0 2.943 2.373 2.943 5.3"/>
        <path fill="#FF5C62" d="M228.236 137.934s-9.446-8.959-19.099-10.664c-9.653-1.704-43.63-9.848-56.594 17.614 0 0-.758 26.78 9.652 31.667 10.41 4.886 36.06 8.109 52.385 6.687 0 0 26.03 4.33 39.538-2.18 13.508-6.509-4.948-24.242-12.33-30.492"/>
        <path fill="#FFFFFE" d="M180.643 177.11l-2.17 4.043s20.159 3.314 21.295 1.894l-1.515-3.788-17.61-2.15"/>
        <path fill="#32454C" d="M232.83 185.662c-9.124 0-17.075-1.226-18.288-1.423-16.675 1.425-42.279-1.864-52.769-6.788-10.875-5.105-10.255-31.475-10.224-32.595a.993.993 0 0 1 .095-.397c5.387-11.41 14.94-18.163 28.393-20.07 10.876-1.541 21.65.48 27.44 1.564.681.128 1.295.243 1.833.338 9.834 1.737 19.215 10.547 19.61 10.922a.994.994 0 0 1-1.368 1.443c-.092-.088-9.348-8.775-18.588-10.406a186.43 186.43 0 0 1-1.853-.342c-11.393-2.136-41.606-7.803-53.58 17.21-.037 2.469-.155 26.195 9.086 30.532 10.268 4.82 35.48 8.026 51.877 6.597.083-.006.167-.004.249.01.257.043 25.877 4.202 38.944-2.095 2.547-1.227 3.92-2.88 4.196-5.053.815-6.398-8.111-16.481-16.737-23.784a.995.995 0 0 1 1.284-1.518c4.379 3.707 18.577 16.507 17.425 25.553-.363 2.854-2.149 5.073-5.306 6.594-5.987 2.885-14.247 3.708-21.72 3.708"/>
        <path fill="#FF5C62" d="M239.432 184.413s28.26 2.569 33.237-5.249c4.976-7.817-9.966-9.597-9.966-9.597s-11.309-11.747-19.566-17.836"/>
        <path fill="#FFFFFE" d="M259.391 176.513c.157 1.202-1.593 4.828-3.875 8.139 7.292-.427 14.808-1.804 17.153-5.488 4.976-7.817-9.966-9.597-9.966-9.597s-3.596 4.768-3.312 6.946"/>
        <path fill="#32454C" d="M249.586 185.81c-5.684 0-10.188-.402-10.244-.407a.994.994 0 0 1 .18-1.98c7.693.698 28.495 1.198 32.309-4.793.89-1.399 1.086-2.58.599-3.61-1.352-2.857-7.564-4.192-9.845-4.466a.997.997 0 0 1-.597-.297c-.113-.117-11.347-11.757-19.44-17.726a.995.995 0 0 1 1.178-1.6c7.56 5.574 17.75 15.95 19.45 17.695 1.873.262 9.148 1.527 11.05 5.54.793 1.676.551 3.537-.719 5.533-2.248 3.531-8.734 5.555-19.28 6.015-1.588.069-3.155.096-4.64.096"/>
        <path fill="#FF5C62" d="M152.778 144.316s-5.82 17.898 0 25.251c4.112 5.194-.284 18.688 9.559 18.688 9.842 0 13.439 1.326 19.496-14.015"/>
        <path fill="#FFFFFE" d="M180.9 175.268c-2.306 1.122-5.455 1.529-6.685.677-1.23-.853-7.477-2.178-12.966-1.61-5.49.568-8.065-2.998-8.065-2.998 2.286 6.056-.253 16.918 8.633 16.918 9.616 0 13.27 1.263 19.083-12.987"/>
        <path fill="#FF5C62" d="M227.094 150.066s3.57 19.767 1.142 26.92c-2.428 7.154 4.394 16.951-4.43 16.951-15.048 0-23.187-1.61-26.594-17.67"/>
        <path fill="#FFFFFE" d="M208.981 165.957c8.518-.568 12.871-12.5 6.625-20.833-6.246-8.334-12.492-8.334-18.36-5.493-5.868 2.841-7.385 3.449-13.534 2.083 0 0-14.905-7.66-20.82.947-4.672 6.797-2.77 20.135 4.259 21.213 8.578 1.315 17.508 3.882 13.912 12.784-.383.946-1.253 1.018-1.49 1.917 6.371 1.131 12.067 1.644 18.897 1.98.248-.31.385.364.385.364s-1.704-2.178-1.704-3.883c0-1.704 3.313-10.511 11.83-11.08"/>
        <path fill="#FFFFFE" d="M223.806 193.937c8.058 0 3.07-8.17 3.992-15.036-6.15-2.68-15.294-2.463-18.472-.873-3.066 1.534-10.42-.27-11.863-.646 3.547 15.018 11.652 16.555 26.343 16.555"/>
        <path fill="#32454C" d="M166.323 189.278c-.586 0-1.194-.006-1.83-.013-.684-.008-1.402-.015-2.156-.015-7.044 0-7.718-6.05-8.311-11.386-.326-2.929-.663-5.957-2.026-7.68-6.082-7.683-.411-25.424-.167-26.176a.995.995 0 0 1 1.89.615c-.056.174-5.587 17.477-.165 24.327 1.717 2.17 2.086 5.486 2.443 8.694.666 5.984 1.424 9.617 6.336 9.617.762 0 1.487.008 2.179.016 8.043.085 11.053.12 16.392-13.402a.994.994 0 0 1 1.848.73c-2.83 7.17-5.16 10.884-8.038 12.82-2.435 1.635-5.036 1.853-8.395 1.853M223.806 194.932c-7.935 0-13.738-.492-18.144-2.938-4.805-2.667-7.71-7.454-9.422-15.521a.994.994 0 0 1 1.945-.413c3.227 15.218 10.64 16.883 25.621 16.883 1.508 0 2.503-.301 3.042-.92.982-1.125.644-3.597.286-6.213-.396-2.897-.845-6.18.16-9.143 2.32-6.832-1.143-26.229-1.178-26.424a.994.994 0 0 1 1.956-.354c.147.818 3.587 20.104 1.105 27.417-.855 2.52-.44 5.556-.074 8.234.421 3.078.818 5.984-.757 7.791-.94 1.077-2.424 1.6-4.54 1.6"/>
        <path fill="#FF5C62" d="M196.171 135.297s-7.003-17.496-11.546-15.981c-4.543 1.515-10.221 12.463-4.353 16.743"/>
        <path fill="#32454C" d="M180.27 137.053a.989.989 0 0 1-.584-.191c-2.315-1.689-3.301-4.481-2.776-7.862.711-4.584 4.17-9.55 7.401-10.627 2.437-.814 5.27 1.765 8.66 7.883 2.322 4.191 4.05 8.49 4.123 8.671a.994.994 0 0 1-1.845.74c-.018-.044-1.76-4.378-4.024-8.46-3.12-5.628-5.293-7.28-6.286-6.948-2.273.759-5.418 4.875-6.065 9.046-.287 1.846-.175 4.376 1.983 5.95a.994.994 0 0 1-.586 1.798"/>
    </g>
</svg>
