<svg xmlns="http://www.w3.org/2000/svg" width="460" height="274" viewBox="0 0 460 274">
    <defs>
        <linearGradient id="a" x1="0%" y1="38.926%" y2="38.926%">
            <stop offset="0%" stop-color="#FF5C62" stop-opacity=".202"/>
            <stop offset="100%" stop-color="#6747C7" stop-opacity=".204"/>
        </linearGradient>
    </defs>
    <g fill="none" fill-rule="evenodd">
        <rect width="460" height="274" fill="url(#a)" rx="2"/>
        <path fill="#FF5C62" fill-rule="nonzero" d="M64.237 130C61.13 158.276 86.73 162.637 94 154.515 81.201 186.025 51.135 150.38 64.237 130zM59 126c-11.022 1.585-27.403 36.683-8.002 32.683C39.07 154.38 51.074 129.548 59 126V126zm0-3.646c-3.86-1.85-17.94 3.623-19 14.646 2.65-5.858 9.538-13.798 19-14.646zm5-4.254c-5.85-4.634-12.825.685-15 1.9 5.85-6.913 14.625-5.774 15-1.9zm5.713-1.1c3.967-3.604-1.983-10.443-7.713-4.927 2.058-.883 8.962-2.059 7.713 4.927zm6.096 1c8.338-7.505 1.376-10.416-.809-10.57 11.656-2.833 6.475 9.192.81 10.57zM78 122.55c7.99 3.01 31.804-9.98 12.842-12.55 4.33 1.028 5.3 9.615-12.84 12.55H78zm-6 6.217c5.398 15.245 53.594 13.831 32.84-6.767 4.486 7.064-6.689 19.632-32.84 6.767z"/>
        <path fill="#6747C7" d="M368 135v-28l14.371 7.535v12.616l19.025.009L416 135h-48zm37-10.343V107l15 7.271V133l-15-8.343zm.174 34.665v-12.407l-19.26-.013C385.934 146.985 371 139 371 139l49 .223V167l-14.826-7.678zm-37.174.229V141l14 8.345V167l-14-7.45z"/>
        <path fill="#000" fill-opacity=".098" d="M171 198.5c0 2.485 19.028 4.5 42.5 4.5s42.5-2.015 42.5-4.5-19.028-4.5-42.5-4.5-42.5 2.015-42.5 4.5"/>
        <path fill="#F0A85F" d="M252 150s-7.746 11.745-8.831 13.447c-1.084 1.701-7.592 4.14-10.845 3.686-1.065-.15-2.513.638-4.093 1.424-3.243 1.615-7.043 3.231-9.231-3.253L252 150"/>
        <path fill="#FFFFFE" d="M232.193 167.118c-1.055-.15-2.489.641-4.053 1.432-3.212 1.623-6.973 3.247-9.14-3.27l15.466-7.28c1.682 1.485 3.576 2.61 4.936 2.878 3.195.632 2.548 3.42 2.537 3.467-2.209 1.537-7.08 3.15-9.746 2.773"/>
        <path fill="#FF5C62" d="M223.746 170c1.396 0 2.867-.645 4.247-1.325-1.38.68-2.85 1.325-4.247 1.325m9.448-2.812c3.424 0 8.98-2.18 9.975-3.74C244.254 161.744 252 150 252 150l-33 15.304 15.62-7.244c1.699 1.478 3.611 2.596 4.986 2.864 3.226.628 2.573 3.403 2.562 3.45-2.008 1.376-6.194 2.814-8.974 2.814"/>
        <path fill="#F2F2F2" d="M223.7 170c1.382 0 2.838-.648 4.204-1.331l.236-.12c1.434-.724 2.759-1.45 3.783-1.45.092 0 .182.007.27.02.266.037.555.055.86.055 2.754 0 6.898-1.446 8.886-2.829.011-.046.658-2.835-2.537-3.467-1.36-.269-3.254-1.393-4.936-2.878L219 165.28l.007.021c1.199 3.59 2.883 4.7 4.692 4.699"/>
        <path fill="#32454C" d="M224.307 171c1.729 0 3.497-.885 5.103-1.688 1.314-.658 2.555-1.278 3.348-1.168 3.511.489 10.167-2.045 11.364-3.92 1.065-1.666 8.707-13.227 8.784-13.343a.565.565 0 0 0-.169-.789.583.583 0 0 0-.8.167c-.077.116-7.724 11.684-8.794 13.358-.887 1.39-7.047 3.84-10.223 3.399-1.156-.16-2.488.507-4.033 1.28-1.91.955-4.073 2.039-5.816 1.333-1.212-.49-2.202-1.85-2.944-4.045a.58.58 0 0 0-.731-.36.568.568 0 0 0-.366.72c.865 2.558 2.043 4.108 3.602 4.74.55.221 1.11.316 1.675.316"/>
        <path fill="#FFFFFE" d="M203.41 142.049s16.482 7.718 1.387 26.414c0 0 5.378.087 8.281 6.307 2.904 6.22-1.983 8.651-1.983 8.651s-1.584 2.862-4.625.88c0 0-7.489 2.76-7.951-5.996 0 0-13.171 2.083-11.142-6.715 0 0-26.455-4.247-17.542-29.59l33.575.049"/>
        <path fill="#F2F2F2" d="M208.525 185c1.696 0 2.57-1.58 2.57-1.58s2.902-1.442 2.905-4.95c.001-1.045-.255-2.273-.921-3.7-2.904-6.22-8.282-6.307-8.282-6.307 4.74-5.87 6.366-10.657 6.367-14.464.003-8.318-7.754-11.95-7.754-11.95L169.835 142c-1.284 3.65-1.834 6.863-1.835 9.689-.006 16.79 19.377 19.9 19.377 19.9a7.682 7.682 0 0 0-.212 1.728c0 4.436 4.855 5.203 8.215 5.203 1.779 0 3.14-.215 3.14-.215.283 5.37 3.209 6.409 5.43 6.409 1.4 0 2.52-.413 2.52-.413.782.51 1.468.699 2.055.699"/>
        <path fill="#32454C" d="M208.963 185c.264 0 .523-.032.779-.095 1.223-.304 1.954-1.256 2.2-1.628.86-.514 4.876-3.315 2.086-9.292-2.247-4.81-5.89-6.124-7.693-6.482 4.812-6.226 6.665-11.918 5.508-16.927-1.498-6.49-7.475-9.354-7.729-9.473a.576.576 0 1 0-.489 1.044c.087.041 5.737 2.777 7.098 8.7 1.116 4.86-.876 10.49-5.92 16.736a.576.576 0 0 0 .44.939c.203.004 5.044.177 7.74 5.95 2.611 5.593-1.534 7.772-1.712 7.862a.585.585 0 0 0-.246.236c-.004.008-.561.973-1.57 1.219-.67.162-1.416-.021-2.221-.546a.577.577 0 0 0-.515-.058c-.028.01-2.875 1.024-4.925-.33-1.342-.888-2.09-2.614-2.223-5.134a.577.577 0 0 0-.666-.539c-.07.012-7.06 1.074-9.679-1.735-.934-1.002-1.195-2.435-.774-4.257a.577.577 0 0 0-.47-.698c-.115-.019-11.501-1.944-16.485-10.324-2.927-4.922-3.111-11.113-.547-18.4a.576.576 0 1 0-1.088-.383c-2.683 7.628-2.466 14.148.648 19.378 4.655 7.82 14.212 10.245 16.7 10.756-.323 1.948.07 3.532 1.174 4.715 2.561 2.746 8.194 2.38 10.08 2.168.247 2.579 1.153 4.4 2.7 5.418 2.148 1.414 4.818.794 5.678.536.725.429 1.435.644 2.121.644"/>
        <path fill="#FFFFFE" d="M212.643 178s1.135 1.629-.643 5"/>
        <path fill="#32454C" d="M211.563 183c.21 0 .411-.119.508-.322 1.678-3.524.58-5.339.533-5.415a.561.561 0 0 0-.777-.175.569.569 0 0 0-.18.774c.024.042.776 1.455-.592 4.326a.568.568 0 0 0 .508.812"/>
        <path fill="#FFFFFE" d="M209 180s-.617 3.688-2 4"/>
        <path fill="#32454C" d="M207.52 185a.447.447 0 0 0 .117-.016c1.614-.442 2.245-4.458 2.356-5.259.047-.34-.145-.66-.43-.716-.282-.058-.551.173-.598.513-.23 1.664-.9 4.066-1.56 4.246-.28.077-.456.412-.392.747.055.29.27.485.508.485"/>
        <path fill="#F0A85F" d="M269 88.313s-4.297-4.792-5.049-7.197c-.75-2.404-18.304-13.224-30.056-7.433 0 0-4.427 4.396 6.41 13.4C251.142 96.084 254.347 97 254.347 97L269 88.313"/>
        <path fill="#FF5C62" d="M254.347 97L269 88.313s-4.297-4.792-5.049-7.197C263.355 79.208 252.178 72 241.715 72c-2.721 0-5.394.487-7.82 1.683 0 0-.893.887-.895 2.68-.002 2.2 1.337 5.76 7.305 10.72C251.142 96.084 254.347 97 254.347 97"/>
        <path fill="#32454C" d="M254.425 98a.59.59 0 0 0 .16-1.158c-.027-.008-3.41-1.12-14.152-10.127-5.835-4.894-7.167-8.348-7.257-10.382-.064-1.461.51-2.3.687-2.523 7.108-3.465 15.92-.638 20.553 1.364 5.538 2.392 9.031 5.225 9.274 6.01.797 2.575 5.105 7.443 5.288 7.649a.582.582 0 0 0 .827.046.593.593 0 0 0 .045-.833c-.042-.049-4.32-4.882-5.042-7.214-.475-1.535-5.023-4.623-9.93-6.743-4.842-2.092-14.09-5.04-21.636-1.286a.588.588 0 0 0-.154.11c-.048.049-1.181 1.212-1.082 3.472.146 3.306 2.73 7.086 7.678 11.237 11.055 9.27 14.44 10.315 14.58 10.355a.577.577 0 0 0 .16.023"/>
        <path fill="#FF5C62" d="M173 129.708s-6.53-1.532-7.867-4.137c-1.336-2.605-5.622 4.326-2.61 8.269 0 0-4.79 2.398 2.62 7.254 7.412 4.856 7.857-11.386 7.857-11.386"/>
        <path fill="#FFFFFE" d="M165.358 141.112c-7.794-4.76-2.757-7.112-2.757-7.112 1.725 1.839 7.894 3.945 9.399 4.44-1.173 2.828-3.188 4.782-6.642 2.672"/>
        <path fill="#32454C" d="M172.849 130.678c-.167 3.503-1.244 11.182-4.66 11.182-.656 0-1.4-.27-2.214-.806-3.265-2.145-3.889-3.65-3.838-4.536.062-1.076 1.178-1.666 1.19-1.672a.568.568 0 0 0 .196-.855c-1.43-1.877-.979-4.49-.16-6.158.575-1.168 1.237-1.694 1.524-1.694.087 0 .176.087.263.257 1.223 2.392 6.156 3.871 7.699 4.282zM168.189 143c5.401 0 5.796-12.225 5.81-12.746a.57.57 0 0 0-.437-.57c-1.725-.407-6.42-1.884-7.404-3.809-.389-.761-.963-.875-1.27-.875-.875 0-1.824.87-2.541 2.328-.895 1.82-1.395 4.626-.065 6.852-.512.403-1.213 1.152-1.277 2.272-.1 1.725 1.363 3.594 4.35 5.556 1 .658 1.954.992 2.833.992z"/>
        <path fill="#FF5C62" d="M237.336 112.215s-10.752-.932-14.9 1.087c-4.147 2.019-11.981 7.92-11.981 7.92s-48.387-4.349-45.315 31.678c3.072 36.027 64.362 7.144 64.362 7.144s25.346-6.367 26.498-11.802l-12.673-22.362-5.99-13.665"/>
        <path fill="#FFFFFE" d="M219 115.181c2.678-1.856.95-.733 3.386-1.89 2.772-1.317 8.448-1.368 12.008-1.248.932.875 1.855 1.93 2.759 3.191 2.266 3.162 3.93 5.643 5.134 7.585l1.322 2.942 6.36 7.891c.652 2.464-9.09-8.968-9.09-8.968s-6.477-12.01-21.879-9.503"/>
        <path fill="#FFFFFE" d="M245.16 146.585c6.748-6.75-1.393-17.585-1.393-17.585l5.8 5.804L257 147.596c-1.05 4.833-22.135 10.418-26 11.404 2.931-3.87 9.75-8 14.16-12.415"/>
        <path fill="#32454C" d="M255.793 147.8c-.44 1.223-2.864 3.653-13.372 7.292-6.44 2.23-12.82 3.821-12.884 3.838a.586.586 0 0 0-.106.037c-.233.108-23.564 10.871-41.966 10.871-13.703 0-21.16-5.894-22.164-17.519-.704-8.166 1.288-14.866 5.923-19.912 8.961-9.756 25.42-11.213 34.432-11.213 2.886 0 4.729.16 4.747.161a.584.584 0 0 0 .399-.112c.078-.059 7.909-5.875 11.996-7.841 1.688-.812 4.877-1.24 9.222-1.24 2.354 0 4.39.128 5.172.185l5.906 13.311.027.054 12.668 22.088zM187.465 171c18.24 0 41.157-10.384 42.406-10.957.637-.16 6.758-1.716 12.931-3.854 9.01-3.12 13.65-5.85 14.185-8.344a.582.582 0 0 0-.064-.41l-12.775-22.275-6.033-13.6a.581.581 0 0 0-.482-.344 74.107 74.107 0 0 0-5.613-.216c-4.583 0-7.856.456-9.726 1.355-3.89 1.872-10.791 6.925-12.011 7.826a64.592 64.592 0 0 0-4.627-.149c-9.204 0-26.027 1.506-35.289 11.59-4.864 5.296-6.958 12.293-6.224 20.797.57 6.61 3.156 11.532 7.684 14.63 3.834 2.621 9.095 3.951 15.638 3.951z"/>
        <path fill="#FF5C62" d="M246 143.54s-3.056 10.159-5.96 14.027c-2.903 3.868-9.322 3.404-12.836 5.88-3.515 2.475-14.365 7.426-18.185-1.857 0 0-2.293-2.321 0-5.415 0 0 .305-4.797 5.501-4.952 0 0 1.834-1.237 4.432-1.237 0 0-2.904-.155-3.515-.929 0 0 4.432-1.083 5.348-3.25l-2.14.156s-.457-1.131 2.6-2.422c3.055-1.292 3.131-.518 5.882-4.541"/>
        <path fill="#FFFFFE" d="M218 150.059s-.445-.028-1-.118c.625.066 1 .118 1 .118"/>
        <path fill="#FFFFFE" d="M209.02 156.183s.306-4.792 5.508-4.946c0 0 1.836-1.237 4.437-1.237 0 0 5.89 2.087 8.057 2.396 2.168.31 5.024.696 7.471 3.478 2.448 2.783 4.284 2.581 4.284 2.581s.086.084.223.243c-3.207 2.673-8.641 2.55-11.774 4.752-3.519 2.473-14.381 7.42-18.206-1.856 0 0-2.295-2.318 0-5.41"/>
        <path fill="#32454C" d="M216.69 168c4.299 0 8.768-2.21 10.85-3.638 1.401-.96 3.309-1.456 5.33-1.981 2.978-.775 6.058-1.576 7.92-3.99 2.996-3.885 6.056-13.714 6.184-14.13a.576.576 0 0 0-.39-.72.587.587 0 0 0-.73.383c-.031.1-3.127 10.048-5.996 13.769-1.618 2.098-4.5 2.847-7.288 3.572-2.03.528-4.128 1.074-5.698 2.15-2.793 1.914-8.497 4.316-12.762 3.09-2.24-.644-3.904-2.22-4.946-4.685a.574.574 0 0 0-.127-.186c-.078-.079-1.941-2.008.055-4.631a.57.57 0 0 0 .116-.309c.012-.172.359-4.248 5.055-4.384a.593.593 0 0 0 .307-.097c.016-.01 1.773-1.134 4.204-1.134.317 0 .577-.25.585-.562a.58.58 0 0 0-.554-.591 13.383 13.383 0 0 1-1.944-.25c1.51-.537 3.647-1.543 4.325-3.101a.58.58 0 0 0-.58-.803l-1.324.093c.28-.31.859-.746 2.06-1.24.633-.26 1.132-.432 1.572-.584 1.871-.644 2.453-.944 4.696-4.135a.571.571 0 0 0-.148-.803.591.591 0 0 0-.815.146c-2.118 3.014-2.542 3.16-4.119 3.703-.433.149-.972.334-1.637.608-3.484 1.433-3.086 2.884-2.971 3.16.096.23.334.376.583.357l.908-.064c-1.211 1.062-3.429 1.782-4.366 2.005a.583.583 0 0 0-.417.374.569.569 0 0 0 .097.547c.181.224.473.404.821.549a8.79 8.79 0 0 0-1.478.674c-5.018.23-5.878 4.354-6.008 5.276-2.192 3.013-.375 5.414.061 5.916 1.188 2.75 3.092 4.52 5.66 5.259.94.27 1.92.387 2.909.387"/>
        <path fill="#32454C" d="M216.412 162c.66 0 1.077-.06 1.093-.062.316-.049.535-.358.489-.692-.046-.333-.34-.566-.653-.517-.244.037-5.99.834-8.24-4.372a.564.564 0 0 0-.764-.301.625.625 0 0 0-.284.809c1.972 4.567 6.32 5.135 8.359 5.135M214.516 166c1.69 0 2.993-.426 3.098-.461a.574.574 0 0 0 .357-.723.561.561 0 0 0-.711-.363c-.045.015-4.493 1.456-7.306-1.293a.558.558 0 0 0-.796.015.578.578 0 0 0 .014.809c1.642 1.603 3.68 2.016 5.344 2.016"/>
        <path fill="#FF5C62" d="M196.606 140s18.272 1.348 10.767 24.143c0 0 5.09-1.828 10.05 2.943 4.96 4.77 1.234 8.772 1.234 8.772s-.467 3.231-4.038 2.462c0 0-6.056 5.232-9.627-2.77 0 0-11.647 6.617-12.889-2.309 0 0-26.411 5.43-27.103-21.37"/>
        <path fill="#FFFFFE" d="M203.923 169.64c-.818-1.482-1.753-3.306 1.286-3.456 3.039-.15 2.117-1.844 2.117-1.844s5.109-1.806 10.088 2.906c4.978 4.712 1.238 8.663 1.238 8.663s-.468 3.192-4.053 2.432c0 0-6.078 5.167-9.663-2.736 0 0-11.69 6.535-12.936-2.28 5.026.608 12.741-2.204 11.923-3.685M192 172.934s-.36.065-1 .147c.27-.134.603-.19 1-.147"/>
        <path fill="#32454C" d="M210.798 180c2.062 0 3.808-1.171 4.417-1.634 1.158.196 2.141.023 2.926-.518 1.043-.717 1.39-1.864 1.488-2.298.624-.784 3.402-4.821-1.367-9.404-3.84-3.69-7.74-3.622-9.565-3.316 2.297-7.513 2.001-13.477-.884-17.738-3.736-5.519-10.39-6.07-10.671-6.09a.578.578 0 0 0-.623.53.577.577 0 0 0 .536.616c.063.005 6.387.54 9.8 5.595 2.793 4.135 2.937 10.092.427 17.706a.572.572 0 0 0 .149.591c.16.153.394.202.602.128.192-.068 4.812-1.625 9.42 2.803 4.488 4.313 1.344 7.79 1.207 7.936a.57.57 0 0 0-.148.31c-.001.008-.18 1.105-1.042 1.693-.57.388-1.34.482-2.285.278a.586.586 0 0 0-.506.13c-.022.018-2.337 1.974-4.755 1.438-1.581-.35-2.904-1.696-3.933-3.998a.587.587 0 0 0-.82-.266c-.062.035-6.26 3.506-9.732 1.815-1.24-.603-1.998-1.846-2.256-3.695a.574.574 0 0 0-.24-.39.589.589 0 0 0-.453-.094c-.114.024-11.523 2.267-19.218-3.778-4.519-3.551-6.912-9.259-7.11-16.963a.57.57 0 0 0-.596-.56.578.578 0 0 0-.566.59c.209 8.064 2.751 14.066 7.557 17.838 7.185 5.64 17.05 4.512 19.577 4.105.393 1.931 1.33 3.269 2.794 3.98 3.396 1.651 8.566-.688 10.266-1.555 1.157 2.317 2.663 3.694 4.484 4.095.38.083.755.12 1.12.12"/>
        <path fill="#F0A85F" d="M217 171s1.211 1.184.968 5"/>
        <path fill="#0A0B09" d="M218.49 176c.246 0 .454-.228.475-.53.274-3.97-1.14-5.3-1.201-5.354-.211-.192-.51-.14-.669.116-.156.252-.116.61.09.803.031.031 1.05 1.104.828 4.34-.022.317.173.597.436.623l.04.002"/>
        <path fill="#F0A85F" d="M214.642 173s1.137 4.125-.642 5"/>
        <path fill="#0A0B09" d="M214.615 178a.644.644 0 0 0 .34-.096c1.623-1.012.912-4.713.753-5.445-.068-.31-.394-.51-.724-.448-.333.063-.547.366-.48.676.33 1.521.432 3.849-.23 4.262a.55.55 0 0 0-.17.796.626.626 0 0 0 .51.255"/>
        <path fill="#F0A85F" d="M217 171s1.211 1.184.968 5"/>
        <path fill="#32454C" d="M218.49 176c.246 0 .454-.228.475-.53.274-3.97-1.14-5.3-1.201-5.354-.211-.192-.51-.14-.669.116-.156.252-.116.61.09.803.031.031 1.05 1.104.828 4.34-.022.317.173.597.436.623l.04.002"/>
        <path fill="#F0A85F" d="M214.642 173s1.137 4.125-.642 5"/>
        <path fill="#32454C" d="M214.615 178a.644.644 0 0 0 .34-.096c1.623-1.012.912-4.713.753-5.445-.068-.31-.394-.51-.724-.448-.333.063-.547.366-.48.676.33 1.521.432 3.849-.23 4.262a.55.55 0 0 0-.17.796.626.626 0 0 0 .51.255"/>
        <path fill="#FF5C62" d="M237.299 114.322s0-1.851-2.299-1.697c0 0 .92-2.16 2.299-2.623 0 0-1.84-12.652 15.941-20.059 17.78-7.406 30.502-.617 32.648 17.899 0 0 7.51-1.543 9.81.925 2.299 2.47 7.204 12.807-2.453 20.213-9.656 7.406-6.437.463-10.27 6.635-3.831 6.171-13.948 2.777-18.546 7.869-4.598 5.091-27.13-29.162-27.13-29.162"/>
        <path fill="#FFFFFE" d="M265.37 88.553c-3.247.308-5.019-.952-5.02-.952 13.946-2.834 23.577 4.424 25.426 20.24 0 0 7.575-1.544 9.893.925 2.32 2.469 7.266 12.807-2.473 20.213-9.74 7.407-6.493.464-10.358 6.636-3.864 6.171-14.067 2.777-18.705 7.869-.974 1.07-2.747.402-4.94-1.319-10.937-28.322 22.613-21.753 22.177-35.25-.464-14.35-12.754-18.67-16-18.362"/>
        <path fill="#32454C" d="M285.792 131.62c-.945 0-1.438.498-3.1 3.134-1.916 3.039-5.53 3.585-9.354 4.164-3.463.523-7.043 1.064-9.37 3.602-.205.222-.454.326-.784.326-5.043.001-20.174-20.962-25.698-29.213-.076-.633-.523-1.76-1.962-2.028.378-.613.948-1.333 1.576-1.541a.577.577 0 0 0 .392-.63c-.004-.03-.417-3.094 1.307-6.986 2.288-5.165 7.298-9.454 14.487-12.402 4.68-1.919 9.055-2.892 13.006-2.892 10.884 0 17.726 7.2 19.265 20.275.02.16.105.306.237.4.132.095.298.131.458.099.023-.005 2.324-.464 4.718-.464 2.308 0 3.926.42 4.678 1.216 1.194 1.263 3.534 5.367 3.144 9.997-.305 3.622-2.174 6.754-5.556 9.307-4.34 3.278-5.995 3.657-6.862 3.657a5.3 5.3 0 0 1-.307-.01c-.098-.006-.188-.01-.275-.01zM263.183 144h.001c.654 0 1.223-.243 1.645-.704 2.05-2.234 5.273-2.722 8.685-3.238 3.916-.592 7.966-1.204 10.165-4.692 1.521-2.411 1.824-2.592 2.113-2.592.066 0 .135.004.21.008.112.007.235.013.372.013 1.123 0 2.998-.442 7.568-3.892 3.654-2.76 5.677-6.168 6.01-10.13.408-4.837-1.903-9.242-3.454-10.882-.992-1.049-2.852-1.58-5.528-1.58-1.773 0-3.458.231-4.332.375C284.895 93.53 277.505 86 266.292 86c-4.105 0-8.63 1.002-13.45 2.98-9.485 3.889-13.468 9.256-15.14 13.075-1.462 3.337-1.47 6.069-1.404 7.103-1.248.678-2.035 2.281-2.216 2.68a.58.58 0 0 0 .5.872h.005l.039-.002c.08-.005.156-.008.23-.008 1.436 0 1.477 1.01 1.477 1.125 0 .113.034.224.097.319.05.074 5.022 7.502 10.724 14.833 3.357 4.315 6.308 7.756 8.773 10.228 3.217 3.226 5.591 4.795 7.256 4.795z"/>
        <path fill="#99373B" d="M256.763 148l7.237-4.1s-21.58-30.25-28.597-32.748c-7.015-2.498 14.188 26.543 21.36 36.848"/>
        <path fill="#32454C" d="M262.567 144.148l-6.172 3.5c-.797-1.141-1.736-2.474-2.804-3.989-3.841-5.45-9.102-12.915-13.173-19.266-6.552-10.224-6.368-11.955-6.23-12.22.044-.011.213-.026.595.11 6.23 2.22 24.888 27.848 27.784 31.865zM256.221 149a.577.577 0 0 0 .286-.076l7.198-4.081a.583.583 0 0 0 .186-.846c-.88-1.236-21.65-30.293-28.718-32.812-.349-.125-.648-.185-.914-.185-.674 0-.977.39-1.097.623-.512.992-.158 3.374 6.355 13.521 4.073 6.346 9.305 13.768 13.124 19.188 1.205 1.71 2.246 3.187 3.103 4.418a.58.58 0 0 0 .477.25z"/>
        <path fill="#FF5C62" d="M257 89.495s-30.147-12.69-37.526-7.05c-7.378 5.64 14.92 34.468 23.126 28.827 0 0 1.703-1.88 1.703-3.446 0-1.567 5.574-.627 6.813-2.35"/>
        <path fill="#FFC2C4" d="M219.786 83.192c2.031-1.983 29.197 11.977 33.498 16.038.326.308 1.51.854 1.716 1.166l-3.1 5.09-.027.033c-.389.317-.667.51-.721.548-1.931.924-6.022.42-6.022 1.765 0 1.565-1.692 3.442-1.692 3.442-7.86 5.428-28.728-21.12-23.652-28.082"/>
        <path fill="#FF5C62" d="M257 96.753s-.539 5.535-3.619 3.968C250.55 99.278 229.397 83.8 220 83c0 0 9.254.101 16.013 1.714C242.77 86.327 257 96.754 257 96.754"/>
        <path fill="#32454C" d="M240.61 112c1.05 0 1.986-.275 2.791-.828a.594.594 0 0 0 .102-.088c.189-.21 1.848-2.089 1.848-3.825.163-.273 1.567-.433 2.406-.528 1.722-.196 3.502-.398 4.27-1.467a.588.588 0 0 0-.127-.816.574.574 0 0 0-.808.129c-.468.651-2.13.84-3.465.992-1.765.2-3.433.39-3.433 1.69 0 1.056-1.041 2.463-1.498 2.984-4.04 2.657-12.343-4.063-18.071-12.14-4.32-6.093-7.306-13.288-4.237-15.631 7.004-5.347 36.514 6.963 36.811 7.088a.577.577 0 0 0 .756-.315.587.587 0 0 0-.311-.765c-1.239-.52-30.425-12.69-37.953-6.941-3.944 3.01-.314 11.171 3.993 17.245 3.018 4.255 6.688 8.064 10.07 10.449 2.607 1.838 4.925 2.767 6.856 2.767"/>
        <path fill="#FF8D91" d="M281 132.862s-3.51.96-5.32 3.162c-1.81 2.203-9.8 3.592-11.459-1.581-1.659-5.174 6.405-6.313 11.345-4.862 4.94 1.45 5.434 3.281 5.434 3.281"/>
        <path fill="#32454C" d="M280.51 132.474c-1.22.448-3.66 1.526-5.141 3.4-.749.947-3.012 1.926-5.502 1.927-1.649 0-4.553-.449-5.48-3.453-.355-1.15-.244-2.133.33-2.922 1.013-1.394 3.447-2.227 6.51-2.227 1.499 0 3.03.216 4.314.607 3.131.956 4.443 2.047 4.97 2.668zM269.866 139c2.636 0 5.34-1 6.429-2.377 1.757-2.222 5.238-3.23 5.272-3.24a.6.6 0 0 0 .413-.73c-.061-.238-.757-2.366-6.097-3.995-1.411-.43-3.021-.658-4.656-.658-3.439 0-6.23 1.015-7.465 2.716-.798 1.097-.973 2.477-.507 3.99.842 2.729 3.252 4.294 6.611 4.294zM298.793 118.849s1.381-10.712-2.987-11.656c-4.37-.945-4.806 1.888-4.806 1.888s4.955 11.35 7.793 9.768"/>
        <path fill="#0A0B09" d="M271.542 110c.283 0 .521-.23.54-.529.075-1.234.364-2.795 1.312-3.22 1.192-.533 3.088.776 3.718 1.325.229.2.57.168.762-.07a.581.581 0 0 0-.068-.796c-.113-.099-2.798-2.41-4.839-1.497-1.166.522-1.828 1.931-1.966 4.187a.557.557 0 0 0 .506.599l.035.001"/>
        <path fill="#FFFFFE" d="M285 132.957s-9.311 1.107-14-7.957"/>
        <path fill="#32454C" d="M284.564 134c.576 0 .918-.036.936-.038.308-.037.53-.33.497-.655-.035-.326-.312-.56-.621-.525-.37.043-8.92.917-13.322-7.476a.547.547 0 0 0-.764-.232.61.61 0 0 0-.22.807c3.89 7.416 10.958 8.119 13.494 8.119"/>
        <path fill="#0A0B09" d="M256.885 96.629s-.02.17-.08.488c-.064.317-.163.784-.358 1.352a6.18 6.18 0 0 1-.392.906c-.17.31-.38.64-.682.894-.147.131-.32.234-.509.3-.188.07-.395.097-.607.073-.106-.002-.212-.036-.32-.057-.105-.038-.215-.065-.32-.118-.109-.051-.204-.093-.316-.161a6.514 6.514 0 0 1-.328-.195c-.864-.54-1.796-1.18-2.777-1.846l-3.097-2.094a287.438 287.438 0 0 0-6.807-4.452c-1.167-.747-2.35-1.469-3.514-2.184a80.72 80.72 0 0 0-3.472-2.01 54.903 54.903 0 0 0-3.362-1.678 45.278 45.278 0 0 0-3.11-1.307c-.484-.193-.965-.344-1.414-.502-.455-.144-.888-.279-1.296-.395-.415-.103-.799-.207-1.158-.289l-.995-.191c-.608-.082-1.082-.144-1.412-.144l-.5-.019a.058.058 0 0 0-.059.056l.045.059h.005l.484.106c.156.04.352.064.576.134l.769.214.94.312c.34.119.704.262 1.093.406l1.227.507c.425.196.878.385 1.342.605.465.217.95.44 1.445.693.5.238 1.01.498 1.535.767.524.267 1.057.557 1.608.839.543.3 1.108.582 1.672.894 1.138.603 2.31 1.24 3.5 1.887 1.188.654 2.385 1.337 3.574 2.035a285.763 285.763 0 0 1 6.923 4.223l3.162 1.989c1.012.628 1.957 1.224 2.873 1.746.442.249.94.51 1.461.523.522.042 1.015-.193 1.336-.501.333-.307.54-.67.707-1.004.164-.338.275-.663.363-.958.173-.59.252-1.067.3-1.391.047-.325.06-.5.06-.5a.058.058 0 0 0-.053-.063.059.059 0 0 0-.062.05"/>
    </g>
</svg>
