<svg xmlns="http://www.w3.org/2000/svg" xmlns:xlink="http://www.w3.org/1999/xlink" width="722" height="625" viewBox="0 0 722 625">
    <defs>
        <path id="a" d="M0 0h730v630H0z"/>
        <linearGradient id="c" x1="50%" x2="50%" y1="0%" y2="62.906%">
            <stop offset="0%" stop-color="#6F7C81"/>
            <stop offset="12.014%" stop-color="#6F7C81" stop-opacity=".578"/>
            <stop offset="39.677%" stop-color="#6F7C81" stop-opacity=".093"/>
            <stop offset="100%" stop-color="#6F7C81" stop-opacity="0"/>
        </linearGradient>
        <linearGradient id="d" x1="50%" x2="50%" y1="0%" y2="62.906%">
            <stop offset="0%" stop-color="#6F7C81"/>
            <stop offset="12.014%" stop-color="#6F7C81" stop-opacity=".578"/>
            <stop offset="39.677%" stop-color="#6F7C81" stop-opacity=".093"/>
            <stop offset="100%" stop-color="#6F7C81" stop-opacity="0"/>
        </linearGradient>
        <linearGradient id="e" x1="50%" x2="50%" y1="0%" y2="62.906%">
            <stop offset="0%" stop-color="#6F7C81"/>
            <stop offset="12.014%" stop-color="#6F7C81" stop-opacity=".578"/>
            <stop offset="39.677%" stop-color="#6F7C81" stop-opacity=".093"/>
            <stop offset="100%" stop-color="#6F7C81" stop-opacity="0"/>
        </linearGradient>
    </defs>
    <g fill="none" fill-rule="evenodd" transform="translate(-4 -5)">
        <mask id="b" fill="#fff">
            <use xlink:href="#a"/>
        </mask>
        <g mask="url(#b)">
            <path fill="#FFC2C4" d="M155.859 273.778c21.837 46.443 63.514 140.078 210.78 74.489 147.265-65.59 183.332-179.14 180.769-214.106-2.564-34.966-38.388-53.779-88.787-40.316-50.4 13.462-190.826 50.61-224.514 47.039-33.688-3.572-82.83-19.886-88.519 13.433-5.688 33.32-11.566 73.017 10.27 119.46zM637.404 144.393c13.704-10.704 41.51-31.516 8.686-74.778-32.824-43.262-73.095-46.412-84.461-42.902-11.367 3.511-14.878 16.69-6.615 32.182s31.166 58.684 32.533 70c1.367 11.314-.31 28.669 11.137 27.988 11.446-.68 25.016-1.785 38.72-12.49z" opacity=".304"/>
            <path fill="#FFC2C4" d="M616.471 170.289c8.528 1.176 25.505 3.876 29.7-22.724s-8.984-29.049-14.14-31.877c-5.154-2.829-10.58-12.48-13.28-4.195-2.7 8.284-10.275 31.333-13.849 35.725-3.574 4.391-10.35 9.785-6.18 13.619 4.171 3.834 9.222 8.276 17.75 9.452z" opacity=".304"/>
            <path fill="url(#c)" d="M135 357.882h30v815h-30z"/>
            <path fill="url(#d)" d="M577 357.882h28v815h-28z"/>
            <path fill="#FFC2C4" d="M148.632 41.059c-6.56 10.943-20.466 33.465 13.634 54.665 34.1 21.2 62.965 11.912 69.84 6.53 6.873-5.384-1.679-36.014-11.49-44.517-9.813-8.502-9.106-9.24-13.065-16.67-3.959-7.429-27.962-22.168-35.646-18.711-7.684 3.456-16.713 7.76-23.273 18.703z" opacity=".304"/>
            <path fill="#FFC2C4" d="M139.719 23.573c-6.278 10.464-10.056 20.56 22.496 40.782 32.552 20.223-6.56-8.148.012-13.298 6.572-5.15 31.045 13.857 21.68 5.742-9.364-8.115 3.79-10.244.016-17.339-3.774-7.094-14.61-37.091-21.954-33.781-7.343 3.31-15.973 7.43-22.25 17.894z" opacity=".304"/>
            <path fill="#B2B9BC" d="M96.24 310.032l528.293.218a3 3 0 0 1 2.013.777l97.687 88.485a3 3 0 0 1-2.014 5.223H7.26a3 3 0 0 1-2.118-5.124l88.98-88.704a3 3 0 0 1 2.12-.875z"/>
            <path fill="#B2B9BC" d="M4.223 394.068v7.875h7.65v-7.875zM718 394.068v7.875h7.65v-7.875z"/>
            <path fill="#6F7C81" stroke="#FFF" d="M96.244 303.557a2.5 2.5 0 0 0-1.773.73l-88.977 88.7a2.5 2.5 0 0 0 1.765 4.27h714.874a2.5 2.5 0 0 0 1.664-4.365l-97.591-87.095a2.5 2.5 0 0 0-1.658-.635l-528.304-1.605z"/>
            <path fill="#B2B9BC" d="M211.042 369.844H523c.472 0 1.01-1.17 1.611-3.512v7.48c0 .941-.537 1.613-1.611 2.014H211.847a22.253 22.253 0 0 1-3.847 0c-1.97-.167-3.581-4.58-1.79-9.088 1.193-3.006 2.804-1.97 4.832 3.106z"/>
            <path fill="#F0F2F2" d="M240 310.25l253-.219 31.452 55.33a3 3 0 0 1-2.608 4.483H209.317a3 3 0 0 1-2.568-4.551L240 310.251z"/>
            <path fill="#B2B9BC" stroke="#FFF" d="M325.922 364.86h74.421a3 3 0 0 0 2.867-3.886l-3.991-12.914a3 3 0 0 0-2.866-2.114H330.29a3 3 0 0 0-2.841 2.038l-4.37 12.914a3 3 0 0 0 2.842 3.962z"/>
            <path fill="#F0F2F2" stroke="#D9DCDE" d="M240.5 309.531h252V142.564a2.5 2.5 0 0 0-2.5-2.5H243a2.5 2.5 0 0 0-2.5 2.5V309.53z"/>
            <ellipse cx="365" cy="143.551" fill="#B2B9BC" rx="2" ry="1.994"/>
            <path fill="#32454C" d="M248 147.539h237a3 3 0 0 1 3 3V310.03H245V150.54a3 3 0 0 1 3-3z"/>
            <path fill="#FF5C62" fill-rule="nonzero" d="M272.787 224.204h9.299v4.083H266.3v-3.085l8.947-11.775h-8.684v-4.1h15.24v2.996zM250.652 197.831h10.332v4.537h-17.539v-3.427l9.942-13.084h-9.649V181.3h16.934v3.33zM222.383 166.02h12.398v5.444h-21.047v-4.112l11.93-15.7h-11.578v-5.468h20.32v3.995z"/>
            <ellipse cx="597" cy="344.424" fill="#D8D8D8" stroke="#979797" rx="27" ry="7.477"/>
            <path fill="#FF5C62" d="M597 291.09c11.046 0 20 2.009 20 4.486 0 .169-.041.335-.122.499H617v47.85h-.081c-.918 2.795-9.486 4.985-19.919 4.985s-19-2.19-19.919-4.985H577v-47.85h.122a1.119 1.119 0 0 1-.122-.499c0-2.477 8.954-4.486 20-4.486z"/>
            <ellipse cx="597" cy="295.576" fill="#A03034" stroke="#FFC2C4" rx="20" ry="4.486"/>
            <path fill="#FF5C62" d="M617.5 307.04c7.456 0 13.5 6.026 13.5 13.458 0 7.433-6.044 13.458-13.5 13.458s-13.5-6.025-13.5-13.458c0-7.432 6.044-13.458 13.5-13.458zm-3 5.982c-4.142 0-7.5 3.347-7.5 7.476 0 4.13 3.358 7.477 7.5 7.477 4.142 0 7.5-3.347 7.5-7.477 0-4.129-3.358-7.476-7.5-7.476z"/>
            <path fill="#FFF" d="M594.883 321.994c-.847 7.618 6.134 8.793 8.117 6.605-3.49 8.49-11.69-1.114-8.117-6.605zm-1.883-.997c-3.242.43-8.06 9.973-2.354 8.886-3.508-1.17.023-7.922 2.354-8.886zm0-1.9c-1.016-.491-4.721.963-5 3.894.697-1.558 2.51-3.668 5-3.894zm1-.473c-1.56-.924-3.42.137-4 .38 1.56-1.38 3.9-1.152 4-.38zm2.571-.618c1.322-1.026-.661-2.974-2.571-1.403.686-.251 2.987-.587 2.571 1.403zm.66 0c2.382-2.04.393-2.832-.231-2.873 3.33-.77 1.85 2.499.231 2.873zm.769 1.856c1.997.923 7.951-3.062 3.21-3.85 1.083.316 1.326 2.95-3.21 3.85zm-1 1.125c1.42 4.47 14.104 4.055 8.642-1.984 1.18 2.071-1.76 5.756-8.642 1.984z"/>
            <path fill="url(#e)" d="M47 404.735h36v1000H47zM647 404.735h36v1000h-36z"/>
            <path fill="#FFC2C4" d="M142.927 151.754c-16.13 11.113-30.79 27.522-12.113 32.953 18.678 5.43 52.255 9.445 52.255-7.301 0-16.747-24.012-36.765-40.142-25.652zM81.499 83.78c-8.366-4.731-18.743-7.682-17.104 1.71 1.638 9.39 7.111 25.045 14.476 21.464 7.366-3.58 10.993-18.442 2.628-23.174zM675.499 47.893c-8.366-4.732-18.743-7.683-17.104 1.709 1.638 9.391 7.111 25.046 14.476 21.465 7.366-3.582 10.993-18.443 2.628-23.174zM89.54 184.68c-5.496-3.195-12.294-5.22-11.162 1.021 1.132 6.242 4.81 16.664 9.598 14.336 4.787-2.328 7.059-12.164 1.563-15.358zM537.54 169.726c-5.496-3.194-12.294-5.22-11.162 1.022 1.132 6.242 4.81 16.664 9.598 14.336 4.787-2.328 7.059-12.164 1.563-15.358z" opacity=".378"/>
            <g>
                <path fill="#B2B9BC" d="M487.023 330.002c-4.623.041-8.916.726-12.505 1.867-24.755-2.17-66.032-1.851-112.612 1.39-75.063 5.225-135.46 16.059-134.902 24.2.222 3.23 10.023 5.551 26.45 6.85-9.658 1.314-15.645 2.851-15.588 4.285.112 2.802 23.245 4.144 51.67 2.995 28.424-1.148 51.376-4.352 51.264-7.154a.595.595 0 0 0-.107-.294 1256.185 1256.185 0 0 0 39.358-2.627c2.994 2.949 7.763 5.45 13.413 6.707 10.466 2.328 19.984-.492 21.258-6.299.27-1.232.144-2.5-.316-3.754 23.384-2.652 43.491-5.768 58.21-8.969 3.972 1.506 9.058 2.386 14.595 2.338 12.638-.112 22.841-5.024 22.789-10.97-.052-5.947-10.34-10.677-22.977-10.565"/>
                <path fill="#ECA040" d="M447 302.581s33.103-14.574 44.392-.346c10.87 13.7 10.042 42.073-40.37 23.829"/>
                <path fill="#FFFFFE" d="M462.893 329.708c-4.757-5.016-4.732-11.683-2.08-12.667 3.496-1.295-.622-4.993-3.124-7.674-2.5-2.68 2.304-5.608 6.415-8.042 2.355-1.394-2.288.055-4.884-2.07 10.85.215 23.042-6.895 29.626-.742 20.296 18.967 4.729 40.657-25.953 31.195"/>
                <path fill="#32454C" d="M478.225 294.115c-14.182-1.109-31.267 6.139-32.272 6.572a1.565 1.565 0 0 0-.821 2.065 1.587 1.587 0 0 0 2.083.814c.326-.14 32.673-13.86 43.258-.8 4.76 5.873 7.498 15.347 3.198 21.337-3.196 4.452-12.962 10.36-42.465-.092a1.587 1.587 0 0 0-2.024.95 1.566 1.566 0 0 0 .958 2.007c29.89 10.589 41.573 5.276 46.11-1.044 5.26-7.326 2.317-18.184-3.309-25.125-3.527-4.351-8.876-6.227-14.716-6.684"/>
                <path fill="#FF5C62" d="M455.557 283s-6.779-20.43 7.954-25.77c14.732-5.34 24.331-.032 27.489 4.848 0 0-1.61 11.263-10.832 12.965-9.22 1.702-24.611 7.957-24.611 7.957"/>
                <path fill="#FFFFFE" d="M456 279.391c.87 2.154 1.986 3.609 1.986 3.609s14.165-6.886 22.906-9.698c7.336-2.36 9.881-10.535 10.108-12.302-8.358.946-24.897 6.765-35 18.391"/>
                <path fill="#32454C" d="M474.696 256.109c-3.478.003-7.207.718-11.084 2.125-10.806 3.921-8.55 17.428-7.404 22.115 4.246-1.666 15.6-5.964 23.141-7.357 6.863-1.268 8.945-8.883 9.4-11.037-2.098-2.805-6.873-5.854-14.053-5.846zM455.153 284c-.226 0-.453-.047-.663-.142a1.568 1.568 0 0 1-.84-.93c-2.496-7.531-3.855-22.993 8.87-27.61 4.226-1.534 8.322-2.314 12.172-2.318 8.87-.01 14.628 4.008 17.061 7.77.202.313.284.685.232 1.052-.073.503-1.88 12.346-12.052 14.225-8.908 1.647-24.027 7.773-24.179 7.835a1.598 1.598 0 0 1-.601.118z"/>
                <path fill="#FF5C62" d="M332.817 271.4S476.792 209.091 485 320.293l-11.441 21.088S414.467 362.935 327 355.403l5.817-84.003"/>
                <path fill="#FFFFFE" d="M473.756 341.307L475 339.01c-3.255-.1-7.83.551-14.163 2.312-33.683 9.365-93.197 10.045-100.755 9.738-7.558-.308-20.718 3.983-20.718 3.983L339 356.28c80.957 4.677 134.756-14.973 134.756-14.973"/>
                <path fill="#32454C" d="M328.36 353.401a436.448 436.448 0 0 0 36.016 1.46c61.596-.07 103.198-13.528 108.43-15.31l10.98-20.12c-3.33-42.713-27.456-64.341-71.717-64.292-35.325.04-71.949 14.39-78.041 16.883l-5.669 81.38zM364.38 358a439.39 439.39 0 0 1-37.835-1.6l-1.545-.133 6.017-86.382.88-.379c.406-.174 41.036-17.461 80.168-17.506 20.437-.022 37.031 4.598 49.32 13.733 15.154 11.264 23.76 29.406 25.581 53.924l.034.46-11.998 21.988-.562.203c-.43.156-43.834 15.617-110.06 15.692z"/>
                <path fill="#FF5C62" d="M285 262.805s-26.17-45.707-42.163-42.66c-15.992 3.048-3.333 55.364 1.437 69.016 4.77 13.65 40.726-26.356 40.726-26.356"/>
                <path fill="#1B1A19" d="M244.08 221.137c-.444 0-.88.04-1.294.118-1.721.325-3.07 1.37-4.126 3.196-6.852 11.86 2.066 50.322 6.768 63.626.45 1.27 1.151 1.788 2.424 1.786 7.949-.006 27.435-19.294 35.27-27.777-7.277-12.302-26.82-40.963-39.043-40.95zM247.856 293h-.002c-2.593.003-4.508-1.376-5.394-3.88-4.358-12.33-14.424-52.566-6.527-66.234 1.52-2.63 3.628-4.215 6.268-4.713a10.232 10.232 0 0 1 1.873-.173c16.945-.019 41.322 41.73 42.351 43.508l.574.99-.77.847c-2.758 3.034-27.268 29.642-38.373 29.655z"/>
                <path fill="#FFC2C4" d="M278 265s-24.3-34.186-31.214-29.572c-6.913 4.616.76 32.205 4.501 43.572 0 0 10.148-12.564 26.713-14"/>
                <path fill="#32454C" d="M247.851 237.135c-.339 0-.513.09-.616.159-4.405 2.945-1.257 21.449 4.274 39.08 3.484-3.49 11.557-10.281 23.081-12.127-8.253-11.295-21.597-27.118-26.739-27.112zM250.834 281a1.578 1.578 0 0 1-1.506-1.081c-1.023-3.113-4.497-14.078-6.271-24.468-1.976-11.561-1.187-18.35 2.41-20.756.689-.46 1.49-.694 2.381-.695 8.719-.01 27.24 25.467 30.864 30.574.325.459.38 1.055.14 1.563a1.582 1.582 0 0 1-1.295.9c-15.584 1.353-25.394 13.256-25.492 13.376a1.586 1.586 0 0 1-1.231.587z"/>
                <path fill="#FF5C62" d="M368 350.957s32.24 24.022 41.41 9.23c9.17-14.793 1.455-31.461-31.032-27.63"/>
                <path fill="#FFFFFE" d="M408.868 360.682c6.693-11.202 4.774-30.565-27.018-28.534.378 1.77 2.407 5.08 1.115 5.751-3.271 1.7-1.983 4.384-1.292 7.344.69 2.96 1.27 5.969-1.272 6.673-1.614.447-3.6-.316-3.385 4.552 19.773 10.105 27.876 10.87 31.852 4.214"/>
                <path fill="#32454C" d="M401.706 366.869c-13.107 1.714-33.23-13.91-34.098-14.59a1.613 1.613 0 0 1-.289-2.225 1.528 1.528 0 0 1 2.174-.297c.206.162 20.745 16.132 32.48 13.855 2.507-.487 4.349-1.78 5.63-3.952 3.891-6.601 4.349-13.196 1.256-18.091-4.367-6.913-15.022-9.697-30.003-7.84-.85.106-1.622-.515-1.725-1.386-.103-.867.498-1.655 1.343-1.765.003 0 .006 0 .01-.002 16.22-2.011 27.933 1.28 32.98 9.267 3.762 5.956 3.322 13.777-1.206 21.458-1.738 2.948-4.332 4.776-7.71 5.431-.277.054-.558.1-.842.137"/>
                <path fill="#FF5C62" d="M376.856 303.878s-5.12 2.961-6.7 1.686c1.106-12.534-.131-28.862-8.155-41.228.508-23.056-2.265-70.432-18.773-69.317-14.577.985-27.559 36.214-32.72 52.224-4.636.708-9.611 1.774-14.951 3.24-69.892 19.183-49.914 88.079-49.914 88.079 45.798 30.984 75.79 30.813 94.845 19.358 0 0 30.016-14.36 30.055-26.182l-4.036.005s11.93-20.587 10.349-27.865"/>
                <path fill="#FFFFFE" d="M314.057 322.692c-54.615 14.68-16.548-70.671-6.106-74.692-4.248.7-8.765 1.683-13.59 3.002-5.772 1.577-10.92 3.498-15.527 5.684 9.327 9.629-10.95 54.357-10.95 54.357L250 342.31c42.68 27.178 71.011 26.58 89.282 15.643 4.876-6.108 29.445-49.957-25.225-35.262"/>
                <path fill="#32454C" d="M246.623 337.036c25.46 17.15 47.903 25.837 66.708 25.817h.004c9.603-.011 18.293-2.316 25.832-6.85a1.45 1.45 0 0 1 .131-.07c7.619-3.649 26.688-14.501 28.91-23.164l-2.248.002a1.57 1.57 0 0 1-1.362-.788 1.577 1.577 0 0 1 .002-1.575c2.873-4.962 9.618-17.913 10.232-24.563-1.259.548-2.82 1.087-4.099 1.089-.855 0-1.566-.224-2.116-.668a1.577 1.577 0 0 1-.578-1.363c.812-9.212.867-26.685-7.897-40.197a1.574 1.574 0 0 1-.253-.892c.428-19.46-1.48-55.086-11.352-65.185-1.762-1.804-3.623-2.608-5.72-2.467-9.49.642-21.185 19.741-31.288 51.092-.182.567-.67.983-1.257 1.073-4.645.71-9.608 1.786-14.753 3.199-20.291 5.572-34.808 15.955-43.146 30.863-13.007 23.253-6.808 50.503-5.75 54.647zM313.338 366h-.003c-19.566.02-42.766-8.957-68.958-26.685a1.573 1.573 0 0 1-.629-.864c-.367-1.266-8.814-31.295 5.87-57.576 8.763-15.683 23.926-26.578 45.07-32.384 4.91-1.349 9.666-2.398 14.15-3.125 6.37-19.552 18.969-51.344 33.767-52.343 3.04-.202 5.775.946 8.177 3.403 12.733 13.028 12.394 59.595 12.257 66.976 8.575 13.549 8.952 30.507 8.245 40.326 1.287-.234 3.189-1.136 4.226-1.734a1.571 1.571 0 0 1 2.319 1.029c1.383 6.372-5.968 20.736-9.182 26.598l1.341-.001a1.574 1.574 0 0 1 1.573 1.578c-.04 12.358-27.378 25.88-30.841 27.542-8.018 4.806-17.231 7.249-27.382 7.26z"/>
                <path fill="#FF5C62" d="M458 338.083s31.868 17.184 44.204 3.842c11.878-12.847 13.224-41.29-38.4-27.013"/>
                <path fill="#FFFFFE" d="M475.511 312.355c-5.069 4.717-5.565 11.476-3.035 12.677 3.336 1.582-1.001 5.012-3.67 7.536-2.67 2.524 1.827 5.862 5.677 8.644 2.207 1.595-2.245-.231-4.964 1.722 10.686.618 22.115 8.763 29.07 3.035 21.435-17.657 7.826-40.838-23.078-33.614"/>
                <path fill="#32454C" d="M488.474 349c-14.212.016-30.665-8.55-31.633-9.061a1.571 1.571 0 0 1-.656-2.13 1.585 1.585 0 0 1 2.14-.653c.312.165 31.46 16.382 43.024 4.135 5.2-5.506 8.668-14.77 4.853-21.093-2.836-4.7-12.102-11.361-42.306-3.183a1.583 1.583 0 0 1-1.942-1.106 1.574 1.574 0 0 1 1.112-1.933c30.6-8.287 41.822-2.073 45.848 4.6 4.666 7.731.887 18.365-5.26 24.874-3.853 4.08-9.328 5.544-15.18 5.55"/>
                <path fill="#FFFFFE" d="M266.875 312s-79.228 32.295-29.446 49.72c42.28 14.8 54.315.79 62.571-14.694"/>
                <path fill="#32454C" d="M268.537 370c-8.125.01-18.258-1.878-31.087-6.445-11.416-4.062-17.286-9.394-17.447-15.847-.444-17.817 44.837-36.79 46.764-37.589a1.566 1.566 0 0 1 2.052.871 1.6 1.6 0 0 1-.86 2.077c-12.573 5.214-45.135 21.585-44.81 34.561.125 4.995 5.287 9.343 15.344 12.923 41.309 14.702 52.56 1.067 60.544-14.158a1.564 1.564 0 0 1 2.127-.66 1.603 1.603 0 0 1 .652 2.154c-5.825 11.107-13.75 22.09-33.279 22.113M303.583 314c-6.96.008-12.085-6.96-12.304-7.262-.494-.682-.315-1.617.4-2.087.716-.472 1.695-.3 2.189.38.072.1 4.586 6.16 9.98 5.963 3.267-.127 6.368-2.565 9.217-7.246.436-.717 1.399-.96 2.15-.546.752.416 1.009 1.335.572 2.051-3.427 5.634-7.407 8.574-11.826 8.74a9.984 9.984 0 0 1-.378.007"/>
                <path fill="#32454C" d="M256.57 315c-5.837.006-10.11-6.087-10.292-6.351a1.57 1.57 0 0 1 .4-2.183 1.567 1.567 0 0 1 2.18.397c.036.052 3.638 5.192 7.916 4.993 2.568-.105 5.024-2.15 7.3-6.074a1.568 1.568 0 1 1 2.714 1.575c-2.854 4.921-6.185 7.49-9.9 7.636a7.76 7.76 0 0 1-.319.007M242.32 357s43.077-21.221-1.6-26c-36.28 5.613 1.6 26 1.6 26"/>
                <path fill="#FFC2C4" d="M320 249.205s14.194-39.801 21.88-37.07c7.685 2.73 7.473 31.757 6.84 43.865 0 0-12.753-9.682-28.72-6.795"/>
                <path fill="#32454C" d="M326.515 245.743c9.704-.012 17.53 3.76 21.248 5.945.734-18.298-1.002-36.83-5.908-38.534a.86.86 0 0 0-.28-.045c-.916 0-4.49 1.248-12.048 17.25-2.887 6.111-5.347 12.276-6.615 15.566a36.428 36.428 0 0 1 3.603-.182zM349.182 256c-.324 0-.647-.102-.917-.302-.11-.081-9.441-6.86-21.746-6.846a33.096 33.096 0 0 0-5.708.5 1.536 1.536 0 0 1-1.451-.534 1.562 1.562 0 0 1-.265-1.533c.033-.091 3.38-9.236 7.643-18.262 8.05-17.045 12.32-19.02 14.833-19.023.443 0 .877.072 1.292.216 4.006 1.391 6.476 7.697 7.553 19.276.969 10.407.48 21.795.306 25.037-.03.57-.37 1.079-.883 1.322-.21.1-.434.149-.657.149z"/>
            </g>
        </g>
    </g>
</svg>
