<svg xmlns="http://www.w3.org/2000/svg" width="100" height="100" viewBox="0 0 100 100">
    <path fill="#FFF" fill-rule="nonzero" d="M5.602 0C2.532 0 0 2.531 0 5.602V80c0 1.102.898 2 2 2h52a2.012 2.012 0 0 0 1.758-.992c.36-.625.36-1.39 0-2.016-.367-.625-1.04-1-1.758-.992H4V18h80v36c-.008.719.367 1.39.992 1.758.625.36 1.39.36 2.016 0 .625-.367 1-1.04.992-1.758V5.602C88 2.532 85.469 0 82.398 0H5.602zm0 4h76.796C83.328 4 84 4.672 84 5.602V14H4V5.602C4 4.672 4.672 4 5.602 4zM14 30v4h8v-4h-8zm14 0v4h46v-4H28zM14 40v4h8v-4h-8zm14 0v4h46v-4H28zM14 50v4h8v-4h-8zm14 0v4h46v-4H28zM14 60v4h8v-4h-8zm14 0v4h34.148a24.137 24.137 0 0 1 4.594-4H28zm50 0v6a1.99 1.99 0 0 0 .992 1.75c.625.367 1.39.367 2.016 0 .625-.36 1-1.031.992-1.75v-1.602c7.914 1 14 7.383 14 15.602 0 8.93-7.07 16-16 16s-16-7.07-16-16c0-4.805 2.14-9.07 5.328-11.906a2 2 0 0 0 .688-1.922 2.013 2.013 0 0 0-1.36-1.524 2.011 2.011 0 0 0-1.984.454A19.944 19.944 0 0 0 60 80c0 11.07 8.93 20 20 20s20-8.93 20-20-8.93-20-20-20h-2zm-6.023 9.977c-.813.007-1.54.5-1.852 1.25a2.001 2.001 0 0 0 .46 2.187l5.556 5.555c-.094.336-.141.68-.141 1.031 0 2.21 1.79 4 4 4s4-1.79 4-4-1.79-4-4-4c-.352 0-.695.047-1.031.133l-5.555-5.547a2.016 2.016 0 0 0-1.437-.61z" opacity=".5"/>
</svg>
