<svg xmlns="http://www.w3.org/2000/svg" width="140" height="28" viewBox="0 0 140 28">
    <path fill="#FFF" fill-rule="nonzero" d="M42.027 12.52h-4.333V7.941h-2.708V19.52h2.708v-4.846h4.333v4.846h2.708V7.942h-2.708v4.577zm-24.913-4.2l6.77 3.93V3.42L17.114 0v8.32zm-8.8 10.122h8.8v5.843l6.77 3.607V14.835l-22.422-.108s6.851 3.77 6.851 3.715zm7.013-9.046H6.553v-5.87L.054 0v13.058h22.043l-6.77-3.662zM.054 24.285l6.5 3.419V19.6l-6.5-3.85v8.535zm57.977-14.97c-.515-.511-1.137-.888-1.841-1.157-.705-.27-1.463-.377-2.248-.377-.785 0-1.516.134-2.22.377-.705.269-1.327.646-1.842 1.157-.542.512-.948 1.158-1.273 1.912-.325.754-.46 1.615-.46 2.611 0 .997.162 1.858.46 2.612a5.467 5.467 0 0 0 1.246 1.885c.515.511 1.137.888 1.841 1.157.704.27 1.463.377 2.248.377a7.11 7.11 0 0 0 2.302-.377c.704-.269 1.327-.646 1.841-1.157a5.41 5.41 0 0 0 1.219-1.885c.298-.754.433-1.615.433-2.612 0-.996-.163-1.857-.46-2.611-.298-.754-.704-1.4-1.246-1.912zm-1.219 6.058a3.75 3.75 0 0 1-.595 1.185c-.271.323-.596.592-.975.754-.38.188-.813.269-1.3.269-.487 0-.92-.081-1.3-.27a2.963 2.963 0 0 1-.975-.753c-.27-.323-.46-.727-.595-1.185a5.388 5.388 0 0 1-.217-1.535c0-.565.081-1.076.217-1.534a3.75 3.75 0 0 1 .595-1.185c.271-.323.596-.592.975-.78.38-.189.813-.27 1.3-.27.487 0 .92.081 1.3.27.379.188.704.43.975.753.27.323.46.727.595 1.185.136.458.217.97.217 1.535 0 .592-.054 1.103-.217 1.561zm64.828-.7h4.604V12.52h-4.604v-2.154h5.145V7.942h-7.853V19.52h8.395v-2.154h-5.687v-2.692zm17.656 3.608c-.244-.431-.487-.835-.731-1.239-.244-.404-.515-.78-.758-1.157-.271-.377-.515-.7-.732-.997.704-.296 1.246-.673 1.625-1.184.38-.512.569-1.158.569-1.992 0-1.293-.46-2.262-1.408-2.881-.921-.62-2.275-.916-4.035-.916-.488 0-1.083.027-1.679.081-.623.054-1.273.135-1.814.242v11.308h2.708v-4.038h1.3c.216.269.46.538.676.861.217.323.46.646.677 1.023.244.377.46.673.677 1.077.217.404.434.808.65 1.077h2.925c-.217-.296-.433-.834-.65-1.265zm-3.412-5.331c-.433.242-1.137.377-2.112.377h-.758v-3.15c.27 0 .27-.027.433-.027.162 0 .325-.027.514-.027.84 0 1.49.108 1.923.35.433.242.65.646.65 1.212 0 .619-.217 1.023-.65 1.265zm-65.83 1.077c-.298-.296-.677-.539-1.11-.754-.46-.215-.975-.43-1.57-.673-.299-.108-.57-.188-.813-.296-.244-.108-.46-.189-.65-.323a1.25 1.25 0 0 1-.433-.404c-.109-.135-.163-.323-.163-.539 0-.35.136-.619.406-.807.271-.162.732-.27 1.354-.27.57 0 1.03.054 1.436.189.406.135.758.27 1.083.43l.758-2.045c-.38-.189-.84-.377-1.408-.566-.569-.161-1.246-.242-2.031-.242-.65 0-1.246.08-1.787.242a4.291 4.291 0 0 0-1.354.7c-.38.296-.65.673-.867 1.104-.19.43-.298.915-.298 1.454 0 .538.109.996.298 1.373.19.377.433.7.731.942.298.27.65.485 1.03.646.378.162.758.324 1.137.458.866.296 1.49.566 1.841.808.352.242.542.565.542.942 0 .189-.027.35-.082.485a.97.97 0 0 1-.297.377c-.136.107-.352.188-.57.242-.243.054-.54.08-.92.08a7.42 7.42 0 0 1-1.868-.215c-.515-.161-.948-.323-1.3-.511l-.731 2.073c.162.08.352.188.568.296.217.108.515.189.813.296.325.081.677.162 1.11.216.406.053.894.08 1.408.08 1.544 0 2.681-.296 3.44-.888.758-.592 1.137-1.427 1.137-2.53 0-.566-.082-1.024-.217-1.428a2.296 2.296 0 0 0-.623-.942zm42.65 3.527c-.27.027-.352.054-.569.054-.216 0-.46.027-.758.027-.541 0-1.002-.081-1.408-.27a2.593 2.593 0 0 1-1.002-.78c-.27-.323-.46-.727-.596-1.185-.135-.458-.19-.97-.19-1.535 0-1.184.272-2.1.813-2.773.542-.673 1.435-1.023 2.654-1.023.542 0 1.056.081 1.516.216.46.134.867.296 1.246.484l.758-2.1c-.081-.054-.243-.134-.433-.242-.217-.108-.46-.189-.785-.296a5.983 5.983 0 0 0-1.138-.243c-.433-.08-.947-.107-1.489-.107-.812 0-1.57.134-2.275.404a5.649 5.649 0 0 0-1.868 1.184 5.584 5.584 0 0 0-1.246 1.912c-.298.754-.46 1.615-.46 2.584 0 .97.135 1.804.406 2.558.27.754.677 1.373 1.164 1.885.515.511 1.11.915 1.815 1.184.704.27 1.516.404 2.383.404 1.029 0 1.95-.08 2.626-.215.705-.135 1.03-.27 1.571-.404v-5.654h-2.708v3.93h-.027zm-39.807-7.189h3.52v9.154h2.438v-9.154h3.52V7.942h-9.478v2.423zm12.457 9.154h2.708V7.942h-2.708V19.52zm14.081-4.63c-.541-.593-.866-1.239-1.327-1.885a57.237 57.237 0 0 0-1.408-1.885c-.46-.619-.92-1.238-1.38-1.777-.461-.538-.867-.861-1.246-1.4h-2.248V19.52h2.708v-7.484c1.083 1.157 1.922 2.315 2.789 3.607.867 1.293 1.679 2.8 2.437 3.877h2.085V7.942h-2.437v6.946h.027z"/>
</svg>
