<?xml version="1.0" encoding="UTF-8"?>
<svg width="90px" height="19px" viewBox="0 0 90 19" version="1.1" xmlns="http://www.w3.org/2000/svg" xmlns:xlink="http://www.w3.org/1999/xlink">
    <!-- Generator: Sketch 56.2 (81672) - https://sketch.com -->
    <title>beebom</title>
    <desc>Created with Sketch.</desc>
    <g id="Page-1" stroke="none" stroke-width="1" fill="none" fill-rule="evenodd">
        <g id="beebom" fill="#FFFFFF" fill-rule="nonzero">
            <path d="M43.3592871,0.0455998191 C42.9071158,0.132609817 42.4391302,0.525930519 42.2839159,0.949438362 C42.1351445,1.35430121 42.1330945,17.2401367 42.281573,17.6447036 C42.521423,18.2975745 42.9718372,18.5734022 43.7985728,18.5734022 C44.8546154,18.5734022 45.3659439,18.095439 45.4221725,17.0554624 L45.445601,16.62278 L45.5984724,16.8308345 C47.6692649,19.6518526 52.2638998,19.2055564 54.0758066,16.0069032 C55.3769707,13.7106087 55.3725778,10.2242898 54.0661423,7.99310484 C53.7782638,7.50093604 52.7579497,6.36536677 52.6039069,6.36536677 C52.5834068,6.36536677 52.4390283,6.28131629 52.2826426,6.17862086 C50.187543,4.80273825 46.9470793,5.30171395 45.6268796,7.20379987 L45.5068082,7.3763401 L45.482501,4.19485208 L45.4581939,1.01336408 L45.3129368,0.748486701 C44.9937226,0.166052435 44.205937,-0.117469938 43.3592871,0.0455998191 M1.38320197,0.131426007 C0.619430681,0.304854097 0.320130736,0.541615995 0.111616489,1.13677621 C-0.0365691984,1.55910025 -0.0374477696,16.9646051 0.11044506,17.4541103 C0.224073611,17.8299698 0.469194995,18.1300655 0.803344932,18.3026057 L1.04143775,18.425426 L5.38538695,18.425426 L9.72962901,18.425426 L10.2421289,18.3091167 C13.2638284,17.623395 14.7635495,15.709767 14.487971,12.8917085 C14.3063996,11.0360871 13.2067212,9.59775861 11.5737501,9.07954597 C11.3784144,9.01739601 11.332143,8.93009005 11.4943858,8.93009005 C11.8724643,8.93009005 13.0799141,7.90550293 13.500164,7.22836391 C14.1637782,6.1584961 14.2577853,4.19248446 13.705164,2.93705449 C13.3683783,2.17260952 12.6781142,1.42503382 11.9260572,1.0107005 C10.4436146,0.19416791 10.039179,0.140896483 5.21465126,0.122843389 C3.1608445,0.115444579 1.43679482,0.119013353 1.38320197,0.131426007 M8.79980774,2.91692974 C10.1932218,3.2427733 10.8208145,3.95276304 10.8448288,5.23068538 C10.8682573,6.46569462 10.327936,7.20202412 9.08417197,7.63115505 L8.70462918,7.76196602 L6.00770829,7.78268268 L3.31108019,7.80369528 L3.31108019,5.30881681 L3.31108019,2.81393831 L5.83462972,2.81393831 C8.22200073,2.81393831 8.38190069,2.81926545 8.79980774,2.91692974 M21.4682197,5.41062442 C20.7826413,5.47573395 19.8800557,5.69266703 19.4352058,5.89924181 C19.3505701,5.93860348 19.2691558,5.97056634 19.254513,5.97056634 C19.1968201,5.97056634 18.3680345,6.47190964 18.3525132,6.51600655 C18.3437274,6.54145843 18.3106346,6.56247103 18.2792989,6.56247103 C18.1076846,6.56247103 17.0979133,7.66341386 16.7971491,8.17866695 C15.8072922,9.87329022 15.504478,12.5747435 16.1039564,14.361112 C16.1549136,14.5129356 16.1967921,14.6623916 16.1967921,14.6928746 C16.1967921,14.7452582 16.6217277,15.6464331 16.7479492,15.8621824 C17.1784491,16.5970322 17.9193775,17.3096855 18.8325059,17.8669638 C20.4069056,18.8276252 23.5518979,18.9391993 25.4109547,18.1001743 C25.5257547,18.0483826 25.6428975,18.0060614 25.6710118,18.0060614 C25.7471546,18.0060614 26.5522188,17.5949836 26.7434545,17.4582536 C27.3830543,17.001895 27.64399,16.2475125 27.3836401,15.6079594 C27.0767258,14.8529848 26.5006759,14.7437784 25.5023261,15.2504489 C25.3371547,15.3342034 25.1473833,15.4209175 25.0800262,15.4431139 C25.0129619,15.4653103 24.7939048,15.5529122 24.5932977,15.6375546 C22.7881266,16.3987441 20.9150127,16.2309391 19.9875343,15.224997 C19.8126986,15.0355875 19.5157415,14.6262854 19.5157415,14.5747896 C19.5157415,14.5623596 19.4744487,14.4581844 19.4240772,14.3430589 C19.2714987,13.9959068 19.1341487,13.4643763 19.0995916,13.0876289 L19.0670844,12.7315982 L23.0130409,12.7176885 L26.9592901,12.7034828 L27.139983,12.590133 C27.5081043,12.3586983 27.5458829,12.229663 27.5385615,11.2237209 C27.5245043,9.21657191 26.670533,7.33934601 25.3737618,6.46391893 C25.3134333,6.42307751 25.2126905,6.35027318 25.1503119,6.30203295 C24.4093835,5.73025298 22.6326195,5.29993823 21.4682197,5.41062442 M34.3296245,5.40884871 C31.9475249,5.64738632 29.984211,7.01675795 29.2459183,8.95495003 C28.9551112,9.71821122 28.9015184,9.90554903 28.7369327,10.7306643 C28.5650255,11.5927735 28.7413256,14.0216547 29.0151469,14.5632475 C29.0520469,14.6363477 29.082504,14.7313484 29.082504,14.7736696 C29.082504,14.8964899 29.4725897,15.6769163 29.7364539,16.082371 C31.4274107,18.6805369 35.3320743,19.4396547 38.8618808,17.8566055 C40.066402,17.3161965 40.5496162,16.5378417 40.236552,15.641402 C39.9237806,14.7461461 39.2294165,14.7263173 37.6655596,15.5685977 C37.5941024,15.6070715 37.5115167,15.6384424 37.4819382,15.6384424 C37.4520668,15.6384424 37.3346311,15.678988 37.2210025,15.728412 C35.7204028,16.3812829 33.8004317,16.1886179 32.8978462,15.2945458 C32.3759749,14.777517 31.9208749,13.6425397 31.9144321,12.8408047 L31.9135535,12.7315982 L35.8548242,12.7176885 L39.7960949,12.7034828 L39.9797163,12.5883573 C40.7991304,12.0734002 40.4453591,9.25238215 39.3632521,7.67436411 C38.2972523,6.12002227 36.2826884,5.21322419 34.3296245,5.40884871 M62.0778337,5.40944061 C58.1063987,5.75866441 55.9120205,8.48201815 56.1802776,12.7283428 C56.4256919,16.6165651 59.2169125,18.9545888 63.2445762,18.6462064 C65.2611904,18.4917193 66.7767255,17.7006386 67.8266182,16.2549112 C68.1985467,15.7426177 68.5517324,14.9479856 68.7909968,14.0846925 C69.0659895,13.0932521 69.0662823,10.8040605 68.7915824,10.0215624 C68.7499966,9.90288549 68.7157323,9.76704335 68.7157323,9.71969096 C68.7157323,9.50334978 68.208504,8.41986812 67.8728899,7.91911671 C67.1791114,6.8841713 66.0940761,6.11025581 64.762162,5.7003618 C64.614562,5.65478513 64.3729547,5.59825823 64.2253547,5.57458204 C64.0777547,5.55090585 63.8349762,5.51036037 63.6859122,5.48402061 C63.3634761,5.42749371 62.3879696,5.382213 62.0778337,5.40944061 M77.4039238,5.40973657 C75.9293883,5.59115537 74.8712957,6.17210988 74.1807386,7.17923577 L74.0117601,7.42576412 L73.9871603,6.90784749 C73.9411814,5.93298035 73.44801,5.47632585 72.4423389,5.47780561 C71.7526607,5.47898942 71.282039,5.72699751 70.9783463,6.24935344 L70.8389462,6.48848297 L70.8389462,12.0375899 L70.8389462,17.5866969 L70.9464249,17.7897203 C71.4565818,18.7530452 72.9533747,18.9341681 73.7200742,18.1253303 C74.0653527,17.7613088 74.0518814,17.9081012 74.0890742,14.0846925 C74.1227529,10.6072521 74.1379816,10.3240257 74.3157456,9.84280716 C74.5017101,9.33880027 74.6109456,9.16300455 74.9685244,8.79276816 C75.8842884,7.84453675 77.6985382,7.81671723 78.3179305,8.74127244 C78.7291019,9.35507764 78.7314448,9.38082547 78.7651235,13.714752 L78.7949947,17.5375688 L78.9302951,17.81606 C79.4594875,18.9048688 81.3408014,18.9001335 81.9022085,17.8086612 L82.0164232,17.5866969 L82.0462944,14.0846925 C82.0811443,10.0230422 82.071187,10.1207064 82.5409297,9.26303645 C82.9749442,8.47077195 84.1232367,7.94989578 85.1157292,8.09520838 C85.8929721,8.20885412 86.3038508,8.55304673 86.5838221,9.32489047 L86.7000863,9.64540689 L86.7290792,13.5667759 C86.7557291,17.1779867 86.764808,17.5067898 86.8456362,17.7225391 C87.2884362,18.9054607 89.3179356,18.9374236 89.8954498,17.7704833 L90,17.5597652 L89.9850641,13.3560577 C89.9707144,9.19407956 89.9695426,9.14731907 89.8603071,8.66876412 C89.3624499,6.48611532 88.0390292,5.42542204 85.7992582,5.41417585 C85.1863079,5.41121633 84.3821223,5.53788394 84.0189799,5.69503465 C83.4719225,5.93150061 83.2967942,6.02176605 82.9740658,6.23366795 C82.5637728,6.5032806 82.0831944,6.98065177 81.8216731,7.37900363 C81.616673,7.69093744 81.5868018,7.70159174 81.5012871,7.49353722 C81.2453301,6.86878177 80.4616445,6.06556701 79.8689016,5.82022251 C79.7883662,5.78677989 79.6454521,5.7258137 79.5517375,5.68438037 C79.1587233,5.51124823 77.893581,5.34965824 77.4039238,5.40973657 M22.8695409,7.89218509 C23.1782122,7.99073719 23.5255408,8.15321507 23.6488336,8.25650246 C23.8166407,8.39707983 24.2014549,8.80845358 24.2014549,8.84722336 C24.2014549,8.87089956 24.2409906,8.94932696 24.2890192,9.02124339 C24.4790835,9.30624551 24.658312,9.94165521 24.7599334,10.6936702 L24.7883405,10.9032045 L21.9277125,10.9032045 L19.0670844,10.9032045 L19.1001773,10.5948221 C19.3189415,8.56873221 21.0655412,7.31626177 22.8695409,7.89218509 M35.6480671,7.86880484 C36.8520026,8.22039627 37.3431239,8.93304958 37.5952739,10.6936702 L37.6254382,10.9032045 L34.7694959,10.9032045 C32.0819463,10.9032045 31.9135535,10.8981733 31.9135535,10.8167864 C31.9135535,9.82652979 32.6477462,8.53913694 33.4557389,8.11207765 C33.7029103,7.98156269 33.8874103,7.92059651 34.476053,7.77557981 C34.664653,7.72911532 35.3590172,7.78416247 35.6480671,7.86880484 M63.3710905,8.07360388 C64.8667116,8.40388669 65.6416116,9.64540689 65.7221476,11.8404857 C65.8223042,14.5777492 64.7372688,16.0364984 62.5903334,16.0510001 C61.2510984,16.0598786 60.4138196,15.5780681 59.9001481,14.5019854 C59.2781201,13.198907 59.2810486,10.8801202 59.9062985,9.60130999 C60.5327195,8.32042818 61.8526268,7.73828982 63.3710905,8.07360388 M49.3139503,8.08869746 C49.8788717,8.21003792 50.1878359,8.35209503 50.5744073,8.66876412 C50.7255215,8.79276816 51.1443071,9.29647905 51.1443071,9.35448575 C51.1443071,9.37461051 51.1750571,9.42610623 51.21225,9.46901928 C51.3012785,9.57082693 51.5007142,10.09851 51.6149285,10.533264 C51.935607,11.7534757 51.5762713,14.3847882 51.0262857,14.845882 C50.9838215,14.8816922 50.9492643,14.9305244 50.9492643,14.9544965 C50.9492643,15.0193101 50.3635501,15.5816196 50.2191716,15.6556077 C50.1509359,15.69053 50.0510716,15.7426177 49.9974787,15.7713251 C48.8647075,16.3792113 47.193665,16.094801 46.3563866,15.1521927 C46.1297152,14.8970817 45.6787152,14.0681192 45.677251,13.9041615 C45.6766653,13.8677594 45.6298081,13.6937394 45.5729939,13.5173518 C45.2751582,12.5945723 45.5120796,10.0866719 45.9501938,9.5219948 C45.9818223,9.48144933 46.0412724,9.38141743 46.0822723,9.30003049 C46.5599223,8.35209503 48.0089791,7.80902246 49.3139503,8.08869746 M9.36355763,10.6430624 C10.9485002,11.0852152 11.6756644,12.4335742 11.1980145,14.0453309 C11.0076574,14.6884353 10.3873861,15.4410422 10.0476718,15.4410422 C10.0178004,15.4410422 9.92906468,15.4747808 9.85057901,15.5156222 C9.37937192,15.7618546 8.91431486,15.7991446 6.03230827,15.821637 L3.31108019,15.8429456 L3.31108019,13.1734552 L3.31108019,10.5042607 L6.15413682,10.5226098 C8.8472506,10.5400709 9.01681486,10.5465819 9.36355763,10.6430624" id="path0"></path>
        </g>
    </g>
</svg>