<?xml version="1.0" encoding="UTF-8"?>
<svg width="50px" height="60px" viewBox="0 0 50 60" version="1.1" xmlns="http://www.w3.org/2000/svg" xmlns:xlink="http://www.w3.org/1999/xlink">
    <!-- Generator: Sketch 57.1 (83088) - https://sketch.com -->
    <title>comptv-logo</title>
    <desc>Created with Sketch.</desc>
    <g id="Page-1" stroke="none" stroke-width="1" fill="none" fill-rule="evenodd">
        <g id="influencer-comptv" transform="translate(-565.000000, -219.000000)" fill="#FFFFFF">
            <path d="M587.120601,219.051371 C586.92405,219.077417 586.441605,219.139182 586.048502,219.188297 C585.297288,219.282359 584.601317,219.409908 584.053206,219.554127 C583.873034,219.601455 583.564805,219.682271 583.368253,219.733618 C582.317298,220.008511 581.53958,220.266438 580.922378,220.5452 C580.78911,220.605329 580.640356,220.654592 580.591814,220.654592 C580.543123,220.654592 580.477903,220.679893 580.446783,220.710702 C580.415662,220.74151 580.189181,220.850604 579.943492,220.953001 C579.404613,221.17744 578.822999,221.4693 578.212051,221.821585 C577.962193,221.965506 577.742412,222.083381 577.72365,222.083381 C577.704889,222.083381 577.515336,222.197238 577.302405,222.336396 C577.089474,222.475554 576.745658,222.694486 576.538385,222.822929 C576.151387,223.062697 574.600417,224.19025 574.493653,224.309316 C574.460895,224.345929 574.286679,224.495952 574.106506,224.642551 C572.697887,225.789155 571.481501,227.006305 569.844018,228.907041 C569.404606,229.417238 569.043815,230.150534 569.043815,230.533926 C569.043815,230.643913 568.957898,230.81373 568.803039,231.009296 C568.578345,231.293566 567.793032,232.764177 567.793032,232.900954 C567.793032,232.95617 567.719028,233.143997 567.469169,233.722061 C567.356152,233.983708 567.200846,234.45372 567.115227,234.793653 C567.073981,234.957368 567.01174,235.144897 566.976897,235.210383 C566.941905,235.275869 566.893809,235.450003 566.869836,235.597347 C566.845862,235.744691 566.798958,235.91689 566.765753,235.980143 C566.732547,236.043248 566.670157,236.244172 566.627124,236.42664 C566.474052,237.075995 566.356717,237.535142 566.291498,237.740531 C566.255165,237.855132 566.193371,238.12303 566.154358,238.33586 C566.115346,238.54869 566.054296,238.843378 566.018708,238.990721 C565.902862,239.469664 565.71718,240.441389 565.677572,240.776708 C565.656279,240.956795 565.603716,241.251483 565.560683,241.43157 C565.517799,241.611657 565.466577,241.969301 565.446773,242.226483 C565.427118,242.483516 565.371875,242.938943 565.323928,243.238542 C565.089406,244.703646 565.08747,248.221296 565.320801,249.081546 C565.365174,249.245261 565.435158,249.58445 565.476255,249.835381 L565.551153,250.291552 L565.37664,250.490838 C565.041013,250.873932 564.969688,251.12665 565.029994,251.718258 C565.059626,252.007141 565.061561,252.389342 565.034461,252.567643 C564.915488,253.350798 565.105041,253.916807 565.595824,254.243643 C566.072313,254.560953 566.522148,255.166551 566.641568,255.651744 C566.662861,255.738067 566.713637,255.862342 566.754436,255.927828 C566.795235,255.993314 566.847649,256.167448 566.871027,256.314792 C566.894405,256.462136 566.941756,256.63627 566.97645,256.701756 C567.010995,256.767242 567.073683,256.968165 567.115823,257.148252 C567.157813,257.328339 567.234498,257.636422 567.286168,257.832881 C567.337837,258.029339 567.434921,258.404396 567.502076,258.666341 C567.569083,258.928286 567.675846,259.316738 567.73913,259.529568 C567.802562,259.742398 567.853934,259.960437 567.853487,260.014166 C567.85304,260.067894 567.905603,260.228633 567.970375,260.371363 C568.035148,260.514093 568.088753,260.687929 568.089498,260.757583 C568.090242,260.827236 568.131041,260.917577 568.180179,260.958357 C568.229317,260.999137 568.269521,261.073404 568.269521,261.123561 C568.269521,261.249324 568.603063,261.945561 568.811973,262.256174 C568.906676,262.396969 568.984254,262.534788 568.984254,262.562471 C568.984254,262.697611 570.02687,263.885738 570.418485,264.196946 C570.661494,264.389982 570.88723,264.57751 570.919989,264.613677 C570.972403,264.671275 571.176697,264.8082 571.575161,265.05288 C571.795239,265.18802 572.917518,265.720988 572.981993,265.720988 C573.017134,265.720988 573.116899,265.75894 573.203858,265.805376 C575.058441,266.795259 579.546368,266.657441 582.0049,265.535097 C582.139509,265.473629 582.286922,265.421835 582.332486,265.419901 C582.412,265.416626 582.565668,265.334917 583.320754,264.894523 C584.323166,264.30991 585.67148,262.968634 586.230163,262.000183 C586.324567,261.836467 586.432224,261.671264 586.469152,261.633014 C586.565343,261.533743 587.507599,259.618123 587.508195,259.521084 C587.508344,259.476584 587.5618,259.359899 587.62687,259.26167 C587.691941,259.163441 587.745397,259.034403 587.745546,258.975019 C587.745844,258.915635 587.797066,258.741501 587.859456,258.588055 C588.064644,258.083068 588.268939,257.412132 588.431392,256.7089 C588.69763,255.556343 588.794119,255.481331 590.008569,255.481331 L590.999516,255.481331 L591.147377,255.645047 C591.344375,255.863384 591.478238,256.172211 591.586193,256.657701 C591.711271,257.220287 591.843646,257.692978 591.915268,257.832881 C591.948771,257.898367 592.013097,258.085895 592.058065,258.249611 C592.160659,258.622287 592.258042,258.895394 592.400095,259.208686 C592.460996,259.34323 592.510879,259.485216 592.510879,259.524359 C592.510879,259.563353 592.561208,259.694325 592.622853,259.815475 C592.68435,259.936475 592.77533,260.129362 592.824914,260.243963 C592.996003,260.63941 593.241842,261.107636 593.352625,261.249175 C593.413824,261.327312 593.463856,261.413635 593.463856,261.44102 C593.463856,261.522878 594.177249,262.563959 594.540422,263.012242 C594.961072,263.53122 595.679379,264.20796 596.06191,264.445347 C596.156314,264.503838 596.260248,264.581082 596.293007,264.616802 C596.564159,264.913276 598.300364,265.722774 599.092377,265.922209 C599.25617,265.963436 599.443788,266.025797 599.509305,266.060623 C599.574822,266.09545 599.775245,266.143821 599.954822,266.16808 C600.134249,266.19234 600.378897,266.246664 600.498317,266.288783 C601.163614,266.523343 604.235327,266.523789 605.108046,266.289527 C605.271839,266.245473 605.513061,266.191745 605.644096,266.170015 C605.9556,266.118519 606.592755,265.91834 606.90143,265.775014 C607.036038,265.712654 607.174071,265.661455 607.208021,265.661455 C607.242119,265.661455 607.520567,265.536139 607.82686,265.383139 C608.325089,265.134143 608.507792,265.021626 609.155072,264.56486 C609.856702,264.069844 610.549992,263.332529 611.062664,262.535979 C611.233456,262.27076 611.749106,261.220153 611.749106,261.137551 C611.749106,261.098259 611.789012,260.99497 611.837703,260.908052 C611.956378,260.696115 612.098729,260.285784 612.19224,259.886765 C612.23438,259.706678 612.296919,259.49236 612.331315,259.410502 C612.400257,259.24634 612.556158,258.627496 612.670218,258.064761 C612.710719,257.864879 612.765516,257.666486 612.791871,257.623771 C612.818376,257.581056 612.874959,257.396356 612.917992,257.213292 C613.331793,255.448291 613.694817,254.729729 614.422654,254.235755 C614.96734,253.865907 615.012308,253.709782 614.997865,252.236789 C614.98491,250.921261 614.942324,250.722868 614.613398,250.446189 C614.374409,250.245265 614.349245,250.133194 614.450796,249.725692 C614.498147,249.535038 614.554581,249.151497 614.575874,248.873181 C614.597168,248.594865 614.651964,248.112648 614.697677,247.801589 C615.093162,245.11234 614.795804,238.377235 614.199746,236.520107 C614.168179,236.421877 614.102513,236.180769 614.053822,235.984311 C613.672631,234.448362 613.06347,233.164535 612.231848,232.144737 C612.111535,231.997244 611.947891,231.729197 611.868228,231.54911 C610.435486,228.311117 605.683853,223.710266 601.832187,221.831706 C601.504601,221.672009 601.182971,221.510973 601.117454,221.474062 C601.00801,221.412297 600.714077,221.320765 599.926232,221.102577 C599.587628,221.008813 599.130943,220.860129 598.824353,220.743891 C598.53161,220.632862 598.072543,220.484626 597.722473,220.387885 C597.55868,220.342788 597.290655,220.262419 597.126862,220.209435 C596.465734,219.995563 596.282733,219.94362 596.054763,219.905222 C595.923728,219.883046 595.774081,219.843159 595.722263,219.816518 C595.609246,219.758473 594.652397,219.552787 593.914286,219.428066 C593.621395,219.378505 593.362602,219.326116 593.338926,219.31153 C593.3154,219.296944 592.925126,219.242472 592.471717,219.190381 C592.018308,219.138289 591.473027,219.072803 591.260096,219.044823 C590.78048,218.981569 587.60796,218.986629 587.120601,219.051371 M585.993706,230.820726 C586.056245,230.863143 586.554771,231.592421 586.554771,231.641535 C586.554771,231.939349 588.796948,234.67548 589.51183,235.249972 C589.647629,235.359215 589.955857,235.614016 590.196782,235.816428 C590.964524,236.461169 593.165604,237.740531 593.507335,237.740531 C593.555133,237.740531 593.66547,237.780418 593.752429,237.829086 C594.019412,237.978365 594.488008,238.130769 595.399591,238.364436 C595.596142,238.414741 595.89097,238.493771 596.054763,238.540058 C596.218555,238.586196 596.499982,238.641859 596.680154,238.663588 C596.860326,238.685318 597.155153,238.738302 597.335326,238.781612 C597.515498,238.824774 597.86393,238.877907 598.10962,238.899785 C598.355309,238.921515 598.670387,238.964527 598.809611,238.995038 C598.948984,239.025697 599.404626,239.078235 599.822149,239.111573 C600.239821,239.144912 600.849429,239.209951 601.177015,239.256089 C601.504601,239.302079 602.094256,239.356253 602.487359,239.376495 C602.880462,239.396587 603.309301,239.438409 603.440336,239.469366 C603.57137,239.500323 604.013611,239.553754 604.423094,239.588134 C604.832576,239.622514 605.355224,239.689786 605.584535,239.737413 C606.67212,239.963489 606.751485,239.767328 606.030498,238.633524 C605.191134,237.313531 605.193516,236.682631 606.038688,236.457895 C606.944612,236.216787 608.572416,236.561036 609.07392,237.09951 C609.361749,237.408635 609.843151,238.250579 609.843151,238.444954 C609.843151,238.50791 609.881568,238.591405 609.928622,238.630399 C609.975675,238.669393 610.031364,238.786524 610.052211,238.890706 C610.073206,238.99474 610.138723,239.21397 610.197838,239.377685 C610.465565,240.118126 610.447547,240.056509 610.709318,241.133905 C610.760988,241.346736 610.840948,241.668213 610.887108,241.8483 C611.046881,242.473544 611.361363,244.124242 611.478847,244.954875 C611.523667,245.271739 611.588291,245.673586 611.622539,245.847868 C611.656786,246.022002 611.713667,246.472517 611.748957,246.849063 C611.784247,247.225608 611.837107,247.69443 611.866441,247.890888 C612.072076,249.267884 612.002687,249.776295 611.625219,249.657527 C610.674475,249.358374 609.851192,249.168315 609.113528,249.077825 C608.761224,249.034515 608.44972,248.984805 608.421131,248.967094 C608.392393,248.949383 608.104415,248.907115 607.780849,248.873032 C607.457433,248.839098 606.991665,248.765426 606.745976,248.709317 C606.172253,248.578493 602.475149,248.56227 601.90232,248.688182 C601.711576,248.730004 601.255933,248.800104 600.889782,248.843861 C600.120402,248.935839 599.259893,249.074849 598.70523,249.196742 C598.4923,249.243475 598.184071,249.29899 598.020278,249.319975 C597.856485,249.340961 597.58846,249.39454 597.424667,249.439041 C597.260874,249.483691 596.979448,249.53861 596.799276,249.561232 C596.619104,249.583855 596.408555,249.626272 596.331573,249.655443 C596.254441,249.684465 595.92894,249.747719 595.608054,249.795941 C595.287169,249.844162 594.961668,249.907416 594.884536,249.936587 C594.807554,249.965758 594.5434,250.009664 594.297711,250.034072 C594.052021,250.058481 593.787123,250.102684 593.709247,250.132153 C593.631222,250.16177 593.215784,250.225322 592.786051,250.273394 C592.356169,250.321616 591.843794,250.387698 591.647243,250.420441 C591.096899,250.511972 588.818092,250.495154 588.222481,250.395139 C587.944033,250.348406 587.488391,250.29304 587.209943,250.272353 C586.931495,250.251516 586.583063,250.198234 586.435649,250.154031 C586.288235,250.109977 585.993408,250.056546 585.780477,250.035561 C585.567546,250.014575 585.245916,249.960996 585.065744,249.916495 C584.885572,249.872143 584.590745,249.818266 584.410572,249.796834 C584.2304,249.775551 583.962375,249.721227 583.814962,249.676131 C583.667548,249.631035 583.386122,249.575669 583.18957,249.553046 C582.993019,249.530573 582.765198,249.48637 582.683301,249.455115 C582.601405,249.423711 582.306577,249.361202 582.028129,249.316254 C580.964517,249.144502 580.436657,249.05044 580.062614,248.96635 C579.849683,248.918426 579.474448,248.86306 579.228759,248.843414 C578.983069,248.823769 578.55423,248.764236 578.275782,248.711103 C577.511762,248.565545 574.133904,248.564205 573.302432,248.709168 C572.747025,248.806058 572.240756,248.881813 570.830647,249.079462 C570.519441,249.12307 570.197811,249.184984 570.115914,249.216983 C570.034018,249.248982 569.819598,249.294971 569.639426,249.319231 C569.459253,249.343491 569.239473,249.400493 569.151025,249.445738 C568.972342,249.537121 568.473518,249.557511 568.422742,249.475505 C568.376135,249.400196 568.552734,246.358363 568.630461,245.896537 C568.666198,245.683706 568.732013,245.188095 568.776683,244.795178 C568.876597,243.915282 569.020288,243.046548 569.131221,242.651994 C569.177232,242.488279 569.233219,242.220381 569.255703,242.056665 C569.278337,241.89295 569.330601,241.675952 569.371996,241.5743 C569.413391,241.472796 569.466847,241.271873 569.490821,241.127803 C569.514794,240.983883 569.567803,240.799033 569.608752,240.717175 C569.649551,240.635318 569.700922,240.461184 569.722662,240.330211 C569.744402,240.199239 569.798603,239.998316 569.842976,239.883715 C569.887498,239.769114 569.997537,239.474426 570.087474,239.228853 C570.910459,236.98491 572.325779,234.8578 573.77892,233.680983 C573.975472,233.521733 574.174853,233.359654 574.221906,233.320809 C574.653426,232.964058 575.999506,232.21826 576.756974,231.916131 C577.645923,231.561612 579.532967,231.072996 580.01422,231.072699 C580.122771,231.072699 580.439338,231.030133 580.717786,230.97819 C581.470935,230.837395 585.827084,230.707464 585.993706,230.820726 M579.750365,250.624043 C580.069463,250.67033 580.545059,250.726737 580.807127,250.74936 C581.069196,250.772131 581.331711,250.816186 581.390528,250.84744 C581.449345,250.878844 581.690567,250.939865 581.926578,250.983175 C582.47171,251.083339 583.086827,251.246459 583.278912,251.34201 C583.360808,251.38279 583.518943,251.433393 583.630173,251.454676 C583.866482,251.499623 585.134239,252.10284 585.38246,252.288285 C585.926699,252.695043 586.554771,253.389792 586.554771,253.584911 C586.554771,253.619143 586.611801,253.834949 586.681636,254.064746 C586.864638,254.666773 586.782592,255.729881 586.487467,256.58269 C586.453368,256.680919 586.38934,256.881843 586.345116,257.029187 C586.126527,257.757274 585.736849,258.673485 585.142727,259.856999 C584.248864,261.637181 583.040965,262.895111 581.52186,263.627365 C581.358067,263.706395 581.130246,263.816531 581.015591,263.872194 C578.610217,265.039485 573.92827,264.69613 572.04748,263.214505 C571.262316,262.595958 570.175475,261.003602 570.175475,260.471676 C570.175475,260.429556 570.124997,260.260632 570.063501,260.096321 C569.865311,259.567818 569.808132,259.387284 569.733383,259.053305 C569.693031,258.873218 569.631981,258.672294 569.597733,258.606808 C569.563485,258.541322 569.517325,258.353793 569.49499,258.190078 C569.472655,258.026362 569.416518,257.771859 569.37021,257.624515 C569.323752,257.477172 569.257341,257.121314 569.222498,256.833621 C569.187655,256.546077 569.133157,256.173997 569.10144,256.007007 C568.985892,255.398283 569.034136,253.771249 569.180656,253.330111 C569.586267,252.108793 570.918053,251.319387 573.093968,251.010114 C573.306899,250.979901 573.735739,250.91635 574.046945,250.869021 C574.358152,250.821692 575.175628,250.739686 575.863558,250.686999 C576.551488,250.634313 577.141143,250.581775 577.173902,250.570315 C577.343204,250.511079 579.243798,250.550818 579.750365,250.624043 M603.499897,250.625531 C603.925759,250.671818 604.569018,250.72763 604.929363,250.749658 C605.289707,250.771536 605.705146,250.815739 605.852559,250.847589 C605.999973,250.879439 606.415412,250.943139 606.775756,250.989129 C609.061859,251.280244 610.457822,252.09644 610.853307,253.373123 C611.012782,253.887934 611.034075,255.547711 610.890384,256.265826 C610.842437,256.505595 610.784961,256.889284 610.762477,257.118486 C610.740141,257.347688 610.698002,257.581056 610.668817,257.637166 C610.639483,257.693276 610.577242,257.920989 610.530337,258.143196 C610.375032,258.878725 609.855213,260.583598 609.678912,260.935288 C609.127823,262.035605 608.904767,262.365863 608.375864,262.864005 C607.577597,263.616054 606.582629,264.12 605.614315,264.26273 C605.466901,264.28446 605.198877,264.338486 605.018704,264.382689 C604.07347,264.614867 601.433128,264.615314 600.670746,264.383582 C600.523332,264.338783 600.295511,264.285055 600.164477,264.264218 C599.869203,264.217336 599.369783,264.030552 598.645669,263.696424 C598.325677,263.548782 597.76759,263.246206 597.692692,263.179976 C597.643554,263.136368 597.382974,262.926366 597.113758,262.713238 C596.494323,262.222985 595.91807,261.606373 595.578274,261.07013 C595.545515,261.018485 595.445751,260.866677 595.356558,260.732876 C595.072005,260.306026 594.386308,258.892566 594.092672,258.127717 C594.005266,257.900153 593.900141,257.633445 593.858746,257.535216 C592.486012,254.268051 593.390893,252.33859 596.769495,251.328615 C599.091931,250.634313 601.381607,250.39499 603.499897,250.625531 M568.752561,269.562497 C567.394569,269.941126 566.523041,270.8365 566.059656,272.329139 C565.850001,273.004093 565.849554,275.461611 566.058763,276.139244 C566.405706,277.262778 567.059091,278.129428 567.882374,278.558214 C570.064841,279.694845 572.957424,278.523982 573.336084,276.350585 C573.434657,275.784725 573.430637,275.782046 572.470512,275.782046 C571.558335,275.782046 571.556399,275.782939 571.395286,276.340911 C571.160169,277.154428 570.344033,277.539011 569.275359,277.339724 C568.777726,277.247002 568.090838,276.690369 568.090838,276.379756 C568.090838,276.354306 568.037233,276.165587 567.971716,275.960645 C567.677633,275.040564 567.828918,272.562508 568.221574,271.866717 C568.942412,270.589439 571.121603,270.802716 571.426556,272.180307 C571.551634,272.745423 571.552527,272.745869 572.466641,272.745869 C573.470394,272.745869 573.489305,272.731135 573.329532,272.074933 C573.072228,271.018373 572.67168,270.492103 571.648867,269.866114 C571.087802,269.522758 569.494097,269.355769 568.752561,269.562497 M576.876096,269.509364 C575.164907,269.947377 574.094743,271.208432 573.801107,273.132833 C573.708489,273.739473 573.765519,275.444644 573.889555,275.774605 C573.943309,275.91793 573.987384,276.086855 573.987384,276.150108 C573.987384,276.213362 574.111122,276.515938 574.262407,276.822681 C575.819185,279.978073 580.451548,279.573547 581.405269,276.198777 C581.608224,275.480512 581.62088,275.341949 581.600481,274.069583 C581.581868,272.918663 581.564595,272.729646 581.443686,272.358905 C580.974643,270.9194 580.239361,270.130589 578.901173,269.631257 C578.60575,269.521121 577.168541,269.434501 576.876096,269.509364 M582.208153,269.708352 C582.049571,269.866859 582.015175,278.517583 582.172267,278.732496 C582.308215,278.918388 583.747955,278.944731 583.928277,278.764495 C584.081646,278.611198 584.087602,278.227955 583.9862,275.027467 C583.948676,273.842911 583.933935,272.832043 583.95359,272.780993 C584.008982,272.636626 584.160565,272.734855 584.205384,272.944262 C584.227571,273.047998 584.271348,273.164832 584.302767,273.203826 C584.334334,273.242969 584.396724,273.403707 584.441693,273.561023 C584.524781,273.852734 584.638096,274.176147 584.91699,274.918819 C585.003056,275.148021 585.102523,275.442709 585.137962,275.573681 C585.173401,275.704654 585.225368,275.841579 585.25351,275.877894 C585.281653,275.914209 585.343001,276.061553 585.390054,276.205325 C585.482672,276.489297 585.626065,276.888019 585.869372,277.538266 C585.954991,277.767468 586.053565,278.048761 586.088408,278.163362 C586.282279,278.802745 586.438329,278.908565 587.122835,278.864659 C587.565969,278.836232 587.745993,278.75884 587.745993,278.596612 C587.745993,278.548391 587.785005,278.424414 587.832654,278.321124 C587.926909,278.117373 588.063751,277.751394 588.203422,277.329901 C588.326117,276.959904 588.451791,276.631581 588.585506,276.331088 C588.647896,276.191037 588.69897,276.034466 588.69897,275.98297 C588.69897,275.931474 588.737982,275.804966 588.785631,275.701677 C588.877951,275.501795 588.996477,275.181359 589.174416,274.650921 C589.234722,274.470834 589.337613,274.189542 589.402982,274.025826 C589.46835,273.862111 589.554713,273.634397 589.594917,273.519797 C589.63527,273.405196 589.716273,273.190877 589.775238,273.043533 C589.834055,272.89619 589.897934,272.701964 589.917143,272.61192 C589.936351,272.521877 589.977746,272.448205 590.009313,272.448205 C590.128287,272.448205 590.142135,272.793049 590.069768,273.957214 C589.933075,276.159187 589.918483,278.658675 590.041774,278.761072 C590.204227,278.896063 591.513528,278.920471 591.709484,278.792178 L591.855707,278.696479 L591.855707,274.205169 C591.855707,269.825632 591.852878,269.712371 591.740456,269.652242 C591.673748,269.616523 591.18892,269.590626 590.587056,269.590626 C589.401046,269.590626 589.275819,269.632597 589.199581,270.054536 C589.177692,270.175983 589.13183,270.328834 589.097582,270.39432 C589.018068,270.546278 588.832535,271.061386 588.458939,272.167209 C588.295443,272.651063 588.13716,273.093095 588.10723,273.149502 C588.052136,273.252792 587.924527,273.622044 587.773391,274.115125 C587.652184,274.510573 587.419896,275.138198 587.339637,275.28703 C587.301071,275.35847 587.269504,275.468754 587.269504,275.532008 C587.269504,275.869857 586.885186,276.071674 586.821754,275.767163 C586.799418,275.660748 586.747302,275.519655 586.705609,275.453722 C586.664066,275.38779 586.609418,275.240595 586.584403,275.126589 C586.559387,275.012584 586.504293,274.838748 586.461856,274.740518 C586.419567,274.64214 586.346158,274.441068 586.298807,274.293724 C586.251605,274.14638 586.100022,273.717743 585.962287,273.341198 C585.824403,272.964652 585.676096,272.536016 585.632468,272.388672 C585.588839,272.241328 585.481332,271.94664 585.39333,271.73381 C585.305329,271.52098 585.197225,271.226292 585.153001,271.078948 C585.011841,270.608341 584.783871,270.015691 584.666536,269.815065 L584.552923,269.620392 L583.440769,269.60417 C582.392196,269.588989 582.321616,269.594942 582.208153,269.708352 M592.582352,269.662065 C592.440894,269.803456 592.48348,278.739938 592.626129,278.81614 C592.822681,278.921364 594.212241,278.89517 594.323173,278.784141 C594.403432,278.704069 594.416833,278.474272 594.416833,277.183153 C594.416833,275.863458 594.428596,275.671166 594.511088,275.639614 C594.562906,275.61967 595.052052,275.603001 595.598078,275.602555 C597.00223,275.601215 597.73096,275.434374 598.496767,274.939061 C598.755411,274.771773 599.181719,274.323639 599.181719,274.219159 C599.181719,274.183439 599.219242,274.112 599.265104,274.060206 C599.436789,273.866724 599.598646,273.168404 599.598646,272.620701 C599.598646,271.114668 598.586108,269.952586 597.03752,269.681414 C596.376541,269.565771 592.694773,269.549697 592.582352,269.662065 M599.552338,269.683348 C599.436938,269.764164 599.333004,271.008551 599.434854,271.091004 C599.443043,271.097701 600.066201,271.117793 600.819649,271.135653 L602.189553,271.168247 L602.219334,274.965702 C602.245094,278.254298 602.261027,278.770597 602.338456,278.819563 C602.459663,278.896063 603.8659,278.893235 604.010038,278.81614 C604.122012,278.756161 604.125288,278.65168 604.125288,275.061698 C604.125288,272.629929 604.146283,271.329433 604.186934,271.253677 C604.245155,271.14503 604.324669,271.138481 605.586619,271.138481 C607.093812,271.138481 607.105576,271.141755 607.189557,271.589591 C607.213232,271.715801 607.269815,271.890828 607.31523,271.97849 C607.360646,272.066301 607.423632,272.241328 607.455348,272.367538 C607.486915,272.493747 607.583851,272.784565 607.670661,273.013767 C607.75762,273.242969 607.869744,273.564446 607.920073,273.728162 C607.970402,273.891877 608.033537,274.053658 608.060637,274.08774 C608.087589,274.121674 608.135982,274.255623 608.168294,274.385405 C608.231578,274.63961 608.370057,275.056489 608.533403,275.484382 C608.691538,275.898135 608.777306,276.145197 608.864712,276.436908 C608.908787,276.584252 609.015104,276.892335 609.100723,277.121536 C609.186491,277.350738 609.293552,277.658821 609.338669,277.806164 C609.668489,278.88237 609.654194,278.871654 610.766348,278.874185 C611.712625,278.876268 611.751488,278.851264 611.962334,278.103829 C612.003878,277.956485 612.10811,277.648402 612.193878,277.419201 C612.398619,276.872093 612.806166,275.703761 612.910398,275.365316 C612.955813,275.217972 613.063172,274.909889 613.149089,274.680688 C613.405202,273.996804 613.537576,273.624426 613.625429,273.341198 C613.797858,272.784417 613.903579,272.472315 613.978179,272.299372 C614.133931,271.938901 614.387364,271.221381 614.577512,270.602685 C614.622928,270.455341 614.699017,270.228819 614.746666,270.099334 C614.912692,269.648373 614.867426,269.622774 613.872011,269.603872 C612.82061,269.584077 612.761644,269.608188 612.626887,270.113325 C612.576856,270.300556 612.490343,270.601197 612.434505,270.781284 C612.378815,270.961371 612.294239,271.256058 612.246739,271.436145 C612.19909,271.616232 612.13387,271.817156 612.101558,271.882642 C612.069247,271.948128 612.005516,272.149052 611.959803,272.329139 C611.91409,272.509226 611.833236,272.790519 611.780226,272.954234 C611.651277,273.35236 611.551065,273.682173 611.364341,274.323491 C611.278573,274.618178 611.179851,274.939656 611.145157,275.037885 C611.110313,275.136114 611.04703,275.350433 611.004741,275.514148 C610.804765,276.285992 610.644397,276.423513 610.523339,275.927158 C610.48388,275.765526 610.422978,275.552845 610.387986,275.454615 C610.284201,275.162904 610.14051,274.701078 610.054742,274.383023 C610.010518,274.219308 609.947234,274.00499 609.914178,273.90676 C609.880973,273.808531 609.794162,273.527238 609.721051,273.281665 C609.648089,273.036092 609.539688,272.67443 609.480424,272.477971 C609.421161,272.281512 609.316036,271.933245 609.246945,271.704043 C609.177705,271.474842 609.071091,271.126574 609.009743,270.930116 C608.948544,270.733657 608.880496,270.483024 608.858458,270.373186 C608.797408,270.068675 608.603685,269.667275 608.498262,269.626792 C608.25704,269.534367 599.687839,269.588393 599.552338,269.683348 M578.300648,271.144434 C579.285491,271.41769 579.675467,272.294014 579.675467,274.234191 C579.675467,275.741713 579.52031,276.330344 578.967286,276.920464 C578.394457,277.531867 577.042421,277.520258 576.446512,276.898883 C575.160291,275.557458 575.564264,271.48139 577.015023,271.16289 C577.102428,271.14369 577.200704,271.119133 577.233463,271.108268 C577.375069,271.060939 578.087122,271.08505 578.300648,271.144434 M596.829056,271.280318 C597.82864,271.752712 597.986626,273.177482 597.107058,273.787397 L596.848861,273.966293 L595.647811,273.966293 L594.446613,273.966293 L594.430532,272.628143 C594.421747,271.892167 594.427554,271.25591 594.443635,271.214237 C594.503345,271.058558 596.475413,271.113328 596.829056,271.280318" id="comptv-logo"></path>
        </g>
    </g>
</svg>