<svg height="24" viewBox="0 0 120 24" width="120" xmlns="http://www.w3.org/2000/svg"><path d="m.184 19v-18.2h13.728v3.562h-9.75v3.692h8.58v3.562h-8.58v3.822h9.88v3.562zm20.254-13.936 2.6 4.082 2.626-4.082h4.134l-4.706 6.812 4.914 7.124h-4.238l-2.808-4.342-2.808 4.342h-4.134l4.888-7.072-4.706-6.864zm11.934 18.096v-18.096h3.952v2.002c1.11-1.508 2.557-2.262 4.342-2.262 1.733 0 3.224.646 4.472 1.937s1.872 3.046 1.872 5.265v.052c0 2.219-.62 3.974-1.859 5.265-1.24 1.291-2.734 1.937-4.485 1.937-1.733 0-3.18-.693-4.342-2.08v5.98zm4.862-8.32c.659.71 1.465 1.066 2.418 1.066s1.76-.355 2.418-1.066c.659-.71.988-1.638.988-2.782v-.052c0-1.127-.33-2.05-.988-2.769-.659-.72-1.465-1.079-2.418-1.079s-1.755.36-2.405 1.079c-.65.72-.975 1.642-.975 2.769v.052c0 1.127.32 2.054.962 2.782zm12.87 4.16v-18.98h3.952v18.98zm19.89-1.794c-1.439 1.404-3.233 2.106-5.382 2.106-2.15 0-3.939-.698-5.369-2.093s-2.145-3.098-2.145-5.109v-.052c0-2.028.724-3.744 2.171-5.148s3.246-2.106 5.395-2.106c2.15 0 3.939.698 5.369 2.093s2.145 3.098 2.145 5.109v.052c0 2.028-.728 3.744-2.184 5.148zm-5.33-1.3c1.092 0 1.967-.364 2.626-1.092s.988-1.63.988-2.704v-.052c0-1.057-.342-1.963-1.027-2.717s-1.564-1.131-2.639-1.131c-1.092 0-1.967.364-2.626 1.092s-.988 1.63-.988 2.704v.052c0 1.057.342 1.963 1.027 2.717s1.564 1.131 2.639 1.131zm10.374 3.094v-13.936h3.952v2.808c.901-2.132 2.383-3.155 4.446-3.068v4.134h-.208c-1.352 0-2.396.412-3.133 1.235s-1.105 2.05-1.105 3.679v5.148zm10.946-15.47v-3.51h4.16v3.51zm.104 15.47v-13.936h3.952v13.936zm19.89-1.794c-1.439 1.404-3.233 2.106-5.382 2.106-2.15 0-3.939-.698-5.369-2.093s-2.145-3.098-2.145-5.109v-.052c0-2.028.724-3.744 2.171-5.148s3.246-2.106 5.395-2.106c2.15 0 3.939.698 5.369 2.093s2.145 3.098 2.145 5.109v.052c0 2.028-.728 3.744-2.184 5.148zm-5.33-1.3c1.092 0 1.967-.364 2.626-1.092s.988-1.63.988-2.704v-.052c0-1.057-.342-1.963-1.027-2.717s-1.564-1.131-2.639-1.131c-1.092 0-1.967.364-2.626 1.092s-.988 1.63-.988 2.704v.052c0 1.057.342 1.963 1.027 2.717s1.564 1.131 2.639 1.131zm10.374 3.094v-13.936h3.952v2.808c.901-2.132 2.383-3.155 4.446-3.068v4.134h-.208c-1.352 0-2.396.412-3.133 1.235s-1.105 2.05-1.105 3.679v5.148z" fill="#fff"/></svg>