<?xml version="1.0" encoding="UTF-8"?>
<svg width="64px" height="60px" viewBox="0 0 64 60" version="1.1" xmlns="http://www.w3.org/2000/svg" xmlns:xlink="http://www.w3.org/1999/xlink">
    <!-- Generator: Sketch 57.1 (83088) - https://sketch.com -->
    <title>jesse-logo</title>
    <desc>Created with Sketch.</desc>
    <g id="Page-1" stroke="none" stroke-width="1" fill="none" fill-rule="evenodd">
        <g id="jesse-logo" transform="translate(32.000000, 30.000000) scale(-1, -1) rotate(-180.000000) translate(-32.000000, -30.000000) " fill="#FFFFFF" fill-rule="nonzero">
            <path d="M38.5,14.4 L38.5,12.6 C38.5,6.2 38.4,5.4 38.1,5.1 C37.8,4.9 37,4.8 35.1,4.8 C31.8,4.8 31.6,4.7 31.6,2.3 L31.6,2.1 C31.6,0.9 31.7,0.6 32.1,0.4 C32.5,0.1 33.4,0 37.4,0 L38,0 C41.7,0 42.3,0.1 42.6,0.4 C43,0.8 43.1,1.1 43.2,11.2 L43.3,21.6 L42.8,22.2 C42.4,22.8 42.2,22.8 40.8,22.8 C38.4,22.8 38.5,23.4 38.5,14.4 Z M58.9,18.6 L58.9,18.3 C58.9,16.3 58.8,15.8 58.5,15.5 C58.2,15.1 57.7,15.1 52.4,15.1 L51.1,15.1 C44.3,15.1 44.5,15.1 44.5,12.8 C44.5,11.9 44.6,11.3 44.9,10.9 L45.2,10.4 L55.2,10.4 C61.9,10.4 63,10.5 63.2,10.8 L63.2,10.8 C63.5,11.1 63.5,11.9 63.5,15.3 L63.5,17.6 C63.5,21.2 63.4,21.3 63,21.6 C62.7,21.8 62,22 61.2,22 C59,21.9 58.9,21.7 58.9,18.6 Z M2.8,26.1 C-2.1,21.2 -0.1,12.9 6.5,10.8 C7.6,10.4 8.6,10.4 19.6,10.4 L22.2,10.4 C38.8,10.4 37.4,10.2 37.4,12.6 L37.4,12.7 C37.4,15.2 38.6,15 23,15 L22.6,15 C14.4,15 9.1,15.1 8.7,15.2 C7.3,15.6 6.4,16.4 5.8,17.6 C4.9,19.4 5.1,21 6.4,22.4 C7.7,23.9 8.3,24 13.8,24 L15,24 C19.4,24 19.6,24.1 19.6,25.9 L19.6,26.6 C19.6,28.6 19.4,28.6 14.4,28.7 C7.5,29.1 5.3,28.6 2.8,26.1 Z M22.9,36.3 L22.7,36.3 C20.6,36.3 20.6,36.1 20.6,33.2 C20.6,28.2 20.3,22.2 20.1,21.9 C19.9,21.7 19.1,21.6 17.2,21.6 C14.8,21.6 14.5,21.6 14,21.1 C13.6,20.7 13.5,20.4 13.5,19.2 C13.5,17.3 13.8,16.9 15.8,16.8 C16.7,16.8 18.9,16.7 20.8,16.7 C24.2,16.7 24.3,16.7 24.7,17.3 C25.1,17.8 25.1,18.2 25.1,25.1 L25.1,27.7 C25.2,37 25.3,36.3 22.9,36.3 Z M44.7,42.3 C44.3,41.9 44.2,41.5 44.2,40.3 C44.2,38 44.1,37.9 49.2,37.9 L51.1,37.9 C55.6,37.9 55.9,37.8 57.1,36.5 C58,35.7 58.3,34.7 58.3,33.3 C58.3,31.5 57.3,29.9 55.6,29.2 C54.9,28.9 53.2,28.9 43.3,28.9 L40.7,28.9 C30.5,28.9 27.3,28.8 26.9,28.6 C26.4,28.3 26.3,28.2 26.3,26.6 C26.2,25 26.3,24.8 26.7,24.4 C27.1,24.1 28,24 38,24 L41.8,24 C50.2,24 55,24.1 55.8,24.2 C58.7,24.7 61.3,26.7 62.6,29.4 C63.3,30.8 63.3,31.1 63.3,33.3 C63.3,35.6 63.3,35.8 62.6,37.2 C61.7,39 59.9,40.7 58,41.7 L56.5,42.4 L50.8,42.5 C45.4,42.8 45.2,42.8 44.7,42.3 Z M23.5,56.3 C21,53.7 20,50.5 20.2,46 C20.3,43.9 20.5,43.7 22.7,43.7 C23.9,43.7 24.4,43.8 24.6,44.1 C24.8,44.4 25,45.4 25,47.3 C25.1,49.4 25.2,50.3 25.6,51.1 C27.1,54.6 31.2,56.1 34.6,54.4 C36,53.7 37.1,52.7 37.9,51.2 C38.4,50.3 38.4,50.1 38.5,40.5 C38.6,32.7 38.7,30.7 38.9,30.4 C39.1,30.1 39.6,30 40.8,30 C42.5,30 43,30.2 43.2,31.2 C43.3,31.5 43.3,35.9 43.2,41 C43.1,49.2 43.1,50.4 42.7,51.5 C41.3,55.6 38.2,58.6 34.1,59.6 C30.4,60.6 26.3,59.3 23.5,56.3 Z M19.6,42.7 L0.9,42.7 L0.5,42.1 C0.1,41.6 0,41.3 0,37.7 L0,36 C0,32.4 0.1,32.1 0.4,31.7 C0.8,31.3 1.1,31.3 2.5,31.3 C4.8,31.3 4.8,31.5 4.8,34.9 L4.8,35.4 C4.8,37.4 4.9,37.6 5.3,37.9 C5.7,38.2 7.4,38.2 19,38.3 L23.4,38.3 C35.4,38.3 36.6,38.3 37,38.7 C37.3,39 37.4,39.4 37.4,40.7 C37.4,42.1 37.3,42.4 36.9,42.6 L36.9,42.6 C36.5,42.7 34.3,42.7 19.6,42.7 Z"></path>
        </g>
    </g>
</svg>