<?xml version="1.0" encoding="UTF-8"?>
<svg width="64px" height="60px" viewBox="0 0 64 60" version="1.1" xmlns="http://www.w3.org/2000/svg" xmlns:xlink="http://www.w3.org/1999/xlink">
    <!-- Generator: Sketch 57.1 (83088) - https://sketch.com -->
    <title>jesse-logo</title>
    <desc>Created with Sketch.</desc>
    <g id="Page-1" stroke="none" stroke-width="1" fill="none" fill-rule="evenodd">
        <g id="influencer-comptv-copy-2" transform="translate(-563.000000, -219.000000)" fill="#FFFFFF" fill-rule="nonzero">
            <path d="M603.93578,256.155111 C605.352754,256.155111 605.507735,256.199392 605.95054,256.775038 L606.437625,257.372824 L606.304783,267.778728 C606.149802,277.918949 606.127661,278.184632 605.684857,278.583156 C605.306259,278.898654 604.747828,278.954392 601.048296,278.959177 L600.437625,278.95954 C596.452385,278.95954 595.566776,278.893119 595.146112,278.605296 C594.747588,278.332622 594.667,278.099689 594.659621,276.871115 L594.659027,276.656957 C594.659027,274.332233 594.836149,274.199392 598.179322,274.199392 C600.061241,274.199392 600.880429,274.110831 601.146112,273.889429 C601.461328,273.637255 601.517248,272.846542 601.52212,266.405726 L601.522232,264.581124 C601.516282,255.587976 601.434222,256.155111 603.93578,256.155111 Z M624.216222,257.04072 C625.079691,257.04072 625.743898,257.173562 626.053861,257.394964 C626.489128,257.691737 626.535433,257.794029 626.540359,261.367264 L626.540105,263.706183 C626.533006,267.117511 626.47659,267.892155 626.209455,268.176763 L626.186702,268.199392 C625.913514,268.493594 624.862436,268.548445 618.149083,268.553263 L608.186702,268.553635 L607.854599,268.066551 C607.611056,267.734447 607.500355,267.070241 607.500355,266.184632 C607.500355,263.889659 607.251018,263.901054 614.079214,263.904007 L615.42076,263.904072 C620.712696,263.901962 621.195785,263.867572 621.515115,263.505665 C621.81268,263.186846 621.885796,262.643578 621.891169,260.66139 L621.891499,260.406034 C621.891499,257.217842 622.0022,257.04072 624.216222,257.04072 Z M577.278953,250.04441 C582.234673,250.190782 582.470493,250.179165 582.4814,252.15447 L582.481554,252.87789 C582.472714,254.697953 582.268634,254.818365 577.849782,254.826174 L576.681167,254.826698 C571.123971,254.826698 570.570466,254.95954 569.264193,256.442934 C567.98006,257.904189 567.802938,259.476145 568.710687,261.269503 C569.352754,262.531495 570.260503,263.306403 571.611056,263.682787 C572.089596,263.813298 577.376427,263.901068 585.539986,263.904107 L585.98006,263.904189 C601.608178,263.904189 600.440782,263.687193 600.415871,266.217804 L600.415484,266.295333 C600.415484,268.775038 601.854599,268.553635 585.227292,268.531495 L582.647605,268.531074 C571.648372,268.526726 570.686702,268.482183 569.552016,268.110831 C562.93209,266.00751 560.917329,257.749207 565.810318,252.856219 C568.334304,250.354373 570.459765,249.823008 577.278953,250.04441 Z M588.238945,251.117298 L588.238004,253.703078 C588.234034,260.578587 588.190919,261.034746 587.817698,261.490905 C587.397034,262.00013 587.286333,262.02227 583.876739,262.04441 C581.95054,262.04441 579.692237,262.02227 578.828768,261.97799 C576.836149,261.889429 576.504045,261.535185 576.504045,259.608986 C576.504045,258.457695 576.592606,258.147731 577.01327,257.749207 C577.478215,257.306403 577.766038,257.262123 580.201462,257.262123 C582.061241,257.262123 582.94685,257.173562 583.101831,256.99644 C583.301093,256.730757 583.566776,250.664337 583.588916,245.704927 C583.588916,242.814209 583.651974,242.65601 585.723731,242.649798 L585.891499,242.649576 C588.322003,242.649576 588.247777,241.992598 588.238945,251.117298 Z M613.876739,236.273193 L619.566776,236.339613 L621.072311,237.0481 C623.064931,238.00013 624.814008,239.682787 625.721757,241.520425 C626.385964,242.893119 626.430245,243.114521 626.430245,245.417104 C626.430245,247.697547 626.385964,247.941089 625.721757,249.358064 C624.437625,252.059171 621.869359,254.05179 618.924709,254.583156 C618.092079,254.732602 613.24498,254.820288 604.879707,254.82636 L601.094793,254.826107 C591.09269,254.820985 590.217495,254.776056 589.810318,254.450314 C589.367514,254.096071 589.323233,253.874669 589.389654,252.280573 C589.456075,250.664337 589.500355,250.509355 590.00958,250.243672 C590.423966,250.025575 593.588336,249.957867 603.777735,249.955894 L606.403911,249.955251 C616.335454,249.949172 618.084516,249.893119 618.747588,249.623746 C620.430245,248.915259 621.448695,247.365444 621.448695,245.527805 C621.448695,244.177252 621.072311,243.203082 620.208842,242.361754 C618.963455,241.116366 618.710486,240.999611 614.195956,240.989881 L612.327233,240.989063 C607.179598,240.986913 607.278953,240.906325 607.278953,238.620056 C607.278953,237.402344 607.367514,237.02596 607.743898,236.649576 C608.186702,236.206772 608.385964,236.206772 613.876739,236.273193 Z M597.293713,219.291643 C601.345374,220.243672 604.511425,223.232602 605.861979,227.372824 C606.216222,228.435554 606.260503,229.697547 606.349064,237.867289 C606.393344,242.95954 606.371204,247.365444 606.304783,247.653266 C606.061241,248.627436 605.596296,248.848838 603.869359,248.848838 C602.629507,248.848838 602.164562,248.760278 601.94316,248.472455 C601.699617,248.184632 601.611056,246.169872 601.522495,238.354373 C601.411794,228.745517 601.411794,228.568396 600.902569,227.660647 C600.105521,226.155111 599.064931,225.136661 597.647957,224.450314 C594.216222,222.834078 590.164562,224.339613 588.614746,227.793488 C588.260503,228.568396 588.127661,229.454004 588.039101,231.601606 C587.95054,233.483525 587.817698,234.501975 587.596296,234.767658 C587.374894,235.03334 586.909949,235.121901 585.714377,235.121901 C583.500355,235.121901 583.278953,234.922639 583.190392,232.863599 C582.96899,228.457695 584.031721,225.180942 586.489285,222.612676 C589.345374,219.623746 593.419174,218.383894 597.293713,219.291643 Z M599.914162,236.573654 L599.928399,236.583156 C600.349064,236.870979 600.415484,237.114521 600.415484,238.531495 C600.415484,239.815628 600.326923,240.214152 600.01696,240.501975 C599.661257,240.836755 598.376172,240.874923 586.425476,240.878107 L582.032481,240.878828 C570.471959,240.884248 568.774089,240.940251 568.356444,241.232602 C567.923564,241.521189 567.874519,241.713816 567.869813,243.68664 L567.869359,244.155111 C567.869359,247.586846 567.780798,247.741827 565.522495,247.741827 C564.171942,247.741827 563.795558,247.653266 563.441315,247.299023 C563.049999,246.907707 563.003539,246.612185 562.998961,242.990631 L562.998969,241.245746 C563.003647,237.623591 563.051544,237.319447 563.463455,236.804558 L563.906259,236.228912 L582.638598,236.228971 C597.312201,236.230831 599.450645,236.278563 599.914162,236.573654 Z" id="jesse-logo"></path>
        </g>
    </g>
</svg>