<?xml version="1.0" encoding="UTF-8"?>
<svg width="292px" height="47px" viewBox="0 0 292 47" version="1.1" xmlns="http://www.w3.org/2000/svg" xmlns:xlink="http://www.w3.org/1999/xlink">
    <!-- Generator: Sketch 58 (84663) - https://sketch.com -->
    <title>Luke Mlani</title>
    <desc>Created with Sketch.</desc>
    <g id="Luke-Mlani" stroke="none" stroke-width="1" fill="none" fill-rule="evenodd">
        <polygon id="Path" fill="#E6E6E6" fill-rule="nonzero" points="2 1 7.9088017 1 7.9088017 39.758339 30 39.758339 30 45 2 45"></polygon>
        <path d="M40.549884,13 L40.549884,34.33 C40.549884,35.9700082 40.811289,37.3099948 41.3341067,38.35 C42.2993088,40.2700096 44.0989814,41.23 46.7331787,41.23 C50.5135533,41.23 53.0873868,39.5500168 54.4547564,36.19 C55.1987663,34.389991 55.5707657,31.9200157 55.5707657,28.78 L55.5707657,13 L61,13 L61,45.13 L55.8723898,45.13 L55.9327146,40.39 C55.2289215,41.6100061 54.3542202,42.6399958 53.3085847,43.48 C51.237422,45.1600084 48.7239127,46 45.7679814,46 C41.1631634,46 38.0263038,44.4700153 36.3573086,41.41 C35.4524317,39.7699918 35,37.5800137 35,34.84 L35,13 L40.549884,13 Z" id="Path" fill="#E6E6E6" fill-rule="nonzero"></path>
        <polygon id="Path" fill="#E6E6E6" fill-rule="nonzero" points="69 1 74.0653153 1 74.0653153 26.5493533 87.5923423 12.9210347 94.3265766 12.9210347 82.3220721 24.9319265 95 45 88.2657658 45 78.4864865 28.8257318 74.0653153 32.9591559 74.0653153 45 69 45"></polygon>
        <path d="M112.00409,12 C114.25768,12 116.442048,12.535152 118.55726,13.6054722 C120.672471,14.6757923 122.283566,16.061186 123.390593,17.7616946 C124.458083,19.3821793 125.169732,21.2727165 125.525562,23.4333628 C125.841856,24.9138056 126,27.2744763 126,30.5154457 L102.722904,30.5154457 C102.821746,33.7764211 103.582815,36.3921643 105.006135,38.3627538 C106.429455,40.3333432 108.633591,41.3186231 111.618609,41.3186231 C114.405944,41.3186231 116.629849,40.3883588 118.290389,38.5278023 C119.239269,37.4474792 119.911382,36.1971239 120.306748,34.776699 L125.555215,34.776699 C125.416836,35.9570521 124.95723,37.2724258 124.17638,38.7228597 C123.395531,40.1732935 122.520796,41.3586303 121.552147,42.2789056 C119.931144,43.8793843 117.924688,44.9596912 115.53272,45.5198588 C114.247778,45.8399545 112.794827,46 111.173824,46 C107.220157,46 103.869475,44.5445865 101.121677,41.6337158 C98.3738786,38.7228451 97,34.646687 97,29.4051192 C97,24.2435753 98.3837626,20.0523844 101.151329,16.831421 C103.918896,13.6104576 107.536447,12 112.00409,12 Z M111.677914,16.7113857 C109.226641,16.7113857 107.170765,17.6066401 105.510225,19.3971756 C103.849685,21.1877112 102.970007,23.4633578 102.871166,26.2241836 L120.514315,26.2241836 C120.296863,23.8834834 119.792778,22.012952 119.002045,20.6125331 C117.539188,18.0117552 115.097836,16.7113857 111.677914,16.7113857 Z" id="Combined-Shape" fill="#E6E6E6" fill-rule="nonzero"></path>
        <path d="M151,1 L159.299006,1 L171.587358,38.2008169 L183.788352,1 L192,1 L192,45 L186.496449,45 L186.501963,18.0345564 L186.501963,18.0345564 L186.587042,12.4417952 C186.604298,10.9907729 186.612926,9.47319452 186.612926,7.88904016 L174.411932,45 L168.675426,45 L156.387074,7.88904016 L156.389096,9.82304777 C156.39314,10.4562069 156.403251,11.2303882 156.419429,12.145598 L156.520032,17.4291763 C156.528458,18.064622 156.53267,18.5986666 156.53267,19.0313138 L156.53267,45 L151,45 L151,1 Z" id="Path" fill="#E6E6E6" fill-rule="nonzero"></path>
        <polygon id="Path" fill="#E6E6E6" fill-rule="nonzero" points="203 1 209 1 209 45 203 45"></polygon>
        <path d="M229.919052,12 C233.650562,12 236.681133,12.7202046 239.010859,14.1606355 C241.320841,15.6010663 242.475814,17.8417029 242.475814,20.8826125 L242.475814,39.3980583 C242.475814,39.9582258 242.589337,40.4083537 242.816387,40.7484554 C243.043436,41.0885572 243.522208,41.2586055 244.252715,41.2586055 C244.489636,41.2586055 244.756168,41.2436012 245.05232,41.2135922 C245.348471,41.1835833 245.664362,41.1385705 246,41.0785525 L246,45.0697264 C245.170776,45.3097982 244.538995,45.4598408 244.10464,45.5198588 C243.670284,45.5798767 243.07799,45.6098853 242.327739,45.6098853 C240.4916,45.6098853 239.158938,44.9496977 238.329714,43.6293027 C237.895358,42.9290933 237.589339,41.9388119 237.411649,40.6584289 C236.32576,42.0988598 234.766052,43.3492151 232.732478,44.4095322 C230.698904,45.4698494 228.458058,46 226.009872,46 C223.0681,46 220.664373,45.0947428 218.798618,43.2842012 C216.932863,41.4736597 216,39.208016 216,36.4872021 C216,33.5063105 216.918056,31.195654 218.754195,29.5551633 C220.590335,27.9146726 222.998998,26.9043855 225.980257,26.5242718 L234.479763,25.4439541 C235.703856,25.2839062 236.523196,24.7637584 236.937808,23.8834951 C237.17473,23.4033515 237.293189,22.7131554 237.293189,21.8128861 C237.293189,19.9723356 236.646601,18.6369562 235.353406,17.8067079 C234.060211,16.9764595 232.209291,16.5613416 229.800592,16.5613416 C227.016768,16.5613416 225.042454,17.3215576 223.877591,18.8420124 C223.226058,19.6822637 222.80158,20.9326189 222.604146,22.5931156 L217.628825,22.5931156 C217.727542,18.6319308 218.996039,15.8761478 221.434353,14.325684 C223.872668,12.7752203 226.700872,12 229.919052,12 Z M237.145114,28.564872 C236.49358,28.9849977 235.654497,29.3350972 234.627838,29.6151809 C233.601179,29.8952647 232.594279,30.0953216 231.607108,30.2153575 L228.379072,30.635481 C226.444215,30.8955588 224.993095,31.3056753 224.025666,31.8658429 C222.386961,32.8061241 221.567621,34.3065505 221.567621,36.3671668 C221.567621,37.9276336 222.1303,39.1579831 223.255676,40.0582524 C224.381052,40.9585217 225.713714,41.4086496 227.253702,41.4086496 C229.129328,41.4086496 230.945697,40.9685246 232.702863,40.0882613 C235.664378,38.6278244 237.145114,36.2371452 237.145114,32.9161518 L237.145114,28.564872 Z" id="Combined-Shape" fill="#E6E6E6" fill-rule="nonzero"></path>
        <path d="M251,12.7232877 L256.092784,12.7232877 L256.092784,17.3041096 C257.601764,15.4155157 259.200068,14.0593648 260.887743,13.2356164 C262.575419,12.411868 264.451689,12 266.516609,12 C271.043551,12 274.101176,13.5972443 275.689576,16.7917808 C276.563196,18.5397348 277,21.0410796 277,24.2958904 L277,45 L271.549828,45 L271.549828,24.6575342 C271.549828,22.6885746 271.261935,21.1013759 270.68614,19.8958904 C269.733099,17.8867479 268.00574,16.8821918 265.504009,16.8821918 C264.233289,16.8821918 263.190917,17.0127841 262.376861,17.2739726 C260.907591,17.7159839 259.617035,18.5999934 258.505155,19.9260274 C257.611679,20.9908729 257.030929,22.0908619 256.762887,23.2260274 C256.494844,24.3611929 256.360825,25.9835511 256.360825,28.0931507 L256.360825,45 L251,45 L251,12.7232877 Z" id="Path" fill="#E6E6E6" fill-rule="nonzero"></path>
        <polygon id="Path" fill="#E6E6E6" fill-rule="nonzero" points="284 13 290 13 290 45 284 45"></polygon>
        <polygon id="Path" fill="#E6E6E6" fill-rule="nonzero" points="284 1 290 1 290 7 284 7"></polygon>
    </g>
</svg>