<?xml version="1.0" encoding="UTF-8"?>
<svg width="154px" height="32px" viewBox="0 0 154 32" version="1.1" xmlns="http://www.w3.org/2000/svg" xmlns:xlink="http://www.w3.org/1999/xlink">
    <!-- Generator: Sketch 56.2 (81672) - https://sketch.com -->
    <title>path0</title>
    <desc>Created with Sketch.</desc>
    <g id="Page-1" stroke="none" stroke-width="1" fill="none" fill-rule="evenodd">
        <g id="image2vector-(9)" fill="#FFFFFF">
            <path d="M74.192558,0.0780263572 C73.4188426,0.226910131 72.6180672,0.899925555 72.3524783,1.62459453 C72.0979139,2.31735985 72.0944061,29.4997895 72.3484694,30.1920484 C72.7588793,31.3091831 73.5295881,31.7811548 74.9442245,31.7811548 C76.7512308,31.7811548 77.6261707,30.9633068 77.722384,29.1837912 L77.7624729,28.4434236 L78.0240528,28.799428 C81.5674088,33.6265033 89.4293396,32.862841 92.5297135,27.3895899 C94.7561498,23.4603749 94.7486331,17.4948958 92.5131768,13.6770905 C92.0205847,12.834935 90.2747139,10.8918498 90.0111295,10.8918498 C89.9760517,10.8918498 89.729004,10.7480301 89.4614107,10.5723068 C85.8764625,8.21801878 80.3316691,9.07182165 78.0726606,12.326502 L77.8672051,12.6217375 L77.8256129,7.177858 L77.7840206,1.73397853 L77.5354696,1.28074391 C76.9892586,0.284134166 75.6412699,-0.201004116 74.192558,0.0780263572 M2.36681226,0.224884501 C1.05991472,0.521639233 0.54777926,0.926765147 0.190988214,1.94515041 C-0.0625739616,2.66779376 -0.0640772947,29.0283242 0.18898377,29.865922 C0.383414845,30.5090594 0.802844769,31.0225565 1.37461244,31.317792 L1.7820157,31.5279511 L9.21499545,31.5279511 L16.6484763,31.5279511 L17.5254206,31.328933 C22.6958841,30.155587 25.2620736,26.8811568 24.7905281,22.0591456 C24.4798393,18.8839713 22.5981674,16.4228314 19.8039724,15.536112 C19.4697313,15.4297665 19.3905558,15.2803763 19.6681713,15.2803763 C20.3151056,15.2803763 22.3811864,13.5271939 23.1002807,12.3685338 C24.2357982,10.5378711 24.3966549,7.17380674 23.4510584,5.02562658 C22.8747807,3.71757629 21.693662,2.43839121 20.406809,1.72942086 C17.870185,0.332242868 17.1781507,0.241089538 8.92284772,0.210198687 C5.40855615,0.197538502 2.45851558,0.203639362 2.36681226,0.224884501 M15.0574488,4.99119088 C17.441735,5.54874542 18.515616,6.76361675 18.5567071,8.95028387 C18.5967959,11.0635219 17.6722461,12.3234635 15.5440276,13.0577542 L14.8945877,13.2815863 L10.2798564,13.3170348 L5.6656261,13.3529897 L5.6656261,9.08397543 L5.6656261,4.81496111 L9.98369975,4.81496111 C14.0687568,4.81496111 14.3423634,4.82407644 15.0574488,4.99119088 M36.7345093,9.25817957 C35.5614084,9.3695892 34.0169842,9.74078581 33.2557966,10.0942582 C33.1109755,10.1616104 32.9716666,10.2163024 32.9466111,10.2163024 C32.8478922,10.2163024 31.429748,11.0741565 31.4031892,11.1496112 C31.3881558,11.1931622 31.3315303,11.2291171 31.2779114,11.2291171 C30.9842603,11.2291171 29.2564295,13.1129526 28.7417885,13.9946079 C27.0480333,16.8942966 26.5298845,21.5167833 27.5556587,24.5734583 C27.6428521,24.8332453 27.7145109,25.0889811 27.7145109,25.141141 C27.7145109,25.2307751 28.441623,26.7727856 28.6576019,27.1419566 C29.3942351,28.3993662 30.662046,29.6187952 32.2245101,30.5723603 C34.918483,32.2161587 40.2999142,32.4070743 43.4809669,30.9714093 C43.6774025,30.882788 43.8778469,30.8103718 43.9259535,30.8103718 C44.0562424,30.8103718 45.4337966,30.1069719 45.7610221,29.8730117 C46.8554485,29.0921315 47.3019385,27.8012991 46.8564508,26.7069527 C46.3312864,25.4151074 45.345601,25.2282431 43.6373136,26.0952126 C43.354687,26.2385258 43.029967,26.3869032 42.9147115,26.4248838 C42.7999571,26.4628643 42.425126,26.6127609 42.081865,26.7575934 C38.9930167,28.0600732 35.7879106,27.7729402 34.200892,26.0516615 C33.9017287,25.7275608 33.3936021,25.0271994 33.3936021,24.9390845 C33.3936021,24.9178154 33.3229455,24.73956 33.2367544,24.5425675 C32.9756755,23.9485516 32.7406545,23.0390439 32.6815234,22.3943873 L32.6259,21.7851792 L39.3778699,21.7613781 L46.1303409,21.7370705 L46.4395264,21.5431165 C47.0694229,21.1471059 47.1340663,20.9263123 47.1215385,19.2050336 C47.0974852,15.7705786 45.6362454,12.5584365 43.4173258,11.0604835 C43.314097,10.9905993 43.1417148,10.866023 43.0349781,10.7834786 C41.7671673,9.80509955 38.7269267,9.0687832 36.7345093,9.25817957 M58.7418019,9.25514112 C54.6657649,9.66330548 51.3063166,12.0064525 50.0430157,15.3229145 C49.5454125,16.6289392 49.4537092,16.949495 49.1720848,18.3613589 C48.8779326,19.8365236 49.1796015,23.9926091 49.6481403,24.9193346 C49.7112802,25.0444172 49.7633958,25.206974 49.7633958,25.2793902 C49.7633958,25.4895493 50.4308757,26.8249456 50.8823767,27.5187237 C53.7757917,31.9644742 60.4571049,33.2634092 66.4969961,30.5546361 C68.5580657,29.6299362 69.3848989,28.2980847 68.8492112,26.7641767 C68.3140246,25.2322944 67.1258904,25.1983651 64.4499575,26.6396005 C64.3276864,26.7054335 64.1863731,26.7591126 64.1357609,26.7591126 C64.0846476,26.7591126 63.8837021,26.8284905 63.689271,26.9130605 C61.1215781,28.0301952 57.8362943,27.700524 56.2918701,26.1706673 C55.3988903,25.2859735 54.6201638,23.3439012 54.6091393,21.9720436 L54.607636,21.7851792 L61.3515881,21.7613781 L68.0955402,21.7370705 L68.4097368,21.5400781 C69.8118454,20.6589292 69.2065033,15.8318539 67.3548981,13.1316897 C65.530854,10.4720381 62.0837113,8.92040584 58.7418019,9.25514112 M106.222071,9.25615394 C99.4265045,9.85371466 95.6716796,14.5136755 96.1306973,21.7796088 C96.5506283,28.4327891 101.326717,32.4334075 108.218497,31.905731 C111.669148,31.6413863 114.262397,30.2877594 116.05888,27.8139592 C116.695291,26.9373681 117.299631,25.5776642 117.709039,24.1004738 C118.179582,22.4040091 118.180083,18.4869479 117.710041,17.1480067 C117.638883,16.9449374 117.580253,16.7124964 117.580253,16.6314712 C117.580253,16.2612874 116.712329,14.4073299 116.138056,13.5504886 C114.950924,11.779582 113.094308,10.4553266 110.815255,9.75395241 C110.562695,9.67596567 110.149278,9.57924186 109.896718,9.53872926 C109.644158,9.49821667 109.228737,9.42883886 108.973672,9.3837686 C108.421948,9.28704479 106.752748,9.20956446 106.222071,9.25615394 M132.446714,9.25666035 C129.92362,9.56708808 128.113106,10.5611658 126.931486,12.2844701 L126.642345,12.7063075 L126.600252,11.8200946 C126.521577,10.1519886 125.677706,9.37060201 123.956891,9.37313405 C122.776775,9.37515968 121.971489,9.79952907 121.451837,10.6933381 L121.213308,11.1025153 L121.213308,20.5976539 L121.213308,30.0927925 L121.397216,30.440188 C122.270151,32.088544 124.83133,32.3984654 126.143238,31.014454 C126.734048,30.3915729 126.710997,30.6427509 126.774638,24.1004738 C126.832266,18.150187 126.858324,17.6655551 127.162498,16.8421367 C127.480704,15.9797249 127.667618,15.6789189 128.279475,15.0454033 C129.846449,13.422874 132.950832,13.3752717 134.010681,14.9572884 C134.714241,16.0075773 134.71825,16.0516347 134.775878,23.4674646 L134.826991,30.0087289 L135.058505,30.4852582 C135.964012,32.348331 139.183149,32.3402285 140.143779,30.4725981 L140.339213,30.0927925 L140.390326,24.1004738 C140.449958,17.1505388 140.43292,17.3176532 141.236702,15.8500846 C141.979349,14.494432 143.944205,13.603155 145.64247,13.851801 C146.972419,14.0462615 147.675478,14.6352133 148.15454,15.9559237 L148.353481,16.5043629 L148.403091,23.2142609 C148.448692,29.3934439 148.464227,29.9560625 148.602533,30.3252335 C149.360213,32.3493439 152.832912,32.4040359 153.821103,30.4072715 L154,30.0467094 L153.974443,22.8536988 C153.949889,15.7320917 153.947884,15.6520793 153.76097,14.8332186 C152.909081,11.098464 150.644561,9.28349994 146.812064,9.26425646 C145.763238,9.25919238 144.387187,9.47593475 143.76581,9.74483707 C142.829734,10.1494566 142.53007,10.3039108 141.977846,10.6664985 C141.275789,11.1278357 140.453466,11.9446708 140.005974,12.6262951 C139.655196,13.1600485 139.604083,13.1782792 139.457758,12.8222748 C139.019787,11.7532488 137.678814,10.3788591 136.664565,9.9590474 C136.52676,9.90182337 136.282218,9.79750344 136.121862,9.72660641 C135.449371,9.43035808 133.284572,9.15385965 132.446714,9.25666035 M39.1323255,13.5044056 C39.6604965,13.6730392 40.2548142,13.9510569 40.4657819,14.1277931 C40.7529186,14.3683366 41.4113784,15.0722428 41.4113784,15.1385822 C41.4113784,15.1790948 41.4790284,15.3132928 41.5612106,15.4363498 C41.8864317,15.9240201 42.1931116,17.0112767 42.3669971,18.2980579 L42.4156049,18.6565944 L37.5207525,18.6565944 L32.6259,18.6565944 L32.6825256,18.1289179 C33.0568555,14.6620529 36.0454816,12.5189368 39.1323255,13.5044056 M60.9978037,13.4643994 C63.0578711,14.0660114 63.8982343,15.2854404 64.3296909,18.2980579 L64.3813053,18.6565944 L59.4944707,18.6565944 C54.8957748,18.6565944 54.607636,18.6479854 54.607636,18.5087234 C54.607636,16.8142843 55.8639213,14.6114121 57.2464866,13.8806662 C57.6694243,13.6573406 57.9851243,13.5530207 58.9923574,13.304881 C59.3150729,13.2253751 60.5032072,13.3195669 60.9978037,13.4643994 M108.434977,13.8148333 C110.994151,14.3799839 112.320091,16.5043629 112.457897,20.2603866 C112.629276,24.9441486 110.77266,27.4402306 107.099015,27.4650446 C104.807435,27.4802368 103.374758,26.6558055 102.495809,24.8145083 C101.43145,22.5847965 101.436461,18.6170946 102.506333,16.4289082 C103.578209,14.2371771 105.836717,13.2410737 108.434977,13.8148333 M84.3816483,13.8406601 C85.3482915,14.0482871 85.8769636,14.2913626 86.5384302,14.8332186 C86.7970034,15.0454033 87.5135922,15.9073086 87.5135922,16.0065645 C87.5135922,16.0410002 87.5662089,16.1291151 87.62985,16.2025441 C87.7821877,16.3767483 88.1234443,17.2796727 88.3188776,18.0235851 C88.8675942,20.1115028 88.2527309,24.6139709 87.3116445,25.4029537 C87.2389834,25.4642289 87.1798523,25.5477862 87.1798523,25.5888052 C87.1798523,25.6997084 86.1776302,26.6618824 85.9305825,26.7884843 C85.8138236,26.8482403 85.6429448,26.9373681 85.5512414,26.9864896 C83.612944,28.0266504 80.7536045,27.5399928 79.3209281,25.9270853 C78.9330682,25.4905621 78.1613572,24.072115 78.1588517,23.7915653 C78.1578495,23.7292772 78.0776717,23.4315097 77.9804562,23.1296909 C77.4708263,21.5507126 77.8762251,17.2594164 78.6258872,16.2931911 C78.6800071,16.2238133 78.7817327,16.0526476 78.8518882,15.9133855 C79.6692003,14.2913626 82.1486976,13.3621051 84.3816483,13.8406601 M16.0220875,18.2114623 C18.7341004,18.9680349 19.978359,21.275227 19.161047,24.0331217 C18.8353248,25.1335449 17.7739717,26.4213389 17.1926829,26.4213389 C17.1415695,26.4213389 16.9897329,26.4790694 16.8554352,26.5489536 C16.0491475,26.9702845 15.2533832,27.0340919 10.3219497,27.0725788 L5.6656261,27.1090402 L5.6656261,22.5412455 L5.6656261,17.9739572 L10.5304119,18.0053545 C15.1386288,18.0352325 15.4287721,18.0463735 16.0220875,18.2114623" id="path0"></path>
        </g>
    </g>
</svg>