<?xml version="1.0" encoding="UTF-8"?>
<svg width="225px" height="18px" viewBox="0 0 225 18" version="1.1" xmlns="http://www.w3.org/2000/svg" xmlns:xlink="http://www.w3.org/1999/xlink">
    <!-- Generator: Sketch 56.3 (81716) - https://sketch.com -->
    <title>HOW_TO_CODE_WELL</title>
    <desc>Created with Sketch.</desc>
    <g id="Page-1" stroke="none" stroke-width="1" fill="none" fill-rule="evenodd">
        <g id="influencer-techlead-copy" transform="translate(-561.000000, -243.000000)" fill="#FFFFFF">
            <g id="Group-28" transform="translate(405.000000, 242.000000)">
                <g id="Group-13">
                    <g id="Group-6">
                        <path d="M156,1 L156,18.5 L159.861247,18.5 L159.861247,11.1777859 L166.195944,11.1777859 L166.195944,18.5 L170.03118,18.5 L170.03118,1 L166.195944,1 L166.195944,7.72470674 L159.861247,7.72470674 L159.861247,1 L156,1 Z M181.408377,1.0003651 C176.32835,1.0003651 173.037862,4.90697957 173.037862,10.127969 C173.037862,15.0933855 176.023549,19 181.127715,19 C186.154779,19 189.57461,15.5347965 189.57461,9.81945599 C189.57461,5.00847853 186.690884,1 181.408377,1 L181.408377,1.0003651 Z M181.306052,4 C184.050143,4 185.565702,6.63458967 185.565702,9.69939671 C185.565702,13.0177566 184.023949,15.5 181.332246,15.5 C178.666736,15.5 177.046771,13.1443543 177.046771,9.80060329 C177.046402,6.48188575 178.614348,4 181.306052,4 Z M198.962305,18.5 L200.603058,10.9698902 C201.013156,9.20420175 201.29512,7.54261447 201.602784,5.56945666 L201.652734,5.56945666 C201.857602,7.56863977 202.139929,9.20420175 202.47293,10.9698902 L203.934514,18.4992669 L208.16471,18.4992669 L212.625835,1 L208.652991,1 L207.241357,8.16575552 C206.882295,10.242648 206.497896,12.2938817 206.24163,14.2413808 L206.19168,14.2413808 C205.935414,12.2942483 205.653088,10.4248251 205.268689,8.37359139 L203.884202,1 L199.73074,1 L198.269518,8.16575552 C197.835169,10.3207239 197.423624,12.4236417 197.141297,14.3190901 L197.090261,14.3190901 C196.808296,12.5534016 196.449234,10.2946986 196.064836,8.21780612 L194.757084,1 L190.576837,1 L194.678901,18.4992669 L198.960495,18.4992669 L198.962305,18.5 Z M222.188636,18.5 L226.036848,18.5 L226.036848,4.32317456 L230.665924,4.32317456 L230.665924,1 L217.636971,1 L217.636971,4.32317456 L222.189701,4.32317456 L222.189701,18.4992669 L222.188636,18.5 Z M239.537553,1.00109527 C234.457526,1.00109527 231.167038,4.90755126 231.167038,10.1283289 C231.167038,15.093544 234.152724,19 239.25689,19 C244.283955,19 247.703786,15.534937 247.703786,9.81982841 C247.704867,5.00831592 244.821141,1 239.538634,1 L239.537553,1.00109527 Z M239.435228,4 C242.179319,4 243.694878,6.63458967 243.694878,9.69939671 C243.694878,13.0177566 242.153125,15.5 239.461421,15.5 C236.795912,15.5 235.175947,13.1443543 235.175947,9.80060329 C235.175947,6.48188575 236.743893,4 239.435228,4 Z M264.958699,15.1684001 C263.925052,15.5439894 262.836312,15.7366429 261.739299,15.7380759 C258.293467,15.7380759 256.266318,13.5368896 256.266318,10.0405867 C256.266318,6.1556025 258.647959,4.26338669 261.713901,4.26338669 C262.826341,4.25594342 263.928991,4.47611866 264.956911,4.91094499 L265.743875,1.77699683 C265.059574,1.41464207 263.539301,1 261.537907,1 C256.368981,1 252.213808,4.31530836 252.213808,10.2720403 C252.213808,15.24482 255.254353,19 261.156587,19 C263.234174,19 264.830639,18.6116844 265.53998,18.248964 L264.958699,15.1684001 Z M275.116257,1 C270.038032,1 266.746102,4.90708997 266.746102,10.1287149 C266.746102,15.0947358 269.731789,19 274.835595,19 C279.86302,19 283.282851,15.5343747 283.282851,9.81833857 C283.282851,5.00896643 280.399125,1 275.116257,1 Z M275.014292,4 C277.758014,4 279.273942,6.63423205 279.273942,9.69939671 C279.273942,13.0177566 277.732189,15.5 275.040486,15.5 C272.374977,15.5 270.755011,13.1443543 270.755011,9.80060329 C270.755011,6.48152813 272.322958,4 275.014292,4 Z M286.289532,18.2436025 C287.737026,18.4254752 289.194792,18.5107642 290.653369,18.498916 C293.982691,18.498916 296.707329,17.7844704 298.497877,16.2795972 C300.136008,14.875193 301.32294,12.6065401 301.32294,9.3162731 C301.32294,6.2813196 300.213285,4.16427028 298.447309,2.83764846 C296.809178,1.58808882 294.714152,1.00111988 291.485611,1.00111988 C289.747139,0.98700011 288.010117,1.10641782 286.289532,1.3583427 L286.289532,18.2436025 L286.289532,18.2436025 Z M289.797327,4.15535898 C290.364276,4.03996561 290.941892,3.98857797 291.519801,4.00211908 C294.79028,4.00211908 296.837369,5.89183745 296.812697,9.46755525 C296.812697,13.5779902 294.565763,15.5203509 291.120463,15.4947509 C290.678035,15.512109 290.234996,15.4863932 289.797327,15.4179506 L289.797327,4.15463785 L289.797327,4.15535898 Z M314.109522,7.88123167 L307.751169,7.88123167 L307.751169,4.2452346 L314.494295,4.2452346 L314.494295,1 L303.828508,1 L303.828508,18.5 L314.853007,18.5 L314.853007,15.2543988 L307.751169,15.2543988 L307.751169,11.1000733 L314.109522,11.1000733 L314.109522,7.88049853 L314.109522,7.88123167 Z M327.745239,18.5 L329.385992,10.9703079 C329.796089,9.20454545 330.078054,7.54288856 330.385718,5.56964809 L330.438926,5.56964809 C330.644156,7.56891496 330.92612,9.20454545 331.259483,10.9703079 L332.721067,18.5 L336.951264,18.5 L341.412027,1 L337.436648,1 L336.025015,8.16605572 C335.665953,10.2434018 335.281554,12.2943548 335.024926,14.2419355 L334.97389,14.2419355 C334.717262,12.2943548 334.435298,10.4248534 334.050899,8.37390029 L332.666412,1 L328.514398,1 L327.053176,8.16605572 C326.618827,10.3211144 326.207282,12.4241202 325.924955,14.3196481 L325.873919,14.3196481 C325.591954,12.5542522 325.232892,10.295088 324.848494,8.2181085 L323.541103,1 L319.363029,1 L323.465092,18.5 L327.745239,18.5 Z M353.697495,7.88049853 L347.339142,7.88049853 L347.339142,4.24560117 L354.082268,4.24560117 L354.082268,1 L343.416481,1 L343.416481,18.5 L354.44098,18.5 L354.44098,15.2543988 L347.339142,15.2543988 L347.339142,11.1000733 L353.697495,11.1000733 L353.697495,7.88049853 Z M357.447661,18.5 L367.971047,18.5 L367.971047,15.1763196 L361.272005,15.1763196 L361.272005,1 L357.447661,1 L357.447661,18.5 Z M370.476615,18.5 L381,18.5 L381,15.1763196 L374.301311,15.1763196 L374.301311,1 L370.476615,1 L370.476615,18.5 L370.476615,18.5 Z" id="HOW_TO_CODE_WELL"></path>
                    </g>
                </g>
            </g>
        </g>
    </g>
</svg>