<?xml version="1.0" standalone="no"?>
<!DOCTYPE svg PUBLIC "-//W3C//DTD SVG 20010904//EN"
 "http://www.w3.org/TR/2001/REC-SVG-20010904/DTD/svg10.dtd">
<svg version="1.0" xmlns="http://www.w3.org/2000/svg"
 width="320.000000pt" height="320.000000pt" viewBox="0 0 320.000000 320.000000"
 preserveAspectRatio="xMidYMid meet">
<metadata>
Created by potrace 1.15, written by Peter Selinger 2001-2017
</metadata>
<g transform="translate(0.000000,320.000000) scale(0.100000,-0.100000)"
fill="#000000" stroke="none">
<path d="M1622 2914 c-19 -13 -22 -24 -22 -88 0 -105 8 -111 159 -111 85 0
122 -4 134 -14 15 -12 17 -51 17 -387 0 -441 -7 -414 109 -414 64 0 71 2 91
28 l22 27 -6 470 c-7 458 -8 470 -28 488 -18 15 -45 17 -237 17 -180 0 -220
-3 -239 -16z"/>
<path d="M466 2440 c-299 -95 -390 -468 -169 -689 114 -113 210 -137 518 -127
237 7 235 6 235 112 0 105 3 104 -262 104 -251 0 -276 6 -335 73 -58 66 -66
137 -25 218 29 57 70 92 131 109 22 6 269 10 649 10 713 0 652 -10 652 108 0
112 65 102 -686 101 -607 0 -653 -1 -708 -19z"/>
<path d="M2196 2438 c-11 -15 -16 -45 -16 -85 0 -107 -12 -103 328 -103 267 0
290 -1 305 -18 14 -15 17 -41 17 -140 0 -144 5 -152 105 -152 39 0 69 6 83 16
22 15 22 19 22 244 0 194 -2 231 -16 244 -13 14 -65 16 -414 16 l-399 0 -15
-22z"/>
<path d="M885 2163 c-90 -4 -105 -20 -105 -107 0 -52 4 -66 23 -84 21 -20 34
-22 144 -22 84 0 124 -4 131 -12 9 -12 21 -286 22 -510 0 -134 3 -138 104
-138 114 0 106 -32 106 432 0 375 -1 397 -19 419 -19 23 -24 24 -178 25 -87 0
-189 -1 -228 -3z"/>
<path d="M1381 1823 c-20 -16 -22 -26 -19 -98 3 -73 5 -80 28 -92 19 -10 166
-13 643 -13 535 0 623 -2 655 -15 76 -32 122 -102 122 -185 0 -61 -17 -105
-56 -143 -60 -60 -69 -62 -315 -62 -274 0 -269 2 -269 -107 0 -55 4 -72 21
-89 20 -20 29 -20 277 -17 l257 3 68 32 c90 43 169 119 210 202 30 62 32 72
32 176 0 103 -2 114 -32 178 -58 122 -174 212 -307 236 -39 7 -273 11 -677 11
-573 0 -618 -1 -638 -17z"/>
<path d="M1929 1553 c-11 -13 -15 -104 -19 -457 -5 -434 -5 -442 -28 -483 -36
-68 -83 -114 -147 -145 -155 -73 -338 -5 -408 151 -16 35 -22 75 -26 172 -4
85 -10 131 -20 143 -10 12 -31 16 -85 16 -100 0 -110 -9 -114 -102 -10 -199
38 -347 149 -463 129 -135 313 -191 488 -150 183 43 326 178 387 365 16 48 18
105 22 474 2 230 1 429 -2 442 -11 44 -32 54 -110 54 -56 0 -77 -4 -87 -17z"/>
<path d="M190 1500 c-19 -19 -20 -33 -20 -234 0 -201 1 -215 21 -240 l20 -26
803 0 c709 0 804 2 824 16 19 13 22 24 22 88 0 58 -4 76 -18 89 -17 16 -81 17
-713 17 -612 0 -697 2 -717 16 -21 14 -22 23 -22 132 0 155 -4 162 -106 162
-61 0 -78 -4 -94 -20z"/>
</g>
</svg>
