<?xml version="1.0" encoding="utf-8"?>
<!-- Generator: Adobe Illustrator 23.0.4, SVG Export Plug-In . SVG Version: 6.00 Build 0)  -->
<svg version="1.1" id="Layer_1" xmlns="http://www.w3.org/2000/svg" xmlns:xlink="http://www.w3.org/1999/xlink" x="0px" y="0px"
	 viewBox="0 0 64 60" style="enable-background:new 0 0 64 60;" xml:space="preserve">
<style type="text/css">
	.st0{fill:#FFFFFF;}
</style>
<title>jesse-logo</title>
<desc>Created with Sketch.</desc>
<g id="Page-1">
	<g id="influencer-comptv-copy-2" transform="translate(-563.000000, -219.000000)">
		<path id="jesse-logo" class="st0" d="M601.5,233.4l0-1.8c0-6.4-0.1-7.2-0.4-7.5c-0.3-0.2-1.1-0.3-3-0.3c-3.3,0-3.5-0.1-3.5-2.5
			l0-0.2c0-1.2,0.1-1.5,0.5-1.7c0.4-0.3,1.3-0.4,5.3-0.4l0.6,0c3.7,0,4.3,0.1,4.6,0.4c0.4,0.4,0.5,0.7,0.6,10.8l0.1,10.4l-0.5,0.6
			c-0.4,0.6-0.6,0.6-2,0.6C601.4,241.8,601.5,242.4,601.5,233.4z M621.9,237.6l0-0.3c0-2-0.1-2.5-0.4-2.8c-0.3-0.4-0.8-0.4-6.1-0.4
			l-1.3,0c-6.8,0-6.6,0-6.6-2.3c0-0.9,0.1-1.5,0.4-1.9l0.3-0.5l10,0c6.7,0,7.8,0.1,8,0.4l0,0c0.3,0.3,0.3,1.1,0.3,4.5l0,2.3
			c0,3.6-0.1,3.7-0.5,4c-0.3,0.2-1,0.4-1.8,0.4C622,240.9,621.9,240.7,621.9,237.6z M565.8,245.1c-4.9-4.9-2.9-13.2,3.7-15.3
			c1.1-0.4,2.1-0.4,13.1-0.4l2.6,0c16.6,0,15.2-0.2,15.2,2.2l0,0.1c0,2.5,1.2,2.3-14.4,2.3l-0.4,0c-8.2,0-13.5,0.1-13.9,0.2
			c-1.4,0.4-2.3,1.2-2.9,2.4c-0.9,1.8-0.7,3.4,0.6,4.8c1.3,1.5,1.9,1.6,7.4,1.6l1.2,0c4.4,0,4.6,0.1,4.6,1.9l0,0.7
			c0,2-0.2,2-5.2,2.1C570.5,248.1,568.3,247.6,565.8,245.1z M585.9,255.3l-0.2,0c-2.1,0-2.1-0.2-2.1-3.1c0-5-0.3-11-0.5-11.3
			c-0.2-0.2-1-0.3-2.9-0.3c-2.4,0-2.7,0-3.2-0.5c-0.4-0.4-0.5-0.7-0.5-1.9c0-1.9,0.3-2.3,2.3-2.4c0.9,0,3.1-0.1,5-0.1
			c3.4,0,3.5,0,3.9,0.6c0.4,0.5,0.4,0.9,0.4,7.8l0,2.6C588.2,256,588.3,255.3,585.9,255.3z M607.7,261.3c-0.4-0.4-0.5-0.8-0.5-2
			c0-2.3-0.1-2.4,5-2.4l1.9,0c4.5,0,4.8-0.1,6-1.4c0.9-0.8,1.2-1.8,1.2-3.2c0-1.8-1-3.4-2.7-4.1c-0.7-0.3-2.4-0.3-12.3-0.3l-2.6,0
			c-10.2,0-13.4-0.1-13.8-0.3c-0.5-0.3-0.6-0.4-0.6-2c-0.1-1.6,0-1.8,0.4-2.2c0.4-0.3,1.3-0.4,11.3-0.4l3.8,0c8.4,0,13.2,0.1,14,0.2
			c2.9,0.5,5.5,2.5,6.8,5.2c0.7,1.4,0.7,1.7,0.7,3.9c0,2.3,0,2.5-0.7,3.9c-0.9,1.8-2.7,3.5-4.6,4.5l-1.5,0.7l-5.7,0.1
			C608.4,261.8,608.2,261.8,607.7,261.3z M586.5,275.3c-2.5-2.6-3.5-5.8-3.3-10.3c0.1-2.1,0.3-2.3,2.5-2.3c1.2,0,1.7,0.1,1.9,0.4
			c0.2,0.3,0.4,1.3,0.4,3.2c0.1,2.1,0.2,3,0.6,3.8c1.5,3.5,5.6,5,9,3.3c1.4-0.7,2.5-1.7,3.3-3.2c0.5-0.9,0.5-1.1,0.6-10.7
			c0.1-7.8,0.2-9.8,0.4-10.1c0.2-0.3,0.7-0.4,1.9-0.4c1.7,0,2.2,0.2,2.4,1.2c0.1,0.3,0.1,4.7,0,9.8c-0.1,8.2-0.1,9.4-0.5,10.5
			c-1.4,4.1-4.5,7.1-8.6,8.1C593.4,279.6,589.3,278.3,586.5,275.3z M582.6,261.7l-18.7,0l-0.4-0.6c-0.4-0.5-0.5-0.8-0.5-4.4V255
			c0-3.6,0.1-3.9,0.4-4.3c0.4-0.4,0.7-0.4,2.1-0.4c2.3,0,2.3,0.2,2.3,3.6l0,0.5c0,2,0.1,2.2,0.5,2.5c0.4,0.3,2.1,0.3,13.7,0.4l4.4,0
			c12,0,13.2,0,13.6,0.4c0.3,0.3,0.4,0.7,0.4,2c0,1.4-0.1,1.7-0.5,1.9l0,0C599.5,261.7,597.3,261.7,582.6,261.7z"/>
	</g>
</g>
</svg>
