<?xml version="1.0" encoding="UTF-8"?>
<svg version="1.1" viewBox="0 0 200 25" xmlns="http://www.w3.org/2000/svg">
<title>path0</title>
<desc>Created with Sketch.</desc>
<g fill="none" fill-rule="evenodd">
<g transform="translate(-561 -238)" fill="#fff">
<g transform="translate(405 238)">
<path d="m171.95 0.031918c-0.10516 0.044214-0.19051 0.11079-0.19051 0.14877 0 0.037451-0.19051 0.15761-0.42369 0.26684-0.23268 0.10975-0.42318 0.23615-0.42318 0.28141s-0.092968 0.082185-0.20676 0.082185c-0.1138 0-0.23166 0.041613-0.26214 0.092068-0.030482 0.050976-0.13768 0.12848-0.23776 0.17321-0.27789 0.1238-0.51361 0.28661-0.5888 0.40676-0.037085 0.059818-0.10414 0.10819-0.14834 0.10819-0.072648 0-0.15139 0.06398-0.5954 0.48115-0.073663 0.069181-0.16104 0.12588-0.19406 0.12588s-0.14428 0.081145-0.2469 0.17998c-0.10262 0.09883-0.36781 0.30065-0.58931 0.44786-0.22099 0.14773-0.40185 0.30065-0.40185 0.34018 0 0.040052-0.057407 0.072302-0.12701 0.072302-0.070107 0-0.12701 0.040052-0.12701 0.089467 0 0.049415-0.073155 0.11756-0.16257 0.15189-0.35054 0.1342-2.2084 1.8923-2.2084 2.09 0 0.052536-0.05131 0.09623-0.1143 0.09623-0.097032 0-0.98658 0.89415-0.98658 0.99142 0 0.018206-0.38508 0.43641-0.85602 0.92953-0.47094 0.49311-0.97286 1.0622-1.1151 1.265-0.14225 0.20234-0.29059 0.36827-0.3292 0.36827s-0.070107 0.058778-0.070107 0.13004-0.037086 0.13004-0.082808 0.13004c-0.045214 0-0.13818 0.11079-0.20676 0.24604-0.068584 0.13576-0.22099 0.34018-0.33936 0.45514-0.11837 0.11496-0.21591 0.258-0.21642 0.3173-0.001016 0.059818-0.032006 0.10871-0.069091 0.10871-0.037594 0-0.17628 0.17529-0.30888 0.39012-0.13259 0.21431-0.27332 0.39012-0.31345 0.39012-0.039626 0-0.072139 0.058258-0.072139 0.13004 0 0.071262-0.057407 0.13004-0.12701 0.13004-0.070108 0-0.12701 0.059818-0.12701 0.13264 0 0.072822-0.057407 0.15501-0.12701 0.18258-0.070107 0.027568-0.12701 0.09831-0.12701 0.15761 0 0.058778-0.068583 0.1883-0.15241 0.28765-0.084332 0.09883-0.22709 0.32926-0.31752 0.51132-0.090936 0.18258-0.21286 0.36307-0.27078 0.40104-0.058423 0.038492-0.10618 0.1212-0.10618 0.18466 0 0.06346-0.056899 0.16385-0.12701 0.22315-0.069599 0.059298-0.12701 0.17789-0.12701 0.2632 0 0.085826-0.029973 0.16853-0.067059 0.18466-0.091952 0.039532-0.44096 0.74279-0.44096 0.88895 0 0.06502-0.056899 0.14096-0.12701 0.16801-0.069599 0.027568-0.12701 0.14981-0.12701 0.27204s-0.056899 0.245-0.12701 0.27204c-0.069599 0.027568-0.12701 0.13888-0.12701 0.24708s-0.052326 0.24135-0.11634 0.29545c-0.064011 0.054617-0.14072 0.25436-0.17019 0.44422-0.029973 0.18986-0.091444 0.34539-0.13767 0.34539-0.046231 0-0.083824 0.053056-0.083824 0.11808 0 0.06502-0.076204 0.21743-0.16917 0.33862-0.095509 0.12432-0.16917 0.35215-0.16917 0.52172 0 0.16541-0.057407 0.44058-0.12701 0.61171-0.15749 0.38544-0.1839 2.7381-0.032513 2.8931 0.095 0.09727 0.22861 0.31938 0.43131 0.7147 0.27535 0.53784 0.88345 0.99559 1.4194 1.0679 0.2088 0.028609 0.3927 0.093108 0.40947 0.14356 0.017781 0.054097 0.28856 0.092588 0.65637 0.092588 0.34444 0 0.88701 0.045774 1.205 0.10143 0.68126 0.11964 2.1164-0.041093 2.1931-0.24552 0.025909-0.069181 0.17476-0.116 0.36832-0.116 0.17832 0 0.34495-0.03381 0.36984-0.075423 0.025401-0.041613 0.23471-0.10091 0.46586-0.13212 0.5822-0.079064 1.5855-0.50039 1.7258-0.72458 0.037086-0.059818 0.15647-0.10819 0.26468-0.10819 0.10872 0 0.24487-0.058778 0.30278-0.13004 0.057915-0.071782 0.16257-0.13004 0.23318-0.13004 0.11888 0 0.68736-0.31522 0.78286-0.43381 0.076712-0.095189 0.76458-0.43329 0.88244-0.43329 0.063503 0 0.13717-0.058778 0.16409-0.13004 0.026925-0.071782 0.10719-0.13004 0.17832-0.13004s0.12955-0.058778 0.12955-0.13004c0-0.071782 0.057407-0.13004 0.12701-0.13004 0.070107 0 0.12701-0.058778 0.12701-0.13004 0-0.071782 0.057406-0.13004 0.12701-0.13004 0.070107 0 0.127-0.058778 0.127-0.13004 0-0.071782 0.055375-0.13004 0.12294-0.13004s0.15342-0.053056 0.19051-0.11756c0.090428-0.15709 0.69294-0.44162 0.76915-0.36359 0.033022 0.03381-0.009652 0.11392-0.095 0.17789-0.086872 0.06554-0.17527 0.271-0.20118 0.4697-0.025909 0.19454-0.077728 0.35371-0.11634 0.35371-0.038101 0-0.094492 0.13524-0.12446 0.30013-0.030482 0.16541-0.10821 0.34591-0.17324 0.40104s-0.11837 0.19662-0.11837 0.31418c0 0.15761-0.066043 0.23927-0.25401 0.31158-0.23776 0.092068-0.25401 0.12692-0.25401 0.55709 0 0.25228-0.04369 0.53108-0.097541 0.61951-0.074679 0.12224-0.071123 0.28453 0.016257 0.68661 0.12548 0.57894 0.18136 0.62107 0.82249 0.62315 0.34292 0.0010403 0.35968 0.013524 0.35968 0.26112 0 0.42757 0.46332 0.1961 0.90072-0.45046 0.12396-0.1831 0.31193-0.35527 0.4181-0.38232 0.10618-0.027568 0.21337-0.10455 0.23877-0.17165 0.096016-0.25644 0.30532-0.13212 0.30532 0.18102 0 0.41301 0.1707 0.39272 0.52174-0.061379 0.15546-0.20078 0.38711-0.48271 0.51514-0.62627 0.12802-0.14356 0.23318-0.32926 0.23318-0.41249 0-0.083226 0.07214-0.29909 0.16003-0.47959 0.087888-0.17998 0.22861-0.49311 0.31243-0.69597 0.083824-0.20286 0.1834-0.36827 0.22099-0.36827 0.037594 0 0.068584-0.053576 0.068584-0.1186 0-0.06502 0.076203-0.21743 0.16917-0.33862 0.092969-0.1212 0.16917-0.30481 0.16917-0.40833 0-0.10299 0.057407-0.24604 0.12701-0.3173 0.070107-0.071782 0.12701-0.2065 0.12701-0.30013 0-0.093109 0.057407-0.19246 0.12701-0.21951 0.070107-0.027568 0.12701-0.13888 0.12701-0.24708s0.057406-0.24552 0.12701-0.30481c0.070107-0.059298 0.127-0.17633 0.127-0.26008s0.057407-0.20078 0.12701-0.26008c0.070108-0.059298 0.12701-0.16073 0.12701-0.22523s0.13361-0.36983 0.29669-0.67881c0.16257-0.3095 0.29618-0.62211 0.29618-0.69597 0-0.073342 0.037593-0.13368 0.082807-0.13368 0.045723 0 0.10821-0.10715 0.13869-0.23823 0.030989-0.13108 0.096524-0.29129 0.14682-0.35631 0.13666-0.17633 0.29262-0.46086 0.39931-0.7277 0.052835-0.13108 0.13005-0.23823 0.17222-0.23823 0.041658 0 0.076204-0.058778 0.076204-0.13004 0-0.071782 0.056898-0.13004 0.127-0.13004 0.088397 0 0.13006-0.09831 0.13717-0.3251 0.014224-0.45982-0.008129-0.56541-0.15495-0.73343-0.27738-0.31782 0.16968-0.58414 0.99166-0.5909 0.2093-0.0015604 0.45468-0.060338 0.54511-0.13056 0.090428-0.070222 0.30024-0.12848 0.46586-0.13004 0.16562-0.0015605 0.37543-0.059818 0.46586-0.13004 0.08992-0.070222 0.24995-0.12744 0.3546-0.12744 0.38051 0 0.31193-0.45098-0.084332-0.55241-0.35511-0.091548-0.32818-0.83434 0.030482-0.83486 0.070107 0 0.29618-0.15345 0.50294-0.34122l0.37543-0.34122-0.20626-0.17581c-0.11329-0.09675-0.28754-0.17737-0.38661-0.17893-0.29161-0.0046814-0.52326-0.43017-0.31802-0.58414 0.27281-0.20442-0.014224-0.28297-1.0379-0.28401-0.76102-0.0015605-0.95254 0.023407-0.99217 0.12848-0.035561 0.095189-0.18187 0.13004-0.54409 0.13004-0.2723 0-0.68278 0.054617-0.91241 0.1212-0.22963 0.06658-0.69498 0.1446-1.0343 0.17425-0.33885 0.029129-0.68177 0.089988-0.76204 0.13472-0.07976 0.044734-0.40286 0.10611-0.71682 0.13628-0.31447 0.029649-0.57153 0.087387-0.57153 0.12796 0 0.040052-0.21947 0.09831-0.48719 0.12952-0.26773 0.030689-0.63046 0.11131-0.80572 0.17946-0.17578 0.068141-0.42826 0.1238-0.56137 0.1238-0.1331 0-0.28957 0.058258-0.34749 0.13004-0.057915 0.071262-0.17679 0.13004-0.26417 0.13004s-0.15901 0.058258-0.15901 0.13004c0 0.071262-0.057407 0.13004-0.12701 0.13004-0.079252 0-0.12701 0.082185-0.12701 0.21951 0 0.12068-0.05385 0.24031-0.11938 0.26632-0.15596 0.061379-0.24538 0.43537-0.14682 0.61587 0.05131 0.093629 0.032005 0.26892-0.057407 0.51548l-0.13513 0.37295 0.24538 0.26164c0.13463 0.14408 0.3104 0.26216 0.39067 0.26216 0.30278 0 0.83875 0.37035 0.83875 0.57946 0 0.12068-0.050802 0.20078-0.12701 0.20078-0.070107 0-0.127 0.03381-0.127 0.074903s-0.16206 0.18726-0.35968 0.3251c-0.19813 0.13784-0.37289 0.27933-0.38813 0.31522-0.015749 0.035891-0.083316 0.06502-0.15088 0.06502s-0.14326 0.055657-0.16917 0.1238c-0.025401 0.067621-0.19559 0.14929-0.37797 0.18102-0.18289 0.03121-0.33225 0.092588-0.33225 0.13628s-0.044198 0.079064-0.098048 0.079064c-0.054359 0-0.19711 0.10871-0.31752 0.24135-0.12091 0.13316-0.31447 0.28869-0.43131 0.34643-0.32006 0.15813-0.54308 0.31158-0.61268 0.42133-0.034038 0.054097-0.158 0.12328-0.27535 0.15345-0.11684 0.029649-0.21235 0.092588-0.21235 0.1394 0 0.046814-0.09246 0.085306-0.20575 0.085306s-0.26265 0.058258-0.33276 0.13004c-0.069599 0.071262-0.16206 0.13004-0.20473 0.13004-0.068075 0-0.18441 0.085306-0.58321 0.42809-0.054359 0.046814-0.19711 0.11027-0.31752 0.14096-0.1204 0.03121-0.21896 0.087387-0.21896 0.12536 0 0.037972-0.10465 0.11079-0.23268 0.16281-0.23369 0.094149-0.53495 0.271-0.6142 0.36099-0.11278 0.12796-0.79048 0.42861-0.96575 0.42861-0.10922 0-0.24639 0.058778-0.30431 0.13004-0.057914 0.071782-0.17425 0.13004-0.25808 0.13004-0.084332 0-0.20676 0.055137-0.27281 0.12276-0.066043 0.067621-0.30685 0.15033-0.53546 0.18414-0.2281 0.03381-0.46992 0.091548-0.53698 0.12848-0.32006 0.17529-0.8545-0.64032-0.59439-0.90716 0.044706-0.045774 0.081283-0.14825 0.081283-0.22835 0-0.080105 0.056899-0.19402 0.12701-0.25332 0.0696-0.059298 0.12701-0.19298 0.12701-0.29649 0-0.10403 0.042166-0.23251 0.094493-0.28557 0.10516-0.10819 0.27738-0.40208 0.40743-0.69649 0.047755-0.10767 0.12548-0.19506 0.17324-0.19506 0.047755 0 0.086872-0.036411 0.086872-0.080625 0-0.10455 0.68482-1.1678 0.77677-1.2057 0.038102-0.015605 0.0696-0.085306 0.0696-0.15397 0-0.069181 0.057406-0.14825 0.127-0.17581 0.070108-0.027048 0.12701-0.09935 0.12701-0.15969 0-0.060859 0.057407-0.15917 0.12701-0.21847 0.070107-0.059298 0.12701-0.18102 0.12701-0.27048 0-0.089468 0.041658-0.16281 0.09246-0.16281 0.12853 0 0.40947-0.36099 0.41302-0.53108 0.004065-0.19922 0.56899-0.95345 0.86923-1.1594 0.13869-0.095189 0.31497-0.29025 0.39169-0.43329 0.076203-0.14304 0.18644-0.29129 0.24487-0.32978 0.057915-0.037972 0.10567-0.10195 0.10567-0.14252 0-0.074383 0.30481-0.46762 0.65637-0.84734 0.10465-0.11287 0.19051-0.24291 0.19051-0.28817 0-0.045774 0.056899-0.082705 0.12701-0.082705 0.069599 0 0.12701-0.050456 0.12701-0.11183 0-0.061379 0.11278-0.24656 0.25046-0.41197 0.13768-0.16489 0.25198-0.32718 0.25401-0.36047 0.005588-0.095189 0.39524-0.50299 0.4811-0.50299 0.042674 0 0.20219-0.11704 0.35511-0.26008 0.15342-0.14304 0.30177-0.26008 0.33072-0.26008s0.21185-0.17581 0.40693-0.39012c0.19559-0.21431 0.39626-0.39012 0.44655-0.39012 0.050294 0 0.12192-0.048895 0.15901-0.10871 0.037086-0.059818 0.22963-0.22107 0.42776-0.35839 0.19762-0.13732 0.35968-0.28349 0.35968-0.3251 0-0.041093 0.057407-0.074903 0.12701-0.074903s0.12701-0.058258 0.12701-0.13004c0-0.071262 0.057407-0.13004 0.12701-0.13004s0.12701-0.029649 0.12701-0.06554c0-0.036411 0.27636-0.27881 0.61369-0.53889 0.33784-0.2606 0.72597-0.58206 0.86313-0.7147 0.24487-0.23771 0.55527-0.32406 0.55527-0.15449 0 0.047855-0.038102 0.086867-0.08484 0.086867-0.14987 0-0.10872 1.8788 0.042674 1.9386 0.069599 0.027048 0.12701 0.089988 0.12701 0.13888 0 0.11496 0.31193 0.43641 0.42318 0.43641 0.046738 0 0.08484 0.039012 0.08484 0.086867 0 0.047335 0.047246 0.087907 0.10567 0.089467s0.25808 0.078544 0.44452 0.17061c0.18644 0.092068 0.48262 0.16853 0.65891 0.17009 0.20422 0.0020806 0.33784 0.049935 0.36882 0.13316 0.052327 0.13992 0.79252 0.19298 0.79252 0.056697 0-0.040572 0.067059-0.15397 0.14834-0.2528 0.081283-0.09883 0.21489-0.26112 0.29618-0.36099 0.081792-0.099871 0.14834-0.27881 0.14834-0.39792 0-0.1186 0.076204-0.36151 0.16917-0.53941 0.093476-0.17789 0.16968-0.37295 0.16968-0.43329 0-0.060339 0.036069-0.10975 0.080776-0.10975 0.044198 0 0.10364-0.14616 0.13158-0.3251 0.027941-0.17841 0.088904-0.39636 0.13564-0.48375 0.14631-0.27256 0.2281-2.1155 0.11837-2.6533-0.12345-0.6013-0.21947-0.76567-0.82655-1.4164-0.26773-0.28661-0.48669-0.5935-0.48669-0.68193 0-0.088947-0.040134-0.16125-0.089412-0.16125-0.1392 0-0.82554-0.33602-0.88396-0.43329-0.028958-0.047335-0.11278-0.086867-0.18644-0.086867s-0.17628-0.053056-0.2281-0.11808c-0.17832-0.22419-1.8335-0.53368-2.1469-0.40104m104.59 0.19454c-0.27941 0.039532-0.67974 0.10767-0.88904 0.15189-0.20981 0.044214-0.74324 0.10559-1.1857 0.1368-0.45519 0.03225-0.85907 0.10559-0.93121 0.16853-0.070107 0.061379-0.43182 0.15449-0.8042 0.20702-1.0689 0.14981-1.5063 0.23459-1.7628 0.34122-0.13107 0.054617-0.33225 0.09935-0.44706 0.09935-0.11481 0-0.23064 0.058778-0.25757 0.13004-0.026418 0.071782-0.14072 0.13004-0.25401 0.13004-0.11278 0-0.22709 0.058778-0.25401 0.13004-0.026417 0.071782-0.097032 0.13004-0.15596 0.13004-0.059439 0-0.15546 0.058778-0.21337 0.13004-0.057915 0.071782-0.17679 0.13004-0.26417 0.13004s-0.15901 0.03225-0.15901 0.071262c0 0.080105-0.65179 0.53576-0.76559 0.53576-0.040642 0-0.096524 0.14616-0.12447 0.3251-0.027941 0.17893-0.086364 0.39272-0.13056 0.47543-0.12751 0.23979-0.09754 0.75839 0.046738 0.81509 0.070108 0.027568 0.12701 0.13472 0.12701 0.23823 0 0.5987 1.6328 0.95813 2.155 0.47439 0.14072-0.13004 0.21591-0.080625 0.21591 0.14252 0 0.11912-0.034038 0.21691-0.075696 0.21691-0.04115 0-0.10059 0.10195-0.13107 0.22679-0.030481 0.12536-0.11075 0.28401-0.17832 0.35319s-0.12294 0.20234-0.12294 0.29545c0 0.093629-0.057406 0.19246-0.127 0.22003-0.070108 0.027568-0.12701 0.13836-0.12701 0.24656 0 0.10871-0.057407 0.24552-0.12701 0.30481-0.070107 0.059298-0.12701 0.1961-0.12701 0.30377 0 0.10715-0.057407 0.24395-0.12701 0.30325-0.070107 0.059298-0.12701 0.19766-0.12701 0.30793 0 0.10975-0.050802 0.25176-0.11278 0.31522-0.061979 0.063459-0.13717 0.21587-0.16765 0.33862-0.059439 0.24239-0.58321 0.85878-0.73003 0.85878-0.049786 0-0.090428 0.034331-0.090428 0.075943 0 0.042133-0.1143 0.12484-0.25401 0.18414-0.13971 0.059298-0.25401 0.13784-0.25401 0.17425 0 0.036931-0.093477 0.091028-0.20778 0.12068-0.11481 0.029129-0.31447 0.15501-0.44452 0.27881-0.13005 0.12432-0.32209 0.25956-0.42725 0.30065-0.25452 0.10039-0.24487 0.3974 0.021337 0.6502 0.11634 0.11079 0.21185 0.24187 0.21185 0.29181 0 0.049935 0.049786 0.091028 0.11075 0.091028 0.19762 0 0.4938 0.70846 0.3612 0.86451-0.061978 0.072822-0.25757 0.44422-0.43487 0.82601-0.17781 0.38128-0.37289 0.74487-0.43385 0.80781-0.061471 0.062939-0.11126 0.20962-0.11126 0.3251 0 0.116-0.034037 0.21066-0.075695 0.21066s-0.10059 0.10247-0.13107 0.22731c-0.030482 0.12484-0.11126 0.28349-0.17882 0.35267s-0.12243 0.20234-0.12243 0.29597c0 0.093109-0.057407 0.19246-0.12701 0.21951-0.070107 0.027568-0.12701 0.13888-0.12701 0.24708s-0.057407 0.24552-0.12701 0.30481c-0.070107 0.059298-0.12701 0.18414-0.12701 0.27725 0 0.23511-0.74578 2.0489-1.0414 2.5332-0.11938 0.19558-0.3165 0.46034-0.45112 0.60651-0.052834 0.057218-0.12243 0.22783-0.15495 0.37972-0.032513 0.15189-0.094492 0.29805-0.13717 0.3251-0.10668 0.067621-0.099065 0.67673 0.01016 0.78856 0.060963 0.062939 0.048262 0.12432-0.042674 0.2013-0.20778 0.17685-0.15342 0.2632 0.16612 0.2632 0.16257 0 0.29618-0.039012 0.29618-0.086867 0-0.047334 0.056898-0.086346 0.127-0.086346 0.2596 0 0.1138 0.63199-0.17628 0.76776-0.13361 0.061899-0.20473 0.16749-0.20473 0.30325 0 0.15709-0.056899 0.21951-0.23268 0.25592-0.57813 0.11964-0.62385 1.1001-0.05131 1.1001 0.11278 0 0.22658 0.058778 0.2535 0.13004 0.064519 0.17217 0.67008 0.17165 0.99268-5.202e-4 0.13361-0.071262 0.30837-0.12952 0.38915-0.12952 0.080776 0 0.23471-0.078024 0.3419-0.17321 0.23522-0.20858 0.40744-0.21847 0.65992-0.037452 0.17171 0.12328 0.21388 0.12328 0.45519 0 0.14631-0.074903 0.36476-0.13732 0.48567-0.13888 0.12091-0.0015605 0.29364-0.059818 0.38407-0.13004 0.090428-0.069701 0.24842-0.12692 0.35104-0.12692s0.20829-0.058778 0.23522-0.13004c0.034546-0.092068 0.17476-0.13004 0.48008-0.13004 0.23725 0 0.50091-0.037972 0.58524-0.084266 0.084332-0.046294 0.52936-0.11131 0.98811-0.1446 0.51158-0.036411 0.87837-0.10455 0.94746-0.17581 0.062487-0.06346 0.18187-0.11548 0.2662-0.11548 0.083824 0 0.20016-0.058778 0.25808-0.13004 0.057915-0.071782 0.18898-0.13004 0.29059-0.13004 0.10211 0 0.25909-0.057218 0.34952-0.12744 0.090428-0.070222 0.24538-0.12848 0.34444-0.13004 0.099065-0.0015605 0.2276-0.061379 0.28551-0.13264 0.057914-0.071782 0.18898-0.13004 0.29059-0.13004 0.10211 0 0.25909-0.057218 0.34952-0.12744 0.2276-0.17633 0.40744-0.16333 0.58982 0.042653 0.23013 0.2606 0.13412 0.31782-0.97591 0.57998-0.11634 0.027568-0.24182 0.10299-0.27941 0.16749-0.037085 0.0645-0.15139 0.1186-0.25401 0.12016-0.10211 0.0015605-0.26011 0.059818-0.35054 0.13004-0.090429 0.070222-0.26671 0.12744-0.39169 0.12744-0.12497 0-0.27484 0.058258-0.33276 0.13004-0.057915 0.071262-0.19203 0.13004-0.2977 0.13004s-0.21439 0.058258-0.24131 0.13004c-0.026417 0.071262-0.10262 0.13004-0.16917 0.13004s-0.14275 0.058258-0.16917 0.13004c-0.035053 0.093109-0.17781 0.13004-0.5065 0.13004-0.55324 0-0.98709 0.080625-0.98709 0.18414 0 0.10871 1.5881 0.095709 1.6236-0.013004 0.015749-0.048895 0.18086-0.11392 0.36679-0.1446 0.18594-0.030169 0.37594-0.10403 0.42268-0.16385 0.046738-0.059298 0.25604-0.12692 0.46586-0.15033 0.47144-0.052016 1.0704-0.21535 1.3676-0.37347 0.12345-0.06554 0.33784-0.11912 0.47653-0.11912 0.13869 0 0.29923-0.058778 0.35714-0.13004 0.057915-0.071782 0.18848-0.13004 0.29059-0.13004 0.1016 0 0.25909-0.057218 0.34952-0.12744 0.090428-0.070222 0.26417-0.12848 0.38661-0.13004 0.12243-0.0015605 0.27027-0.061379 0.32818-0.13264 0.057915-0.071782 0.18746-0.13004 0.28754-0.13004 0.10059 0 0.26722-0.060859 0.37086-0.13524 0.22099-0.15865 0.38508-0.089988 0.31599 0.13212-0.064011 0.2065 0.14987 0.28557 0.35054 0.13004 0.086364-0.067101 0.22048-0.12276 0.29821-0.12432 0.11583-0.0020807 0.87685-0.35111 1.52-0.69701 0.076204-0.040572 0.27332-0.10039 0.43893-0.13212 0.16562-0.03173 0.32158-0.11235 0.34647-0.17893 0.024893-0.067101 0.13717-0.12172 0.24944-0.12172s0.25147-0.058778 0.30939-0.13004c0.057915-0.071782 0.19152-0.13004 0.29618-0.13004 0.10516 0 0.23877-0.058778 0.29669-0.13004 0.057915-0.071782 0.19305-0.13004 0.30075-0.13004 0.10719 0 0.25046-0.056697 0.31802-0.12588 0.067568-0.069181 0.22252-0.15137 0.34444-0.18258 0.12193-0.03121 0.22201-0.088947 0.22201-0.12744 0-0.039012 0.11024-0.095189 0.24436-0.12536 0.13463-0.030169 0.35358-0.16905 0.48719-0.30793 0.1331-0.1394 0.31853-0.25436 0.4115-0.25592 0.092969-0.0015604 0.3104-0.12952 0.48313-0.28401 0.55374-0.49675 0.81893-0.69961 1.0597-0.81249 0.30177-0.14148 0.53139-0.33134 0.53139-0.44058 0-0.046814 0.076204-0.15553 0.16968-0.24187 0.092969-0.086346 0.16917-0.22419 0.16917-0.30637s0.056899-0.19818 0.12701-0.25748c0.069599-0.059298 0.12701-0.16281 0.12701-0.22991s0.056898-0.1446 0.12701-0.17217c0.089412-0.034851 0.12802-0.18154 0.13005-0.49571 0.001524-0.245 0.057406-0.54305 0.12396-0.66268 0.17273-0.3095 0.17273-1.6734 0-1.8206-0.070107-0.059298-0.127-0.17633-0.127-0.26008s-0.057407-0.20078-0.12701-0.26008c-0.070108-0.059298-0.12701-0.19922-0.12701-0.31106 0-0.23303-0.26519-0.79064-0.61014-1.2838-0.13005-0.18622-0.23674-0.37347-0.23674-0.41613 0-0.13524-1.1527-1.2832-1.2883-1.2832-0.071631 0-0.17781-0.058778-0.23572-0.13004-0.057915-0.071782-0.23115-0.13004-0.38508-0.13004s-0.33479-0.055657-0.40134-0.12432c-0.066551-0.068141-0.26925-0.13628-0.45062-0.15137-0.34901-0.029649-0.58372-0.50455-0.24944-0.50455 0.073664 0 0.19864-0.078024 0.2784-0.17321 0.07976-0.095709 0.19406-0.17373 0.2535-0.17373s0.10821-0.034331 0.10821-0.076463 0.066551-0.10143 0.14784-0.13212c0.37441-0.14044 0.70107-0.38804 1.3168-0.99715 0.36527-0.36203 0.71885-0.68921 0.7854-0.72718 0.066043-0.038492 0.1204-0.129 0.1204-0.20182s0.11786-0.2528 0.26163-0.40052c0.15698-0.16073 0.28043-0.39168 0.30837-0.57842 0.025401-0.17061 0.083316-0.35891 0.12853-0.41769 0.045722-0.059298 0.061471-0.16437 0.035562-0.23355-0.026418-0.069181-0.011177-0.2554 0.033021-0.41301 0.062487-0.22159 0.053343-0.30741-0.04115-0.37868-0.067059-0.050455-0.14784-0.19714-0.17882-0.3251-0.031498-0.12796-0.091444-0.23303-0.13259-0.23303-0.041658 0-0.075696-0.094669-0.075696-0.21066 0-0.11548-0.048262-0.26216-0.1077-0.3251-0.05893-0.062939-0.25808-0.30949-0.44147-0.54773-0.6269-0.81301-0.96372-1.0819-1.3559-1.084-0.13971-5.2016e-4 -0.36324-0.059298-0.49634-0.13056-0.13361-0.071262-0.3292-0.12952-0.43436-0.12952s-0.23572-0.054097-0.28957-0.12068c-0.053851-0.06658-0.22048-0.14096-0.37035-0.16489-0.14987-0.024448-0.61522-0.10351-1.0343-0.17529-0.89615-0.15449-3.1685-0.22679-3.8945-0.1238m-60.942 1.8362c-0.081284 0.11652-0.14784 0.2476-0.14784 0.29129s-0.19051 0.3407-0.42369 0.65956c-0.23268 0.31886-0.4242 0.6658-0.42572 0.77088-0.001524 0.10507-0.058931 0.26684-0.12701 0.35943-0.068583 0.092588-0.12447 0.3121-0.12447 0.48791 0 0.17841-0.05639 0.36723-0.127 0.42757-0.070108 0.059298-0.12701 0.15761-0.12701 0.21795 0 0.060859-0.056899 0.13264-0.12701 0.16021s-0.12701 0.15241-0.12701 0.27777-0.054359 0.33134-0.12142 0.45774c-0.066551 0.1264-0.2088 0.42029-0.3165 0.65228-0.10719 0.23251-0.24334 0.44162-0.30177 0.4645-0.058931 0.023407-0.10719 0.13056-0.10719 0.23875 0 0.10871-0.056899 0.24552-0.12701 0.30481-0.069599 0.059298-0.12701 0.19662-0.12701 0.30481s-0.056899 0.21951-0.12701 0.24708c-0.069599 0.027048-0.12701 0.14356-0.12701 0.25852s-0.056898 0.25748-0.12701 0.31678c-0.069599 0.059298-0.127 0.17633-0.127 0.26008s-0.052835 0.19714-0.11786 0.2528c-0.065027 0.055137-0.14225 0.23147-0.17171 0.39168-0.029465 0.16073-0.10973 0.33966-0.17832 0.39792s-0.12447 0.17165-0.12447 0.25228c0 0.080105-0.055882 0.22159-0.12447 0.31418-0.068583 0.092588-0.12548 0.25176-0.127 0.35423-0.001524 0.10195-0.059947 0.20806-0.12955 0.23563-0.070108 0.027568-0.12701 0.14408-0.12701 0.25852 0 0.11496-0.057407 0.25748-0.12701 0.31678-0.070107 0.059298-0.12701 0.1935-0.12701 0.29753 0 0.10455-0.055883 0.26528-0.12447 0.35787-0.068583 0.092588-0.12548 0.24812-0.12701 0.34487-0.001524 0.09727-0.078743 0.32978-0.17222 0.51704-0.092968 0.18726-0.16917 0.40989-0.16917 0.49519s-0.036578 0.15501-0.080776 0.15501c-0.044706 0-0.10414 0.14616-0.13209 0.3251-0.02845 0.17894-0.10618 0.42861-0.17324 0.55501-0.067059 0.12692-0.12193 0.34643-0.12193 0.48791 0 0.142-0.056899 0.30637-0.12701 0.36567s-0.12701 0.17893-0.12701 0.2658c0 0.29753-0.15241 0.25384-0.33022-0.095189-0.13259-0.26008-0.17781-0.50872-0.17832-0.97478-5.08e-4 -0.34435-0.057407-1.0128-0.12701-1.4856-0.15901-1.0793-0.17425-3.6947-0.022861-3.8502 0.081792-0.083746 0.081792-0.142 0-0.2762-0.073664-0.12068-0.10364-0.7225-0.10364-2.0765 0-1.9288-0.072139-2.4588-0.37289-2.734-0.052327-0.047855-0.14072-0.19298-0.1966-0.3225-0.062995-0.14616-0.19203-0.25696-0.33784-0.29025-0.12955-0.029649-0.35562-0.10871-0.50244-0.17581-0.14834-0.067621-0.53444-0.12172-0.86821-0.12172-0.33022 0-0.60099-0.036411-0.60099-0.080105 0-0.044214-0.10465-0.13264-0.23268-0.19662-0.24538-0.12224-0.61369-0.03329-0.61369 0.14773 0 0.24968-0.35663 0.40416-0.81385 0.35319-0.25096-0.028089-0.66602-0.073863-0.92206-0.10195-0.31091-0.034331-0.46586-0.020286-0.46586 0.043173 0 0.052016-0.047754 0.094669-0.10668 0.094669-0.16511 0-0.65535 0.83486-0.65535 1.1163 0 0.089467-0.056899 0.2117-0.12701 0.271-0.071631 0.060859-0.12701 0.24968-0.12701 0.43329 0 0.18362-0.055374 0.37243-0.12701 0.43329-0.069599 0.059298-0.12701 0.17633-0.12701 0.26008s-0.056898 0.20078-0.12701 0.26008c-0.069599 0.059298-0.127 0.20182-0.127 0.31678 0 0.11496-0.056899 0.23147-0.12701 0.25904-0.076712 0.030169-0.12701 0.16125-0.12701 0.33342 0 0.15605-0.056899 0.33186-0.12701 0.39116-0.069599 0.059298-0.12802 0.1909-0.12955 0.29233s-0.076712 0.3407-0.16663 0.5316c-0.08992 0.19038-0.16511 0.42965-0.16663 0.53108s-0.059947 0.23303-0.12955 0.29233c-0.070108 0.059298-0.12701 0.20182-0.12701 0.31678 0 0.11496-0.057407 0.23147-0.12701 0.25852-0.071123 0.028089-0.12701 0.15709-0.12701 0.29389 0 0.13368-0.040642 0.25748-0.090428 0.27412-0.049278 0.017165-0.11176 0.19506-0.13768 0.39584-0.026417 0.2013-0.10008 0.40989-0.16409 0.46398-0.064011 0.054617-0.11735 0.22055-0.11888 0.36983s-0.058422 0.34695-0.12701 0.43953c-0.068075 0.092588-0.12396 0.24968-0.12396 0.34903 0 0.09935-0.054359 0.26008-0.1204 0.35631-0.065535 0.09675-0.14631 0.3199-0.17832 0.49623-0.032514 0.17633-0.090936 0.32042-0.13056 0.32042-0.039118 0-0.096017 0.1368-0.12701 0.30377-0.030481 0.16697-0.087888 0.30325-0.12751 0.30325s-0.11227 0.15449-0.16206 0.34331c-0.049787 0.1883-0.12751 0.36619-0.17273 0.3948-0.045214 0.029129-0.083316 0.15709-0.08484 0.28557-0.001524 0.12848-0.058931 0.30897-0.12701 0.40156-0.068583 0.092588-0.12447 0.28765-0.12497 0.43381-5.08e-4 0.14564-0.057407 0.3766-0.12701 0.5134-0.069599 0.13628-0.1265 0.40156-0.1265 0.58934 0 0.18778-0.060454 0.46086-0.13412 0.60651-0.073663 0.14616-0.15495 0.48583-0.18086 0.75423-0.025401 0.26892-0.086364 0.54045-0.13513 0.60339-0.048771 0.062939-0.091445 0.47543-0.094493 0.916l-0.005588 0.80157 0.33834 0.32042c0.21286 0.2013 0.45671 0.34018 0.65637 0.37399 0.18746 0.03121 0.31752 0.10195 0.31752 0.17217 0 0.06554 0.066551 0.12016 0.14834 0.12172 0.081284 0.0015604 0.22201 0.059818 0.31244 0.13004 0.11481 0.088947 0.38203 0.12692 0.88904 0.12692l0.72444-0.0010403 0.19051-0.28609c0.10516-0.15761 0.19203-0.3818 0.19356-0.49831 0.001524-0.116 0.058423-0.28713 0.12701-0.37972 0.068075-0.092068 0.12396-0.25332 0.12396-0.35735 0-0.10455 0.057407-0.23823 0.12701-0.29753 0.070107-0.059298 0.12701-0.16437 0.12701-0.23355s0.057406-0.18414 0.127-0.25592c0.08484-0.086867 0.12802-0.30793 0.13005-0.6658 0.001525-0.3329 0.049787-0.59922 0.12701-0.70378 0.068076-0.092588 0.12396-0.25904 0.12396-0.36931 0-0.11079 0.035054-0.26944 0.07722-0.35215 0.31497-0.61379 0.68532-1.4923 0.68786-1.6307 0.001525-0.092068 0.076712-0.32302 0.16663-0.51392 0.08992-0.19038 0.1646-0.4541 0.16612-0.58518 0.001524-0.13108 0.039626-0.23823 0.083824-0.23823 0.044706 0 0.10618-0.14616 0.13717-0.3251 0.077728-0.45306 0.33987-1.2453 0.43284-1.3108 0.1392-0.09779 0.34444-0.65176 0.40591-1.0949 0.033021-0.23823 0.089412-0.4723 0.12497-0.52016 0.036069-0.047855 0.090428-0.25644 0.12142-0.46398 0.10262-0.68557 0.42674-1.1225 0.50802-0.68453 0.18492 0.99246 0.23623 1.5438 0.2789 2.9691 0.026417 0.90612 0.082807 1.6916 0.12497 1.7462 0.042166 0.054097 0.072648 0.24916 0.068076 0.43329-0.019305 0.74331 0.1138 1.9392 0.22658 2.0349 0.063503 0.054097 0.11532 0.23979 0.11583 0.41249 0 0.17321 0.057407 0.42653 0.12701 0.56281 0.069599 0.1368 0.1265 0.33186 0.12701 0.43381 0 0.10143 0.057407 0.29649 0.12701 0.43329 0.069599 0.1368 0.1265 0.28661 0.1265 0.3329 0 0.092588 0.34749 0.50455 0.67059 0.7948 0.11278 0.10143 0.27078 0.24864 0.35104 0.32718 0.080776 0.078544 0.26468 0.16957 0.40896 0.20234 0.14428 0.03225 0.26265 0.094669 0.26265 0.13888 0 0.043693 0.045214 0.079584 0.10008 0.079584 0.10668 0 0.84484 0.34435 0.91597 0.42757 0.86161 1.0034 3.421 0.28297 3.4657-0.97582 0.003048-0.086867 0.062995-0.21639 0.13259-0.28765 0.070108-0.071782 0.12701-0.25956 0.12701-0.41821 0-0.17581 0.049787-0.30741 0.12701-0.33758 0.072648-0.028609 0.12701-0.15813 0.12701-0.30221 0-0.13888 0.057407-0.30065 0.12701-0.35995 0.070107-0.059298 0.12701-0.15709 0.12701-0.21691 0-0.059818 0.054866-0.15553 0.12192-0.21223 0.066552-0.056697 0.1458-0.21743 0.17578-0.35735 0.029973-0.13992 0.086872-0.25384 0.12599-0.25384 0.039118 0 0.096017-0.11704 0.12701-0.26008 0.030482-0.14304 0.08992-0.26008 0.13209-0.26008 0.041658 0 0.10262-0.10715 0.13463-0.23771 0.032005-0.13056 0.10872-0.28973 0.1707-0.35319 0.061978-0.06346 0.11278-0.18622 0.11278-0.27308 0-0.086867 0.056898-0.1805 0.12701-0.20806 0.081791-0.03173 0.127-0.16645 0.12751-0.37764 5.09e-4 -0.17998 0.057407-0.43953 0.12701-0.57582 0.0696-0.1368 0.1265-0.3355 0.1265-0.44214 0-0.10611 0.07214-0.26008 0.16054-0.34174 0.088396-0.081665 0.18086-0.23407 0.20575-0.33862 0.024893-0.10455 0.087888-0.36567 0.13971-0.57998 0.10973-0.45254 0.4115-1.1272 0.50396-1.1272 0.077728 0 0.23572-0.53004 0.29516-0.98986 0.023877-0.18674 0.091952-0.37035 0.15139-0.40781 0.064011-0.040572 0.10821-0.245 0.10872-0.50039 0.001016-0.42549 0.21489-0.78908 0.46332-0.78908 0.04877 0 0.088396-0.11235 0.088396-0.24968 0-0.13732 0.056899-0.29805 0.12701-0.35735 0.069599-0.059298 0.12701-0.17946 0.12701-0.26632 0-0.087387 0.057915-0.19194 0.12904-0.23251 0.078743-0.045254 0.14885-0.25748 0.18035-0.54617 0.030482-0.28141 0.1265-0.57738 0.23776-0.73238 0.27586-0.38388 0.69955-1.3311 0.79556-1.7769 0.10414-0.48375 0.33631-1.1428 0.44096-1.2531 0.04369-0.045254 0.078744-0.16905 0.078744-0.27516 0-0.10663 0.064519-0.25956 0.14377-0.34018 0.13412-0.13784 0.18949-0.68089 0.080267-0.7922-0.025909-0.026528-0.17628 0.092588-0.33428 0.26424-0.1585 0.17217-0.31244 0.28713-0.34292 0.25644-0.12548-0.129-0.056899-1.264 0.082808-1.3685 0.17933-0.1342 0.085348-0.45046-0.15647-0.529-0.11939-0.039012-0.21337-0.011444-0.28043 0.082185-0.054867 0.077504-0.17984 0.14044-0.27738 0.14044-0.097033 0-0.20727 0.050976-0.24436 0.11287-0.071123 0.11756-0.56645 0.49415-0.65078 0.49415-0.10414 0-0.33784-0.4645-0.38508-0.7662-0.066043-0.41925-0.61877-0.51392-0.8738-0.14981m136.91-0.042653c-0.080267 0.09675-0.1712 0.27725-0.20118 0.40104-0.030481 0.1238-0.1077 0.24552-0.1712 0.27048-0.064011 0.024968-0.11634 0.084786-0.11634 0.13212 0 0.047855-0.11431 0.23459-0.25401 0.41509-0.13971 0.1805-0.25401 0.42549-0.25401 0.54357 0 0.1186-0.051818 0.25956-0.11583 0.31366-0.063503 0.054097-0.1392 0.27516-0.16816 0.49207-0.028957 0.21639-0.14784 0.5212-0.26468 0.67777-0.11634 0.15657-0.23776 0.41769-0.26976 0.5805-0.032005 0.16281-0.10821 0.34747-0.17019 0.41093-0.061471 0.062939-0.11227 0.19402-0.11227 0.29025 0 0.15345-0.27332 0.64344-0.42725 0.76567-0.029974 0.023927-0.080268 0.15085-0.11177 0.28193-0.030989 0.13108-0.093984 0.23823-0.13971 0.23823s-0.083316 0.058778-0.083316 0.13056c0 0.071782-0.076203 0.27568-0.16917 0.45358-0.092968 0.17841-0.16917 0.37295-0.16917 0.43329s-0.038101 0.10975-0.084839 0.10975c-0.046739 0-0.08484 0.049415-0.08484 0.10975 0 0.060339-0.076204 0.25488-0.16917 0.43329-0.092969 0.17789-0.16917 0.39688-0.16917 0.48635 0 0.089468-0.057407 0.2117-0.12701 0.271-0.070107 0.059298-0.12701 0.17633-0.12701 0.26008s-0.057406 0.20078-0.12701 0.26008c-0.070107 0.059298-0.12701 0.20182-0.12701 0.31678s-0.057406 0.23147-0.127 0.25852c-0.070108 0.027568-0.12701 0.14044-0.12701 0.25124s-0.054359 0.25696-0.12091 0.3251-0.14733 0.2658-0.17882 0.43953c-0.032006 0.17373-0.08992 0.31626-0.12955 0.31626-0.039118 0-0.097541 0.14616-0.12955 0.3251-0.032006 0.17841-0.10973 0.40208-0.17324 0.49571-0.062995 0.094149-0.11481 0.2762-0.11481 0.40468 0 0.12848-0.040642 0.2476-0.089921 0.26424-0.049786 0.017165-0.11176 0.1961-0.13818 0.3974-0.026417 0.20182-0.07976 0.36671-0.11786 0.36671-0.03861 0-0.092969 0.14616-0.12091 0.3251-0.028449 0.17893-0.10618 0.42861-0.17324 0.55501-0.067059 0.12692-0.12193 0.29025-0.12193 0.36359 0 0.27516-0.1585 0.21743-0.33022-0.11964-0.14276-0.27985-0.17832-0.50768-0.17933-1.1485-0.001016-0.43953-0.056899-1.1111-0.12396-1.4929-0.15749-0.89051-0.17476-3.5152-0.024893-3.6692 0.081792-0.083746 0.081792-0.142 0-0.2762-0.074172-0.12172-0.10364-0.74799-0.10364-2.1977 0-1.6338-0.022861-2.0479-0.11888-2.129-0.065027-0.055137-0.14225-0.19662-0.1707-0.31418-0.028958-0.11704-0.08992-0.21275-0.13564-0.21275-0.045214 0-0.082807-0.051496-0.082807-0.11391 0-0.20962-0.33885-0.49311-0.5888-0.49311-0.13412 0-0.2596-0.048375-0.2784-0.10715-0.02337-0.070222-0.28043-0.11704-0.74832-0.1368-0.53088-0.022887-0.74019-0.06606-0.81944-0.17061-0.19254-0.25384-0.66805-0.17893-0.93375 0.14669-0.25757 0.31626-0.10516 0.30377-1.553 0.12848-0.23877-0.028609-0.45773-0.018726-0.48669 0.021847-0.028958 0.041093-0.1265 0.116-0.21642 0.16645-0.089921 0.050976-0.18949 0.14877-0.22099 0.21691-0.031497 0.068661-0.11938 0.2476-0.1961 0.39792-0.076711 0.15033-0.1392 0.35007-0.1392 0.44422 0 0.094149-0.056899 0.22003-0.12701 0.27933-0.071631 0.060859-0.12701 0.24968-0.12701 0.43329 0 0.18362-0.055374 0.37243-0.12701 0.43329-0.069599 0.059298-0.12701 0.17633-0.12701 0.26008s-0.056898 0.20078-0.12701 0.26008c-0.069599 0.059298-0.127 0.20182-0.127 0.31678 0 0.11496-0.054359 0.23043-0.1204 0.25644-0.066551 0.026008-0.1458 0.19818-0.17628 0.38232-0.029974 0.18414-0.10922 0.38128-0.17527 0.43745-0.066551 0.056177-0.1204 0.23667-0.1204 0.40104s-0.057406 0.35787-0.12701 0.42913c-0.070107 0.071782-0.12701 0.22211-0.12701 0.33446s-0.057406 0.26268-0.127 0.33446c-0.070108 0.071262-0.12701 0.20598-0.12701 0.29909 0 0.092588-0.057407 0.21743-0.12701 0.27672-0.070107 0.059298-0.12701 0.18258-0.12701 0.2736 0 0.091548-0.052834 0.25228-0.11786 0.35787-0.064519 0.10559-0.14225 0.33862-0.17324 0.51704-0.030482 0.17893-0.086872 0.3251-0.12548 0.3251s-0.093477 0.15085-0.12243 0.3355c-0.028957 0.18414-0.10973 0.44786-0.17933 0.58518-0.070107 0.13732-0.12904 0.3277-0.13056 0.42341-0.002032 0.095189-0.059439 0.24916-0.12751 0.34174-0.068583 0.092068-0.12447 0.25332-0.12447 0.35735 0 0.10455-0.057407 0.23823-0.12701 0.29753s-0.12701 0.1961-0.12701 0.30377c0 0.10715-0.057406 0.24395-0.12701 0.30325-0.069599 0.059298-0.127 0.19298-0.127 0.29753 0 0.10403-0.055883 0.26528-0.12447 0.35787-0.068075 0.092588-0.12548 0.22679-0.12751 0.29805-0.001524 0.071782-0.060455 0.24291-0.13056 0.38024-0.069599 0.13732-0.15088 0.41041-0.18035 0.60651-0.028958 0.19662-0.0823 0.39636-0.11786 0.4437-0.035562 0.047855-0.09246 0.32094-0.1265 0.60703-0.033529 0.28609-0.11329 0.62575-0.1773 0.75423-0.064011 0.129-0.11634 0.40728-0.11634 0.61847 0 0.2117-0.056899 0.49623-0.1265 0.63303-0.080776 0.15865-0.1265 0.49519-0.12701 0.93369l-5.08e-4 0.68505 0.33834 0.32926c0.20219 0.19714 0.45976 0.35267 0.64163 0.38804 0.16714 0.03173 0.32361 0.11183 0.3485 0.17737 0.024386 0.06554 0.10719 0.12016 0.1834 0.12172 0.076711 0.0015604 0.21337 0.059818 0.3038 0.13004 0.24131 0.18674 1.6562 0.18206 1.6562-0.0057218 0-0.072822 0.052835-0.15345 0.11786-0.17893s0.14377-0.21951 0.17476-0.43069c0.030989-0.2117 0.091444-0.3844 0.13463-0.3844s0.10262-0.15553 0.13259-0.34539c0.029466-0.18934 0.10618-0.3896 0.17019-0.4437 0.064011-0.054617 0.11634-0.13628 0.11634-0.18154s0.057406-0.14044 0.127-0.21223c0.08484-0.086867 0.12802-0.30793 0.13005-0.6658 0.001525-0.3329 0.049787-0.59922 0.12701-0.70378 0.068076-0.092588 0.12396-0.25488 0.12396-0.36151 0-0.10611 0.057407-0.31314 0.12701-0.45982 0.070107-0.14721 0.18441-0.38752 0.25401-0.53472 0.070107-0.14668 0.12701-0.3173 0.12701-0.3792s0.057406-0.16125 0.127-0.22055c0.076712-0.06502 0.12701-0.25488 0.12701-0.47803 0-0.24916 0.041658-0.38648 0.12701-0.42029 0.084332-0.03277 0.12701-0.16905 0.12701-0.40208s0.043182-0.36879 0.12701-0.40208c0.070107-0.027048 0.12701-0.11704 0.12701-0.19922 0-0.2554 0.35866-1.3379 0.5192-1.5657 0.083824-0.11912 0.19457-0.41197 0.2469-0.6502 0.051819-0.23875 0.13412-0.55085 0.18289-0.69389 0.04877-0.14304 0.11532-0.41613 0.14784-0.60651 0.080267-0.4723 0.27281-0.91028 0.39981-0.91028 0.057407 0 0.12396 0.1264 0.14733 0.28141s0.066043 0.41821 0.095 0.58518c0.028958 0.16697 0.090936 1.1423 0.13818 2.1675 0.047754 1.0367 0.12345 1.8871 0.16968 1.9168 0.046231 0.029129 0.07214 0.20494 0.057407 0.39012-0.042674 0.54409 0.10973 1.883 0.23522 2.0687 0.064011 0.094149 0.11735 0.32822 0.11888 0.52016 0.001525 0.19194 0.058423 0.42497 0.12701 0.51756 0.068584 0.092588 0.12447 0.26528 0.12447 0.3844 0 0.25228 0.31802 0.96438 0.4308 0.96438 0.042166 0 0.07722 0.052016 0.07722 0.116 0 0.13212 0.475 0.59974 0.69853 0.68713 0.081284 0.03225 0.14784 0.09883 0.14784 0.14773 0 0.049415 0.040134 0.089468 0.089412 0.089468 0.12955 0 1.4154 0.58674 1.5195 0.69337 0.37645 0.38544 1.0714 0.64708 1.3905 0.52276 0.12599-0.048895 0.32107-0.088947 0.43284-0.088947 0.44046 0 1.5556-0.88843 1.5662-1.2479 0.001524-0.052536 0.076711-0.25228 0.16663-0.44266 0.08992-0.1909 0.16511-0.41197 0.16663-0.49155 0.001524-0.079584 0.055375-0.2554 0.11939-0.39012 0.064011-0.13524 0.18746-0.40156 0.27433-0.59246 0.086872-0.19038 0.20575-0.37764 0.26417-0.41613 0.05893-0.037972 0.10668-0.16073 0.10668-0.27204 0-0.11183 0.057406-0.22575 0.127-0.25332 0.070108-0.027568 0.12701-0.1264 0.12701-0.22003 0-0.093109 0.055375-0.22627 0.12294-0.29545s0.14784-0.22783 0.17882-0.35319c0.030482-0.12484 0.089412-0.22679 0.13107-0.22679 0.04115 0 0.075696-0.048895 0.075696-0.10871 5.08e-4 -0.059298 0.062995-0.22523 0.1392-0.36827 0.076204-0.14304 0.16714-0.41613 0.20219-0.60703 0.069091-0.3766 0.22963-0.87699 0.348-1.0835 0.19406-0.33914 0.4115-0.89988 0.41404-1.0689 0.001524-0.10351 0.076203-0.34435 0.16612-0.53472 0.08992-0.1909 0.16511-0.39584 0.16663-0.45514 0.001524-0.059818 0.032514-0.10871 0.068075-0.10871 0.12243 0 0.36578-0.56957 0.40185-0.93941 0.019813-0.20234 0.093984-0.42757 0.16562-0.50039 0.080775-0.083226 0.12955-0.29181 0.12955-0.55501 0-0.37764 0.026925-0.43901 0.25401-0.57634 0.17374-0.10507 0.25452-0.22263 0.25655-0.37347 0.001524-0.12068 0.058423-0.29545 0.12701-0.38804 0.068583-0.092068 0.12447-0.23459 0.12447-0.31574 0-0.081145 0.056898-0.17009 0.12701-0.19714 0.091444-0.035891 0.12701-0.18258 0.12701-0.52536 0-0.28557 0.042166-0.50299 0.10567-0.54461 0.058423-0.037972 0.1519-0.14721 0.20829-0.24239 0.36984-0.62575 0.53241-0.94773 0.53241-1.0512 0-0.06554 0.034545-0.11912 0.076711-0.11912s0.10364-0.1987 0.13615-0.44162c0.032513-0.24239 0.11227-0.54513 0.17679-0.67153 0.064519-0.12692 0.11786-0.29441 0.11786-0.37191 5.08e-4 -0.077504 0.057915-0.18986 0.12751-0.24916 0.070107-0.059298 0.12701-0.21535 0.12701-0.34643 0-0.1316 0.057407-0.28765 0.12701-0.34695 0.1331-0.11287 0.18187-0.78024 0.057406-0.78024-0.038609 0-0.17933 0.1342-0.31294 0.29805-0.13361 0.16385-0.27332 0.27881-0.31091 0.25488-0.13412-0.084786-0.079252-1.3181 0.061978-1.3992 0.16104-0.092588 0.083316-0.33706-0.14733-0.46346-0.12701-0.069181-0.20169-0.058258-0.31447 0.045774-0.081284 0.075423-0.20931 0.1368-0.285 0.1368-0.075188 0-0.16765 0.050976-0.20473 0.11339-0.037593 0.061899-0.20626 0.1987-0.37543 0.30377l-0.30735 0.1909-0.15342-0.23875c-0.084332-0.1316-0.17527-0.37556-0.20168-0.54253-0.060455-0.38232-0.60658-0.49415-0.86974-0.17841m-34.382 0.15657c-0.22201 0.22731-0.2662 0.23771-0.95559 0.21587l-0.72241-0.022887-0.43538 0.41301c-1.0648 1.0102-2.0951 2.1259-2.0951 2.2695 0 0.051496-0.057407 0.094149-0.12701 0.094149-0.070107 0-0.12701 0.058258-0.12701 0.13004 0 0.071262-0.039117 0.13004-0.08738 0.13004-0.047754 0-0.11176 0.06502-0.14174 0.14512-0.029974 0.079584-0.11431 0.20962-0.18797 0.28869-0.073155 0.079584-0.19051 0.23199-0.26011 0.33966-0.070107 0.10767-0.25096 0.33134-0.40236 0.49727-0.15139 0.16593-0.27535 0.35891-0.27535 0.42861s-0.056899 0.14877-0.12701 0.17633c-0.069599 0.027568-0.12701 0.10247-0.12701 0.16645 0 0.06398-0.047246 0.14773-0.10567 0.1857-0.12396 0.081145-0.30126 0.35215-0.37238 0.56801-0.026925 0.083226-0.098049 0.15137-0.15749 0.15137-0.059439 0-0.12955 0.087907-0.15647 0.19506-0.026417 0.10767-0.16409 0.32458-0.30532 0.48219-0.14174 0.15813-0.25706 0.32406-0.25706 0.36879 0 0.044734-0.036069 0.081145-0.080267 0.081145-0.078744 0-0.28754 0.33342-0.39321 0.62835-0.029973 0.083746-0.085347 0.15189-0.12345 0.15189-0.037594 0-0.15647 0.1805-0.26417 0.40052-0.1077 0.22055-0.24334 0.41977-0.30227 0.44318-0.058931 0.022887-0.10668 0.09623-0.10668 0.16229 0 0.06658-0.040134 0.1212-0.089412 0.1212-0.048771 0-0.12853 0.11704-0.1773 0.26008-0.04877 0.14304-0.12294 0.26008-0.16511 0.26008s-0.076204 0.059818-0.076204 0.13264c0 0.072822-0.057407 0.15501-0.12701 0.18258-0.070107 0.027568-0.12701 0.10455-0.12701 0.17165 0 0.06658-0.076203 0.1883-0.16968 0.26996-0.092969 0.081665-0.16917 0.19818-0.16917 0.25904 0 0.061379-0.034546 0.11079-0.076204 0.11079-0.042166 0-0.11634 0.11704-0.16511 0.26008-0.048771 0.14304-0.12853 0.26008-0.17781 0.26008-0.04877 0-0.088904 0.059818-0.088904 0.13316 0 0.072822-0.057406 0.15501-0.12701 0.18258-0.070107 0.027048-0.127 0.10403-0.127 0.17061 0 0.06658-0.039118 0.12068-0.086364 0.12068-0.047755 0-0.1331 0.10715-0.19 0.23823-0.056899 0.13108-0.19051 0.33602-0.29719 0.45514-0.10668 0.11964-0.21591 0.30481-0.24284 0.41197s-0.080776 0.19506-0.11939 0.19506c-0.068583 0-0.23064 0.26476-0.41252 0.67205-0.047754 0.10715-0.12599 0.19506-0.17374 0.19506s-0.086872 0.09883-0.086872 0.21951-0.056899 0.24187-0.12701 0.26892c-0.069599 0.027568-0.12701 0.1212-0.12701 0.20806 0 0.086867-0.054866 0.21431-0.12243 0.28349s-0.14834 0.22835-0.17882 0.35319c-0.030481 0.12484-0.089412 0.22731-0.13107 0.22731s-0.075695 0.053056-0.075695 0.11808c0 0.06502-0.076204 0.21743-0.16917 0.33862-0.092968 0.12172-0.16917 0.29805-0.16917 0.39272 0 0.094669-0.057406 0.19454-0.12701 0.22211-0.070107 0.027568-0.12701 0.11652-0.12701 0.19766s-0.052326 0.2091-0.11583 0.28453c-0.20931 0.24708-0.2408 0.59558-0.069599 0.77036 0.085856 0.087907 0.17933 0.22211 0.20778 0.29857 0.028957 0.076463 0.15901 0.15137 0.29008 0.16697 0.20677 0.023927 0.23979 0.067101 0.25147 0.33134 0.00762 0.16645 0.017272 0.34591 0.021337 0.39792 0.01524 0.2013 0.6015 0.44006 0.71174 0.29025 0.054867-0.074903 0.16663-0.16125 0.24792-0.19246 0.081792-0.03121 0.14834-0.09727 0.14834-0.14616 0-0.049415 0.095508-0.089468 0.21185-0.089468 0.22048 0 0.25401 0.082705 0.21896 0.54149-0.024385 0.3173 0.15495 0.3095 0.41963-0.017685 0.1143-0.14096 0.24944-0.258 0.30075-0.26008 0.13361-0.0052016 0.32818-0.25072 0.55222-0.69753 0.1077-0.21431 0.22556-0.42913 0.26163-0.47647 0.036069-0.047855 0.19965-0.25644 0.36273-0.46346 0.16358-0.20702 0.29719-0.41613 0.29719-0.4645 0-0.048375 0.10567-0.22991 0.23522-0.40364s0.285-0.41717 0.34596-0.54045c0.060963-0.1238 0.2977-0.42809 0.52682-0.67621 0.22861-0.24864 0.41607-0.51964 0.41607-0.60286 0-0.17946 0.15596-0.40156 0.69853-0.99402 0.22099-0.24187 0.40185-0.48791 0.40185-0.54669 0-0.17581 0.51564-0.39168 1.0587-0.44318 0.27941-0.026528 0.58321-0.10143 0.67466-0.16593 0.091952-0.0645 0.32056-0.1186 0.50802-0.12016 0.18797-0.0015605 0.41506-0.060338 0.50548-0.13004 0.090429-0.070222 0.33072-0.12744 0.53342-0.12744 0.20321 0 0.48364-0.060859 0.62385-0.13472 0.14021-0.074383 0.39575-0.12328 0.56746-0.10871l0.31244 0.026528 0.05131 1.4304c0.028449 0.787 0.091444 1.6458 0.14072 1.9085 0.04877 0.26268 0.092968 1.1901 0.098048 2.0604 0.00762 1.3717 0.028449 1.6047 0.15596 1.7483 0.25554 0.28869 0.35816 0.42913 0.35816 0.48999 0 0.39168 0.58829 0.48947 0.89717 0.14825 0.099573-0.10975 0.2403-0.19974 0.31345-0.19974 0.21794 0 0.39829-0.25384 0.39829-0.56073 0-0.17581 0.049279-0.30741 0.12701-0.33758 0.069599-0.027568 0.12701-0.14981 0.12701-0.27204 0-0.3121 0.31752-0.43173 0.55476-0.20858 0.10872 0.10195 0.32514 0.17165 0.57965 0.1857l0.40591 0.022887 0.15647-0.39012c0.21083-0.52588 0.23928-3.1808 0.039118-3.6713-0.16968-0.41561-0.18289-2.6741-0.016765-2.8463 0.060963-0.062939 0.13615-0.1831 0.16663-0.26632 0.03099-0.083226 0.14326-0.15189 0.24944-0.15241 0.10618 0 0.30227-0.058778 0.43588-0.13004 0.1331-0.071262 0.3353-0.12952 0.44858-0.12952 0.24385 0 0.70564-0.22835 0.70564-0.34903 0-0.11027-0.31447-0.43121-0.42318-0.43121-0.21439 0-0.061471-0.35943 0.2342-0.55033 0.70107-0.45306 0.65332-0.83642-0.10465-0.83642-0.57153 0-0.7407-0.44526-0.21439-0.56385 0.48161-0.10819 0.25198-0.21014-0.52885-0.23511l-0.78337-0.024968-0.024893-0.43329c-0.013717-0.23823 0.016257-0.7844 0.066043-1.2135 0.050294-0.42913 0.12955-1.1511 0.17679-1.6042 0.047246-0.45306 0.12193-0.90144 0.16663-0.99663 0.17933-0.38544-0.027433-2.0125-0.30837-2.4229-0.065027-0.095189-0.11837-0.29909-0.11837-0.45306 0-0.35943-0.43233-0.71678-0.9495-0.78596-0.19965-0.027048-0.3861-0.084786-0.41455-0.129-0.027941-0.044214-0.2088-0.10195-0.40185-0.12848-0.19305-0.026528-0.35104-0.082185-0.35104-0.12328 0-0.16645-0.3988-0.060859-0.61776 0.16281m-92.802 0.079584c-0.030989 0.03173-0.056391 0.11391-0.056391 0.1831 0 0.1342-0.3358 0.53524-0.45062 0.53785-0.038102 0.0010403-0.1265 0.059818-0.1966 0.1316-0.0696 0.071262-0.21744 0.13004-0.32768 0.13004-0.21642 0-0.38915-0.18466-0.22556-0.24031 0.12091-0.041613 0.13412-0.27985 0.015241-0.27985-0.14834 0-0.42369 0.34018-0.42369 0.52276 0 0.09675-0.053342 0.19714-0.11837 0.22263-0.065535 0.026008-0.14326 0.1805-0.17324 0.34435-0.029974 0.16333-0.087888 0.29753-0.12853 0.29753-0.04115 0-0.099573 0.11704-0.13005 0.26008-0.030482 0.14304-0.085856 0.26008-0.12294 0.26008s-0.090428 0.15085-0.11939 0.33498c-0.028957 0.18466-0.10973 0.44786-0.17984 0.58518-0.070107 0.13732-0.12751 0.29805-0.12751 0.35683-5.08e-4 0.059298-0.11481 0.29753-0.25452 0.53004-0.13971 0.23251-0.25401 0.50143-0.25401 0.59766s-0.057407 0.22315-0.12701 0.28245c-0.070107 0.059298-0.12701 0.22055-0.12701 0.35735 0 0.13732-0.030989 0.24968-0.069091 0.24968-0.11024 0-0.43893 0.84422-0.43893 1.1282 0 0.14252-0.076203 0.4052-0.16968 0.5831-0.092969 0.17789-0.16917 0.37556-0.16917 0.43901 0 0.06398-0.057407 0.17477-0.12701 0.24604-0.070107 0.071782-0.12701 0.22159-0.12701 0.33342s-0.040642 0.21743-0.08992 0.23407c-0.049786 0.017165-0.11227 0.20546-0.13971 0.41925-0.026925 0.21327-0.10059 0.46502-0.16358 0.55917s-0.11481 0.23563-0.11481 0.31418c0 0.079064-0.057407 0.19246-0.12701 0.25176-0.073156 0.061899-0.12701 0.25124-0.12701 0.44682 0 0.22107-0.044198 0.35579-0.12701 0.38856-0.070107 0.027568-0.12701 0.09935-0.12701 0.16021 0 0.060338-0.053342 0.15501-0.11837 0.21066-0.064519 0.055137-0.14428 0.245-0.17679 0.42185-0.032513 0.17685-0.096016 0.34539-0.14072 0.37347-0.044706 0.028609-0.10414 0.28245-0.13158 0.56385-0.027433 0.28141-0.1016 0.58882-0.1646 0.68297s-0.11481 0.31834-0.11481 0.49831c0 0.1805-0.037086 0.3277-0.082808 0.3277s-0.10668 0.095709-0.13564 0.21327c-0.028449 0.11704-0.10567 0.25852-0.1707 0.31418-0.065535 0.055137-0.11939 0.18362-0.11989 0.28505-0.001016 0.10143-0.05639 0.3407-0.12345 0.53108-0.067059 0.1909-0.12345 0.47751-0.12548 0.6372s-0.055375 0.41353-0.11786 0.56333c-0.45824 1.0996-0.62944 2.992-0.28805 3.1881 0.081284 0.046814 0.14784 0.14148 0.14784 0.21066 0 0.076463 0.083824 0.12588 0.21439 0.12588 0.11786 0 0.23623 0.058258 0.26316 0.13004 0.097541 0.26008 0.62538 0.16437 0.73511-0.13368 0.063503-0.17113 0.17171-0.27933 0.3104-0.30845 0.11685-0.024968 0.2789-0.082185 0.35968-0.12692 0.2154-0.11912 0.40185-0.09935 0.45773 0.048895 0.060963 0.16229 0.56746 0.17425 0.72292 0.016645 0.06147-0.062419 0.17882-0.13888 0.26011-0.17061 0.087888-0.03433 0.14834-0.14773 0.14834-0.27985 0-0.12224 0.056899-0.24448 0.12701-0.27204 0.10008-0.039532 0.12701-0.22003 0.12701-0.86242v-0.81249l0.37187 0.052016c0.36273 0.050976 0.3734 0.045254 0.4303-0.21847 0.031498-0.14877 0.090937-0.27048 0.13209-0.27048 0.040642 0 0.099065-0.1368 0.12955-0.30325 0.030482-0.16697 0.086872-0.30377 0.12497-0.30377 0.03861 0 0.093985-0.087387 0.12345-0.19506 0.074171-0.26788 0.32361-0.79064 0.40794-0.85358 0.037593-0.028609 0.09754-0.26268 0.13209-0.52016 0.035053-0.25748 0.10872-0.55345 0.16358-0.65748 0.055375-0.10455 0.10059-0.30481 0.10059-0.4463 0-0.14773 0.053851-0.27725 0.12701-0.30637 0.070107-0.027048 0.12701-0.10923 0.12701-0.18258 0-0.072822 0.054358-0.13264 0.1204-0.13264s0.1453-0.11704 0.17628-0.26008c0.030481-0.14304 0.085856-0.26008 0.12243-0.26008 0.036578 0 0.087888-0.16177 0.1138-0.35943 0.02591-0.19766 0.082808-0.38284 0.12701-0.41145 0.04369-0.029129 0.10821-0.15033 0.14276-0.26944 0.035054-0.11912 0.17374-0.32198 0.30786-0.45046 0.13463-0.12848 0.24436-0.3147 0.24436-0.41457 0-0.09935 0.056899-0.20338 0.12701-0.23043 0.07722-0.030689 0.12701-0.16177 0.12701-0.33342 0-0.15605 0.056899-0.33238 0.12701-0.39168 0.069599-0.059298 0.12701-0.17685 0.12701-0.26164 0-0.084266 0.051818-0.17373 0.11481-0.1987 0.063503-0.024448 0.14072-0.2091 0.17222-0.41041 0.031498-0.20078 0.10973-0.44214 0.17476-0.5368 0.070108-0.10247 0.099573-0.28349 0.073156-0.45046-0.027434-0.17321-5.08e-4 -0.32614 0.071123-0.4026 0.063503-0.068141 0.16206-0.23095 0.21845-0.36203 0.056899-0.13108 0.14225-0.23823 0.18949-0.23823 0.047754 0 0.087888-0.087907 0.089412-0.19506 0.001524-0.10715 0.058423-0.271 0.12701-0.36359 0.068583-0.092068 0.12447-0.23407 0.12447-0.31418 0-0.080625 0.056898-0.19506 0.127-0.25436 0.0696-0.059298 0.12701-0.19558 0.12701-0.30325s0.056899-0.24395 0.12701-0.30325c0.069599-0.059298 0.12701-0.16697 0.12701-0.23875 0-0.13108 0.31752-0.71886 0.43334-0.80261 0.03353-0.024448 0.088904-0.16073 0.12294-0.30325 0.033529-0.14252 0.11278-0.33654 0.17578-0.43017 0.062995-0.094149 0.11481-0.30897 0.11481-0.47699 5.08e-4 -0.16801 0.057407-0.41769 0.12701-0.55397 0.075696-0.14825 0.1265-0.48271 0.1265-0.82965 0-0.89936-0.31193-1.1527-1.4814-1.2016-0.46586-0.019766-0.88294-0.070742-0.92714-0.11339-0.044198-0.043173-0.16968-0.078024-0.27789-0.078024-0.10872 0-0.21947-0.058778-0.24639-0.13004-0.04877-0.13056-0.37695-0.17998-0.48211-0.072302m106.24 0.17165c-0.057915 0.23511-0.31244 0.55085-0.44452 0.55085-0.04115 0-0.12192 0.058258-0.17984 0.13004-0.12548 0.15501-0.55679 0.17269-0.64519 0.027048-0.034037-0.057218-0.017273-0.1186 0.037594-0.13732 0.12091-0.041613 0.13361-0.27985 0.014733-0.27985-0.1585 0-0.42318 0.34643-0.42318 0.55449 0 0.11391-0.057407 0.22991-0.12701 0.25696-0.069599 0.027568-0.12701 0.14981-0.12701 0.27204s-0.057406 0.245-0.12701 0.27204c-0.069599 0.027568-0.12701 0.11912-0.12701 0.20338 0 0.084786-0.052326 0.19818-0.11634 0.2528-0.064011 0.054097-0.14021 0.24916-0.16866 0.43225-0.028449 0.18362-0.10922 0.4463-0.17933 0.58362-0.070107 0.13732-0.12751 0.31574-0.12802 0.39636 0 0.081145-0.035054 0.16905-0.077727 0.19558-0.1077 0.068141-0.4308 0.76724-0.4308 0.93213 0 0.074383-0.056899 0.18362-0.12701 0.24291-0.0696 0.059298-0.12701 0.17165-0.12701 0.24916-5.08e-4 0.077504-0.1143 0.37504-0.25401 0.66112-0.14072 0.28973-0.2535 0.66008-0.2535 0.83486 0 0.17269-0.053342 0.35943-0.11837 0.41509-0.065027 0.055137-0.14225 0.23147-0.17171 0.39168-0.029465 0.16073-0.10973 0.33966-0.17832 0.39792s-0.12447 0.17477-0.12447 0.25852c0 0.084266-0.056899 0.26476-0.1265 0.40156-0.069599 0.13628-0.12701 0.34799-0.12701 0.4697-5.08e-4 0.12224-0.05639 0.29805-0.12497 0.39012-0.068583 0.092588-0.12548 0.25176-0.127 0.35319-0.001524 0.10143-0.059947 0.23303-0.12955 0.29233-0.073664 0.061899-0.12701 0.25124-0.12701 0.44682 0 0.22107-0.044198 0.35579-0.12701 0.38856-0.070107 0.027568-0.12701 0.09935-0.12701 0.16021 0 0.060338-0.056391 0.15761-0.12497 0.21587s-0.15038 0.24864-0.18136 0.42237c-0.031498 0.17425-0.096525 0.34279-0.14479 0.37452-0.048262 0.03225-0.10414 0.29441-0.12447 0.5831-0.021337 0.29857-0.087888 0.56801-0.15444 0.62471-0.066043 0.056177-0.11684 0.26008-0.11684 0.4697 0 0.24916-0.041658 0.38648-0.12701 0.41977-0.070107 0.027568-0.12701 0.12432-0.12701 0.21535 0 0.091028-0.053342 0.21118-0.11837 0.26632s-0.13971 0.24552-0.16511 0.42237c-0.11989 0.82029-0.27789 1.5522-0.3739 1.7248-0.057407 0.10403-0.10465 0.28193-0.10465 0.39532s-0.055883 0.28141-0.12447 0.37399c-0.18086 0.24552-0.1834 2.1389-0.00254 2.2923 0.069599 0.059298 0.12701 0.16177 0.12701 0.22731 0 0.070222 0.088904 0.11964 0.21439 0.11964 0.11786 0 0.23623 0.058258 0.26316 0.13004 0.09754 0.2606 0.52885 0.15657 0.71885-0.17373 0.12091-0.2091 0.23674-0.30325 0.37289-0.30325 0.10872 0 0.3038-0.041093 0.43385-0.091548 0.18898-0.073863 0.25452-0.06502 0.33225 0.043173 0.11735 0.16437 0.57356 0.17789 0.728 0.021847 0.061471-0.062419 0.17832-0.13888 0.26011-0.17061 0.087888-0.03433 0.14783-0.14773 0.14783-0.27985 0-0.12224 0.057407-0.24448 0.12701-0.27204 0.10059-0.039532 0.12701-0.22003 0.12701-0.86242v-0.81249l0.38102 0.053576c0.31802 0.044214 0.38102 0.029649 0.38102-0.088947 0-0.078024 0.076204-0.28765 0.16968-0.46554 0.092968-0.17789 0.16917-0.37295 0.16917-0.43329 0-0.060339 0.034038-0.10975 0.075695-0.10975 0.04115 0 0.099065-0.09623 0.12751-0.21379 0.028958-0.11704 0.16663-0.38648 0.30583-0.59766 0.17171-0.2606 0.253-0.49103 0.2535-0.71834 5.08e-4 -0.18362 0.057407-0.44578 0.12701-0.58206 0.069599-0.1368 0.1265-0.36255 0.1265-0.50143 0-0.1446 0.054358-0.27412 0.12701-0.30273 0.069599-0.027568 0.12701-0.10247 0.12701-0.16645 0-0.06398 0.047754-0.14773 0.10567-0.1857 0.17019-0.11131 0.37848-0.56021 0.44147-0.95137 0.032005-0.1987 0.11227-0.38284 0.17882-0.40885s0.12091-0.129 0.12091-0.22835c0-0.099871 0.10922-0.28609 0.24284-0.41457s0.26773-0.3407 0.2977-0.47178c0.030481-0.13108 0.09246-0.23875 0.13818-0.23875s0.083316-0.10923 0.083316-0.24343c0-0.13368 0.055883-0.31938 0.12396-0.41145 0.068583-0.092588 0.12548-0.22003 0.12701-0.28297 0.001524-0.062939 0.059946-0.17321 0.13005-0.24448 0.069599-0.071782 0.12701-0.21639 0.12701-0.32146 0-0.10507 0.060454-0.27985 0.13463-0.38804 0.074171-0.10871 0.14479-0.39792 0.15698-0.64396 0.012193-0.24552 0.066043-0.46138 0.11939-0.47959 0.053342-0.018206 0.097032-0.083226 0.097032-0.14408 0-0.061379 0.076204-0.21066 0.16917-0.33186s0.16917-0.30169 0.16917-0.40156 0.038101-0.18154 0.08484-0.18154c0.046738 0 0.08484-0.044734 0.08484-0.09883 0-0.09623 0.28297-0.76776 0.43385-1.0284 0.04115-0.071262 0.097032-0.1883 0.12396-0.26008 0.15393-0.41145 0.39524-0.86659 0.46027-0.86659 0.04115 0 0.10008-0.13732 0.13056-0.30481 0.030481-0.16697 0.08738-0.32406 0.12599-0.34851 0.03861-0.024448 0.094493-0.22887 0.12396-0.4541 0.029466-0.22523 0.1077-0.55709 0.17425-0.73655 0.44046-1.1948-0.029465-1.8934-1.3087-1.9464-0.77321-0.03225-1.3209-0.15397-1.5408-0.34331-0.21388-0.1831-0.40845-0.13576-0.46992 0.11496m-31.931 0.0041613c-0.33784 0.018726-0.61369 0.071262-0.61369 0.11704 0 0.12588-0.74171 0.10195-0.7854-0.025488-0.027941-0.081665-0.1011-0.070742-0.29516 0.043173-0.14225 0.083746-0.36832 0.15189-0.50345 0.15189-0.13463 0-0.29008 0.045774-0.34495 0.10195-0.054867 0.056697-0.4308 0.11756-0.8423 0.1368-0.40845 0.019246-0.86262 0.090508-1.0094 0.15813-0.17019 0.078544-0.5573 0.12328-1.0699 0.12328-0.54765 0-0.8804 0.041093-1.0455 0.12952-0.13361 0.071262-0.40591 0.12952-0.60506 0.13004-0.24385 5.2016e-4 -0.37848 0.043173-0.4115 0.13056-0.026418 0.071262-0.10668 0.13004-0.17781 0.13004-0.22505 0-0.69955 0.35423-0.69955 0.52224 0 0.088427-0.038102 0.18518-0.084332 0.21483-0.046738 0.029129-0.08484 0.30221-0.08484 0.60651s0.038102 0.57738 0.08484 0.60703c0.14326 0.091028 0.093984 0.19558-0.11837 0.2502-0.27179 0.069701-0.34698 0.67049-0.11786 0.94149 0.083316 0.09831 0.15139 0.24812 0.15139 0.33342 0 0.085306 0.036578 0.17841 0.080776 0.2065 0.044706 0.028089 0.061471 0.10351 0.037594 0.16749-0.035562 0.094669 0.027941 0.099871 0.34241 0.026008 0.21235-0.049935 0.3861-0.12276 0.3861-0.16229 0-0.040052 0.038102-0.072302 0.084332-0.072302 0.046738 0 0.08484 0.11704 0.08484 0.26008s-0.037594 0.26008-0.082808 0.26008c-0.045722 0-0.10668 0.094669-0.13513 0.21066-0.027941 0.11548-0.10516 0.23147-0.1707 0.25696-0.065535 0.026008-0.11938 0.14356-0.11938 0.26164 0 0.11756-0.038102 0.23823-0.08484 0.26788-0.04623 0.029129-0.12701 0.22679-0.17933 0.43849-0.051818 0.2117-0.12802 0.38492-0.16917 0.38492s-0.07468 0.044214-0.07468 0.09883c0 0.054097-0.059439 0.14356-0.13259 0.19818-0.073155 0.054617-0.15292 0.2736-0.1773 0.48635-0.024385 0.21275-0.098049 0.50976-0.16358 0.66008s-0.11938 0.43329-0.11938 0.62887c0 0.19506-0.03607 0.35527-0.080776 0.35527-0.044198 0-0.10567 0.13628-0.13615 0.30325-0.032006 0.17373-0.10618 0.30325-0.17324 0.30325-0.067567 0-0.11786 0.088427-0.11786 0.2065 0 0.11339-0.056898 0.25436-0.12701 0.31366-0.069599 0.059298-0.127 0.1987-0.127 0.30897 0 0.11079-0.038102 0.22523-0.084332 0.25488-0.046739 0.029129-0.12751 0.22679-0.17984 0.43849-0.051818 0.2117-0.12802 0.38492-0.16917 0.38492-0.041149 0-0.074679 0.068661-0.074679 0.15293 0 0.084266-0.076204 0.29857-0.16917 0.47647-0.092968 0.17789-0.16917 0.39376-0.16917 0.48011 0 0.085826-0.038101 0.19506-0.084332 0.24239-0.04623 0.047334-0.10872 0.3381-0.13869 0.64604-0.029973 0.30741-0.082808 0.5987-0.11786 0.64604-0.035054 0.047855-0.090429 0.29181-0.12345 0.54253-0.064519 0.48895-0.33377 1.148-0.46941 1.148-0.045214 0-0.0823 0.09831-0.0823 0.21795 0 0.12016-0.036577 0.28557-0.080775 0.36879-0.076712 0.14252-0.21794 0.81769-0.31447 1.5053-0.025401 0.18362-0.005588 0.33966 0.048262 0.37399 0.051311 0.03225 0.092969 0.15137 0.092969 0.26476 0 0.2658 0.16562 0.37087 0.29618 0.1883 0.21998-0.30845 0.49177-0.22003 0.57254 0.18518 0.081792 0.40989 0.28195 0.56073 0.44401 0.33446 0.14733-0.2065 0.22861-0.1805 0.4435 0.14252 0.2469 0.37139 0.6777 0.35059 1.0613-0.051496 0.22099-0.23095 0.26062-0.24552 0.32971-0.11912 0.15088 0.2762 0.82554-0.0036412 0.83062-0.34383 0.001016-0.054097 0.058422-0.14669 0.12853-0.20598 0.077727-0.06606 0.127-0.25592 0.127-0.48999 0-0.24708 0.041658-0.39844 0.11837-0.42861 0.065027-0.025488 0.14479-0.22939 0.1773-0.45254 0.033022-0.22315 0.086364-0.42549 0.11939-0.44942 0.2535-0.18414 0.43182-0.71002 0.43182-1.2754 0-0.60651 0.13056-0.89155 0.40845-0.89155 0.054867 0 0.099573-0.11235 0.099573-0.24968 0-0.13732 0.056899-0.29805 0.12701-0.35735 0.069599-0.059298 0.12701-0.16177 0.12701-0.22783 0-0.06554 0.076203-0.26528 0.16917-0.44318 0.092968-0.17789 0.16917-0.36983 0.16917-0.42601 0-0.056697 0.064519-0.21743 0.14326-0.35787 0.29262-0.52172 1.8888-0.57166 1.8888-0.059298 0 0.18362 0.20931 0.48427 0.74121 1.0642 0.057914 0.063459 0.10567 0.20598 0.10567 0.31678s0.056898 0.22367 0.127 0.25124c0.0696 0.027568 0.12701 0.1446 0.12701 0.26008s0.056899 0.23251 0.12701 0.26008c0.069599 0.027568 0.12701 0.14981 0.12701 0.27204s0.056899 0.24448 0.12701 0.27204c0.069599 0.027568 0.12701 0.11391 0.12751 0.19246 0 0.078024 0.10973 0.26164 0.24284 0.40728 0.13361 0.14616 0.27128 0.35631 0.30583 0.46814 0.034546 0.11131 0.17273 0.3121 0.30735 0.44682 0.13412 0.13472 0.24436 0.3199 0.24436 0.41197 0 0.091548 0.056898 0.18934 0.12701 0.21691 0.069599 0.027048 0.127 0.10455 0.127 0.17165 0 0.067621 0.056899 0.17113 0.12701 0.23043 0.069599 0.059298 0.12701 0.18102 0.12701 0.27048 0 0.089468 0.047246 0.16385 0.10567 0.16437 0.058423 0.0010404 0.19356 0.1987 0.30024 0.43901 0.28094 0.63095 0.63046 0.60547 0.69447-0.050456 0.029465-0.30221 0.07722-0.42601 0.15647-0.40885 1.0293 0.22055 1.5723 0.0046815 1.2629-0.50247-0.073664-0.12016-0.062995-0.18622 0.047754-0.29961 0.18187-0.18674 0.18136-0.60078-0.002032-0.9186-0.079252-0.13732-0.12396-0.26944-0.099065-0.29441 0.064519-0.06658 0.75086 0.28869 0.75086 0.38856 0 0.046814 0.040642 0.084786 0.090936 0.084786 0.049786 0 0.14784 0.058258 0.21743 0.13004 0.13818 0.14148 0.41709 0.17373 0.4877 0.056697 0.12548-0.20754-0.076204-0.72198-0.42572-1.0851-0.20372-0.2117-0.37035-0.40833-0.37035-0.43693 0-0.11391 0.43182-0.043173 0.47754 0.078024 0.053342 0.14304 0.45366 0.18206 0.45366 0.044214 0-0.092068-0.21286-0.36359-0.65586-0.83694-0.15139-0.16177-0.27535-0.33238-0.27535-0.3792 0-0.046814-0.039118-0.084786-0.086872-0.084786s-0.12497-0.087907-0.1712-0.19506c-0.046738-0.10767-0.21489-0.42913-0.3734-0.71522-0.1585-0.28609-0.52428-0.99871-0.81284-1.5839-0.28805-0.58466-0.55273-1.0814-0.58778-1.1038-0.28449-0.17998 0.93578-1.8637 1.3503-1.8637 0.097541 0 0.93578-0.81457 0.93578-0.90976 0-0.028089 0.23826-0.29805 0.52936-0.60078 0.70717-0.73447 1.0796-1.1922 1.0796-1.3264 0-0.060859 0.035562-0.11079 0.078744-0.11079 0.04369 0 0.1016-0.073343 0.12955-0.16333 0.044706-0.14356 0.13463-0.27412 0.46738-0.67829 0.047246-0.057738 0.086364-0.17477 0.086872-0.26008 0-0.085306 0.066551-0.27256 0.14784-0.41561 0.18086-0.31834 0.22099-2.4307 0.04877-2.5394-0.054358-0.034851-0.1265-0.17373-0.15952-0.30897-0.092968-0.37816-0.97896-1.3561-1.2294-1.3561-0.078235 0-0.19-0.058778-0.24792-0.13004-0.057915-0.071782-0.18644-0.13004-0.28551-0.13056-0.099064-5.2016e-4 -0.27738-0.052536-0.39575-0.116-0.11888-0.063459-0.40083-0.14096-0.62639-0.17269-0.22607-0.03173-0.45265-0.093109-0.50396-0.13576-0.11939-0.099871-1.1847-0.16541-1.9772-0.12172m-105.8 0.13472c-0.024385 0.075943-0.32056 0.11756-0.98048 0.13784-0.52022 0.016125-0.94594 0.060339-0.94594 0.09831 0 0.037451-0.40083 0.09623-0.89158 0.13056-0.49024 0.034331-1.0902 0.11652-1.3336 0.18258-0.24284 0.06658-0.58423 0.1212-0.75797 0.12172-0.17425 5.2015e-4 -0.47907 0.040052-0.6777 0.087387-0.19864 0.047855-0.73308 0.10975-1.1883 0.13836-0.47907 0.030169-0.87177 0.09727-0.93222 0.15917-0.057915 0.058778-0.20931 0.13368-0.33682 0.16645s-0.23217 0.095189-0.23217 0.13784c0 0.043173-0.1143 0.10403-0.25401 0.13524-0.23522 0.053056-0.25401 0.085306-0.25401 0.44058 0 0.28297-0.033022 0.38336-0.12701 0.38336-0.14885 0-0.18289 0.57322-0.037086 0.62315 0.063503 0.021327 0.063503 0.10195 0 0.27256-0.049278 0.13316-0.08992 0.39116-0.08992 0.5727 0 0.1883-0.054358 0.37712-0.12701 0.43849-0.069599 0.059298-0.127 0.17841-0.127 0.26476 0 0.085826-0.057407 0.21535-0.12802 0.28765-0.070616 0.072302-0.15139 0.24968-0.17933 0.39428-0.028449 0.14512-0.10414 0.30793-0.16816 0.36255-0.064519 0.054617-0.11685 0.16749-0.11685 0.25124s-0.057407 0.20078-0.12701 0.26008c-0.070107 0.059298-0.12701 0.1961-0.12701 0.30377 0 0.10715-0.057406 0.24395-0.127 0.30325-0.070108 0.059298-0.12701 0.19662-0.12701 0.30481 0 0.10819-0.057407 0.21951-0.12701 0.24656-0.070107 0.027568-0.12701 0.14877-0.12701 0.26996 0 0.12068-0.076204 0.36515-0.16968 0.54305-0.092968 0.17789-0.16917 0.37295-0.16917 0.43329s-0.030989 0.10975-0.068583 0.10975c-0.075187 0-0.43792 0.80105-0.44198 0.97582-0.001524 0.059298-0.058931 0.18362-0.12701 0.2762-0.068583 0.092068-0.12447 0.25956-0.12447 0.37087 0 0.11183-0.057407 0.22523-0.12701 0.2528-0.070107 0.027568-0.12802 0.15293-0.12955 0.27881-0.001524 0.1264-0.058931 0.30533-0.12701 0.39792-0.068583 0.092068-0.12447 0.23407-0.12447 0.31418 0 0.080625-0.053342 0.19142-0.11837 0.24656-0.064519 0.055137-0.14276 0.23563-0.17273 0.40104-0.030481 0.16489-0.08738 0.30013-0.1265 0.30013-0.039626 0-0.096016 0.13368-0.12599 0.29701-0.029973 0.16333-0.081791 0.31002-0.11532 0.3251-0.10668 0.049415-0.44198 0.74955-0.44198 0.92328 0 0.092068-0.056899 0.21587-0.12701 0.27516-0.069599 0.059298-0.12701 0.1961-0.12701 0.30325 0 0.10767-0.056899 0.24448-0.12701 0.30377-0.069599 0.059298-0.12701 0.21118-0.12701 0.3381 0 0.1264-0.062995 0.3225-0.14021 0.43537-0.21286 0.31106-0.21896 2.2575-0.007621 2.4968 0.081284 0.092068 0.14784 0.26684 0.14784 0.38856 0 0.12172 0.057407 0.26944 0.12701 0.32874 0.070107 0.059298 0.12701 0.16177 0.12701 0.22731 0 0.06606 0.035562 0.11964 0.078743 0.11964 0.043182 0 0.12904 0.050456 0.19051 0.11183 0.13869 0.13836 0.80522 0.49519 0.92511 0.49519 0.048262 0 0.1453 0.058258 0.21489 0.13004 0.086364 0.087907 0.29923 0.13004 0.66094 0.13004 0.37136 0 0.56594 0.039532 0.6396 0.13004 0.11634 0.14356 0.53444 0.16281 1.0582 0.048375 0.18644-0.041093 0.54714-0.11808 0.80115-0.17113 0.25452-0.053056 0.5004-0.13524 0.54612-0.18206 0.04623-0.046814 0.23877-0.085306 0.42877-0.085306s0.42064-0.052536 0.5126-0.116c0.22302-0.15501 0.99471-0.40416 1.2508-0.40416 0.18238 0 0.60912-0.26164 0.74324-0.45514 0.026925-0.039532 0.19864-0.095189 0.38102-0.12484 0.18238-0.029129 0.40693-0.10559 0.49888-0.17009s0.30329-0.11704 0.46992-0.11704c0.16663 0 0.34749-0.045254 0.40134-0.10091 0.054359-0.055137 0.31498-0.13056 0.58016-0.16749 0.26468-0.036931 0.50447-0.09883 0.53241-0.13784 0.027942-0.039012 0.24131-0.16073 0.47399-0.271 0.23268-0.11027 0.48974-0.23719 0.57051-0.28193 0.080775-0.044734 0.20168-0.081145 0.26874-0.081145 0.066551 0 0.28805-0.13056 0.49228-0.28973 0.20372-0.15917 0.47856-0.3173 0.61064-0.35111l0.23979-0.061899-0.22302-0.23875c-0.28043-0.29961-0.28144-0.41197-0.004064-0.48323 0.16612-0.042653 0.20473-0.092068 0.1585-0.20442-0.16968-0.41249-0.14682-0.51912 0.12193-0.57946 0.14428-0.03277 0.26265-0.10039 0.26265-0.15137 0-0.050456 0.059439-0.13628 0.13209-0.1909 0.18441-0.13784-0.14123-0.5701-0.42979-0.5701-0.11024 0-0.22404-0.039012-0.253-0.086867-0.079251-0.13108-0.44096-0.10351-0.4938 0.037452-0.034546 0.092588-0.25909 0.13368-0.87685 0.16125-0.97388 0.042653-2.2841 0.258-2.4202 0.3974-0.052326 0.053576-0.28754 0.09779-0.52276 0.09831-0.23522 0-0.53698 0.058778-0.67008 0.13004-0.13361 0.071262-0.40032 0.12952-0.59286 0.13004-0.19254 0-0.44757 0.052536-0.56696 0.116-0.11888 0.06398-0.38457 0.14356-0.59032 0.17685-0.20524 0.03381-0.39423 0.095709-0.41963 0.13784-0.037086 0.061379-1.0155 0.12328-1.5038 0.094669-0.15749-0.0088427-0.13971-0.82289 0.020829-0.95969 0.070107-0.059298 0.12701-0.21535 0.12701-0.34643 0-0.1316 0.057407-0.28765 0.12701-0.34695 0.070107-0.059298 0.12701-0.19766 0.12701-0.30793 0-0.10975 0.052834-0.25384 0.11684-0.31938s0.14326-0.24395 0.17628-0.39636c0.032514-0.15189 0.094493-0.27672 0.13717-0.27672s0.077727-0.054097 0.077727-0.12068c0-0.15397 0.59388-0.39948 0.96524-0.39948 0.15647 0 0.33174-0.058778 0.38965-0.13004 0.057915-0.071782 0.22404-0.13004 0.36882-0.13004s0.49278-0.11339 0.7727-0.25228c0.28043-0.13836 0.77626-0.33498 1.1024-0.43589 0.32564-0.10091 0.70666-0.22003 0.84637-0.26424 0.13971-0.044734 0.52072-0.10663 0.84688-0.13784s0.6772-0.11079 0.78032-0.17685c0.10313-0.06606 0.30989-0.12016 0.45925-0.12016 0.41861 0 0.91495-0.26632 0.91749-0.49311 0.00254-0.21223-0.12701-0.33706-0.2088-0.20182-0.08992 0.14929-0.21235 0.09779-0.21235-0.089468 0-0.11964 0.082808-0.20754 0.25401-0.26892 0.20321-0.072302 0.25401-0.14044 0.25401-0.34226 0-0.13836 0.038101-0.25124 0.084332-0.25124 0.30329 0 0.56695-0.70534 0.30278-0.80937-0.066552-0.026008-0.1331-0.15709-0.14834-0.29077-0.034546-0.3095-0.64113-0.36827-1.7105-0.16645-0.37797 0.071262-1.1624 0.15293-1.743 0.18154-0.58067 0.028089-1.076 0.084266-1.1009 0.12432-0.024893 0.039532-0.21642 0.09935-0.42623 0.13264-0.2093 0.03329-0.50752 0.11912-0.66195 0.1909-0.46281 0.21535-0.77677-0.30481-0.41048-0.67985 0.061979-0.06346 0.13869-0.22211 0.1707-0.35267 0.032005-0.13056 0.096016-0.23771 0.14174-0.23771 0.045214 0 0.082808-0.062419 0.082808-0.13836 0-0.075943 0.056899-0.24187 0.1265-0.36827 0.069599-0.12692 0.16206-0.3329 0.20575-0.45774 0.071124-0.20598 0.44249-0.44838 0.95915-0.62627 0.081284-0.028089 0.14784-0.087387 0.14784-0.1316s0.26722-0.10819 0.59337-0.14148c0.32615-0.03381 0.61115-0.091548 0.6335-0.129 0.022861-0.036931 0.28195-0.093629 0.57661-0.1264 0.45316-0.049415 0.56695-0.09727 0.7407-0.31366 0.15647-0.19298 0.27789-0.25488 0.50345-0.2554 0.16308 0 0.40591-0.058778 0.53952-0.13004 0.13514-0.071782 0.47297-0.13108 0.76204-0.13316 0.28551-0.0020806 0.67212-0.059818 0.85805-0.12848 0.18644-0.069181 0.40337-0.12588 0.48212-0.1264 0.21286-0.0020806 0.27535-0.17113 0.10922-0.29545-0.14022-0.10455-0.069091-0.40052 0.13818-0.5727 0.028957-0.023927 0.078744-0.13056 0.11126-0.23667 0.038102-0.12588 0.16714-0.22419 0.37086-0.28297 0.52428-0.15137 0.89768-0.60755 0.49736-0.60755-0.41201 0-0.69142-0.67205-0.31193-0.75007 0.13971-0.028609 0.25401-0.10143 0.25401-0.16177 0-0.060339 0.062487-0.1342 0.13869-0.16437 0.11989-0.047335 0.11176-0.080625-0.063503-0.25332-0.1331-0.13056-0.23725-0.17165-0.30431-0.12016-0.10973 0.083746-0.78693-0.17529-0.78693-0.30065 0-0.1212-1.3361-0.083746-1.3757 0.037972m66.657-0.021327c-0.069599 0.046294-0.29821 0.086346-0.50802 0.088947-0.2093 0.0026008-0.55222 0.044734-0.76204 0.093629-0.2093 0.048895-0.65941 0.1394-1.0003 0.2013-0.34038 0.061899-0.66246 0.15657-0.7153 0.21118-0.052835 0.054097-0.19559 0.09831-0.31701 0.09831-0.12142 0-0.29516 0.057218-0.38508 0.12744-0.098048 0.075943-0.35714 0.12848-0.64112 0.13004-0.31752 0.0015605-0.51158 0.045774-0.58169 0.13264-0.057915 0.071262-0.18644 0.13004-0.28551 0.13056-0.099065 5.2016e-4 -0.28957 0.058778-0.42268 0.13004-0.13361 0.071262-0.30075 0.12952-0.37187 0.12952s-0.30583 0.11131-0.52174 0.24708c-0.21591 0.13628-0.57153 0.27516-0.79048 0.30845-0.21896 0.03381-0.41861 0.095709-0.44401 0.13732-0.025401 0.042133-0.24538 0.17946-0.48872 0.30481-0.77474 0.4-0.90885 0.48375-0.90885 0.56749 0 0.045254-0.048262 0.082185-0.10821 0.082185-0.059439 0-0.17324 0.078024-0.253 0.17321-0.079759 0.095189-0.2027 0.17321-0.27281 0.17321s-0.12802 0.039012-0.12802 0.086867c0 0.047855-0.04115 0.086867-0.091444 0.086867-0.050803 0-0.21947 0.1264-0.37594 0.28141-0.96321 0.95605-1.141 1.1464-1.141 1.2208 0 0.045254-0.11329 0.2039-0.25147 0.35215-0.48364 0.51912-0.84942 0.98466-0.84942 1.0819 0 0.053576-0.057407 0.09779-0.12701 0.09779-0.081284 0-0.12802 0.085306-0.12955 0.23823-0.001524 0.13108-0.058931 0.31418-0.12701 0.40676-0.093984 0.12744-0.12447 0.43485-0.12447 1.2629v1.0944l0.28652 0.25436c0.36374 0.32302 0.5634 0.46294 0.75391 0.52796 0.083316 0.028609 0.20829 0.16385 0.27738 0.30117 0.069091 0.1368 0.16054 0.24864 0.20219 0.24864 0.042166 0 0.12701 0.051496 0.18848 0.11392 0.21439 0.21691 0.69548 0.40885 1.1644 0.46346 0.25909 0.030169 0.54663 0.10819 0.63859 0.17269 0.091952 0.0645 0.2657 0.11704 0.3861 0.11704 0.1204 0 0.29313 0.057218 0.38305 0.12744 0.10313 0.079584 0.36374 0.12796 0.6965 0.13004 0.3927 0.0020806 0.5446 0.036411 0.58067 0.13264 0.036578 0.09831 0.19102 0.13004 0.62944 0.13004 0.31904 0 0.74375 0.054617 0.9434 0.1212s0.55679 0.13836 0.79353 0.15917c0.68888 0.060859 0.99166 0.45566 0.56391 0.73447-0.12802 0.083226-0.25147 0.17581-0.27484 0.20494-0.023369 0.029649-0.19457 0.078544-0.38051 0.10871-0.18594 0.029649-0.35054 0.093629-0.36628 0.14096-0.01524 0.047855-0.21591 0.11235-0.44503 0.14356-0.22963 0.03121-0.41709 0.088947-0.41709 0.12796 0 0.039532-0.13209 0.09727-0.29313 0.12796-0.16155 0.03121-0.33784 0.11079-0.39169 0.17737-0.053851 0.06658-0.20016 0.1212-0.32463 0.1212-0.12497 0-0.26671 0.040572-0.31498 0.089988-0.04877 0.049935-0.46586 0.1883-0.92714 0.30845-0.46128 0.11964-0.87532 0.25436-0.91952 0.29961s-0.27281 0.083746-0.50802 0.085826c-0.23521 0.0020807-0.57965 0.059818-0.7661 0.12848-0.18644 0.069181-0.49126 0.12744-0.6772 0.13004-0.18644 0.0031209-0.48923 0.060338-0.67262 0.12692-0.1834 0.067101-0.63097 0.14825-0.99471 0.18102-0.36374 0.03225-0.66145 0.088947-0.66145 0.12588s-0.22556 0.093629-0.50091 0.1264c-0.4181 0.049935-0.53241 0.10143-0.6899 0.3121-0.14936 0.19922-0.25554 0.25228-0.50548 0.25228-0.60709 0-0.7595 0.50195-0.17679 0.58206 0.18848 0.025488 0.40693 0.12016 0.48567 0.2091 0.095508 0.10819 0.26011 0.16333 0.49024 0.16385 0.19102 0.0010403 0.30634 0.030169 0.25604 0.06502-0.049786 0.035371-0.11532 0.13212-0.14529 0.21535-0.034546 0.095709-0.14377 0.15189-0.29516 0.15189-0.13259 0-0.31447 0.057218-0.4049 0.12744-0.090428 0.069701-0.24995 0.12848-0.35511 0.13004-0.23522 0.003121-0.24284 0.12224-0.020829 0.34955 0.20778 0.21275 0.80268 0.24239 0.87736 0.043173 0.051819-0.1394 0.79455-0.18206 1.3132-0.075943 0.36527 0.074903 0.39169 0.46554 0.032006 0.4671-0.66043 0.0036411-0.9241 0.52744-0.29669 0.58986 0.1707 0.016645 0.27535 0.074383 0.27535 0.15137 0 0.16021 0.28805 0.16177 0.4176 0.0020806 0.076204-0.094149 0.41963-0.12952 1.4789-0.15189 0.86974-0.018206 1.424-0.06554 1.4987-0.12796 0.065535-0.054617 0.43487-0.11391 0.82097-0.13108 0.3861-0.017165 0.72901-0.074903 0.76204-0.12744 0.033021-0.052536 0.2784-0.12328 0.54511-0.15709 0.26722-0.03329 0.5065-0.095189 0.53139-0.1368 0.024893-0.041613 0.21642-0.10195 0.42572-0.13368 0.2088-0.03225 0.39931-0.090508 0.42268-0.129 0.023369-0.039012 0.26112-0.09831 0.52834-0.13212 0.26671-0.03329 0.51056-0.10143 0.54155-0.15085 0.03099-0.049415 0.36324-0.11287 0.73765-0.14096 0.37492-0.028089 0.72851-0.09935 0.78642-0.15865 0.057406-0.058778 0.20676-0.10715 0.33123-0.10715 0.12497 0 0.27433-0.058258 0.33225-0.13004 0.057915-0.071782 0.16765-0.1316 0.24334-0.13368 0.075695-0.0020806 0.29008-0.09935 0.47653-0.21587 0.18594-0.11652 0.43385-0.2528 0.55019-0.30221 0.51514-0.21847 0.81639-0.4052 1.0125-0.62679 0.11583-0.13108 0.26519-0.23875 0.33174-0.23875 0.1331 0 1.0267-0.90664 1.0267-1.0424 0-0.046294 0.040134-0.084266 0.088904-0.084266s0.12904-0.11704 0.17781-0.26008 0.11989-0.26008 0.158-0.26008c0.038102 0 0.095001-0.11704 0.12548-0.26008 0.030482-0.14304 0.090936-0.26008 0.13361-0.26008 0.11278 0 0.096017-0.23979-0.018796-0.27881-0.056899-0.019246-0.12142-0.34591-0.15546-0.78388-0.047754-0.61223-0.099572-0.81197-0.28398-1.084-0.12396-0.18362-0.22556-0.37816-0.22556-0.43277 0-0.054617-0.047754-0.13056-0.10618-0.16905-0.11278-0.073863-0.35562-0.54929-0.44401-0.87127-0.029973-0.10715-0.089412-0.19506-0.1331-0.19506-0.043182 0-0.078743-0.039012-0.078743-0.086867 0-0.16281-0.96982-1.0398-1.1502-1.0398-0.054358 0-0.14682-0.058778-0.20473-0.13004-0.057915-0.071782-0.18644-0.1316-0.28551-0.13316-0.099065-0.0015604-0.25401-0.059818-0.34444-0.13004-0.090428-0.069701-0.29313-0.12692-0.45011-0.12692s-0.36882-0.048375-0.47094-0.10715c-0.1646-0.095189-0.87888-0.23199-2.0021-0.38284-0.20778-0.028089-0.4557-0.099871-0.55019-0.16021-0.095-0.060338-0.41607-0.13368-0.71428-0.16333-0.2977-0.029649-0.58372-0.087387-0.63503-0.12848-0.051311-0.041093-0.19813-0.10039-0.32615-0.1316-0.23725-0.057738-0.30075-0.17373-0.14834-0.27048 0.046738-0.029129 0.08484-0.14877 0.08484-0.26528 0-0.2554 0.23369-0.51236 0.538-0.59038 0.12345-0.03173 0.22404-0.09623 0.22404-0.14304 0-0.046294 0.10719-0.084786 0.23776-0.084786 0.13107 0 0.31193-0.057218 0.40236-0.12744 0.090428-0.069701 0.22861-0.12848 0.30685-0.13004 0.078743-0.0015605 0.24995-0.048375 0.38102-0.10455 0.28043-0.12068 1.0994-0.30013 1.9315-0.42445 0.32564-0.048895 0.62893-0.12588 0.67313-0.17113 0.33428-0.34227 2.4167-0.0052016 2.8658 0.46398 0.34698 0.36255 1.0618 0.43329 1.3437 0.13212 0.42877-0.45618 0.66348-0.76932 0.66348-0.88427 0-0.06606 0.057407-0.16853 0.12701-0.22783 0.070107-0.059298 0.12701-0.16541 0.12701-0.23563s0.055882-0.23147 0.12345-0.35787c0.18644-0.34643 0.46941-1.032 0.46941-1.136 0-0.049935 0.038102-0.091028 0.08484-0.091028 0.11837 0 0.10618-0.41197-0.013716-0.45254-0.064519-0.022367-0.096525-0.29545-0.093985-0.80625 0.003556-0.78596-0.11888-1.1594-0.38203-1.1662-0.059439-0.0015605-0.13056-0.061379-0.15698-0.13264-0.026925-0.071782-0.13158-0.13004-0.23267-0.13004-0.1011 0-0.24893-0.078024-0.32869-0.17321-0.079759-0.095709-0.2408-0.17373-0.35765-0.17373-0.11685 0-0.21235-0.039012-0.21235-0.086346 0-0.11131-0.76356-0.11131-0.93172 0m-17.696 0.15085c-0.070107 0.027568-0.17476 0.11235-0.23268 0.1883-0.096524 0.12484-0.11634 0.1238-0.22099-0.014044-0.16562-0.21847-0.30837-0.18674-0.30837 0.067621 0 0.12068-0.057407 0.24187-0.12701 0.26944-0.0823 0.03225-0.12701 0.16645-0.12701 0.38024 0 0.18154-0.052327 0.4411-0.11685 0.57582-0.26773 0.56385-0.38864 0.86711-0.443 1.1126-0.032006 0.14304-0.10973 0.33706-0.17273 0.43069-0.062487 0.094149-0.1143 0.26008-0.1143 0.36879 0 0.10871-0.03607 0.19714-0.080776 0.19714-0.044198 0-0.10567 0.13524-0.13564 0.30065-0.030482 0.16489-0.10821 0.34539-0.17324 0.40052s-0.11837 0.20858-0.11837 0.3407c0 0.13368-0.05639 0.26216-0.12701 0.29025-0.069599 0.027048-0.12701 0.14981-0.12701 0.27204 0 0.12224-0.056898 0.24448-0.127 0.27204-0.0696 0.027048-0.12701 0.12068-0.12701 0.20754 0 0.086867-0.050803 0.21014-0.11278 0.2736-0.061978 0.063459-0.13869 0.22211-0.1707 0.35267-0.032006 0.13056-0.095509 0.23771-0.14123 0.23771s-0.083316 0.049415-0.083316 0.10975c0 0.060339-0.076203 0.25488-0.16917 0.43329-0.092968 0.17789-0.16917 0.3818-0.16917 0.45358 0 0.071782-0.037594 0.13056-0.083316 0.13056s-0.10922 0.10663-0.14123 0.23719c-0.032005 0.13108-0.10872 0.28973-0.1707 0.35319s-0.11278 0.18622-0.11278 0.27308c0 0.086867-0.057407 0.1805-0.12701 0.20806-0.070107 0.027568-0.12701 0.10663-0.12701 0.17633s-0.047754 0.17998-0.10618 0.245c-0.15749 0.17633-0.31142 0.42861-0.42369 0.69597-0.054867 0.13108-0.12599 0.23823-0.15698 0.23823-0.031498 0-0.078744 0.087907-0.10567 0.19506-0.026926 0.10767-0.13869 0.29285-0.24792 0.41249s-0.30431 0.4026-0.43385 0.62887c-0.12955 0.22575-0.26976 0.41093-0.31193 0.41093s-0.076712 0.058258-0.076712 0.13004c0 0.071262-0.040134 0.13004-0.088904 0.13004-0.049278 0-0.12904 0.11704-0.17781 0.26008s-0.12294 0.26008-0.16511 0.26008c-0.041658 0-0.076203 0.058258-0.076203 0.13004 0 0.071262-0.040134 0.13004-0.088904 0.13004-0.049279 0-0.12802 0.11392-0.17527 0.25332-0.047754 0.13888-0.14072 0.27412-0.20727 0.30065-0.066551 0.026008-0.12142 0.10715-0.12142 0.17998 0 0.073342-0.038101 0.13316-0.084332 0.13316-0.046738 0-0.08484 0.060339-0.08484 0.1342 0 0.073342-0.19051 0.32926-0.42318 0.56749-0.23318 0.23823-0.42369 0.47074-0.42369 0.516 0 0.045254-0.058422 0.082705-0.12955 0.082705-0.071123 0-0.15038 0.054617-0.17527 0.12224-0.025401 0.067101-0.13209 0.14408-0.23674 0.17113-0.10516 0.027048-0.28906 0.142-0.40845 0.2554-0.25706 0.24343-0.57203 0.34799-0.61217 0.20286-0.17882-0.65072-0.23471-1.1137-0.1453-1.2052 0.054359-0.055657 0.099065-0.24812 0.099065-0.42809 0-0.17946 0.054866-0.45462 0.12193-0.61119 0.067567-0.15657 0.14529-0.43069 0.17324-0.60963 0.027941-0.17893 0.082299-0.3251 0.12091-0.3251 0.038102 0 0.090936-0.16489 0.11735-0.36671 0.026417-0.2013 0.088904-0.38024 0.13818-0.3974 0.049786-0.016645 0.090428-0.10455 0.090428-0.19454 0-0.089988 0.073156-0.33082 0.16257-0.53472 0.089412-0.2039 0.22505-0.5264 0.30075-0.7173 0.076203-0.1909 0.19356-0.45046 0.26062-0.57686 0.067567-0.1264 0.12243-0.30689 0.12243-0.40104s0.057407-0.22003 0.12701-0.27933c0.070107-0.059298 0.12701-0.21587 0.12701-0.34799 0-0.13368 0.056391-0.26216 0.12701-0.29025 0.070107-0.027048 0.12904-0.13888 0.13107-0.2476 0.002032-0.10871 0.097032-0.35371 0.21083-0.54461 0.37746-0.63043 0.63147-1.2598 0.63452-1.5735 0.001524-0.13576 0.058931-0.3225 0.12701-0.41509 0.068583-0.092588 0.12447-0.27308 0.12447-0.40104 0-0.12848 0.056898-0.28193 0.12701-0.34122 0.1707-0.1446 0.17222-1.032 0.00254-1.2619-0.068075-0.092588-0.12548-0.24916-0.12701-0.34851-0.004064-0.27464-0.33987-0.54097-0.72241-0.57218-0.29821-0.024448-0.3419-0.056177-0.36527-0.26632-0.014733-0.13108-0.07214-0.24031-0.12701-0.24187-0.055375-0.0020806-0.19356-0.11912-0.30786-0.26008-0.23369-0.28869-0.38406-0.3147-0.73511-0.12692-0.13361 0.071262-0.39524 0.13056-0.58118 0.13264-0.43741 0.0041613-0.97388 0.54097-0.97388 0.97374 0 0.036931-0.10414 0.23303-0.23115 0.43433-0.39067 0.61951-0.44198 0.70846-0.49532 0.8593-0.028957 0.080105-0.10567 0.16697-0.1707 0.19246-0.065535 0.025488-0.11888 0.13576-0.11938 0.24448-5.08e-4 0.10871-0.057407 0.30949-0.12701 0.44578-0.0696 0.1368-0.1265 0.30273-0.1265 0.36879 0 0.06658-0.076204 0.26632-0.16917 0.44422-0.093476 0.17789-0.16968 0.3922-0.16968 0.47647s-0.038102 0.15293-0.084332 0.15293c-0.046738 0-0.08484 0.11235-0.08484 0.24968 0 0.1368-0.052326 0.29389-0.11634 0.34799-0.064011 0.054617-0.14072 0.25436-0.1707 0.44422-0.029465 0.18986-0.086872 0.34539-0.12802 0.34539-0.040642 0-0.10059 0.14408-0.1331 0.32042-0.032005 0.17633-0.11278 0.39948-0.17832 0.49623-0.066043 0.09623-0.12142 0.29337-0.12294 0.43797-0.001524 0.14408-0.058423 0.3381-0.12701 0.43069-0.068583 0.092588-0.12447 0.28973-0.12447 0.43849s-0.055882 0.34591-0.12396 0.43849c-0.068583 0.092588-0.12548 0.31626-0.12701 0.49675s-0.055375 0.41457-0.11989 0.52016c-0.064011 0.10559-0.1392 0.40052-0.16612 0.65592-0.027434 0.2554-0.083824 0.50924-0.12599 0.56385-0.041658 0.054617-0.097541 0.37972-0.12447 0.72302-0.026925 0.34331-0.088904 0.7017-0.13869 0.79636-0.11939 0.22887-0.11786 2.1139 0.002032 2.2367 0.050294 0.051496 0.11278 0.34227 0.13869 0.64604 0.025401 0.30325 0.098557 0.65696 0.16206 0.78596 0.063503 0.12848 0.11532 0.31418 0.11532 0.41145 0 0.09779 0.040134 0.17789 0.089412 0.17789 0.04877 0 0.12853 0.11704 0.1773 0.26008 0.048771 0.14304 0.12294 0.26008 0.16511 0.26008s0.076203 0.058258 0.076203 0.13004c0 0.071262 0.032514 0.13004 0.071632 0.13004 0.039626 0 0.16003 0.078024 0.26722 0.17321 0.10719 0.095709 0.24182 0.17373 0.29872 0.17373 0.057407 0 0.15139 0.058258 0.20931 0.13004 0.071123 0.087387 0.26214 0.13004 0.58677 0.13004 0.29262 0 0.54612 0.049935 0.6457 0.12692 0.18695 0.1446 3.1218 0.19662 3.2061 0.056697 0.025401-0.041613 0.21794-0.12016 0.42877-0.17425 0.21032-0.054097 0.38203-0.13732 0.38203-0.18414 0-0.046814 0.07214-0.085306 0.16054-0.085306 0.087888 0 0.18238-0.058778 0.2088-0.13004 0.026926-0.071782 0.1204-0.13004 0.20778-0.13004s0.2469-0.078024 0.3546-0.17373c0.10719-0.095189 0.22658-0.17321 0.26468-0.17321 0.038101 0 0.2408-0.17529 0.45062-0.39012 0.20931-0.21431 0.42014-0.39012 0.46789-0.39012s0.086872-0.036931 0.086872-0.082185c0-0.045774 0.22861-0.3173 0.50802-0.60443 0.27941-0.28713 0.50802-0.56177 0.50802-0.61119 0-0.048895 0.056899-0.089468 0.12701-0.089468 0.069599 0 0.12701-0.058258 0.12701-0.13004 0-0.071262 0.056898-0.13004 0.12701-0.13004 0.069599 0 0.12701-0.052536 0.12701-0.11652 0-0.06398 0.076203-0.18726 0.16917-0.2736 0.092969-0.086346 0.16917-0.2091 0.16917-0.27308 0-0.0645 0.033022-0.11704 0.073156-0.11704 0.040641 0 0.1834-0.16541 0.31751-0.36827 0.13463-0.20286 0.27332-0.38128 0.30786-0.3974 0.035054-0.015605 0.063503-0.085306 0.063503-0.15449 0-0.069181 0.057407-0.14773 0.12701-0.17529 0.070108-0.027568 0.12701-0.086346 0.12701-0.13108 0-0.10663 0.35257-0.61847 0.4872-0.70638 0.057914-0.038492 0.10567-0.10611 0.10567-0.15085 0-0.073863 0.15241-0.29077 0.38559-0.54825 0.049279-0.054097 0.11481-0.16697 0.1458-0.2502 0.03099-0.083746 0.095509-0.15189 0.14326-0.15189 0.048262 0 0.08738-0.075943 0.08738-0.16801 0-0.092588 0.040642-0.19402 0.08992-0.22523 0.049278-0.03173 0.12599-0.14096 0.1707-0.24395 0.044198-0.10247 0.15596-0.30325 0.24792-0.4463 0.091953-0.14304 0.21439-0.35787 0.2723-0.47699 0.057407-0.11912 0.12955-0.23615 0.16054-0.26008 0.10211-0.080105 0.64214-1.1678 0.69904-1.4086 0.030989-0.13108 0.093476-0.23875 0.1392-0.23875s0.083316-0.11808 0.083316-0.26268c0-0.15345 0.052834-0.28349 0.12701-0.31262 0.069599-0.027568 0.12701-0.13836 0.12701-0.24656 0-0.10871 0.054358-0.24343 0.12142-0.30013 0.067059-0.057218 0.14631-0.21795 0.17628-0.35787 0.029974-0.1394 0.086364-0.25384 0.12548-0.25384s0.096525-0.11704 0.12701-0.26008c0.030482-0.14304 0.083824-0.26008 0.11786-0.26008 0.070107 0 0.4308-0.80989 0.43538-0.97634 0.001524-0.058778 0.058422-0.1831 0.12701-0.27568 0.068075-0.092588 0.12396-0.27777 0.12396-0.41197 0-0.13368 0.037594-0.24343 0.083824-0.24343s0.1077-0.15501 0.13768-0.34487c0.029465-0.18986 0.10618-0.3896 0.17019-0.44422s0.11786-0.18206 0.11939-0.28349c0.001524-0.10143 0.058423-0.26008 0.12701-0.35267 0.068075-0.092588 0.12396-0.26996 0.12396-0.39428s0.038101-0.26528 0.084839-0.31314c0.046231-0.047335 0.12091-0.38128 0.16562-0.74175 0.044706-0.36047 0.12701-0.75839 0.18289-0.88427 0.13412-0.30065-0.10567-0.61379-0.40998-0.53524-0.25858 0.06658-0.4999-0.073863-0.56187-0.32666-0.081792-0.33446-0.58321-0.44422-1.0541-0.23095-0.51006 0.23095-0.69955 0.21535-1.0745-0.089988-0.33479-0.27256-0.34647-0.27672-0.55019-0.19558m37.817 1.33c0.29719 0.1883 0.37594 0.45878 0.158 0.54409-0.070108 0.027568-0.12701 0.10975-0.12701 0.18258 0 0.073343-0.052835 0.13316-0.11786 0.13316s-0.14021 0.058258-0.16663 0.13004c-0.026925 0.071262-0.1204 0.13004-0.20778 0.13004-0.086872 0-0.32615 0.09779-0.53139 0.21795-0.20524 0.12016-0.47805 0.26528-0.60607 0.3225s-0.23318 0.13472-0.23318 0.17217c0 0.036931-0.047247 0.068661-0.10567 0.070222-0.058423 0.0015605-0.25808 0.078544-0.44452 0.17061-0.18644 0.092068-0.39575 0.17009-0.46586 0.17321-0.0696 0.003121-0.20067 0.062939-0.2911 0.13316-0.090428 0.069701-0.23014 0.12692-0.31091 0.12692-0.080268 0-0.26366 0.058778-0.40693 0.13004-0.14377 0.071782-0.37848 0.18882-0.52174 0.26008-0.14377 0.071782-0.32666 0.13004-0.40642 0.13004-0.080268 0-0.18797 0.043693-0.23979 0.09675-0.051819 0.053056-0.13564 0.070222-0.18644 0.037972-0.13513-0.085306-0.11227-0.53524 0.035054-0.68557 0.069599-0.071782 0.12701-0.20598 0.12701-0.29909 0-0.093109 0.056898-0.21743 0.12701-0.27672 0.069599-0.059298 0.12701-0.15241 0.12701-0.20702s0.076203-0.24448 0.16917-0.42289c0.093477-0.17789 0.16968-0.38336 0.16968-0.45722 0-0.26476 0.54714-0.82029 0.80827-0.82029 0.1143 0 0.20778-0.039012 0.20778-0.086867 0-0.19194 3.1228-0.10715 3.4403 0.094149m-38.325 0.3766c0 0.116-0.05385 0.2658-0.11938 0.3329-0.065535 0.067101-0.13209 0.21327-0.14834 0.32458-0.015749 0.11131-0.076204 0.21795-0.13463 0.23771-0.15495 0.052536-0.13412-0.40624 0.021337-0.46762 0.070107-0.027568 0.12701-0.15605 0.12701-0.28609s0.025401-0.26216 0.05639-0.29441c0.1143-0.11652 0.19762-0.052016 0.19762 0.15293m58.549 1.8596c0.36273 0.079064 0.26671 0.93265-0.1331 1.1854-0.042674 0.027048-0.077728 0.11131-0.077728 0.18778 0 0.14252-1.14 1.3248-1.2777 1.3248-0.042166 0-0.076711 0.058778-0.076711 0.13004s-0.039626 0.13004-0.087888 0.13004c-0.047754 0-0.19914 0.11704-0.3358 0.26008-0.13615 0.14304-0.29719 0.26008-0.35765 0.26008-0.059947 0-0.22353 0.12692-0.36374 0.28193-0.22455 0.24812-0.57 0.46918-0.97185 0.62211-0.16003 0.060859-0.38407 0.20494-0.76153 0.49051-0.16358 0.12276-0.36374 0.24864-0.44503 0.27881-0.081284 0.030169-0.14834 0.095189-0.14834 0.1446 0 0.048895-0.054358 0.089468-0.12091 0.089468s-0.18187 0.061899-0.25604 0.13836c-0.20219 0.20702-0.45824 0.087907-0.26925-0.12536 0.076204-0.086346 0.13818-0.20442 0.13818-0.26268 0-0.058778 0.074171-0.25072 0.1646-0.42705 0.089921-0.17633 0.22709-0.54461 0.3038-0.81873 0.077219-0.27412 0.17019-0.51756 0.20727-0.54097 0.037086-0.023407 0.09246-0.17946 0.12294-0.34695 0.030989-0.16749 0.091952-0.30429 0.13564-0.30429 0.044198 0 0.10414-0.15553 0.13361-0.34539 0.029974-0.18934 0.10668-0.3896 0.1707-0.4437 0.064011-0.054617 0.11634-0.16749 0.11634-0.25124s0.056898-0.20078 0.127-0.26008c0.0696-0.059298 0.12701-0.20182 0.12701-0.31678s0.056899-0.23147 0.12701-0.25852c0.069599-0.027568 0.12701-0.10455 0.12701-0.17061 0-0.069701 0.085856-0.1212 0.20118-0.1212 0.11075 0 0.24538-0.054097 0.29923-0.12068 0.053851-0.06606 0.26773-0.14669 0.47602-0.17841 0.20829-0.03225 0.37848-0.093109 0.37848-0.13576 0-0.11756 1.8751-0.19506 2.3273-0.095709m-59.396 0.35735c0 0.1909-0.038102 0.34695-0.084332 0.34695-0.046738 0-0.08484-0.15605-0.08484-0.34695 0-0.1909 0.038102-0.34695 0.08484-0.34695 0.04623 0 0.084332 0.15605 0.084332 0.34695m-0.16917 0.6606c0 0.25644-0.40083 1.16-0.51412 1.16-0.043182 0-0.078744 0.09779-0.078744 0.21691 0 0.13472-0.047754 0.21639-0.12701 0.21639-0.16257 0-0.1712-0.42133-0.009652-0.48479 0.064011-0.024968 0.14072-0.19974 0.17019-0.38752 0.029466-0.18778 0.090937-0.34122 0.13717-0.34122 0.045722 0 0.083316-0.056177 0.083316-0.12432 0-0.23095 0.16866-0.57998 0.25401-0.52588 0.046739 0.029649 0.08484 0.15137 0.08484 0.27048m74.99 2.1014c-0.078743 0.50716-0.14326 1.0393-0.14377 1.1823-0.002032 0.33914-0.41506 0.56385-1.0384 0.56385-0.24284 0-0.56492 0.035891-0.7153 0.080105-0.41556 0.12224-0.38508-0.35319 0.039626-0.62627 0.059438-0.038492 0.10821-0.12588 0.10821-0.19506s0.039117-0.12588 0.086364-0.12588c0.047754 0 0.12345-0.09727 0.16765-0.21691 0.044198-0.11912 0.11939-0.21639 0.16714-0.21639s0.086872-0.059818 0.086872-0.13316c0-0.072822 0.056899-0.15501 0.12701-0.18258 0.069599-0.027048 0.12701-0.099871 0.12701-0.16125 0-0.061379 0.056898-0.1342 0.12701-0.16125 0.069599-0.027568 0.127-0.10403 0.127-0.16957s0.075188-0.21327 0.16765-0.3277c0.092461-0.11444 0.20118-0.24968 0.24233-0.30065 0.04115-0.050455 0.12548-0.18726 0.18746-0.30325l0.11227-0.21118 0.083316 0.29129c0.060455 0.21118 0.044198 0.54409-0.059439 1.2135m-36.413 2.4411c0.047246 0.048375 0.40642 0.11339 0.7976 0.14408 0.39118 0.03121 0.75086 0.089468 0.79861 0.13004 0.61471 0.51912 0.87278 0.97998 0.67516 1.2036-0.067059 0.075943-0.12193 0.17998-0.12193 0.23095 0 0.050976-0.19051 0.29181-0.42369 0.53524-0.23268 0.24343-0.42318 0.48167-0.42318 0.529s-0.057407 0.086346-0.12701 0.086346c-0.070107 0-0.12701 0.038492-0.12701 0.084786 0 0.046814-0.095508 0.10975-0.21286 0.13992-0.11685 0.030169-0.2408 0.09935-0.27484 0.15345-0.034546 0.054617-0.24385 0.18934-0.46484 0.30013-0.22099 0.11027-0.40235 0.23511-0.40235 0.27724 0 0.042653-0.14276 0.10455-0.31701 0.13784-0.17425 0.03329-0.43131 0.1316-0.57153 0.21795-0.48872 0.30221-0.89869 0.49779-1.1679 0.55709-0.14936 0.03277-0.43588 0.17165-0.63605 0.3095-0.20016 0.13732-0.39524 0.24968-0.43385 0.24968s-0.11786 0.058258-0.17578 0.13004c-0.057915 0.071262-0.22912 0.13004-0.38102 0.13004-0.15139 0-0.3231 0.058258-0.38102 0.13004-0.057915 0.071262-0.15901 0.13004-0.22455 0.13004s-0.14123 0.058258-0.16816 0.13004c-0.026418 0.071262-0.087888 0.13004-0.13615 0.13004-0.1138 0-0.85297 0.36931-0.91698 0.45774-0.1011 0.13992-0.6772 0.40885-0.87532 0.40885-0.11227 0-0.21744 0.040052-0.23369 0.088947-0.015749 0.048895-0.18086 0.11339-0.36679 0.14304-0.18594 0.030169-0.36832 0.10715-0.40591 0.17165-0.037086 0.06398-0.15596 0.11652-0.26468 0.11652-0.10821 0-0.24436 0.058778-0.30227 0.13004-0.057915 0.071782-0.19152 0.13004-0.29669 0.13004-0.10465 0-0.23623 0.056177-0.2916 0.12484-0.055375 0.068141-0.22099 0.15137-0.3673 0.18414-0.14682 0.03329-0.32514 0.088947-0.39677 0.12432-0.26417 0.13004-0.67161 0.24031-0.71733 0.19298-0.086872-0.088427-0.04877-0.29025 0.07976-0.42185 0.069599-0.071262 0.12701-0.23927 0.12701-0.37295 0-0.1342 0.056898-0.29233 0.12701-0.35163 0.069599-0.059298 0.127-0.18102 0.127-0.271 0-0.089467 0.076204-0.30845 0.16917-0.48635 0.093477-0.17789 0.16968-0.3922 0.16968-0.47647 0-0.084266 0.03353-0.15293 0.07468-0.15293 0.040641 0 0.11684-0.17321 0.16917-0.38492 0.051819-0.2117 0.13259-0.40937 0.17933-0.43901 0.046738-0.029129 0.08484-0.16801 0.08484-0.30845 0-0.13992 0.036577-0.25488 0.081283-0.25488s0.12243-0.15605 0.17273-0.34695c0.049787-0.19038 0.12751-0.34643 0.17222-0.34643 0.045214 0 0.081792-0.11235 0.081792-0.24968 0-0.13732 0.056899-0.29805 0.12701-0.35735 0.069599-0.059298 0.12701-0.21743 0.12701-0.35111 0-0.13368 0.051818-0.29649 0.11583-0.36203 0.063503-0.06502 0.14428-0.21066 0.17933-0.32302 0.079252-0.25696 0.44604-0.61119 0.63198-0.61119 0.077727 0 0.21489-0.057218 0.30532-0.12692 0.090428-0.070222 0.30278-0.12848 0.47145-0.13004 0.16917-0.0015605 0.3546-0.061379 0.41252-0.13316 0.057914-0.071262 0.19711-0.13004 0.30939-0.13004s0.22607-0.058258 0.253-0.13004c0.026417-0.071262 0.11481-0.13004 0.1961-0.13004 0.080775 0 0.26163-0.058258 0.40134-0.12952 0.1712-0.087387 0.57762-0.13836 1.2401-0.15553 0.62741-0.016125 1.0227-0.062939 1.0877-0.13004 0.05639-0.057738 0.21896-0.10819 0.3607-0.11183 0.14225-0.0036411 0.42979-0.057218 0.6396-0.1186 0.46687-0.13732 1.5429-0.16697 1.6607-0.046294m-56.527 3.7644c0 0.16437-0.035561 0.32042-0.078235 0.34799-0.043182 0.027048-0.10313 0.16593-0.13361 0.30845-0.03099 0.14252-0.090937 0.25904-0.13361 0.25904-0.043182 0-0.078235 0.076984-0.078235 0.17061 0 0.094149-0.071631 0.31834-0.15901 0.49883-0.087888 0.17998-0.23064 0.49207-0.31751 0.69389-0.19305 0.44682-0.4181 0.50924-0.33682 0.093109 0.029466-0.15241 0.088396-0.29909 0.13056-0.32614 0.042166-0.026528 0.10516-0.16489 0.14022-0.30689 0.034545-0.142 0.1138-0.31002 0.17578-0.37347s0.11278-0.18622 0.11278-0.27204c0-0.086346 0.057407-0.20546 0.12701-0.26476 0.070107-0.059298 0.12701-0.20182 0.12701-0.31678 0-0.11444 0.057406-0.23095 0.12701-0.25852 0.072647-0.028609 0.12701-0.15761 0.12701-0.30065 0-0.13784 0.038101-0.25072 0.08484-0.25072 0.046738 0 0.084839 0.1342 0.084839 0.29805m106.33-0.045774c0.01524 0.10715-0.027434 0.2606-0.094493 0.33966-0.067567 0.079584-0.14733 0.25228-0.17781 0.38336s-0.092968 0.23823-0.13869 0.23823c-0.045215 0-0.082808 0.087907-0.083316 0.19506-5.08e-4 0.10715-0.076204 0.3121-0.16866 0.45514s-0.16866 0.32354-0.16917 0.40104c0 0.077504-0.057407 0.18986-0.12751 0.24916-0.069599 0.059298-0.12701 0.18102-0.12701 0.27048 0 0.089988-0.056898 0.16281-0.12701 0.16281-0.1646 0-0.17324-0.50716-0.009144-0.57166 0.064519-0.025488 0.14022-0.16281 0.16816-0.30585 0.027941-0.14252 0.10821-0.31834 0.17882-0.39064 0.070107-0.072302 0.12802-0.22731 0.12802-0.34435 0-0.11756 0.057407-0.23563 0.12701-0.2632 0.072647-0.028609 0.12701-0.15761 0.12701-0.30065 0-0.16541 0.043182-0.25072 0.12701-0.25072 0.085348 0 0.127-0.087907 0.127-0.26736 0-0.31106 0.19508-0.31158 0.23979-5.202e-4m-155.49 2.9477c0.065535 0.10871-0.097541 0.52744-0.20524 0.52744-0.095508 0-0.1204-0.45618-0.030481-0.54877 0.079252-0.081145 0.17933-0.071782 0.23572 0.021326m-0.63046 1.4762c0 0.18934-0.1326 0.31002-0.20626 0.18778-0.061979-0.10247 0.03099-0.35631 0.13056-0.35631 0.041658 0 0.075696 0.075943 0.075696 0.16853m-0.25706 0.50351c-0.001524 0.13108-0.058423 0.31418-0.12701 0.40676-0.068075 0.092588-0.12396 0.22471-0.12396 0.29337 0 0.11131-0.37289 0.53524-0.47043 0.53524-0.10211 0-0.020829-0.44526 0.089413-0.48895 0.069599-0.027048 0.127-0.14408 0.127-0.26008 0-0.11548 0.053343-0.23095 0.11939-0.25696 0.065535-0.026008 0.14225-0.14148 0.1707-0.25748 0.070107-0.28609 0.21845-0.26684 0.21489 0.028089m97.778 0.35215c0.020321 0.061899-0.05385 0.10299-0.18492 0.10299-0.22709 0-0.2977-0.1264-0.11278-0.20234 0.14631-0.059818 0.25808-0.022367 0.2977 0.09935m-0.53088 0.19506c0.11735 0.0052016 0.083316 0.039532-0.10973 0.11131-0.15393 0.057218-0.30634 0.14304-0.33885 0.19038-0.24944 0.36567-2.4751 0.61639-2.471 0.27829 0.003562-0.28089 0.16054-0.34122 1.0663-0.40781 0.50701-0.037452 1.0176-0.11079 1.1339-0.16281 0.11634-0.052016 0.28754-0.076984 0.38102-0.055657 0.092968 0.021326 0.24538 0.042133 0.33834 0.046294m-0.50802 1.3815c0 0.10871-0.20067 0.1342-1.2066 0.15449-1.0191 0.020286-1.2066 0.044734-1.2066 0.15709 0 0.092588-0.066043 0.12536-0.21439 0.10611-0.28195-0.035891-0.30888-0.19246-0.039626-0.23095 0.11684-0.017165 0.23877-0.075423 0.2723-0.13004 0.036069-0.059298 0.42979-0.1212 0.97337-0.15189 1.2513-0.071782 1.4214-0.060339 1.4214 0.095189m5.6634 0.037452c-0.032513 0.086867-0.15495 0.13628-0.33784 0.13628-0.19915 0-0.28754 0.040052-0.28754 0.13004 0 0.16905 0.47399 0.17633 0.56746 0.0083225 0.037085-0.0671 0.16308-0.13524 0.27941-0.15189 0.26366-0.037452 0.27738-0.19402 0.020829-0.23095-0.11481-0.016645-0.21134 0.026528-0.24233 0.10819m-1.4159 0.4541c-0.1204 0.12328-0.045722 0.20234 0.19102 0.20234 0.35765 0 0.56086-0.089988 0.41607-0.18414-0.13513-0.087907-0.52733-0.099871-0.60709-0.018206m-0.67008 0.26216c-0.081284 0.021326-0.14834 0.075423-0.14834 0.11964s-0.1143 0.080625-0.25401 0.080625c-0.16409 0-0.25401 0.043693-0.25401 0.12432 0 0.069701-0.098556 0.13628-0.22607 0.15137-0.12447 0.015085-0.24182 0.076464-0.26112 0.13576-0.05131 0.16073 0.45773 0.1394 0.51818-0.021327 0.026417-0.071782 0.14631-0.13004 0.2657-0.13004 0.11939 0 0.23877-0.058778 0.2657-0.13004 0.027434-0.074383 0.15393-0.13004 0.29364-0.13004 0.16104 0 0.24487-0.044734 0.24487-0.13004 0-0.12744-0.14631-0.15033-0.44452-0.070222m-7.3028 0.11339c-0.028957 0.047855-0.10719 0.086867-0.17425 0.086867s-0.12193-0.039012-0.12193-0.086867 0.078236-0.086867 0.17425-0.086867c0.096017 0 0.15088 0.039012 0.12193 0.086867m-1.2279 0.17633c0 0.10351-0.23877 0.21483-0.30837 0.14356-0.074171-0.075943 0.051818-0.23303 0.18644-0.23303 0.067059 0 0.12192 0.040052 0.12192 0.089468m-0.42318 0.30065c0 0.14096-0.29821 0.1805-0.37695 0.049935-0.041658-0.069181 0.075188-0.13212 0.31345-0.17009 0.035053-0.0057218 0.063503 0.048375 0.063503 0.12016m2.7728 0.20026c-0.17425 0.014564-0.31752 0.06346-0.31752 0.10819 0 0.10403 1.1598 0.10767 1.2223 0.0036411 0.054358-0.089467-0.44249-0.15137-0.90479-0.11183m4.403-0.009883c-0.24385 0.06398-0.16765 0.19974 0.11278 0.19974 0.16409 0 0.24893-0.038492 0.22759-0.10299-0.039626-0.12224-0.13818-0.15033-0.34038-0.09675m-5.8468 0.34174c-0.079251 0.080625 0.016257 0.20442 0.158 0.20442 0.067059 0 0.12192-0.058258 0.12192-0.13004 0-0.13056-0.17882-0.17789-0.27992-0.074383m5.1061 0.03121c0 0.047855 0.095001 0.086867 0.21134 0.086867 0.11684 0 0.21185-0.039012 0.21185-0.086867s-0.095001-0.086867-0.21185-0.086867c-0.11634 0-0.21134 0.039012-0.21134 0.086867m-1.6795 0.50924c-0.089921 0.058778-0.084332 0.084786 0.027941 0.129 0.25757 0.10091 0.5507 0.061379 0.5507-0.074903 0-0.14304-0.38559-0.17946-0.57864-0.054097"/>
</g>
</g>
</g>
</svg>
