<svg xmlns="http://www.w3.org/2000/svg" xmlns:xlink="http://www.w3.org/1999/xlink" width="165" height="26" viewBox="0 0 165 26">
    <defs>
        <path id="a" d="M0 .268h28.707v15.63H0z"/>
    </defs>
    <g fill="none" fill-rule="evenodd">
        <g transform="translate(0 .139)">
            <mask id="b" fill="#fff">
                <use xlink:href="#a"/>
            </mask>
            <path fill="#FFF" d="M10.425 3.74H4.018c.574 1.062.99 2.041 1.59 2.891.764 1.082.983 2.033.019 3.115-.405.454-.627 1.07-1.036 1.796-.66-1.125-1.23-2.09-1.794-3.06-.807-1.386-1.6-2.78-2.416-4.16C-.666 2.553.561.315 2.638.296 6.498.261 10.356.27 14.215.268 17.972.266 21.73.29 25.487.269c1.928-.01 2.584 1.088 3.08 2.263.345.82.05 1.176-.86 1.174-4.096-.008-8.192-.007-12.287-.05-.746-.008-1.128.264-1.495.91-2.119 3.726-4.294 7.42-6.454 11.124-.03.051-.107.075-.309.208-.577-1.002-1.173-1.985-1.701-3.005-.085-.163.098-.508.226-.73 1.518-2.649 3.05-5.29 4.575-7.935.063-.11.083-.244.163-.488" mask="url(#b)"/>
        </g>
        <path fill="#FFF" d="M9.92 13.981c.797 1.46 1.45 2.688 2.136 3.898.684 1.207 1.4 2.396 2.198 3.755.588-.978 1.101-1.818 1.598-2.666 2.298-3.93 4.734-7.786 6.822-11.823.958-1.852 2.118-2.452 4.007-2.158.26.041.534.006 1.074.006-.475.902-.838 1.657-1.258 2.379-3.263 5.612-6.526 11.224-9.818 16.82-.544.924-1.282 1.594-2.525 1.537-1.142-.052-1.775-.704-2.287-1.565-1.133-1.902-2.223-3.829-3.36-5.728-.393-.658-.516-1.247-.055-1.935.482-.72.878-1.497 1.467-2.52M154.626 18.3c1.782-.11 3.502-.11 5.19-.346 2.09-.292 3.333-1.906 3.485-4.217.137-2.074-1.065-3.949-2.909-4.595-1.87-.656-3.783-.422-5.766-.42v9.577zm-1.662-4.787c0-1.723.029-3.448-.013-5.17-.018-.758.159-1.112 1.009-1.078 1.553.06 3.116-.074 4.664.037 3.538.254 5.781 1.96 6.29 5.625.403 2.893-1.507 6.347-5.289 6.669-2.015.172-4.053.06-6.081.088-.586.008-.624-.34-.62-.797.014-1.79.005-3.582.005-5.374h.035zM95.813 19.526c0-1.66-.043-3.343.02-5.022.029-.796-.267-.98-.992-.968-1.793.028-3.589.01-5.382-.027-.723-.014-1.021.205-.993.993.06 1.68.018 3.362.018 5.101h-1.591c0-1.479-.011-2.921.002-4.363.022-2.3.063-4.602.09-6.903.006-.524-.043-1.04.742-1.035.83.004.677.587.686 1.07.02 1.014.04 2.03.017 3.045-.013.594.196.877.814.873 1.963-.011 3.927-.008 5.89.005.52.003.72-.208.707-.73-.025-1.116.01-2.234-.014-3.35-.011-.566.141-.888.78-.92.707-.036.746.375.754.9.047 3.348.104 6.697.161 10.046.026 1.515-.082 1.605-1.709 1.285M80.212 9.84c-.883 1.056-.918 1.089-1.723.201-1.99-2.196-5.42-2.067-7.244.062-1.8 2.1-1.647 5.92.908 7.623 2.262 1.507 5.027.98 6.724-1.26.442-.584.733-.69 1.266-.3.577.422.332.884.014 1.31-1.643 2.205-4.298 2.97-6.674 2.417-3.4-.792-5.324-3.484-5.027-6.937.338-3.925 3.648-6.4 7.38-5.81 2.127.337 3.056.99 4.376 2.695M134.063 19.558c1.94-3.899 3.8-7.673 5.71-11.424.181-.355.667-.759 1.016-.763.326-.004.782.43.967.782 1.843 3.517 3.643 7.058 5.448 10.595.118.23.172.493.257.747-1.352.316-1.556.207-2.159-1.017-1.39-2.825-2.788-5.646-4.187-8.466-.059-.118-.163-.213-.363-.47-.357.668-.686 1.253-.987 1.852-1.268 2.52-2.553 5.032-3.777 7.572-.433.9-1.097.7-1.925.592M37.184 8.685c-.308-1.106.085-1.4 1.04-1.388 3.248.04 6.498.043 9.746-.004.99-.014 1.288.34 1.014 1.354h-5.072v1.28c0 2.91-.008 5.82.007 8.728.003.611-.045 1.035-.851 1.017-.838-.019-.784-.49-.777-1.078.034-3.01.033-6.02.061-9.029.006-.63-.202-.912-.884-.893-1.444.042-2.89.013-4.284.013M106.359 18.193h7.966l.076 1.504h-1.46c-2.468-.006-4.936-.042-7.404 0-.794.014-.992-.312-.982-1.012.051-3.512.085-7.024.118-10.536.005-.512.145-.832.74-.85.683-.02.761.373.764.91.017 2.87.045 5.74.078 8.61.006.429.063.857.104 1.374M130.02 18.231c.033.491.058.883.09 1.384h-10.284v-7.047h1.736c1.318 0 2.637-.034 3.952.028.282.014.548.377.82.579-.267.173-.528.483-.803.497a43.695 43.695 0 0 1-3.446.015c-.629-.019-.827.214-.79.833.051.908.058 1.823.01 2.73-.04.737.184 1.01.966.993 2.23-.048 4.46-.014 6.692-.012h1.058M63.538 18.213v1.39H53.39v-7.032c2.044 0 4.027-.015 6.01.028.16.003.448.414.425.605-.023.184-.366.46-.578.468-1.148.047-2.3.061-3.447.01-.729-.031-1.06.159-1.003.953.066.908.059 1.825.021 2.736-.027.675.233.864.89.855 2.565-.033 5.13-.013 7.829-.013M129.415 8.68c-2.91 0-5.774.002-8.64-.002-.265 0-.53-.03-.878-.05V7.291h2.4c2.06.002 4.12.044 6.177-.01 1.01-.026 1.273.353.94 1.398M62.906 8.68c-3.014 0-5.982 0-8.95-.003-.162 0-.324-.036-.47-.054-.247-1.288-.229-1.316.994-1.318 2.497-.003 4.995-.004 7.492 0 1.12.001 1.167.067.934 1.375"/>
    </g>
</svg>
