<?xml version="1.0" encoding="UTF-8"?>
<svg width="127px" height="30px" viewBox="0 0 127 30" version="1.1" xmlns="http://www.w3.org/2000/svg" xmlns:xlink="http://www.w3.org/1999/xlink">
    <!-- Generator: Sketch 57.1 (83088) - https://sketch.com -->
    <title>techfam-logo</title>
    <desc>Created with Sketch.</desc>
    <g id="Page-1" stroke="none" stroke-width="1" fill="none" fill-rule="evenodd">
        <g id="influencer-comptv-copy" transform="translate(-565.000000, -234.000000)" fill="#FFFFFF">
            <path d="M618.96202,234.113498 C618.905513,234.176462 618.858958,234.303811 618.858958,234.3963 C618.858958,234.489144 618.803517,234.730326 618.735638,234.932023 C618.667759,235.133719 618.569672,235.662327 618.517786,236.106629 C618.465899,236.55093 618.385226,237.023689 618.338315,237.157442 C618.291404,237.291195 618.217483,237.73763 618.174481,238.14956 C618.131124,238.561491 618.055426,238.996899 618.006383,239.117134 C617.956984,239.237013 617.875245,239.672422 617.824424,240.084352 C617.773604,240.496282 617.690088,240.987539 617.639267,241.176429 C617.588447,241.36532 617.505997,241.872228 617.456598,242.303012 C617.407199,242.733796 617.327593,243.183077 617.279615,243.301534 C617.231993,243.41999 617.158073,243.825517 617.115426,244.203298 C617.073135,244.580723 616.986065,245.086209 616.922451,245.326679 C616.858481,245.566794 616.773543,246.086509 616.73374,246.481009 C616.693581,246.875864 616.620727,247.277834 616.571683,247.374236 C616.52264,247.470637 616.441611,247.891816 616.391146,248.31015 C616.340681,248.728839 616.245793,249.295865 616.179691,249.570485 C616.113944,249.84475 616.030783,250.355572 615.995245,250.70525 C615.959706,251.054928 615.890405,251.448005 615.841362,251.578912 C615.791963,251.709819 615.704182,252.195028 615.645543,252.657472 C615.58726,253.119559 615.50481,253.596943 615.462163,253.718245 C615.419517,253.839548 615.349505,254.276023 615.306148,254.687597 C615.263146,255.099528 615.187093,255.534936 615.137339,255.655171 C615.08794,255.775406 615.00549,256.210459 614.95467,256.622389 C614.903849,257.034319 614.808961,257.581781 614.743925,257.839326 C614.678889,258.096871 614.59715,258.589195 614.562322,258.933182 C614.527494,259.277524 614.457482,259.676293 614.407017,259.819294 C614.356552,259.962296 614.283698,260.36889 614.244961,260.722482 C614.206223,261.076073 614.121641,261.576223 614.057671,261.833413 C613.847993,262.673636 613.785089,263.389 613.909119,263.52631 C614.051274,263.683541 618.581755,263.708798 618.950648,263.554413 C619.187336,263.455521 619.184848,263.463347 619.295729,262.457711 C619.331978,262.131511 619.402345,261.738434 619.452455,261.583693 C619.502209,261.429308 619.584304,260.951925 619.634413,260.52292 C619.684523,260.093915 619.770171,259.616531 619.824901,259.462146 C619.879631,259.307405 619.949997,258.913973 619.981272,258.587417 C620.01219,258.260861 620.093219,257.755375 620.161098,257.464035 C620.228977,257.172696 620.316047,256.681795 620.354784,256.372669 C620.393877,256.0639 620.466376,255.685408 620.51613,255.531734 C620.565884,255.378061 620.649045,254.886448 620.700576,254.439657 C620.751752,253.99251 620.847351,253.444337 620.912742,253.221297 C620.978134,252.997901 621.049567,252.604824 621.071601,252.347635 C621.093635,252.090089 621.166134,251.663574 621.232591,251.399982 C621.299049,251.136389 621.38292,250.633749 621.418814,250.283004 C621.454708,249.932614 621.536092,249.488313 621.599707,249.295865 C621.663321,249.103773 621.7312,248.791802 621.750746,248.602912 C621.791616,248.205566 622.306217,247.641741 622.849249,247.399492 C623.003488,247.330837 623.196818,247.222341 623.278557,247.158666 C623.507427,246.980447 624.712191,246.989341 625.006807,247.171472 C625.698747,247.599766 625.896342,248.202009 625.81638,249.640919 C625.76165,250.626634 625.615231,251.814046 625.528516,251.976257 C625.491556,252.045268 625.419768,252.497039 625.369303,252.980115 C625.318482,253.46319 625.238165,253.951957 625.190187,254.066145 C625.142565,254.180333 625.071132,254.605781 625.031329,255.011308 C624.991526,255.416835 624.903034,255.987419 624.8348,256.279114 C624.766565,256.570809 624.686248,257.062421 624.65604,257.371191 C624.625832,257.680317 624.543026,258.171574 624.47266,258.463624 C624.401938,258.755319 624.314868,259.274679 624.279329,259.617954 C624.243435,259.961229 624.16134,260.452842 624.096304,260.710031 C624.031268,260.967576 623.946686,261.473063 623.90866,261.833413 C623.870633,262.193763 623.789249,262.685375 623.727412,262.92549 C623.531593,263.688877 623.392992,263.65366 626.49446,263.630182 L628.861341,263.61204 L628.934906,263.456233 C629.020555,263.274812 629.190074,262.444549 629.278921,261.771161 C629.313039,261.513615 629.398687,261.008129 629.469764,260.647779 C629.540487,260.287429 629.624713,259.753841 629.656698,259.462146 C629.688683,259.170095 629.781795,258.622634 629.863534,258.244853 C629.945273,257.867428 630.030566,257.348069 630.052955,257.090524 C630.074989,256.832978 630.157439,256.341721 630.235625,255.998446 C630.31381,255.655171 630.395194,255.155377 630.416162,254.887515 C630.437485,254.619654 630.51105,254.179266 630.580351,253.908914 C630.649296,253.638207 630.734944,253.133077 630.770483,252.786244 C630.806022,252.439412 630.890604,251.938906 630.958483,251.674246 C631.216494,250.666831 631.278332,247.235858 631.052305,246.445081 C630.820593,245.632603 630.642188,245.114667 630.505719,244.857477 C630.140025,244.166658 629.2775,243.205844 628.875201,243.040431 C628.767163,242.995965 628.588759,242.898852 628.478233,242.82415 C628.368063,242.749803 628.171534,242.669765 628.041817,242.645932 C627.912101,242.622454 627.612509,242.544905 627.375821,242.47376 C626.863352,242.319731 625.747435,242.34143 625.417991,242.511823 C625.315639,242.564826 625.11449,242.627078 624.971624,242.649845 C624.828758,242.672611 624.619079,242.754428 624.506066,242.831265 C624.392698,242.908101 624.200433,243.003791 624.078535,243.044344 C623.956637,243.084541 623.821234,243.160311 623.778232,243.212602 C623.734875,243.264538 623.599117,243.358806 623.476864,243.421413 C623.35461,243.484377 623.123964,243.66473 622.96475,243.822672 C622.805181,243.980614 622.644901,244.109742 622.608652,244.109742 C622.572047,244.109742 622.485332,244.170927 622.415321,244.246341 C622.34531,244.321399 622.285249,244.35626 622.281695,244.324245 C622.264992,244.17733 622.305862,243.881722 622.355261,243.788522 C622.385469,243.732317 622.438777,243.431374 622.47396,243.120469 C622.509499,242.809565 622.605453,242.276333 622.687903,241.935548 C622.770353,241.595118 622.856712,241.123426 622.879813,240.88758 C622.902557,240.651734 622.972569,240.30419 623.034762,240.115656 C623.096954,239.926765 623.181892,239.505586 623.223117,239.179386 C623.264697,238.853186 623.351412,238.418133 623.415737,238.212168 C623.480062,238.006203 623.561446,237.562258 623.596985,237.225385 C623.632168,236.888869 623.702179,236.515002 623.752645,236.394766 C623.802754,236.274531 623.887336,235.842324 623.940289,235.435019 C623.993597,235.027357 624.079246,234.592661 624.131132,234.468868 C624.317355,234.022433 624.186573,234.000378 621.3783,234.000011 C619.216478,233.999666 619.058685,234.007136 618.96202,234.113498 M566.009627,235.649877 C565.786799,235.74699 565.705059,235.942639 565.642511,236.527096 C565.620833,236.733061 565.548689,237.101237 565.482587,237.344909 C565.416485,237.588937 565.336167,238.052447 565.304538,238.374735 C565.272908,238.697022 565.188326,239.185433 565.116893,239.459698 C564.867055,240.418734 564.673014,240.365019 568.393922,240.365019 L571.283934,240.365019 L571.382021,240.51478 C571.501431,240.697623 571.425733,241.634604 571.228138,242.413287 C571.161325,242.67688 571.08776,243.117268 571.064304,243.391888 C571.041204,243.666508 570.970126,244.043577 570.906157,244.229977 C570.842187,244.416378 570.759026,244.879532 570.721355,245.259803 C570.683684,245.639718 570.598746,246.161212 570.532644,246.418757 C570.466542,246.676302 570.372364,247.223764 570.322966,247.635694 C570.273567,248.047624 570.191117,248.500107 570.139586,248.64133 C570.08841,248.782909 570.016977,249.184879 569.981083,249.534913 C569.945189,249.885302 569.861672,250.387587 569.795215,250.65118 C569.729113,250.914772 569.645952,251.426306 569.610413,251.788078 C569.574875,252.149496 569.503442,252.547552 569.4512,252.672412 C569.398958,252.797272 569.31402,253.262561 569.262134,253.706506 C569.210247,254.150096 569.129574,254.622855 569.082663,254.756608 C569.035752,254.890361 568.962187,255.336797 568.918829,255.748727 C568.875472,256.160657 568.799774,256.596065 568.75002,256.715945 C568.700266,256.83618 568.618171,257.270165 568.566996,257.680317 C568.516175,258.090468 568.421287,258.65287 568.356606,258.930692 C568.291926,259.208158 568.209831,259.722181 568.173937,260.073282 C568.137687,260.424028 568.069098,260.80501 568.021476,260.919554 C567.973498,261.034453 567.899933,261.434288 567.857642,261.808512 C567.815351,262.182735 567.72757,262.699249 567.662179,262.956794 C567.476666,263.686743 567.347305,263.656506 570.547926,263.631249 C573.40311,263.608483 573.180282,263.673581 573.246028,262.845452 C573.269839,262.546287 573.342694,262.090958 573.40773,261.833413 C573.472766,261.576223 573.566588,261.056508 573.616698,260.679083 C573.666452,260.301303 573.740017,259.908226 573.780176,259.805065 C573.819979,259.702261 573.905272,259.190727 573.969242,258.668522 C574.033212,258.146317 574.112463,257.668933 574.144804,257.607749 C574.177144,257.546208 574.250709,257.131076 574.308282,256.684996 C574.365499,256.238561 574.453635,255.747304 574.50339,255.592919 C574.553499,255.438534 574.6228,255.045457 574.657272,254.719257 C574.6921,254.393057 574.788055,253.817137 574.870505,253.439712 C574.95331,253.061932 575.040025,252.528343 575.06348,252.253723 C575.086936,251.979103 575.157303,251.600255 575.220206,251.411365 C575.28311,251.222475 575.365915,250.75932 575.404653,250.38154 C575.443034,250.004115 575.526195,249.512502 575.589099,249.289462 C575.652002,249.066422 575.73694,248.574809 575.777454,248.197385 C575.817968,247.819604 575.901484,247.356449 575.962966,247.167559 C576.024804,246.978669 576.094815,246.585592 576.118982,246.293897 C576.143148,246.002202 576.22773,245.482487 576.306982,245.139212 C576.386233,244.795937 576.469038,244.293297 576.491072,244.021878 C576.513106,243.750459 576.583828,243.371256 576.648509,243.179164 C576.712834,242.987428 576.799193,242.507199 576.839708,242.112699 C576.880577,241.717844 576.95201,241.282435 576.998921,241.145125 C577.045477,241.007815 577.083859,240.850229 577.08457,240.794736 C577.084925,240.739243 577.143564,240.620074 577.214641,240.52972 L577.343647,240.365019 L580.416328,240.365019 L583.488654,240.365019 L583.70082,240.222729 C583.901259,240.088265 583.916896,240.050558 583.994015,239.520882 C584.039149,239.212824 584.130839,238.727614 584.198363,238.442678 C584.265531,238.157386 584.350824,237.625221 584.387429,237.259891 C584.424389,236.894205 584.503641,236.46769 584.564412,236.311526 C584.70479,235.949042 584.639399,235.722089 584.367172,235.627111 C584.050877,235.51648 566.264795,235.538891 566.009627,235.649877 M636.937524,235.689362 C636.76907,236.004535 636.623361,236.584368 636.531316,237.307202 C636.476941,237.736207 636.378854,238.269796 636.313818,238.492836 C636.248782,238.715876 636.17806,239.109308 636.156382,239.366498 C636.135058,239.624043 636.051898,240.129529 635.972291,240.489879 C635.892329,240.850229 635.807746,241.369944 635.78358,241.644564 C635.759769,241.919184 635.687981,242.312261 635.624366,242.518226 C635.560752,242.724191 635.478302,243.187702 635.440631,243.548052 C635.403315,243.908402 635.320155,244.399659 635.255474,244.640129 C635.190794,244.880244 635.107633,245.371856 635.069962,245.732206 C635.032646,246.092556 634.94913,246.556067 634.884094,246.762032 C634.819414,246.967997 634.74727,247.37139 634.723814,247.658816 C634.700359,247.946242 634.627504,248.395524 634.562113,248.657338 C634.496366,248.919152 634.402189,249.467681 634.35279,249.876409 C634.303035,250.285138 634.222363,250.748648 634.172964,250.906235 C634.123565,251.063821 634.03685,251.556145 633.980344,252.000091 C633.923482,252.444036 633.849206,252.859524 633.815444,252.922843 C633.781327,252.986518 633.701009,253.46568 633.637039,253.987885 C633.572714,254.51009 633.488132,255.021624 633.448684,255.124784 C633.409591,255.227589 633.324298,255.704973 633.259618,256.185558 C633.194937,256.666143 633.102181,257.171629 633.053493,257.308939 C633.004805,257.446249 632.945455,257.79735 632.921644,258.089045 C632.897833,258.38074 632.812895,258.900455 632.733289,259.24373 C632.653682,259.58665 632.568744,260.106365 632.544222,260.39806 C632.519701,260.689755 632.448268,261.083187 632.385009,261.271722 C632.32175,261.460612 632.228283,261.966098 632.177107,262.395103 C632.126287,262.824108 632.065871,263.236394 632.043481,263.311096 C631.947882,263.627692 632.149742,263.650459 634.882673,263.630538 C637.796851,263.608839 637.518582,263.696703 637.647588,262.760433 C637.698053,262.394747 637.769486,262.039378 637.806446,261.970367 C637.843407,261.901712 637.903112,261.568753 637.939006,261.230813 C637.975255,260.892874 638.072276,260.293477 638.154371,259.898977 C638.236821,259.504122 638.319981,258.976936 638.339528,258.727217 C638.359074,258.477853 638.429085,258.112523 638.494832,257.916163 C638.560579,257.719446 638.646938,257.249533 638.686741,256.872108 C638.726545,256.494328 638.799399,256.059275 638.848798,255.90489 C638.898197,255.75015 638.981002,255.258893 639.032889,254.812457 C639.085131,254.366377 639.169713,253.902867 639.221244,253.782276 C639.272775,253.661685 639.337456,253.337619 639.365176,253.061932 C639.457577,252.143804 639.017607,252.224198 643.96247,252.223487 L647.898387,252.222775 L647.965555,252.05096 C648.002516,251.956692 648.061155,251.718 648.095627,251.520217 C648.130455,251.322789 648.189805,251.102951 648.228187,251.03145 C648.266213,250.959949 648.338357,250.545885 648.387756,250.111188 C648.43751,249.676491 648.518894,249.177764 648.568648,249.003103 C648.719688,248.473428 648.785079,247.86905 648.713646,247.663796 L648.649321,247.47953 L644.643748,247.47953 C639.866983,247.47953 640.376609,247.602611 640.489267,246.478163 C640.530492,246.063743 640.604768,245.592762 640.654167,245.431974 C640.70321,245.271186 640.787793,244.80234 640.841812,244.39041 C640.89583,243.978479 640.991785,243.444891 641.055044,243.204776 C641.118303,242.964306 641.18867,242.543127 641.211415,242.268507 C641.256193,241.724958 641.45912,240.810032 641.595944,240.536835 L641.681948,240.365019 L646.196791,240.365019 C651.712051,240.365019 651.146274,240.493436 651.280966,239.212113 C651.31686,238.869549 651.398244,238.420268 651.461503,238.213591 C651.524407,238.006915 651.596195,237.612771 651.620361,237.338506 C651.644172,237.063886 651.70672,236.647687 651.758607,236.413975 C651.870554,235.91098 651.833238,235.702169 651.617518,235.619996 C651.519076,235.582645 648.722886,235.559878 644.23292,235.559878 L637.006824,235.559878 L636.937524,235.689362 M589.791808,242.423247 C589.561872,242.452417 589.350061,242.490835 589.321275,242.508621 C589.292133,242.526408 589.003203,242.586881 588.679089,242.643086 C588.354976,242.698935 587.977554,242.796403 587.840375,242.859723 C586.91459,243.285526 586.556004,243.463389 586.281645,243.632003 C585.857312,243.893105 584.797191,244.793802 584.528873,245.121781 C584.408752,245.268696 584.234612,245.477863 584.142567,245.586359 C583.906234,245.864536 583.709705,246.151607 583.276132,246.852031 C583.070007,247.18499 582.660601,248.038731 582.571398,248.322244 C582.528041,248.459554 582.443814,248.670144 582.383754,248.790379 C582.323693,248.910259 582.240177,249.177053 582.197886,249.383018 C582.15595,249.588983 582.080608,249.836924 582.031209,249.933681 C581.981455,250.030438 581.89936,250.353437 581.848895,250.65118 C581.798075,250.949278 581.713493,251.304647 581.660185,251.441602 C581.607232,251.5782 581.523716,252.111789 581.475028,252.627235 C581.42634,253.142681 581.357394,253.704728 581.322211,253.876543 C581.090498,255.003482 581.10578,256.829421 581.356328,257.989442 C581.441977,258.386076 581.512343,258.774528 581.512343,258.852432 C581.512699,258.930336 581.557833,259.078318 581.612563,259.181123 C581.667648,259.284283 581.765735,259.520841 581.831126,259.707241 C581.896162,259.893641 581.988207,260.090357 582.035119,260.144072 C582.082385,260.198142 582.141735,260.31233 582.166967,260.39806 C582.323693,260.928447 583.866786,262.665455 584.366461,262.874621 C584.483739,262.923711 584.636911,263.016911 584.706567,263.082009 C584.776223,263.147107 584.919799,263.219319 585.02535,263.242441 C585.130544,263.265564 585.288336,263.337064 585.375406,263.401451 C585.462476,263.465481 585.673932,263.557614 585.845229,263.605993 C586.016881,263.654372 586.270628,263.7369 586.409584,263.788836 C587.212405,264.090135 590.166742,264.062745 591.207316,263.74437 C591.481676,263.660419 591.808632,263.574333 591.933729,263.553346 C592.058825,263.532358 592.195649,263.473663 592.23794,263.422439 C592.280232,263.37157 592.463256,263.286907 592.645215,263.233904 C592.826818,263.180901 593.040406,263.086989 593.120012,263.024737 C593.199619,262.962485 593.335022,262.890629 593.42067,262.864661 C593.506319,262.838693 593.632837,262.768259 593.701426,262.707786 C593.770016,262.647313 593.892625,262.563361 593.974009,262.521386 C594.559332,262.218663 595.407642,261.380574 595.498266,261.014888 C595.544111,260.830266 595.312043,260.341855 594.449517,258.806544 C594.333661,258.600579 594.17729,258.298923 594.101948,258.135645 C593.944867,257.795216 593.616133,257.713399 593.393661,257.959917 C593.3336,258.026082 593.130674,258.173352 592.942674,258.28754 C592.754319,258.401372 592.498084,258.561449 592.372988,258.64291 C592.247536,258.724371 592.032882,258.830733 591.895347,258.879112 C591.758167,258.927846 591.580829,259.010019 591.501577,259.061955 C590.989108,259.398115 588.943498,259.551433 588.152405,259.313097 C587.598356,259.146262 587.067051,258.658206 586.773146,258.046358 C586.498786,257.475774 586.380087,255.745881 586.582303,255.26494 L586.680745,255.030873 L591.732579,255.030873 L596.784769,255.030873 L596.872905,254.890717 C596.921238,254.813524 596.979521,254.539616 597.002622,254.28207 C597.025722,254.024525 597.099287,253.584137 597.1661,253.303114 C597.430153,252.194317 597.453609,248.515759 597.200573,247.809644 C597.148686,247.665219 597.072988,247.370323 597.032474,247.154397 C596.813911,245.997222 595.79075,244.322466 594.943151,243.735163 C594.299899,243.289439 593.926387,243.056083 593.794893,243.017665 C593.70889,242.992408 593.554651,242.921263 593.451944,242.859011 C593.348882,242.796759 593.01233,242.70178 592.703854,242.648066 C592.395022,242.594351 592.044254,242.52036 591.924489,242.483721 C591.632715,242.394434 590.313161,242.357082 589.791808,242.423247 M606.950275,242.423959 C606.185837,242.520716 605.099772,242.754072 604.924211,242.859367 C604.821148,242.920907 604.624619,242.990985 604.487439,243.015175 C604.242222,243.058217 603.660808,243.349201 603.439046,243.53987 C603.376853,243.593584 603.232566,243.69461 603.118842,243.764333 C602.354759,244.233179 601.609866,244.953168 601.157102,245.659994 C600.988649,245.922875 600.799583,246.192871 600.736324,246.260103 C600.67342,246.327335 600.565738,246.486345 600.497148,246.61405 C600.226342,247.117758 599.853185,247.893595 599.810894,248.041221 C599.786017,248.127307 599.713873,248.283826 599.650259,248.389121 C599.586289,248.494771 599.502062,248.733463 599.462614,248.919508 C599.423166,249.105908 599.339295,249.360251 599.276036,249.485111 C599.213132,249.609971 599.131749,249.898464 599.095499,250.126129 C599.058894,250.353793 598.97751,250.672879 598.913896,250.835445 C598.850637,250.997656 598.77956,251.35516 598.756459,251.629781 C598.713813,252.136334 598.633495,252.63435 598.529722,253.038809 C598.319333,253.85769 598.342077,257.626958 598.562062,258.401017 C598.615726,258.589907 598.690002,258.926779 598.727318,259.149819 C598.764633,259.373215 598.845662,259.640009 598.907854,259.742813 C598.970047,259.845618 599.053919,260.056563 599.094788,260.210948 C599.135658,260.365333 599.23872,260.604025 599.324013,260.741335 C599.9399,261.732742 599.920354,261.70713 600.466229,262.246766 C600.620467,262.399372 600.803847,262.579369 600.873859,262.646957 C601.035915,262.803832 601.658554,263.206513 601.738872,263.206513 C601.772278,263.206513 601.899507,263.275524 602.021405,263.359475 C602.143303,263.443782 602.402381,263.554057 602.597133,263.60457 C602.791885,263.655083 603.013647,263.730141 603.090411,263.77105 C603.954003,264.233849 608.204083,263.937885 608.541345,263.391846 C608.558759,263.363388 608.67817,263.306828 608.806109,263.265564 C608.934404,263.224655 609.099304,263.136435 609.172514,263.069203 C609.246079,263.002327 609.388945,262.900589 609.49023,262.842962 C609.980665,262.564073 610.128506,262.447039 610.685043,261.897799 C611.014132,261.572666 611.325807,261.24611 611.376983,261.172474 C611.846095,260.49873 612.062881,260.151186 612.062881,260.072927 C612.062881,260.021702 612.146752,259.85629 612.248749,259.705462 C612.3511,259.554279 612.435327,259.394914 612.436038,259.350804 C612.436393,259.306694 612.504983,259.136301 612.588144,258.972312 C612.670949,258.808322 612.770813,258.49315 612.80955,258.272244 C612.848288,258.051338 612.92363,257.75324 612.977293,257.609527 C613.030601,257.46617 613.078223,257.143171 613.082843,256.892029 L613.091728,256.435277 L610.712053,256.418914 C608.016083,256.400416 608.190223,256.366978 608.075077,256.922621 C607.989073,257.337041 607.678109,258.109677 607.512143,258.320978 C607.443198,258.408487 607.386691,258.517695 607.386691,258.563227 C607.386691,258.82433 606.572854,259.349737 605.89051,259.529022 C605.581322,259.610128 605.038646,259.532224 604.714532,259.359341 C604.562426,259.278592 604.406056,259.212427 604.366963,259.212427 C604.244354,259.212427 603.850585,258.68702 603.804029,258.460778 C603.779152,258.342322 603.715182,258.11857 603.661874,257.964186 C603.539621,257.612729 603.521141,255.944376 603.634865,255.552011 C603.67609,255.409365 603.751787,254.755541 603.802963,254.098872 C603.890033,252.985451 603.986343,252.130286 604.049602,251.910448 C604.064528,251.859224 604.10753,251.471838 604.145201,251.049592 C604.187848,250.573987 604.272075,250.105141 604.366252,249.815224 C604.450124,249.558391 604.519069,249.313651 604.51978,249.272032 C604.525821,248.828442 605.357073,247.683005 605.979712,247.260048 C606.799591,246.703337 608.494434,246.93776 608.871856,247.660595 C608.936536,247.784032 609.04102,247.983238 609.103924,248.103117 C609.198457,248.281692 609.22369,248.507577 609.246079,249.368789 C609.271312,250.345611 609.282329,250.423159 609.403871,250.508534 C609.578366,250.630903 614.111335,250.646555 614.232522,250.525253 C614.402753,250.35486 614.265929,247.893595 614.054473,247.328703 C613.979842,247.128074 613.882465,246.820371 613.838397,246.644643 C613.736401,246.23876 613.483721,245.640429 613.352938,245.495649 C613.297497,245.434464 613.20794,245.277945 613.153565,245.147749 C613.056189,244.914749 611.647433,243.423192 611.524824,243.423192 C611.491062,243.423192 611.36952,243.35347 611.254374,243.268451 C611.139584,243.183789 610.944476,243.08383 610.821512,243.04719 C610.698548,243.010195 610.457595,242.913081 610.285943,242.830909 C610.114646,242.748736 609.735803,242.635615 609.444385,242.579055 C609.152968,242.52285 608.787984,242.452417 608.633746,242.423247 C608.3075,242.360995 607.444619,242.361351 606.950275,242.423959 M657.67119,242.428939 C657.499538,242.455974 657.162986,242.521428 656.922744,242.574075 C656.682857,242.626722 656.401035,242.670832 656.296906,242.671899 C656.192778,242.673322 655.998736,242.729883 655.865466,242.797826 C655.732551,242.865414 655.478449,242.963239 655.30111,243.014819 C655.123772,243.066755 654.910895,243.161378 654.828445,243.225408 C654.745995,243.289439 654.605972,243.359517 654.517125,243.380861 C654.428634,243.40256 654.254849,243.49825 654.130819,243.593229 C654.007144,243.688563 653.745224,243.878876 653.54905,244.015831 C652.000626,245.100082 650.862675,247.07507 650.845972,248.707851 C650.841707,249.116579 650.785911,249.108398 653.432838,249.088833 L655.821753,249.071047 L655.983455,248.919152 C656.081542,248.826663 656.19491,248.59971 656.271319,248.342165 C656.553852,247.392733 657.205988,246.752783 657.96012,246.684128 C659.395175,246.553933 659.733149,247.071869 659.5782,249.164602 C659.442086,251.006194 659.530223,250.911215 657.957988,250.914061 C656.585481,250.916551 655.5115,251.004771 655.051628,251.153108 C654.845504,251.219629 654.508596,251.29362 654.303537,251.318165 C654.098123,251.342354 653.864278,251.403895 653.783605,251.454764 C653.702932,251.505632 653.48046,251.600967 653.289261,251.667132 C653.097707,251.732941 652.897269,251.825074 652.84325,251.87203 C652.789586,251.918985 652.647431,251.988708 652.52731,252.027482 C652.407189,252.066256 652.154864,252.209613 651.966153,252.346568 C651.777443,252.483522 651.510902,252.669922 651.373722,252.760988 C651.061337,252.968376 650.248921,253.796149 650.128444,254.029505 C650.07869,254.125907 649.994819,254.221241 649.942221,254.241518 C649.889268,254.261794 649.846267,254.315864 649.846267,254.361753 C649.846267,254.407641 649.775544,254.541039 649.689185,254.658428 C649.602471,254.775817 649.502607,254.984628 649.467068,255.123006 C649.431529,255.261027 649.346236,255.452407 649.278002,255.547742 C649.209767,255.643076 649.115234,255.937973 649.068323,256.202988 C649.021057,256.468004 648.936119,256.794916 648.878902,256.929736 C648.732837,257.275857 648.764822,259.580247 648.920126,259.867673 C648.975567,259.970478 649.040958,260.181067 649.06548,260.335808 C649.090002,260.490193 649.173873,260.728885 649.252058,260.866195 C649.329888,261.003505 649.415181,261.184925 649.44148,261.268876 C649.576527,261.706063 650.730471,263.017267 651.186788,263.252402 C651.289495,263.305405 651.439824,263.400384 651.520497,263.463347 C651.60117,263.52631 651.769269,263.595677 651.894365,263.618088 C652.019462,263.640143 652.209239,263.711288 652.31621,263.775674 C652.696119,264.004761 654.546978,264.080175 655.270547,263.895909 C655.89674,263.736544 656.775969,263.242797 657.269247,262.773595 C657.938086,262.138269 658.009519,262.150364 658.068513,262.911617 C658.131062,263.718758 657.879803,263.651526 660.764839,263.630538 C663.72273,263.608483 663.548945,263.655439 663.309769,262.942565 C663.098314,262.311508 663.094049,260.113479 663.302662,259.305982 C663.373739,259.031362 663.460809,258.519117 663.496703,258.167661 C663.532242,257.816204 663.616114,257.296844 663.682571,257.013331 C663.749384,256.729462 663.837875,256.160657 663.879456,255.748727 C663.921391,255.336797 663.99318,254.883958 664.03938,254.742735 C664.085936,254.601156 664.166609,254.109543 664.219206,253.650302 C664.271804,253.191416 664.353898,252.689131 664.401165,252.534746 C664.448787,252.380361 664.52093,251.930724 664.5618,251.536225 C664.603025,251.141369 664.706087,250.495372 664.791736,250.100872 C665.001414,249.131164 664.984711,247.15831 664.762238,246.637172 C664.689029,246.465357 664.599826,246.212792 664.564288,246.075482 C664.505293,245.848529 664.301301,245.433397 663.968303,244.862102 C663.783501,244.54515 662.699569,243.497183 662.410639,243.356315 C662.272748,243.289083 662.090079,243.194816 662.004431,243.146437 C661.539584,242.884979 661.142616,242.731661 660.769459,242.669409 C660.539879,242.630635 660.143266,242.545973 659.888098,242.480875 C659.397663,242.355304 658.299871,242.329692 657.67119,242.428939 M677.591375,242.421469 C677.402664,242.449571 677.175216,242.501507 677.085303,242.537435 C676.995745,242.573008 676.762255,242.632058 676.566792,242.668342 C676.371684,242.704271 676.136418,242.786443 676.044372,242.850829 C675.952327,242.915216 675.795246,242.987784 675.695026,243.011973 C675.595163,243.036518 675.440924,243.111932 675.352077,243.180231 C675.263586,243.248175 675.008773,243.425326 674.78559,243.573664 C674.562762,243.722001 674.24007,243.973144 674.068773,244.131797 C673.594686,244.570407 673.520765,244.487878 673.683177,243.698879 C673.898187,242.654113 674.067351,242.717788 671.222474,242.773993 L668.994549,242.818103 L668.933778,242.980314 C668.900016,243.069245 668.855593,243.268807 668.834625,243.423192 C668.814012,243.577577 668.743645,243.872473 668.67861,244.078438 C668.613574,244.284403 668.529702,244.765344 668.492031,245.147394 C668.454715,245.529087 668.382216,245.964495 668.331751,246.114611 C668.280931,246.264728 668.200969,246.738554 668.153702,247.167559 C668.106791,247.596564 668.023275,248.054383 667.968545,248.184578 C667.913815,248.314774 667.839895,248.706428 667.804001,249.055039 C667.768462,249.403294 667.685657,249.914828 667.61991,250.191226 C667.554163,250.467981 667.468159,250.987696 667.428711,251.346623 C667.389263,251.705194 667.306103,252.154476 667.243555,252.344789 C667.181006,252.535102 667.097846,253.008929 667.058753,253.397737 C667.019305,253.786545 666.947872,254.221953 666.899539,254.364954 C666.850851,254.508312 666.768757,254.991743 666.71687,255.439246 C666.664984,255.887104 666.580757,256.353105 666.529936,256.474763 C666.479116,256.596421 666.409104,256.974201 666.373921,257.314631 C666.339093,257.654704 666.242072,258.242007 666.158912,258.619432 C666.075396,258.997213 665.989036,259.528311 665.966292,259.800085 C665.943547,260.07186 665.883131,260.394858 665.8316,260.517939 C665.780424,260.640665 665.684825,261.148641 665.619433,261.646301 C665.554042,262.143961 665.457377,262.704584 665.404779,262.892408 C665.184439,263.676427 665.070715,263.643344 667.989868,263.643344 C670.800629,263.643344 670.63253,263.681051 670.700054,263.036476 C670.724576,262.803832 670.793876,262.459134 670.853937,262.270244 C670.914353,262.081709 670.998224,261.618199 671.04016,261.240774 C671.082096,260.862993 671.167744,260.357507 671.230292,260.117392 C671.292841,259.876922 671.378134,259.375705 671.419714,259.00326 C671.461294,258.630815 671.544455,258.181534 671.605226,258.004738 C671.665642,257.827943 671.733877,257.446961 671.756266,257.158111 C671.779011,256.869262 671.863948,256.349903 671.944621,256.003426 C672.02565,255.657305 672.111654,255.135456 672.136175,254.843761 C672.160697,254.552066 672.231775,254.158989 672.293967,253.970099 C672.356516,253.781209 672.440742,253.318054 672.481612,252.940274 C672.522126,252.562849 672.606708,252.071236 672.669257,251.848196 C672.731805,251.625156 672.813544,251.147772 672.85086,250.787422 C672.88782,250.426717 672.972047,249.949333 673.038149,249.726293 C673.104251,249.503253 673.176395,249.124761 673.19914,248.885714 L673.240009,248.450661 L673.716584,247.959404 C673.97886,247.689053 674.277741,247.425104 674.380448,247.372813 C674.48351,247.320521 674.630641,247.219851 674.708115,247.149061 C674.83179,247.035941 674.932365,247.019933 675.549673,247.01602 L676.250853,247.011751 L676.513129,247.222341 C676.657061,247.338307 676.85359,247.549253 676.949545,247.690476 L677.123685,247.947665 L677.119775,249.164602 C677.116221,250.212214 677.095964,250.459799 676.974777,250.94323 C676.897303,251.252356 676.808811,251.763889 676.777892,252.080485 C676.747329,252.397081 676.666656,252.874464 676.598777,253.141614 C676.531253,253.408408 676.448093,253.893618 676.414331,254.219818 C676.380924,254.545663 676.297764,255.051149 676.229529,255.3432 C676.16165,255.634895 676.086308,256.098049 676.062497,256.372669 C676.038686,256.64729 675.954104,257.152776 675.874853,257.496051 C675.795246,257.839326 675.712796,258.372914 675.691117,258.68204 C675.669439,258.99081 675.599427,259.426218 675.535457,259.649258 C675.471488,259.872298 675.385839,260.377784 675.345325,260.772639 C675.304456,261.167139 675.220229,261.658751 675.158391,261.864716 C675.096554,262.070681 675.027964,262.457711 675.006641,262.724861 C674.984962,262.992366 674.952266,263.249912 674.934142,263.297579 C674.810467,263.619511 674.990293,263.643344 677.513545,263.642277 C680.4526,263.64121 680.272063,263.709865 680.391473,262.546998 C680.426657,262.201944 680.510528,261.689344 680.578052,261.407609 C680.64522,261.125874 680.73229,260.622167 680.771738,260.287785 C680.811186,259.953759 680.881197,259.580247 680.927042,259.457521 C680.973243,259.334796 681.056759,258.843539 681.11291,258.365444 C681.168706,257.887349 681.253644,257.369768 681.301621,257.215383 C681.349243,257.060998 681.433114,256.576856 681.487844,256.140025 C681.542574,255.702838 681.627156,255.249288 681.676199,255.131899 C681.725243,255.014509 681.792056,254.641709 681.824751,254.30377 C681.857447,253.96583 681.943451,253.436866 682.016305,253.128452 C682.08916,252.820038 682.174808,252.294276 682.206438,251.96025 C682.238423,251.626223 682.302748,251.260893 682.349659,251.148128 C682.464804,250.871729 682.503897,250.636595 682.579239,249.765779 C682.62544,249.234325 682.675194,248.978914 682.756222,248.861169 C682.818415,248.770458 682.904419,248.607892 682.947776,248.499396 C682.990778,248.391255 683.243459,248.096359 683.509288,247.844149 C685.332071,246.114967 687.080578,247.059774 686.719504,249.579378 C686.671172,249.917673 686.576283,250.636595 686.509115,251.177298 C686.441947,251.718 686.353811,252.222419 686.312941,252.2989 C686.272072,252.375026 686.190332,252.86237 686.130627,253.381729 C686.071278,253.901088 685.990249,254.386654 685.950801,254.460645 C685.911353,254.53428 685.836722,254.980715 685.785191,255.452763 C685.733659,255.924455 685.650854,256.422827 685.601455,256.560137 C685.552056,256.697447 685.470673,257.197597 685.420563,257.671779 C685.370809,258.145606 685.287648,258.651092 685.235406,258.795161 C685.183519,258.938874 685.099293,259.437957 685.048117,259.904313 C684.997296,260.371025 684.914136,260.862282 684.863671,260.996746 C684.813206,261.130855 684.740351,261.563417 684.701614,261.958272 C684.662877,262.353128 684.585757,262.838693 684.529962,263.037544 C684.360442,263.641921 684.217576,263.609195 687.110075,263.629827 C689.847626,263.649391 689.811732,263.654372 689.811732,263.247422 C689.811732,263.14355 689.866106,262.860036 689.932208,262.617432 C689.99831,262.375183 690.083603,261.867918 690.12163,261.490137 C690.159656,261.112713 690.231089,260.677304 690.280843,260.52292 C690.330598,260.368535 690.413048,259.884036 690.463868,259.446494 C690.514688,259.008952 690.598915,258.503466 690.651157,258.323113 C690.703044,258.14276 690.787626,257.630159 690.838446,257.184079 C690.889267,256.738 690.970295,256.260616 691.018273,256.123306 C691.06625,255.985996 691.138038,255.550588 691.177486,255.155732 C691.21729,254.761233 691.30436,254.227644 691.370462,253.970099 C691.436919,253.712554 691.532874,253.165092 691.583694,252.753162 C691.634515,252.341232 691.717675,251.857445 691.768851,251.677803 C692.091898,250.540549 692.071286,246.503775 691.738643,245.84675 C691.675029,245.721179 691.59329,245.482487 691.556685,245.316363 C691.520435,245.150239 691.440118,244.944274 691.37828,244.858545 C691.316087,244.772815 691.231505,244.598865 691.189925,244.472582 C690.984866,243.850063 689.739233,242.843003 688.890923,242.614272 C688.625803,242.542771 688.310575,242.457397 688.190809,242.42467 C687.252941,242.168548 685.234695,242.677235 684.231436,243.422125 C684.094256,243.523862 683.878181,243.677891 683.750952,243.763977 C683.624079,243.850063 683.252699,244.18729 682.925742,244.513491 L682.331534,245.10613 L682.201818,244.873129 C681.877349,244.289739 681.723111,244.041443 681.603345,243.909113 C681.532267,243.830498 681.449107,243.720223 681.418899,243.664018 C681.354929,243.545917 680.739398,243.048613 680.656948,243.048613 C680.626384,243.048613 680.497023,242.977823 680.369439,242.891026 C680.241855,242.804229 680.006589,242.702492 679.846309,242.665141 C679.686384,242.627434 679.437613,242.556289 679.294036,242.506843 C678.975965,242.397635 678.060131,242.351746 677.591375,242.421469 M591.50371,247.198863 C591.729381,247.341153 591.860519,247.493404 592.052073,247.835967 L592.304398,248.285605 L592.316836,249.083853 C592.331052,249.965696 592.256421,251.027537 592.171128,251.16627 C592.107869,251.268719 587.888352,251.333817 587.330749,251.240973 C586.999528,251.185479 586.891134,250.918329 587.06634,250.589995 C587.107565,250.513158 587.191437,250.221107 587.252208,249.941507 C587.313335,249.661907 587.421373,249.337485 587.49245,249.220807 C587.563528,249.104129 587.621811,248.964329 587.622167,248.910259 C587.622522,248.645955 588.513834,247.536091 588.87242,247.353248 C589.001426,247.287083 589.117993,247.200997 589.131142,247.161512 C589.217501,246.901476 591.079022,246.930646 591.50371,247.198863 M658.820869,254.309105 C658.917179,254.425072 658.80772,255.246442 658.608347,255.90489 C658.530517,256.16208 658.447712,256.566184 658.424967,256.802386 C658.401867,257.038232 658.343228,257.32637 658.294895,257.44198 C658.246563,257.557947 658.173708,257.827943 658.132839,258.042445 C658.03333,258.563227 657.552846,259.212427 657.266759,259.212427 C657.237262,259.212427 657.126736,259.284995 657.021186,259.373926 C656.645897,259.690166 655.563031,259.842417 654.990146,259.659574 C654.325572,259.447561 653.944596,258.098294 654.304959,257.234592 C654.357201,257.110444 654.441428,256.827287 654.492604,256.606025 C654.544135,256.384764 654.648974,256.121527 654.725738,256.021213 C655.440422,255.087077 655.833481,254.716411 656.275228,254.560248 C656.419871,254.509379 656.573753,254.437878 656.617466,254.401594 C656.849889,254.208435 658.673739,254.131598 658.820869,254.309105" id="techfam-logo"></path>
        </g>
    </g>
</svg>