<?xml version="1.0" encoding="UTF-8"?>
<svg width="144px" height="30px" viewBox="0 0 144 30" version="1.1" xmlns="http://www.w3.org/2000/svg" xmlns:xlink="http://www.w3.org/1999/xlink">
    <!-- Generator: Sketch 56.3 (81716) - https://sketch.com -->
    <title>path0</title>
    <desc>Created with Sketch.</desc>
    <g id="Page-1" stroke="none" stroke-width="1" fill="none" fill-rule="evenodd">
        <g id="influencer-writing" transform="translate(-565.000000, -236.000000)" fill="#FBFBFB">
            <path d="M565,250.998649 L565,265.995754 L569.275759,265.995754 L573.551131,265.995754 L573.551131,250.998649 L573.551131,236.001544 L572.300776,236.001544 L571.05042,236.001544 L571.038416,249.249746 C571.02525,263.914517 571.027574,263.261814 570.981494,263.261814 C570.963294,263.261814 570.569484,262.912111 570.106361,262.484824 L569.26453,261.707834 L568.481944,262.484824 C568.051735,262.912111 567.673027,263.261814 567.6405,263.261814 C567.607973,263.261814 567.581642,257.128109 567.581642,249.631872 L567.581642,236.001544 L566.290627,236.001544 L565,236.001544 L565,250.998649 M575.568196,250.957735 L575.568196,265.915469 L576.858824,265.915469 L578.149451,265.915469 L578.149451,254.818368 L578.149451,243.721267 L579.843568,243.721267 L581.537686,243.721267 L581.537686,254.86044 L581.537686,266 L582.831024,265.977613 L584.123974,265.955612 L584.120489,254.81914 L584.117004,243.682282 L583.494731,243.058528 L582.872844,242.434775 L583.501314,241.804073 L584.13017,241.173758 L584.137527,238.607722 L584.144885,236.041687 L579.856347,236.020843 L575.568196,236 L575.568196,250.957735 M586.136005,250.998649 L586.136005,265.995754 L587.42702,265.995754 L588.717647,265.995754 L588.717647,250.998649 L588.717647,236.001544 L587.42702,236.001544 L586.136005,236.001544 L586.136005,250.998649 M590.734325,237.288036 L590.734325,238.574913 L592.227084,238.574913 L593.719457,238.574913 L593.719457,252.285527 L593.719457,265.995754 L595.010084,265.995754 L596.300711,265.995754 L596.300711,252.285527 L596.300711,238.574913 L597.793471,238.574913 L599.285843,238.574913 L599.285843,237.288036 L599.285843,236.001544 L595.010084,236.001544 L590.734325,236.001544 L590.734325,237.288036 M601.302521,250.998649 L601.302521,265.995754 L602.593148,265.995754 L603.884163,265.995754 L603.884163,250.998649 L603.884163,236.001544 L602.593148,236.001544 L601.302521,236.001544 L601.302521,250.998649 M605.90084,250.998649 L605.90084,265.995754 L607.191468,265.995754 L608.482482,265.995754 L608.482482,252.285527 L608.482482,238.574913 L610.176212,238.574913 L611.869943,238.574913 L611.890466,252.26507 L611.910989,265.955612 L613.18148,265.977999 L614.451972,266 L614.451972,251.000579 L614.451972,236.001544 L610.1766,236.001544 L605.90084,236.001544 L605.90084,250.998649 M616.469037,250.997877 L616.469037,265.995754 L620.739762,265.995754 L625.0101,265.995754 L625.058891,265.654156 C625.085609,265.466181 625.097226,259.685267 625.084061,252.808152 L625.06044,240.303745 L622.92256,240.303745 L620.785068,240.303745 L620.761834,241.167968 L620.738988,242.032577 L621.629222,242.032577 L622.519457,242.032577 L622.519457,252.727481 L622.519457,263.422771 L620.785068,263.422771 L619.050291,263.422771 L619.050291,250.999807 L619.050291,238.576843 L622.055559,238.555614 L625.06044,238.534771 L625.06044,237.288036 L625.06044,236.041687 L620.764545,236.020843 L616.469037,236 L616.469037,250.997877 M632.703911,250.978578 L632.724434,265.955612 L637.020329,265.976455 L641.315837,265.997298 L641.315837,250.999421 L641.315837,236.001544 L636.999806,236.001544 L632.683775,236.001544 L632.703911,250.978578 M643.332902,250.998649 L643.332902,265.995754 L644.583258,265.995754 C645.356163,265.995754 645.837486,265.965261 645.843681,265.915469 C645.849103,265.871081 645.863043,265.798901 645.873885,265.754513 C645.885115,265.71051 645.898668,259.576805 645.904089,252.124571 L645.914157,238.574913 L647.608274,238.574913 L649.302392,238.574913 L649.302392,252.285527 L649.302392,265.995754 L650.593406,265.995754 L651.884034,265.995754 L651.884034,250.998649 L651.884034,236.001544 L647.608274,236.001544 L643.332902,236.001544 L643.332902,250.998649 M658.095927,250.998649 L658.095927,265.997298 L662.391435,265.976455 L666.68733,265.955612 L666.68733,253.129678 L666.68733,240.303745 L664.549451,240.303745 L662.411958,240.303745 L662.388725,241.127826 C662.368202,241.870077 662.380206,241.95345 662.509927,241.965416 C662.588921,241.972749 662.944395,241.987417 663.299095,241.997838 C663.654182,242.008646 663.989908,242.020612 664.045281,242.024858 C664.125437,242.031033 664.146348,244.229224 664.146348,252.727481 L664.146348,263.422771 L662.411958,263.422771 L660.677182,263.422771 L660.677182,250.998649 L660.677182,238.574913 L663.653408,238.574913 C665.960118,238.574913 666.63854,238.55214 666.668356,238.474171 C666.689654,238.418975 666.702819,237.848874 666.697398,237.207751 L666.68733,236.041687 L662.391435,236.020843 L658.095927,236 L658.095927,250.998649 M668.683872,250.978578 L668.704395,265.955612 L669.974887,265.977999 L671.245378,266 L671.245378,264.711192 L671.245378,263.422771 L672.979767,263.422771 L674.714157,263.422771 L674.714157,264.709262 L674.714157,265.995754 L676.005171,265.995754 L677.295798,265.995754 L677.295798,250.998649 L677.295798,236.001544 L672.979767,236.001544 L668.663349,236.001544 L668.683872,250.978578 M679.312476,250.998649 L679.312476,265.995754 L680.563219,265.995754 L681.813574,265.995754 L681.813574,253.169821 C681.813574,246.115539 681.839906,240.343888 681.872433,240.343888 C681.90496,240.343888 682.304578,240.714049 682.759957,241.16681 L683.588235,241.989347 L684.435488,241.147897 L685.282353,240.306447 L685.282353,253.151294 L685.282353,265.995754 L686.57298,265.995754 L687.863995,265.995754 L687.863995,250.998649 L687.863995,236.001544 L686.594665,236.001544 L685.325335,236.001544 L684.456785,236.864609 L683.588235,237.727674 L682.719685,236.864609 L681.851135,236.001544 L680.581806,236.001544 L679.312476,236.001544 L679.312476,250.998649 M689.880672,250.998649 L689.880672,265.995754 L694.156432,265.995754 L698.431804,265.995754 L698.431804,264.709262 L698.431804,263.422771 L695.446672,263.422771 L692.461539,263.422771 L692.482063,252.723621 L692.502586,242.024858 L695.467195,242.030647 L698.431804,242.036437 L698.431804,241.149827 L698.431804,240.263603 L695.447059,240.263603 L692.462314,240.263603 L692.462314,239.419065 L692.462314,238.574913 L695.447059,238.574913 L698.431804,238.574913 L698.431804,237.288036 L698.431804,236.001544 L694.156432,236.001544 L689.880672,236.001544 L689.880672,250.998649 M700.448869,239.010306 L700.448869,242.019068 L703.453749,242.022928 L706.459017,242.026401 L706.479153,252.68425 C706.495416,261.184437 706.479153,263.3421 706.39861,263.342485 C706.342849,263.342485 704.981359,263.345573 703.373206,263.349047 L700.448869,263.355609 L700.448869,264.675682 L700.448869,265.995754 L704.724241,265.995754 L709,265.995754 L709,253.129678 L709,240.263603 L706.015255,240.263603 L703.030123,240.263603 L703.030123,239.419065 L703.030123,238.574913 L706.015255,238.574913 L709,238.574913 L709,237.288036 L709,236.001544 L704.724241,236.001544 L700.448869,236.001544 L700.448869,239.010306 M581.519874,239.881477 L581.541946,241.147897 L579.825756,241.147897 L578.109179,241.147897 L578.120796,240.846442 C578.126992,240.680468 578.136285,240.100717 578.140932,239.558406 L578.149451,238.57144 L579.823433,238.593441 L581.497414,238.615056 L581.519874,239.881477 M638.734583,250.978578 L638.734583,263.382628 L637.141144,263.366031 C636.26485,263.357153 635.4842,263.347889 635.406755,263.345959 C635.272774,263.342485 635.265417,262.697503 635.265417,250.958506 L635.265417,238.574913 L637.000194,238.574913 L638.734583,238.574913 L638.734583,250.978578 M674.714157,250.156041 L674.714157,261.737169 L672.999903,261.715554 L671.28565,261.693939 L671.265127,250.134426 L671.244991,238.574913 L672.97938,238.574913 L674.714157,238.574913 L674.714157,250.156041" id="path0"></path>
        </g>
    </g>
</svg>