<?xml version="1.0" encoding="UTF-8"?>
<svg width="20px" height="20px" viewBox="0 0 20 20" version="1.1" xmlns="http://www.w3.org/2000/svg" xmlns:xlink="http://www.w3.org/1999/xlink">
    <!-- Generator: Sketch 55.2 (78181) - https://sketchapp.com -->
    <title>account-statistics-mono</title>
    <desc>Created with Sketch.</desc>
    <g id="account-statistics-mono" stroke="none" stroke-width="1" fill="none" fill-rule="evenodd">
        <g id="Group-9" transform="translate(3.000000, 3.000000)">
            <g id="statistics_icon" transform="translate(0.000000, 0.166667)">
                <g id="website_builder_icon-copy-3" fill="#D10303" fill-rule="nonzero">
                    <g id="coding-(1)">
                        <path d="M9.58189474,13.0792077 L9.63644834,13.0792077 C9.90263938,13.0792077 10.1182612,13.2969099 10.1182612,13.5656694 C10.1182612,13.8344288 9.90263938,14.052131 9.63644834,14.052131 L4.33645224,14.052131 C4.07026121,14.052131 3.85463938,13.8344288 3.85463938,13.5656694 C3.85463938,13.2969099 4.07026121,13.0792077 4.33645224,13.0792077 L4.39103314,13.0792077 C4.33707992,13.0792077 4.31587524,13.004537 4.3611501,12.9729052 L4.79575049,12.6632836 C5.26503704,12.329084 5.48669006,11.7168669 5.34982846,11.1333333 L8.62329045,11.1333333 L8.62304483,11.1338293 C8.48645614,11.7173353 8.70832749,12.3298004 9.17761404,12.6637796 L9.61196881,12.9729328 C9.65705263,13.0047849 9.63584795,13.0792077 9.58189474,13.0792077 Z" id="Combined-Shape"></path>
                        <path d="M13.1300078,10.7251095 L0.842947368,10.7251095 C0.377508772,10.7251095 -2.84217094e-14,10.3442063 -2.84217094e-14,9.87427688 L-2.84217094e-14,0.873674731 C-2.84217094e-14,0.403745296 0.377508772,0.0228420699 0.842947368,0.0228420699 L13.1300078,0.0228420699 C13.5954464,0.0228420699 13.9727096,0.403745296 13.9727096,0.873674731 L13.9727096,9.87427688 C13.9727096,10.3442063 13.5954464,10.7251095 13.1300078,10.7251095 Z M4.15909434,2.74665887 C2.72620545,2.89039766 1.63019916,4.17864327 1.79631027,5.68502144 C1.92998952,6.89720858 2.91414675,7.88274854 4.12470021,8.01663548 C5.62904822,8.18302534 6.91563941,7.08553996 7.05915723,5.65069006 C7.0734109,5.50807018 6.96150734,5.38335283 6.81839832,5.38335283 L4.66666667,5.38335283 C4.53380503,5.38335283 4.42607128,5.27547368 4.42607128,5.14243275 L4.42607128,2.98774269 C4.42607128,2.84444055 4.30152201,2.73238596 4.15909434,2.74665887 Z M4.90726205,2.50582066 L4.90726205,4.66061988 C4.90726205,4.79366082 5.01499581,4.90153996 5.14785744,4.90153996 L7.29972537,4.90153996 C7.44220755,4.90153996 7.55465618,4.77783236 7.54053878,4.63586745 C7.41612579,3.38440936 6.4222935,2.38923587 5.17254927,2.26468226 C5.03080294,2.25054581 4.90726205,2.36317349 4.90726205,2.50582066 Z M11.9623543,3.81517349 C12.0952159,3.81517349 12.2029224,3.70734893 12.2029497,3.57425341 C12.2029497,3.44121248 12.0952159,3.33333333 11.9623543,3.33333333 L11.2405954,3.33333333 C11.1077338,3.33333333 11,3.44121248 11,3.57425341 C11,3.70729435 11.1077338,3.81517349 11.2405954,3.81517349 L11.9623543,3.81517349 Z M11.9797736,5.14850682 C12.1126352,5.14850682 12.220369,5.04068226 12.220369,4.90758674 C12.220369,4.77454581 12.1126352,4.66666667 11.9797736,4.66666667 L9.57392872,4.66666667 C9.44106709,4.66666667 9.33333333,4.77454581 9.33333333,4.90758674 C9.33333333,5.04062768 9.44106709,5.14850682 9.57392872,5.14850682 L11.9797736,5.14850682 Z M11.9797736,6.14850682 C12.1126352,6.14850682 12.220369,6.04068226 12.220369,5.90758674 C12.220369,5.77454581 12.1126352,5.66666667 11.9797736,5.66666667 L9.57392872,5.66666667 C9.44106709,5.66666667 9.33333333,5.77454581 9.33333333,5.90758674 C9.33333333,6.04062768 9.44106709,6.14850682 9.57392872,6.14850682 L11.9797736,6.14850682 Z M11.9797736,7.14850682 C12.1126352,7.14850682 12.220369,7.04068226 12.220369,6.90758674 C12.220369,6.77454581 12.1126352,6.66666667 11.9797736,6.66666667 L9.57392872,6.66666667 C9.44106709,6.66666667 9.33333333,6.77454581 9.33333333,6.90758674 C9.33333333,7.04062768 9.44106709,7.14850682 9.57392872,7.14850682 L11.9797736,7.14850682 Z M9.93479455,4.20454581 C10.2669724,4.20454581 10.5362558,3.93489904 10.5362558,3.6022729 C10.5362558,3.26964676 10.2669724,3 9.93479455,3 C9.60261669,3 9.33333333,3.26964676 9.33333333,3.6022729 C9.33333333,3.93489904 9.60261669,4.20454581 9.93479455,4.20454581 Z" id="Combined-Shape"></path>
                    </g>
                </g>
                <g id="circular-graphic" transform="translate(1.666667, 1.000000)">
                    <g id="Group-37"></g>
                </g>
            </g>
        </g>
    </g>
</svg>