<?xml version="1.0" encoding="UTF-8"?>
<svg width="20px" height="20px" viewBox="0 0 20 20" version="1.1" xmlns="http://www.w3.org/2000/svg" xmlns:xlink="http://www.w3.org/1999/xlink">
    <!-- Generator: Sketch 55.2 (78181) - https://sketchapp.com -->
    <title>account-change-password-mono</title>
    <desc>Created with Sketch.</desc>
    <g id="account-change-password-mono" stroke="none" stroke-width="1" fill="none" fill-rule="evenodd">
        <g id="change_password_icon" transform="translate(4.000000, 3.000000)" fill="#D10303">
            <g id="padlock">
                <path d="M8.99302078,3.67462924 L8.99302078,4.20649442 L7.69410273,4.20649442 L7.69410273,3.67462924 C7.69410273,3.04159708 7.44894026,2.44678433 7.00366022,1.99965435 C6.55874941,1.55178224 5.9668888,1.30576798 5.33699847,1.30576798 C4.03697276,1.30576798 2.97952498,2.36811914 2.97952498,3.67462924 L2.97952498,4.20649442 L1.68060693,4.20649442 L1.68060693,3.67462924 C1.68060693,1.64862948 3.32105403,0 5.33699847,0 C6.31395616,0 7.23220777,0.382565157 7.92228106,1.07645152 C8.61309279,1.77033789 8.99302078,2.69279859 8.99302078,3.67462924 Z" id="Shape" fill-rule="nonzero"></path>
                <path d="M7.93776427,13.3043478 L0.730434783,13.3043478 C0.327026791,13.3043478 1.8168189e-13,12.977321 1.81188398e-13,12.573913 L1.81188398e-13,5.40493537 C1.81138994e-13,5.00152738 0.327026791,4.67450059 0.730434783,4.67450059 L9.96276162,4.67450059 C10.3661696,4.67450059 10.6931964,5.00152738 10.6931964,5.40493537 L10.6931964,9 L10.1635,9 L10.0585,9.544 C10.041,9.6345 10.0045,9.7145 9.964,9.79 C9.8105,10.0735 9.517,10.248 9.2055,10.248 C9.1315,10.248 9.0565,10.235 8.983,10.215 C8.893,10.1905 8.805,10.154 8.7215,10.0975 L8.267,9.79 L8.2635,9.7875 L8.261,9.79 L7.8435,10.2075 L7.692,10.3585 L7.767,10.461 L7.956,10.7185 C8.3325,11.232 8.046,11.962 7.4215,12.0825 L7.11,12.1425 L7,12.1635 L7,12.3675 L7,12.971 L7.4425,13.0395 C7.582,13.061 7.703,13.1165 7.8075,13.191 C7.85518143,13.2246698 7.89870803,13.2627131 7.93776427,13.3043478 Z M5.85021509,9.21524208 C6.11273093,9.04529558 6.28663383,8.74918792 6.28663383,8.41226342 C6.28663383,7.88498399 5.86129171,7.4575203 5.33699847,7.4575203 C4.812336,7.4575203 4.38699388,7.88498399 4.38699388,8.41226342 C4.38699388,8.74918792 4.56089678,9.04529558 4.82341262,9.21524208 L4.3334569,10.5232364 L6.34054004,10.5232364 L5.85021509,9.21524208 Z" id="Combined-Shape"></path>
                <g id="Group-41" transform="translate(8.000000, 10.000000)">
                    <path d="M2.5,3 C2.47966026,3 2.46021457,2.99620112 2.44054537,2.99418994 C2.25927582,2.9722905 2.10706303,2.85564246 2.03889137,2.69340782 C2.01385785,2.63396648 2,2.56849162 2,2.50011173 C2,2.22391061 2.22396066,2 2.5,2 C2.5688422,2 2.63433169,2.01407821 2.69378632,2.03910615 C2.85650425,2.1077095 2.97295485,2.2603352 2.99418865,2.44223464 C2.9966473,2.46145251 3,2.48022346 3,2.50011173 C3,2.77608939 2.77603934,3 2.5,3 L2.5,3 Z M4.69892857,2.20178571 C4.25285714,2.11571429 4.04821429,1.59428571 4.31714286,1.2275 L4.50571429,0.970357143 L4.37464286,0.839285714 L4.09964286,0.564285714 L4.09785714,0.5625 L4.095,0.564285714 L3.84428571,0.733928571 C3.73571429,0.807857143 3.61571429,0.841071429 3.49857143,0.841071429 C3.49571429,0.841071429 3.49285714,0.840357143 3.49,0.840357143 C3.28821429,0.837857143 3.09714286,0.734642857 2.98357143,0.564285714 C2.93535714,0.4925 2.89964286,0.409642857 2.88535714,0.316071429 L2.83678571,0 L2.25964286,0 L2.18464286,0.388571429 C2.17214286,0.453214286 2.14607143,0.510357143 2.11714286,0.564285714 C2.0075,0.766785714 1.79785714,0.891428571 1.57535714,0.891428571 C1.5225,0.891428571 1.46892857,0.882142857 1.41642857,0.867857143 C1.35214286,0.850357143 1.28928571,0.824285714 1.22964286,0.783928571 L0.905,0.564285714 L0.9025,0.5625 L0.900714286,0.564285714 L0.6025,0.8625 L0.494285714,0.970357143 L0.547857143,1.04357143 L0.682857143,1.2275 C0.951785714,1.59428571 0.747142857,2.11571429 0.301071429,2.20178571 L0.0785714286,2.24464286 L0,2.25964286 L0,2.40535714 L0,2.83642857 L0.316071429,2.88535714 C0.415714286,2.90071429 0.502142857,2.94035714 0.576785714,2.99357143 C0.739642857,3.10857143 0.834642857,3.295 0.837142857,3.49178571 C0.838571429,3.61142857 0.809285714,3.73357143 0.734285714,3.84392857 L0.562142857,4.0975 L0.838214286,4.37357143 L0.970357143,4.50571429 L1.22785714,4.31678571 C1.34035714,4.23428571 1.4675,4.19642857 1.59178571,4.19642857 C1.87321429,4.19642857 2.14214286,4.39 2.20178571,4.69892857 L2.25964286,5 L2.83678571,5 L2.87071429,4.77821429 C2.92035714,4.45678571 3.19535714,4.25214286 3.48464286,4.25214286 C3.60928571,4.25214286 3.73607143,4.29035714 3.84892857,4.37285714 L4.02964286,4.50571429 L4.43785714,4.0975 L4.26571429,3.84392857 C4.01107143,3.46821429 4.23535714,2.95392857 4.68392857,2.88535714 L5,2.83642857 L5,2.25964286 L4.69892857,2.20178571 Z" id="Fill-15"></path>
                </g>
            </g>
        </g>
    </g>
</svg>