<?xml version="1.0" encoding="UTF-8"?>
<svg width="20px" height="20px" viewBox="0 0 20 20" version="1.1" xmlns="http://www.w3.org/2000/svg" xmlns:xlink="http://www.w3.org/1999/xlink">
    <!-- Generator: Sketch 55.2 (78181) - https://sketchapp.com -->
    <title>advanced-port-manager-mono</title>
    <desc>Created with Sketch.</desc>
    <g id="advanced-port-manager-mono" stroke="none" stroke-width="1" fill="none" fill-rule="evenodd">
        <g id="Group-50" transform="translate(3.000000, 3.000000)" fill="#D10303" fill-rule="nonzero">
            <g id="port_manager_icon-copy" transform="translate(0.159091, 0.159091)">
                <path d="M4.60815767,9.44670756 L2.76488938,9.44670756 C2.38379084,9.44670756 2.07366051,9.13657724 2.07366051,8.75547869 L2.07366051,7.14262873 C2.07366051,6.76153018 2.38379084,6.45139986 2.76488938,6.45139986 L10.598747,6.45139986 C10.7257015,6.45139986 10.8291653,6.34817099 10.8291653,6.22098153 L10.8291653,4.60813157 C10.8291653,4.48094212 10.7257015,4.37771325 10.598747,4.37771325 L8.75547869,4.37771325 C8.62828924,4.37771325 8.52506037,4.27471928 8.52506037,4.14729492 C8.52506037,4.01987056 8.62828924,3.9168766 8.75547869,3.9168766 L10.598747,3.9168766 C10.9798455,3.9168766 11.2899759,4.22700692 11.2899759,4.60810547 L11.2899759,6.22095543 C11.2899759,6.60205398 10.9798455,6.9121843 10.598747,6.9121843 L2.76488938,6.9121843 C2.63793484,6.9121843 2.53447106,7.01541317 2.53447106,7.14260263 L2.53447106,8.75545259 C2.53447106,8.88264205 2.63793484,8.98587092 2.76488938,8.98587092 L4.60815767,8.98587092 C4.73534712,8.98587092 4.83857599,9.08886488 4.83857599,9.21628924 C4.83854989,9.3437136 4.73534712,9.44670756 4.60815767,9.44670756" id="Shape"></path>
                <path d="M8.06427592,2.76488938 L0.691228871,2.76488938 C0.309425604,2.76488938 2.66453526e-15,2.45546378 2.66453526e-15,2.07366051 L2.66453526e-15,0.691228871 C2.66453526e-15,0.309425604 0.309425604,6.88338275e-14 0.691228871,6.88338275e-14 L8.06427592,6.88338275e-14 C8.44605309,6.88338275e-14 8.75550479,0.309425604 8.75550479,0.691228871 L8.75550479,2.07368661 C8.75550479,2.45546378 8.44605309,2.76488938 8.06427592,2.76488938 Z M3.45611825,1.84326829 C3.58330771,1.84326829 3.68651048,1.74027433 3.68653658,1.61284996 L3.68653658,1.15203942 C3.68653658,1.02461506 3.58330771,0.921621094 3.45611825,0.921621094 L2.99530771,0.921621094 C2.86811825,0.921621094 2.76488938,1.02461506 2.76488938,1.15203942 L2.76488938,1.61284996 C2.76488938,1.74027433 2.86811825,1.84326829 2.99530771,1.84326829 L3.45611825,1.84326829 Z M1.61284996,1.84326829 C1.74003942,1.84326829 1.84326829,1.74027433 1.84326829,1.61284996 L1.84326829,1.15203942 C1.84326829,1.02461506 1.74003942,0.921621094 1.61284996,0.921621094 L1.15203942,0.921621094 C1.02484996,0.921621094 0.921621094,1.02461506 0.921621094,1.15203942 L0.921621094,1.61284996 C0.921621094,1.74027433 1.02484996,1.84326829 1.15203942,1.84326829 L1.61284996,1.84326829 Z M7.60343928,1.61284996 C7.73062873,1.61284996 7.8338576,1.509856 7.8338576,1.38243164 C7.8338576,1.25500728 7.73062873,1.15201332 7.60343928,1.15201332 L4.60815767,1.15201332 C4.48096822,1.15201332 4.37773935,1.25500728 4.37773935,1.38243164 C4.37773935,1.509856 4.48096822,1.61284996 4.60815767,1.61284996 L7.60343928,1.61284996 Z" id="Combined-Shape"></path>
                <g id="Group" transform="translate(0.000000, 2.148438)">
                    <path d="M8.06427592,3.38134126 L0.691228871,3.38134126 C0.309425604,3.38134126 0,3.07191566 0,2.69011239 L0,1.30765465 C0,0.925877486 0.309425604,0.616425781 0.691228871,0.616425781 L8.06427592,0.616425781 C8.44605309,0.616425781 8.75550479,0.925851385 8.75550479,1.30765465 L8.75550479,2.69011239 C8.75550479,3.07191566 8.44605309,3.38134126 8.06427592,3.38134126 Z M3.45611825,2.45972017 C3.58330771,2.45972017 3.68651048,2.35672621 3.68653658,2.22930185 L3.68653658,1.7684913 C3.68653658,1.64106694 3.58330771,1.53807298 3.45611825,1.53807298 L2.99530771,1.53807298 C2.86811825,1.53807298 2.76488938,1.64106694 2.76488938,1.7684913 L2.76488938,2.22930185 C2.76488938,2.35672621 2.86811825,2.45972017 2.99530771,2.45972017 L3.45611825,2.45972017 Z M1.61284996,2.45972017 C1.74003942,2.45972017 1.84326829,2.35672621 1.84326829,2.22930185 L1.84326829,1.7684913 C1.84326829,1.64106694 1.74003942,1.53807298 1.61284996,1.53807298 L1.15203942,1.53807298 C1.02484996,1.53807298 0.921621094,1.64106694 0.921621094,1.7684913 L0.921621094,2.22930185 C0.921621094,2.35672621 1.02484996,2.45972017 1.15203942,2.45972017 L1.61284996,2.45972017 Z M7.60343928,2.22930185 C7.73062873,2.22930185 7.8338576,2.12630788 7.8338576,1.99888352 C7.8338576,1.87145916 7.73062873,1.7684652 7.60343928,1.7684652 L4.60815767,1.7684652 C4.48096822,1.7684652 4.37773935,1.87145916 4.37773935,1.99888352 C4.37773935,2.12630788 4.48096822,2.22930185 4.60815767,2.22930185 L7.60343928,2.22930185 Z" id="Combined-Shape"></path>
                </g>
                <g id="Group" transform="translate(4.358842, 6.915128)">
                    <path d="M8.31356516,3.68361914 L0.940518111,3.68361914 C0.558740945,3.68361914 0.24928924,3.37419354 0.24928924,2.99239027 L0.24928924,1.60993253 C0.24928924,1.22815536 0.558714844,0.918703658 0.940518111,0.918703658 L8.31356516,0.918703658 C8.69534233,0.918703658 9.00479403,1.22812926 9.00479403,1.60993253 L9.00479403,2.99239027 C9.00479403,3.37419354 8.69536843,3.68361914 8.31356516,3.68361914 Z M3.70543359,2.76199805 C3.83259695,2.76199805 3.93582582,2.65900408 3.93582582,2.53157972 L3.93582582,2.07076918 C3.93582582,1.94334482 3.83259695,1.84035085 3.70540749,1.84035085 L3.24459695,1.84035085 C3.11740749,1.84035085 3.01417862,1.94334482 3.01417862,2.07076918 L3.01417862,2.53157972 C3.01417862,2.65900408 3.11740749,2.76199805 3.24459695,2.76199805 L3.70543359,2.76199805 Z M1.86216531,2.76199805 C1.98935476,2.76199805 2.09255753,2.65900408 2.09258363,2.53157972 L2.09258363,2.07076918 C2.09258363,1.94334482 1.98935476,1.84035085 1.86216531,1.84035085 L1.40135476,1.84035085 C1.27416531,1.84035085 1.17093643,1.94334482 1.17093643,2.07076918 L1.17093643,2.53157972 C1.17093643,2.65900408 1.27416531,2.76199805 1.40135476,2.76199805 L1.86216531,2.76199805 Z M7.85275462,2.53157972 C7.97994407,2.53157972 8.08317294,2.42858576 8.08317294,2.3011614 C8.08317294,2.17373704 7.97994407,2.07074308 7.85275462,2.07074308 L4.85744691,2.07074308 C4.73025746,2.07074308 4.62702859,2.17373704 4.62702859,2.3011614 C4.62702859,2.42858576 4.73025746,2.53157972 4.85744691,2.53157972 L7.85275462,2.53157972 Z" id="Combined-Shape"></path>
                </g>
                <g id="Group" transform="translate(4.593750, 9.978693)">
                    <path d="M8.07865749,3.38494318 L0.70561044,3.38494318 C0.323833274,3.38494318 0.0143815696,3.07551758 0.0143815696,2.69371431 L0.0143815696,1.31125657 C0.0143815696,0.929479403 0.323807173,0.620027699 0.70561044,0.620027699 L8.07865749,0.620027699 C8.46043466,0.620027699 8.76988636,0.929453303 8.76988636,1.31125657 L8.76988636,2.69371431 C8.76988636,3.07551758 8.46046076,3.38494318 8.07865749,3.38494318 Z M3.47052592,2.46332209 C3.59768928,2.46332209 3.70091815,2.36032812 3.70091815,2.23290376 L3.70091815,1.77209322 C3.70091815,1.64466886 3.59768928,1.54167489 3.47049982,1.54167489 L3.00968928,1.54167489 C2.88249982,1.54167489 2.77927095,1.64466886 2.77927095,1.77209322 L2.77927095,2.23290376 C2.77927095,2.36032812 2.88249982,2.46332209 3.00968928,2.46332209 L3.47052592,2.46332209 Z M1.62725763,2.46332209 C1.75444709,2.46332209 1.85764986,2.36032812 1.85767596,2.23290376 L1.85767596,1.77209322 C1.85767596,1.64466886 1.75444709,1.54167489 1.62725763,1.54167489 L1.16644709,1.54167489 C1.03925763,1.54167489 0.936028764,1.64466886 0.936028764,1.77209322 L0.936028764,2.23290376 C0.936028764,2.36032812 1.03925763,2.46332209 1.16644709,2.46332209 L1.62725763,2.46332209 Z M7.61784695,2.23290376 C7.7450364,2.23290376 7.84826527,2.1299098 7.84826527,2.00248544 C7.84826527,1.87506108 7.7450364,1.77206712 7.61784695,1.77206712 L4.62253924,1.77206712 C4.49534979,1.77206712 4.39212092,1.87506108 4.39212092,2.00248544 C4.39212092,2.1299098 4.49534979,2.23290376 4.62253924,2.23290376 L7.61784695,2.23290376 Z" id="Combined-Shape"></path>
                </g>
            </g>
        </g>
    </g>
</svg>