<?xml version="1.0" encoding="UTF-8"?>
<svg width="20px" height="20px" viewBox="0 0 20 20" version="1.1" xmlns="http://www.w3.org/2000/svg" xmlns:xlink="http://www.w3.org/1999/xlink">
    <!-- Generator: Sketch 55.2 (78181) - https://sketchapp.com -->
    <title>advanced-php-configuration-mono</title>
    <desc>Created with Sketch.</desc>
    <g id="advanced-php-configuration-mono" stroke="none" stroke-width="1" fill="none" fill-rule="evenodd">
        <g id="Group" transform="translate(3.000000, 4.000000)">
            <g id="Group-47">
                <g id="php_configuration_icon">
                    <g id="analytics-(1)" fill="#D10303" fill-rule="nonzero">
                        <path d="M6.9128721,9.31008092 L0.482753906,9.31008092 C0.216042969,9.31008092 -6.48370246e-14,9.09695183 -6.48370246e-14,8.83383815 L-6.48370246e-14,8.1194605 L0.965535156,8.1194605 L0.965535156,0.499495183 C0.965535156,0.236381503 1.18157812,0.0232524085 1.44828906,0.0232524085 L12.5517383,0.0232524085 C12.8184492,0.0232524085 13.0344922,0.236381503 13.0344922,0.499495183 L13.0344922,5.24340832 L12.9197143,5.32107143 C12.7242857,5.45414286 12.5082857,5.51392857 12.2974286,5.51392857 C12.2922857,5.51392857 12.2871429,5.51264286 12.282,5.51264286 C11.9187857,5.50814286 11.5748571,5.32235714 11.3704286,5.01571429 C11.2836429,4.8865 11.2193571,4.73735714 11.1936429,4.56892857 L11.1062143,4 L10.0673571,4 L9.93235714,4.69942857 C9.90985714,4.81578571 9.86292857,4.91864286 9.81085714,5.01571429 C9.6135,5.38021429 9.23614286,5.60457143 8.83564286,5.60457143 C8.7405,5.60457143 8.64407143,5.58785714 8.54957143,5.56214286 C8.43385714,5.53064286 8.32071429,5.48371429 8.21335714,5.41107143 L7.629,5.01571429 L7.6245,5.0125 L7.62128571,5.01571429 L7.0845,5.5525 L6.88971429,5.74664286 L6.98614286,5.87842857 L7.22914286,6.2095 C7.71321429,6.86971429 7.34485714,7.80828571 6.54192857,7.96321429 L6.14142857,8.04035714 L6,8.06735714 L6,8.32964286 L6,8.42046275 L0.965535156,8.1194605 L5.06895703,8.1194605 L5.06895703,8.59570328 L6,8.59570328 L6,9.10557143 L6.56892857,9.19364286 C6.69503747,9.213079 6.80938736,9.25412626 6.9128721,9.31008092 Z M3.78332323,2.3125945 C3.99655808,2.3125945 4.13866162,2.35084192 4.20970455,2.42737113 C4.28069444,2.50388316 4.29761111,2.63522337 4.26047222,2.82134021 C4.22165404,3.01517182 4.14695202,3.15352234 4.03618939,3.23640893 C3.92542677,3.31929553 3.75687879,3.36070447 3.53059848,3.36070447 L3.18922475,3.36070447 L3.39878283,2.3125945 L3.78332323,2.3125945 Z M2.41586616,4.42170103 L2.97710354,4.42170103 L3.11022727,3.75589347 L3.59096465,3.75589347 C3.80308586,3.75589347 3.97757323,3.73427835 4.11456818,3.69091065 C4.25156313,3.64764605 4.37606061,3.575 4.48811364,3.47304124 C4.58217172,3.3890378 4.65825253,3.29634021 4.71653283,3.19498282 C4.77474242,3.09371134 4.81610606,2.98189003 4.84055303,2.85960481 C4.89992929,2.56273196 4.85511869,2.33151203 4.70624495,2.16587629 C4.55737121,2.00022337 4.32053788,1.9174055 3.99586869,1.9174055 L2.91661364,1.9174055 L2.41586616,4.42170103 Z M5.2527399,1.25159794 L4.75199242,3.75589347 L5.30881061,3.75589347 L5.59565152,2.32118557 L6.04066414,2.32118557 C6.18312121,2.32118557 6.27627778,2.34414089 6.32004545,2.38998282 C6.36383081,2.43582474 6.37307576,2.52180412 6.34786869,2.64785223 L6.12636111,3.75589347 L6.69201768,3.75589347 L6.92499747,2.59053265 C6.97237121,2.35347079 6.93687626,2.18197595 6.81838889,2.07613402 C6.69990152,1.97036082 6.48459848,1.9174055 6.17249747,1.9174055 L5.67643434,1.9174055 L5.80955808,1.25159794 L5.2527399,1.25159794 Z M8.16390909,2.3125945 C8.37712626,2.3125945 8.5192298,2.35084192 8.5902904,2.42737113 C8.6612803,2.50388316 8.67819697,2.63522337 8.6410404,2.82134021 C8.6022399,3.01517182 8.52753788,3.15352234 8.41675758,3.23640893 C8.30601263,3.31929553 8.13746465,3.36070447 7.91120202,3.36070447 L7.56981061,3.36070447 L7.77936869,2.3125945 L8.16390909,2.3125945 Z M6.79645202,4.42170103 L7.35768939,4.42170103 L7.49081313,3.75589347 L7.97153283,3.75589347 C8.18365404,3.75589347 8.35814141,3.73427835 8.49513636,3.69091065 C8.63213131,3.64764605 8.75662879,3.575 8.86869949,3.47304124 C8.9627399,3.3890378 9.03883838,3.29634021 9.09711869,3.19498282 C9.15532828,3.09371134 9.19669192,2.98189003 9.22112121,2.85960481 C9.28051515,2.56273196 9.23570455,2.33151203 9.08683081,2.16587629 C8.93795707,2.00022337 8.70112374,1.9174055 8.37643687,1.9174055 L7.29718182,1.9174055 L6.79645202,4.42170103 Z" id="Combined-Shape"></path>
                    </g>
                    <g id="Group-49" transform="translate(2.333333, 1.166667)"></g>
                </g>
            </g>
            <path d="M10.7132857,9.88504762 C10.665619,9.88504762 10.6200476,9.87614286 10.5739524,9.87142857 C10.1491429,9.82009524 9.79242857,9.54666667 9.63266667,9.16638095 C9.574,9.02704762 9.54152381,8.87357143 9.54152381,8.71328571 C9.54152381,8.06585714 10.066381,7.541 10.7132857,7.541 C10.874619,7.541 11.0280952,7.574 11.1674286,7.63266667 C11.5487619,7.79347619 11.8216667,8.1512381 11.8714286,8.57761905 C11.8771905,8.62266667 11.8850476,8.66666667 11.8850476,8.71328571 C11.8850476,9.36019048 11.3601905,9.88504762 10.7132857,9.88504762 L10.7132857,9.88504762 Z M13.8917619,8.22928571 C13.2375238,8.10304762 12.937381,7.33828571 13.3318095,6.80033333 L13.608381,6.42319048 L13.4161429,6.23095238 L13.0128095,5.82761905 L13.0101905,5.825 L13.006,5.82761905 L12.6382857,6.07642857 C12.4790476,6.18485714 12.3030476,6.23357143 12.1312381,6.23357143 C12.1270476,6.23357143 12.1228571,6.23252381 12.1186667,6.23252381 C11.8227143,6.22885714 11.5424762,6.07747619 11.3759048,5.82761905 C11.3051905,5.72233333 11.2528095,5.60080952 11.2318571,5.46357143 L11.160619,5 L10.3141429,5 L10.2041429,5.56990476 C10.1858095,5.66471429 10.1475714,5.74852381 10.1051429,5.82761905 C9.94433333,6.12461905 9.63685714,6.30742857 9.31052381,6.30742857 C9.233,6.30742857 9.15442857,6.29380952 9.07742857,6.27285714 C8.98314286,6.24719048 8.89095238,6.20895238 8.80347619,6.1497619 L8.32733333,5.82761905 L8.32366667,5.825 L8.32104762,5.82761905 L7.88366667,6.265 L7.72495238,6.42319048 L7.80352381,6.53057143 L8.00152381,6.80033333 C8.39595238,7.33828571 8.09580952,8.10304762 7.44157143,8.22928571 L7.1152381,8.29214286 L7,8.31414286 L7,8.52785714 L7,9.16009524 L7.46357143,9.23185714 C7.60971429,9.25438095 7.73647619,9.31252381 7.84595238,9.39057143 C8.08480952,9.5592381 8.22414286,9.83266667 8.22780952,10.1212857 C8.22990476,10.2967619 8.18695238,10.4759048 8.07695238,10.6377619 L7.82447619,11.0096667 L8.22938095,11.4145714 L8.42319048,11.608381 L8.80085714,11.3312857 C8.96585714,11.2102857 9.15233333,11.1547619 9.33461905,11.1547619 C9.74738095,11.1547619 10.1418095,11.4386667 10.2292857,11.8917619 L10.3141429,12.3333333 L11.160619,12.3333333 L11.210381,12.0080476 C11.2831905,11.536619 11.6865238,11.2364762 12.1108095,11.2364762 C12.293619,11.2364762 12.4795714,11.2925238 12.6450952,11.4135238 L12.9101429,11.608381 L13.5088571,11.0096667 L13.256381,10.6377619 C12.8829048,10.0867143 13.2118571,9.33242857 13.8697619,9.23185714 L14.3333333,9.16009524 L14.3333333,8.31414286 L13.8917619,8.22928571 Z" id="Fill-15" fill="#D10303"></path>
        </g>
    </g>
</svg>