<?xml version="1.0" encoding="UTF-8"?>
<svg width="20px" height="20px" viewBox="0 0 20 20" version="1.1" xmlns="http://www.w3.org/2000/svg" xmlns:xlink="http://www.w3.org/1999/xlink">
    <!-- Generator: Sketch 55.2 (78181) - https://sketchapp.com -->
    <title>advanced-advanced-cron-jobs-mono</title>
    <desc>Created with Sketch.</desc>
    <g id="advanced-advanced-cron-jobs-mono" stroke="none" stroke-width="1" fill="none" fill-rule="evenodd">
        <g id="Group-2" transform="translate(3.000000, 3.000000)">
            <g id="cron_jobs_icon-copy" fill-rule="nonzero">
                <g id="Group-25">
                    <ellipse id="Oval" cx="6.125" cy="6.16548729" rx="6.125" ry="6.02118644"></ellipse>
                    <path d="M10.9946967,8.17206708 C11.2590188,7.55447215 11.4051724,6.87644198 11.4051724,6.16548729 C11.4051724,3.30334746 9.03648707,0.974809322 6.125,0.974809322 C3.21351293,0.974809322 0.844827586,3.30334746 0.844827586,6.16548729 C0.844827586,9.02762712 3.21351293,11.3561653 6.125,11.3561653 C6.39856651,11.3561653 6.6673408,11.3356073 6.92980819,11.2959804 C7.08245376,11.454361 7.16918263,11.6667327 7.172,11.8885 C7.17285152,11.9598149 7.16590834,12.0317643 7.14954971,12.1028045 C6.81639422,12.1579602 6.47410748,12.1866737 6.125,12.1866737 C2.74231034,12.1866737 0,9.49084322 0,6.16548729 C0,2.84013136 2.74231034,0.144300847 6.125,0.144300847 C9.50768966,0.144300847 12.25,2.84013136 12.25,6.16548729 C12.25,6.80825427 12.1475416,7.42750087 11.9578046,8.00830465 L11.7395,7.79 L11.737,7.7875 L11.733,7.79 L11.382,8.0275 C11.2597779,8.11072357 11.1272108,8.15709296 10.9946967,8.17206708 Z" id="Combined-Shape" fill="#D10303"></path>
                    <g id="Group" transform="translate(1.267241, 1.245763)">
                        <path d="M4.85775862,0.118970339 C4.74117241,0.118970339 4.64655172,0.211779661 4.64655172,0.326597458 L4.64655172,0.534224576 C4.64655172,0.649042373 4.74117241,0.741851695 4.85775862,0.741851695 C4.97434483,0.741851695 5.06896552,0.649042373 5.06896552,0.534224576 L5.06896552,0.326597458 C5.06896552,0.211987288 4.97434483,0.118970339 4.85775862,0.118970339 Z" id="Shape" fill="#D10303"></path>
                        <path d="M4.85775862,9.04693644 C4.74117241,9.04693644 4.64655172,9.13974576 4.64655172,9.25456356 L4.64655172,9.46219068 C4.64655172,9.57700847 4.74117241,9.6698178 4.85775862,9.6698178 C4.97434483,9.6698178 5.06896552,9.57700847 5.06896552,9.46219068 L5.06896552,9.25456356 C5.06896552,9.13995339 4.97434483,9.04693644 4.85775862,9.04693644 Z" id="Shape" fill="#D10303"></path>
                        <path d="M9.50431034,4.68676695 L9.29310345,4.68676695 C9.17651724,4.68676695 9.08189655,4.77957627 9.08189655,4.89439407 C9.08189655,5.00921186 9.17651724,5.10202119 9.29310345,5.10202119 L9.50431034,5.10202119 C9.62089655,5.10202119 9.71551724,5.00921186 9.71551724,4.89439407 C9.71551724,4.77957627 9.62089655,4.68676695 9.50431034,4.68676695 Z" id="Shape" fill="#D10303"></path>
                        <path d="M0.422413793,4.68676695 L0.211206897,4.68676695 C0.0946206897,4.68676695 0,4.77957627 0,4.89439407 C0,5.00921186 0.0946206897,5.10202119 0.211206897,5.10202119 L0.422413793,5.10202119 C0.539,5.10202119 0.63362069,5.00921186 0.63362069,4.89439407 C0.63362069,4.77957627 0.539,4.68676695 0.422413793,4.68676695 Z" id="Shape" fill="#D10303"></path>
                        <path d="M7.99396983,1.51775424 L7.84464655,1.66454661 C7.76206466,1.74572881 7.76206466,1.87694915 7.84464655,1.95813136 C7.8858319,1.99861864 7.93990086,2.0189661 7.99396983,2.0189661 C8.04803879,2.0189661 8.10210776,1.99861864 8.1432931,1.95813136 L8.29261638,1.81133898 C8.37519828,1.73015678 8.37519828,1.59893644 8.29261638,1.51775424 C8.21003448,1.43657203 8.07655172,1.43657203 7.99396983,1.51775424 Z" id="Shape" fill="#D10303"></path>
                        <path d="M1.57222414,7.83086441 L1.42290086,7.97765678 C1.34031897,8.05883898 1.34031897,8.19005932 1.42290086,8.27124153 C1.46408621,8.31172881 1.51815517,8.33207627 1.57222414,8.33207627 C1.6262931,8.33207627 1.68036207,8.31172881 1.72154741,8.27124153 L1.87087069,8.12444915 C1.95345259,8.04326695 1.95345259,7.91204661 1.87087069,7.83086441 C1.78828879,7.7496822 1.65459483,7.7496822 1.57222414,7.83086441 Z" id="Shape" fill="#D10303"></path>
                        <path d="M8.1432931,7.83086441 C8.06071121,7.7496822 7.92722845,7.7496822 7.84464655,7.83086441 C7.76206466,7.91204661 7.76206466,8.04326695 7.84464655,8.12444915 L7.99396983,8.27124153 C8.03515517,8.31172881 8.08922414,8.33207627 8.1432931,8.33207627 C8.19736207,8.33207627 8.25143103,8.31172881 8.29261638,8.27124153 C8.37519828,8.19005932 8.37519828,8.05883898 8.29261638,7.97765678 L8.1432931,7.83086441 Z" id="Shape" fill="#95A5A5"></path>
                        <path d="M1.72154741,1.51775424 C1.63896552,1.43657203 1.50548276,1.43657203 1.42290086,1.51775424 C1.34031897,1.59893644 1.34031897,1.73015678 1.42290086,1.81133898 L1.57222414,1.95813136 C1.61340948,1.99861864 1.66747845,2.0189661 1.72154741,2.0189661 C1.77561638,2.0189661 1.82968534,1.99861864 1.87087069,1.95813136 C1.95345259,1.87694915 1.95345259,1.74572881 1.87087069,1.66454661 L1.72154741,1.51775424 Z" id="Shape" fill="#D10303"></path>
                    </g>
                    <path d="M5.49137931,6.34799153 L3.80172414,6.34799153 C3.68513793,6.34799153 3.59051724,6.2551822 3.59051724,6.14036441 C3.59051724,6.02554661 3.68513793,5.93273729 3.80172414,5.93273729 L5.49137931,5.93273729 C5.60796552,5.93273729 5.70258621,6.02554661 5.70258621,6.14036441 C5.70258621,6.2551822 5.60796552,6.34799153 5.49137931,6.34799153 Z" id="Shape" fill="#D10303"></path>
                    <path d="M6.125,5.72511017 C6.00841379,5.72511017 5.9137931,5.63230085 5.9137931,5.51748305 L5.9137931,3.23358475 C5.9137931,3.11876695 6.00841379,3.02595763 6.125,3.02595763 C6.24158621,3.02595763 6.3362069,3.11876695 6.3362069,3.23358475 L6.3362069,5.51748305 C6.3362069,5.63209322 6.24158621,5.72511017 6.125,5.72511017 Z" id="Shape" fill="#D10303"></path>
                    <path d="M6.125,6.97087288 C5.65907759,6.97087288 5.28017241,6.59838983 5.28017241,6.14036441 C5.28017241,5.68233898 5.65907759,5.30985593 6.125,5.30985593 C6.59092241,5.30985593 6.96982759,5.68233898 6.96982759,6.14036441 C6.96982759,6.59838983 6.59092241,6.97087288 6.125,6.97087288 Z M6.125,5.72511017 C5.89203879,5.72511017 5.70258621,5.91135169 5.70258621,6.14036441 C5.70258621,6.36937712 5.89203879,6.55561864 6.125,6.55561864 C6.35796121,6.55561864 6.54741379,6.36937712 6.54741379,6.14036441 C6.54741379,5.91135169 6.35796121,5.72511017 6.125,5.72511017 Z" id="Shape" fill="#D10303"></path>
                </g>
            </g>
            <g id="Group-41" transform="translate(7.000000, 8.000000)" fill="#D10303">
                <path d="M2.5,3 C2.47966026,3 2.46021457,2.99620112 2.44054537,2.99418994 C2.25927582,2.9722905 2.10706303,2.85564246 2.03889137,2.69340782 C2.01385785,2.63396648 2,2.56849162 2,2.50011173 C2,2.22391061 2.22396066,2 2.5,2 C2.5688422,2 2.63433169,2.01407821 2.69378632,2.03910615 C2.85650425,2.1077095 2.97295485,2.2603352 2.99418865,2.44223464 C2.9966473,2.46145251 3,2.48022346 3,2.50011173 C3,2.77608939 2.77603934,3 2.5,3 L2.5,3 Z M4.69892857,2.20178571 C4.25285714,2.11571429 4.04821429,1.59428571 4.31714286,1.2275 L4.50571429,0.970357143 L4.37464286,0.839285714 L4.09964286,0.564285714 L4.09785714,0.5625 L4.095,0.564285714 L3.84428571,0.733928571 C3.73571429,0.807857143 3.61571429,0.841071429 3.49857143,0.841071429 C3.49571429,0.841071429 3.49285714,0.840357143 3.49,0.840357143 C3.28821429,0.837857143 3.09714286,0.734642857 2.98357143,0.564285714 C2.93535714,0.4925 2.89964286,0.409642857 2.88535714,0.316071429 L2.83678571,0 L2.25964286,0 L2.18464286,0.388571429 C2.17214286,0.453214286 2.14607143,0.510357143 2.11714286,0.564285714 C2.0075,0.766785714 1.79785714,0.891428571 1.57535714,0.891428571 C1.5225,0.891428571 1.46892857,0.882142857 1.41642857,0.867857143 C1.35214286,0.850357143 1.28928571,0.824285714 1.22964286,0.783928571 L0.905,0.564285714 L0.9025,0.5625 L0.900714286,0.564285714 L0.6025,0.8625 L0.494285714,0.970357143 L0.547857143,1.04357143 L0.682857143,1.2275 C0.951785714,1.59428571 0.747142857,2.11571429 0.301071429,2.20178571 L0.0785714286,2.24464286 L0,2.25964286 L0,2.40535714 L0,2.83642857 L0.316071429,2.88535714 C0.415714286,2.90071429 0.502142857,2.94035714 0.576785714,2.99357143 C0.739642857,3.10857143 0.834642857,3.295 0.837142857,3.49178571 C0.838571429,3.61142857 0.809285714,3.73357143 0.734285714,3.84392857 L0.562142857,4.0975 L0.838214286,4.37357143 L0.970357143,4.50571429 L1.22785714,4.31678571 C1.34035714,4.23428571 1.4675,4.19642857 1.59178571,4.19642857 C1.87321429,4.19642857 2.14214286,4.39 2.20178571,4.69892857 L2.25964286,5 L2.83678571,5 L2.87071429,4.77821429 C2.92035714,4.45678571 3.19535714,4.25214286 3.48464286,4.25214286 C3.60928571,4.25214286 3.73607143,4.29035714 3.84892857,4.37285714 L4.02964286,4.50571429 L4.43785714,4.0975 L4.26571429,3.84392857 C4.01107143,3.46821429 4.23535714,2.95392857 4.68392857,2.88535714 L5,2.83642857 L5,2.25964286 L4.69892857,2.20178571 Z" id="Fill-15"></path>
            </g>
        </g>
    </g>
</svg>