<?xml version="1.0" encoding="UTF-8"?>
<svg width="20px" height="20px" viewBox="0 0 20 20" version="1.1" xmlns="http://www.w3.org/2000/svg" xmlns:xlink="http://www.w3.org/1999/xlink">
    <!-- Generator: Sketch 55.2 (78181) - https://sketchapp.com -->
    <title>advanced-ssh-console-mono</title>
    <desc>Created with Sketch.</desc>
    <g id="advanced-ssh-console-mono" stroke="none" stroke-width="1" fill="none" fill-rule="evenodd">
        <g id="Group-52" transform="translate(3.000000, 5.000000)">
            <g id="ssh_console_icon" transform="translate(0.000000, 0.166667)">
                <g id="Group-51">
                    <g id="ssh_console_icon-copy">
                        <g id="analyze_website_icon">
                            <g id="statistics_icon-copy-2" fill="#D10303" fill-rule="nonzero">
                                <g id="website_builder_icon-copy-3">
                                    <g id="Group-39">
                                        <path d="M0.84459375,10.0208558 C0.378246094,10.0208558 0,9.6649469 0,9.22585356 L0,0.815858043 C0,0.376764704 0.378246094,0.0208558029 0.84459375,0.0208558029 L13.1556523,0.0208558029 C13.622,0.0208558029 14,0.376764704 14,0.815858043 L14,9.22585356 C14,9.6649469 13.622,10.0208558 13.1556523,10.0208558 L0.84459375,10.0208558 Z M1.01548248,0.610180237 C1.12781356,0.610180237 1.21887589,0.519117904 1.21887589,0.406786824 C1.21887589,0.294455745 1.12781356,0.203393412 1.01548248,0.203393412 C0.903151397,0.203393412 0.812089064,0.294455745 0.812089064,0.406786824 C0.812089064,0.519117904 0.903151397,0.610180237 1.01548248,0.610180237 Z M1.62566271,0.610180237 C1.73799379,0.610180237 1.82905613,0.519117904 1.82905613,0.406786824 C1.82905613,0.294455745 1.73799379,0.203393412 1.62566271,0.203393412 C1.51333163,0.203393412 1.4222693,0.294455745 1.4222693,0.406786824 C1.4222693,0.519117904 1.51333163,0.610180237 1.62566271,0.610180237 Z M2.23584295,0.610180237 C2.34817403,0.610180237 2.43923636,0.519117904 2.43923636,0.406786824 C2.43923636,0.294455745 2.34817403,0.203393412 2.23584295,0.203393412 C2.12351187,0.203393412 2.03244954,0.294455745 2.03244954,0.406786824 C2.03244954,0.519117904 2.12351187,0.610180237 2.23584295,0.610180237 Z M1.18859455,3.46069986 L1.18859455,3.93255371 L3.14905843,3.06781737 L3.14905843,2.78549478 L1.18859455,1.80624998 L1.18859455,2.28007811 L2.53900472,2.90592609 L1.18859455,3.46069986 Z M4.99303957,4.97300131 L4.99303957,4.69660157 L3.31489828,4.69660157 L3.31489828,4.97300131 L4.99303957,4.97300131 Z" id="Combined-Shape"></path>
                                    </g>
                                </g>
                            </g>
                            <g id="browser-(3)-copy-2" transform="translate(0.608696, 0.000000)"></g>
                        </g>
                    </g>
                </g>
            </g>
        </g>
    </g>
</svg>