<?xml version="1.0" encoding="UTF-8"?>
<svg width="20px" height="20px" viewBox="0 0 20 20" version="1.1" xmlns="http://www.w3.org/2000/svg" xmlns:xlink="http://www.w3.org/1999/xlink">
    <!-- Generator: Sketch 55.2 (78181) - https://sketchapp.com -->
    <title>databases-remote-mysql-mono</title>
    <desc>Created with Sketch.</desc>
    <g id="databases-remote-mysql-mono" stroke="none" stroke-width="1" fill="none" fill-rule="evenodd">
        <g id="remote_mysql" transform="translate(3.000000, 4.000000)">
            <g id="Group" transform="translate(0.000000, 6.946021)" fill="#424A60" fill-rule="nonzero">
                <path d="M0.112608696,0 L0.112608696,0.221585316 C0.112608696,0.14713265 0.116662609,0.0735663249 0.122743478,0 L0.112608696,0 Z" id="Shape"></path>
                <path d="M10.9129087,0 C10.9189896,0.0735663249 10.9230435,0.14713265 10.9230435,0.221585316 L10.9230435,0 L10.9129087,0 Z" id="Shape"></path>
            </g>
            <g id="Group" transform="translate(0.000000, 4.341263)" fill-rule="nonzero">
                <path d="M9.21479361,2.0047024 C8.38750507,2.64485514 7.85485227,3.64743268 7.85485227,4.77441795 C7.85485227,4.82555013 7.85594873,4.87642622 7.85811944,4.92702398 C7.15004061,5.04334881 6.35625421,5.10853158 5.51782609,5.10853158 C2.63954783,5.10853158 0.287377391,4.34034504 0.122743478,3.37202625 L0.112608696,3.37202625 L0.112608696,0.658736669 C0.112608696,1.67763117 2.53256957,2.50377358 5.51782609,2.50377358 C6.94780921,2.50377358 8.24808212,2.31421065 9.21479361,2.0047024 Z M10.4926155,1.381424 C10.769707,1.15947659 10.9230435,0.915213328 10.9230435,0.658736669 L10.9230435,1.30079151 C10.776575,1.31881245 10.6329069,1.34588208 10.4926155,1.381424 Z" id="Combined-Shape" fill="#D10303"></path>
                <path d="M0.112608696,0 L0.112608696,0.108531583 C0.112608696,0.0720649713 0.116662609,0.0360324856 0.122743478,0 L0.112608696,0 Z" id="Shape" fill="#556080"></path>
                <path d="M10.9129087,0 C10.9189896,0.0360324856 10.9230435,0.0720649713 10.9230435,0.108531583 L10.9230435,0 L10.9129087,0 Z" id="Shape" fill="#556080"></path>
            </g>
            <ellipse id="Oval" fill="#D10303" fill-rule="nonzero" cx="5.51782609" cy="1.84503692" rx="5.40521739" ry="1.84503692"></ellipse>
            <path d="M5.51782609,3.69007383 C2.53256957,3.69007383 0.112608696,2.86393142 0.112608696,1.84503692 L0.112608696,4.5583265 L0.122743478,4.5583265 C0.287377391,5.52664528 2.63954783,6.29483183 5.51782609,6.29483183 C8.39610435,6.29483183 10.7482748,5.52664528 10.9129087,4.5583265 L10.9230435,4.5583265 L10.9230435,1.84503692 C10.9230435,2.86393142 8.50308261,3.69007383 5.51782609,3.69007383 Z" id="Combined-Shape" fill="#D10303" fill-rule="nonzero"></path>
            <g id="Group-25" transform="translate(11.300000, 9.400000) rotate(-90.000000) translate(-11.300000, -9.400000) translate(7.300000, 5.400000)">
                <g id="Group-9" transform="translate(3.851190, 4.434524) rotate(-270.000000) translate(-3.851190, -4.434524) translate(0.351190, 0.934524)">
                    <path d="M3.20226843,6.20604274 C1.43370441,6.20604274 -7.72715225e-14,4.81677275 -7.72715225e-14,3.10302137 C-7.72715225e-14,1.38926999 1.43370441,2.34923192e-13 3.20226843,2.34923192e-13 C4.97083245,2.34923192e-13 6.40453686,1.38926999 6.40453686,3.10302137 C6.40453686,4.81677275 4.97083245,6.20604274 3.20226843,6.20604274 Z M5.22847367,2.45980952 C4.688193,1.90666667 3.96781878,1.57142857 3.14921171,1.57142857 C2.33060464,1.57142857 1.59385828,1.90666667 1.06994976,2.45980952 C1.03720547,2.49333333 1.02083333,2.52685714 1.02083333,2.57714286 C1.02083333,2.62742857 1.03720547,2.66095238 1.06994976,2.69447619 L1.29915974,2.92914286 C1.3646483,2.99619048 1.46288115,2.99619048 1.52836972,2.92914286 C1.93767325,2.51009524 2.5106982,2.24190476 3.14921171,2.24190476 C3.78772523,2.24190476 4.36075017,2.51009524 4.77005371,2.92914286 C4.83554227,2.99619048 4.93377512,2.99619048 4.99926369,2.92914286 L5.22847367,2.69447619 C5.26121795,2.66095238 5.27759009,2.62742857 5.27759009,2.57714286 C5.27759009,2.52685714 5.26121795,2.47657143 5.22847367,2.45980952 Z M3.09099965,3 C2.6325797,3 2.2396483,3.18438095 1.94494976,3.48609524 C1.87946119,3.55314286 1.87946119,3.65371429 1.94494976,3.7207619 L2.17415974,3.95542857 C2.2396483,4.02247619 2.33788115,4.02247619 2.40336972,3.95542857 C2.58346327,3.77104762 2.82904539,3.67047619 3.09099965,3.67047619 C3.35295392,3.67047619 3.59853604,3.78780952 3.77862959,3.95542857 C3.84411816,4.02247619 3.942351,4.02247619 4.00783957,3.95542857 L4.23704955,3.7207619 C4.30253812,3.65371429 4.30253812,3.55314286 4.23704955,3.48609524 C3.942351,3.18438095 3.54941961,3 3.09099965,3 Z M3.14921171,4.92380952 C3.33005339,4.92380952 3.47665454,4.77371832 3.47665454,4.58857143 C3.47665454,4.40342454 3.33005339,4.25333333 3.14921171,4.25333333 C2.96837003,4.25333333 2.82176888,4.40342454 2.82176888,4.58857143 C2.82176888,4.77371832 2.96837003,4.92380952 3.14921171,4.92380952 Z" id="Combined-Shape" fill="#D10303" fill-rule="nonzero"></path>
                    <g id="wifi" transform="translate(1.020833, 1.571429)"></g>
                </g>
            </g>
        </g>
    </g>
</svg>