<?xml version="1.0" encoding="UTF-8"?>
<svg width="20px" height="20px" viewBox="0 0 20 20" version="1.1" xmlns="http://www.w3.org/2000/svg" xmlns:xlink="http://www.w3.org/1999/xlink">
    <!-- Generator: Sketch 55.2 (78181) - https://sketchapp.com -->
    <title>databases-phpmyadmin-mono</title>
    <desc>Created with Sketch.</desc>
    <g id="databases-phpmyadmin-mono" stroke="none" stroke-width="1" fill="none" fill-rule="evenodd">
        <g id="Group-42" transform="translate(3.000000, 4.000000)">
            <g id="phpmyadmin_icon" transform="translate(0.000000, 0.147727)">
                <g id="Group" transform="translate(0.000000, 7.174475)" fill="#424A60" fill-rule="nonzero">
                    <path d="M0.112608696,0 L0.112608696,0.221327958 C0.112608696,0.146961764 0.116662609,0.073480882 0.122743478,0 L0.112608696,0 Z" id="Shape"></path>
                    <path d="M10.9129087,0 C10.9189896,0.073480882 10.9230435,0.146961764 10.9230435,0.221327958 L10.9230435,0 L10.9129087,0 Z" id="Shape"></path>
                </g>
                <g id="Group" transform="translate(0.000000, 4.484047)" fill-rule="nonzero">
                    <path d="M7.41497965,2.48837269 L7.26834783,2.63500451 L7.09520497,2.80757594 L7.18091925,2.9247188 L7.39691925,3.21900451 C7.82720497,3.80586165 7.4997764,4.64014737 6.78606211,4.77786165 L6.43006211,4.84643308 L6.30434783,4.87043308 L6.30434783,5.10357594 L6.30434783,5.24433692 C6.04759182,5.25753853 5.78497509,5.2643739 5.51782609,5.2643739 C2.63954783,5.2643739 0.287377391,4.4709218 0.122743478,3.47075513 L0.112608696,3.47075513 L0.112608696,0.668225791 C0.112608696,1.72063161 2.53256957,2.57394574 5.51782609,2.57394574 C6.2159861,2.57394574 6.85010899,2.54398093 7.41497965,2.48837269 Z M8.11256905,2.40157569 C8.81017701,2.29476923 9.37055252,2.14236704 9.77983456,1.95585471 C9.75754894,2.02781915 9.72590539,2.09423847 9.6917764,2.15786165 C9.51634783,2.48186165 9.18091925,2.68129023 8.82491925,2.68129023 C8.74034783,2.68129023 8.65463354,2.66643308 8.57063354,2.64357594 C8.4677764,2.61557594 8.36720497,2.57386165 8.2717764,2.50929023 L8.11256905,2.40157569 Z" id="Combined-Shape" fill="#D10303"></path>
                    <path d="M0.112608696,0 L0.112608696,0.112101173 C0.112608696,0.0744351791 0.116662609,0.0372175896 0.122743478,0 L0.112608696,0 Z" id="Shape" fill="#556080"></path>
                    <path d="M10.9129087,0 C10.9189896,0.0372175896 10.9230435,0.0744351791 10.9230435,0.112101173 L10.9230435,0 L10.9129087,0 Z" id="Shape" fill="#556080"></path>
                </g>
                <ellipse id="Oval" fill="#D10303" fill-rule="nonzero" cx="5.51782609" cy="1.90571995" rx="5.40521739" ry="1.90571995"></ellipse>
                <path d="M5.51782609,3.8114399 C2.53256957,3.8114399 0.112608696,2.95812576 0.112608696,1.90571995 L0.112608696,4.70824928 L0.122743478,4.70824928 C0.287377391,5.70841595 2.63954783,6.50186806 5.51782609,6.50186806 C8.39610435,6.50186806 10.7482748,5.70841595 10.9129087,4.70824928 L10.9230435,4.70824928 L10.9230435,1.90571995 C10.9230435,2.95812576 8.50308261,3.8114399 5.51782609,3.8114399 Z" id="Shape" fill="#D10303" fill-rule="nonzero"></path>
                <g id="mysql_databases-copy-2" transform="translate(7.200000, 6.852273)" fill="#D10303">
                    <path d="M3.249125,4.32992857 C3.20741667,4.32992857 3.16754167,4.32203571 3.12720833,4.31785714 C2.7555,4.27235714 2.443375,4.03 2.30358333,3.69292857 C2.25225,3.56942857 2.22383333,3.43339286 2.22383333,3.29132143 C2.22383333,2.71746429 2.68308333,2.25225 3.249125,2.25225 C3.39029167,2.25225 3.52458333,2.2815 3.6465,2.3335 C3.98016667,2.47603571 4.21895833,2.79314286 4.2625,3.17107143 C4.26754167,3.211 4.27441667,3.25 4.27441667,3.29132143 C4.27441667,3.86471429 3.81516667,4.32992857 3.249125,4.32992857 L3.249125,4.32992857 Z M6.03029167,2.86232143 C5.45783333,2.75042857 5.19520833,2.07257143 5.54033333,1.59575 L5.78233333,1.26146429 L5.614125,1.09107143 L5.26120833,0.733571429 L5.25891667,0.73125 L5.25525,0.733571429 L4.9335,0.954107143 C4.79416667,1.05021429 4.64016667,1.09339286 4.48983333,1.09339286 C4.48616667,1.09339286 4.4825,1.09246429 4.47883333,1.09246429 C4.219875,1.08921429 3.97466667,0.955035714 3.82891667,0.733571429 C3.76704167,0.64025 3.72120833,0.532535714 3.702875,0.410892857 L3.64054167,0 L2.899875,0 L2.803625,0.505142857 C2.78758333,0.589178571 2.754125,0.663464286 2.717,0.733571429 C2.57629167,0.996821429 2.30725,1.15885714 2.02170833,1.15885714 C1.953875,1.15885714 1.885125,1.14678571 1.81775,1.12821429 C1.73525,1.10546429 1.65458333,1.07157143 1.57804167,1.01910714 L1.16141667,0.733571429 L1.15820833,0.73125 L1.15591667,0.733571429 L0.773208333,1.12125 L0.634333333,1.26146429 L0.703083333,1.35664286 L0.876333333,1.59575 C1.22145833,2.07257143 0.958833333,2.75042857 0.386375,2.86232143 L0.100833333,2.91803571 L0,2.93753571 L0,3.12696429 L0,3.68735714 L0.405625,3.75096429 C0.5335,3.77092857 0.644416667,3.82246429 0.740208333,3.89164286 C0.949208333,4.04114286 1.071125,4.2835 1.07433333,4.53932143 C1.07616667,4.69485714 1.03858333,4.85364286 0.942333333,4.99710714 L0.721416667,5.32675 L1.07570833,5.68564286 L1.24529167,5.85742857 L1.57575,5.61182143 C1.720125,5.50457143 1.88329167,5.45535714 2.04279167,5.45535714 C2.40395833,5.45535714 2.74908333,5.707 2.825625,6.10860714 L2.899875,6.5 L3.64054167,6.5 L3.68408333,6.21167857 C3.74779167,5.79382143 4.10070833,5.52778571 4.47195833,5.52778571 C4.63191667,5.52778571 4.794625,5.57746429 4.93945833,5.68471429 L5.171375,5.85742857 L5.69525,5.32675 L5.47433333,4.99710714 C5.14754167,4.50867857 5.435375,3.84010714 6.01104167,3.75096429 L6.41666667,3.68735714 L6.41666667,2.93753571 L6.03029167,2.86232143 Z" id="Fill-15"></path>
                </g>
            </g>
        </g>
    </g>
</svg>