<?xml version="1.0" encoding="UTF-8"?>
<svg width="20px" height="20px" viewBox="0 0 20 20" version="1.1" xmlns="http://www.w3.org/2000/svg" xmlns:xlink="http://www.w3.org/1999/xlink">
    <!-- Generator: Sketch 55.2 (78181) - https://sketchapp.com -->
    <title>domains-parked-domains-mono</title>
    <desc>Created with Sketch.</desc>
    <g id="domains-parked-domains-mono" stroke="none" stroke-width="1" fill="none" fill-rule="evenodd">
        <g id="Group-68" transform="translate(3.000000, 2.000000)">
            <g id="Group-2" fill="#D10303" fill-rule="nonzero">
                <g id="change_domain_icon" transform="translate(0.000000, 0.500000)">
                    <path d="M11.085372,8.04315833 C10.9214519,7.98428431 10.7518663,7.93729494 10.577654,7.90322924 C10.59824,7.87102383 10.6158973,7.83579512 10.6276042,7.80056642 C10.6150625,7.80056642 10.6093308,7.79373973 10.603017,7.7875 L11.2046055,7.7875 C11.5019105,7.10506823 11.6666667,6.35021704 11.6666667,5.55523256 C11.6666667,4.82838067 11.5289406,4.13507776 11.2781043,3.5 L10.0598771,3.5 C10.0569465,3.49850743 10.0537707,3.49691561 10.05034,3.49519608 C10.0272425,3.49519608 10.0272425,3.49519608 10.0041667,3.47204205 L9.98106917,3.47204205 C9.98106917,3.44888801 10.0041667,3.44888801 10.0041667,3.42575568 C10.0272642,3.40260164 10.0272642,3.37946931 10.0041667,3.35631527 C9.98106917,3.35631527 9.98106917,3.33316124 9.95799333,3.33316124 C9.93489583,3.3100072 9.88872249,3.33316124 9.88872249,3.35631527 C9.865625,3.37946931 9.84254915,3.42575568 9.81945166,3.44890971 C9.81945166,3.46594579 9.80694761,3.48297013 9.80033975,3.5 L5.03760329,3.5 C5.05901035,3.48168509 5.07999589,3.46008635 5.06286165,3.42573398 L5.08595915,3.44888801 L5.15522998,3.37944761 L5.13213249,3.35629357 C5.13213249,3.33313953 5.13213249,3.33313953 5.10903499,3.3100072 C5.0859375,3.28685316 5.0859375,3.28685316 5.10903499,3.26372083 C5.10903499,3.24056679 5.13213249,3.21743446 5.13213249,3.19428042 C5.15522998,3.17112639 5.15522998,3.10168598 5.10903499,3.10168598 C5.0859375,3.10168598 5.06286165,3.07853194 5.06286165,3.05539961 C5.06286165,3.03224557 5.03976416,3.00911324 5.03976416,3.00911324 L5.01666667,2.9859375 C4.97049333,2.9859375 4.94739583,3.00909154 4.97049333,3.05537791 C4.90122249,3.05537791 4.878125,3.12481831 4.85504915,3.14797235 C4.83195166,3.17112639 4.80887581,3.19425872 4.76268083,3.17112639 C4.73958333,3.14797235 4.71650749,3.17112639 4.71650749,3.19428042 C4.71650749,3.24056679 4.69340999,3.28687486 4.67033415,3.33316124 C4.64723665,3.35631527 4.62416081,3.37944761 4.62416081,3.40260164 L4.6472583,3.42575568 C4.6472583,3.42575568 4.6472583,3.42575568 4.62416081,3.42575568 L4.60104167,3.42575568 C4.55486833,3.44890971 4.53177083,3.42575568 4.48559749,3.42575568 C4.4625,3.42575568 4.4625,3.42575568 4.43942415,3.42575568 C4.41577472,3.449463 4.39817893,3.47317602 4.38043558,3.5 L4.27387239,3.5 C4.27778499,3.48980963 4.27778499,3.48092584 4.27778499,3.47204205 L4.30088249,3.44888801 C4.30088249,3.42573398 4.30088249,3.40260164 4.32397998,3.40260164 C4.37015332,3.35631527 4.39325081,3.33316124 4.43942415,3.28687486 C4.41632666,3.26372083 4.41632666,3.24058849 4.39325081,3.21743446 C4.37015332,3.19428042 4.34707747,3.17114809 4.34707747,3.17114809 C4.34707747,3.12486171 4.32397998,3.10170768 4.32397998,3.07855364 L4.32397998,3.05537791 C4.32397998,2.96278346 4.32397998,2.89334306 4.23161165,2.84705669 C4.25470915,2.82390265 4.27778499,2.77761628 4.30088249,2.75446224 C4.32397998,2.73130821 4.32397998,2.70817587 4.30088249,2.68502184 C4.30088249,2.68502184 4.27778499,2.63873547 4.30088249,2.63873547 C4.34705583,2.59244909 4.39325081,2.56929506 4.43942415,2.54614102 C4.46252165,2.52298699 4.48559749,2.52298699 4.50869499,2.49985465 C4.55486833,2.52300869 4.62413916,2.49985465 4.67033415,2.47670062 C4.69343164,2.49985465 4.71650749,2.49985465 4.73960498,2.49985465 C4.76270247,2.49985465 4.76270247,2.47670062 4.78577832,2.45356828 C4.78577832,2.47672232 4.80887581,2.47672232 4.83195166,2.45356828 C4.85504915,2.45356828 4.85504915,2.43041424 4.878125,2.45356828 C4.878125,2.47672232 4.92429834,2.47672232 4.92429834,2.47672232 C4.97047168,2.47672232 4.99356917,2.45356828 5.03974251,2.45356828 C5.01664502,2.40728191 4.97047168,2.36097384 4.99356917,2.29153343 C4.99356917,2.31468747 5.01666667,2.36097384 5.01666667,2.38412787 C5.01666667,2.38412787 5.01666667,2.40728191 5.03976416,2.40728191 C5.06286165,2.43043594 5.15520833,2.40728191 5.15520833,2.40728191 L5.15520833,2.38412787 L5.15520833,2.36097384 L5.17830583,2.36097384 L5.20140332,2.38412787 C5.15520833,2.43041424 5.22447917,2.43041424 5.22447917,2.45356828 C5.22447917,2.43041424 5.24757666,2.43041424 5.24757666,2.40728191 C5.24757666,2.43043594 5.24757666,2.45356828 5.24757666,2.47672232 C5.29375,2.47672232 5.33994499,2.47672232 5.38611833,2.47672232 C5.40921582,2.47672232 5.40921582,2.45356828 5.43229167,2.43043594 C5.45538916,2.40728191 5.45538916,2.36099554 5.47846501,2.3378415 C5.52463835,2.36099554 5.54773584,2.38412787 5.54773584,2.31468747 L5.57083333,2.31468747 C5.54773584,2.29153343 5.54773584,2.24524706 5.57083333,2.22209302 L5.57083333,2.19893899 C5.54773584,2.17578495 5.52465999,2.12949858 5.5015625,2.10634454 C5.47846501,2.12949858 5.43229167,2.15263092 5.45538916,2.19893899 C5.43229167,2.19893899 5.43229167,2.22209302 5.40921582,2.22209302 C5.38611833,2.22209302 5.38611833,2.19893899 5.36304248,2.19893899 C5.31686914,2.22209302 5.29377165,2.22209302 5.24759831,2.24522536 C5.22450081,2.26837939 5.20142497,2.26837939 5.17832747,2.24522536 C5.17832747,2.22207132 5.20142497,2.19893899 5.20142497,2.17578495 C5.20142497,2.15263092 5.22452246,2.12949858 5.2706958,2.15263092 C5.29379329,2.12947688 5.29379329,2.08319051 5.31686914,2.06003647 C5.31686914,2.03688244 5.31686914,2.03688244 5.29377165,2.03688244 C5.27067415,2.03688244 5.27067415,2.06003647 5.24759831,2.06003647 C5.20142497,2.06003647 5.20142497,2.08319051 5.17832747,2.08319051 C5.20142497,2.03690414 5.22450081,2.0137501 5.22450081,1.99059607 C5.22450081,1.96744203 5.22450081,1.96744203 5.24759831,1.96744203 L5.24759831,1.9443314 C5.24759831,1.92117736 5.22450081,1.89804502 5.22450081,1.89804502 C5.24759831,1.89804502 5.27067415,1.87489099 5.29377165,1.87489099 C5.29377165,1.87489099 5.29377165,1.87489099 5.31686914,1.87489099 C5.31686914,1.85173695 5.31686914,1.80545058 5.33996663,1.78229655 C5.33996663,1.75914251 5.36306413,1.73601017 5.38613997,1.71285614 L5.38613997,1.6897021 C5.38613997,1.66654807 5.40923747,1.64341573 5.40923747,1.64341573 C5.40923747,1.6202617 5.40923747,1.6202617 5.43233496,1.59712936 C5.40923747,1.6202834 5.38616162,1.6202834 5.33996663,1.64341573 C5.31686914,1.6202617 5.2706958,1.64341573 5.24759831,1.71285614 L5.22447917,1.71285614 C5.20138167,1.71285614 5.17830583,1.73601017 5.17830583,1.78229655 C5.17830583,1.82858292 5.15520833,1.87489099 5.20140332,1.89802332 C5.17830583,1.89802332 5.15522998,1.92117736 5.10903499,1.9443097 C5.13213249,1.9443097 5.13213249,1.96746373 5.15520833,1.96746373 C5.13211084,2.0137501 5.06284001,2.0137501 5.01666667,1.96746373 C4.99356917,1.99061777 4.97049333,2.0137501 4.94739583,2.03690414 C4.92429834,1.96746373 4.99356917,1.96746373 5.01666667,1.9443097 L4.99356917,1.9443097 C5.01666667,1.89802332 4.99356917,1.87486929 4.94739583,1.85171525 C4.94739583,1.87486929 4.92429834,1.89800162 4.92429834,1.92115566 L4.94739583,1.9443314 C4.94739583,1.9443314 4.92429834,1.9443314 4.90122249,1.96748543 C4.90122249,1.92119906 4.90122249,1.89804502 4.90122249,1.87489099 L4.878125,1.89804502 C4.85502751,1.87489099 4.80885417,1.82860462 4.78575667,1.80545058 C4.73958333,1.71285614 4.71648584,1.71285614 4.73958333,1.66656977 C4.73958333,1.64341573 4.73958333,1.6202834 4.71648584,1.59712936 C4.69338835,1.59712936 4.69338835,1.52768895 4.71648584,1.50453492 C4.76265918,1.43509451 4.73958333,1.43509451 4.69338835,1.41194048 C4.69338835,1.41194048 4.67029085,1.41194048 4.67029085,1.38878644 C4.64719336,1.38878644 4.62411751,1.38878644 4.60102002,1.38878644 C4.60102002,1.45822685 4.60102002,1.45822685 4.64719336,1.43507281 C4.64719336,1.45822685 4.67029085,1.45822685 4.67029085,1.45822685 C4.69338835,1.45822685 4.71646419,1.45822685 4.71646419,1.45822685 C4.6933667,1.48138088 4.67029085,1.48138088 4.62409587,1.45822685 C4.60099837,1.43507281 4.55482503,1.45822685 4.55482503,1.48138088 C4.55482503,1.50453492 4.53177083,1.52768895 4.53177083,1.52768895 C4.53177083,1.52768895 4.50867334,1.52768895 4.48559749,1.52768895 C4.48559749,1.50453492 4.48559749,1.50453492 4.48559749,1.50453492 C4.50869499,1.50453492 4.53177083,1.50453492 4.50869499,1.48138088 C4.50869499,1.45822685 4.50869499,1.45822685 4.50869499,1.43509451 L4.50869499,1.41194048 C4.50869499,1.38878644 4.50869499,1.3656541 4.48559749,1.34250007 C4.39322917,1.31936773 4.34705583,1.24992733 4.32395833,1.18048692 C4.37013167,1.15733288 4.37013167,1.18048692 4.41632666,1.20364095 C4.41632666,1.15735458 4.43942415,1.13420055 4.43942415,1.11104651 L4.41632666,1.08789248 C4.39322917,1.08789248 4.39322917,1.06473844 4.39322917,1.06473844 C4.37013167,0.995298033 4.32395833,0.925857626 4.32395833,0.833263184 C4.32395833,0.810109148 4.30086084,0.786976812 4.27778499,0.763822777 C4.27778499,0.763822777 4.2546875,0.763822777 4.23161165,0.763822777 C4.20853581,0.763822777 4.20851416,0.763822777 4.18543831,0.740668741 C4.20853581,0.717514705 4.23161165,0.69438237 4.25470915,0.648074298 C4.20853581,0.648074298 4.18543831,0.671228334 4.16234082,0.671228334 L4.13924333,0.671228334 C4.13924333,0.671228334 4.11614583,0.648074298 4.13924333,0.648074298 C4.13924333,0.624920263 4.16234082,0.578633891 4.18541667,0.555479856 C4.18541667,0.53232582 4.20851416,0.509193484 4.20851416,0.486039449 C4.20851416,0.486039449 4.20851416,0.486039449 4.18541667,0.486039449 C4.18541667,0.509193484 4.18541667,0.509193484 4.16231917,0.53232582 C4.13922168,0.53232582 4.11614583,0.555479856 4.09304834,0.509171784 C4.09304834,0.509171784 4.06995085,0.486017748 4.046875,0.486017748 C4.11614583,0.486017748 4.11614583,0.486017748 4.11614583,0.462863713 C4.06542612,0.445910457 4.0147064,0.441370281 3.97305328,0.431074127 C4.6340002,0.153316903 5.3609178,-2.11386464e-13 6.125,-2.11386464e-13 C8.47093725,-2.11386464e-13 10.4665407,1.44524893 11.2781043,3.5 L12.25,3.5 L12.25,7.7875 L11.2046055,7.7875 C11.1669639,7.87390216 11.1271976,7.95914345 11.085372,8.04315833 Z M6.40986518,11.1033281 C6.31552892,11.1080673 6.22055508,11.1104651 6.125,11.1104651 C3.84702897,11.1104651 1.89938617,9.74774625 1.0453945,7.7875 L0,7.7875 L0,3.5 L0.97189566,3.5 C1.3689192,2.4947991 2.04931255,1.63546705 2.91546582,1.01985267 C2.91546582,1.05136385 2.91546582,1.07364819 2.91546582,1.11098141 C2.91546582,1.11098141 2.93856331,1.11098141 2.93856331,1.13413545 C2.93856331,1.13413545 2.93856331,1.11098141 2.96166081,1.11098141 C2.96166081,1.11098141 2.96166081,1.08782738 2.96166081,1.06469504 L2.9847583,1.06469504 C2.9847583,1.08784908 2.9847583,1.13413545 2.9847583,1.15728948 C3.00785579,1.13413545 3.00785579,1.11100311 3.03093164,1.08784908 C3.03093164,1.11100311 3.03093164,1.11100311 3.00783415,1.13413545 C3.00783415,1.15728948 2.98473665,1.15728948 2.98473665,1.18042182 C2.98473665,1.22670819 2.98473665,1.24986223 2.96163916,1.27301626 C2.96163916,1.27301626 2.96163916,1.2961703 2.93854167,1.2961703 C2.93854167,1.31932433 2.91544417,1.34245667 2.91544417,1.3656107 L2.91544417,1.38880814 C2.89234668,1.38880814 2.89234668,1.38880814 2.86927083,1.41196218 L2.89236833,1.43511621 C2.89236833,1.43511621 2.89236833,1.45827025 2.89236833,1.48140258 C2.89236833,1.48140258 2.89236833,1.50455662 2.91546582,1.50455662 C2.91546582,1.50455662 2.89236833,1.50455662 2.86929248,1.50455662 C2.89238997,1.50455662 2.89238997,1.52771065 2.91546582,1.52771065 C2.86929248,1.59715106 2.84619499,1.6203051 2.84619499,1.6203051 C2.84619499,1.6203051 2.84619499,1.64345913 2.82309749,1.64345913 C2.82309749,1.6897455 2.82309749,1.73605357 2.8,1.78233995 C2.8,1.78233995 2.8,1.78233995 2.8,1.80549398 C2.8,1.82864802 2.77690251,1.89808842 2.77690251,1.89808842 C2.73072917,1.92124246 2.75380501,1.92124246 2.77690251,1.9443748 C2.77690251,1.9443748 2.77690251,1.96752883 2.77690251,1.99066117 C2.73072917,1.9443748 2.73072917,1.92122076 2.70763167,1.87493439 L2.70763167,1.89808842 C2.68453418,1.89808842 2.68453418,1.92124246 2.68453418,1.92124246 C2.68453418,1.9443965 2.70763167,1.96752883 2.68453418,2.0138369 C2.68453418,2.03699094 2.68453418,2.08327731 2.68453418,2.12956368 C2.66143669,2.12956368 2.59216585,2.24529046 2.59216585,2.26844449 C2.56906836,2.26844449 2.56906836,2.26844449 2.54599251,2.29159853 C2.49981917,2.31475257 2.47672168,2.3378849 2.43054834,2.38419297 C2.40745085,2.40734701 2.384375,2.43047934 2.36127751,2.45363338 C2.33818001,2.47678742 2.31510417,2.49991975 2.29200667,2.52307379 L2.26890918,2.54622782 C2.24581169,2.56938186 2.24581169,2.59251419 2.24581169,2.59251419 C2.22271419,2.63880057 2.22271419,2.6619546 2.24581169,2.68510864 L2.22271419,2.70826267 C2.22271419,2.73141671 2.1996167,2.77770308 2.1996167,2.80085712 C2.1996167,2.82401115 2.1996167,2.82401115 2.1996167,2.84714349 C2.17651921,2.87029752 2.1996167,2.89342986 2.1996167,2.91657734 C2.1996167,2.96287026 2.22271419,3.00917834 2.1996167,3.03231067 C2.1996167,3.07859704 2.15344336,3.12490511 2.15344336,3.17119149 C2.13034587,3.19434552 2.13034587,3.24063189 2.13034587,3.26378593 C2.13034587,3.28693996 2.13034587,3.3100723 2.13034587,3.3100723 C2.13034587,3.33322634 2.10724837,3.33322634 2.10724837,3.33322634 L2.08415088,3.3100723 C2.08415088,3.33322634 2.08415088,3.37951271 2.08415088,3.40266674 C2.10724837,3.44895311 2.08415088,3.47210715 2.06105339,3.49526119 L2.05632614,3.5 L0.97189566,3.5 C0.721059413,4.13507776 0.583333333,4.82838067 0.583333333,5.55523256 C0.583333333,6.35021704 0.748089485,7.10506823 1.0453945,7.7875 L4.25577507,7.7875 C4.25506123,7.79198741 4.2546875,7.79633803 4.2546875,7.80050132 C4.2546875,7.84678769 4.23159001,7.86994172 4.20851416,7.89309576 C4.16234082,7.93938213 4.09306999,7.93938213 4.06997249,8.00882254 C4.06997249,8.00882254 4.06997249,8.00882254 4.046875,8.03197657 C4.046875,8.03197657 4.046875,8.05513061 4.02377751,8.05513061 C4.00068001,8.12457102 3.95450667,8.17085739 3.93140918,8.24029779 C3.93140918,8.26345183 3.90831169,8.28658417 3.93140918,8.3097382 C3.95450667,8.33289224 3.95450667,8.35602457 3.93140918,8.37917861 L3.93140918,8.40233264 C3.93140918,8.42548668 3.93140918,8.47177305 3.93140918,8.49492709 C3.93140918,8.51808112 3.90831169,8.54121346 3.90831169,8.54121346 C3.90831169,8.56436749 3.88521419,8.58749983 3.86213835,8.61065387 C3.88523584,8.6338079 3.90831169,8.65694024 3.90831169,8.70324831 C3.90831169,8.72640234 3.93140918,8.74953468 3.95448503,8.74953468 L3.97758252,8.74953468 C4.00068001,8.79582105 4.04685335,8.81897509 4.06995085,8.86526146 C4.06995085,8.86526146 4.09304834,8.88841549 4.09304834,8.91154783 C4.09304834,8.93470186 4.11614583,8.9578342 4.13922168,8.98098824 C4.18539502,9.00414227 4.23159001,9.05042864 4.27776335,9.07358268 C4.32393669,9.09673671 4.37013167,9.14302309 4.43940251,9.09673671 C4.48557585,9.07358268 4.55484668,9.07358268 4.60104167,9.09673671 C4.62413916,9.09673671 4.64721501,9.09673671 4.6703125,9.09673671 C4.73958333,9.05045034 4.80885417,9.02729631 4.90122249,9.02729631 C4.94739583,9.02729631 4.97049333,9.05045034 4.99359082,9.09673671 C4.99359082,9.11989075 5.01668831,9.14302309 5.03976416,9.11989075 C5.06286165,9.11989075 5.0859375,9.11989075 5.10903499,9.11989075 C5.15520833,9.11989075 5.20140332,9.16617712 5.20140332,9.21248519 C5.20140332,9.23563923 5.20140332,9.25877156 5.17830583,9.30507964 C5.17830583,9.32823367 5.15520833,9.35136601 5.15520833,9.37452004 C5.15520833,9.37452004 5.15520833,9.39767408 5.15520833,9.42080641 C5.17830583,9.46709278 5.22447917,9.51340086 5.27065251,9.55968723 C5.29375,9.58284126 5.31682585,9.6059736 5.31682585,9.62912763 C5.33992334,9.65228167 5.33992334,9.69856804 5.33992334,9.72172208 C5.33992334,9.74487611 5.33992334,9.76800845 5.33992334,9.79116248 C5.33992334,9.81431652 5.33992334,9.83744886 5.36302083,9.83744886 C5.38611833,9.86060289 5.38611833,9.9300433 5.36302083,9.9300433 C5.31684749,9.97632967 5.29375,10.0457701 5.29375,10.0920781 C5.27065251,10.1615186 5.27065251,10.2078049 5.31684749,10.254113 C5.38611833,10.3467074 5.40921582,10.4624342 5.43229167,10.578161 C5.43229167,10.6244474 5.43229167,10.6707554 5.47846501,10.7170418 C5.52463835,10.7401958 5.52463835,10.7864822 5.54773584,10.8327686 C5.57083333,10.8559226 5.57083333,10.902209 5.59390918,10.925363 C5.61700667,10.9485171 5.61700667,10.9716494 5.59390918,10.9948034 C5.59390918,10.9948034 5.59390918,11.0179575 5.61700667,11.0179575 C5.73245085,11.0179575 5.84791667,11.0411115 5.94026335,11.0411115 C5.96336084,11.0411115 5.98643669,11.0411115 6.00953418,11.0411115 C6.03263167,11.0179575 6.05570752,11.0179575 6.07880501,11.0179575 C6.14807585,10.9716711 6.19424919,10.9022307 6.21734668,10.8327903 C6.24044417,10.8096363 6.24044417,10.7865039 6.26352002,10.7633499 C6.30969336,10.7170635 6.30969336,10.6707554 6.30969336,10.6244691 C6.30969336,10.5781827 6.30969336,10.5781827 6.33279085,10.5781827 C6.35588835,10.5781827 6.37896419,10.5550287 6.37896419,10.5550287 C6.40206169,10.5550287 6.42513753,10.5318746 6.42513753,10.5087423 C6.42513753,10.4624559 6.44823503,10.3930155 6.40204004,10.3467074 C6.37894255,10.3235534 6.37894255,10.3004211 6.42513753,10.277267 C6.44823503,10.254113 6.47131087,10.2309807 6.49440837,10.2309807 C6.51750586,10.2078266 6.51750586,10.1846943 6.54058171,10.1846943 C6.56524773,10.1723253 6.58991993,10.1599625 6.61107052,10.1440695 C6.50129422,10.4465771 6.43203904,10.7685167 6.40986518,11.1033281 Z M6.67480977,9.98131201 C6.66946457,9.9488002 6.66290274,9.91628406 6.67912337,9.88377863 C6.67912337,9.86062459 6.67912337,9.83749226 6.67912337,9.83749226 C6.65602588,9.79120588 6.63295003,9.76805185 6.63295003,9.72176548 C6.63295003,9.72176548 6.63295003,9.69861144 6.63295003,9.67547911 C6.60985254,9.65232507 6.60985254,9.62919273 6.63295003,9.6060387 C6.63295003,9.58288466 6.65604753,9.55975233 6.65604753,9.53659829 C6.67914502,9.44400385 6.74841585,9.42087151 6.81768669,9.35143111 C6.86386003,9.30514474 6.91005501,9.2819907 6.95622835,9.23570433 C7.02549919,9.16626392 7.09477002,9.09682351 7.11786751,9.00422907 C7.11786751,9.00422907 7.11786751,8.98107504 7.14096501,8.98107504 C7.18713835,8.93478867 7.18713835,8.88848059 7.18713835,8.81904019 C7.18713835,8.79588615 7.16404085,8.79588615 7.14096501,8.79588615 C7.11786751,8.79588615 7.09479167,8.81904019 7.09479167,8.81904019 C7.04861833,8.81904019 7.02552083,8.84219422 6.97934749,8.84219422 C6.95625,8.84219422 6.91007666,8.84219422 6.88697917,8.86534826 C6.88697917,8.86534826 6.86388167,8.86534826 6.86388167,8.84219422 C6.84080583,8.81893169 6.81770833,8.81893169 6.81770833,8.79579935 C6.84080583,8.77264531 6.84080583,8.77264531 6.81770833,8.74951298 C6.79461084,8.72635894 6.77153499,8.70322661 6.7484375,8.68007257 C6.72534001,8.65691854 6.72534001,8.65691854 6.70226416,8.6337862 C6.65609082,8.61063217 6.63299333,8.58749983 6.63299333,8.56434579 C6.63299333,8.54119176 6.60989583,8.49490539 6.58681999,8.49490539 C6.54064665,8.47175135 6.54064665,8.42546498 6.54064665,8.37917861 C6.54064665,8.35602457 6.51754915,8.3097382 6.49447331,8.28658417 C6.47137581,8.26343013 6.42520247,8.24029779 6.44829997,8.19398972 C6.42520247,8.17083569 6.40212663,8.14770335 6.40212663,8.10139528 C6.37902913,8.05510891 6.35595329,7.9856685 6.3097583,7.93936043 C6.3097583,7.93936043 6.3097583,7.9162064 6.3097583,7.89307406 C6.33285579,7.9162281 6.33285579,7.93936043 6.35593164,7.96251447 C6.35593164,7.9856685 6.37902913,7.9856685 6.40210498,7.9856685 C6.40210498,7.96251447 6.42520247,7.96251447 6.42520247,7.93938213 C6.42520247,7.93938213 6.44829997,7.96253617 6.44829997,7.9856685 C6.47139746,8.03195487 6.5175708,8.10139528 6.54066829,8.14770335 C6.54066829,8.14770335 6.54066829,8.17085739 6.56376579,8.17085739 C6.60993913,8.19401142 6.63303662,8.24029779 6.63303662,8.28658417 C6.63303662,8.33287054 6.63303662,8.35602457 6.67920996,8.37917861 C6.70230745,8.37917861 6.70230745,8.42546498 6.7253833,8.42546498 C6.74848079,8.44861902 6.74848079,8.47175135 6.77155664,8.49490539 C6.79465413,8.51805942 6.79465413,8.56434579 6.81772998,8.58749983 C6.84082747,8.6337862 6.84082747,8.68009427 6.84082747,8.72638064 L6.86392497,8.74953468 C6.88702246,8.74953468 6.91009831,8.74953468 6.9331958,8.72638064 C6.9331958,8.72638064 6.95629329,8.72638064 6.95629329,8.70322661 C6.97939079,8.70322661 7.00246663,8.68007257 7.02556413,8.68007257 C7.04866162,8.65691854 7.09483496,8.65691854 7.11793245,8.6337862 C7.14102995,8.61063217 7.18720329,8.61063217 7.21030078,8.58749983 L7.23339827,8.56434579 C7.25649577,8.54119176 7.25649577,8.54119176 7.27957161,8.51805942 C7.32574495,8.49490539 7.37193994,8.51805942 7.39501579,8.47177305 L7.41811328,8.47177305 C7.44121077,8.44861902 7.46428662,8.42548668 7.48738411,8.40233264 L7.48738411,8.37917861 C7.48738411,8.35602457 7.48738411,8.35602457 7.51048161,8.33289224 C7.55665495,8.3097382 7.55665495,8.28660587 7.57975244,8.24029779 L7.57975244,8.21714376 C7.55665495,8.19398972 7.51048161,8.14770335 7.46430827,8.14770335 C7.44121077,8.14770335 7.41813493,8.10141698 7.41813493,8.07826295 C7.41813493,8.05510891 7.41813493,8.05510891 7.41813493,8.03197657 C7.39503743,8.07826295 7.3488641,8.10141698 7.3257666,8.12457102 L7.30266911,8.14772505 C7.27957161,8.14772505 7.23339827,8.14772505 7.21030078,8.14772505 L7.18720329,8.12457102 C7.18720329,8.10141698 7.18720329,8.10141698 7.18720329,8.07828465 L7.18720329,8.05508721 C7.18720329,8.07824125 7.16410579,8.07824125 7.16410579,8.10137358 C7.1410083,8.07821954 7.1410083,8.05508721 7.1410083,8.03193317 C7.1410083,8.03193317 7.1410083,8.00877914 7.11791081,8.00877914 C7.09481331,7.9856251 7.07173747,7.96249277 7.04863997,7.93933873 C7.02554248,7.89305236 7.02554248,7.86989832 7.04863997,7.82361195 C7.07173747,7.82361195 7.09481331,7.84676599 7.11791081,7.84676599 C7.1410083,7.86992002 7.16408415,7.89305236 7.16408415,7.93936043 C7.16408415,7.93936043 7.16408415,7.96251447 7.18718164,7.96251447 C7.21027913,7.9856685 7.25645247,8.00880084 7.27954997,8.00880084 C7.30264746,8.03195487 7.37191829,8.03195487 7.39499414,8.00880084 C7.41809163,7.9856468 7.44116748,7.9856468 7.44116748,8.00880084 C7.44116748,8.05508721 7.48734082,8.05508721 7.51043831,8.05508721 C7.53353581,8.05508721 7.55661165,8.05508721 7.57970915,8.05508721 C7.60280664,8.05508721 7.62588249,8.07824125 7.67207747,8.05508721 C7.74134831,8.05508721 7.81061914,8.05508721 7.87988997,8.05508721 L7.90298747,8.05508721 C7.92608496,8.07824125 7.9722583,8.12452762 7.99535579,8.14768165 C8.01845329,8.17083569 8.04152913,8.17083569 8.06462663,8.17083569 L8.08772412,8.17083569 C8.06462663,8.17083569 8.04155078,8.19398972 8.01845329,8.19398972 C8.04155078,8.21714376 8.06462663,8.21714376 8.06462663,8.24027609 C8.11079997,8.28656247 8.15699495,8.26343013 8.1800708,8.21712206 C8.1800708,8.21712206 8.1800708,8.19396802 8.20316829,8.19396802 C8.20316829,8.21712206 8.20316829,8.24025439 8.20316829,8.26340843 L8.20316829,8.27736606 C7.52151216,8.6565498 6.97974892,9.25684218 6.67480977,9.98131201 Z M6.41482072,7.7875 C6.41056826,7.79886348 6.40631534,7.81086715 6.40206169,7.82365535 C6.37896419,7.86994172 6.33279085,7.89309576 6.28661751,7.86994172 C6.26352002,7.84678769 6.24044417,7.84678769 6.21734668,7.84678769 C6.19424919,7.84678769 6.17117334,7.86994172 6.14807585,7.86994172 C6.12497835,7.86994172 6.10190251,7.86994172 6.10190251,7.86994172 C6.05572917,7.86994172 6.00953418,7.84678769 5.98645833,7.84678769 C5.94028499,7.84678769 5.9171875,7.82363365 5.87101416,7.80050132 C5.87101416,7.80050132 5.87101416,7.80050132 5.85804459,7.7875 L6.41482072,7.7875 Z M5.70065436,7.7875 C5.68627751,7.80726475 5.68627751,7.82701831 5.68627751,7.84678769 C5.68627751,7.84678769 5.68627751,7.86994172 5.66318001,7.86994172 C5.64008252,7.86994172 5.61700667,7.89309576 5.61700667,7.86994172 C5.57083333,7.86994172 5.54773584,7.84678769 5.5015625,7.82365535 C5.47846501,7.82365535 5.47846501,7.80050132 5.47846501,7.80050132 C5.47619045,7.79594321 5.47369212,7.79160943 5.47099204,7.7875 L5.70065436,7.7875 Z M2.11587237,3.5 C2.13253213,3.45213402 2.13747873,3.40426805 2.15340007,3.35640207 L2.15340007,3.33313953 C2.15340007,3.26369913 2.17649756,3.21741276 2.2226709,3.17110469 C2.2226709,3.21739106 2.26884424,3.24054509 2.2226709,3.28683146 C2.1995734,3.3099855 2.1995734,3.35627187 2.17649756,3.37942591 L2.17649756,3.40257994 C2.17649756,3.43504833 2.17649756,3.4675274 2.17649756,3.50000217 L2.11587237,3.5 Z" id="Combined-Shape"></path>
                </g>
            </g>
            <path d="M12.25,8.2875 C5.02517478,8.2875 0.941841449,8.2875 0,8.2875 L0,4 C7.12058536,4 11.2039187,4 12.25,4 L12.25,8.2875 Z M3.59234708,7.41666667 L4.16587655,7.41666667 L4.72213103,5.48532347 L4.20560901,5.48532347 L3.97412423,6.34043517 C3.96260751,6.39110871 3.94360522,6.48871139 3.91711678,6.63324615 C3.89062834,6.7777809 3.87220187,6.89150674 3.86183683,6.97442708 L3.85147184,6.97442708 C3.85032017,6.94218028 3.84600147,6.89928117 3.8385156,6.84572845 C3.83102974,6.79217573 3.82268025,6.73747216 3.81346688,6.6816161 C3.8042535,6.62576004 3.79475236,6.57307187 3.78496315,6.52355 C3.77517395,6.47402813 3.76797611,6.43659937 3.76336942,6.4112626 L3.53706713,5.48532347 L2.95662767,5.48532347 L2.7182329,6.4112626 L2.69059292,6.55809997 C2.65489111,6.74812574 2.63473716,6.88690006 2.63013048,6.97442708 L2.61976549,6.97442708 C2.58291201,6.70493598 2.5466349,6.49360746 2.51093309,6.34043517 L2.2880858,5.48532347 L1.76292629,5.48532347 L2.31227078,7.41666667 L2.87889025,7.41666667 L3.23129992,5.88783059 L3.24339241,5.88783059 L3.44378222,6.7412148 L3.59234708,7.41666667 Z M6.62065176,7.41666667 L7.19418122,7.41666667 L7.7504357,5.48532347 L7.23391369,5.48532347 L7.0024289,6.34043517 C6.99091219,6.39110871 6.9719099,6.48871139 6.94542145,6.63324615 C6.91893301,6.7777809 6.90050655,6.89150674 6.89014151,6.97442708 L6.87977652,6.97442708 C6.87862484,6.94218028 6.87430614,6.89928117 6.86682028,6.84572845 C6.85933441,6.79217573 6.85098492,6.73747216 6.84177155,6.6816161 C6.83255818,6.62576004 6.82305703,6.57307187 6.81326783,6.52355 C6.80347862,6.47402813 6.79628078,6.43659937 6.7916741,6.4112626 L6.56537181,5.48532347 L5.98493235,5.48532347 L5.74653757,6.4112626 L5.7188976,6.55809997 C5.68319579,6.74812574 5.66304184,6.88690006 5.65843515,6.97442708 L5.64807016,6.97442708 C5.61121668,6.70493598 5.57493958,6.49360746 5.53923777,6.34043517 L5.31639047,5.48532347 L4.79123096,5.48532347 L5.34057545,7.41666667 L5.90719492,7.41666667 L6.25960459,5.88783059 L6.27169708,5.88783059 L6.4720869,6.7412148 L6.62065176,7.41666667 Z M9.64895643,7.41666667 L10.2224859,7.41666667 L10.7787404,5.48532347 L10.2622184,5.48532347 L10.0307336,6.34043517 C10.0192169,6.39110871 10.0002146,6.48871139 9.97372613,6.63324615 C9.94723769,6.7777809 9.92881122,6.89150674 9.91844618,6.97442708 L9.90808119,6.97442708 C9.90692952,6.94218028 9.90261082,6.89928117 9.89512495,6.84572845 C9.88763909,6.79217573 9.8792896,6.73747216 9.87007623,6.6816161 C9.86086286,6.62576004 9.85136171,6.57307187 9.8415725,6.52355 C9.8317833,6.47402813 9.82458546,6.43659937 9.81997877,6.4112626 L9.59367648,5.48532347 L9.01323703,5.48532347 L8.77484225,6.4112626 L8.74720227,6.55809997 C8.71150046,6.74812574 8.69134652,6.88690006 8.68673983,6.97442708 L8.67637484,6.97442708 C8.63952136,6.70493598 8.60324425,6.49360746 8.56754244,6.34043517 L8.34469515,5.48532347 L7.81953564,5.48532347 L8.36888013,7.41666667 L8.9354996,7.41666667 L9.28790927,5.88783059 L9.30000176,5.88783059 L9.50039157,6.7412148 L9.64895643,7.41666667 Z" id="Combined-Shape" fill="#D10303" fill-rule="nonzero"></path>
            <g id="Group-32" transform="translate(8.000000, 10.000000)">
                <g id="Group-31" transform="translate(0.600529, 0.611842)"></g>
            </g>
        </g>
        <g id="Group-7" transform="translate(10.000000, 11.000000)">
            <path d="M2.52359573,3.5614579 L2.14647212,3.93858152 L2.53930922,4.33141862 L4.4249273,2.44580054 L4.0320902,2.05296344 L2.52359573,3.5614579 L1.73792153,2.7757837 L1.36079792,3.15290732 L2.53930922,4.33141862 L2.91643283,3.954295 L2.52359573,3.5614579 Z M3,6 C1.34314575,6 0,4.65685425 0,3 C0,1.34314575 1.34314575,0 3,0 C4.65685425,0 6,1.34314575 6,3 C6,4.65685425 4.65685425,6 3,6 Z" id="Combined-Shape" fill="#D10303"></path>
            <g id="Group-35" transform="translate(3.128565, 2.799354) rotate(-45.000000) translate(-3.128565, -2.799354) translate(1.628565, 1.799354)"></g>
        </g>
    </g>
</svg>