<?xml version="1.0" encoding="UTF-8"?>
<svg width="20px" height="20px" viewBox="0 0 20 20" version="1.1" xmlns="http://www.w3.org/2000/svg" xmlns:xlink="http://www.w3.org/1999/xlink">
    <!-- Generator: Sketch 55.2 (78181) - https://sketchapp.com -->
    <title>emails-email-logs-mono</title>
    <desc>Created with Sketch.</desc>
    <g id="emails-email-logs-mono" stroke="none" stroke-width="1" fill="none" fill-rule="evenodd">
        <path d="M12.2791226,10.2233147 C11.8058253,10.6123208 11.4364144,11.1231078 11.2187975,11.7077683 L2,11.7077683 L2,5.42857143 L7.13956131,10.5002304 L12.2791226,5.42857143 L12.2791226,10.2233147 Z M11.0311247,13.3973698 C10.9954833,13.4063292 10.9601125,13.4167269 10.9251111,13.4285714 L3,13.4285714 L3,11.9285714 L11.1449393,11.9285714 C11.0506388,12.2454261 11,12.5810851 11,12.9285714 C11,13.0875354 11.0105975,13.2440242 11.0311247,13.3973698 Z M12.5,10.0559161 L12.5,6.42857143 L14,6.42857143 L14,9.46401586 C13.4479714,9.54297737 12.9374963,9.75075253 12.5,10.0559161 Z M2,5 L12.2791226,5 L7.13956131,10.071659 L2,5 Z" id="Combined-Shape" fill="#D10303"></path>
        <g id="Group-25" transform="translate(11.300000, 9.600000)" fill="#D10303" fill-rule="nonzero">
            <path d="M3.5,0.557033898 C5.1637069,0.557033898 6.51724138,1.88762712 6.51724138,3.52313559 C6.51724138,5.15864407 5.1637069,6.48923729 3.5,6.48923729 C1.8362931,6.48923729 0.482758621,5.15864407 0.482758621,3.52313559 C0.482758621,1.88762712 1.8362931,0.557033898 3.5,0.557033898 L3.5,0.557033898 Z M3.5,0.0824576271 C1.56703448,0.0824576271 0,1.6229322 0,3.52313559 C0,5.42333898 1.56703448,6.96381356 3.5,6.96381356 C5.43296552,6.96381356 7,5.42333898 7,3.52313559 C7,1.6229322 5.43296552,0.0824576271 3.5,0.0824576271 L3.5,0.0824576271 Z" id="Shape"></path>
            <g id="Group" transform="translate(0.724138, 0.711864)">
                <path d="M2.77586207,0.0679830508 C2.70924138,0.0679830508 2.65517241,0.121016949 2.65517241,0.186627119 L2.65517241,0.305271186 C2.65517241,0.370881356 2.70924138,0.423915254 2.77586207,0.423915254 C2.84248276,0.423915254 2.89655172,0.370881356 2.89655172,0.305271186 L2.89655172,0.186627119 C2.89655172,0.121135593 2.84248276,0.0679830508 2.77586207,0.0679830508 Z" id="Shape"></path>
                <path d="M2.77586207,5.16967797 C2.70924138,5.16967797 2.65517241,5.22271186 2.65517241,5.28832203 L2.65517241,5.4069661 C2.65517241,5.47257627 2.70924138,5.52561017 2.77586207,5.52561017 C2.84248276,5.52561017 2.89655172,5.47257627 2.89655172,5.4069661 L2.89655172,5.28832203 C2.89655172,5.22283051 2.84248276,5.16967797 2.77586207,5.16967797 Z" id="Shape"></path>
                <path d="M5.43103448,2.67815254 L5.31034483,2.67815254 C5.24372414,2.67815254 5.18965517,2.73118644 5.18965517,2.79679661 C5.18965517,2.86240678 5.24372414,2.91544068 5.31034483,2.91544068 L5.43103448,2.91544068 C5.49765517,2.91544068 5.55172414,2.86240678 5.55172414,2.79679661 C5.55172414,2.73118644 5.49765517,2.67815254 5.43103448,2.67815254 Z" id="Shape"></path>
                <path d="M0.24137931,2.67815254 L0.120689655,2.67815254 C0.0540689655,2.67815254 0,2.73118644 0,2.79679661 C0,2.86240678 0.0540689655,2.91544068 0.120689655,2.91544068 L0.24137931,2.91544068 C0.308,2.91544068 0.362068966,2.86240678 0.362068966,2.79679661 C0.362068966,2.73118644 0.308,2.67815254 0.24137931,2.67815254 Z" id="Shape"></path>
                <path d="M4.56798276,0.867288136 L4.48265517,0.951169492 C4.43546552,0.997559322 4.43546552,1.07254237 4.48265517,1.1189322 C4.50618966,1.1420678 4.53708621,1.15369492 4.56798276,1.15369492 C4.59887931,1.15369492 4.62977586,1.1420678 4.65331034,1.1189322 L4.73863793,1.03505085 C4.78582759,0.988661017 4.78582759,0.913677966 4.73863793,0.867288136 C4.69144828,0.820898305 4.61517241,0.820898305 4.56798276,0.867288136 Z" id="Shape"></path>
                <path d="M0.898413793,4.47477966 L0.813086207,4.55866102 C0.765896552,4.60505085 0.765896552,4.6800339 0.813086207,4.72642373 C0.83662069,4.74955932 0.867517241,4.76118644 0.898413793,4.76118644 C0.929310345,4.76118644 0.960206897,4.74955932 0.983741379,4.72642373 L1.06906897,4.64254237 C1.11625862,4.59615254 1.11625862,4.52116949 1.06906897,4.47477966 C1.02187931,4.42838983 0.945482759,4.42838983 0.898413793,4.47477966 Z" id="Shape"></path>
                <path d="M4.65331034,4.47477966 C4.60612069,4.42838983 4.52984483,4.42838983 4.48265517,4.47477966 C4.43546552,4.52116949 4.43546552,4.59615254 4.48265517,4.64254237 L4.56798276,4.72642373 C4.59151724,4.74955932 4.62241379,4.76118644 4.65331034,4.76118644 C4.6842069,4.76118644 4.71510345,4.74955932 4.73863793,4.72642373 C4.78582759,4.6800339 4.78582759,4.60505085 4.73863793,4.55866102 L4.65331034,4.47477966 Z" id="Shape"></path>
                <path d="M0.983741379,0.867288136 C0.936551724,0.820898305 0.860275862,0.820898305 0.813086207,0.867288136 C0.765896552,0.913677966 0.765896552,0.988661017 0.813086207,1.03505085 L0.898413793,1.1189322 C0.921948276,1.1420678 0.952844828,1.15369492 0.983741379,1.15369492 C1.01463793,1.15369492 1.04553448,1.1420678 1.06906897,1.1189322 C1.11625862,1.07254237 1.11625862,0.997559322 1.06906897,0.951169492 L0.983741379,0.867288136 Z" id="Shape"></path>
            </g>
            <path d="M3.13793103,3.62742373 L2.17241379,3.62742373 C2.1057931,3.62742373 2.05172414,3.57438983 2.05172414,3.50877966 C2.05172414,3.44316949 2.1057931,3.39013559 2.17241379,3.39013559 L3.13793103,3.39013559 C3.20455172,3.39013559 3.25862069,3.44316949 3.25862069,3.50877966 C3.25862069,3.57438983 3.20455172,3.62742373 3.13793103,3.62742373 Z" id="Shape"></path>
            <path d="M3.5,3.27149153 C3.43337931,3.27149153 3.37931034,3.21845763 3.37931034,3.15284746 L3.37931034,1.84776271 C3.37931034,1.78215254 3.43337931,1.72911864 3.5,1.72911864 C3.56662069,1.72911864 3.62068966,1.78215254 3.62068966,1.84776271 L3.62068966,3.15284746 C3.62068966,3.21833898 3.56662069,3.27149153 3.5,3.27149153 Z" id="Shape"></path>
            <path d="M3.5,3.98335593 C3.23375862,3.98335593 3.01724138,3.77050847 3.01724138,3.50877966 C3.01724138,3.24705085 3.23375862,3.03420339 3.5,3.03420339 C3.76624138,3.03420339 3.98275862,3.24705085 3.98275862,3.50877966 C3.98275862,3.77050847 3.76624138,3.98335593 3.5,3.98335593 Z M3.5,3.27149153 C3.36687931,3.27149153 3.25862069,3.37791525 3.25862069,3.50877966 C3.25862069,3.63964407 3.36687931,3.7460678 3.5,3.7460678 C3.63312069,3.7460678 3.74137931,3.63964407 3.74137931,3.50877966 C3.74137931,3.37791525 3.63312069,3.27149153 3.5,3.27149153 Z" id="Shape"></path>
        </g>
    </g>
</svg>