<?xml version="1.0" encoding="UTF-8"?>
<svg width="20px" height="20px" viewBox="0 0 20 20" version="1.1" xmlns="http://www.w3.org/2000/svg" xmlns:xlink="http://www.w3.org/1999/xlink">
    <!-- Generator: Sketch 55.2 (78181) - https://sketchapp.com -->
    <title>emails-auto-responders-mono</title>
    <desc>Created with Sketch.</desc>
    <g id="emails-auto-responders-mono" stroke="none" stroke-width="1" fill="none" fill-rule="evenodd">
        <g id="auto_responders_icon" transform="translate(3.000000, 2.000000)">
            <path d="M11.4027586,0.5 L6.70841379,0.5 C5.17058621,0.5 3.88017241,1.54565517 3.5,2.96351724 C3.68031034,2.93334483 3.86424138,2.9137931 4.05324138,2.9137931 L8.74758621,2.9137931 C10.584,2.9137931 12.0728276,4.40237931 12.0728276,6.23903448 L12.0728276,8.97748276 C12.0728276,9.28137931 12.0286552,9.57513793 11.9521379,9.85586207 C13.5107241,9.56789655 14.728,8.1942069 14.728,6.56368966 L14.728,3.82524138 C14.728,1.98858621 13.2391724,0.5 11.4027586,0.5 Z" id="Shape" fill="#D10303" fill-rule="nonzero"></path>
            <g id="Group-20" transform="translate(0.000000, 3.333333)">
                <path d="M8.01958621,0.199701149 C9.856,0.199701149 11.3448276,1.68828736 11.3448276,3.52494253 L11.3448276,6.2633908 C11.3448276,8.0998046 9.856,9.61349425 8.01958621,9.61349425 L7.67127586,9.61349425 C6.2662069,9.61349425 4.91858621,10.1467011 3.92506897,11.1402184 L3.55793103,11.5073563 C3.472,11.593046 3.37931034,11.5322184 3.37931034,11.4108046 L3.37931034,9.61349425 C1.54289655,9.61349425 3.90798505e-14,8.0998046 3.90798505e-14,6.2633908 L3.90798505e-14,3.52494253 C3.90798505e-14,1.68828736 1.48882759,0.199701149 3.32524138,0.199701149 L8.01958621,0.199701149 Z M2.89655172,5.75142529 C3.29648206,5.75142529 3.62068966,5.42721769 3.62068966,5.02728736 C3.62068966,4.62735702 3.29648206,4.30314943 2.89655172,4.30314943 C2.49662139,4.30314943 2.17241379,4.62735702 2.17241379,5.02728736 C2.17241379,5.42721769 2.49662139,5.75142529 2.89655172,5.75142529 Z M5.79310345,5.75142529 C6.19303378,5.75142529 6.51724138,5.42721769 6.51724138,5.02728736 C6.51724138,4.62735702 6.19303378,4.30314943 5.79310345,4.30314943 C5.39317311,4.30314943 5.06896552,4.62735702 5.06896552,5.02728736 C5.06896552,5.42721769 5.39317311,5.75142529 5.79310345,5.75142529 Z M8.68965517,5.75142529 C9.08958551,5.75142529 9.4137931,5.42721769 9.4137931,5.02728736 C9.4137931,4.62735702 9.08958551,4.30314943 8.68965517,4.30314943 C8.28972484,4.30314943 7.96551724,4.62735702 7.96551724,5.02728736 C7.96551724,5.42721769 8.28972484,5.75142529 8.68965517,5.75142529 Z" id="Combined-Shape" fill="#D10303" fill-rule="nonzero"></path>
                <g id="Group-3" transform="translate(2.000000, 4.000000)"></g>
            </g>
        </g>
    </g>
</svg>