<?xml version="1.0" encoding="UTF-8"?>
<svg width="20px" height="20px" viewBox="0 0 20 20" version="1.1" xmlns="http://www.w3.org/2000/svg" xmlns:xlink="http://www.w3.org/1999/xlink">
    <!-- Generator: Sketch 55.2 (78181) - https://sketchapp.com -->
    <title>files-error-logs-mono</title>
    <desc>Created with Sketch.</desc>
    <g id="files-error-logs-mono" stroke="none" stroke-width="1" fill="none" fill-rule="evenodd">
        <g id="Group-2" transform="translate(3.000000, 3.000000)" fill="#D10303" fill-rule="nonzero">
            <path d="M8.60454903,12.9458743 L4.39103314,12.9458743 C4.33707992,12.9458743 4.31587524,12.8712036 4.3611501,12.8395719 L4.79575049,12.5299503 C5.26503704,12.1957507 5.48669006,11.5835336 5.34982846,11 L8.00342637,11 C8.03275392,11.7120378 8.24910811,12.3766426 8.60454903,12.9458743 Z M8.001443,10.7251095 L0.842947368,10.7251095 C0.377508772,10.7251095 -7.63833441e-14,10.3442063 -7.63833441e-14,9.87427688 L-7.63833441e-14,0.873674731 C-7.63833441e-14,0.403745296 0.377508772,0.0228420699 0.842947368,0.0228420699 L13.1300078,0.0228420699 C13.5954464,0.0228420699 13.9727096,0.403745296 13.9727096,0.873674731 L13.9727096,7.35446894 C13.3902311,7.0228736 12.7168328,6.83333333 12,6.83333333 C11.5802682,6.83333333 11.1754281,6.89831779 10.7950124,7.0187539 L7.14500961,2 L3.37377345,7.18544973 L10.3593125,7.18544973 C9.00058276,7.79897068 8.04349134,9.1499922 8.001443,10.7251095 Z M1.11219509,0.66829264 C1.23522437,0.66829264 1.33495931,0.568557705 1.33495931,0.445528427 C1.33495931,0.322499149 1.23522437,0.222764213 1.11219509,0.222764213 C0.989165816,0.222764213 0.88943088,0.322499149 0.88943088,0.445528427 C0.88943088,0.568557705 0.989165816,0.66829264 1.11219509,0.66829264 Z M1.78048773,0.66829264 C1.90351701,0.66829264 2.00325195,0.568557705 2.00325195,0.445528427 C2.00325195,0.322499149 1.90351701,0.222764213 1.78048773,0.222764213 C1.65745846,0.222764213 1.55772352,0.322499149 1.55772352,0.445528427 C1.55772352,0.568557705 1.65745846,0.66829264 1.78048773,0.66829264 Z M2.44878037,0.66829264 C2.57180965,0.66829264 2.67154459,0.568557705 2.67154459,0.445528427 C2.67154459,0.322499149 2.57180965,0.222764213 2.44878037,0.222764213 C2.3257511,0.222764213 2.22601616,0.322499149 2.22601616,0.445528427 C2.22601616,0.568557705 2.3257511,0.66829264 2.44878037,0.66829264 Z M7.36756453,5.64828567 L6.97699214,5.64828567 L6.86026936,3.59999593 L7.48204265,3.59999593 L7.36756453,5.64828567 Z M6.83333333,6.29013678 C6.83333333,6.19087404 6.86251374,6.11542208 6.92087542,6.06377863 C6.9792371,6.01213518 7.06228902,5.98631384 7.17003367,5.98631384 C7.27628186,5.98631384 7.35783735,6.0131412 7.41470258,6.06679674 C7.47156781,6.12045227 7.5,6.1948982 7.5,6.29013678 C7.5,6.38537535 7.4711937,6.46082731 7.41358025,6.51649492 C7.35596679,6.57216254 7.27478541,6.59999593 7.17003367,6.59999593 C7.06378548,6.59999593 6.98110767,6.57316857 6.92199776,6.51951303 C6.86288785,6.4658575 6.83333333,6.38939951 6.83333333,6.29013678 Z" id="Combined-Shape"></path>
            <g id="Group-25" transform="translate(8.500000, 7.233333)">
                <path d="M3.66666667,0.583559322 C5.4095977,0.583559322 6.82758621,1.97751412 6.82758621,3.69090395 C6.82758621,5.40429379 5.4095977,6.79824859 3.66666667,6.79824859 C1.92373563,6.79824859 0.505747126,5.40429379 0.505747126,3.69090395 C0.505747126,1.97751412 1.92373563,0.583559322 3.66666667,0.583559322 L3.66666667,0.583559322 Z M3.66666667,0.0863841808 C1.64165517,0.0863841808 0,1.70021469 0,3.69090395 C0,5.68159322 1.64165517,7.29542373 3.66666667,7.29542373 C5.69167816,7.29542373 7.33333333,5.68159322 7.33333333,3.69090395 C7.33333333,1.70021469 5.69167816,0.0863841808 3.66666667,0.0863841808 L3.66666667,0.0863841808 Z" id="Shape"></path>
                <g id="Group" transform="translate(0.758621, 0.745763)">
                    <path d="M2.90804598,0.071220339 C2.83825287,0.071220339 2.7816092,0.126779661 2.7816092,0.195514124 L2.7816092,0.31980791 C2.7816092,0.388542373 2.83825287,0.444101695 2.90804598,0.444101695 C2.97783908,0.444101695 3.03448276,0.388542373 3.03448276,0.31980791 L3.03448276,0.195514124 C3.03448276,0.126903955 2.97783908,0.071220339 2.90804598,0.071220339 Z" id="Shape"></path>
                    <path d="M2.90804598,5.41585311 C2.83825287,5.41585311 2.7816092,5.47141243 2.7816092,5.54014689 L2.7816092,5.66444068 C2.7816092,5.73317514 2.83825287,5.78873446 2.90804598,5.78873446 C2.97783908,5.78873446 3.03448276,5.73317514 3.03448276,5.66444068 L3.03448276,5.54014689 C3.03448276,5.47153672 2.97783908,5.41585311 2.90804598,5.41585311 Z" id="Shape"></path>
                    <path d="M5.68965517,2.80568362 L5.56321839,2.80568362 C5.49342529,2.80568362 5.43678161,2.86124294 5.43678161,2.9299774 C5.43678161,2.99871186 5.49342529,3.05427119 5.56321839,3.05427119 L5.68965517,3.05427119 C5.75944828,3.05427119 5.81609195,2.99871186 5.81609195,2.9299774 C5.81609195,2.86124294 5.75944828,2.80568362 5.68965517,2.80568362 Z" id="Shape"></path>
                    <path d="M0.252873563,2.80568362 L0.126436782,2.80568362 C0.0566436782,2.80568362 0,2.86124294 0,2.9299774 C0,2.99871186 0.0566436782,3.05427119 0.126436782,3.05427119 L0.252873563,3.05427119 C0.322666667,3.05427119 0.379310345,2.99871186 0.379310345,2.9299774 C0.379310345,2.86124294 0.322666667,2.80568362 0.252873563,2.80568362 Z" id="Shape"></path>
                    <path d="M4.78550575,0.908587571 L4.69611494,0.996463277 C4.64667816,1.04506215 4.64667816,1.12361582 4.69611494,1.17221469 C4.72077011,1.19645198 4.75313793,1.20863277 4.78550575,1.20863277 C4.81787356,1.20863277 4.85024138,1.19645198 4.87489655,1.17221469 L4.96428736,1.08433898 C5.01372414,1.03574011 5.01372414,0.957186441 4.96428736,0.908587571 C4.91485057,0.859988701 4.83494253,0.859988701 4.78550575,0.908587571 Z" id="Shape"></path>
                    <path d="M0.941195402,4.68786441 L0.851804598,4.77574011 C0.802367816,4.82433898 0.802367816,4.90289266 0.851804598,4.95149153 C0.87645977,4.97572881 0.908827586,4.9879096 0.941195402,4.9879096 C0.973563218,4.9879096 1.00593103,4.97572881 1.03058621,4.95149153 L1.11997701,4.86361582 C1.16941379,4.81501695 1.16941379,4.73646328 1.11997701,4.68786441 C1.07054023,4.63926554 0.990505747,4.63926554 0.941195402,4.68786441 Z" id="Shape"></path>
                    <path d="M4.87489655,4.68786441 C4.82545977,4.63926554 4.74555172,4.63926554 4.69611494,4.68786441 C4.64667816,4.73646328 4.64667816,4.81501695 4.69611494,4.86361582 L4.78550575,4.95149153 C4.81016092,4.97572881 4.84252874,4.9879096 4.87489655,4.9879096 C4.90726437,4.9879096 4.93963218,4.97572881 4.96428736,4.95149153 C5.01372414,4.90289266 5.01372414,4.82433898 4.96428736,4.77574011 L4.87489655,4.68786441 Z" id="Shape"></path>
                    <path d="M1.03058621,0.908587571 C0.981149425,0.859988701 0.901241379,0.859988701 0.851804598,0.908587571 C0.802367816,0.957186441 0.802367816,1.03574011 0.851804598,1.08433898 L0.941195402,1.17221469 C0.965850575,1.19645198 0.998218391,1.20863277 1.03058621,1.20863277 C1.06295402,1.20863277 1.09532184,1.19645198 1.11997701,1.17221469 C1.16941379,1.12361582 1.16941379,1.04506215 1.11997701,0.996463277 L1.03058621,0.908587571 Z" id="Shape"></path>
                </g>
                <path d="M3.28735632,3.80015819 L2.27586207,3.80015819 C2.20606897,3.80015819 2.14942529,3.74459887 2.14942529,3.67586441 C2.14942529,3.60712994 2.20606897,3.55157062 2.27586207,3.55157062 L3.28735632,3.55157062 C3.35714943,3.55157062 3.4137931,3.60712994 3.4137931,3.67586441 C3.4137931,3.74459887 3.35714943,3.80015819 3.28735632,3.80015819 Z" id="Shape"></path>
                <path d="M3.66666667,3.42727684 C3.59687356,3.42727684 3.54022989,3.37171751 3.54022989,3.30298305 L3.54022989,1.93575141 C3.54022989,1.86701695 3.59687356,1.81145763 3.66666667,1.81145763 C3.73645977,1.81145763 3.79310345,1.86701695 3.79310345,1.93575141 L3.79310345,3.30298305 C3.79310345,3.37159322 3.73645977,3.42727684 3.66666667,3.42727684 Z" id="Shape"></path>
                <path d="M3.66666667,4.17303955 C3.38774713,4.17303955 3.16091954,3.9500565 3.16091954,3.67586441 C3.16091954,3.40167232 3.38774713,3.17868927 3.66666667,3.17868927 C3.94558621,3.17868927 4.17241379,3.40167232 4.17241379,3.67586441 C4.17241379,3.9500565 3.94558621,4.17303955 3.66666667,4.17303955 Z M3.66666667,3.42727684 C3.5272069,3.42727684 3.4137931,3.53876836 3.4137931,3.67586441 C3.4137931,3.81296045 3.5272069,3.92445198 3.66666667,3.92445198 C3.80612644,3.92445198 3.91954023,3.81296045 3.91954023,3.67586441 C3.91954023,3.53876836 3.80612644,3.42727684 3.66666667,3.42727684 Z" id="Shape"></path>
            </g>
        </g>
    </g>
</svg>