<?xml version="1.0" encoding="UTF-8"?>
<svg width="20px" height="20px" viewBox="0 0 20 20" version="1.1" xmlns="http://www.w3.org/2000/svg" xmlns:xlink="http://www.w3.org/1999/xlink">
    <!-- Generator: Sketch 55.2 (78181) - https://sketchapp.com -->
    <title>files-ftp-accounts-mono</title>
    <desc>Created with Sketch.</desc>
    <g id="files-ftp-accounts-mono" stroke="none" stroke-width="1" fill="none" fill-rule="evenodd">
        <g id="Group" transform="translate(3.000000, 4.000000)">
            <g id="ftp_access_icon">
                <g id="databases_icon">
                    <g id="Group-46" fill="#D10303">
                        <g id="Group-45">
                            <path d="M12.0465116,6.04241704 C11.868439,6.01449518 11.6859122,6 11.5,6 C9.56700338,6 8,7.56700338 8,9.5 C8,10.3674656 8.31558201,11.161223 8.83820096,11.7727273 L0.573643411,11.7727273 C0.256828903,11.7727273 -1.23956993e-14,11.5158984 -1.24344979e-14,11.1990839 L-1.24344979e-14,0.573643411 C-1.24732965e-14,0.256828903 0.256828903,9.89488957e-13 0.573643411,9.8943076e-13 L11.4728682,9.8943076e-13 C11.7896827,9.8824701e-13 12.0465116,0.256828903 12.0465116,0.573643411 L12.0465116,6.04241704 Z M1.97313553,2.74020376 C2.37461598,2.74020376 2.70008019,2.42213646 2.70008019,2.02978056 C2.70008019,1.63742467 2.37461598,1.31935737 1.97313553,1.31935737 C1.57165507,1.31935737 1.24619086,1.63742467 1.24619086,2.02978056 C1.24619086,2.42213646 1.57165507,2.74020376 1.97313553,2.74020376 Z M1.97313553,6.66444619 C2.37461598,6.66444619 2.70008019,6.34637889 2.70008019,5.95402299 C2.70008019,5.56166709 2.37461598,5.24359979 1.97313553,5.24359979 C1.57165507,5.24359979 1.24619086,5.56166709 1.24619086,5.95402299 C1.24619086,6.34637889 1.57165507,6.66444619 1.97313553,6.66444619 Z M1.97313553,10.5886886 C2.37461598,10.5886886 2.70008019,10.2706213 2.70008019,9.87826541 C2.70008019,9.48590951 2.37461598,9.16784222 1.97313553,9.16784222 C1.57165507,9.16784222 1.24619086,9.48590951 1.24619086,9.87826541 C1.24619086,10.2706213 1.57165507,10.5886886 1.97313553,10.5886886 Z" id="Combined-Shape"></path>
                        </g>
                    </g>
                    <g id="Group-46-Copy-2" transform="translate(1.147287, 8.969697)">
                        <g id="Group-45"></g>
                    </g>
                </g>
            </g>
            <g id="Group-34" transform="translate(8.500000, 6.300000)" fill="#D10303" fill-rule="nonzero">
                <path d="M6.32184896,3.31403176 C6.32184896,1.48379844 4.90660156,-4.47641924e-13 3.16092448,-4.47641924e-13 C1.4152474,-4.47641924e-13 -4.26325641e-14,1.48379844 -4.26325641e-14,3.31403176 C-4.26325641e-14,4.33586698 0.446325955,5.24279954 1.13981771,5.85037454 C1.21210069,5.69727945 1.32673177,5.56668437 1.47509332,5.48186514 L2.374477,4.96751872 C2.49247396,4.90014387 2.52873481,4.77044978 2.52873481,4.62949318 L2.52873481,4.2430889 C2.52873481,4.2430889 2.20799696,3.91234646 2.10728299,3.45213519 C2.02382812,3.39557235 1.89654514,3.29771363 1.89654514,3.18613968 L1.89654514,2.76349513 C1.89654514,2.67049181 2.04595703,2.58719928 2.10728299,2.52908471 L2.10728299,1.9179808 C2.10728299,1.9179808 2.07503255,0.883781847 3.16092448,0.883781847 C4.29148003,0.883781847 4.21456597,1.9179808 4.21456597,1.9179808 L4.21456597,2.52908471 C4.27589193,2.58719928 4.42530382,2.67049181 4.42530382,2.76349513 L4.42530382,3.18613968 C4.42530382,3.29771363 4.29802083,3.39559737 4.21456597,3.45213519 C4.11382812,3.91234646 3.79311415,4.2430889 3.79311415,4.2430889 L3.79311415,4.62949318 C3.79311415,4.77044978 3.82935113,4.90014387 3.94737196,4.96751872 L4.84675564,5.48186514 C4.99511719,5.56670939 5.10974826,5.69727945 5.18203125,5.85037454 C5.875523,5.24279954 6.32184896,4.33586698 6.32184896,3.31403176" id="Shape"></path>
            </g>
        </g>
    </g>
</svg>