<?xml version="1.0" encoding="UTF-8"?>
<svg width="20px" height="20px" viewBox="0 0 20 20" version="1.1" xmlns="http://www.w3.org/2000/svg" xmlns:xlink="http://www.w3.org/1999/xlink">
    <!-- Generator: Sketch 55.2 (78181) - https://sketchapp.com -->
    <title>files-backups-mono</title>
    <desc>Created with Sketch.</desc>
    <g id="files-backups-mono" stroke="none" stroke-width="1" fill="none" fill-rule="evenodd">
        <g id="Group" transform="translate(3.000000, 3.000000)" fill="#D10303" fill-rule="nonzero">
            <g id="Group-23">
                <g id="backups_icon">
                    <g id="files_icon-copy-2">
                        <path d="M10.5486447,3.04092689 C10.5486447,2.53618236 10.1358627,2.1232332 9.63138025,2.1232332 L6.87956103,2.1232332 L5.73296753,0.746666667 L1.60522571,0.746666667 C1.21538184,0.746666667 0.917264414,1.06787245 0.917264414,1.43494993 L0.917264414,3.04092689 L10.5486447,3.04092689 Z" id="Shape"></path>
                        <path d="M11.9245413,9.82656883 L10.4522408,8.4 L10.4522408,9.92432247 C8.41191142,9.6998841 7.34239838,11.065784 7.34239838,11.0659175 C7.22439025,11.2127466 7.12256342,11.3573929 7.03493212,11.4989999 L0.687961299,11.4989999 C0.298117429,11.4989999 -5.68434189e-14,11.200743 -5.68434189e-14,10.8107167 L-5.68434189e-14,3.92793601 C-5.68434189e-14,3.53790969 0.298117429,3.23965274 0.687961299,3.23965274 L11.236606,3.23965274 C11.6035117,3.23965274 11.9245413,3.56085853 11.9245413,3.92793601 L11.9245413,9.82656883 Z" id="Combined-Shape"></path>
                        <path d="M12.3626364,4.15737243 C12.9359332,4.15737243 13.3716273,4.70798864 13.2569887,5.25860486 L12.1333333,10.5812803 L12.1333333,4.15737243 L12.3626364,4.15737243 Z" id="Shape"></path>
                    </g>
                </g>
            </g>
            <g id="Group-71" transform="translate(6.533333, 8.400000)">
                <path d="M4.09636795,1.7433501 L4.09636795,0.49122807 L6.20616649,2.53777498 L4.09636795,4.5919157 L4.09636795,3.38503893 C4.09636795,3.38503893 1.49561515,2.77777561 0.148564108,5.01052632 C0.148564108,5.01052632 0.0279889308,3.56649322 1.53249616,2.33165791 C1.53249616,2.33154823 2.42225152,1.55899001 4.09636795,1.7433501 Z" id="Shape"></path>
            </g>
        </g>
    </g>
</svg>