<?xml version="1.0" encoding="UTF-8"?>
<svg width="20px" height="20px" viewBox="0 0 20 20" version="1.1" xmlns="http://www.w3.org/2000/svg" xmlns:xlink="http://www.w3.org/1999/xlink">
    <!-- Generator: Sketch 55.2 (78181) - https://sketchapp.com -->
    <title>files-file-manager-mono</title>
    <desc>Created with Sketch.</desc>
    <g id="files-file-manager-mono" stroke="none" stroke-width="1" fill="none" fill-rule="evenodd">
        <path d="M12,7.49298608 L12,9.83428571 L12,10.7866667 L13,9.83428571 L14,10.7866667 L14,9.83428571 L14,7.49298608 L14.236606,7.49298608 C14.6035117,7.49298608 14.9245413,7.81419186 14.9245413,8.18126934 L14.9245413,15.06405 C14.9245413,15.4540763 14.6264239,15.7523333 14.23658,15.7523333 L3.6879613,15.7523333 C3.29811743,15.7523333 3,15.4540763 3,15.06405 L3,8.18126934 C3,7.79124302 3.29811743,7.49298608 3.6879613,7.49298608 L12,7.49298608 Z M13.5486447,7.29426022 L3.91726441,7.29426022 L3.91726441,5.68828327 C3.91726441,5.32120579 4.21538184,5 4.60522571,5 L8.73296753,5 L9.87956103,6.37656653 L12.6313803,6.37656653 C13.1358627,6.37656653 13.5486447,6.7895157 13.5486447,7.29426022 Z M15.3626364,8.41070576 C15.9359332,8.41070576 16.3716273,8.96132198 16.2569887,9.51193819 L15.1333333,14.8346136 L15.1333333,8.41070576 L15.3626364,8.41070576 Z M6.01627523,14.2533333 L6.01627523,11.3669303 L5.51480713,11.3669303 L4.58491942,12.1072868 L4.87908772,12.4745036 L5.21076741,12.2079752 C5.25025329,12.1763865 5.32066871,12.1099196 5.42201579,12.0085726 L5.41214437,12.3086637 L5.40622152,12.5830892 L5.40622152,14.2533333 L6.01627523,14.2533333 Z" id="Combined-Shape" fill="#D10303" fill-rule="nonzero"></path>
    </g>
</svg>