<svg id="Layer_1" data-name="Layer 1" xmlns="http://www.w3.org/2000/svg" viewBox="0 0 235.47 175.68"><defs><style>.cls-1{fill:#ff3965;}</style></defs><title>honeygain-mono</title><path class="cls-1" d="M175.49,119.9a16.68,16.68,0,1,0,16.69,16.68A16.68,16.68,0,0,0,175.49,119.9Zm-4.22,17.81a5.36,5.36,0,1,1,5.35-5.36A5.36,5.36,0,0,1,171.27,137.71Z" transform="translate(-9.75 -41)"/><path class="cls-1" d="M235.3,63.37a13.26,13.26,0,0,0-15.19,6.86c-14.42,1.84-27.35,8.45-38.08,19.49a64.89,64.89,0,0,0-6.58-1.31,48.4,48.4,0,0,1,13.07-21.66,13.25,13.25,0,1,0-8.64-10.43A62.63,62.63,0,0,0,161.6,87.71H154c-6.17,0-13.24,0-20.81.16L55.1,87.59c-.77,0-1.52-.06-2.28-.06a43.11,43.11,0,0,0-9.71,85.1l0,0L22.56,207.4l42.61-14.52c25.63,16.74,61.6,23.8,100.84,23.8A64.48,64.48,0,0,0,196,95.12a48.82,48.82,0,0,1,25-11.38A13.26,13.26,0,1,0,235.3,63.37Zm-184,96.83a29.47,29.47,0,0,1-19.82-9.12h0a29.13,29.13,0,0,1-3.63-4.64h0c-.51-.8-1-1.62-1.4-2.47l-.07-.13c-.4-.8-.76-1.62-1.09-2.46,0-.1-.09-.19-.12-.29-.3-.78-.55-1.58-.78-2.38l-.15-.49c-.2-.76-.35-1.52-.49-2.29,0-.23-.1-.45-.14-.68-.12-.76-.18-1.53-.24-2.31,0-.24-.07-.48-.08-.73a29.37,29.37,0,0,1,.31-6.07c0-.12.05-.25.07-.37.14-.86.31-1.71.53-2.54l0-.12A29.57,29.57,0,0,1,52.82,101c.52,0,1,0,1.57,0l.33,0h.33l77.86.27L88,139.51h0L73.25,152.07l-.2.17-.2.18a29.42,29.42,0,0,1-20,7.82C52.37,160.24,51.84,160.23,51.32,160.2ZM87,189.38l-.06,0a90.46,90.46,0,0,1-25.47-16.48A43.09,43.09,0,0,0,82,162.37l2.88-2.45a76.39,76.39,0,0,0,4.51,24.7c.4,1.13.82,2.27,1.26,3.41v0c.45,1.15.93,2.3,1.43,3.45Q89.48,190.48,87,189.38Zm23.11,7.76q-1.19-2-2.25-4c-.21-.38-.39-.76-.59-1.14-.51-1-1-2-1.47-2.95l-.55-1.18c-.47-1-.91-2-1.33-3l-.39-.92c-.52-1.31-1-2.61-1.46-3.9h0c-4-11.59-4.7-22.55-2.16-32.8l20.84-17.71-.48,1.33c-.14.39-.27.77-.4,1.16-.2.6-.4,1.19-.58,1.8-.12.38-.24.77-.35,1.17-.18.62-.36,1.24-.52,1.87-.1.37-.19.75-.28,1.13-.17.66-.33,1.31-.47,2-.07.3-.12.61-.18.91-.35,1.71-.65,3.45-.87,5.22a67.33,67.33,0,0,0-.5,7.59,63,63,0,0,0,.5,8.25c.1.85.22,1.7.36,2.54l0,.13a65.43,65.43,0,0,0,3.32,12.33l.21.55c.25.66.52,1.3.79,2,.11.27.23.54.35.8.26.61.53,1.22.81,1.82.15.31.3.61.44.91.29.58.57,1.17.87,1.75l.49.92c.5.93,1,1.86,1.57,2.79.29.48.56,1,.86,1.44s.52.82.78,1.22.64,1,1,1.5l.79,1.17c.37.52.74,1.05,1.12,1.57l.79,1.08,1.34,1.75.69.87c.7.88,1.42,1.75,2.17,2.62A200.34,200.34,0,0,1,110.12,197.14Zm91.14-81.71.25.24c.83.81,1.65,1.65,2.42,2.51h0c.75.84,1.46,1.7,2.15,2.58l.3.37c.7.91,1.37,1.83,2,2.78l.05.07q.9,1.35,1.71,2.76l.3.53c.55,1,1.08,2,1.57,3l.06.13q.67,1.44,1.26,2.91l.27.68c.4,1,.77,2.09,1.1,3.16,0,0,0,.11,0,.16.31,1,.58,2,.82,3.07.07.27.13.53.19.8.24,1.09.46,2.19.63,3.31,0,0,0,.08,0,.12.17,1.08.28,2.17.38,3.26l.06.87c.08,1.14.13,2.29.13,3.46a51,51,0,0,1-51,51c-3.47,0-6.88-.07-10.23-.18-17.46-15.48-26.26-32.07-26.15-49.31.21-29.67,26.36-52.15,26.63-52.37l-.08-.1H166a50.76,50.76,0,0,1,20.3,4.22c1.09.48,2.17,1,3.22,1.55l.14.07a51.11,51.11,0,0,1,6,3.74l.19.14A51.08,51.08,0,0,1,201.26,115.43Z" transform="translate(-9.75 -41)"/></svg>