<?xml version="1.0" encoding="UTF-8"?>
<svg width="65px" height="65px" viewBox="0 0 65 65" version="1.1" xmlns="http://www.w3.org/2000/svg" xmlns:xlink="http://www.w3.org/1999/xlink">
    <!-- Generator: Sketch 59 (86127) - https://sketch.com -->
    <title>Group 9</title>
    <desc>Created with Sketch.</desc>
    <g id="Page-1" stroke="none" stroke-width="1" fill="none" fill-rule="evenodd">
        <g id="Group-9">
            <rect id="Rectangle" x="0" y="0" width="65" height="65"></rect>
            <g id="honeygain-mono" transform="translate(8.000000, 14.000000)" fill="#FF3965" fill-rule="nonzero">
                <path d="M34.1229765,16.5000006 C32.2592795,16.5011185 30.7492558,18.0126515 30.7500003,19.8763483 C30.7507453,21.7400452 32.2619766,23.2503707 34.1256739,23.2499986 C35.9893712,23.2496263 37.4999994,21.7386972 37.4999994,19.8750002 C37.4999994,18.9795441 37.1441426,18.1207932 36.5107697,17.4877999 C35.8773968,16.8548066 35.0184325,16.4994644 34.1229765,16.5000006 L34.1229765,16.5000006 Z M33.2691097,20.1036441 C32.8302741,20.1044609 32.4341938,19.8407429 32.2656911,19.4355466 C32.0971884,19.0303502 32.1894762,18.5635421 32.4994905,18.2529485 C32.8095048,17.9423548 33.2761397,17.8491954 33.6816501,18.0169411 C34.0871605,18.1846868 34.3516185,18.5802739 34.3516185,19.0191102 C34.3516185,19.6172914 33.86729,20.1025262 33.2691097,20.1036441 Z" id="Shape"></path>
                <path d="M46.7084308,4.58061787 C45.4560625,4.25702702 44.1453856,4.84278444 43.5626452,5.98650765 C40.5763234,6.36359762 37.8985744,7.71825234 35.6764362,9.98079216 C35.227188,9.86810836 34.7723501,9.77849807 34.3137457,9.71232049 C34.8023616,8.02135222 35.7365199,6.48935089 37.0204881,5.27331575 C38.1841251,5.68394635 39.4815801,5.27443636 40.1900792,4.27291176 C40.8985783,3.27138715 40.843409,1.9248191 40.0553044,0.983341023 C39.2671998,0.0418629435 37.9405029,-0.262361175 36.8142774,0.240142968 C35.6880518,0.74264711 35.0400195,1.92796439 35.2311802,3.13578946 C33.3547925,4.86297324 32.0374716,7.1015013 31.4454685,9.56886235 L29.8715402,9.56886235 C28.5937589,9.56886235 27.1295915,9.56886235 25.561876,9.60165278 L9.389763,9.54426953 C9.23029922,9.54426953 9.07497735,9.53197312 8.91758452,9.53197312 C4.38261226,9.53745382 0.57225144,12.9065169 0.0581417117,17.3653576 C-0.455968017,21.8241984 2.48952392,25.9560878 6.90668405,26.9723842 L6.90668405,26.9723842 L2.65086483,34.0981549 L11.475218,31.1224232 C16.783084,34.5531222 24.2323208,36 32.3587611,36 C38.5015166,36 43.8517159,31.8525638 45.3230756,25.9507042 C46.7944352,20.0488446 44.0073516,13.9149862 38.5695649,11.0874692 C40.0342394,9.8357319 41.8311733,9.02628164 43.7469605,8.75524976 C44.4394965,9.74398387 45.7065393,10.1644496 46.8614254,9.7887791 C48.0163115,9.41310856 48.7841553,8.33071872 48.7488303,7.1282018 C48.7135052,5.92568487 47.8834194,4.88926358 46.7084308,4.58061787 Z M8.60279886,24.4249775 C7.04334257,24.3445527 5.57436032,23.675649 4.49815959,22.5559229 L4.49815959,22.5559229 C4.21574488,22.2649029 3.9638712,21.9462999 3.74640175,21.6050003 L3.74640175,21.6050003 C3.64078287,21.4410482 3.53930592,21.2729972 3.45646759,21.098798 L3.44197088,21.0721558 C3.35913255,20.9082036 3.28457805,20.7401527 3.21623643,20.5680029 C3.21623643,20.5475089 3.19759781,20.5290643 3.19138493,20.5085703 C3.12925618,20.3487169 3.07748223,20.1847647 3.02985019,20.0208126 L2.99878581,19.9203919 C2.95736665,19.7646373 2.92630227,19.6088828 2.89730886,19.4510788 C2.89730886,19.4039426 2.87659928,19.3588557 2.86831544,19.3117195 C2.84346394,19.1559649 2.83103819,18.998161 2.81861245,18.8383076 C2.81861245,18.789122 2.80411574,18.7399363 2.80204478,18.6887013 C2.77991343,18.2729577 2.8014285,17.8560636 2.86624449,17.4447143 C2.86624449,17.4201214 2.87659928,17.3934792 2.88074119,17.3688864 C2.90973461,17.1926378 2.9449409,17.0184386 2.99050198,16.8483383 L2.99050198,16.8237454 C3.6937594,14.1544135 6.13000765,12.2919127 8.91758452,12.2925175 C9.02527435,12.2925175 9.12468035,12.2925175 9.24272497,12.2925175 L9.31106659,12.2925175 L9.37940821,12.2925175 L25.5038892,12.3478515 L16.2032157,20.1847647 L16.2032157,20.1847647 L13.1485522,22.7588137 L13.1071331,22.7936535 L13.0657139,22.8305427 C11.9384489,23.8621209 10.4591742,24.4344969 8.92379739,24.4331774 C8.8243914,24.4331774 8.71463061,24.4311257 8.60694078,24.4249775 L8.60279886,24.4249775 Z M15.9961198,30.4051325 L15.9836941,30.4051325 C14.0458659,29.5811877 12.2625508,28.4393295 10.7089634,27.027718 C12.2980725,26.7042176 13.7679975,25.958129 14.9606407,24.8696977 L15.5570767,24.3675942 C15.5841417,26.0943651 15.8997379,27.8048056 16.4910789,29.4296172 C16.5739172,29.6611996 16.6608975,29.8948314 16.7520196,30.1284633 L16.7520196,30.1284633 C16.8452127,30.3641445 16.9446187,30.5998257 17.0481666,30.8355069 C16.6892005,30.6988801 16.3385183,30.555422 15.9961198,30.4051325 Z M20.7821044,31.9954685 C20.6178084,31.7222149 20.4624865,31.4489613 20.3161388,31.1757077 C20.2726487,31.0978304 20.2353714,31.0199531 20.1939522,30.9420759 C20.0883334,30.7371357 19.9868564,30.5321955 19.8895214,30.3375023 L19.7756187,30.0956728 C19.6782836,29.8907326 19.5871615,29.6857924 19.5001812,29.4808522 L19.4194139,29.2923072 C19.311724,29.0238356 19.212318,28.7574133 19.1170539,28.4930405 L19.1170539,28.4930405 C18.2886706,26.1177835 18.1437036,23.8716389 18.669727,21.7710019 L22.985604,18.1415109 L22.886198,18.4140814 C22.8572046,18.4940081 22.8302821,18.5718854 22.8033596,18.651812 C22.7619405,18.7747762 22.7205213,18.8956909 22.6832441,19.0207044 C22.6583926,19.0985817 22.6335411,19.1785083 22.6107605,19.2604844 C22.5734833,19.3875474 22.536206,19.5146103 22.5030707,19.6437226 C22.4823611,19.7195505 22.4637225,19.7974278 22.4450839,19.875305 C22.4098776,20.0105656 22.3767422,20.1437767 22.3477488,20.2851854 C22.3332521,20.3466675 22.3228973,20.410199 22.3104716,20.471681 C22.237988,20.8221288 22.1758593,21.1787247 22.1302982,21.5414689 C22.06619,22.0576224 22.0316189,22.5769496 22.0267503,23.096965 C22.0238308,23.6621859 22.0584212,24.2269866 22.1302982,24.7877216 C22.1510078,24.9619208 22.1758593,25.13612 22.2048527,25.3082697 L22.2048527,25.334912 C22.3502364,26.1973854 22.5805188,27.0437189 22.8924109,27.8618246 L22.935901,27.9745418 C22.9876749,28.1098023 23.0435908,28.240964 23.0995067,28.3844222 C23.1222872,28.439756 23.1471387,28.4950899 23.1719902,28.5483743 C23.2258351,28.6733878 23.281751,28.7984014 23.3397378,28.9213655 C23.3708022,28.9848969 23.4018666,29.046379 23.43086,29.1078611 C23.4909178,29.2267264 23.5489046,29.3476411 23.6110334,29.4665064 L23.7125103,29.6550514 C23.8160582,29.8456458 23.9196062,30.0362402 24.0376508,30.2268346 C24.0977086,30.3252059 24.1536244,30.4317748 24.2157532,30.5219484 C24.2778819,30.6121221 24.323443,30.6899994 24.3772879,30.7719755 C24.4311328,30.8539516 24.5098293,30.9769157 24.5843838,31.0793858 L24.7479895,31.3191658 C24.8246149,31.4257347 24.9012404,31.534353 24.9799368,31.6409219 L25.1435425,31.8622574 L25.4210509,32.2209027 L25.563947,32.3992007 C25.7089141,32.5795481 25.8580231,32.757846 26.013345,32.936144 C24.2517641,32.7335031 22.5051248,32.4193 20.7841753,31.9954685 L20.7821044,31.9954685 Z M39.656818,15.2498047 L39.7085919,15.2989904 C39.8804815,15.4649919 40.0503,15.6371417 40.2097638,15.8133903 L40.2097638,15.8133903 C40.3650857,15.98554 40.5121237,16.1617886 40.6550198,16.342136 L40.7171486,16.4179639 C40.8621157,16.6044594 41.0008699,16.7930044 41.1313402,16.9876976 L41.141695,17.0020434 C41.2659525,17.1864896 41.3839972,17.3750346 41.4958289,17.5676784 L41.5579576,17.6762967 C41.6718603,17.8812369 41.7816211,18.0861771 41.8830981,18.2911173 L41.8955238,18.3177595 C41.9880266,18.5145021 42.0750069,18.7132941 42.1564646,18.9141355 L42.2123805,19.0534948 C42.2952188,19.258435 42.3718442,19.4818198 42.4401859,19.7011059 C42.4401859,19.7011059 42.4401859,19.7236493 42.4401859,19.7338963 C42.5043856,19.9388365 42.5603014,20.1437767 42.6100044,20.3630627 C42.6245011,20.4183966 42.6369269,20.471681 42.6493526,20.5270149 C42.6990556,20.7503997 42.7446167,20.9758339 42.779823,21.2053669 C42.779823,21.2053669 42.779823,21.2217621 42.779823,21.2299598 C42.8150293,21.4512952 42.8378098,21.67468 42.8585194,21.8980648 L42.8709452,22.0763628 C42.8875128,22.3099946 42.8978676,22.5456758 42.8978676,22.7854559 C42.8978676,28.5579086 38.1691497,33.2374061 32.3359805,33.2374061 C31.617358,33.2374061 30.9111612,33.2230603 30.2173902,33.2005169 C26.6014971,30.0280426 24.7790538,26.6280846 24.8018344,23.0949156 C24.8453245,17.0143398 30.2608803,12.4072841 30.3167962,12.3621973 L30.3002285,12.3417006 L32.3566901,12.3417006 C33.8032428,12.3406724 35.2344438,12.6350961 36.5607354,13.2065509 C36.7864698,13.3049222 37.0101333,13.4114911 37.2275839,13.5242082 L37.2565773,13.538554 C37.6881512,13.7653559 38.103336,14.0214606 38.4991523,14.3050304 L38.5385005,14.333722 C38.9327438,14.6133042 39.3070899,14.9193873 39.6588889,15.2498047 L39.656818,15.2498047 Z" id="Shape"></path>
            </g>
        </g>
    </g>
</svg>