<?xml version="1.0" encoding="UTF-8"?>
<svg width="20px" height="20px" viewBox="0 0 20 20" version="1.1" xmlns="http://www.w3.org/2000/svg" xmlns:xlink="http://www.w3.org/1999/xlink">
    <!-- Generator: Sketch 55.2 (78181) - https://sketchapp.com -->
    <title>other-folder-index-manager-mono</title>
    <desc>Created with Sketch.</desc>
    <g id="other-folder-index-manager-mono" stroke="none" stroke-width="1" fill="none" fill-rule="evenodd">
        <g id="Group-2" transform="translate(3.000000, 4.000000)" fill="#D10303">
            <g id="Group" fill-rule="nonzero">
                <g id="Group-23">
                    <g id="backups_icon">
                        <g id="files_icon-copy-2">
                            <path d="M10.5486447,3.04092689 C10.5486447,2.53618236 10.1358627,2.1232332 9.63138025,2.1232332 L6.87956103,2.1232332 L5.73296753,0.746666667 L1.60522571,0.746666667 C1.21538184,0.746666667 0.917264414,1.06787245 0.917264414,1.43494993 L0.917264414,3.04092689 L10.5486447,3.04092689 Z" id="Shape"></path>
                            <path d="M11.9245413,7.17709336 C11.9156847,7.177365 11.9068365,7.1775 11.898,7.1775 C11.894,7.1775 11.89,7.1765 11.886,7.1765 C11.6035,7.173 11.336,7.0285 11.177,6.79 C11.1095,6.6895 11.0595,6.5735 11.0395,6.4425 L10.9715,6 L10.1635,6 L10.0585,6.544 C10.041,6.6345 10.0045,6.7145 9.964,6.79 C9.8105,7.0735 9.517,7.248 9.2055,7.248 C9.1315,7.248 9.0565,7.235 8.983,7.215 C8.893,7.1905 8.805,7.154 8.7215,7.0975 L8.267,6.79 L8.2635,6.7875 L8.261,6.79 L7.8435,7.2075 L7.692,7.3585 L7.767,7.461 L7.956,7.7185 C8.3325,8.232 8.046,8.962 7.4215,9.0825 L7.11,9.1425 L7,9.1635 L7,9.3675 L7,9.971 L7.4425,10.0395 C7.582,10.061 7.703,10.1165 7.8075,10.191 C8.0355,10.352 8.1685,10.613 8.172,10.8885 C8.174,11.056 8.133,11.227 8.028,11.3815 L7.94823243,11.4989999 L0.687961299,11.4989999 C0.298117429,11.4989999 0,11.200743 0,10.8107167 L0,3.92793601 C0,3.53790969 0.298117429,3.23965274 0.687961299,3.23965274 L11.236606,3.23965274 C11.6035117,3.23965274 11.9245413,3.56085853 11.9245413,3.92793601 L11.9245413,7.17709336 Z" id="Combined-Shape"></path>
                            <path d="M12.8998492,6.95034922 L12.7395,6.79 L12.737,6.7875 L12.733,6.79 L12.382,7.0275 C12.3025318,7.08161156 12.2186902,7.12014288 12.1333333,7.14459446 L12.1333333,4.15737243 L12.3626364,4.15737243 C12.9359332,4.15737243 13.3716273,4.70798864 13.2569887,5.25860486 L12.8998492,6.95034922 Z" id="Combined-Shape"></path>
                        </g>
                    </g>
                </g>
            </g>
            <path d="M10.5381429,10.4968571 C10.4991429,10.4968571 10.4618571,10.4895714 10.4241429,10.4857143 C10.0765714,10.4437143 9.78471429,10.22 9.654,9.90885714 C9.606,9.79485714 9.57942857,9.66928571 9.57942857,9.53814286 C9.57942857,9.00842857 10.0088571,8.579 10.5381429,8.579 C10.6701429,8.579 10.7957143,8.606 10.9097143,8.654 C11.2217143,8.78557143 11.445,9.07828571 11.4857143,9.42714286 C11.4904286,9.464 11.4968571,9.5 11.4968571,9.53814286 C11.4968571,10.0674286 11.0674286,10.4968571 10.5381429,10.4968571 L10.5381429,10.4968571 Z M13.1387143,9.14214286 C12.6034286,9.03885714 12.3578571,8.41314286 12.6805714,7.973 L12.9068571,7.66442857 L12.7495714,7.50714286 L12.4195714,7.17714286 L12.4174286,7.175 L12.414,7.17714286 L12.1131429,7.38071429 C11.9828571,7.46942857 11.8388571,7.50928571 11.6982857,7.50928571 C11.6948571,7.50928571 11.6914286,7.50842857 11.688,7.50842857 C11.4458571,7.50542857 11.2165714,7.38157143 11.0802857,7.17714286 C11.0224286,7.091 10.9795714,6.99157143 10.9624286,6.87928571 L10.9041429,6.5 L10.2115714,6.5 L10.1215714,6.96628571 C10.1065714,7.04385714 10.0752857,7.11242857 10.0405714,7.17714286 C9.909,7.42014286 9.65742857,7.56971429 9.39042857,7.56971429 C9.327,7.56971429 9.26271429,7.55857143 9.19971429,7.54142857 C9.12257143,7.52042857 9.04714286,7.48914286 8.97557143,7.44071429 L8.586,7.17714286 L8.583,7.175 L8.58085714,7.17714286 L8.223,7.535 L8.09314286,7.66442857 L8.15742857,7.75228571 L8.31942857,7.973 C8.64214286,8.41314286 8.39657143,9.03885714 7.86128571,9.14214286 L7.59428571,9.19357143 L7.5,9.21157143 L7.5,9.38642857 L7.5,9.90371429 L7.87928571,9.96242857 C7.99885714,9.98085714 8.10257143,10.0284286 8.19214286,10.0922857 C8.38757143,10.2302857 8.50157143,10.454 8.50457143,10.6901429 C8.50628571,10.8337143 8.47114286,10.9802857 8.38114286,11.1127143 L8.17457143,11.417 L8.50585714,11.7482857 L8.66442857,11.9068571 L8.97342857,11.6801429 C9.10842857,11.5811429 9.261,11.5357143 9.41014286,11.5357143 C9.74785714,11.5357143 10.0705714,11.768 10.1421429,12.1387143 L10.2115714,12.5 L10.9041429,12.5 L10.9448571,12.2338571 C11.0044286,11.8481429 11.3344286,11.6025714 11.6815714,11.6025714 C11.8311429,11.6025714 11.9832857,11.6484286 12.1187143,11.7474286 L12.3355714,11.9068571 L12.8254286,11.417 L12.6188571,11.1127143 C12.3132857,10.6618571 12.5824286,10.0447143 13.1207143,9.96242857 L13.5,9.90371429 L13.5,9.21157143 L13.1387143,9.14214286 Z" id="Fill-15"></path>
        </g>
    </g>
</svg>