<?xml version="1.0" encoding="UTF-8"?>
<svg width="20px" height="20px" viewBox="0 0 20 20" version="1.1" xmlns="http://www.w3.org/2000/svg" xmlns:xlink="http://www.w3.org/1999/xlink">
    <!-- Generator: Sketch 55.2 (78181) - https://sketchapp.com -->
    <title>other-activity-log-mono</title>
    <desc>Created with Sketch.</desc>
    <g id="other-activity-log-mono" stroke="none" stroke-width="1" fill="none" fill-rule="evenodd">
        <g id="Group-2" transform="translate(3.000000, 5.000000)" fill="#D10303" fill-rule="nonzero">
            <path d="M8.43875883,9.03625502 L0.482753906,9.03625502 C0.216042969,9.03625502 1.59872116e-13,8.82939442 1.59872116e-13,8.57401938 L1.59872116e-13,7.88065284 L5.06895703,7.88065284 L5.06895703,8.34288847 L8.14632774,8.34288847 C8.21910695,8.58618532 8.31763869,8.81836221 8.43875883,9.03625502 Z M8.13965988,8.32031996 L5.10342188,8.32031996 L5.10342188,7.85808433 L1,7.85808433 L1,0.462235634 C1,0.206860592 1.21604297,-1.28785871e-13 1.48275391,-1.28785871e-13 L12.5862031,-1.28785871e-13 C12.8529141,-1.28785871e-13 13.068957,0.206860592 13.068957,0.462235634 L13.068957,4.2087444 C12.5970404,3.97168807 12.064105,3.83823529 11.5,3.83823529 C11.3103495,3.83823529 11.1242221,3.85331927 10.9427519,3.88235294 L2.1673913,3.88235294 C2.0749913,3.88235294 2,3.95485357 2,4.04454673 C2,4.1342399 2.0749913,4.20674052 2.1673913,4.20674052 L9.93503854,4.20674052 C9.47074844,4.43922099 9.06535345,4.77191876 8.74721681,5.17647059 L2.1673913,5.17647059 C2.0749913,5.17647059 2,5.24897121 2,5.33866438 C2,5.42835754 2.0749913,5.50085817 2.1673913,5.50085817 L8.52049436,5.50085817 C8.3371313,5.79756956 8.19685091,6.1237223 8.10838135,6.47058824 L2.1673913,6.47058824 C2.0749913,6.47058824 2,6.54308886 2,6.63278203 C2,6.72247519 2.0749913,6.79497582 2.1673913,6.79497582 L8.04190868,6.79497582 C8.01431926,6.97201846 8,7.15345465 8,7.33823529 C8,7.6791798 8.04875006,8.00873812 8.13965988,8.32031996 Z M11.6855072,2.58823529 L2.1673913,2.58823529 C2.0749913,2.58823529 2,2.66073592 2,2.75042908 C2,2.84012225 2.0749913,2.91262287 2.1673913,2.91262287 L11.6855072,2.91262287 C11.7779072,2.91262287 11.8528986,2.84012225 11.8528986,2.75042908 C11.8528986,2.66073592 11.7779072,2.58823529 11.6855072,2.58823529 Z M6.91505479,1.29411765 L2.08494521,1.29411765 C2.03805545,1.29411765 2,1.36661827 2,1.45631144 C2,1.5460046 2.03805545,1.61850523 2.08494521,1.61850523 L6.91505479,1.61850523 C6.96194455,1.61850523 7,1.5460046 7,1.45631144 C7,1.36661827 6.96194455,1.29411765 6.91505479,1.29411765 Z" id="Combined-Shape"></path>
            <g id="Group-25" transform="translate(8.500000, 4.200000)">
                <path d="M3,0.477457627 C4.42603448,0.477457627 5.5862069,1.6179661 5.5862069,3.01983051 C5.5862069,4.42169492 4.42603448,5.56220339 3,5.56220339 C1.57396552,5.56220339 0.413793103,4.42169492 0.413793103,3.01983051 C0.413793103,1.6179661 1.57396552,0.477457627 3,0.477457627 L3,0.477457627 Z M3,0.0706779661 C1.34317241,0.0706779661 0,1.39108475 0,3.01983051 C0,4.64857627 1.34317241,5.96898305 3,5.96898305 C4.65682759,5.96898305 6,4.64857627 6,3.01983051 C6,1.39108475 4.65682759,0.0706779661 3,0.0706779661 L3,0.0706779661 Z" id="Shape"></path>
                <g id="Group" transform="translate(0.620690, 0.610169)">
                    <path d="M2.37931034,0.0582711864 C2.3222069,0.0582711864 2.27586207,0.103728814 2.27586207,0.159966102 L2.27586207,0.261661017 C2.27586207,0.317898305 2.3222069,0.363355932 2.37931034,0.363355932 C2.43641379,0.363355932 2.48275862,0.317898305 2.48275862,0.261661017 L2.48275862,0.159966102 C2.48275862,0.103830508 2.43641379,0.0582711864 2.37931034,0.0582711864 Z" id="Shape"></path>
                    <path d="M2.37931034,4.43115254 C2.3222069,4.43115254 2.27586207,4.47661017 2.27586207,4.53284746 L2.27586207,4.63454237 C2.27586207,4.69077966 2.3222069,4.73623729 2.37931034,4.73623729 C2.43641379,4.73623729 2.48275862,4.69077966 2.48275862,4.63454237 L2.48275862,4.53284746 C2.48275862,4.47671186 2.43641379,4.43115254 2.37931034,4.43115254 Z" id="Shape"></path>
                    <path d="M4.65517241,2.29555932 L4.55172414,2.29555932 C4.49462069,2.29555932 4.44827586,2.34101695 4.44827586,2.39725424 C4.44827586,2.45349153 4.49462069,2.49894915 4.55172414,2.49894915 L4.65517241,2.49894915 C4.71227586,2.49894915 4.75862069,2.45349153 4.75862069,2.39725424 C4.75862069,2.34101695 4.71227586,2.29555932 4.65517241,2.29555932 Z" id="Shape"></path>
                    <path d="M0.206896552,2.29555932 L0.103448276,2.29555932 C0.0463448276,2.29555932 0,2.34101695 0,2.39725424 C0,2.45349153 0.0463448276,2.49894915 0.103448276,2.49894915 L0.206896552,2.49894915 C0.264,2.49894915 0.310344828,2.45349153 0.310344828,2.39725424 C0.310344828,2.34101695 0.264,2.29555932 0.206896552,2.29555932 Z" id="Shape"></path>
                    <path d="M3.91541379,0.743389831 L3.84227586,0.815288136 C3.80182759,0.855050847 3.80182759,0.919322034 3.84227586,0.959084746 C3.86244828,0.978915254 3.88893103,0.988881356 3.91541379,0.988881356 C3.94189655,0.988881356 3.96837931,0.978915254 3.98855172,0.959084746 L4.06168966,0.887186441 C4.10213793,0.847423729 4.10213793,0.783152542 4.06168966,0.743389831 C4.02124138,0.703627119 3.95586207,0.703627119 3.91541379,0.743389831 Z" id="Shape"></path>
                    <path d="M0.770068966,3.83552542 L0.696931034,3.90742373 C0.656482759,3.94718644 0.656482759,4.01145763 0.696931034,4.05122034 C0.717103448,4.07105085 0.743586207,4.08101695 0.770068966,4.08101695 C0.796551724,4.08101695 0.823034483,4.07105085 0.843206897,4.05122034 L0.916344828,3.97932203 C0.956793103,3.93955932 0.956793103,3.87528814 0.916344828,3.83552542 C0.875896552,3.79576271 0.810413793,3.79576271 0.770068966,3.83552542 Z" id="Shape"></path>
                    <path d="M3.98855172,3.83552542 C3.94810345,3.79576271 3.88272414,3.79576271 3.84227586,3.83552542 C3.80182759,3.87528814 3.80182759,3.93955932 3.84227586,3.97932203 L3.91541379,4.05122034 C3.93558621,4.07105085 3.96206897,4.08101695 3.98855172,4.08101695 C4.01503448,4.08101695 4.04151724,4.07105085 4.06168966,4.05122034 C4.10213793,4.01145763 4.10213793,3.94718644 4.06168966,3.90742373 L3.98855172,3.83552542 Z" id="Shape"></path>
                    <path d="M0.843206897,0.743389831 C0.802758621,0.703627119 0.73737931,0.703627119 0.696931034,0.743389831 C0.656482759,0.783152542 0.656482759,0.847423729 0.696931034,0.887186441 L0.770068966,0.959084746 C0.790241379,0.978915254 0.816724138,0.988881356 0.843206897,0.988881356 C0.869689655,0.988881356 0.896172414,0.978915254 0.916344828,0.959084746 C0.956793103,0.919322034 0.956793103,0.855050847 0.916344828,0.815288136 L0.843206897,0.743389831 Z" id="Shape"></path>
                </g>
                <path d="M2.68965517,3.10922034 L1.86206897,3.10922034 C1.80496552,3.10922034 1.75862069,3.06376271 1.75862069,3.00752542 C1.75862069,2.95128814 1.80496552,2.90583051 1.86206897,2.90583051 L2.68965517,2.90583051 C2.74675862,2.90583051 2.79310345,2.95128814 2.79310345,3.00752542 C2.79310345,3.06376271 2.74675862,3.10922034 2.68965517,3.10922034 Z" id="Shape"></path>
                <path d="M3,2.80413559 C2.94289655,2.80413559 2.89655172,2.75867797 2.89655172,2.70244068 L2.89655172,1.58379661 C2.89655172,1.52755932 2.94289655,1.48210169 3,1.48210169 C3.05710345,1.48210169 3.10344828,1.52755932 3.10344828,1.58379661 L3.10344828,2.70244068 C3.10344828,2.75857627 3.05710345,2.80413559 3,2.80413559 Z" id="Shape"></path>
                <path d="M3,3.41430508 C2.7717931,3.41430508 2.5862069,3.23186441 2.5862069,3.00752542 C2.5862069,2.78318644 2.7717931,2.60074576 3,2.60074576 C3.2282069,2.60074576 3.4137931,2.78318644 3.4137931,3.00752542 C3.4137931,3.23186441 3.2282069,3.41430508 3,3.41430508 Z M3,2.80413559 C2.88589655,2.80413559 2.79310345,2.89535593 2.79310345,3.00752542 C2.79310345,3.11969492 2.88589655,3.21091525 3,3.21091525 C3.11410345,3.21091525 3.20689655,3.11969492 3.20689655,3.00752542 C3.20689655,2.89535593 3.11410345,2.80413559 3,2.80413559 Z" id="Shape"></path>
            </g>
        </g>
    </g>
</svg>