<?xml version="1.0" encoding="UTF-8"?>
<svg width="20px" height="20px" viewBox="0 0 20 20" version="1.1" xmlns="http://www.w3.org/2000/svg" xmlns:xlink="http://www.w3.org/1999/xlink">
    <!-- Generator: Sketch 55.2 (78181) - https://sketchapp.com -->
    <title>other-fix-file-ownership-mono</title>
    <desc>Created with Sketch.</desc>
    <g id="other-fix-file-ownership-mono" stroke="none" stroke-width="1" fill="none" fill-rule="evenodd">
        <g id="Group-64" transform="translate(3.000000, 3.000000)">
            <g id="Group-63">
                <g id="fix_file_ownership_icon">
                    <g id="file-(3)">
                        <g id="Group-58" fill="#D10303" fill-rule="nonzero">
                            <path d="M5.66745937,10.5862069 L2.12065217,10.5862069 C1.98205217,10.5862069 1.86956522,10.6941034 1.86956522,10.8275862 C1.86956522,10.961069 1.98205217,11.0689655 2.12065217,11.0689655 L5.68664568,11.0689655 C5.75816739,11.785135 6.01859104,12.4456637 6.41736492,13 L0.195652174,13 L0.195652174,0.206896552 L6.65217391,0.206896552 L10,3.5862069 L10,6.68035793 C9.89008888,6.67129044 9.77891774,6.66666667 9.66666667,6.66666667 C9.29443871,6.66666667 8.93408584,6.71750997 8.59217399,6.81263065 C8.54611554,6.75858484 8.47613922,6.72413793 8.39782609,6.72413793 L2.12065217,6.72413793 C1.98205217,6.72413793 1.86956522,6.83203448 1.86956522,6.96551724 C1.86956522,7.099 1.98205217,7.20689655 2.12065217,7.20689655 L7.6578742,7.20689655 C7.05835213,7.55573973 6.55776798,8.05594778 6.20847005,8.65517241 L2.12065217,8.65517241 C1.98205217,8.65517241 1.86956522,8.76306897 1.86956522,8.89655172 C1.86956522,9.03003448 1.98205217,9.13793103 2.12065217,9.13793103 L5.96918795,9.13793103 C5.78392214,9.58552748 5.67756445,10.0740677 5.66745977,10.5862069 Z M2.12065217,5.27586207 L8.39782609,5.27586207 C8.53642609,5.27586207 8.64891304,5.16796552 8.64891304,5.03448276 C8.64891304,4.901 8.53642609,4.79310345 8.39782609,4.79310345 L2.12065217,4.79310345 C1.98205217,4.79310345 1.86956522,4.901 1.86956522,5.03448276 C1.86956522,5.16796552 1.98205217,5.27586207 2.12065217,5.27586207 Z M2.12065217,3.34482759 L4.63152174,3.34482759 C4.77012174,3.34482759 4.8826087,3.23693103 4.8826087,3.10344828 C4.8826087,2.96996552 4.77012174,2.86206897 4.63152174,2.86206897 L2.12065217,2.86206897 C1.98205217,2.86206897 1.86956522,2.96996552 1.86956522,3.10344828 C1.86956522,3.23693103 1.98205217,3.34482759 2.12065217,3.34482759 Z" id="Combined-Shape"></path>
                            <polygon id="Shape" points="6.65217391 0.206896552 6.65217391 3.5862069 10 3.5862069"></polygon>
                        </g>
                        <g id="Group" transform="translate(1.869565, 2.862069)"></g>
                    </g>
                    <g id="Group-34" transform="translate(6.000000, 6.900000)" fill="#D10303" fill-rule="nonzero">
                        <path d="M7.42497024,3.81530737 C7.42497024,1.81868921 5.80754464,0.2 3.81248512,0.2 C1.8174256,0.2 0.2,1.81868921 0.2,3.81530737 C0.2,4.9300367 0.710086806,5.91941768 1.50264881,6.58222677 C1.58525794,6.41521395 1.71626488,6.27274658 1.88582093,6.18021651 L2.913688,5.61911133 C3.04854167,5.54561149 3.08998264,5.40412703 3.08998264,5.2503562 L3.08998264,4.82882426 C3.08998264,4.82882426 2.7234251,4.46801432 2.60832341,3.96596566 C2.51294643,3.90426074 2.36748016,3.79750578 2.36748016,3.67578874 L2.36748016,3.21472196 C2.36748016,3.11326379 2.53823661,3.02239921 2.60832341,2.95900151 L2.60832341,2.29234269 C2.60832341,2.29234269 2.57146577,1.16412565 3.81248512,1.16412565 C5.10454861,1.16412565 5.01664683,2.29234269 5.01664683,2.29234269 L5.01664683,2.95900151 C5.08673363,3.02239921 5.25749008,3.11326379 5.25749008,3.21472196 L5.25749008,3.67578874 C5.25749008,3.79750578 5.11202381,3.90428805 5.01664683,3.96596566 C4.90151786,4.46801432 4.5349876,4.82882426 4.5349876,4.82882426 L4.5349876,5.2503562 C4.5349876,5.40412703 4.57640129,5.54561149 4.71128224,5.61911133 L5.73914931,6.18021651 C5.90870536,6.27277389 6.0397123,6.41521395 6.12232143,6.58222677 C6.91488343,5.91941768 7.42497024,4.9300367 7.42497024,3.81530737" id="Shape"></path>
                    </g>
                </g>
            </g>
        </g>
    </g>
</svg>