<?xml version="1.0" encoding="UTF-8"?>
<svg width="20px" height="20px" viewBox="0 0 20 20" version="1.1" xmlns="http://www.w3.org/2000/svg" xmlns:xlink="http://www.w3.org/1999/xlink">
    <!-- Generator: Sketch 55.2 (78181) - https://sketchapp.com -->
    <title>website-auto-installer-mono</title>
    <desc>Created with Sketch.</desc>
    <g id="website-auto-installer-mono" stroke="none" stroke-width="1" fill="none" fill-rule="evenodd">
        <g id="auto_installer_icon" transform="translate(3.000000, 3.000000)">
            <g id="website_builder_icon-copy">
                <g id="coding-(1)">
                    <path d="M4.53483625,12.6709839 L11.6256878,4.82759375 L7.69426291,4.82759375 L10.0540669,0 L13.1300078,1.34114941e-13 C13.5954464,1.34114941e-13 13.9727096,0.380903226 13.9727096,0.850832661 L13.9727096,0.873674731 L13.9727096,9.87427688 C13.9727096,10.3442063 13.5954464,10.7251095 13.1300078,10.7251095 L8.62329045,10.7251095 L8.62304483,10.7256055 C8.48645614,11.3091116 8.70832749,11.9215766 9.17761404,12.2555558 L9.61196881,12.564709 C9.65705263,12.5965612 9.63584795,12.6709839 9.58189474,12.6709839 L4.53483625,12.6709839 Z M4.69588714,10.7251095 L0.842947368,10.7251095 C0.377508772,10.7251095 -5.68434189e-14,10.3442063 -5.68434189e-14,9.87427688 L-5.68434189e-14,8.51317608 L-5.68434189e-14,0.850832661 C-5.68434189e-14,0.380903226 0.377263158,1.34114941e-13 0.842701754,1.34114941e-13 L6.24119601,1.34114941e-13 L3.33333333,7.24139062 L6.14532629,7.24139062 L4.69588714,10.7251095 Z" id="Combined-Shape" fill="#D10303" fill-rule="nonzero"></path>
                    <g id="settings"></g>
                    <path d="M9.63644834,13.7729234 L4.33645224,13.7729234 C4.07026121,13.7729234 3.85463938,13.5552211 3.85463938,13.2864617 C3.85463938,13.0177023 4.07026121,12.8 4.33645224,12.8 L9.63644834,12.8 C9.90263938,12.8 10.1182612,13.0177023 10.1182612,13.2864617 C10.1182612,13.5552211 9.90263938,13.7729234 9.63644834,13.7729234" id="Shape" fill="#D10303" fill-rule="nonzero"></path>
                </g>
            </g>
            <g id="flash" transform="translate(3.333333, 0.000000)"></g>
        </g>
    </g>
</svg>