<?xml version="1.0" encoding="UTF-8"?>
<svg width="20px" height="20px" viewBox="0 0 20 20" version="1.1" xmlns="http://www.w3.org/2000/svg" xmlns:xlink="http://www.w3.org/1999/xlink">
    <!-- Generator: Sketch 55.2 (78181) - https://sketchapp.com -->
    <title>website-import-website-mono</title>
    <desc>Created with Sketch.</desc>
    <g id="website-import-website-mono" stroke="none" stroke-width="1" fill="none" fill-rule="evenodd">
        <g id="Group-11" transform="translate(3.000000, 2.000000)">
            <g id="error_pages_icon" transform="translate(0.000000, 0.166667)">
                <g id="statistics_icon" fill="#D10303" fill-rule="nonzero">
                    <g id="website_builder_icon-copy-3">
                        <g id="coding-(1)">
                            <path d="M7.43193275,11.0333333 C7.67018698,12.0161366 8.27143137,12.8570926 9.08572117,13.4062567 L4.33645224,13.4062567 C4.07026121,13.4062567 3.85463938,13.1885544 3.85463938,12.919795 C3.85463938,12.6510356 4.07026121,12.4333333 4.33645224,12.4333333 L4.95190405,12.4333333 C5.31251655,12.0844522 5.4704788,11.5477474 5.34982846,11.0333333 L7.43193275,11.0333333 Z" id="Combined-Shape"></path>
                            <path d="M7.36999899,10.7251095 L0.842947368,10.7251095 C0.377508772,10.7251095 -2.84217094e-14,10.3442063 -2.84217094e-14,9.87427688 L-2.84217094e-14,0.873674731 C-2.84217094e-14,0.403745296 0.377508772,0.0228420699 0.842947368,0.0228420699 L13.1300078,0.0228420699 C13.5954464,0.0228420699 13.9727096,0.403745296 13.9727096,0.873674731 L13.9727096,7.09413955 C13.2666609,6.46787055 12.3374767,6.08757917 11.3194707,6.08757917 C9.1103317,6.08757917 7.3194707,7.87844017 7.3194707,10.0875792 C7.3194707,10.3045579 7.33674697,10.5175015 7.36999899,10.7251095 Z M1.11219509,0.97886176 C1.23522437,0.97886176 1.33495931,0.879126825 1.33495931,0.756097547 C1.33495931,0.633068269 1.23522437,0.533333333 1.11219509,0.533333333 C0.989165816,0.533333333 0.88943088,0.633068269 0.88943088,0.756097547 C0.88943088,0.879126825 0.989165816,0.97886176 1.11219509,0.97886176 Z M1.78048773,0.97886176 C1.90351701,0.97886176 2.00325195,0.879126825 2.00325195,0.756097547 C2.00325195,0.633068269 1.90351701,0.533333333 1.78048773,0.533333333 C1.65745846,0.533333333 1.55772352,0.633068269 1.55772352,0.756097547 C1.55772352,0.879126825 1.65745846,0.97886176 1.78048773,0.97886176 Z M2.44878037,0.97886176 C2.57180965,0.97886176 2.67154459,0.879126825 2.67154459,0.756097547 C2.67154459,0.633068269 2.57180965,0.533333333 2.44878037,0.533333333 C2.3257511,0.533333333 2.22601616,0.633068269 2.22601616,0.756097547 C2.22601616,0.879126825 2.3257511,0.97886176 2.44878037,0.97886176 Z" id="Combined-Shape"></path>
                        </g>
                    </g>
                </g>
                <g id="browser-(3)" transform="translate(0.666667, 0.000000)"></g>
            </g>
        </g>
        <g id="Group-25" transform="translate(14.800000, 12.000000) rotate(-90.000000) translate(-14.800000, -12.000000) translate(10.800000, 8.000000)">
            <path d="M3.65973535,7.2403832 C1.63851933,7.2403832 -1.95399252e-14,5.61956821 -1.95399252e-14,3.6201916 C-1.95399252e-14,1.62081499 1.63851933,0 3.65973535,0 C5.68095137,0 7.3194707,1.62081499 7.3194707,3.6201916 C7.3194707,5.61956821 5.68095137,7.2403832 3.65973535,7.2403832 Z M1.53507428,2.98226966 L1.53507428,4.28383137 L4.16879632,4.28383137 L4.16879632,2.98226966 L1.53507428,2.98226966 Z M4.16879632,2.13342505 L4.16879632,3.68964016 L6.16754095,3.68964016 L4.16879632,2.13342505 Z M4.16879632,5.24585528 L6.16754095,3.68964016 L4.16879632,3.68964016 L4.16879632,5.24585528 Z" id="Combined-Shape" fill="#D10303" fill-rule="nonzero"></path>
            <g id="Group-30" transform="translate(1.298615, 2.065762)">
                <g id="Group-29" transform="translate(2.678007, 0.000000)"></g>
            </g>
        </g>
    </g>
</svg>