<?xml version="1.0" encoding="UTF-8"?>
<svg width="20px" height="20px" viewBox="0 0 20 20" version="1.1" xmlns="http://www.w3.org/2000/svg" xmlns:xlink="http://www.w3.org/1999/xlink">
    <!-- Generator: Sketch 55.2 (78181) - https://sketchapp.com -->
    <title>website-website-templates-mono</title>
    <desc>Created with Sketch.</desc>
    <g id="website-website-templates-mono" stroke="none" stroke-width="1" fill="none" fill-rule="evenodd">
        <g id="website_builder_icon" transform="translate(3.000000, 3.000000)">
            <g id="coding-(1)" fill="#D10303" fill-rule="nonzero">
                <path d="M9.58189474,13.2933347 L9.63644834,13.2933347 C9.90263938,13.2933347 10.1182612,13.5163468 10.1182612,13.7916613 C10.1182612,14.0669758 9.90263938,14.2899879 9.63644834,14.2899879 L4.33645224,14.2899879 C4.07026121,14.2899879 3.85463938,14.0669758 3.85463938,13.7916613 C3.85463938,13.5163468 4.07026121,13.2933347 4.33645224,13.2933347 L4.39103314,13.2933347 C4.33707992,13.2933347 4.31587524,13.2168427 4.3611501,13.1844395 L4.79575049,12.8672661 C5.26503704,12.5249153 5.48669006,11.8977661 5.34982846,11.3 L8.62329045,11.3 L8.62304483,11.3005081 C8.48645614,11.898246 8.70832749,12.5256492 9.17761404,12.8677742 L9.61196881,13.1844677 C9.65705263,13.2170968 9.63584795,13.2933347 9.58189474,13.2933347 Z" id="Combined-Shape"></path>
                <path d="M13.1300078,10.9866976 L0.842947368,10.9866976 C0.377508772,10.9866976 -2.84217094e-14,10.596504 -2.84217094e-14,10.1151129 L-2.84217094e-14,0.894983871 C-2.84217094e-14,0.413592742 0.377508772,0.0233991935 0.842947368,0.0233991935 L13.1300078,0.0233991935 C13.5954464,0.0233991935 13.9727096,0.413592742 13.9727096,0.894983871 L13.9727096,10.1151129 C13.9727096,10.596504 13.5954464,10.9866976 13.1300078,10.9866976 Z M3,9.51317608 L3,1.85083266 L1,1.85083266 L1,9.51317608 L3,9.51317608 Z M4.18556701,2.35022744 L4.18556701,8.84182227 L7.20751031,8.84182227 L7.20751031,2.35022744 L4.18556701,2.35022744 Z M8.29896907,2.35022744 L8.29896907,4.57903491 L12.8991598,4.57903491 L12.8991598,2.35022744 L8.29896907,2.35022744 Z M8.29896907,5.58298606 L8.29896907,6.56951624 L12.8991598,6.56951624 L12.8991598,5.58298606 L8.29896907,5.58298606 Z M8.29896907,7.37896308 L8.29896907,8.85266997 L12.8991598,8.85266997 L12.8991598,7.37896308 L8.29896907,7.37896308 Z" id="Combined-Shape"></path>
            </g>
            <g id="artistic-brush" transform="translate(3.666667, 1.365854)"></g>
        </g>
    </g>
</svg>