<?xml version="1.0" encoding="UTF-8"?>
<svg width="20px" height="20px" viewBox="0 0 20 20" version="1.1" xmlns="http://www.w3.org/2000/svg" xmlns:xlink="http://www.w3.org/1999/xlink">
    <!-- Generator: Sketch 55.2 (78181) - https://sketchapp.com -->
    <title>website-promote-website-mono</title>
    <desc>Created with Sketch.</desc>
    <g id="website-promote-website-mono" stroke="none" stroke-width="1" fill="none" fill-rule="evenodd">
        <g id="Group-21" transform="translate(3.000000, 3.000000)">
            <g id="promote_website_icon" transform="translate(0.000000, 0.162791)">
                <g id="analyze_website_icon-copy">
                    <g id="statistics_icon-copy-2" fill="#D10303" fill-rule="nonzero">
                        <g id="website_builder_icon-copy-3">
                            <g id="Group-39">
                                <g id="coding-(1)">
                                    <path d="M4.95813016,12.1987302 C5.31433137,11.8578306 5.46978218,11.3367591 5.34982846,10.8372093 L8.62329045,10.8372093 L8.62304483,10.8376937 C8.50339406,11.3369539 8.65881267,11.8579194 9.01465567,12.1987302 L9.78180897,12.1987302 C10.048,12.1987302 10.2636218,12.4113697 10.2636218,12.6738788 C10.2636218,12.936388 10.048,13.1490275 9.78180897,13.1490275 L4.48181287,13.1490275 C4.21562183,13.1490275 4,12.936388 4,12.6738788 C4,12.4113697 4.21562183,12.1987302 4.48181287,12.1987302 L4.95813016,12.1987302 Z" id="Combined-Shape"></path>
                                    <path d="M13.1300078,10.4756884 L0.842947368,10.4756884 C0.377508772,10.4756884 -8.52651283e-14,10.1036434 -8.52651283e-14,9.64464254 L-8.52651283e-14,0.853356714 C-8.52651283e-14,0.39435587 0.377508772,0.022310859 0.842947368,0.022310859 L13.1300078,0.022310859 C13.5954464,0.022310859 13.9727096,0.39435587 13.9727096,0.853356714 L13.9727096,9.64464254 C13.9727096,10.1036434 13.5954464,10.4756884 13.1300078,10.4756884 Z M1.11219509,0.652750951 C1.23522437,0.652750951 1.33495931,0.555335432 1.33495931,0.435167301 C1.33495931,0.314999169 1.23522437,0.21758365 1.11219509,0.21758365 C0.989165816,0.21758365 0.88943088,0.314999169 0.88943088,0.435167301 C0.88943088,0.555335432 0.989165816,0.652750951 1.11219509,0.652750951 Z M1.78048773,0.652750951 C1.90351701,0.652750951 2.00325195,0.555335432 2.00325195,0.435167301 C2.00325195,0.314999169 1.90351701,0.21758365 1.78048773,0.21758365 C1.65745846,0.21758365 1.55772352,0.314999169 1.55772352,0.435167301 C1.55772352,0.555335432 1.65745846,0.652750951 1.78048773,0.652750951 Z M2.44878037,0.652750951 C2.57180965,0.652750951 2.67154459,0.555335432 2.67154459,0.435167301 C2.67154459,0.314999169 2.57180965,0.21758365 2.44878037,0.21758365 C2.3257511,0.21758365 2.22601616,0.314999169 2.22601616,0.435167301 C2.22601616,0.555335432 2.3257511,0.652750951 2.44878037,0.652750951 Z M5.76635121,4.28706786 L5.76635121,2.9146824 L3.88958991,2.9146824 C3.58002103,2.9146824 3.33817035,3.15473794 3.33817035,3.440958 L3.33817035,5.13981257 C3.33817035,5.41205631 3.55173028,5.62942494 3.81990939,5.66189562 L4.9149911,7.55719533 C4.93492733,7.60258565 5.01467226,7.63889791 5.13428967,7.63889791 L6.64944341,7.63889791 C6.78899704,7.63889791 6.88867821,7.58442952 6.86874198,7.52088308 L5.77804855,5.66929853 L9.50052576,6.69094065 L9.50052576,5.84222288 L9.50052576,6.73710517 C9.50052576,6.93099618 9.66498423,7.08795557 9.8681388,7.08795557 L9.88748686,7.08795557 C10.0906414,7.08795557 10.2550999,6.93099618 10.2550999,6.73710517 L10.2550999,5.14884631 C10.6805267,5.06549342 11,4.71281246 11,4.29038528 C11,3.86795811 10.6805267,3.51527715 10.2550999,3.43192425 L10.2550999,1.83443249 C10.2550999,1.64054148 10.0906414,1.48358209 9.88748686,1.48358209 L9.8681388,1.48358209 C9.66498423,1.48358209 9.50052576,1.64054148 9.50052576,1.83443249 L9.50052576,2.73854769 L9.50052576,1.88982992 L5.76635121,2.9146824 L5.76635121,4.28706786 Z" id="Combined-Shape"></path>
                                </g>
                            </g>
                        </g>
                    </g>
                    <g id="browser-(3)-copy-2" transform="translate(0.666667, 0.000000)"></g>
                </g>
                <g id="megaphone" transform="translate(3.333333, 1.465116)">
                    <g id="Group"></g>
                </g>
            </g>
        </g>
    </g>
</svg>