<?xml version="1.0" encoding="UTF-8"?>
<svg width="20px" height="20px" viewBox="0 0 20 20" version="1.1" xmlns="http://www.w3.org/2000/svg" xmlns:xlink="http://www.w3.org/1999/xlink">
    <!-- Generator: Sketch 55.2 (78181) - https://sketchapp.com -->
    <title>website-analyze-website-mono</title>
    <desc>Created with Sketch.</desc>
    <g id="website-analyze-website-mono" stroke="none" stroke-width="1" fill="none" fill-rule="evenodd">
        <g id="Group" transform="translate(3.000000, 3.000000)">
            <g id="Group-17">
                <g id="analyze_website_icon">
                    <g id="statistics_icon-copy-2">
                        <g id="website_builder_icon-copy-3">
                            <g id="Group-39">
                                <g id="coding-(1)">
                                    <path d="M7.58023029,10.2666667 C7.7473686,11.1960193 8.32652711,11.9992725 9.11990876,12.4813952 L4.21817681,12.4813952 C3.96764408,12.4813952 3.76470588,12.2782064 3.76470588,12.0273642 C3.76470588,11.7765221 3.96764408,11.5733333 4.21817681,11.5733333 L4.66061558,11.5733333 C5.00001558,11.2477109 5.14868593,10.7467864 5.03513267,10.2666667 L7.58023029,10.2666667 Z" id="Combined-Shape" fill="#D10303" fill-rule="nonzero"></path>
                                    <path d="M13.1507855,5.96801079 C12.7700604,5.77307124 12.3484696,5.64560459 11.9021074,5.60156515 C11.7153042,5.58312213 11.5524934,5.73006107 11.5524934,5.91616474 C11.2750402,6.25847467 10.9293404,6.42962963 10.515394,6.42962963 C10.4969688,6.42962963 10.4806753,6.4319297 10.4664079,6.43639335 C8.71713789,6.63639983 7.38153442,8.18606384 7.54258287,10.0101022 L0.793362229,10.0101022 C0.355302374,10.0101022 -2.0783375e-13,9.65459256 -2.0783375e-13,9.21599176 L-2.0783375e-13,7.945631 L-2.0783375e-13,0.794110484 C-2.0783375e-13,0.355509677 0.355071207,1.02140518e-13 0.793131063,1.02140518e-13 L12.3576544,1.02140518e-13 C12.7957143,1.02140518e-13 13.1507855,0.355509677 13.1507855,0.794110484 L13.1507855,0.815429749 L13.1507855,5.96801079 Z M1.04677185,0.623739798 C1.16256411,0.623739798 1.25643229,0.530653858 1.25643229,0.415826532 C1.25643229,0.300999206 1.16256411,0.207913266 1.04677185,0.207913266 C0.930979591,0.207913266 0.837111417,0.300999206 0.837111417,0.415826532 C0.837111417,0.530653858 0.930979591,0.623739798 1.04677185,0.623739798 Z M1.67575316,0.623739798 C1.79154542,0.623739798 1.8854136,0.530653858 1.8854136,0.415826532 C1.8854136,0.300999206 1.79154542,0.207913266 1.67575316,0.207913266 C1.5599609,0.207913266 1.46609272,0.300999206 1.46609272,0.415826532 C1.46609272,0.530653858 1.5599609,0.623739798 1.67575316,0.623739798 Z M2.30473447,0.623739798 C2.42052673,0.623739798 2.51439491,0.530653858 2.51439491,0.415826532 C2.51439491,0.300999206 2.42052673,0.207913266 2.30473447,0.207913266 C2.18894221,0.207913266 2.09507403,0.300999206 2.09507403,0.415826532 C2.09507403,0.530653858 2.18894221,0.623739798 2.30473447,0.623739798 Z" id="Combined-Shape" fill="#D10303" fill-rule="nonzero"></path>
                                    <g id="settings">
                                        <g id="Rectangle-path"></g>
                                    </g>
                                </g>
                            </g>
                        </g>
                    </g>
                    <g id="browser-(3)-copy-2" transform="translate(0.627451, 0.000000)"></g>
                </g>
            </g>
            <g id="Group-33" transform="translate(8.000000, 6.066667)" fill="#D10303" fill-rule="nonzero">
                <path d="M2.73715034,0.761893702 C1.08885985,0.925862397 -0.171905553,2.39541665 0.0191765091,4.1138036 C0.172951327,5.49659485 1.30505376,6.62084043 2.69758585,6.77357072 C4.42807768,6.96337842 5.908078,5.71143213 6.0731704,4.07464039 C6.08956678,3.91194808 5.96084111,3.76967792 5.79621897,3.76967792 L3.32102439,3.76967792 C3.16819009,3.76967792 3.04426107,3.64661579 3.04426107,3.49485057 L3.04426107,1.03690784 C3.04426107,0.873437244 2.90098871,0.745612018 2.73715034,0.761893702 Z" id="Shape"></path>
                <path d="M3.68782484,0.289817675 L3.68782484,2.86679153 C3.68782484,3.02589824 3.81797232,3.15491338 3.97847548,3.15491338 L6.57803406,3.15491338 C6.75015929,3.15491338 6.88600259,3.00696862 6.8689481,2.83718952 C6.71865129,1.34054206 5.51805472,0.150391242 4.00830438,0.00143472457 C3.83706808,-0.0154713832 3.68782484,0.119222645 3.68782484,0.289817675 Z" id="Shape"></path>
            </g>
        </g>
    </g>
</svg>