<svg xmlns="http://www.w3.org/2000/svg" width="103" height="100" viewBox="0 0 103 100">
    <g fill="none" fill-rule="evenodd">
        <g fill-rule="nonzero">
            <path fill="#D4D4D4" d="M69.963 92.715H32.062c-.394 0-.55-.547-.219-.778l3.174-2.266c3.426-2.445 5.045-6.925 4.045-11.195h23.902l-.002.004c-.997 4.27.623 8.751 4.05 11.195l3.17 2.262c.33.233.175.778-.219.778"/>
            <path fill="#EFEFEF" d="M95.87 78.476H6.155C2.756 78.476 0 75.69 0 72.251V6.393C0 2.954 2.756.167 6.155.167H95.87c3.398 0 6.153 2.787 6.153 6.226V72.25c0 3.438-2.755 6.225-6.153 6.225"/>
            <path fill="#434343" d="M102.023 62.292H0V6.226C0 2.787 2.755 0 6.153 0H95.87c3.398 0 6.153 2.787 6.153 6.226v56.066z"/>
            <path fill="#EFEFEF" d="M70.361 99.833H31.663c-1.944 0-3.518-1.592-3.518-3.559s1.574-3.56 3.518-3.56h38.698c1.944 0 3.518 1.593 3.518 3.56s-1.574 3.56-3.518 3.56"/>
        </g>
        <path fill="#FFF" d="M41.969 25.466c-2.462 22.57 17.828 26.051 23.59 19.569-10.144 25.15-33.975-3.302-23.59-19.57zm-3.902-2.822c-8.764 1.261-21.79 29.174-6.363 25.992-9.484-3.421.06-23.17 6.363-25.992zm0-3.541C35.005 17.663 23.84 21.924 23 30.508c2.1-4.562 7.563-10.745 15.067-11.405zm3.842-3.182c-4.683-3.661-10.265.54-12.006 1.501 4.682-5.462 11.705-4.562 12.006-1.5zm4.442-1.14c3.241-2.941-1.621-8.524-6.303-4.022 1.68-.72 7.323-1.68 6.303 4.022zm5.342.84c6.183-5.882 1.02-8.163-.6-8.283 8.644-2.221 4.802 7.203.6 8.283zm1.02 3.602c6.423 2.461 25.572-8.164 10.325-10.265 3.482.84 4.262 7.864-10.325 10.265zm-4.502 5.342c4.262 12.306 42.32 11.165 25.932-5.462 3.542 5.702-5.282 15.847-25.932 5.462z"/>
    </g>
</svg>
