<?xml version="1.0" encoding="UTF-8"?>
<svg width="48px" height="48px" viewBox="0 0 48 48" version="1.1" xmlns="http://www.w3.org/2000/svg" xmlns:xlink="http://www.w3.org/1999/xlink">
    <!-- Generator: Sketch 55.2 (78181) - https://sketchapp.com -->
    <title>accounts-transfer-account</title>
    <desc>Created with Sketch.</desc>
    <g id="accounts-transfer-account" stroke="none" stroke-width="1" fill="none" fill-rule="evenodd">
        <g id="transfer_account_icon" transform="translate(3.000000, 3.000000)">
            <rect id="Rectangle-6" fill="#FFFFFF" x="24" y="29" width="13" height="9"></rect>
            <path d="M21,42 C9.40202025,42 -2.13162821e-14,32.5979797 -2.13162821e-14,21 C-2.13162821e-14,9.40202025 9.40202025,0 21,0 C32.5979797,0 42,9.40202025 42,21 C42,32.5979797 32.5979797,42 21,42 Z M8.80844017,17.2995437 L8.80844017,24.8496402 L23.9210529,24.8496402 L23.9210529,17.2995437 L8.80844017,17.2995437 Z M23.9210529,12.3755676 L23.9210529,21.4028571 L35.390089,21.4028571 L23.9210529,12.3755676 Z M23.9210529,30.4301466 L35.390089,21.4028571 L23.9210529,21.4028571 L23.9210529,30.4301466 Z" id="Combined-Shape" fill="#0091EA" fill-rule="nonzero"></path>
        </g>
    </g>
</svg>