<?xml version="1.0" encoding="UTF-8"?>
<svg width="48px" height="48px" viewBox="0 0 48 48" version="1.1" xmlns="http://www.w3.org/2000/svg" xmlns:xlink="http://www.w3.org/1999/xlink">
    <!-- Generator: Sketch 55.2 (78181) - https://sketchapp.com -->
    <title>accounts-change-password</title>
    <desc>Created with Sketch.</desc>
    <g id="accounts-change-password" stroke="none" stroke-width="1" fill="none" fill-rule="evenodd">
        <g id="change_password_icon" transform="translate(4.000000, 0.000000)">
            <g id="padlock">
                <path d="M25.6943451,10.3754237 L25.6943451,18.3348395 L21.9831507,18.3348395 L21.9831507,10.3754237 C21.9831507,8.58803882 21.2826865,6.90856752 20.0104578,5.64608286 C18.739284,4.38150278 17.0482537,3.68687429 15.248567,3.68687429 C11.5342079,3.68687429 8.51292852,6.68645403 8.51292852,10.3754237 L8.51292852,18.3348395 L4.8017341,18.3348395 L4.8017341,10.3754237 C4.8017341,4.65495382 9.4887258,0 15.248567,0 C18.0398747,0 20.6634508,1.08018397 22.6350887,3.03939253 C24.6088365,4.9986011 25.6943451,7.60319601 25.6943451,10.3754237 Z" id="Shape" fill="#4A4A4A" fill-rule="nonzero"></path>
                <path d="M30.5519897,31.8235785 C29.8330363,31.5234936 29.2147267,30.1236529 28.3822542,30.1236529 C25.044256,30.1236529 24.5986472,33.1207252 24.5986472,36.4323767 C24.5986472,36.8190494 24.132646,37.1979746 23.6719542,37.5652174 L2.08695652,37.5652174 C0.934362261,37.5652174 -7.47026333e-16,36.6308551 0,35.4782609 L0,15.2855464 C-1.41152087e-16,14.1329522 0.934362261,13.1985899 2.08695652,13.1985899 L28.4650332,13.1985899 C29.6176275,13.1985899 30.5519897,14.1329522 30.5519897,15.2855464 L30.5519897,31.8235785 Z" id="Combined-Shape" fill="#8BC34A"></path>
                <path d="M16.7149003,26.019507 L18.1158287,29.7126676 L12.3813054,29.7126676 L13.7811789,26.019507 C13.0311337,25.5396581 12.5342682,24.7035894 12.5342682,23.7522732 C12.5342682,22.2634842 13.7495314,21.0565279 15.248567,21.0565279 C16.7465477,21.0565279 17.961811,22.2634842 17.961811,23.7522732 C17.961811,24.7035894 17.4649455,25.5396581 16.7149003,26.019507 Z" id="Shape" fill="#FFFFFF" fill-rule="nonzero"></path>
            </g>
            <path d="M29.1398571,39.6551429 C30.5282867,39.6551429 31.6551429,38.5282867 31.6551429,37.1398571 C31.6551429,37.1119671 31.6513156,37.072119 31.6392478,36.9842655 C31.6373007,36.9701334 31.6373007,36.9701334 31.635223,36.9551399 C31.6290854,36.9108556 31.6290854,36.9108556 31.6210273,36.848778 C31.5147561,35.9382017 30.9357321,35.1660662 30.1142287,34.8196354 C29.8076108,34.6905331 29.4784579,34.623 29.1398571,34.623 C27.7512537,34.623 26.6245714,35.7500302 26.6245714,37.1398571 C26.6245714,37.4780039 26.6916409,37.8070989 26.8199458,38.111824 C27.1641452,38.9311314 27.9345275,39.5118715 28.8235992,39.6194749 C28.8812718,39.6257337 28.8812718,39.6257337 28.9312401,39.6320039 C28.959391,39.6356336 28.959391,39.6356336 28.9848173,39.6389801 C29.0823481,39.6518108 29.1164982,39.6551429 29.1398571,39.6551429 Z M33.4218727,28.7004861 C33.7501758,28.6951593 34.0673819,28.5965341 34.3544526,28.4010667 L35.4880011,27.6348588 L36.1751658,27.2053809 L39.13889,30.169105 L38.6315479,30.8609351 L37.8018835,31.9922956 C37.0528538,33.0138806 37.62228,34.4662295 38.8647454,34.7059686 L38.8640035,34.7058258 L41,35.116302 L41,39.3373944 L40.1529801,39.468515 L38.7603966,39.6840883 C37.51339,39.8747135 36.8885572,41.3070706 37.5965026,42.3516133 L38.818352,44.151433 L35.8301591,47.1396259 L35.1380989,46.6308386 L34.345141,46.0478689 C34.0358258,45.8217556 33.688748,45.7094286 33.3324286,45.7094286 C32.4870338,45.7094286 31.7528391,46.312949 31.619643,47.1753627 L31.3405117,49 L27.116302,49 L26.9603972,48.1887178 L26.7059886,46.8648488 C26.5457775,46.0350128 25.825121,45.4642857 25.0038571,45.4642857 C24.6468642,45.4642857 24.299454,45.576215 23.994129,45.8001199 L22.1692526,47.1390376 L19.181648,44.151433 L19.6460688,43.4673276 L20.4037813,42.3511953 C20.5967967,42.0671871 20.687853,41.7403688 20.6835093,41.3765603 C20.6764557,40.8213458 20.4080606,40.3042469 19.9573563,39.9859739 C19.7301389,39.8239864 19.4935892,39.7232338 19.2377342,39.6838007 L17,39.3373944 L17,35.1152776 L17.8124776,34.9601682 L18.1565746,34.8944784 L19.1352546,34.7059686 C20.37772,34.4662295 20.9471462,33.0138806 20.1984153,31.9927029 L19.6035411,31.1822243 L18.8609122,30.1672981 L19.4689201,29.5612968 L19.9438932,29.0878932 L21.8629025,27.1688839 L22.5522382,27.6612665 L22.5423645,27.654611 L23.970838,28.62107 C24.1224145,28.7236337 24.2924663,28.7985636 24.4948477,28.8536563 C24.6645012,28.8998205 24.8097924,28.9222857 24.9315714,28.9222857 C25.5470801,28.9222857 26.1301332,28.5717333 26.434209,28.01015 C26.5452909,27.8030713 26.6041988,27.6564762 26.6305511,27.5201975 L27.1169863,25 L31.3399235,25 L31.4702546,25.8481107 L31.684117,27.2397913 C31.7211205,27.4821642 31.8133456,27.7101447 31.9597646,27.9281569 C32.274963,28.4009545 32.8078053,28.6907029 33.356,28.6975714 C33.3842791,28.6988021 33.4054942,28.6997254 33.4218727,28.7004861 Z" id="Fill-15" stroke="#FAFAFA" stroke-width="2" fill="#757575"></path>
        </g>
    </g>
</svg>