<?xml version="1.0" encoding="UTF-8"?>
<svg width="48px" height="48px" viewBox="0 0 48 48" version="1.1" xmlns="http://www.w3.org/2000/svg" xmlns:xlink="http://www.w3.org/1999/xlink">
    <!-- Generator: Sketch 55.2 (78181) - https://sketchapp.com -->
    <title>accounts-upgrade</title>
    <desc>Created with Sketch.</desc>
    <g id="accounts-upgrade" stroke="none" stroke-width="1" fill="none" fill-rule="evenodd">
        <g id="upgrade_icon">
            <g id="tools-and-utensils" fill-rule="nonzero">
                <path d="M45.3388311,22.1647455 C45.3388311,28.7679762 42.3770188,34.6962892 37.6793138,38.7517616 L7.65951733,38.7517616 C2.96181227,34.6962892 0,28.7678898 0,22.1647455 C0,9.94039923 10.1494338,0.0306248531 22.6694155,0.0306248531 C24.3728982,0.0306248531 26.0319274,0.214009501 27.6271105,0.561843749 C28.3701537,0.723526584 29.0983201,0.920485673 29.8116983,1.15176994 C38.8322661,4.07260926 45.3388311,12.3769682 45.3388311,22.1647455 Z" id="Shape" fill="#4A4A4A"></path>
                <path d="M41.6256517,22.1647455 L35.8482271,22.1647455 C35.16354,16.2608147 31.2671456,11.3082187 25.9051204,9.01344647 C23.84548,8.13171302 21.5692405,7.6419956 19.1755804,7.6419956 C13.3509575,7.6419956 8.22023116,10.540182 5.21122045,14.9399437 C8.09342411,8.30697029 14.8249122,3.65517357 22.6694155,3.65517357 C24.5384911,3.65517357 26.344606,3.91896733 28.0499482,4.41136506 C35.8991448,6.67535705 41.6256517,13.7673541 41.6256517,22.1647455 Z" id="Shape" fill="#F14235"></path>
                <path d="M31.7428724,7.72067548 L16.1596859,26.9399227 C15.3957443,27.876732 15.5543417,29.2406608 16.513807,29.9865633 C17.4732723,30.7324659 18.8701865,30.5776135 19.6341281,29.6408042 C19.7406566,29.5102474 19.9117399,29.2342626 19.9117399,29.2342626 L20.2101615,28.6916308 L31.7428724,7.72067548 Z" id="Shape" fill="#FFFFFF"></path>
            </g>
            <g id="Group-25" transform="translate(36.043478, 36.000000) rotate(-90.000000) translate(-36.043478, -36.000000) translate(25.043478, 25.000000)">
                <circle id="Oval" stroke="#FAFAFA" stroke-width="2" fill="#FFFFFF" fill-rule="nonzero" cx="11" cy="11" r="12"></circle>
                <path d="M11,23 C4.372583,23 -1,17.627417 -1,11 C-1,4.372583 4.372583,-1 11,-1 C17.627417,-1 23,4.372583 23,11 C23,17.627417 17.627417,23 11,23 Z M5.61394485,10.0616657 L5.61394485,12.0164782 L11.5300753,12.0164782 L11.5300753,10.0616657 L5.61394485,10.0616657 Z M15.6503528,10.2110204 L17.9191706,11.9968091 L18.5376657,10.2110204 L15.6503528,10.2110204 Z M13.5300753,10.2110204 L12.5300753,10.2110204 L13.5300753,11.2110204 L13.5300753,10.2110204 Z M13.5300753,8.5421479 L13.5300753,6.48244018 L11.9115803,7.26822888 L13.5300753,8.5421479 Z M13.5300753,12.2110204 L13.5300753,11.2110204 L12.5300753,12.2110204 L13.5300753,12.2110204 Z M15.6503528,12.2110204 L18.5376657,12.2110204 L17.9191706,10.4252317 L15.6503528,12.2110204 Z M13.5300753,13.8798929 L11.9115803,15.1538119 L13.5300753,15.9396006 L13.5300753,13.8798929 Z" id="Combined-Shape" stroke="#FAFAFA" stroke-width="2" fill="#8BC34A" fill-rule="nonzero"></path>
                <g id="Group-30" transform="translate(10.725103, 5.438738)">
                    <g id="Group-29" transform="translate(0.747031, 0.000000)"></g>
                </g>
            </g>
        </g>
    </g>
</svg>