<?xml version="1.0" encoding="UTF-8"?>
<svg width="48px" height="48px" viewBox="0 0 48 48" version="1.1" xmlns="http://www.w3.org/2000/svg" xmlns:xlink="http://www.w3.org/1999/xlink">
    <!-- Generator: Sketch 55.2 (78181) - https://sketchapp.com -->
    <title>advanced-cronjobs</title>
    <desc>Created with Sketch.</desc>
    <g id="advanced-cronjobs" stroke="none" stroke-width="1" fill="none" fill-rule="evenodd">
        <g id="cron_jobs_icon">
            <g id="Group-25" fill-rule="nonzero">
                <ellipse id="Oval" fill="#FFFFFF" cx="21" cy="21.1388136" rx="21" ry="20.6440678"></ellipse>
                <path d="M21,3.34220339 C30.9822414,3.34220339 39.1034483,11.3257627 39.1034483,21.1388136 C39.1034483,30.9518644 30.9822414,38.9354237 21,38.9354237 C11.0177586,38.9354237 2.89655172,30.9518644 2.89655172,21.1388136 C2.89655172,11.3257627 11.0177586,3.34220339 21,3.34220339 L21,3.34220339 Z M21,0.494745763 C9.4022069,0.494745763 0,9.73759322 0,21.1388136 C0,32.5400339 9.4022069,41.7828814 21,41.7828814 C32.5977931,41.7828814 42,32.5400339 42,21.1388136 C42,9.73759322 32.5977931,0.494745763 21,0.494745763 L21,0.494745763 Z" id="Shape" fill="#4A4A4A"></path>
                <g id="Group" transform="translate(4.344828, 4.271186)" fill="#95A5A5">
                    <path d="M16.6551724,0.407898305 C16.2554483,0.407898305 15.9310345,0.726101695 15.9310345,1.11976271 L15.9310345,1.83162712 C15.9310345,2.22528814 16.2554483,2.54349153 16.6551724,2.54349153 C17.0548966,2.54349153 17.3793103,2.22528814 17.3793103,1.83162712 L17.3793103,1.11976271 C17.3793103,0.726813559 17.0548966,0.407898305 16.6551724,0.407898305 Z" id="Shape"></path>
                    <path d="M16.6551724,31.0180678 C16.2554483,31.0180678 15.9310345,31.3362712 15.9310345,31.7299322 L15.9310345,32.4417966 C15.9310345,32.8354576 16.2554483,33.153661 16.6551724,33.153661 C17.0548966,33.153661 17.3793103,32.8354576 17.3793103,32.4417966 L17.3793103,31.7299322 C17.3793103,31.3369831 17.0548966,31.0180678 16.6551724,31.0180678 Z" id="Shape"></path>
                    <path d="M32.5862069,16.0689153 L31.862069,16.0689153 C31.4623448,16.0689153 31.137931,16.3871186 31.137931,16.7807797 C31.137931,17.1744407 31.4623448,17.4926441 31.862069,17.4926441 L32.5862069,17.4926441 C32.985931,17.4926441 33.3103448,17.1744407 33.3103448,16.7807797 C33.3103448,16.3871186 32.985931,16.0689153 32.5862069,16.0689153 Z" id="Shape"></path>
                    <path d="M1.44827586,16.0689153 L0.724137931,16.0689153 C0.324413793,16.0689153 0,16.3871186 0,16.7807797 C0,17.1744407 0.324413793,17.4926441 0.724137931,17.4926441 L1.44827586,17.4926441 C1.848,17.4926441 2.17241379,17.1744407 2.17241379,16.7807797 C2.17241379,16.3871186 1.848,16.0689153 1.44827586,16.0689153 Z" id="Shape"></path>
                    <path d="M27.4078966,5.20372881 L26.895931,5.70701695 C26.6127931,5.98535593 26.6127931,6.43525424 26.895931,6.71359322 C27.0371379,6.85240678 27.2225172,6.92216949 27.4078966,6.92216949 C27.5932759,6.92216949 27.7786552,6.85240678 27.9198621,6.71359322 L28.4318276,6.21030508 C28.7149655,5.9319661 28.7149655,5.4820678 28.4318276,5.20372881 C28.1486897,4.92538983 27.6910345,4.92538983 27.4078966,5.20372881 Z" id="Shape"></path>
                    <path d="M5.39048276,26.848678 L4.87851724,27.3519661 C4.59537931,27.6303051 4.59537931,28.0802034 4.87851724,28.3585424 C5.01972414,28.4973559 5.20510345,28.5671186 5.39048276,28.5671186 C5.57586207,28.5671186 5.76124138,28.4973559 5.90244828,28.3585424 L6.41441379,27.8552542 C6.69755172,27.5769153 6.69755172,27.1270169 6.41441379,26.848678 C6.13127586,26.570339 5.67289655,26.570339 5.39048276,26.848678 Z" id="Shape"></path>
                    <path d="M27.9198621,26.848678 C27.6367241,26.570339 27.179069,26.570339 26.895931,26.848678 C26.6127931,27.1270169 26.6127931,27.5769153 26.895931,27.8552542 L27.4078966,28.3585424 C27.5491034,28.4973559 27.7344828,28.5671186 27.9198621,28.5671186 C28.1052414,28.5671186 28.2906207,28.4973559 28.4318276,28.3585424 C28.7149655,28.0802034 28.7149655,27.6303051 28.4318276,27.3519661 L27.9198621,26.848678 Z" id="Shape"></path>
                    <path d="M5.90244828,5.20372881 C5.61931034,4.92538983 5.16165517,4.92538983 4.87851724,5.20372881 C4.59537931,5.4820678 4.59537931,5.9319661 4.87851724,6.21030508 L5.39048276,6.71359322 C5.53168966,6.85240678 5.71706897,6.92216949 5.90244828,6.92216949 C6.08782759,6.92216949 6.2732069,6.85240678 6.41441379,6.71359322 C6.69755172,6.43525424 6.69755172,5.98535593 6.41441379,5.70701695 L5.90244828,5.20372881 Z" id="Shape"></path>
                </g>
                <path d="M18.8275862,21.7645424 L13.0344828,21.7645424 C12.6347586,21.7645424 12.3103448,21.446339 12.3103448,21.052678 C12.3103448,20.6590169 12.6347586,20.3408136 13.0344828,20.3408136 L18.8275862,20.3408136 C19.2273103,20.3408136 19.5517241,20.6590169 19.5517241,21.052678 C19.5517241,21.446339 19.2273103,21.7645424 18.8275862,21.7645424 Z" id="Shape" fill="#95A5A5"></path>
                <path d="M21,19.6289492 C20.6002759,19.6289492 20.2758621,19.3107458 20.2758621,18.9170847 L20.2758621,11.0865763 C20.2758621,10.6929153 20.6002759,10.3747119 21,10.3747119 C21.3997241,10.3747119 21.7241379,10.6929153 21.7241379,11.0865763 L21.7241379,18.9170847 C21.7241379,19.3100339 21.3997241,19.6289492 21,19.6289492 Z" id="Shape" fill="#95A5A5"></path>
                <path d="M21,23.9001356 C19.4025517,23.9001356 18.1034483,22.6230508 18.1034483,21.052678 C18.1034483,19.4823051 19.4025517,18.2052203 21,18.2052203 C22.5974483,18.2052203 23.8965517,19.4823051 23.8965517,21.052678 C23.8965517,22.6230508 22.5974483,23.9001356 21,23.9001356 Z M21,19.6289492 C20.2012759,19.6289492 19.5517241,20.2674915 19.5517241,21.052678 C19.5517241,21.8378644 20.2012759,22.4764068 21,22.4764068 C21.7987241,22.4764068 22.4482759,21.8378644 22.4482759,21.052678 C22.4482759,20.2674915 21.7987241,19.6289492 21,19.6289492 Z" id="Shape" fill="#95A5A5"></path>
            </g>
            <g id="mysql_databases-copy-2" transform="translate(26.000000, 26.000000)">
                <circle id="Oval-5" fill="#FAFAFA" cx="11" cy="11" r="4.71428571"></circle>
                <path d="M11.1398571,13.6551429 C12.5282867,13.6551429 13.6551429,12.5282867 13.6551429,11.1398571 C13.6551429,11.1119671 13.6513156,11.072119 13.6392478,10.9842655 C13.6373007,10.9701334 13.6373007,10.9701334 13.635223,10.9551399 C13.6290854,10.9108556 13.6290854,10.9108556 13.6210273,10.848778 C13.5147561,9.93820166 12.9357321,9.16606623 12.1142287,8.81963538 C11.8076108,8.69053309 11.4784579,8.623 11.1398571,8.623 C9.75125373,8.623 8.62457143,9.75003015 8.62457143,11.1398571 C8.62457143,11.4780039 8.69164087,11.8070989 8.81994583,12.111824 C9.16414519,12.9311314 9.93452745,13.5118715 10.8235992,13.6194749 C10.8812718,13.6257337 10.8812718,13.6257337 10.9312401,13.6320039 C10.959391,13.6356336 10.959391,13.6356336 10.9848173,13.6389801 C11.0823481,13.6518108 11.1164982,13.6551429 11.1398571,13.6551429 Z M15.4218727,2.70048611 C15.7501758,2.69515929 16.0673819,2.59653412 16.3544526,2.40106672 L17.4880011,1.63485884 L18.1751658,1.20538085 L21.13889,4.16910496 L20.6315479,4.86093509 L19.8018835,5.99229558 C19.0528538,7.01388059 19.62228,8.46622952 20.8647454,8.70596864 L20.8640035,8.70582578 L23,9.11630198 L23,13.3373944 L22.1529801,13.468515 L20.7603966,13.6840883 C19.51339,13.8747135 18.8885572,15.3070706 19.5965026,16.3516133 L20.818352,18.151433 L17.8301591,21.1396259 L17.1380989,20.6308386 L16.345141,20.0478689 C16.0358258,19.8217556 15.688748,19.7094286 15.3324286,19.7094286 C14.4870338,19.7094286 13.7528391,20.312949 13.619643,21.1753627 L13.3405117,23 L9.11630198,23 L8.96039721,22.1887178 L8.70598859,20.8648488 C8.5457775,20.0350128 7.82512102,19.4642857 7.00385714,19.4642857 C6.64686418,19.4642857 6.29945395,19.576215 5.99412899,19.8001199 L4.16925257,21.1390376 L1.181648,18.151433 L1.64606884,17.4673276 L2.40378132,16.3511953 C2.59679665,16.0671871 2.68785295,15.7403688 2.68350926,15.3765603 C2.67645572,14.8213458 2.4080606,14.3042469 1.95735626,13.9859739 C1.73013891,13.8239864 1.49358924,13.7232338 1.23773416,13.6838007 L-1,13.3373944 L-1,9.1152776 L-0.187522425,8.96016825 L0.156574602,8.89447838 L1.13525461,8.70596864 C2.37772001,8.46622952 2.94714622,7.01388059 2.19841533,5.99270292 L1.6035411,5.18222428 L0.860912201,4.16729811 L1.4689201,3.56129684 L1.94389322,3.08789322 L3.86290253,1.16888391 L4.55223819,1.66126653 L4.54236452,1.65461104 L5.97083801,2.62107 C6.1224145,2.72363374 6.29246635,2.79856359 6.49484766,2.85365629 C6.66450122,2.89982052 6.80979239,2.92228571 6.93157143,2.92228571 C7.54708007,2.92228571 8.13013321,2.57173333 8.43420901,2.01014996 C8.54529094,1.80307129 8.6041988,1.65647615 8.63055109,1.52019749 L9.11698627,-1 L13.3399235,-1 L13.4702546,-0.151889334 L13.684117,1.2397913 C13.7211205,1.48216424 13.8133456,1.71014471 13.9597646,1.92815695 C14.274963,2.40095451 14.8078053,2.69070289 15.356,2.69757143 C15.3842791,2.69880212 15.4054942,2.6997254 15.4218727,2.70048611 Z" id="Fill-15" stroke="#FAFAFA" stroke-width="2" fill="#757575"></path>
            </g>
        </g>
    </g>
</svg>