<?xml version="1.0" encoding="UTF-8"?>
<svg width="48px" height="48px" viewBox="0 0 48 48" version="1.1" xmlns="http://www.w3.org/2000/svg" xmlns:xlink="http://www.w3.org/1999/xlink">
    <!-- Generator: Sketch 55.2 (78181) - https://sketchapp.com -->
    <title>advanced-php-configuration</title>
    <desc>Created with Sketch.</desc>
    <g id="advanced-php-configuration" stroke="none" stroke-width="1" fill="none" fill-rule="evenodd">
        <g id="Group-47" transform="translate(3.000000, 6.000000)">
            <g id="php_configuration_icon">
                <g id="analytics-(1)" fill-rule="nonzero">
                    <path d="M39.1034766,21 L37,21 L37,24.3583815 L26.7930469,24.3583815 L26.7930469,25.7871098 L15.2068711,25.7871098 L15.2068711,24.3583815 L2.89660547,24.3583815 L2.89660547,1.49848555 C2.89660547,0.709144509 3.54473438,0.0697572254 4.34486719,0.0697572254 L37.6552148,0.0697572254 C38.4553477,0.0697572254 39.1034766,0.709144509 39.1034766,1.49848555 L39.1034766,21 Z" id="Combined-Shape" fill="#4A4A4A"></path>
                    <path d="M37,24.3583815 L37,27.9302428 L1.44826172,27.9302428 C0.648128906,27.9302428 0,27.2908555 0,26.5015145 L0,24.3583815 L15.2068711,24.3583815 L15.2068711,25.7871098 L26.7931289,25.7871098 L26.7931289,24.3583815 L37,24.3583815 Z" id="Combined-Shape" fill="#ECF0F1"></path>
                </g>
                <g id="Group-53" transform="translate(20.000000, 14.000000)">
                    <circle id="Oval-11" fill="#FAFAFA" cx="10.5037594" cy="10.5037594" r="4.71428571"></circle>
                    <path d="M11.1398571,13.6551429 C12.5282867,13.6551429 13.6551429,12.5282867 13.6551429,11.1398571 C13.6551429,11.1119671 13.6513156,11.072119 13.6392478,10.9842655 C13.6373007,10.9701334 13.6373007,10.9701334 13.635223,10.9551399 C13.6290854,10.9108556 13.6290854,10.9108556 13.6210273,10.848778 C13.5147561,9.93820166 12.9357321,9.16606623 12.1142287,8.81963538 C11.8076108,8.69053309 11.4784579,8.623 11.1398571,8.623 C9.75125373,8.623 8.62457143,9.75003015 8.62457143,11.1398571 C8.62457143,11.4780039 8.69164087,11.8070989 8.81994583,12.111824 C9.16414519,12.9311314 9.93452745,13.5118715 10.8235992,13.6194749 C10.8812718,13.6257337 10.8812718,13.6257337 10.9312401,13.6320039 C10.959391,13.6356336 10.959391,13.6356336 10.9848173,13.6389801 C11.0823481,13.6518108 11.1164982,13.6551429 11.1398571,13.6551429 Z M15.4218727,2.70048611 C15.7501758,2.69515929 16.0673819,2.59653412 16.3544526,2.40106672 L17.4880011,1.63485884 L18.1751658,1.20538085 L21.13889,4.16910496 L20.6315479,4.86093509 L19.8018835,5.99229558 C19.0528538,7.01388059 19.62228,8.46622952 20.8647454,8.70596864 L20.8640035,8.70582578 L23,9.11630198 L23,13.3373944 L22.1529801,13.468515 L20.7603966,13.6840883 C19.51339,13.8747135 18.8885572,15.3070706 19.5965026,16.3516133 L20.818352,18.151433 L17.8301591,21.1396259 L17.1380989,20.6308386 L16.345141,20.0478689 C16.0358258,19.8217556 15.688748,19.7094286 15.3324286,19.7094286 C14.4870338,19.7094286 13.7528391,20.312949 13.619643,21.1753627 L13.3405117,23 L9.11630198,23 L8.96039721,22.1887178 L8.70598859,20.8648488 C8.5457775,20.0350128 7.82512102,19.4642857 7.00385714,19.4642857 C6.64686418,19.4642857 6.29945395,19.576215 5.99412899,19.8001199 L4.16925257,21.1390376 L1.181648,18.151433 L1.64606884,17.4673276 L2.40378132,16.3511953 C2.59679665,16.0671871 2.68785295,15.7403688 2.68350926,15.3765603 C2.67645572,14.8213458 2.4080606,14.3042469 1.95735626,13.9859739 C1.73013891,13.8239864 1.49358924,13.7232338 1.23773416,13.6838007 L-1,13.3373944 L-1,9.1152776 L-0.187522425,8.96016825 L0.156574602,8.89447838 L1.13525461,8.70596864 C2.37772001,8.46622952 2.94714622,7.01388059 2.19841533,5.99270292 L1.6035411,5.18222428 L0.860912201,4.16729811 L1.4689201,3.56129684 L1.94389322,3.08789322 L3.86290253,1.16888391 L4.55223819,1.66126653 L4.54236452,1.65461104 L5.97083801,2.62107 C6.1224145,2.72363374 6.29246635,2.79856359 6.49484766,2.85365629 C6.66450122,2.89982052 6.80979239,2.92228571 6.93157143,2.92228571 C7.54708007,2.92228571 8.13013321,2.57173333 8.43420901,2.01014996 C8.54529094,1.80307129 8.6041988,1.65647615 8.63055109,1.52019749 L9.11698627,-1 L13.3399235,-1 L13.4702546,-0.151889334 L13.684117,1.2397913 C13.7211205,1.48216424 13.8133456,1.71014471 13.9597646,1.92815695 C14.274963,2.40095451 14.8078053,2.69070289 15.356,2.69757143 C15.3842791,2.69880212 15.4054942,2.6997254 15.4218727,2.70048611 Z" id="Fill-15" stroke="#FAFAFA" stroke-width="2" fill="#757575"></path>
                </g>
                <g id="Group-49" transform="translate(7.000000, 3.500000)" fill="#FFFFFF">
                    <path d="M4.3499697,3.43778351 C4.98967424,3.43778351 5.41598485,3.55252577 5.62911364,3.7821134 C5.84208333,4.01164948 5.89283333,4.4056701 5.78141667,4.96402062 C5.66496212,5.54551546 5.44085606,5.96056701 5.10856818,6.2092268 C4.7762803,6.4578866 4.27063636,6.5821134 3.59179545,6.5821134 L2.56767424,6.5821134 L3.19634848,3.43778351 L4.3499697,3.43778351 Z M0.247598485,9.76510309 L1.93131061,9.76510309 L2.33068182,7.76768041 L3.77289394,7.76768041 C4.40925758,7.76768041 4.9327197,7.70283505 5.34370455,7.57273196 C5.75468939,7.44293814 6.12818182,7.225 6.46434091,6.91912371 C6.74651515,6.6671134 6.97475758,6.38902062 7.14959848,6.08494845 C7.32422727,5.78113402 7.44831818,5.4456701 7.52165909,5.07881443 C7.69978788,4.18819588 7.56535606,3.49453608 7.11873485,2.99762887 C6.67211364,2.5006701 5.96161364,2.25221649 4.98760606,2.25221649 L1.74984091,2.25221649 L0.247598485,9.76510309 L0.247598485,9.76510309 Z" id="Fill-11"></path>
                    <path d="M8.7582197,0.254793814 L10.4286742,0.254793814 L10.029303,2.25221649 L11.5174924,2.25221649 C12.4537955,2.25221649 13.0997045,2.41108247 13.4551667,2.72840206 C13.8106288,3.04592784 13.9171136,3.56041237 13.7749924,4.27159794 L13.076053,7.76768041 L11.3790833,7.76768041 L12.0436061,4.4435567 C12.1192273,4.06541237 12.0914924,3.80747423 11.9601364,3.66994845 C11.8288333,3.53242268 11.5493636,3.4635567 11.1219924,3.4635567 L9.78695455,3.4635567 L8.92643182,7.76768041 L7.25597727,7.76768041 L8.7582197,0.254793814" id="Fill-12"></path>
                    <path d="M17.4917273,3.43778351 C18.1313788,3.43778351 18.5576894,3.55252577 18.7708712,3.7821134 C18.9838409,4.01164948 19.0345909,4.4056701 18.9231212,4.96402062 C18.8067197,5.54551546 18.5826136,5.96056701 18.2502727,6.2092268 C17.9180379,6.4578866 17.4123939,6.5821134 16.7336061,6.5821134 L15.7094318,6.5821134 L16.3381061,3.43778351 L17.4917273,3.43778351 Z M13.3893561,9.76510309 L15.0730682,9.76510309 L15.4724394,7.76768041 L16.9145985,7.76768041 C17.5509621,7.76768041 18.0744242,7.70283505 18.4854091,7.57273196 C18.8963939,7.44293814 19.2698864,7.225 19.6060985,6.91912371 C19.8882197,6.6671134 20.1165152,6.38902062 20.2913561,6.08494845 C20.4659848,5.78113402 20.5900758,5.4456701 20.6633636,5.07881443 C20.8415455,4.18819588 20.7071136,3.49453608 20.2604924,2.99762887 C19.8138712,2.5006701 19.1033712,2.25221649 18.1293106,2.25221649 L14.8915455,2.25221649 L13.3893561,9.76510309 L13.3893561,9.76510309 Z" id="Fill-13"></path>
                </g>
            </g>
        </g>
    </g>
</svg>