<?xml version="1.0" encoding="UTF-8"?>
<svg width="48px" height="48px" viewBox="0 0 48 48" version="1.1" xmlns="http://www.w3.org/2000/svg" xmlns:xlink="http://www.w3.org/1999/xlink">
    <!-- Generator: Sketch 55.2 (78181) - https://sketchapp.com -->
    <title>advanced-port-manager</title>
    <desc>Created with Sketch.</desc>
    <g id="advanced-port-manager" stroke="none" stroke-width="1" fill="none" fill-rule="evenodd">
        <g id="Group-50" transform="translate(2.000000, 2.000000)" fill-rule="nonzero">
            <g id="port_manager_icon-copy" transform="translate(0.500000, 0.500000)">
                <path d="M14.4827813,29.6896523 L8.68965234,29.6896523 C7.49191406,29.6896523 6.51721875,28.714957 6.51721875,27.5172188 L6.51721875,22.4482617 C6.51721875,21.2505234 7.49191406,20.2758281 8.68965234,20.2758281 L33.3103477,20.2758281 C33.7093477,20.2758281 34.0345195,19.9513945 34.0345195,19.5516563 L34.0345195,14.4826992 C34.0345195,14.0829609 33.7093477,13.7585273 33.3103477,13.7585273 L27.5172188,13.7585273 C27.1174805,13.7585273 26.7930469,13.434832 26.7930469,13.0343555 C26.7930469,12.6338789 27.1174805,12.3101836 27.5172188,12.3101836 L33.3103477,12.3101836 C34.5080859,12.3101836 35.4827813,13.2848789 35.4827813,14.4826172 L35.4827813,19.5515742 C35.4827813,20.7493125 34.5080859,21.7240078 33.3103477,21.7240078 L8.68965234,21.7240078 C8.29065234,21.7240078 7.96548047,22.0484414 7.96548047,22.4481797 L7.96548047,27.5171367 C7.96548047,27.916875 8.29065234,28.2413086 8.68965234,28.2413086 L14.4827813,28.2413086 C14.8825195,28.2413086 15.2069531,28.5650039 15.2069531,28.9654805 C15.2068711,29.365957 14.8825195,29.6896523 14.4827813,29.6896523" id="Shape" fill="#D4D4D4"></path>
                <path d="M25.3448672,8.68965234 L2.17243359,8.68965234 C0.972480469,8.68965234 0,7.71717188 0,6.51721875 L0,2.17243359 C0,0.972480469 0.972480469,0 2.17243359,0 L25.3448672,0 C26.5447383,0 27.5173008,0.972480469 27.5173008,2.17243359 L27.5173008,6.51730078 C27.5173008,7.71717188 26.5447383,8.68965234 25.3448672,8.68965234" id="Shape" fill="#4A4A4A"></path>
                <path d="M10.8620859,5.79312891 L9.41382422,5.79312891 C9.01408594,5.79312891 8.68965234,5.46943359 8.68965234,5.06895703 L8.68965234,3.62069531 C8.68965234,3.22021875 9.01408594,2.89652344 9.41382422,2.89652344 L10.8620859,2.89652344 C11.2618242,2.89652344 11.5862578,3.22021875 11.5862578,3.62069531 L11.5862578,5.06895703 C11.5861758,5.46943359 11.2618242,5.79312891 10.8620859,5.79312891" id="Shape" fill="#ECF0F1"></path>
                <path d="M5.06895703,5.79312891 L3.62069531,5.79312891 C3.22095703,5.79312891 2.89652344,5.46943359 2.89652344,5.06895703 L2.89652344,3.62069531 C2.89652344,3.22021875 3.22095703,2.89652344 3.62069531,2.89652344 L5.06895703,2.89652344 C5.46869531,2.89652344 5.79312891,3.22021875 5.79312891,3.62069531 L5.79312891,5.06895703 C5.79312891,5.46943359 5.46869531,5.79312891 5.06895703,5.79312891" id="Shape" fill="#ECF0F1"></path>
                <g id="Group" transform="translate(0.000000, 3.609375)">
                    <path d="M23.8965234,1.45958203 L14.4827813,1.45958203 C14.083043,1.45958203 13.7586094,1.13588672 13.7586094,0.735410156 C13.7586094,0.334933594 14.083043,0.0112382813 14.4827813,0.0112382813 L23.8965234,0.0112382813 C24.2962617,0.0112382813 24.6206953,0.334933594 24.6206953,0.735410156 C24.6206953,1.13588672 24.2962617,1.45958203 23.8965234,1.45958203" id="Shape" fill="#ECF0F1"></path>
                    <path d="M25.3448672,13.7699297 L2.17243359,13.7699297 C0.972480469,13.7699297 0,12.7974492 0,11.5974961 L0,7.25262891 C0,6.05275781 0.972480469,5.08019531 2.17243359,5.08019531 L25.3448672,5.08019531 C26.5447383,5.08019531 27.5173008,6.05267578 27.5173008,7.25262891 L27.5173008,11.5974961 C27.5173008,12.7974492 26.5447383,13.7699297 25.3448672,13.7699297" id="Shape" fill="#4A4A4A"></path>
                </g>
                <path d="M10.8620859,14.4827813 L9.41382422,14.4827813 C9.01408594,14.4827813 8.68965234,14.1590859 8.68965234,13.7586094 L8.68965234,12.3103477 C8.68965234,11.9098711 9.01408594,11.5861758 9.41382422,11.5861758 L10.8620859,11.5861758 C11.2618242,11.5861758 11.5862578,11.9098711 11.5862578,12.3103477 L11.5862578,13.7586094 C11.5861758,14.1590859 11.2618242,14.4827813 10.8620859,14.4827813" id="Shape" fill="#ECF0F1"></path>
                <path d="M5.06895703,14.4827813 L3.62069531,14.4827813 C3.22095703,14.4827813 2.89652344,14.1590859 2.89652344,13.7586094 L2.89652344,12.3103477 C2.89652344,11.9098711 3.22095703,11.5861758 3.62069531,11.5861758 L5.06895703,11.5861758 C5.46869531,11.5861758 5.79312891,11.9098711 5.79312891,12.3103477 L5.79312891,13.7586094 C5.79312891,14.1590859 5.46869531,14.4827813 5.06895703,14.4827813" id="Shape" fill="#ECF0F1"></path>
                <g id="Group" transform="translate(13.699219, 12.304688)">
                    <path d="M10.1973047,1.45392187 L0.7835625,1.45392187 C0.383824219,1.45392187 0.059390625,1.13022656 0.059390625,0.72975 C0.059390625,0.329273437 0.383824219,0.005578125 0.7835625,0.005578125 L10.1973047,0.005578125 C10.597043,0.005578125 10.9214766,0.329273437 10.9214766,0.72975 C10.9214766,1.13022656 10.597043,1.45392187 10.1973047,1.45392187" id="Shape" fill="#ECF0F1"></path>
                    <path d="M26.1283477,21.0056602 L2.95591406,21.0056602 C1.75604297,21.0056602 0.783480469,20.0331797 0.783480469,18.8332266 L0.783480469,14.4883594 C0.783480469,13.2884883 1.75596094,12.3159258 2.95591406,12.3159258 L26.1283477,12.3159258 C27.3282188,12.3159258 28.3007812,13.2884063 28.3007812,14.4883594 L28.3007812,18.8332266 C28.3007812,20.0331797 27.3283008,21.0056602 26.1283477,21.0056602" id="Shape" fill="#4A4A4A"></path>
                </g>
                <path d="M25.3448672,30.4138242 L23.8965234,30.4138242 C23.4967852,30.4138242 23.1723516,30.0901289 23.1723516,29.6896523 L23.1723516,28.2413906 C23.1723516,27.8409141 23.4967852,27.5172188 23.8965234,27.5172188 L25.3447852,27.5172188 C25.7445234,27.5172188 26.068957,27.8409141 26.068957,28.2413906 L26.068957,29.6896523 C26.068957,30.0901289 25.7445234,30.4138242 25.3448672,30.4138242" id="Shape" fill="#ECF0F1"></path>
                <path d="M19.5517383,30.4138242 L18.1034766,30.4138242 C17.7037383,30.4138242 17.3793047,30.0901289 17.3793047,29.6896523 L17.3793047,28.2413906 C17.3793047,27.8409141 17.7037383,27.5172188 18.1034766,27.5172188 L19.5517383,27.5172188 C19.9514766,27.5172188 20.2759102,27.8409141 20.2759102,28.2413906 L20.2759102,29.6896523 C20.2758281,30.0901289 19.9514766,30.4138242 19.5517383,30.4138242" id="Shape" fill="#ECF0F1"></path>
                <g id="Group" transform="translate(14.437500, 28.218750)">
                    <path d="M23.9418047,1.47090234 L14.5279805,1.47090234 C14.1282422,1.47090234 13.8038086,1.14720703 13.8038086,0.746730469 C13.8038086,0.346253906 14.1282422,0.0225585938 14.5279805,0.0225585938 L23.9418047,0.0225585938 C24.341543,0.0225585938 24.6659766,0.346253906 24.6659766,0.746730469 C24.6659766,1.14720703 24.341543,1.47090234 23.9418047,1.47090234" id="Shape" fill="#ECF0F1"></path>
                    <path d="M25.3900664,13.78125 L2.21763281,13.78125 C1.01776172,13.78125 0.0451992187,12.8087695 0.0451992187,11.6088164 L0.0451992187,7.26394922 C0.0451992187,6.06407812 1.01767969,5.09151562 2.21763281,5.09151562 L25.3900664,5.09151562 C26.5899375,5.09151562 27.5625,6.06399609 27.5625,7.26394922 L27.5625,11.6088164 C27.5625,12.8087695 26.5900195,13.78125 25.3900664,13.78125" id="Shape" fill="#4A4A4A"></path>
                </g>
                <path d="M25.3448672,39.1034766 L23.8965234,39.1034766 C23.4967852,39.1034766 23.1723516,38.7797812 23.1723516,38.3793047 L23.1723516,36.931043 C23.1723516,36.5305664 23.4967852,36.2068711 23.8965234,36.2068711 L25.3447852,36.2068711 C25.7445234,36.2068711 26.068957,36.5305664 26.068957,36.931043 L26.068957,38.3793047 C26.068957,38.7797813 25.7445234,39.1034766 25.3448672,39.1034766" id="Shape" fill="#ECF0F1"></path>
                <path d="M19.5517383,39.1034766 L18.1034766,39.1034766 C17.7037383,39.1034766 17.3793047,38.7797812 17.3793047,38.3793047 L17.3793047,36.931043 C17.3793047,36.5305664 17.7037383,36.2068711 18.1034766,36.2068711 L19.5517383,36.2068711 C19.9514766,36.2068711 20.2759102,36.5305664 20.2759102,36.931043 L20.2759102,38.3793047 C20.2758281,38.7797813 19.9514766,39.1034766 19.5517383,39.1034766" id="Shape" fill="#ECF0F1"></path>
                <path d="M38.3793047,38.3793047 L28.9654805,38.3793047 C28.5657422,38.3793047 28.2413086,38.0556094 28.2413086,37.6551328 C28.2413086,37.2546562 28.5657422,36.9309609 28.9654805,36.9309609 L38.3793047,36.9309609 C38.779043,36.9309609 39.1034766,37.2546562 39.1034766,37.6551328 C39.1034766,38.0556094 38.779043,38.3793047 38.3793047,38.3793047" id="Shape" fill="#ECF0F1"></path>
            </g>
        </g>
    </g>
</svg>