<?xml version="1.0" encoding="UTF-8"?>
<svg width="48px" height="48px" viewBox="0 0 48 48" version="1.1" xmlns="http://www.w3.org/2000/svg" xmlns:xlink="http://www.w3.org/1999/xlink">
    <!-- Generator: Sketch 55.2 (78181) - https://sketchapp.com -->
    <title>advanced-phpinfo</title>
    <desc>Created with Sketch.</desc>
    <g id="advanced-phpinfo" stroke="none" stroke-width="1" fill="none" fill-rule="evenodd">
        <g id="Group-48" transform="translate(3.000000, 5.000000)">
            <g id="php_information" transform="translate(0.000000, 0.500000)">
                <g id="analytics-(1)" fill-rule="nonzero">
                    <path d="M39.1034766,21 L37,21 L37,24.3583815 L26.7930469,24.3583815 L26.7930469,25.7871098 L15.2068711,25.7871098 L15.2068711,24.3583815 L2.89660547,24.3583815 L2.89660547,1.49848555 C2.89660547,0.709144509 3.54473438,0.0697572254 4.34486719,0.0697572254 L37.6552148,0.0697572254 C38.4553477,0.0697572254 39.1034766,0.709144509 39.1034766,1.49848555 L39.1034766,21 Z" id="Combined-Shape" fill="#4A4A4A"></path>
                    <path d="M37,24.3583815 L37,27.9302428 L1.44826172,27.9302428 C0.648128906,27.9302428 0,27.2908555 0,26.5015145 L0,24.3583815 L15.2068711,24.3583815 L15.2068711,25.7871098 L26.7931289,25.7871098 L26.7931289,24.3583815 L37,24.3583815 Z" id="Combined-Shape" fill="#ECF0F1"></path>
                </g>
                <g id="Group-49" transform="translate(7.000000, 3.500000)">
                    <g id="php_configuration_icon" transform="translate(13.000000, 10.500000)">
                        <g id="Group-54">
                            <circle id="Oval-3" stroke="#FAFAFA" stroke-width="2" fill="#0091EA" cx="11" cy="11" r="12"></circle>
                            <g id="Group-2" transform="translate(9.952381, 6.285714)" fill="#FFFFFF">
                                <rect id="Rectangle-4" x="0" y="3.66666667" width="2.18892096" height="5.73641904"></rect>
                                <circle id="Oval-4" cx="1.09476186" cy="1.09476186" r="1.09476186"></circle>
                            </g>
                        </g>
                    </g>
                    <path d="M4.3499697,3.43778351 C4.98967424,3.43778351 5.41598485,3.55252577 5.62911364,3.7821134 C5.84208333,4.01164948 5.89283333,4.4056701 5.78141667,4.96402062 C5.66496212,5.54551546 5.44085606,5.96056701 5.10856818,6.2092268 C4.7762803,6.4578866 4.27063636,6.5821134 3.59179545,6.5821134 L2.56767424,6.5821134 L3.19634848,3.43778351 L4.3499697,3.43778351 Z M0.247598485,9.76510309 L1.93131061,9.76510309 L2.33068182,7.76768041 L3.77289394,7.76768041 C4.40925758,7.76768041 4.9327197,7.70283505 5.34370455,7.57273196 C5.75468939,7.44293814 6.12818182,7.225 6.46434091,6.91912371 C6.74651515,6.6671134 6.97475758,6.38902062 7.14959848,6.08494845 C7.32422727,5.78113402 7.44831818,5.4456701 7.52165909,5.07881443 C7.69978788,4.18819588 7.56535606,3.49453608 7.11873485,2.99762887 C6.67211364,2.5006701 5.96161364,2.25221649 4.98760606,2.25221649 L1.74984091,2.25221649 L0.247598485,9.76510309 L0.247598485,9.76510309 Z" id="Fill-11" fill="#FFFFFF"></path>
                    <path d="M8.7582197,0.254793814 L10.4286742,0.254793814 L10.029303,2.25221649 L11.5174924,2.25221649 C12.4537955,2.25221649 13.0997045,2.41108247 13.4551667,2.72840206 C13.8106288,3.04592784 13.9171136,3.56041237 13.7749924,4.27159794 L13.076053,7.76768041 L11.3790833,7.76768041 L12.0436061,4.4435567 C12.1192273,4.06541237 12.0914924,3.80747423 11.9601364,3.66994845 C11.8288333,3.53242268 11.5493636,3.4635567 11.1219924,3.4635567 L9.78695455,3.4635567 L8.92643182,7.76768041 L7.25597727,7.76768041 L8.7582197,0.254793814" id="Fill-12" fill="#FFFFFF"></path>
                    <path d="M17.4917273,3.43778351 C18.1313788,3.43778351 18.5576894,3.55252577 18.7708712,3.7821134 C18.9838409,4.01164948 19.0345909,4.4056701 18.9231212,4.96402062 C18.8067197,5.54551546 18.5826136,5.96056701 18.2502727,6.2092268 C17.9180379,6.4578866 17.4123939,6.5821134 16.7336061,6.5821134 L15.7094318,6.5821134 L16.3381061,3.43778351 L17.4917273,3.43778351 Z M13.3893561,9.76510309 L15.0730682,9.76510309 L15.4724394,7.76768041 L16.9145985,7.76768041 C17.5509621,7.76768041 18.0744242,7.70283505 18.4854091,7.57273196 C18.8963939,7.44293814 19.2698864,7.225 19.6060985,6.91912371 C19.8882197,6.6671134 20.1165152,6.38902062 20.2913561,6.08494845 C20.4659848,5.78113402 20.5900758,5.4456701 20.6633636,5.07881443 C20.8415455,4.18819588 20.7071136,3.49453608 20.2604924,2.99762887 C19.8138712,2.5006701 19.1033712,2.25221649 18.1293106,2.25221649 L14.8915455,2.25221649 L13.3893561,9.76510309 L13.3893561,9.76510309 Z" id="Fill-13" fill="#FFFFFF"></path>
                </g>
            </g>
        </g>
    </g>
</svg>