<?xml version="1.0" encoding="UTF-8"?>
<svg width="48px" height="48px" viewBox="0 0 48 48" version="1.1" xmlns="http://www.w3.org/2000/svg" xmlns:xlink="http://www.w3.org/1999/xlink">
    <!-- Generator: Sketch 55.2 (78181) - https://sketchapp.com -->
    <title>clear-cache</title>
    <desc>Created with Sketch.</desc>
    <g id="clear-cache" stroke="none" stroke-width="1" fill="none" fill-rule="evenodd">
        <g id="trash-bin-symbol" transform="translate(5.500000, 3.000000)">
            <path d="M34.8228267,4.67798795 L28.6971416,4.67798795 L28.6971416,2.63587879 C28.6971416,1.50846436 27.7817558,0.593478239 26.6551495,0.593478239 L10.3203778,0.593478239 C9.19318887,0.593478239 8.27867706,1.50846436 8.27867706,2.63587879 L8.27867706,4.67798795 L2.15299202,4.67798795 C1.02492903,4.67798795 0.110999894,5.59297408 0.110999894,6.72038851 C0.110999894,7.84780294 1.02492903,8.76249767 2.15299202,8.76249767 L2.15299202,37.3543571 C2.15299202,39.6100601 3.98143297,41.4391582 6.23668493,41.4391582 L30.7391338,41.4391582 C32.9943857,41.4391582 34.823118,39.6103515 34.823118,37.3543571 L34.823118,8.76249767 C35.9497243,8.76249767 36.8648188,7.84751154 36.8648188,6.72038851 C36.8648188,5.59326547 35.949433,4.67798795 34.8228267,4.67798795 Z" id="Path" fill="#757575"></path>
            <g id="Group" transform="translate(8.787500, 12.782609)" fill="#FFFFFF">
                <g id="Group-2">
                    <path d="M9.71240101,20.42284 C10.477966,20.42284 11.1,19.507271 11.1,18.3804394 L11.1,2.04210916 C11.1,0.914694727 10.477966,0 9.71240101,0 C8.94644004,0 8.325,0.914986124 8.325,2.04210916 L8.325,18.3804394 C8.325,19.507271 8.94644004,20.42284 9.71240101,20.42284 Z" id="Path"></path>
                    <path d="M1.42459899,20.8070953 C2.19055996,20.8070953 2.812,19.8915264 2.812,18.7646947 L2.812,2.42636448 C2.812,1.29895005 2.19036199,0.384255319 1.42459899,0.384255319 C0.658835985,0.384255319 0.037,1.29924144 0.037,2.42636448 L0.037,18.7646947 C0.037,19.8915264 0.658638011,20.8070953 1.42459899,20.8070953 Z" id="Path"></path>
                    <path d="M17.7508495,20.8070953 C18.5164145,20.8070953 19.1382505,19.8915264 19.1382505,18.7646947 L19.1382505,2.42636448 C19.1382505,1.29895005 18.5164145,0.384255319 17.7508495,0.384255319 C16.9852845,0.384255319 16.3632505,1.29924144 16.3632505,2.42636448 L16.3632505,18.7646947 C16.3634485,19.8915264 16.9852845,20.8070953 17.7508495,20.8070953 Z" id="Path"></path>
                </g>
            </g>
        </g>
        <g id="Group-44" transform="translate(24.000000, 24.000000)" fill-rule="nonzero">
            <circle id="Combined-Shape" stroke="#FAFAFA" stroke-width="2" fill="#0091EA" cx="11" cy="11" r="12"></circle>
            <g id="refresh" transform="translate(5.210526, 3.473684)" fill="#FFFFFF">
                <path d="M0.0571389309,8.04085879 C-0.0335577848,7.24539452 0.0420228116,6.47746555 0.247602034,5.76766667 C0.930850625,3.40880916 3.07431634,1.67408515 5.6168476,1.64349037 L5.6168476,0.101513479 C5.6168476,0.0158480958 5.72266044,-0.0300440736 5.79219459,0.0219670518 L8.92727772,2.35328926 C8.97867253,2.39306247 8.97867253,2.4726089 8.92727772,2.50932264 L5.79521781,4.84064484 C5.72266044,4.89265597 5.61987083,4.8467638 5.61987083,4.76109842 L5.61987083,3.222181 C3.94802803,3.2497163 2.52106637,4.29299829 1.90735193,5.76766667 C1.67456369,6.32449166 1.55665796,6.93944673 1.58991343,7.58499658 C1.63526178,8.47224519 1.96479318,9.2891258 2.48478769,9.94997304 C2.76292428,10.301813 2.69641336,10.8158053 2.33664972,11.0819799 C1.99502542,11.3359166 1.51735605,11.2655486 1.25433558,10.929006 C0.610388897,10.1151849 0.181091109,9.12391399 0.0571389309,8.04085879 Z M9.10867116,5.07928412 C9.63168888,5.73707189 9.96122028,6.55701198 10.0035454,7.44426059 C10.0368009,8.09286992 9.91587193,8.70782499 9.68610691,9.2615905 C9.07239247,10.7362589 7.64543081,11.7826003 5.97358802,11.8070762 L5.97358802,10.2681588 C5.97358802,10.1824934 5.86777518,10.1366012 5.79824103,10.1886123 L2.66315789,12.5199345 C2.61176309,12.5597077 2.61176309,12.6392542 2.66315789,12.6759679 L5.79521781,15.0072901 C5.86777518,15.0593012 5.97056479,15.0134091 5.97056479,14.9277437 L5.97056479,13.3857668 C8.51309606,13.3582315 10.659585,11.6235075 11.3398104,9.2615905 C11.5453896,8.55179161 11.617947,7.78386264 11.5302735,6.98839837 C11.4093445,5.90534318 10.9800467,4.91407231 10.3361,4.10025118 C10.0700563,3.7637086 9.5954102,3.69334061 9.2537859,3.94727728 C8.89704549,4.21345186 8.83053456,4.72744416 9.10867116,5.07928412 Z" id="Shape"></path>
            </g>
        </g>
    </g>
</svg>