<?xml version="1.0" encoding="UTF-8"?>
<svg width="48px" height="48px" viewBox="0 0 48 48" version="1.1" xmlns="http://www.w3.org/2000/svg" xmlns:xlink="http://www.w3.org/1999/xlink">
    <!-- Generator: Sketch 55.2 (78181) - https://sketchapp.com -->
    <title>databases-phpmyadmin</title>
    <desc>Created with Sketch.</desc>
    <g id="databases-phpmyadmin" stroke="none" stroke-width="1" fill="none" fill-rule="evenodd">
        <g id="Group-42" transform="translate(0.000000, 2.000000)">
            <g id="phpmyadmin_icon" transform="translate(0.000000, 0.500000)">
                <path d="M18.9182609,0 C9.04910609,0 0.985293913,2.68477136 0.420834783,6.0707097 L0.386086957,6.45012905 L0.386086957,15.1767742 L0.386086957,15.5561936 L0.386086957,15.935613 L0.386086957,24.2828388 L0.386086957,24.6622581 L0.386086957,25.0416775 L0.386086957,22.6567558 C0.985293913,26.0419353 9.04987826,28.7274655 18.9182609,28.7274655 C28.7866435,28.7274655 36.8512278,26.0419353 37.415687,22.6567558 L37.4504348,25.0416775 L37.4504348,24.6622581 L37.4504348,24.2828388 L37.4504348,15.935613 L37.4504348,15.5561936 L37.4504348,15.1767742 L37.4504348,6.45012905 L37.4504348,6.0707097 C36.8512278,2.68477136 28.7874157,0 18.9182609,0 Z" id="Shape" fill="#3D5260" fill-rule="nonzero"></path>
                <g id="Group" transform="translate(0.000000, 24.282839)" fill="#424A60" fill-rule="nonzero">
                    <path d="M0.386086957,0 L0.386086957,0.379419356 C0.386086957,0.251934452 0.399986087,0.125967226 0.420834783,0 L0.386086957,0 Z" id="Shape"></path>
                    <path d="M37.415687,0 C37.4365357,0.125967226 37.4504348,0.251934452 37.4504348,0.379419356 L37.4504348,0 L37.415687,0 Z" id="Shape"></path>
                </g>
                <g id="Group" transform="translate(0.000000, 15.176774)" fill-rule="nonzero">
                    <path d="M18.9182609,6.82954841 C8.68309565,6.82954841 0.386086957,3.94140827 0.386086957,0.379419356 L0.386086957,9.86490326 L0.420834783,9.86490326 C0.985293913,13.2500828 9.04987826,15.935613 18.9182609,15.935613 C28.7866435,15.935613 36.8512278,13.2500828 37.415687,9.86490326 L37.4504348,9.86490326 L37.4504348,0.379419356 C37.4504348,3.94140827 29.1534261,6.82954841 18.9182609,6.82954841 Z" id="Shape" fill="#7992A6"></path>
                    <path d="M0.386086957,0 L0.386086957,0.379419356 C0.386086957,0.251934452 0.399986087,0.125967226 0.420834783,0 L0.386086957,0 Z" id="Shape" fill="#556080"></path>
                    <path d="M37.415687,0 C37.4365357,0.125967226 37.4504348,0.251934452 37.4504348,0.379419356 L37.4504348,0 L37.415687,0 Z" id="Shape" fill="#556080"></path>
                </g>
                <ellipse id="Oval" fill="#7992A6" fill-rule="nonzero" cx="18.9182609" cy="6.45012905" rx="18.5321739" ry="6.45012905"></ellipse>
                <path d="M18.9182609,12.9002581 C8.68309565,12.9002581 0.386086957,10.012118 0.386086957,6.45012905 L0.386086957,15.935613 L0.420834783,15.935613 C0.985293913,19.3207925 9.04987826,22.0063227 18.9182609,22.0063227 C28.7866435,22.0063227 36.8512278,19.3207925 37.415687,15.935613 L37.4504348,15.935613 L37.4504348,6.45012905 C37.4504348,10.012118 29.1534261,12.9002581 18.9182609,12.9002581 Z" id="Shape" fill="#4F6271" fill-rule="nonzero"></path>
                <g id="mysql_databases-copy-2" transform="translate(25.043478, 20.926829)">
                    <ellipse id="Oval-5" fill="#FAFAFA" cx="11.4782609" cy="10.5365854" rx="4.91925466" ry="4.94425087"></ellipse>
                    <path d="M11.1398571,13.6551429 C12.5282867,13.6551429 13.6551429,12.5282867 13.6551429,11.1398571 C13.6551429,11.1119671 13.6513156,11.072119 13.6392478,10.9842655 C13.6373007,10.9701334 13.6373007,10.9701334 13.635223,10.9551399 C13.6290854,10.9108556 13.6290854,10.9108556 13.6210273,10.848778 C13.5147561,9.93820166 12.9357321,9.16606623 12.1142287,8.81963538 C11.8076108,8.69053309 11.4784579,8.623 11.1398571,8.623 C9.75125373,8.623 8.62457143,9.75003015 8.62457143,11.1398571 C8.62457143,11.4780039 8.69164087,11.8070989 8.81994583,12.111824 C9.16414519,12.9311314 9.93452745,13.5118715 10.8235992,13.6194749 C10.8812718,13.6257337 10.8812718,13.6257337 10.9312401,13.6320039 C10.959391,13.6356336 10.959391,13.6356336 10.9848173,13.6389801 C11.0823481,13.6518108 11.1164982,13.6551429 11.1398571,13.6551429 Z M15.4218727,2.70048611 C15.7501758,2.69515929 16.0673819,2.59653412 16.3544526,2.40106672 L17.4880011,1.63485884 L18.1751658,1.20538085 L21.13889,4.16910496 L20.6315479,4.86093509 L19.8018835,5.99229558 C19.0528538,7.01388059 19.62228,8.46622952 20.8647454,8.70596864 L20.8640035,8.70582578 L23,9.11630198 L23,13.3373944 L22.1529801,13.468515 L20.7603966,13.6840883 C19.51339,13.8747135 18.8885572,15.3070706 19.5965026,16.3516133 L20.818352,18.151433 L17.8301591,21.1396259 L17.1380989,20.6308386 L16.345141,20.0478689 C16.0358258,19.8217556 15.688748,19.7094286 15.3324286,19.7094286 C14.4870338,19.7094286 13.7528391,20.312949 13.619643,21.1753627 L13.3405117,23 L9.11630198,23 L8.96039721,22.1887178 L8.70598859,20.8648488 C8.5457775,20.0350128 7.82512102,19.4642857 7.00385714,19.4642857 C6.64686418,19.4642857 6.29945395,19.576215 5.99412899,19.8001199 L4.16925257,21.1390376 L1.181648,18.151433 L1.64606884,17.4673276 L2.40378132,16.3511953 C2.59679665,16.0671871 2.68785295,15.7403688 2.68350926,15.3765603 C2.67645572,14.8213458 2.4080606,14.3042469 1.95735626,13.9859739 C1.73013891,13.8239864 1.49358924,13.7232338 1.23773416,13.6838007 L-1,13.3373944 L-1,9.1152776 L-0.187522425,8.96016825 L0.156574602,8.89447838 L1.13525461,8.70596864 C2.37772001,8.46622952 2.94714622,7.01388059 2.19841533,5.99270292 L1.6035411,5.18222428 L0.860912201,4.16729811 L1.4689201,3.56129684 L1.94389322,3.08789322 L3.86290253,1.16888391 L4.55223819,1.66126653 L4.54236452,1.65461104 L5.97083801,2.62107 C6.1224145,2.72363374 6.29246635,2.79856359 6.49484766,2.85365629 C6.66450122,2.89982052 6.80979239,2.92228571 6.93157143,2.92228571 C7.54708007,2.92228571 8.13013321,2.57173333 8.43420901,2.01014996 C8.54529094,1.80307129 8.6041988,1.65647615 8.63055109,1.52019749 L9.11698627,-1 L13.3399235,-1 L13.4702546,-0.151889334 L13.684117,1.2397913 C13.7211205,1.48216424 13.8133456,1.71014471 13.9597646,1.92815695 C14.274963,2.40095451 14.8078053,2.69070289 15.356,2.69757143 C15.3842791,2.69880212 15.4054942,2.6997254 15.4218727,2.70048611 Z" id="Fill-15" stroke="#FAFAFA" stroke-width="2" fill="#757575"></path>
                </g>
            </g>
        </g>
    </g>
</svg>