<?xml version="1.0" encoding="UTF-8"?>
<svg width="48px" height="48px" viewBox="0 0 48 48" version="1.1" xmlns="http://www.w3.org/2000/svg" xmlns:xlink="http://www.w3.org/1999/xlink">
    <!-- Generator: Sketch 55.2 (78181) - https://sketchapp.com -->
    <title>databases-remote-mysql</title>
    <desc>Created with Sketch.</desc>
    <g id="databases-remote-mysql" stroke="none" stroke-width="1" fill="none" fill-rule="evenodd">
        <g id="remote_mysql" transform="translate(0.000000, 3.000000)" fill-rule="nonzero">
            <path d="M18.9182609,0 C9.04910609,0 0.985293913,2.68789319 0.420834783,6.07776866 L0.386086957,6.4576292 L0.386086957,15.1944217 L0.386086957,15.5742822 L0.386086957,15.9541427 L0.386086957,24.3110747 L0.386086957,24.6909352 L0.386086957,25.0707957 L0.386086957,22.6831009 C0.985293913,26.0722167 9.04987826,28.7608696 18.9182609,28.7608696 C28.7866435,28.7608696 36.8512278,26.0722167 37.415687,22.6831009 L37.4504348,25.0707957 L37.4504348,24.6909352 L37.4504348,24.3110747 L37.4504348,15.9541427 L37.4504348,15.5742822 L37.4504348,15.1944217 L37.4504348,6.4576292 L37.4504348,6.07776866 C36.8512278,2.68789319 28.7874157,0 18.9182609,0 Z" id="Shape" fill="#3D5260"></path>
            <g id="Group" transform="translate(0.000000, 24.311075)" fill="#424A60">
                <path d="M0.386086957,0 L0.386086957,0.379860541 C0.386086957,0.2522274 0.399986087,0.1261137 0.420834783,0 L0.386086957,0 Z" id="Shape"></path>
                <path d="M37.415687,0 C37.4365357,0.1261137 37.4504348,0.2522274 37.4504348,0.379860541 L37.4504348,0 L37.415687,0 Z" id="Shape"></path>
            </g>
            <g id="Group" transform="translate(0.000000, 15.194422)">
                <path d="M18.9182609,6.83748975 C8.68309565,6.83748975 0.386086957,3.9459913 0.386086957,0.379860541 L0.386086957,9.87637408 L0.420834783,9.87637408 C0.985293913,13.2654898 9.04987826,15.9541427 18.9182609,15.9541427 C28.7866435,15.9541427 36.8512278,13.2654898 37.415687,9.87637408 L37.4504348,9.87637408 L37.4504348,0.379860541 C37.4504348,3.9459913 29.1534261,6.83748975 18.9182609,6.83748975 Z" id="Shape" fill="#7992A6"></path>
                <path d="M0.386086957,0 L0.386086957,0.379860541 C0.386086957,0.2522274 0.399986087,0.1261137 0.420834783,0 L0.386086957,0 Z" id="Shape" fill="#556080"></path>
                <path d="M37.415687,0 C37.4365357,0.1261137 37.4504348,0.2522274 37.4504348,0.379860541 L37.4504348,0 L37.415687,0 Z" id="Shape" fill="#556080"></path>
            </g>
            <ellipse id="Oval" fill="#7992A6" cx="18.9182609" cy="6.4576292" rx="18.5321739" ry="6.4576292"></ellipse>
            <path d="M18.9182609,12.9152584 C8.68309565,12.9152584 0.386086957,10.02376 0.386086957,6.4576292 L0.386086957,15.9541427 L0.420834783,15.9541427 C0.985293913,19.3432585 9.04987826,22.0319114 18.9182609,22.0319114 C28.7866435,22.0319114 36.8512278,19.3432585 37.415687,15.9541427 L37.4504348,15.9541427 L37.4504348,6.4576292 C37.4504348,10.02376 29.1534261,12.9152584 18.9182609,12.9152584 Z" id="Shape" fill="#4F6271"></path>
            <g id="Group-25" transform="translate(37.000000, 31.000000) rotate(-90.000000) translate(-37.000000, -31.000000) translate(26.000000, 20.000000)">
                <ellipse id="Oval" fill="#FFFFFF" cx="10.979206" cy="10.8605748" rx="10.979206" ry="10.8605748"></ellipse>
                <g id="Group-9" transform="translate(11.000000, 11.000000) rotate(-270.000000) translate(-11.000000, -11.000000) ">
                    <ellipse id="Combined-Shape" stroke="#FAFAFA" stroke-width="2" fill="#0091EA" cx="10.979206" cy="10.8605748" rx="11.979206" ry="11.8605748"></ellipse>
                    <g id="wifi" transform="translate(3.500000, 5.500000)" fill="#FFFFFF">
                        <path d="M14.4261954,3.10933333 C12.5738046,1.17333333 10.1039501,0 7.2972973,0 C4.49064449,0 1.96465696,1.17333333 0.168399168,3.10933333 C0.0561330561,3.22666667 0,3.344 0,3.52 C0,3.696 0.0561330561,3.81333333 0.168399168,3.93066667 L0.954261954,4.752 C1.17879418,4.98666667 1.51559252,4.98666667 1.74012474,4.752 C3.14345114,3.28533333 5.10810811,2.34666667 7.2972973,2.34666667 C9.48648649,2.34666667 11.4511435,3.28533333 12.8544699,4.752 C13.0790021,4.98666667 13.4158004,4.98666667 13.6403326,4.752 L14.4261954,3.93066667 C14.5384615,3.81333333 14.5945946,3.696 14.5945946,3.52 C14.5945946,3.344 14.5384615,3.168 14.4261954,3.10933333 Z" id="Shape"></path>
                        <path d="M7.0977131,5 C5.52598753,5 4.17879418,5.64533333 3.16839917,6.70133333 C2.94386694,6.936 2.94386694,7.288 3.16839917,7.52266667 L3.95426195,8.344 C4.17879418,8.57866667 4.51559252,8.57866667 4.74012474,8.344 C5.35758836,7.69866667 6.1995842,7.34666667 7.0977131,7.34666667 C7.995842,7.34666667 8.83783784,7.75733333 9.45530146,8.344 C9.67983368,8.57866667 10.016632,8.57866667 10.2411642,8.344 L11.027027,7.52266667 C11.2515593,7.288 11.2515593,6.936 11.027027,6.70133333 C10.016632,5.64533333 8.66943867,5 7.0977131,5 L7.0977131,5 Z" id="Shape"></path>
                        <ellipse id="Oval" cx="7.2972973" cy="10.56" rx="1.12266112" ry="1.17333333"></ellipse>
                    </g>
                </g>
            </g>
        </g>
    </g>
</svg>