<?xml version="1.0" encoding="UTF-8"?>
<svg width="48px" height="48px" viewBox="0 0 48 48" version="1.1" xmlns="http://www.w3.org/2000/svg" xmlns:xlink="http://www.w3.org/1999/xlink">
    <!-- Generator: Sketch 55.2 (78181) - https://sketchapp.com -->
    <title>databases-database-import</title>
    <desc>Created with Sketch.</desc>
    <g id="databases-database-import" stroke="none" stroke-width="1" fill="none" fill-rule="evenodd">
        <g id="Group-44" transform="translate(0.000000, 3.000000)">
            <g id="phpmyadmin_icon">
                <path d="M18.9182609,0 C9.04910609,0 0.985293913,2.68789319 0.420834783,6.07776866 L0.386086957,6.4576292 L0.386086957,15.1944217 L0.386086957,15.5742822 L0.386086957,15.9541427 L0.386086957,24.3110747 L0.386086957,24.6909352 L0.386086957,25.0707957 L0.386086957,22.6831009 C0.985293913,26.0722167 9.04987826,28.7608696 18.9182609,28.7608696 C28.7866435,28.7608696 36.8512278,26.0722167 37.415687,22.6831009 L37.4504348,25.0707957 L37.4504348,24.6909352 L37.4504348,24.3110747 L37.4504348,15.9541427 L37.4504348,15.5742822 L37.4504348,15.1944217 L37.4504348,6.4576292 L37.4504348,6.07776866 C36.8512278,2.68789319 28.7874157,0 18.9182609,0 Z" id="Shape" fill="#3D5260" fill-rule="nonzero"></path>
                <g id="Group" transform="translate(0.000000, 24.311075)" fill="#424A60" fill-rule="nonzero">
                    <path d="M0.386086957,0 L0.386086957,0.379860541 C0.386086957,0.2522274 0.399986087,0.1261137 0.420834783,0 L0.386086957,0 Z" id="Shape"></path>
                    <path d="M37.415687,0 C37.4365357,0.1261137 37.4504348,0.2522274 37.4504348,0.379860541 L37.4504348,0 L37.415687,0 Z" id="Shape"></path>
                </g>
                <g id="Group" transform="translate(0.000000, 15.194422)" fill-rule="nonzero">
                    <path d="M18.9182609,6.83748975 C8.68309565,6.83748975 0.386086957,3.9459913 0.386086957,0.379860541 L0.386086957,9.87637408 L0.420834783,9.87637408 C0.985293913,13.2654898 9.04987826,15.9541427 18.9182609,15.9541427 C28.7866435,15.9541427 36.8512278,13.2654898 37.415687,9.87637408 L37.4504348,9.87637408 L37.4504348,0.379860541 C37.4504348,3.9459913 29.1534261,6.83748975 18.9182609,6.83748975 Z" id="Shape" fill="#7992A6"></path>
                    <path d="M0.386086957,0 L0.386086957,0.379860541 C0.386086957,0.2522274 0.399986087,0.1261137 0.420834783,0 L0.386086957,0 Z" id="Shape" fill="#556080"></path>
                    <path d="M37.415687,0 C37.4365357,0.1261137 37.4504348,0.2522274 37.4504348,0.379860541 L37.4504348,0 L37.415687,0 Z" id="Shape" fill="#556080"></path>
                </g>
                <ellipse id="Oval" fill="#7992A6" fill-rule="nonzero" cx="18.9182609" cy="6.4576292" rx="18.5321739" ry="6.4576292"></ellipse>
                <path d="M18.9182609,12.9152584 C8.68309565,12.9152584 0.386086957,10.02376 0.386086957,6.4576292 L0.386086957,15.9541427 L0.420834783,15.9541427 C0.985293913,19.3432585 9.04987826,22.0319114 18.9182609,22.0319114 C28.7866435,22.0319114 36.8512278,19.3432585 37.415687,15.9541427 L37.4504348,15.9541427 L37.4504348,6.4576292 C37.4504348,10.02376 29.1534261,12.9152584 18.9182609,12.9152584 Z" id="Shape" fill="#4F6271" fill-rule="nonzero"></path>
                <g id="Group-25" transform="translate(37.000000, 31.000000) rotate(-90.000000) translate(-37.000000, -31.000000) translate(26.000000, 20.000000)">
                    <ellipse id="Oval" stroke="#FAFAFA" stroke-width="2" fill="#FFFFFF" fill-rule="nonzero" cx="10.979206" cy="10.8605748" rx="11.979206" ry="11.8605748"></ellipse>
                    <path d="M10.979206,21.7211496 C4.91555798,21.7211496 -1.95399252e-14,16.8587046 -1.95399252e-14,10.8605748 C-1.95399252e-14,4.86244496 4.91555798,0 10.979206,0 C17.0428541,0 21.9584121,4.86244496 21.9584121,10.8605748 C21.9584121,16.8587046 17.0428541,21.7211496 10.979206,21.7211496 Z M4.60522284,8.94680897 L4.60522284,12.8514941 L12.506389,12.8514941 L12.506389,8.94680897 L4.60522284,8.94680897 Z M12.506389,6.40027514 L12.506389,11.0689205 L18.5026228,11.0689205 L12.506389,6.40027514 Z M12.506389,15.7375659 L18.5026228,11.0689205 L12.506389,11.0689205 L12.506389,15.7375659 Z" id="Combined-Shape" fill="#8BC34A" fill-rule="nonzero"></path>
                    <g id="Group-30" transform="translate(3.895846, 6.197285)">
                        <g id="Group-29" transform="translate(8.034022, 0.000000)"></g>
                    </g>
                </g>
            </g>
        </g>
    </g>
</svg>