<?xml version="1.0" encoding="UTF-8"?>
<svg width="48px" height="48px" viewBox="0 0 48 48" version="1.1" xmlns="http://www.w3.org/2000/svg" xmlns:xlink="http://www.w3.org/1999/xlink">
    <!-- Generator: Sketch 55.2 (78181) - https://sketchapp.com -->
    <title>databases-mysql-databases</title>
    <desc>Created with Sketch.</desc>
    <g id="databases-mysql-databases" stroke="none" stroke-width="1" fill="none" fill-rule="evenodd">
        <g id="mysql_databases_icon" transform="translate(5.000000, 8.000000)" fill-rule="nonzero">
            <g id="databases_icon">
                <path d="M18.62,0 C8.90644,0 0.96976,2.6817982 0.4142,6.06398687 L0.38,6.44298605 L0.38,15.1599672 L0.38,15.5389664 L0.38,15.9179655 L0.38,24.2559475 L0.38,24.6349467 L0.38,25.0139459 L0.38,22.6316653 C0.96976,26.013096 8.9072,28.6956522 18.62,28.6956522 C28.3328,28.6956522 36.27024,26.013096 36.8258,22.6316653 L36.86,25.0139459 L36.86,24.6349467 L36.86,24.2559475 L36.86,15.9179655 L36.86,15.5389664 L36.86,15.1599672 L36.86,6.44298605 L36.86,6.06398687 C36.27024,2.6817982 28.33356,0 18.62,0 Z" id="Shape" fill="#3D5260"></path>
                <g id="Group" transform="translate(0.000000, 24.255947)" fill="#424A60">
                    <path d="M0.38,0 L0.38,0.37899918 C0.38,0.251655455 0.39368,0.125827728 0.4142,0 L0.38,0 Z" id="Shape"></path>
                    <path d="M36.8258,0 C36.84632,0.125827728 36.86,0.251655455 36.86,0.37899918 L36.86,0 L36.8258,0 Z" id="Shape"></path>
                </g>
                <g id="Group" transform="translate(0.000000, 15.159967)">
                    <path d="M18.62,6.82198523 C8.5462,6.82198523 0.38,3.93704348 0.38,0.37899918 L0.38,9.85397867 L0.4142,9.85397867 C0.96976,13.2354094 8.9072,15.9179655 18.62,15.9179655 C28.3328,15.9179655 36.27024,13.2354094 36.8258,9.85397867 L36.86,9.85397867 L36.86,0.37899918 C36.86,3.93704348 28.6938,6.82198523 18.62,6.82198523 Z" id="Shape" fill="#7992A6"></path>
                    <path d="M0.38,0 L0.38,0.37899918 C0.38,0.251655455 0.39368,0.125827728 0.4142,0 L0.38,0 Z" id="Shape" fill="#556080"></path>
                    <path d="M36.8258,0 C36.84632,0.125827728 36.86,0.251655455 36.86,0.37899918 L36.86,0 L36.8258,0 Z" id="Shape" fill="#556080"></path>
                </g>
                <ellipse id="Oval" fill="#7992A6" cx="18.62" cy="6.44298605" rx="18.24" ry="6.44298605"></ellipse>
                <g id="Group" transform="translate(0.000000, 6.063987)" fill="#7383BF">
                    <path d="M0.38,0 L0.38,0.37899918 C0.38,0.251655455 0.39368,0.125827728 0.4142,0 L0.38,0 Z" id="Shape"></path>
                    <path d="M36.8258,0 C36.84632,0.125827728 36.86,0.251655455 36.86,0.37899918 L36.86,0 L36.8258,0 Z" id="Shape"></path>
                </g>
                <path d="M18.62,12.8859721 C8.5462,12.8859721 0.38,10.0010304 0.38,6.44298605 L0.38,15.9179655 L0.4142,15.9179655 C0.96976,19.2993962 8.9072,21.9819524 18.62,21.9819524 C28.3328,21.9819524 36.27024,19.2993962 36.8258,15.9179655 L36.86,15.9179655 L36.86,6.44298605 C36.86,10.0010304 28.6938,12.8859721 18.62,12.8859721 Z" id="Shape" fill="#4F6271"></path>
            </g>
        </g>
    </g>
</svg>