<?xml version="1.0" encoding="UTF-8"?>
<svg width="48px" height="48px" viewBox="0 0 48 48" version="1.1" xmlns="http://www.w3.org/2000/svg" xmlns:xlink="http://www.w3.org/1999/xlink">
    <!-- Generator: Sketch 55.2 (78181) - https://sketchapp.com -->
    <title>domains-redirects</title>
    <desc>Created with Sketch.</desc>
    <g id="domains-redirects" stroke="none" stroke-width="1" fill="none" fill-rule="evenodd">
        <g id="Group-67">
            <g id="www" fill-rule="nonzero">
                <g id="Group-15" transform="translate(2.000000, 0.000000)">
                    <path d="M38,19.0465116 C38,29.6014783 29.5291914,38.0930233 19,38.0930233 C8.47080859,38.0930233 0,29.6014783 0,19.0465116 C0,8.49154497 8.47080859,0 19,0 C29.5291914,0 38,8.49154497 38,19.0465116 Z" id="Shape" fill="#80D8FF"></path>
                    <g id="Group" transform="translate(0.890625, 1.413608)" fill="#0091EA">
                        <path d="M0.534375,24.4578785 C0.534375,24.3784933 0.534375,24.3784933 0.534375,24.3784933 C0.613566406,24.3785677 0.613566406,24.4578785 0.534375,24.4578785 C0.692683594,24.5372638 0.692683594,24.4578785 0.771875,24.3784933 C0.771875,24.3784933 0.692683594,24.3784933 0.692683594,24.299108 C0.692683594,24.1404119 0.771875,24.0610266 0.930183594,23.9816414 C0.930183594,24.0610266 0.930183594,24.1403375 1.009375,24.1403375 C1.08856641,24.2197227 1.16768359,24.2990336 1.246875,24.2990336 C1.32606641,24.2196483 1.40518359,24.1403375 1.484375,24.0609522 C1.64268359,24.1403375 1.80106641,24.2990336 1.959375,24.3784189 C2.03856641,24.4578041 2.35518359,24.4578041 2.434375,24.3784189 C2.434375,24.3784189 2.434375,24.2990336 2.51356641,24.2990336 C2.51356641,24.2990336 2.51356641,24.2196483 2.59275781,24.2196483 C2.671875,24.1404863 2.671875,24.1404863 2.671875,24.061101 C2.671875,23.9817158 2.671875,23.9817158 2.671875,23.9024049 C2.75106641,23.9817902 2.83018359,24.1404863 2.83018359,24.2198715 C2.909375,24.4579529 2.98849219,24.4579529 3.22599219,24.4579529 C3.46349219,24.4579529 3.62180078,24.3785677 3.85930078,24.4579529 C3.93849219,24.4579529 3.93849219,24.4579529 4.01760938,24.4579529 C4.17591797,24.4579529 4.25510937,24.3785677 4.33430078,24.3785677 C4.57180078,24.3785677 4.65099219,24.2991824 4.80930078,24.1404863 C4.88849219,24.061101 4.96760937,24.061101 5.04680078,24.061101 C5.12599219,24.061101 5.20510937,24.061101 5.36349219,24.061101 C5.52180078,24.1404863 5.75930078,24.1404863 5.91768359,24.2991824 C5.996875,24.3785677 6.07599219,24.3785677 6.15518359,24.4578785 C6.31349219,24.4578785 6.39268359,24.3784933 6.55099219,24.3784933 C6.78849219,24.3784933 6.94680078,24.2197971 7.10518359,24.1404119 C7.26356641,24.0610266 7.34268359,23.9817158 7.421875,23.9023305 C7.50106641,23.8229452 7.58018359,23.7436344 7.73856641,23.8229452 L7.81775781,23.8229452 C7.89694922,23.8229452 8.05525781,23.8229452 8.13444922,23.8229452 C8.45114062,23.8229452 8.68864062,23.74356 8.84694922,23.5054786 C8.92614062,23.4260933 8.92614062,23.3467824 8.84694922,23.2673972 C8.76775781,23.1880119 8.76775781,23.108701 8.76775781,22.9499305 C8.76775781,22.8705452 8.76775781,22.7912344 8.76775781,22.7912344 C8.76775781,22.6325382 8.68856641,22.553153 8.60944922,22.4737677 C8.53025781,22.3943824 8.45114062,22.3150716 8.45114062,22.1563011 C8.37194922,22.0769158 8.37194922,21.9976049 8.29283203,21.9182197 C8.37202344,21.8388344 8.29283203,21.7595235 8.29283203,21.600753 C8.29283203,21.5213677 8.21364062,21.4420569 8.21364062,21.3626716 C8.13444922,21.2039755 7.97614062,21.3626716 7.81783203,21.2832863 C7.81783203,21.2832863 7.81783203,21.2832863 7.81783203,21.2039011 L7.81783203,21.2039011 C7.89702344,21.2039011 7.97614062,21.2039011 8.05533203,21.2039011 C8.05533203,21.1245158 7.97614062,21.1245158 7.97614062,21.0452049 C7.89694922,20.9658197 7.89694922,20.9658197 7.81783203,20.8865088 C7.89702344,20.8865088 7.89702344,20.8865088 7.89702344,20.8865088 C7.97621484,20.8865088 8.13452344,20.9658941 8.13452344,20.7278127 L8.13452344,20.6484274 C8.21371484,20.5690422 8.29283203,20.410346 8.21371484,20.3309608 C8.21371484,20.0928794 8.13452344,19.854798 7.97621484,19.6961018 C7.89702344,19.6167166 7.73871484,19.5374057 7.81790625,19.3786352 L7.81790625,19.2994731 L7.81790625,19.2200878 C7.89709766,19.0613917 7.81790625,18.9026212 7.73871484,18.8233103 C7.81790625,18.7439251 7.81790625,18.6646142 7.73871484,18.5058437 C7.65952344,18.4264584 7.65952344,18.3471475 7.81790625,18.3471475 C7.73871484,18.2677623 7.58040625,18.1884514 7.50121484,18.1090661 C7.42202344,18.0296809 7.42202344,18.0296809 7.34290625,17.95037 C7.26371484,17.8709847 7.26371484,17.7916739 7.26371484,17.7916739 C7.18452344,17.7122886 7.10540625,17.7122886 7.18452344,17.5535925 L7.18452344,17.4742072 C7.18452344,17.3948219 7.10533203,17.3155111 7.10533203,17.2361258 C7.10533203,17.2361258 7.10533203,17.2361258 7.02614063,17.3155111 L7.02614063,17.3155111 C6.86783203,17.2361258 6.78864063,17.2361258 6.70944922,17.3948963 C6.70944922,17.3948963 6.63025781,17.3948963 6.63025781,17.4742816 C6.63025781,17.4742816 6.63025781,17.4742816 6.63025781,17.3948963 C6.63025781,17.3155111 6.70944922,17.3155111 6.70944922,17.2362002 C6.78864063,17.156815 6.86775781,17.156815 6.86775781,17.0775041 L6.86775781,17.0775041 C6.94694922,17.0775041 6.94694922,17.0775041 7.02606641,17.0775041 C7.02606641,16.9981188 7.02606641,16.918808 6.946875,16.918808 C6.86768359,16.918808 6.78856641,16.8394227 6.709375,16.8394227 C6.63018359,16.8394227 6.55106641,16.7600374 6.471875,16.6807266 C6.39268359,16.6807266 6.39268359,16.6807266 6.31356641,16.6807266 C6.234375,16.6807266 6.234375,16.6807266 6.15525781,16.6807266 C6.07606641,16.6807266 5.99694922,16.6807266 5.99694922,16.6807266 C5.99694922,16.6013413 5.99694922,16.5220304 5.99694922,16.5220304 C5.99694922,16.3633343 5.91775781,16.3633343 5.83864063,16.283949 C5.60114063,16.283949 5.44283203,16.283949 5.44283203,16.1252529 C5.44283203,16.0458676 5.44283203,15.8871715 5.52202344,15.7284754 C5.52202344,15.6490901 5.60121484,15.5697793 5.60121484,15.5697793 C5.68040625,15.490394 5.75952344,15.4110831 5.91790625,15.4110831 C6.07621484,15.3316979 6.07621484,15.252387 5.99709766,15.0936165 C5.91790625,14.9349203 5.75959766,14.8555351 5.68040625,14.6968389 L5.521875,14.5378452 C5.68018359,14.4584599 5.83856641,14.3791491 5.996875,14.2997638 C6.07606641,14.2203785 6.234375,14.2203785 6.31356641,14.1410677 L6.39268359,14.0616824 C6.31349219,13.9822971 6.31349219,13.9029863 6.234375,13.9029863 C6.07606641,13.7442902 5.91768359,13.7442902 5.759375,13.9029863 L5.759375,13.9029863 C5.68018359,13.9029863 5.60106641,13.9029863 5.521875,13.9029863 C5.44268359,13.823601 5.44268359,13.7442902 5.36356641,13.6649049 C5.20525781,13.5855196 5.20525781,13.4268235 5.20525781,13.2681274 C5.28444922,13.030046 5.36356641,12.7919646 5.52194922,12.6332684 C5.60114062,12.6332684 5.60114062,12.5538832 5.68025781,12.4745723 C5.759375,12.3952614 5.75944922,12.395187 5.91775781,12.395187 L5.996875,12.395187 C5.996875,12.395187 5.996875,12.3158018 6.07606641,12.3158018 C6.15518359,12.2364165 6.234375,12.1570313 6.234375,12.1570313 C6.31356641,12.2364165 6.39268359,12.1570313 6.471875,12.1570313 C6.55106641,12.3157274 6.63018359,12.3157274 6.709375,12.2364165 C6.78856641,12.2364165 6.78856641,12.3158018 6.78856641,12.3158018 C6.86775781,12.395187 7.02606641,12.4744979 7.02606641,12.6332684 C7.02606641,12.7919646 7.184375,12.8713498 7.26356641,12.9507351 C7.26356641,12.8713498 7.34275781,12.8713498 7.34275781,12.792039 L7.26356641,12.7126537 C7.26356641,12.7126537 7.34275781,12.7126537 7.34275781,12.792039 C7.42194922,12.8714242 7.58025781,12.9507351 7.65944922,13.1095056 C7.73864062,13.1888909 7.73864062,13.2682018 7.73864062,13.347587 C7.73864062,13.4269723 7.81783203,13.4269723 7.81783203,13.5062832 C7.97614062,13.5856684 7.97614062,13.7443646 7.89702344,13.9030607 C7.81783203,13.9824459 7.73871484,14.0617568 7.73871484,14.1411421 C7.65952344,14.2998382 7.65952344,14.3792235 7.65952344,14.5379196 C7.73871484,14.6173049 7.81783203,14.6173049 7.89702344,14.5379196 C7.97621484,14.4585343 8.05533203,14.3792235 8.05533203,14.3792235 C8.13452344,14.2205273 8.21364062,14.0617568 8.29283203,13.9030607 C8.37202344,13.8236754 8.60952344,13.7443646 8.68864062,13.7443646 C8.76783203,13.7443646 8.84694922,13.7443646 9.00533203,13.8237498 L9.08452344,13.8237498 C9.24283203,13.9031351 9.32202344,13.9031351 9.48033203,13.9824459 L9.55952344,13.9030607 C9.63871484,13.9030607 9.63871484,13.9030607 9.71783203,13.9824459 L9.71783203,13.9824459 C9.71783203,13.9824459 9.71783203,13.9030607 9.63864062,13.9030607 C9.71783203,13.9030607 9.71783203,13.9824459 9.79694922,13.9824459 C9.87614062,13.8237498 9.95525781,13.7443646 10.0344492,13.5856684 L10.0344492,13.5856684 C10.1136406,13.5062832 10.1927578,13.5062832 10.1927578,13.4269723 C10.1927578,13.5063576 10.1135664,13.5856684 10.0344492,13.5856684 C9.95525781,13.6650537 9.95525781,13.6650537 9.87614062,13.7443646 C10.0344492,13.6649793 10.192832,13.6649793 10.2719492,13.5062832 L10.2719492,13.5856684 C10.4302578,13.5856684 10.5094492,13.5856684 10.5886406,13.4269723 C10.667832,13.5063576 10.7469492,13.5063576 10.8261406,13.5856684 L10.8261406,13.5856684 C10.7469492,13.5856684 10.7469492,13.5062832 10.667832,13.5062832 L10.667832,13.5062832 C10.8261406,13.5856684 10.9845234,13.6649793 11.0636406,13.8237498 C11.0636406,13.7443646 11.142832,13.6650537 11.142832,13.6650537 C11.2220234,13.5856684 11.380332,13.5063576 11.5386406,13.5856684 C11.617832,13.5856684 11.617832,13.5856684 11.6969492,13.5856684 C11.7761406,13.6650537 11.8552578,13.7443646 12.0136406,13.6650537 L12.092832,13.6650537 C12.1720234,13.744439 12.330332,13.8237498 12.4095234,13.8237498 C12.4095234,13.8237498 12.330332,13.8237498 12.330332,13.9031351 C12.330332,13.9031351 12.2511406,13.9031351 12.1720234,13.8237498 C12.0137148,13.8237498 11.9345234,13.9031351 12.0137148,14.0618312 C12.3304062,13.9824459 12.4887148,14.2205273 12.7262148,14.2999126 L12.7262148,14.2205273 L12.7262148,14.2205273 L12.7262148,14.2205273 L12.7262148,14.2205273 C12.7262148,14.1411421 12.7262148,14.0618312 12.5679062,14.0618312 C12.4887148,14.0618312 12.4887148,13.7443646 12.4887148,13.6650537 C12.5679062,13.5856684 12.5679062,13.4269723 12.6470234,13.4269723 C12.567832,13.347587 12.567832,13.2682762 12.567832,13.1888909 L12.567832,13.1888909 L12.6470234,13.2682762 C12.7262148,13.2682762 12.805332,13.3476614 12.8845234,13.2682762 C12.9637148,13.1888909 12.9637148,13.10958 12.8845234,13.0301948 C12.805332,12.9508095 12.7262148,12.8714986 12.567832,12.7921134 C12.4095234,12.7127281 12.2511406,12.7127281 12.0136406,12.6334172 C12.1719492,12.6334172 12.4094492,12.6334172 12.567832,12.6334172 C12.567832,12.6334172 12.567832,12.6334172 12.6470234,12.6334172 C12.7262148,12.6334172 12.7262148,12.6334172 12.805332,12.6334172 C12.8845234,12.6334172 12.9636406,12.6334172 13.042832,12.6334172 C13.2011406,12.7921134 13.3595234,12.9508839 13.517832,13.1889653 C13.5970234,13.2683506 13.755332,13.4270467 13.8345234,13.4270467 C13.992832,13.4270467 14.1512148,13.4270467 14.230332,13.5857428 C14.3095234,13.6651281 14.467832,13.6651281 14.5470234,13.5857428 L14.6262148,13.5063576 C14.7054062,13.5063576 14.7054062,13.4269723 14.7054062,13.3476614 C14.7054062,13.2682762 14.6262148,13.2682762 14.6262148,13.1889653 L14.7054062,13.10958 C14.6262148,13.0301948 14.5470977,13.0301948 14.4679062,13.0301948 C14.4679062,12.9508095 14.4679062,12.9508095 14.5470977,12.9508095 C14.6262891,12.9508095 14.6262891,13.0301948 14.7054062,13.0301948 L14.7054062,13.0301948 C14.6262148,12.8714986 14.6262148,12.7127281 14.5470977,12.554032 C14.6262891,12.4746467 14.6262891,12.4746467 14.5470977,12.3953358 L14.5470977,12.3159506 C14.5470977,12.2365653 14.5470977,12.1572545 14.5470977,12.0778692 C14.6262891,12.0778692 14.7054062,12.0778692 14.7054062,12.0778692 C14.7845977,11.9984839 14.7845977,11.9191731 14.7845977,11.8397878 C14.7845977,11.7604025 14.8637891,11.7604025 14.8637891,11.6810917 L14.784375,11.6810917 L14.8635664,11.6810917 C14.8635664,11.6810917 14.8635664,11.6017064 14.784375,11.6017064 L14.8635664,11.5223211 C14.8635664,11.4429359 14.9427578,11.4429359 14.9427578,11.363625 C14.9427578,11.2843141 15.0219492,11.2049289 15.0219492,11.0461583 L15.0219492,10.9666243 C14.9427578,10.9666243 14.8636406,10.9666243 14.7844492,11.0460095 C14.7052578,11.1253948 14.6261406,11.1253948 14.5469492,11.1253948 L14.4677578,11.1253948 C14.3885664,11.1253948 14.3094492,11.1253948 14.2302578,11.1253948 C14.2302578,11.0460095 14.2302578,10.9666987 14.3094492,10.8079281 C14.2302578,10.7285429 14.2302578,10.7285429 14.1511406,10.649232 C14.230332,10.649232 14.230332,10.649232 14.3094492,10.649232 C14.3886406,10.5698467 14.5469492,10.4905359 14.4677578,10.3317654 L14.5469492,10.4111506 L14.7844492,10.1730692 L14.7052578,10.093684 C14.7052578,10.0142987 14.7052578,10.0142987 14.6260664,9.93498783 C14.546875,9.85560256 14.546875,9.85560256 14.6260664,9.7762917 C14.6260664,9.69690643 14.7052578,9.61759557 14.7052578,9.5382103 C14.7844492,9.45882504 14.7844492,9.22074364 14.6260664,9.22074364 C14.546875,9.22074364 14.4677578,9.14135838 14.4677578,9.06204751 C14.4677578,8.98266225 14.3885664,8.90335138 14.3885664,8.90335138 L14.309375,8.82389172 C14.1510664,8.82389172 14.071875,8.90327698 14.1510664,9.06197311 C13.9135664,9.06197311 13.834375,9.30005451 13.7552578,9.37943977 C13.6760664,9.45882504 13.5969492,9.5381359 13.4385664,9.45882504 C13.359375,9.37943977 13.2802578,9.45882504 13.2802578,9.5382103 C13.2802578,9.69690643 13.2010664,9.85567696 13.1219492,10.0143731 C13.0427578,10.0937584 12.9636406,10.1730692 12.9636406,10.2524545 L13.042832,10.3318398 C13.042832,10.3318398 13.042832,10.3318398 12.9636406,10.3318398 L12.884375,10.3318398 C12.7260664,10.411225 12.646875,10.3318398 12.4885664,10.3318398 C12.409375,10.3318398 12.409375,10.3318398 12.3302578,10.3318398 L12.3302578,10.3318398 C12.1719492,10.4905359 12.0927578,10.6493064 11.9344492,10.8873878 L11.8552578,10.8873878 C11.8552578,10.8873878 11.7760664,10.9667731 11.7760664,11.0460839 C11.696875,10.9666987 11.696875,10.8873878 11.6177578,10.9666987 C11.6177578,10.8873134 11.5385664,10.8873134 11.5385664,10.8080025 C11.7760664,10.6493064 11.7760664,10.5699211 11.7760664,10.4905359 L11.8552578,10.4111506 C11.8552578,10.3317654 11.8552578,10.2524545 11.9344492,10.2524545 C12.0927578,10.0937584 12.1719492,10.0143731 12.3302578,9.85567696 C12.2510664,9.7762917 12.2510664,9.69698083 12.1719492,9.61759557 C12.0927578,9.5382103 12.0136406,9.45889944 12.0136406,9.45889944 C12.0136406,9.30020331 11.9344492,9.22081804 11.9344492,9.14143278 L11.9344492,9.06197311 C11.9344492,8.74450645 11.9344492,8.50642505 11.6177578,8.34772892 C11.6969492,8.26834366 11.7760664,8.10964753 11.8552578,8.03026226 C11.9344492,7.950877 11.9344492,7.87156613 11.8552578,7.79218087 C11.8552578,7.79218087 11.7760664,7.63348474 11.8552578,7.63348474 C12.0135664,7.47478861 12.1719492,7.39540334 12.3302578,7.31601808 C12.4094492,7.23663281 12.4885664,7.23663281 12.5677578,7.15732195 C12.7260664,7.23670721 12.9635664,7.15732195 13.1219492,7.07793668 C13.2011406,7.15732195 13.2802578,7.15732195 13.3594492,7.15732195 C13.4386406,7.15732195 13.4386406,7.07793668 13.5177578,6.99862582 C13.5177578,7.07801108 13.5969492,7.07801108 13.6760664,6.99862582 C13.7552578,6.99862582 13.7552578,6.91924055 13.834375,6.99862582 C13.834375,7.07801108 13.9926836,7.07801108 13.9926836,7.07801108 C14.1509922,7.07801108 14.2301836,6.99862582 14.3884922,6.99862582 C14.3093008,6.83992969 14.1509922,6.68115916 14.2301836,6.44307776 C14.2301836,6.52246303 14.309375,6.68115916 14.309375,6.76054442 C14.309375,6.76054442 14.309375,6.83992969 14.3885664,6.83992969 C14.4677578,6.91931495 14.784375,6.83992969 14.784375,6.83992969 L14.784375,6.76054442 L14.784375,6.68115916 L14.8635664,6.68115916 L14.9427578,6.76054442 C14.784375,6.91924055 15.021875,6.91924055 15.021875,6.99862582 C15.021875,6.91924055 15.1010664,6.91924055 15.1010664,6.83992969 C15.1010664,6.91931495 15.1010664,6.99862582 15.1010664,7.07801108 C15.259375,7.07801108 15.4177578,7.07801108 15.5760664,7.07801108 C15.6552578,7.07801108 15.6552578,6.99862582 15.734375,6.91931495 C15.8135664,6.83992969 15.8135664,6.68123356 15.8926836,6.60184829 C16.0509922,6.68123356 16.1301836,6.76054442 16.1301836,6.52246303 L16.209375,6.52246303 C16.1301836,6.44307776 16.1301836,6.28438163 16.209375,6.20499637 L16.209375,6.1256111 C16.1301836,6.04622584 16.0510664,5.88752971 15.971875,5.80814444 C15.8926836,5.88752971 15.734375,5.96684057 15.8135664,6.1256111 C15.734375,6.1256111 15.734375,6.20499637 15.6552578,6.20499637 C15.5760664,6.20499637 15.5760664,6.1256111 15.4969492,6.1256111 C15.3386406,6.20499637 15.2594492,6.20499637 15.1011406,6.28430723 C15.0219492,6.3636925 14.942832,6.3636925 14.8636406,6.28430723 C14.8636406,6.20492197 14.942832,6.1256111 14.942832,6.04622584 C14.942832,5.96684057 15.0220234,5.88752971 15.180332,5.96684057 L15.180332,5.96684057 C15.2595234,5.88745531 15.2595234,5.72875918 15.3386406,5.64937391 C15.3386406,5.56998864 15.3386406,5.56998864 15.2594492,5.56998864 C15.1802578,5.56998864 15.1802578,5.64937391 15.1011406,5.64937391 C14.942832,5.64937391 14.942832,5.72875918 14.8636406,5.72875918 C14.942832,5.57006305 15.0219492,5.49067778 15.0219492,5.41129251 C15.0219492,5.33190725 15.0219492,5.33190725 15.1011406,5.33190725 L15.1011406,5.25267078 C15.1011406,5.17328552 15.0219492,5.09397465 15.0219492,5.09397465 C15.1011406,5.09397465 15.1802578,5.01458939 15.2594492,5.01458939 C15.2594492,5.01458939 15.2594492,5.01458939 15.3386406,5.01458939 C15.3386406,4.93520412 15.3386406,4.77650799 15.417832,4.69712273 C15.417832,4.61773746 15.4970234,4.5384266 15.5761406,4.45904133 L15.5761406,4.37965607 C15.5761406,4.3002708 15.655332,4.22095994 15.655332,4.22095994 L15.655332,4.22095994 L15.655332,4.22095994 C15.655332,4.14157467 15.655332,4.14157467 15.7345234,4.06226381 L15.7345234,4.06226381 C15.655332,4.14164907 15.5762148,4.14164907 15.417832,4.22095994 C15.3386406,4.14157467 15.180332,4.22095994 15.1011406,4.45904133 L15.021875,4.45904133 C14.9426836,4.45904133 14.8635664,4.5384266 14.8635664,4.69712273 C14.8635664,4.85581886 14.784375,5.01458939 14.9427578,5.09390025 C14.8635664,5.09390025 14.7844492,5.17328552 14.6260664,5.25259638 C14.7052578,5.25259638 14.7052578,5.33198165 14.784375,5.33198165 C14.7051836,5.49067778 14.4676836,5.49067778 14.309375,5.33198165 C14.2301836,5.41136691 14.1510664,5.49067778 14.071875,5.57006305 C13.9926836,5.33198165 14.2301836,5.33198165 14.309375,5.25259638 L14.2301836,5.25259638 C14.309375,5.09390025 14.2301836,5.01451499 14.071875,4.93512972 C14.071875,5.01451499 13.9926836,5.09382585 13.9926836,5.17321112 L14.071875,5.25267078 C14.071875,5.25267078 13.9926836,5.25267078 13.9135664,5.33205605 C13.9135664,5.17335992 13.9135664,5.09397465 13.9135664,5.01458939 L13.834375,5.09397465 C13.7551836,5.01458939 13.596875,4.85589326 13.5176836,4.77650799 C13.359375,4.45904133 13.2801836,4.45904133 13.359375,4.3003452 C13.359375,4.22095994 13.359375,4.14164907 13.2801836,4.06226381 C13.2009922,4.06226381 13.2009922,3.82418241 13.2801836,3.74479715 C13.4384922,3.50671575 13.359375,3.50671575 13.2009922,3.42733049 C13.2009922,3.42733049 13.1218008,3.42733049 13.1218008,3.34794522 C13.0426094,3.34794522 12.9634922,3.34794522 12.8843008,3.34794522 C12.8843008,3.58602662 12.8843008,3.58602662 13.0426094,3.50664135 C13.0426094,3.58602662 13.1218008,3.58602662 13.1218008,3.58602662 C13.2009922,3.58602662 13.2801094,3.58602662 13.2801094,3.58602662 L13.2801094,3.58602662 C13.200918,3.66541188 13.1218008,3.66541188 12.963418,3.58602662 C12.8842266,3.50664135 12.725918,3.58602662 12.725918,3.66541188 C12.725918,3.74479715 12.646875,3.82418241 12.646875,3.82418241 C12.646875,3.82418241 12.5676836,3.82418241 12.4885664,3.82418241 C12.4885664,3.74479715 12.4885664,3.74479715 12.4885664,3.74479715 C12.5677578,3.74479715 12.646875,3.74479715 12.5677578,3.66541188 C12.5677578,3.58602662 12.5677578,3.58602662 12.5677578,3.50671575 L12.5677578,3.42733049 C12.5677578,3.34794522 12.5677578,3.26863436 12.4885664,3.18924909 C12.171875,3.10993823 12.0135664,2.87185683 11.934375,2.63377544 C12.0926836,2.55439017 12.0926836,2.63377544 12.2510664,2.7131607 C12.2510664,2.55446457 12.3302578,2.47507931 12.3302578,2.39569404 L12.2510664,2.31630878 C12.171875,2.31630878 12.171875,2.23692351 12.171875,2.23692351 C12.0926836,1.99884211 11.934375,1.76076072 11.934375,1.44329406 C11.934375,1.36390879 11.8551836,1.28459793 11.7760664,1.20521266 C11.7760664,1.20521266 11.696875,1.20521266 11.6177578,1.20521266 C11.5386406,1.20521266 11.5385664,1.20521266 11.4594492,1.1258274 C11.5386406,1.04644213 11.6177578,0.967131268 11.6969492,0.808360738 C11.5386406,0.808360738 11.4594492,0.887746003 11.3802578,0.887746003 L11.3010664,0.887746003 C11.3010664,0.887746003 11.221875,0.808360738 11.3010664,0.808360738 C11.3010664,0.728975472 11.3802578,0.570279342 11.459375,0.490894077 C11.459375,0.411508812 11.5385664,0.332197947 11.5385664,0.252812682 C11.5385664,0.252812682 11.5385664,0.252812682 11.459375,0.252812682 C11.459375,0.332197947 11.459375,0.332197947 11.3801836,0.411508812 C11.3009922,0.411508812 11.221875,0.490894077 11.1426836,0.332123547 C11.1426836,0.332123547 11.0634922,0.252738281 10.984375,0.252738281 C11.221875,0.252738281 11.221875,0.252738281 11.221875,0.173353016 C10.984375,0.0939677507 10.746875,0.0939677507 10.5885664,0.0146568859 C9.321875,0.570204942 8.21356641,1.20506386 7.10525781,1.99869331 L7.10525781,1.99869331 C7.10525781,2.15738944 7.10525781,2.23677471 7.10525781,2.39547084 C7.10525781,2.39547084 7.18444922,2.39547084 7.18444922,2.4748561 C7.18444922,2.4748561 7.18444922,2.39547084 7.26364062,2.39547084 C7.26364062,2.39547084 7.26364062,2.31608557 7.26364062,2.23677471 L7.34283203,2.23677471 C7.34283203,2.31615997 7.34283203,2.4748561 7.34283203,2.55424137 L7.34283203,2.55424137 C7.42202344,2.4748561 7.42202344,2.39554524 7.50114062,2.31615997 C7.50114062,2.39554524 7.50114062,2.39554524 7.42194922,2.4748561 C7.42194922,2.55424137 7.34275781,2.55424137 7.34275781,2.63355223 C7.34275781,2.79224836 7.34275781,2.87163363 7.26356641,2.9510189 C7.26356641,2.9510189 7.26356641,3.03040416 7.184375,3.03040416 C7.184375,3.10978943 7.10518359,3.18910029 7.10518359,3.26848556 L7.10518359,3.34801962 C7.02599219,3.34801962 7.02599219,3.34801962 6.946875,3.42740489 L7.02606641,3.50679015 C7.02606641,3.50679015 7.02606641,3.58617542 7.02606641,3.66548628 C7.02606641,3.66548628 7.02606641,3.74487155 7.10525781,3.74487155 C7.10525781,3.74487155 7.02606641,3.74487155 6.94694922,3.74487155 C7.02614062,3.74487155 7.02614062,3.82425681 7.10525781,3.82425681 C6.94694922,4.06233821 6.86775781,4.14172347 6.86775781,4.14172347 C6.86775781,4.14172347 6.86775781,4.22110874 6.78856641,4.22110874 C6.78856641,4.37980487 6.78856641,4.5385754 6.709375,4.69727153 C6.709375,4.69727153 6.709375,4.69727153 6.709375,4.7766568 C6.709375,4.85604206 6.63018359,5.09412346 6.63018359,5.09412346 C6.471875,5.17350872 6.55099219,5.17350872 6.63018359,5.25281959 C6.63018359,5.25281959 6.63018359,5.33220485 6.63018359,5.41151572 L6.63018359,5.41151572 C6.471875,5.25281959 6.471875,5.17343432 6.39268359,5.01473819 L6.39268359,5.01473819 L6.39268359,5.09412346 C6.31349219,5.09412346 6.31349219,5.17350872 6.31349219,5.17350872 C6.31349219,5.25289399 6.39268359,5.33220485 6.31349219,5.49097538 C6.31349219,5.57036065 6.31349219,5.72905678 6.31349219,5.88775291 C6.23430078,5.88775291 5.99680078,6.28453043 5.99680078,6.3639157 C5.91760938,6.3639157 5.91760938,6.3639157 5.83849219,6.44330096 C5.68018359,6.52268623 5.60099219,6.60199709 5.44268359,6.76076762 C5.36349219,6.84015289 5.284375,6.91946375 5.20518359,6.99884902 C5.12599219,7.07823428 5.046875,7.15754515 4.96768359,7.23693041 L4.88849219,7.31631568 C4.80930078,7.39570094 4.80930078,7.47501181 4.80930078,7.47501181 C4.73010938,7.63370794 4.73010938,7.7130932 4.80930078,7.79247847 L4.73010938,7.87186374 C4.73010938,7.951249 4.65091797,8.10994513 4.65091797,8.1893304 C4.65091797,8.26871566 4.65091797,8.26871566 4.65091797,8.34802653 C4.57172656,8.42741179 4.65091797,8.50672266 4.65091797,8.58610792 C4.65091797,8.74480405 4.73010938,8.90357458 4.65091797,8.98288545 C4.65091797,9.14158158 4.49260938,9.30035211 4.49260938,9.45904824 C4.41341797,9.5384335 4.41341797,9.69712963 4.41341797,9.7765149 C4.41341797,9.85590016 4.41341797,9.93521103 4.41341797,9.93521103 C4.41341797,10.0145963 4.33422656,10.0145963 4.33422656,10.0145963 L4.25503516,9.93521103 C4.25503516,10.0145963 4.25503516,10.1732924 4.25503516,10.2526777 C4.33422656,10.4113738 4.25503516,10.4907591 4.17584375,10.5701443 L4.09665234,10.6495296 C4.09665234,10.8082257 4.09665234,10.9669963 4.09665234,11.1256924 C4.17584375,11.1256924 4.25496094,11.0463071 4.25496094,10.9669963 C4.25496094,10.8876854 4.25496094,10.8083001 4.25496094,10.8083001 C4.41326953,10.5702187 4.41326953,10.3321374 4.49246094,10.094056 L4.49246094,10.0142987 C4.49246094,9.7762173 4.57165234,9.61752117 4.72996094,9.45875064 C4.72996094,9.61744677 4.88826953,9.69683203 4.72996094,9.85552816 C4.65076953,9.93491343 4.65076953,10.0936096 4.57165234,10.1729948 L4.57165234,10.2523801 C4.57165234,10.4110762 4.57165234,10.5698467 4.57165234,10.7285429 C4.57165234,10.8079281 4.57165234,10.887239 4.49246094,10.887239 C4.49246094,10.887239 4.49246094,10.9666243 4.49246094,11.0459351 L4.49246094,11.1253204 C4.49246094,11.2840165 4.41326953,11.4427871 4.41326953,11.6014832 C4.41326953,11.7601793 4.33407813,11.9189499 4.17576953,11.9982607 C4.09657813,12.077646 4.01746094,12.077646 4.09657813,12.1569568 C4.09657813,12.315653 4.09657813,12.5537344 4.25488672,12.7125049 L4.25488672,12.7918902 C4.25488672,12.8712754 4.33407813,13.0299716 4.33407813,13.1093568 C4.33407813,13.1887421 4.41326953,13.3474382 4.41326953,13.4268235 C4.57157813,13.5062088 4.65076953,13.6649049 4.72996094,13.6649049 C4.88826953,13.7442902 4.96746094,13.823601 4.96746094,14.0616824 C4.96746094,14.4584599 5.12576953,14.6965413 5.28415234,14.9346227 C5.28415234,15.014008 5.28415234,15.014008 5.20496094,15.0933189 C5.20496094,15.252015 5.20496094,15.3314003 5.12576953,15.4107855 L5.12576953,15.5694816 C5.20496094,15.6488669 5.20496094,15.7281778 5.20496094,15.807563 C5.20496094,15.8869483 5.20496094,15.9662592 5.28415234,16.0456444 C5.28415234,16.1250297 5.36334375,16.1250297 5.36334375,16.2043406 C5.36334375,16.2837258 5.36334375,16.2837258 5.36334375,16.3630367 L5.44253516,16.3630367 C5.44253516,16.2043406 5.44253516,16.2043406 5.75922656,16.2836514 C5.75922656,16.3630367 5.75922656,16.4423476 5.75922656,16.4423476 C5.68003516,16.5217328 5.60091797,16.680429 5.60091797,16.7598142 C5.52172656,16.8391995 5.36341797,16.9185104 5.36341797,17.0772809 C5.28422656,17.0772809 5.20510938,17.0772809 5.12591797,16.9978956 L5.12591797,16.9978956 C4.96760938,17.0772809 4.73010938,16.9978956 4.49260938,17.0772809 L4.49260938,17.0772809 C4.41341797,17.1566662 4.33430078,17.1566662 4.33430078,17.235977 L4.41349219,17.3153623 C4.33430078,17.3947475 4.33430078,17.3947475 4.17599219,17.3153623 C4.09680078,17.3153623 3.93849219,17.4740584 3.93849219,17.5534437 C3.93849219,17.7915251 3.85930078,18.0296065 3.78018359,18.2676879 C3.70099219,18.426384 3.70099219,18.5057693 3.621875,18.6644654 C3.621875,18.7438507 3.54268359,18.8231615 3.46356641,18.9025468 L3.46356641,18.981932 C3.46356641,19.2200134 3.46356641,19.3787096 3.54275781,19.616791 C3.62194922,19.8548724 3.70106641,20.0929538 3.46356641,20.2516499 C3.22606641,20.4897313 2.909375,20.7278127 2.671875,20.8865088 C2.59268359,20.9658941 2.51356641,21.0452049 2.35518359,21.0452049 C2.03849219,21.2039011 1.80099219,21.3626716 1.56349219,21.600753 C1.56349219,21.600753 1.56349219,21.6801383 1.48430078,21.6801383 C1.24680078,21.7595235 1.00930078,21.9182197 0.771800781,21.9976049 C0.613492188,22.0769902 0.375992188,22.1563011 0.296800781,22.3150716 L0.217683594,22.3945312 C0.138492187,22.3945312 0.138492187,22.4739165 0.059375,22.4739165 C0.217683594,22.9500793 0.376066406,23.5056274 0.534375,23.9817902 C0.455183594,24.4578785 0.455183594,24.4578785 0.534375,24.4578785 Z" id="Shape"></path>
                        <path d="M36.7135664,13.9029863 L36.7135664,13.9029863 C36.4760664,14.0616824 36.4760664,14.0616824 36.2385664,13.9823715 C36.2385664,13.9823715 36.159375,13.9823715 36.159375,13.9029863 C36.0010664,13.823601 36.0010664,13.823601 35.921875,13.9823715 C35.684375,13.9823715 35.684375,13.8236754 35.6051836,13.6649049 C35.6051836,13.823601 35.5259922,13.9029863 35.5259922,13.9823715 C35.5259922,14.0617568 35.4468008,14.2204529 35.4468008,14.2998382 C35.3676094,14.2204529 35.3676094,14.2204529 35.3676094,14.2204529 C35.288418,14.2204529 35.2093008,14.1410677 35.2093008,13.9823715 C35.2093008,13.9029863 35.1301094,13.9029863 35.1301094,13.8236754 C35.050918,13.7442902 35.1301094,13.6649793 35.1301094,13.6649793 C35.2093008,13.585594 35.2093008,13.5062832 35.2093008,13.4268979 L35.2093008,13.3474382 C35.2884922,13.1887421 35.2093008,13.1093568 35.0509922,12.9506607 C34.971875,12.8712754 34.8135664,12.7918902 34.734375,12.8712754 C34.6551836,12.7918902 34.496875,12.7125793 34.4176836,12.7125793 C34.3384922,12.633194 34.259375,12.7125793 34.259375,12.7919646 C34.259375,12.8713498 34.259375,12.9506607 34.259375,12.9506607 C34.259375,13.030046 34.259375,13.1093568 34.1801836,13.1093568 C33.9426836,13.1887421 33.784375,13.1093568 33.6259922,13.0299716 C33.5468008,12.9505863 33.4676836,12.9505863 33.5468008,12.7918902 C33.1509922,12.633194 32.9134922,12.633194 32.6759922,12.7918902 C32.7551836,12.7918902 32.7551836,12.8712754 32.8343008,12.8712754 C32.7551094,12.8712754 32.7551094,12.9506607 32.6759922,12.9506607 C32.6759922,12.8712754 32.6759922,12.7919646 32.6759922,12.7125793 C32.6759922,12.633194 32.5968008,12.5538832 32.5968008,12.5538832 C32.5968008,12.6332684 32.5176094,12.7125793 32.5176094,12.7125793 C32.438418,12.7125793 32.3593008,12.7125793 32.2801094,12.5538832 C32.200918,12.5538832 32.1218008,12.5538832 32.1218008,12.4744979 C32.0426094,12.5538832 32.0426094,12.5538832 32.0426094,12.7125793 C32.200918,12.633194 32.200918,12.633194 32.200918,12.7125793 C32.1217266,12.7125793 32.0426094,12.7919646 31.963418,12.7919646 C31.963418,12.8713498 31.725918,12.9506607 31.488418,12.9506607 C31.5676094,12.8712754 31.6467266,12.7919646 31.725918,12.7125793 C31.8051094,12.7125793 31.8842266,12.7125793 31.8842266,12.633194 C31.8842266,12.5538088 31.963418,12.4744979 32.0425352,12.4744979 C32.1217266,12.3158018 32.2008437,12.1570313 32.3592266,12.1570313 C32.3592266,12.1570313 32.3592266,12.1570313 32.438418,12.1570313 C32.5176094,12.077646 32.5967266,11.9983351 32.5967266,11.9189499 C32.675918,11.8395646 32.675918,11.7602537 32.675918,11.6808685 C32.675918,11.6014832 32.5967266,11.5221723 32.675918,11.3634018 L32.675918,11.2840165 C32.675918,11.2046313 32.5967266,11.1253204 32.5967266,11.1253204 C32.5967266,11.1253204 32.5967266,11.1253204 32.5175352,11.2047057 C32.5175352,11.1253204 32.5175352,11.0460095 32.4383437,11.0460095 C32.2800352,10.8873134 32.2008437,10.7285429 31.9633437,10.8079281 L31.884375,10.8079281 C31.8051836,10.8079281 31.7260664,10.8079281 31.7260664,10.8873134 C31.646875,10.9666987 31.5677578,11.0460095 31.4885664,10.9666987 C31.5677578,10.8873134 31.5677578,10.8873134 31.646875,10.8080025 C31.7260664,10.6493064 31.7260664,10.6493064 31.5676836,10.5699211 C31.4884922,10.5699211 31.4884922,10.5699211 31.409375,10.4905359 L31.409375,10.4905359 L31.3301836,10.4905359 C31.3301836,10.4111506 31.409375,10.4111506 31.409375,10.3318398 C31.4885664,10.2524545 31.4885664,10.1731436 31.409375,10.0937584 C31.3301836,10.0937584 31.3301836,10.0143731 31.2510664,10.0143731 C31.171875,9.93498783 31.0135664,10.0143731 31.0135664,10.0937584 C30.934375,10.1731436 30.8552578,10.3318398 30.7760664,10.411225 C30.7760664,10.4906103 30.696875,10.5699211 30.696875,10.6493064 C30.696875,10.7286917 30.696875,10.7286917 30.696875,10.8080025 C30.5385664,10.8080025 30.459375,10.8080025 30.3010664,10.8873878 C30.3802578,10.9667731 30.459375,11.0460839 30.3802578,11.2048545 C30.3010664,11.1254692 30.3010664,11.1254692 30.2219492,11.0461583 C29.9844492,11.1255436 29.9844492,11.2048545 29.9052578,11.2842397 C29.8260664,11.2842397 29.8260664,11.363625 29.7469492,11.363625 C29.7469492,11.363625 29.6677578,11.363625 29.6677578,11.2842397 C29.7469492,11.2048545 29.6677578,11.2048545 29.5885664,11.2048545 C29.509375,11.2048545 29.4302578,11.2048545 29.271875,11.2048545 C29.1926836,11.2048545 29.1926836,11.2048545 29.1135664,11.2048545 L29.1927578,11.2842397 C29.1135664,11.2842397 29.1135664,11.2842397 29.1135664,11.363625 C28.9552578,11.4430103 28.796875,11.4430103 28.7177578,11.5223211 C28.6385664,11.5223211 28.4802578,11.6017064 28.4802578,11.6810173 C28.4010664,11.7604025 28.3219492,11.8397134 28.2427578,11.7604025 L28.3219492,11.8397878 C28.3219492,11.9191731 28.2427578,11.9984839 28.2427578,12.0778692 C28.1635664,12.0778692 28.1635664,11.9984839 28.0844492,11.9984839 C28.0052578,12.1571801 28.1636406,12.0778692 28.1636406,12.1571801 L28.0844492,12.2365653 L28.0844492,12.2365653 C28.0844492,12.3159506 28.1636406,12.3159506 28.1636406,12.3952614 C28.1636406,12.4746467 28.0844492,12.5539576 28.005332,12.5539576 C27.767832,12.5539576 27.530332,12.6333428 27.292832,12.7126537 C27.1345234,12.7126537 27.055332,12.9507351 27.1345234,13.0301204 C27.1345234,13.1095056 27.2137148,13.1095056 27.2137148,13.1888165 C27.2137148,13.2682018 27.2137148,13.3475126 27.3720234,13.4268979 C27.4512148,13.5062832 27.6095234,13.585594 27.6887148,13.6649793 L27.6887148,13.7443646 C27.6095234,13.9030607 27.6887148,14.0618312 27.6887148,14.2205273 C27.6887148,14.2999126 27.6887148,14.3792235 27.6095234,14.3792235 L27.6095234,14.4586087 C27.530332,14.4586087 27.4512148,14.3792235 27.530332,14.2999126 C27.530332,14.1412165 27.4511406,13.9824459 27.6095234,13.8237498 C27.6095234,13.8237498 27.6095234,13.7443646 27.6887148,13.6650537 L27.609375,13.6650537 C27.4510664,13.6650537 27.371875,13.6650537 27.2926836,13.5063576 C27.2134922,13.3476614 27.0551836,13.3476614 26.8176836,13.3476614 C26.7384922,13.3476614 26.7384922,13.3476614 26.7384922,13.4270467 L26.8176836,13.506432 C26.659375,13.6651281 26.659375,13.6651281 26.5801836,13.506432 C26.5009922,13.5858172 26.5801836,13.6651281 26.5801836,13.6651281 C26.659375,13.7445134 26.7384922,13.8238242 26.8176836,13.8238242 C26.8176836,13.9032095 26.8176836,13.9032095 26.896875,13.9825203 C26.7385664,13.9031351 26.5801836,13.8238242 26.421875,13.8238242 C26.421875,13.744439 26.421875,13.6651281 26.421875,13.5857428 C26.421875,13.5063576 26.421875,13.4270467 26.421875,13.3476614 C26.5010664,13.1889653 26.421875,13.0301948 26.3426836,12.9508839 L26.3426836,13.0302692 C26.421875,13.1889653 26.3426836,13.3477358 26.184375,13.4270467 L26.184375,13.4270467 C26.1051836,13.506432 26.1051836,13.5857428 26.1051836,13.7445134 C26.184375,13.8238986 26.184375,13.9032095 26.184375,13.9825947 C26.184375,14.06198 26.2635664,14.06198 26.184375,14.1412909 C26.1051836,14.3793723 26.1051836,14.5380684 26.184375,14.8555351 C26.2635664,14.8555351 26.3426836,14.8555351 26.421875,14.8555351 C26.5010664,14.8555351 26.5801836,14.8555351 26.659375,14.8555351 C26.8176836,14.9349203 26.8176836,15.0936165 26.896875,15.1730017 C26.896875,15.252387 26.8176836,15.3316979 26.8176836,15.3316979 C26.8176836,15.3316979 26.896875,15.4110831 26.9759922,15.490394 C26.8176836,15.490394 26.8176836,15.490394 26.8176836,15.4110087 C26.896875,15.2523126 26.8176836,15.0935421 26.659375,14.9348459 C26.5801836,14.9348459 26.5801836,14.9348459 26.5010664,15.0142312 C26.2635664,15.0936165 26.2635664,15.0936165 26.3427578,15.3316979 C26.3427578,15.4110831 26.3427578,15.490394 26.3427578,15.5697793 C26.3427578,15.6491645 26.2635664,15.7284754 26.2635664,15.8078606 C26.2635664,15.8078606 26.2635664,15.8872459 26.184375,15.8872459 C26.1051836,15.9666312 26.0260664,16.045942 25.946875,16.1253273 C25.8676836,16.1253273 25.7885664,16.1253273 25.7885664,16.1253273 C25.709375,16.1253273 25.6302578,16.045942 25.709375,15.9666312 C25.7885664,16.0460164 25.8676836,16.1253273 25.946875,16.0460164 C25.946875,15.9666312 25.946875,15.807935 25.946875,15.807935 C26.1051836,15.807935 26.0260664,15.6492389 26.1051836,15.5698537 C26.184375,15.4111575 26.184375,15.252387 26.184375,15.1730761 L26.184375,15.0936909 C25.946875,14.8556095 26.184375,14.6175281 26.1051836,14.3794467 L26.1051836,14.3794467 C26.1051836,14.2207505 26.184375,14.06198 26.0259922,13.9032839 C25.9468008,13.8238986 25.9468008,13.7445878 26.0259922,13.6652025 C26.1051836,13.5065064 26.1051836,13.3477358 26.1051836,13.268425 C26.1051836,13.268425 26.1051836,13.1890397 26.0259922,13.1890397 C25.8676836,13.1890397 25.7093008,13.1096544 25.5509922,13.1096544 C25.5509922,13.1890397 25.4718008,13.2683506 25.4718008,13.3477358 C25.4718008,13.5858172 25.3926094,13.8238986 25.1551094,13.9032839 L25.075918,13.9826691 C25.075918,14.0620544 25.075918,14.0620544 25.075918,14.1413653 C25.075918,14.1413653 25.1551094,14.1413653 25.1551094,14.2207505 C25.1551094,14.3794467 25.075918,14.5382172 25.075918,14.7762986 C25.2342266,14.7762986 25.313418,14.8556839 25.313418,14.9349947 C25.313418,15.01438 25.3926094,15.01438 25.3926094,15.0936909 C25.3926094,15.1730761 25.313418,15.252387 25.313418,15.3317723 C25.2342266,15.252387 25.1551094,15.0936909 25.075918,15.0936909 C24.838418,14.9349947 24.600918,14.6969133 24.2842266,14.6969133 C24.2050352,14.6969133 24.125918,14.6969133 24.0467266,14.7762986 C24.0467266,14.7762986 24.0467266,14.8556839 24.0467266,14.9349947 C24.0467266,15.0143056 24.125918,15.0936909 24.0467266,15.1730761 C23.9675352,15.1730761 23.888418,15.2524614 23.9675352,15.3317723 C23.9675352,15.3317723 23.8883438,15.3317723 23.8883438,15.4111575 L23.8883438,15.3317723 C23.8883438,15.252387 23.8883438,15.1730761 23.8091523,15.0936909 C23.7299609,15.1730761 23.6508438,15.252387 23.5716523,15.252387 C23.4924609,15.252387 23.4924609,15.3317723 23.4133438,15.3317723 C23.2550352,15.3317723 23.0966523,15.3317723 23.0175352,15.5698537 C22.9383438,15.4904684 22.9383438,15.4111575 22.9383438,15.4111575 C22.9383438,15.3317723 22.9383438,15.2524614 22.9383438,15.2524614 L22.9383438,15.2524614 C22.9383438,15.3318467 22.8591523,15.3318467 22.8591523,15.4111575 C22.7008438,15.3317723 22.7799609,15.4905428 22.7799609,15.4905428 C22.7007695,15.4905428 22.6216523,15.4905428 22.6216523,15.5699281 C22.4633438,15.6493133 22.3049609,15.7286242 22.2258438,15.8080094 C22.1466523,15.8873947 22.0675352,15.8873947 22.0675352,16.0460908 C22.0675352,16.204787 21.9883438,16.204787 21.9092266,16.2841722 C21.8300352,16.2841722 21.750918,16.204787 21.750918,16.204787 C21.5926094,16.0460908 21.5926094,15.8873203 21.8301094,15.8080094 L21.8301094,15.8080094 C21.8301094,15.4905428 21.6718008,15.4905428 21.275918,15.4905428 C21.4342266,15.5699281 21.4342266,15.7286242 21.4342266,15.8080094 C21.4342266,15.8873947 21.4342266,15.8873947 21.4342266,15.9667056 L21.4342266,16.0460908 C21.513418,16.1254761 21.513418,16.204787 21.513418,16.2841722 C21.513418,16.3635575 21.513418,16.4428684 21.4342266,16.5222536 L21.3551836,16.4424964 C21.2759922,16.3631111 21.1176836,16.3631111 21.0384922,16.4424964 C20.9593008,16.5218816 20.8801836,16.6011925 20.8009922,16.6011925 C20.6426836,16.6805778 20.6426836,16.7598886 20.7218008,16.8392739 C20.7218008,16.9186592 20.8009922,16.99797 20.8009922,17.0773553 L20.8009922,17.0773553 C20.5634922,16.99797 20.4051836,16.9186592 20.1676836,16.8392739 C20.1676836,16.9186592 20.1676836,16.99797 20.1676836,16.99797 C20.1676836,17.0773553 20.246875,17.0773553 20.3259922,17.1566662 L20.3259922,17.1566662 C20.3259922,17.2360514 20.3259922,17.2360514 20.4051836,17.3153623 C20.3259922,17.3947475 20.1676836,17.3153623 20.0884922,17.235977 C20.0093008,17.1565918 19.9301836,17.1565918 19.9301836,17.0772809 C19.9301836,16.99797 19.8509922,16.9185848 19.8509922,16.8391995 L19.8509922,16.7598142 C19.8509922,16.680429 19.9301836,16.6011181 19.8509922,16.5217328 C19.6926836,16.3630367 19.6134922,16.2836514 19.4551836,16.1249553 L19.4551836,16.1249553 C19.4551836,16.1249553 19.534375,16.1249553 19.534375,16.2043406 C19.6926836,16.2837258 19.771875,16.3630367 19.9301836,16.442422 C20.0884922,16.5218072 20.246875,16.5218072 20.4051836,16.6011181 C20.484375,16.6011181 20.6426836,16.6011181 20.721875,16.6011181 C20.8801836,16.5217328 20.959375,16.442422 20.959375,16.2836514 C20.959375,16.04557 20.8801836,15.8868739 20.5635664,15.8074886 C20.484375,15.8074886 20.484375,15.7281034 20.4052578,15.7281034 C20.3260664,15.6487181 20.2469492,15.5694072 20.0885664,15.4106367 L20.009375,15.3312515 C19.8510664,15.3312515 19.6135664,15.2518662 19.534375,15.1725553 C19.534375,15.1725553 19.534375,15.0931701 19.4551836,15.0931701 L19.4551836,15.0931701 C19.4551836,15.0931701 19.534375,15.0931701 19.534375,15.1725553 C19.534375,15.0931701 19.534375,15.0931701 19.3760664,15.0138592 C19.3760664,15.0138592 19.3760664,15.0932445 19.296875,15.0932445 L19.059375,15.0932445 C18.9801836,15.0138592 18.9801836,14.9345483 18.9010664,14.8551631 C19.059375,14.9345483 19.1385664,14.8551631 19.2177578,14.6964669 C19.1385664,14.6170817 18.9802578,14.5377708 18.9010664,14.4583855 C18.9010664,14.5377708 18.821875,14.6170817 18.821875,14.6170817 L18.821875,14.6170817 C18.821875,14.5376964 18.821875,14.4583855 18.821875,14.3790003 C18.821875,14.3790003 18.7426836,14.3790003 18.7426836,14.299615 C18.6634922,14.4583111 18.6634922,14.5376964 18.584375,14.6170817 L18.584375,14.6170817 C18.584375,14.5376964 18.584375,14.4583855 18.584375,14.3790003 C18.5051836,14.5376964 18.4260664,14.6170817 18.346875,14.7757778 L18.346875,14.7757778 C18.4260664,14.6963925 18.4260664,14.5376964 18.5051836,14.4583111 C18.4259922,14.4583111 18.4259922,14.3789259 18.346875,14.3789259 L18.2676836,14.4583111 C18.346875,14.5376964 18.2676836,14.6170073 18.1884922,14.6170073 C18.109375,14.6965413 18.109375,14.7759266 18.0301836,14.7759266 C17.9509922,14.7759266 17.871875,14.6965413 17.7926836,14.6965413 C17.7926836,14.7759266 17.871875,14.8552375 17.871875,14.8552375 C17.7135664,14.7758522 17.634375,14.8552375 17.634375,15.0139336 C17.634375,14.9345483 17.634375,14.8552375 17.634375,14.8552375 L17.5551836,14.9346227 C17.396875,14.8552375 17.4759922,15.014008 17.396875,15.014008 L17.3176836,15.014008 C17.3176836,15.0933933 17.3176836,15.0933933 17.3176836,15.1727041 C17.2384922,15.0933189 17.159375,15.0933189 17.0801836,15.014008 C17.0801836,15.0933933 17.0009922,15.1727041 17.0009922,15.2520894 C17.0801836,15.2520894 17.0801836,15.2520894 17.1593008,15.2520894 C17.2384922,15.4107855 17.0801094,15.4107855 17.0009922,15.4901708 C17.0801836,15.4901708 17.0801836,15.4901708 17.1593008,15.5695561 L17.1593008,15.5695561 L17.0009922,15.5695561 L17.0009922,15.7282522 C17.0009922,15.6488669 16.9218008,15.6488669 16.9218008,15.6488669 C16.9218008,15.7282522 16.9218008,15.807563 16.8426094,15.807563 C16.8426094,15.807563 16.8426094,15.8869483 16.763418,15.8869483 C16.6842266,15.8869483 16.6842266,15.9663336 16.6051094,16.0456444 C16.6051094,16.0456444 16.6051094,16.1250297 16.525918,16.1250297 C16.3676094,16.204415 16.4467266,16.4424964 16.288418,16.5218072 C16.2092266,16.6011925 16.2092266,16.6011925 16.2092266,16.6805034 L16.2092266,16.7598886 L16.2092266,16.8392739 C16.1300352,16.8392739 16.050918,16.9186592 16.1300352,17.0773553 C15.9717266,17.0773553 15.9717266,17.2360514 15.8925352,17.3948219 C15.8925352,17.4742072 15.9717266,17.4742072 15.9717266,17.5535181 C15.8925352,17.5535181 15.8925352,17.4741328 15.813418,17.5535181 C15.7342266,17.5535181 15.6551094,17.6329033 15.575918,17.7122142 C15.4967266,17.7915995 15.4176094,17.7915995 15.4176094,17.8709103 C15.4176094,17.8709103 15.4968008,17.8709103 15.4968008,17.9502956 C15.4176094,18.0296809 15.3384922,18.0296809 15.3384922,18.1089917 C15.2593008,18.1089917 15.2593008,18.188377 15.1801836,18.2676879 C15.1801836,18.2676879 15.259375,18.2676879 15.259375,18.3470731 C15.1801836,18.3470731 15.1010664,18.5057693 15.1801836,18.5057693 C15.1801836,18.5057693 15.1801836,18.5851545 15.259375,18.5851545 C15.3385664,18.5851545 15.496875,18.5851545 15.5760664,18.5851545 C15.5760664,18.5851545 15.5760664,18.6645398 15.496875,18.6645398 C15.4176836,18.5851545 15.3385664,18.6645398 15.259375,18.6645398 C15.1801836,18.6645398 15.1801836,18.7439251 15.259375,18.8232359 L15.259375,18.981932 C15.4176836,18.8232359 15.4176836,18.8232359 15.496875,18.8232359 C15.4176836,18.9026212 15.3385664,18.981932 15.3385664,19.0613173 C15.259375,19.0613173 15.259375,19.1407026 15.1802578,19.1407026 L15.1802578,19.1407026 C15.2594492,19.1407026 15.2594492,19.1407026 15.3385664,19.1407026 C15.3385664,19.2200878 15.259375,19.2200878 15.259375,19.2993987 L15.259375,19.378784 C15.3385664,19.4581692 15.4176836,19.5374801 15.496875,19.6168654 C15.496875,19.6168654 15.5760664,19.6168654 15.6551836,19.5374801 C15.8134922,19.4580948 15.8134922,19.2993987 15.971875,19.2993987 L15.971875,19.2200134 C15.971875,19.1406282 15.971875,19.1406282 15.971875,19.0613173 C15.971875,19.1407026 16.0510664,19.2993987 16.0510664,19.378784 C16.1302578,19.6168654 16.1302578,19.7755615 16.2885664,20.0136429 C16.3677578,20.0930282 16.2885664,20.2517243 16.209375,20.2517243 C16.1301836,20.2517243 16.1301836,20.3311096 16.0510664,20.3311096 C16.1302578,20.4104948 16.209375,20.4898057 16.209375,20.569191 C16.209375,20.4898057 16.2885664,20.4104948 16.2885664,20.3311096 C16.3677578,20.4898057 16.446875,20.4104948 16.5260664,20.4104948 C16.6052578,20.2517987 16.6052578,20.2517987 16.7635664,20.1724134 L16.8427578,20.1724134 C16.9219492,19.934332 16.9219492,19.7756359 17.0010664,19.5375545 C17.0010664,19.4581692 17.0802578,19.2994731 17.159375,19.2994731 C17.2385664,19.2994731 17.2385664,19.2200878 17.2385664,19.2200878 C17.159375,19.2200878 17.0802578,19.2200878 17.0010664,19.2200878 C17.0010664,19.2200878 17.0010664,19.2200878 17.0010664,19.1407026 C17.0802578,19.1407026 17.159375,19.2200878 17.2385664,19.1407026 C17.3177578,19.1407026 17.396875,19.0613173 17.396875,18.9820064 C17.396875,18.8233103 17.2385664,18.7439251 17.0801836,18.8233103 C17.0801836,18.5852289 17.159375,18.4265328 17.159375,18.1884514 L17.159375,18.1884514 C17.2385664,18.0297553 17.3176836,17.8709847 17.5551836,17.7916739 C17.634375,17.7122886 17.7134922,17.6329777 17.7926836,17.5535925 C17.7926836,17.5535925 17.7926836,17.4742072 17.7926836,17.3948963 C17.7134922,17.2362002 17.7926836,17.156815 17.871875,17.0774297 C17.871875,16.9980444 17.9510664,16.9980444 18.0301836,16.9187336 C18.109375,16.9187336 18.1884922,16.9187336 18.2676836,16.9187336 C18.2676836,16.9187336 18.2676836,16.9187336 18.2676836,16.8393483 L18.346875,16.9187336 C18.346875,16.9981188 18.4260664,17.0774297 18.4260664,17.156815 L18.346875,17.2362002 L18.346875,17.2362002 C18.2676836,17.3948963 18.1885664,17.5536669 18.0301836,17.712363 C18.0301836,17.7917483 17.9509922,17.7917483 17.871875,17.7917483 C17.7926836,17.8711335 17.7135664,17.9504444 17.7135664,18.1092149 C17.7135664,18.2679855 17.7927578,18.4266816 17.7135664,18.5853777 C17.7135664,18.664763 17.7135664,18.7440739 17.7927578,18.7440739 C17.8719492,18.8234591 17.9510664,18.8234591 18.0302578,18.90277 L18.109375,18.90277 C18.1885664,18.90277 18.2676836,18.8233847 18.346875,18.8233847 C18.5051836,18.7439995 18.7426836,18.7439995 18.9010664,18.6646886 L18.9010664,18.6646886 C18.821875,18.7440739 18.9010664,18.8233847 18.9802578,18.8233847 C19.0594492,18.8233847 19.0594492,18.8233847 19.1385664,18.90277 C18.9802578,18.9821553 18.9010664,18.9821553 18.7427578,19.0614661 C18.5844492,19.0614661 18.4260664,18.9820809 18.1885664,19.0614661 C18.109375,19.1408514 18.0302578,19.1408514 18.109375,19.2201622 C18.109375,19.2995475 18.109375,19.4582436 18.2676836,19.3788584 C18.2676836,19.5375545 18.2676836,19.696325 18.1884922,19.7756359 C18.0301836,19.7756359 18.0301836,19.6169398 17.8718008,19.5375545 C17.7926094,19.5375545 17.7926094,19.6169398 17.7134922,19.6169398 C17.6343008,19.7756359 17.5551836,19.9344064 17.6343008,20.0931026 C17.6343008,20.1724878 17.6343008,20.2517987 17.6343008,20.4105692 C17.4759922,20.331184 17.4759922,20.4105692 17.3968008,20.4899545 C17.3968008,20.5693398 17.3176094,20.5693398 17.2384922,20.5693398 C17.2384922,20.5693398 17.2384922,20.4899545 17.1593008,20.4106436 C17.0009922,20.4106436 16.5259922,20.5693398 16.4468008,20.7281103 C16.3676094,20.648725 16.3676094,20.648725 16.2884922,20.648725 C16.2884922,20.5693398 16.2884922,20.5693398 16.2884922,20.4900289 C16.1301836,20.5694142 15.9718008,20.648725 15.8134922,20.7281103 C15.8134922,20.648725 15.8134922,20.648725 15.8134922,20.648725 C15.7343008,20.648725 15.6551836,20.648725 15.6551836,20.5693398 C15.5759922,20.4899545 15.5759922,20.4106436 15.5759922,20.2518731 C15.6551836,20.3312584 15.6551836,20.3312584 15.6551836,20.3312584 L15.734375,20.3312584 C15.734375,20.2518731 15.734375,20.2518731 15.734375,20.1725622 C15.6551836,20.1725622 15.6551836,20.1725622 15.5760664,20.2519475 C15.5760664,20.1725622 15.6552578,20.1725622 15.6552578,20.0932514 C15.6552578,20.0139405 15.7344492,20.0138661 15.8135664,19.9345552 C15.6552578,19.9345552 15.6552578,19.85517 15.6552578,19.7758591 C15.6552578,19.6964738 15.6552578,19.617163 15.6552578,19.5377777 C15.5760664,19.617163 15.4969492,19.6964738 15.4177578,19.6964738 C15.2594492,19.85517 15.1802578,20.0139405 15.3385664,20.2520219 L15.3385664,20.3314072 C15.3385664,20.4107924 15.3385664,20.5694886 15.3385664,20.6488738 L15.3385664,20.6488738 C15.3385664,20.7282591 15.259375,20.7282591 15.259375,20.8075699 C15.1801836,20.7281847 15.1010664,20.7281847 15.021875,20.8075699 C15.021875,20.8075699 15.021875,20.8075699 14.9426836,20.8075699 C14.784375,20.8075699 14.784375,20.8075699 14.7051836,20.9662661 L14.7051836,21.0456513 L14.7051836,21.0456513 L14.7051836,20.8869552 L14.7051836,20.8869552 C14.7051836,20.9663405 14.6259922,21.1250366 14.546875,21.2837327 C14.4676836,21.2837327 14.3885664,21.363118 14.2301836,21.4424289 L14.1509922,21.5218141 C14.1509922,21.6011994 14.0718008,21.6805103 13.9926836,21.7598955 C13.9926836,21.7598955 13.9134922,21.7598955 13.9134922,21.8392808 C13.8343008,21.9186661 13.7551836,21.9186661 13.6759922,21.8392808 L13.596875,21.8392808 C13.596875,21.9186661 13.596875,21.9979769 13.6760664,22.0773622 C13.596875,22.0773622 13.5177578,22.0773622 13.4385664,22.0773622 C13.2802578,21.9979769 13.2010664,22.0773622 13.121875,22.0773622 C13.121875,22.2360583 13.2010664,22.2360583 13.2801836,22.2360583 C13.4384922,22.2360583 13.5176836,22.3154436 13.5176836,22.4741397 C13.5176836,22.4741397 13.5176836,22.553525 13.596875,22.553525 C13.7551836,22.6329102 13.6760664,22.7122211 13.6760664,22.7916064 C13.6760664,22.8709916 13.6760664,22.9503025 13.6760664,22.9503025 C13.6760664,23.1883839 13.596875,23.2677692 13.359375,23.1883839 C13.121875,23.1883839 12.8051836,23.1089986 12.5676836,23.1089986 C12.4884922,23.1089986 12.409375,23.1883839 12.3301836,23.2676948 L12.3301836,23.34708 L12.3301836,23.4264653 C12.409375,23.6645467 12.3301836,23.9026281 12.2509922,24.1407095 C12.2509922,24.2200947 12.2509922,24.2994056 12.3301836,24.2994056 C12.3301836,24.3787909 12.3301836,24.4581017 12.3301836,24.537487 L12.409375,24.537487 C12.5676836,24.537487 12.7260664,24.4581017 12.8051836,24.6961831 C12.8051836,24.7755684 12.884375,24.7755684 12.9634922,24.6961831 C13.0426836,24.6167979 13.1218008,24.6167979 13.2801836,24.6167979 C13.5176836,24.6961831 13.596875,24.4581017 13.6759922,24.3787165 C13.7551836,24.3787165 13.7551836,24.2200203 13.8343008,24.1406351 C13.7551094,24.0612498 13.7551094,23.981939 13.8343008,23.9025537 C13.9134922,23.7438576 14.0718008,23.585087 14.2301094,23.5057762 C14.3093008,23.4263909 14.388418,23.4263909 14.3093008,23.2676948 C14.3093008,23.1883095 14.3093008,23.1089986 14.3884922,23.1089986 C14.4676836,23.1089986 14.5468008,23.1089986 14.7051836,23.1089986 C14.784375,23.1089986 14.784375,23.1089986 14.8634922,23.1089986 C15.0218008,23.0296134 15.1009922,22.9503025 15.1801836,22.8709172 C15.259375,22.791532 15.259375,22.791532 15.3384922,22.8709172 C15.4176836,22.8709172 15.4968008,22.9503025 15.4968008,23.0296134 C15.4968008,23.1089986 15.5759922,23.1883095 15.6551094,23.2676948 C15.6551094,23.2676948 15.7343008,23.34708 15.813418,23.34708 C15.9717266,23.4264653 16.050918,23.5057762 16.2092266,23.6645467 C16.288418,23.743932 16.3675352,23.743932 16.3675352,23.8232428 C16.3675352,23.9026281 16.4467266,23.981939 16.4467266,24.0613242 C16.3675352,24.1407095 16.2092266,24.2200203 16.050918,24.2200203 C15.9717266,24.2200203 15.9717266,24.2200203 15.8926094,24.2200203 C15.8926094,24.2200203 15.8926094,24.2994056 15.9718008,24.2994056 C16.0509922,24.3787909 16.1301094,24.3787909 16.2093008,24.4581017 C16.2884922,24.4581017 16.2884922,24.4581017 16.2884922,24.3787165 C16.2884922,24.2993312 16.2884922,24.2200203 16.2884922,24.1406351 L16.2884922,24.1406351 L16.3676836,24.1406351 C16.3676836,24.0612498 16.446875,23.981939 16.446875,23.981939 C16.5260664,23.9025537 16.5260664,23.9025537 16.446875,23.8232428 C16.446875,23.8232428 16.446875,23.7438576 16.446875,23.6645467 L16.5260664,23.6645467 C16.6052578,23.6645467 16.6052578,23.743932 16.684375,23.743932 C16.6051836,23.5058506 16.446875,23.5058506 16.2885664,23.4264653 L16.2885664,23.3468568 C16.0510664,23.3468568 15.971875,23.2674716 15.8927578,23.1087754 C15.8927578,23.0293902 15.8135664,22.9500793 15.7344492,22.870694 C15.5761406,22.7913088 15.6552578,22.7119979 15.6552578,22.5532274 C15.6552578,22.5532274 15.7344492,22.4738421 15.8135664,22.4738421 C15.8135664,22.5532274 15.8927578,22.6325382 15.8927578,22.7119235 C15.9719492,22.6325382 15.9719492,22.6325382 15.9719492,22.5532274 C16.0511406,22.6326126 16.0511406,22.7119235 16.1302578,22.7913088 C16.1302578,22.870694 16.2094492,22.9500049 16.2094492,22.9500049 C16.2886406,22.9500049 16.3677578,23.0293902 16.4469492,23.108701 C16.5261406,23.1880863 16.6844492,23.2673972 16.6844492,23.3467824 C16.6844492,23.5054786 16.6844492,23.6642491 16.7636406,23.74356 C16.7636406,23.8229452 16.842832,23.9022561 16.9219492,23.9816414 C17.0011406,24.0610266 17.0011406,24.1403375 17.0802578,24.2197227 C17.0010664,24.3784189 17.1594492,24.5371894 17.3177578,24.5371894 C17.3177578,24.4578041 17.3177578,24.4578041 17.3177578,24.3784933 L17.3969492,24.3784933 C17.3969492,24.3784933 17.3969492,24.299108 17.3177578,24.2197971 C17.3969492,24.2197971 17.3969492,24.2991824 17.4760664,24.2991824 L17.4760664,24.2197971 L17.5552578,24.2197971 C17.4760664,24.061101 17.3969492,23.9817158 17.3177578,23.9817158 C17.3177578,23.9023305 17.3177578,23.8230196 17.3177578,23.8230196 C17.3177578,23.7436344 17.3177578,23.7436344 17.3177578,23.6643235 C17.3969492,23.6643235 17.4760664,23.6643235 17.4760664,23.7437088 C17.4760664,23.7437088 17.4760664,23.6643235 17.4760664,23.5850126 C17.634375,23.4263165 17.7135664,23.5850126 17.871875,23.5850126 C17.871875,23.6643979 17.7926836,23.823094 17.7926836,23.9024793 L17.7926836,23.9024793 L17.871875,23.823094 C17.871875,23.9024793 17.871875,23.9024793 17.871875,23.9024793 L17.871875,23.9818646 L17.7926836,23.9818646 L17.7926836,24.0612498 C17.871875,24.0612498 17.871875,24.1406351 17.9509922,24.2199459 C18.0301836,24.2993312 18.0301836,24.3786421 18.1884922,24.3786421 C18.1884922,24.3786421 18.2676836,24.3786421 18.2676836,24.4580273 C18.4259922,24.5374126 18.4259922,24.5374126 18.5051836,24.3786421 L18.5051836,24.3786421 C18.584375,24.3786421 18.584375,24.4580273 18.6634922,24.4580273 C18.8218008,24.5374126 18.9009922,24.5374126 19.0593008,24.4580273 L19.1384922,24.4580273 C19.2176836,24.4580273 19.2176836,24.4580273 19.2968008,24.4580273 C19.2968008,24.5374126 19.2968008,24.6167235 19.2968008,24.6167235 C19.2968008,24.6961087 19.2968008,24.7754196 19.2968008,24.8548049 C19.2176094,25.013501 19.1384922,25.1722715 19.0593008,25.4103529 C18.9801094,25.5690491 18.8218008,25.6484343 18.6634922,25.5690491 C18.5843008,25.4896638 18.5051836,25.4896638 18.4259922,25.4896638 C18.3468008,25.4896638 18.2676836,25.5690491 18.1884922,25.5690491 C18.1093008,25.5690491 18.0301836,25.5690491 18.0301836,25.5690491 C17.871875,25.5690491 17.7134922,25.4896638 17.634375,25.4896638 C17.4760664,25.4896638 17.396875,25.4102785 17.2385664,25.3309677 C17.2385664,25.3309677 17.2385664,25.3309677 17.159375,25.2515824 C17.0801836,25.2515824 17.0801836,25.1721971 17.0010664,25.1721971 C16.921875,25.1721971 16.7635664,25.1721971 16.684375,25.2515824 C16.6051836,25.3309677 16.6051836,25.4102785 16.6051836,25.4896638 C16.6051836,25.4896638 16.6051836,25.5690491 16.5259922,25.5690491 C16.4468008,25.5690491 16.3676836,25.6484343 16.3676836,25.5690491 C16.209375,25.5690491 16.1301836,25.4896638 15.971875,25.4103529 C15.8926836,25.4103529 15.8926836,25.3309677 15.8926836,25.3309677 C15.8134922,25.1722715 15.6551836,25.0928863 15.496875,25.0928863 C15.259375,25.0928863 15.1010664,24.9341901 14.9426836,24.8548049 C15.021875,24.7754196 15.1009922,24.7754196 15.1009922,24.6961087 C15.1801836,24.6167235 15.1801836,24.5374126 15.1801836,24.5374126 C15.1009922,24.4580273 15.1009922,24.3787165 15.1801836,24.2993312 L15.1801836,24.2199459 C15.1009922,24.2199459 15.1009922,24.2199459 15.021875,24.2993312 C15.021875,24.1406351 14.9426836,24.2199459 14.8635664,24.2199459 C14.784375,24.2993312 14.7052578,24.2993312 14.546875,24.2199459 C14.4676836,24.2199459 14.3885664,24.2199459 14.2301836,24.2199459 L14.1509922,24.2199459 C13.9134922,24.1405607 13.6759922,24.2199459 13.4384922,24.2993312 C13.2009922,24.3787165 13.0426836,24.5374126 12.7259922,24.5374126 L12.646875,24.5374126 C12.5676836,24.5374126 12.4885664,24.5374126 12.4885664,24.4580273 C12.409375,24.3786421 12.3302578,24.3786421 12.3302578,24.4580273 C12.2510664,24.6167235 12.1719492,24.775494 12.0135664,24.8548049 C11.8552578,24.9341901 11.696875,25.1722715 11.696875,25.3309677 C11.696875,25.4896638 11.6176836,25.5690491 11.5385664,25.6484343 C11.3802578,25.8071305 11.1427578,25.8071305 11.0635664,26.0452118 C11.0635664,26.0452118 11.0635664,26.0452118 10.984375,26.1245971 C10.984375,26.1245971 10.984375,26.2039824 10.9051836,26.2039824 C10.8259922,26.4420638 10.6676836,26.6007599 10.5884922,26.8388413 C10.5884922,26.9182266 10.5093008,26.9975374 10.5884922,27.0769227 C10.6676836,27.156308 10.6676836,27.2356188 10.5884922,27.3150041 L10.5884922,27.3943894 C10.5884922,27.4737746 10.5884922,27.6324707 10.5884922,27.711856 C10.5884922,27.7912413 10.5093008,27.8705521 10.5093008,27.8705521 C10.5093008,27.9499374 10.4301094,28.0292483 10.3509922,28.1086335 C10.4301836,28.1880188 10.5093008,28.2673297 10.5093008,28.4261002 C10.5093008,28.5054855 10.5884922,28.5847963 10.6676094,28.5847963 L10.7468008,28.5847963 C10.8259922,28.7434925 10.9843008,28.8228777 11.0634922,28.9815739 C11.0634922,28.9815739 11.1426836,29.0609591 11.1426836,29.14027 C11.1426836,29.2196553 11.221875,29.2989661 11.3009922,29.3783514 C11.4593008,29.4577366 11.6176836,29.6164328 11.7759922,29.695818 C11.9343008,29.7752033 12.0926836,29.9338994 12.3301836,29.7752033 C12.4884922,29.695818 12.7259922,29.695818 12.884375,29.7752033 C12.9635664,29.7752033 13.0426836,29.7752033 13.121875,29.7752033 C13.359375,29.6165072 13.596875,29.5371219 13.9135664,29.5371219 C14.071875,29.5371219 14.1510664,29.6165072 14.2302578,29.7752033 C14.2302578,29.8545886 14.3094492,29.9338994 14.3885664,29.8545886 C14.4677578,29.8545886 14.546875,29.8545886 14.6260664,29.8545886 C14.784375,29.8545886 14.9427578,30.0132847 14.9427578,30.1720552 C14.9427578,30.2514405 14.9427578,30.3307514 14.8635664,30.4895219 C14.8635664,30.5689072 14.784375,30.648218 14.784375,30.7276033 C14.784375,30.7276033 14.784375,30.8069886 14.784375,30.8862994 C14.8635664,31.0449955 15.021875,31.2037661 15.1801836,31.3624622 C15.259375,31.4418475 15.3384922,31.5211583 15.3384922,31.6005436 C15.4176836,31.6799289 15.4176836,31.838625 15.4176836,31.9180103 C15.4176836,31.9973955 15.4176836,32.0767064 15.4176836,32.1560917 C15.4176836,32.2354769 15.4176836,32.3147878 15.496875,32.3147878 C15.5760664,32.3941731 15.5760664,32.6322545 15.496875,32.6322545 C15.3385664,32.7909506 15.259375,33.029032 15.259375,33.1878025 C15.1801836,33.4258839 15.1801836,33.58458 15.3385664,33.7433506 C15.5760664,34.0608172 15.6552578,34.4575947 15.734375,34.8543723 C15.734375,35.0130684 15.734375,35.1718389 15.8926836,35.3305351 C16.0509922,35.4099203 16.0509922,35.5686165 16.1301836,35.7273126 C16.209375,35.8066979 16.209375,35.965394 16.2884922,36.0447793 C16.3676836,36.1241645 16.3676836,36.2034754 16.2884922,36.2828606 C16.2884922,36.2828606 16.2884922,36.3622459 16.3676836,36.3622459 C16.7634922,36.3622459 17.159375,36.4416312 17.4759922,36.4416312 C17.5551836,36.4416312 17.6343008,36.4416312 17.7134922,36.4416312 C17.7926836,36.3622459 17.8718008,36.3622459 17.9509922,36.3622459 C18.1884922,36.2035498 18.3468008,35.9654684 18.4259922,35.727387 C18.5051836,35.6480017 18.5051836,35.5686909 18.5843008,35.4893056 C18.7426094,35.3306095 18.7426094,35.1718389 18.7426094,35.0131428 C18.7426094,34.8544467 18.7426094,34.8544467 18.8218008,34.8544467 C18.9009922,34.8544467 18.9801094,34.7750614 18.9801094,34.7750614 C19.0593008,34.7750614 19.138418,34.6956761 19.138418,34.6163653 C19.138418,34.4576691 19.2176094,34.2195878 19.0592266,34.0608172 C18.9800352,33.981432 18.9800352,33.9021211 19.138418,33.8227358 C19.2176094,33.7433506 19.2967266,33.6640397 19.375918,33.6640397 C19.4551094,33.5846544 19.4551094,33.5053436 19.5342266,33.5053436 C19.6925352,33.4259583 19.850918,33.3466474 19.9300352,33.1878769 C20.0092266,33.1084916 20.0092266,33.0291808 20.0092266,32.9497955 C20.0092266,32.7910994 19.9300352,32.6323289 20.0092266,32.4736327 C20.0092266,32.3942475 20.0092266,32.3149366 20.0092266,32.3149366 C19.9300352,32.1562405 19.850918,32.0768552 19.850918,31.9181591 C19.850918,31.9181591 19.850918,31.8387738 19.850918,31.7594629 C19.7717266,31.6800777 19.7717266,31.6007668 19.850918,31.5213815 C19.850918,31.4419963 19.9301094,31.3626854 19.9301094,31.2833001 C20.0093008,30.9658335 20.2468008,30.8865226 20.4843008,30.6484412 C20.6426094,30.4897451 20.8009922,30.4103598 20.9593008,30.2516637 C21.1968008,30.0135823 21.4343008,29.7755009 21.5134922,29.4580342 C21.5134922,29.4580342 21.5134922,29.378649 21.5926836,29.378649 C21.7509922,29.2199529 21.7509922,29.0611823 21.7509922,28.8231009 C21.7509922,28.7437157 21.6718008,28.7437157 21.5926836,28.7437157 C21.5134922,28.7437157 21.434375,28.8231009 21.434375,28.8231009 C21.2760664,28.8231009 21.196875,28.9024862 21.0385664,28.9024862 C20.959375,28.9024862 20.8010664,28.9024862 20.721875,28.9818715 C20.721875,28.9818715 20.6426836,28.9818715 20.6426836,28.9024862 C20.5635664,28.8227289 20.484375,28.8227289 20.484375,28.7434181 C20.5635664,28.6640328 20.5635664,28.6640328 20.484375,28.5847219 C20.4051836,28.5053367 20.3260664,28.4260258 20.246875,28.3466405 C20.1676836,28.2672553 20.1676836,28.2672553 20.0885664,28.1879444 C19.9302578,28.1085591 19.8510664,28.0292483 19.8510664,27.949863 C19.8510664,27.8704777 19.771875,27.7117816 19.6927578,27.7117816 C19.5344492,27.6323963 19.5344492,27.4737002 19.5344492,27.3150041 C19.5344492,27.2356188 19.4552578,27.0769227 19.3761406,26.9975374 C19.2969492,26.9181522 19.1386406,26.8388413 19.217832,26.6800708 L19.217832,26.6800708 C19.1386406,26.6006855 19.0595234,26.5213746 19.0595234,26.3626041 C18.980332,26.203908 18.9012148,25.9658266 18.742832,25.8070561 C18.742832,25.8070561 18.742832,25.7276708 18.742832,25.6483599 C18.8220234,25.7277452 18.8220234,25.8070561 18.9011406,25.8864413 C18.9011406,25.9658266 18.980332,25.9658266 19.0594492,25.9658266 C19.0594492,25.8864413 19.1386406,25.8864413 19.1386406,25.8071305 C19.1386406,25.8071305 19.217832,25.8865157 19.217832,25.9658266 C19.2970234,26.1245227 19.455332,26.3626041 19.5345234,26.5213746 C19.5345234,26.5213746 19.5345234,26.6007599 19.6137148,26.6007599 C19.7720234,26.6801452 19.8512148,26.8388413 19.8512148,26.9975374 C19.8512148,27.1562336 19.8512148,27.2356188 20.0095234,27.3150041 C20.0887148,27.3150041 20.0887148,27.4737002 20.167832,27.4737002 C20.2470234,27.5530855 20.2470234,27.6323963 20.3261406,27.7117816 C20.405332,27.7911669 20.405332,27.949863 20.4844492,28.0292483 C20.5636406,28.1879444 20.5636406,28.3467149 20.5636406,28.5054111 L20.642832,28.5847963 C20.7220234,28.5847963 20.8011406,28.5847963 20.880332,28.5054111 C20.880332,28.5054111 20.9595234,28.5054111 20.9595234,28.4260258 C21.0387148,28.4260258 21.117832,28.3466405 21.1970234,28.3466405 C21.2762148,28.2672553 21.4345234,28.2672553 21.5137148,28.1879444 C21.5929063,28.1085591 21.7512148,28.1085591 21.8304063,28.0292483 L21.9095977,27.949863 C21.9887891,27.8704777 21.9887891,27.8704777 22.0679063,27.7911669 C22.2262148,27.7117816 22.3845977,27.7911669 22.4637148,27.6324707 L22.5429063,27.6324707 C22.6220977,27.5530855 22.7012148,27.4737746 22.7804063,27.3943894 L22.7804063,27.3150041 C22.7804063,27.2356188 22.7804063,27.2356188 22.8595977,27.156308 C23.0179063,27.0769227 23.0179063,26.9976118 23.0970977,26.8388413 L23.0970977,26.759456 C23.0179063,26.6800708 22.8595977,26.5213746 22.7012891,26.5213746 C22.6220977,26.5213746 22.5429805,26.3626785 22.5429805,26.2832932 C22.5429805,26.203908 22.5429805,26.203908 22.5429805,26.1245971 C22.4637891,26.2832932 22.3054805,26.3626785 22.2262891,26.4420638 L22.1470977,26.521449 C22.0679063,26.521449 21.9095977,26.521449 21.8304063,26.521449 L21.7512148,26.4420638 C21.7512148,26.3626785 21.7512148,26.3626785 21.7512148,26.2833676 L21.7512148,26.2038336 L21.7512148,26.2038336 C21.7512148,26.2832188 21.6720234,26.2832188 21.6720234,26.3625297 C21.592832,26.2831444 21.592832,26.2038336 21.592832,26.1244483 C21.592832,26.1244483 21.592832,26.045063 21.5136406,26.045063 C21.4344492,25.9656778 21.355332,25.8863669 21.2761406,25.8069816 C21.1969492,25.6482855 21.1969492,25.5689003 21.2761406,25.4102041 L21.2761406,25.4102041 C21.355332,25.4102041 21.4344492,25.4895894 21.5136406,25.4895894 C21.592832,25.5689747 21.6719492,25.6482855 21.6719492,25.8070561 C21.6719492,25.8070561 21.6719492,25.8864413 21.7511406,25.8864413 C21.830332,25.9658266 21.9886406,26.0451374 22.067832,26.0451374 C22.1470234,26.1245227 22.3845234,26.1245227 22.4636406,26.0451374 C22.542832,25.9657522 22.6219492,25.9657522 22.6219492,26.0451374 C22.6219492,26.2038336 22.7802578,26.2038336 22.8594492,26.2038336 C22.9386406,26.2038336 23.0177578,26.2038336 23.0969492,26.2038336 C23.1761406,26.2038336 23.2552578,26.2832188 23.4136406,26.2038336 C23.6511406,26.2038336 23.8886406,26.2038336 24.1261406,26.2038336 L24.205332,26.2038336 C24.2845234,26.2832188 24.442832,26.441915 24.5220234,26.5213002 C24.6012148,26.6006855 24.680332,26.6006855 24.7595234,26.6006855 L24.8387148,26.6006855 L24.8387148,26.6006855 C24.7595234,26.6006855 24.6804062,26.6800708 24.6012148,26.6800708 C24.6804062,26.759456 24.7595234,26.759456 24.7595234,26.8387669 C24.917832,26.997463 25.0762148,26.9181522 25.155332,26.7593816 C25.155332,26.7593816 25.155332,26.6799964 25.2345234,26.6799964 C25.2345234,26.7593816 25.2345234,26.8386925 25.2345234,26.9180778 C25.2345234,26.997463 25.2345234,27.0767739 25.2345234,27.0767739 C25.2345234,27.3148553 25.2345234,27.5529367 25.392832,27.7910181 C25.5511406,28.1084847 25.7095234,28.5052623 25.867832,28.8227289 C25.867832,28.9021142 25.9470234,28.9021142 25.9470234,28.9814251 C26.0262148,29.0608103 26.0262148,29.0608103 26.105332,28.9814251 C26.105332,28.9020398 26.1845234,28.9020398 26.1845234,28.9020398 C26.1845234,28.9020398 26.1845234,28.9020398 26.2637148,28.8226545 C26.2637148,28.7432693 26.3429062,28.7432693 26.4220234,28.6639584 C26.4220234,28.5052623 26.580332,28.2671809 26.5012148,28.0290995 C26.5012148,28.0290995 26.5012148,27.9497142 26.5012148,27.8704033 L26.5804062,27.7910181 C26.6595977,27.7116328 26.7387148,27.7116328 26.8179062,27.6323219 C27.0554062,27.4736258 27.2137148,27.3148553 27.4512148,27.1561592 C27.5304062,27.0767739 27.6095234,27.0767739 27.6095234,26.997463 C27.6095234,26.8387669 27.6887148,26.8387669 27.767832,26.7593816 C27.9261406,26.8387669 28.005332,26.7593816 28.0845234,26.7593816 C28.1637148,26.7593816 28.1637148,26.6799964 28.242832,26.6006855 C28.3220234,26.6006855 28.4011406,26.6800708 28.4011406,26.7593816 C28.480332,26.8387669 28.480332,26.997463 28.5594492,27.0768483 C28.6386406,27.1562336 28.7177578,27.2355444 28.7969492,27.394315 C28.8761406,27.4737002 28.7969492,27.6323963 28.7969492,27.7910925 C28.8761406,27.8704777 29.1136406,27.7910925 29.1927578,27.6323963 C29.3510664,27.6323963 29.3510664,27.7910925 29.3510664,27.949863 C29.3510664,28.0292483 29.3510664,28.1085591 29.4302578,28.1879444 C29.5094492,28.3466405 29.5094492,28.5847219 29.5094492,28.7434925 C29.5094492,28.9021886 29.5094492,28.9815739 29.4302578,29.0609591 C29.5094492,29.1403444 29.5094492,29.1403444 29.5885664,29.1403444 C29.746875,29.2990405 29.8260664,29.457811 29.8260664,29.6165072 C29.8260664,29.8545886 30.0635664,30.0132847 30.3010664,30.1720552 C30.3010664,30.1720552 30.3802578,30.1720552 30.459375,30.1720552 C30.459375,30.09267 30.459375,30.09267 30.459375,30.0133591 C30.459375,29.9339738 30.3801836,29.854663 30.3801836,29.7752777 C30.3801836,29.5371963 30.221875,29.3785002 30.0634922,29.2991149 C29.9051836,29.2991149 29.9051836,29.2197297 29.9051836,29.1404188 C29.9051836,29.0610335 29.9051836,28.9023374 29.746875,28.9023374 C29.746875,28.8229521 29.746875,28.7436413 29.746875,28.7436413 C29.746875,28.5849451 29.8260664,28.4261746 29.8260664,28.2674785 L29.9052578,28.1880932 C29.9052578,28.1880932 29.9844492,28.1880932 29.9844492,28.2674785 L29.9844492,28.3468637 C30.1427578,28.3468637 30.2219492,28.3468637 30.3011406,28.426249 C30.380332,28.5849451 30.4594492,28.6643304 30.617832,28.6643304 C30.6970234,28.6643304 30.6970234,28.7437157 30.6970234,28.8230265 C30.6970234,28.9024118 30.6970234,28.9024118 30.6970234,28.9817227 L30.6970234,28.9817227 C30.7762148,28.9023374 30.7762148,28.9023374 30.855332,28.8230265 C30.9345234,28.7436413 30.9345234,28.6643304 31.092832,28.6643304 C31.2511406,28.6643304 31.4095234,28.5849451 31.4095234,28.3468637 C31.4095234,28.1881676 31.4095234,28.0293971 31.330332,27.8707009 C31.330332,27.7913157 31.2511406,27.7913157 31.2511406,27.7120048 C31.092832,27.5533087 31.0136406,27.4739234 30.855332,27.3152273 C30.855332,27.3152273 30.855332,27.235842 30.855332,27.1565312 C30.9345234,26.997835 31.0136406,26.8390645 31.2511406,26.7597536 C31.330332,26.7597536 31.4094492,26.7597536 31.4886406,26.7597536 C31.567832,26.8391389 31.567832,26.9184498 31.567832,26.997835 L31.567832,26.997835 C31.567832,26.8391389 31.567832,26.8391389 31.7261406,26.7597536 C31.805332,26.7597536 31.805332,26.7597536 31.8844492,26.7597536 C31.9636406,26.7597536 32.0427578,26.7597536 32.0427578,26.6803684 C32.1219492,26.6803684 32.1219492,26.6009831 32.2010664,26.6803684 C32.2010664,26.6803684 32.2010664,26.6803684 32.2802578,26.6803684 C32.3594492,26.6803684 32.4385664,26.6009831 32.5177578,26.6009831 C32.5969492,26.6009831 32.5969492,26.5215978 32.6760664,26.5215978 C32.7552578,26.4422126 32.834375,26.3629017 32.9135664,26.2835164 C33.071875,26.2041312 33.1510664,26.1248203 33.1510664,25.9660498 L33.1510664,25.9660498 C33.309375,25.8073537 33.4677578,25.5692723 33.546875,25.3311909 C33.4676836,25.3311909 33.4676836,25.2518056 33.3885664,25.2518056 C33.4677578,25.2518056 33.4677578,25.1724203 33.546875,25.1724203 L33.4676836,25.0930351 L33.546875,25.0136498 C33.4676836,24.9342645 33.3885664,24.8549537 33.3885664,24.7755684 C33.309375,24.6168723 33.309375,24.4581017 33.1510664,24.4581017 C33.2302578,24.3787165 33.2302578,24.3787165 33.2302578,24.2994056 C33.3094492,24.2200203 33.3885664,24.2200203 33.3885664,24.2200203 C33.3885664,24.1406351 33.546875,24.1406351 33.6260664,24.0613242 C33.6260664,24.0613242 33.7052578,24.0613242 33.7052578,23.981939 L33.7052578,23.981939 L33.6260664,23.981939 C33.4677578,23.9025537 33.3885664,23.9025537 33.309375,23.981939 L33.2301836,23.981939 C33.1509922,23.9025537 33.1509922,23.9025537 33.071875,23.8232428 C33.071875,23.8232428 32.9926836,23.7438576 32.9926836,23.6645467 L33.071875,23.5851614 C33.1510664,23.5851614 33.1510664,23.5851614 33.2301836,23.5057762 C33.309375,23.4263909 33.4676836,23.2676948 33.546875,23.1883095 L33.6260664,23.1883095 C33.6260664,23.1883095 33.6260664,23.2676948 33.6260664,23.3470056 C33.6260664,23.4263909 33.546875,23.4263909 33.546875,23.5057018 C33.6260664,23.585087 33.6260664,23.585087 33.546875,23.6643979 C33.6260664,23.5850126 33.7051836,23.5850126 33.784375,23.5057018 C33.8635664,23.5057018 33.9426836,23.4263165 33.9426836,23.4263165 C34.021875,23.4263165 34.1009922,23.5057018 34.1801836,23.5057018 C34.1801836,23.585087 34.1009922,23.6643979 34.1009922,23.8231684 L34.1801836,23.9025537 C34.3384922,23.8231684 34.4176836,23.9025537 34.4176836,24.0612498 C34.4176836,24.0612498 34.3384922,24.0612498 34.3384922,24.1406351 C34.5759922,24.2993312 34.3384922,24.4581017 34.4176836,24.6167979 C34.496875,24.5374126 34.6551836,24.5374126 34.734375,24.4581017 C34.8926836,24.3787165 34.8926836,24.2994056 34.8926836,24.1406351 C34.8926836,23.981939 34.734375,23.8231684 34.6551836,23.6644723 C34.5759922,23.585087 34.5759922,23.5057762 34.6551836,23.4263909 C34.8134922,23.3470056 34.971875,23.2676948 34.8926836,23.1089242 C34.8926836,23.1089242 34.8926836,23.029539 34.971875,23.029539 C35.0510664,22.9501537 35.1301836,22.7914576 35.2885664,22.7120723 C35.3677578,22.7120723 35.3677578,22.7914576 35.446875,22.7914576 C35.6051836,22.8708428 35.7635664,22.7120723 35.8426836,22.6327614 C36.0009922,22.4740653 36.159375,22.2359839 36.3176836,21.9979025 C36.4759922,21.3630436 36.634375,20.7281103 36.7134922,20.0138661 L36.7134922,20.0138661 C36.6343008,19.9344808 36.5551836,19.9344808 36.4759922,19.9344808 C36.4759922,20.0138661 36.4759922,20.0138661 36.4759922,20.093177 C36.3968008,20.093177 36.3176836,20.093177 36.3176836,20.093177 C36.3176836,20.0137917 36.3176836,20.0137917 36.3176836,19.9344808 C36.3176836,20.0138661 36.2384922,20.0138661 36.2384922,20.0138661 L36.2384922,20.0138661 C36.2384922,19.9344808 36.2384922,19.85517 36.2384922,19.85517 C36.1593008,19.85517 36.0801836,19.85517 36.0009922,19.7757847 C36.0009922,19.6963994 36.0009922,19.6963994 36.0009922,19.6963994 C36.2384922,19.458318 36.4759922,19.1408514 36.7926836,18.90277 L36.871875,18.8233847 C36.871875,18.7439995 36.9510664,18.7439995 36.9510664,18.6646886 C36.9510664,18.1885258 37.0302578,17.712363 37.0302578,17.2362002 C37.109375,16.3631111 36.9510664,15.0933933 36.7135664,13.9029863 Z" id="Shape"></path>
                    </g>
                </g>
                <g id="Group-16" transform="translate(0.000000, 12.000000)" fill="#0091EA">
                    <path d="M42,14.7 C17.2291707,14.7 3.22917068,14.7 0,14.7 L0,0 C24.4134355,0 38.4134355,0 42,0 L42,14.7 Z" id="Shape"></path>
                </g>
            </g>
            <text id="www" font-family="OpenSans-Bold, Open Sans" font-size="12.1300001" font-weight="bold" fill="#FFFFFF">
                <tspan x="6.42586167" y="23">www</tspan>
            </text>
            <g id="Group-32" transform="translate(28.000000, 28.000000)" fill="#FFFFFF" fill-rule="nonzero">
                <ellipse id="Combined-Shape" cx="8.97505669" cy="8.86529884" rx="8.94340702" ry="8.85396702"></ellipse>
            </g>
            <path d="M37,48 C30.9248678,48 26,43.0751322 26,37 C26,30.9248678 30.9248678,26 37,26 C43.0751322,26 48,30.9248678 48,37 C48,43.0751322 43.0751322,48 37,48 Z M30.6139448,35.0616657 L30.6139448,39.0164782 L38.5300753,39.0164782 L38.5300753,35.0616657 L30.6139448,35.0616657 Z M38.5300753,32.4824402 L38.5300753,37.2110204 L44.5376657,37.2110204 L38.5300753,32.4824402 Z M38.5300753,41.9396006 L44.5376657,37.2110204 L38.5300753,37.2110204 L38.5300753,41.9396006 Z" id="Combined-Shape" fill="#F3B807" fill-rule="nonzero"></path>
            <circle id="Oval-path" stroke="#FAFAFA" stroke-width="2" cx="37" cy="37" r="12"></circle>
        </g>
    </g>
</svg>