<?xml version="1.0" encoding="UTF-8"?>
<svg width="48px" height="48px" viewBox="0 0 48 48" version="1.1" xmlns="http://www.w3.org/2000/svg" xmlns:xlink="http://www.w3.org/1999/xlink">
    <!-- Generator: Sketch 55.2 (78181) - https://sketchapp.com -->
    <title>emails-mx</title>
    <desc>Created with Sketch.</desc>
    <g id="emails-mx" stroke="none" stroke-width="1" fill="none" fill-rule="evenodd">
        <g id="Group" transform="translate(0.000000, 7.000000)">
            <g id="Group-19">
                <g id="webmail_icon">
                    <g id="email_accounts_icon">
                        <g id="Group-13">
                            <path d="M4.75,4.6875 L38,4.6875 L38,25 L4.75,25 L4.75,4.6875 Z" id="Rectangle-3" fill="#01579B"></path>
                            <rect id="Rectangle-3" fill="#0091EA" x="0" y="0" width="33.25" height="20.3125"></rect>
                            <polygon id="Rectangle-9" fill="#80D8FF" points="0 0 33.25 0 16.625 16.40625"></polygon>
                            <text id="MX" font-family="OpenSans-Bold, Open Sans" font-size="12.1333333" font-weight="bold" fill="#FFFFFF">
                                <tspan x="7.23349609" y="15">MX</tspan>
                            </text>
                        </g>
                    </g>
                </g>
                <path d="M47.7984325,15.3389333 C48.0696193,17.0752314 47.5238253,18.839471 46.269676,20.0906253 C45.0415975,21.315771 43.3260682,21.8602617 41.65169,21.6344897 L34.6147748,28.6546003 C34.8415263,30.3402625 34.3000786,32.03163 33.0745529,33.2541395 C31.8148039,34.5431169 30.0337288,35.0905271 28.313383,34.7871572 C28.185907,34.7689832 28.0658055,34.7429929 27.9318957,34.7070384 C27.8601571,34.6877768 27.624931,34.619156 27.6398634,34.6234137 L26.2214574,34.218976 L29.4980941,30.9501641 L27.6819685,29.1383754 L24.4665218,32.3461435 L24.2024852,30.6670659 C23.9291511,28.9288629 24.474776,27.1620654 25.7303945,25.9094454 C26.9582222,24.6845499 28.6733016,24.1400314 30.3473546,24.3654428 L37.3575806,17.3464243 C37.1304718,15.6604229 37.6718906,13.9686177 38.8976646,12.7458605 C40.1574136,11.4568831 41.9384887,10.9094729 43.6867777,11.2172935 L45.3283098,11.5063174 L42.1391072,14.687904 L43.95824,16.5026926 L47.1833638,13.3168266 L47.6239054,14.6364123 C47.7057882,14.8816814 47.765077,15.1092284 47.7984299,15.3389339 Z" id="Shape-Copy" stroke="#FAFAFA" stroke-width="1.73228346" fill="#95A5A5" fill-rule="nonzero"></path>
            </g>
        </g>
    </g>
</svg>