<?xml version="1.0" encoding="UTF-8"?>
<svg width="48px" height="48px" viewBox="0 0 48 48" version="1.1" xmlns="http://www.w3.org/2000/svg" xmlns:xlink="http://www.w3.org/1999/xlink">
    <!-- Generator: Sketch 55.2 (78181) - https://sketchapp.com -->
    <title>emails-responders</title>
    <desc>Created with Sketch.</desc>
    <g id="emails-responders" stroke="none" stroke-width="1" fill="none" fill-rule="evenodd">
        <g id="auto_responders_icon" transform="translate(6.000000, 6.000000)" fill-rule="nonzero">
            <path d="M27.4493793,0.30662069 L15.3782069,0.30662069 C11.4237931,0.30662069 8.10558621,2.99544828 7.128,6.64137931 C7.59165517,6.5637931 8.06462069,6.51351724 8.55062069,6.51351724 L20.6217931,6.51351724 C25.344,6.51351724 29.1724138,10.3413103 29.1724138,15.0641379 L29.1724138,22.1058621 C29.1724138,22.8873103 29.0588276,23.6426897 28.862069,24.3645517 C32.8698621,23.624069 36,20.0917241 36,15.8989655 L36,8.85724138 C36,4.13441379 32.1715862,0.30662069 27.4493793,0.30662069 Z" id="Shape" fill="#558B2F"></path>
            <g id="Group-20" transform="translate(0.000000, 6.000000)">
                <path d="M20.6217931,0.513517241 L8.55062069,0.513517241 C3.82841379,0.513517241 0,4.34131034 0,9.06413793 L0,16.1058621 C0,20.828069 3.96744828,24.7204138 8.68965517,24.7204138 L8.68965517,24.7204138 L8.68965517,29.342069 C8.68965517,29.6542759 8.928,29.8106897 9.14896552,29.5903448 L10.0930345,28.6462759 C12.6477931,26.0915172 16.1131034,24.7204138 19.7261379,24.7204138 L20.6217931,24.7204138 C25.344,24.7204138 29.1724138,20.828069 29.1724138,16.1058621 L29.1724138,9.06413793 C29.1724138,4.34131034 25.344,0.513517241 20.6217931,0.513517241 Z" id="Shape" fill="#8BC34A"></path>
                <g id="Group-3" transform="translate(5.142857, 10.285714)" fill="#FFFFFF">
                    <circle id="Oval" cx="2.30541872" cy="2.64159606" r="1.86206897"></circle>
                    <circle id="Oval" cx="9.75369458" cy="2.64159606" r="1.86206897"></circle>
                    <circle id="Oval" cx="17.2019704" cy="2.64159606" r="1.86206897"></circle>
                </g>
            </g>
        </g>
    </g>
</svg>