<?xml version="1.0" encoding="UTF-8"?>
<svg width="48px" height="48px" viewBox="0 0 48 48" version="1.1" xmlns="http://www.w3.org/2000/svg" xmlns:xlink="http://www.w3.org/1999/xlink">
    <!-- Generator: Sketch 55.2 (78181) - https://sketchapp.com -->
    <title>emails-forwarders</title>
    <desc>Created with Sketch.</desc>
    <g id="emails-forwarders" stroke="none" stroke-width="1" fill="none" fill-rule="evenodd">
        <g id="email_forwarders_icon" transform="translate(0.000000, 9.000000)">
            <g id="Group-27-Copy" opacity="0.199999988" transform="translate(13.789330, 10.000000)">
                <rect id="Rectangle-3" fill="#0091EA" x="0" y="0" width="32.3982196" height="19.9792627"></rect>
                <polygon id="Rectangle-9" fill="#80D8FF" points="0 0 32.3982196 0 16.1991098 16.1370968"></polygon>
            </g>
            <g id="Group-27">
                <rect id="Rectangle-3" fill="#0091EA" x="0" y="0" width="32.3982196" height="19.9792627"></rect>
                <polygon id="Rectangle-9" fill="#80D8FF" points="0 0 32.3982196 0 16.1991098 16.1370968"></polygon>
            </g>
            <path d="M27.2281472,12.0239922 L27.2281472,4.83157268 L39.305965,16.8810066 L27.2281472,28.9304404 L27.2281472,21.5976587 C24.6928774,21.341091 21.7522158,21.9435737 18.9333031,24.0555139 C17.3464566,25.2443853 15.9048038,26.861653 14.6448312,28.9624313 L13.3062442,31.1942851 L12.805904,28.6403379 C12.7831932,28.5244124 12.7527707,28.3275473 12.7235116,28.0582394 C12.4149958,25.218587 12.8950644,21.9177362 14.8004304,18.7610574 C15.6728793,17.3156443 16.8107412,15.9908562 18.235305,14.8147146 L18.2396958,14.8200327 C19.4019215,13.5326848 23.1605233,12.1292984 27.2281472,12.0239922 Z" id="Shape" stroke="#FAFAFA" stroke-width="2" fill="#8BC34A" fill-rule="nonzero"></path>
            <path d="M13.5545422,29.7744383 L13.312643,28.5392918 C13.2976453,28.4620052 11.8738266,20.7386192 18.5628231,15.216703 C18.6605504,15.1250151 21.521734,12.5356719 27.5972741,12.5356719 C27.6466216,12.5356719 27.6954852,12.5356719 27.7448326,12.5361519 L27.7448326,6.07815504 L38.5727243,16.8810066 L27.7443488,27.6838581 L27.7443488,21.1375336 C27.4240743,21.0904895 26.9097966,21.0352848 26.258604,21.0352848 C23.4714415,21.0352848 18.1999743,22.0304106 14.2033158,28.6933851 L13.5545422,29.7744383 Z M27.5967903,13.4957547 C21.8995805,13.4957547 19.2285297,15.911803 19.2019208,15.9362851 C14.5840652,19.7497339 14.0843014,24.6595973 14.14526,26.9997991 C20.1254919,18.3312116 28.2349204,20.2446566 28.3418398,20.2700988 L28.7119456,20.3589065 L28.7119456,25.3566174 L37.207929,16.8810066 L28.7119456,8.40491568 L28.7119456,13.5192767 L28.2136333,13.5048754 C28.0041486,13.4986349 27.799018,13.4957547 27.5967903,13.4957547 Z" id="Shape" fill="#8BC34A" fill-rule="nonzero"></path>
        </g>
    </g>
</svg>