<?xml version="1.0" encoding="UTF-8"?>
<svg width="48px" height="48px" viewBox="0 0 48 48" version="1.1" xmlns="http://www.w3.org/2000/svg" xmlns:xlink="http://www.w3.org/1999/xlink">
    <!-- Generator: Sketch 55.2 (78181) - https://sketchapp.com -->
    <title>emails-dkim</title>
    <desc>Created with Sketch.</desc>
    <g id="emails-dkim" stroke="none" stroke-width="1" fill="none" fill-rule="evenodd">
        <g id="Group-11" transform="translate(0.000000, 6.000000)">
            <g id="Group-36">
                <g id="Group-13">
                    <path d="M4.75,4.6875 L38,4.6875 L38,25 L4.75,25 L4.75,4.6875 Z" id="Rectangle-3" fill="#01579B"></path>
                    <rect id="Rectangle-3" fill="#0091EA" x="0" y="0" width="33.25" height="20.3125"></rect>
                    <polygon id="Rectangle-9" fill="#80D8FF" points="0 0 33.25 0 16.625 12.425077"></polygon>
                    <text id="DKIM" font-family="OpenSans-Bold, Open Sans" font-size="10" font-weight="bold" fill="#FFFFFF">
                        <tspan x="3.60888672" y="13.75">DKIM</tspan>
                    </text>
                </g>
                <g id="Group-14" transform="translate(23.000000, 16.000000)">
                    <polygon id="Path-2" fill="#FAFAFA" points="5.27861531 12.4219556 16.6417001 4.15554057 19.8818114 8.08005754 15.3828192 10.1678495 15.3828192 13.16044 11.091631 14.2010558 6.34086258 16.8658053 5.27861531 12.651923"></polygon>
                    <path d="M18.8612828,15.3020443 L20.2799748,15.3027324 L20.2799748,16.5207946 C20.2799748,17.2624132 20.7886885,17.5652083 21.4090961,17.1940549 L24.0278086,14.6096681 C24.571579,14.0798531 24.571579,13.7913566 24.0263938,13.2616946 L21.4076813,10.6773077 C20.7858589,10.3061543 20.27856,10.6096376 20.27856,11.3512562 L20.27856,12.5686302 L18.8774749,12.5686302 C17.7025647,12.5686302 16.6974482,12.1681607 15.7622763,11.54429 C15.6257364,11.6684676 15.4845091,11.8007554 15.3379904,11.9414762 C15.0192687,12.2475858 13.7995785,13.4653042 13.8583691,13.407213 C13.8273838,13.4378297 13.7964628,13.467975 13.7656042,13.4976552 C15.1860396,14.5453221 16.8038349,15.2974214 18.8612828,15.3020443 Z M12.4780708,11.9589627 C12.5294098,11.9076707 12.5294098,11.9076707 12.6075327,11.8297253 C12.7981034,11.6397289 12.8954574,11.5427726 13.0465711,11.3925465 C13.4783083,10.9633455 13.8013194,10.6443096 13.9526048,10.4990107 C14.1130623,10.3449027 14.2673468,10.2004505 14.416631,10.0646824 L15.5724876,9.01347591 L16.8721973,9.88053659 C17.4037749,10.235162 17.8879898,10.4451659 18.3812747,10.5278055 C18.834606,8.78793599 20.710197,7.93181673 22.4327304,8.95996257 L22.6403981,9.0839153 L22.8125345,9.25379533 L24.0278086,11.54429 C25.3804378,12.8584056 24.7924185,15.3018913 24.0263938,16.5207946 L22.6425372,18.7867325 L22.4358672,18.9103711 C20.6967536,19.9507806 18.7975668,19.0667919 18.3690871,17.2897464 C16.2365483,17.1862273 14.3751917,16.4324276 12.5784496,15.1072092 L10.6702965,13.6998176 L12.3791797,12.0561882 C12.412544,12.0239523 12.4154527,12.021142 12.4437824,11.9932783 C12.4581137,11.9789177 12.4581137,11.9789177 12.4780708,11.9589627 Z M9.67727871,7.62074358 C9.74345775,7.55595512 9.20310312,8.08569078 9.06366182,8.22156673 C8.86818366,8.41204673 8.68075379,8.59142121 8.50040635,8.76016542 C7.22985851,7.78618083 5.84097464,7.10042575 4.12194631,7.10042575 L2.70404034,7.10042575 C2.31480201,7.10042575 2,6.79487796 2,6.41753102 L2,5.05051814 C2,4.67255949 2.31480201,4.36632352 2.70404034,4.36632352 L4.12053147,4.36632352 C6.86213866,4.36632352 8.85463924,5.43614459 10.5322503,6.80229043 C10.255204,7.06073795 9.97076609,7.33342306 9.67727871,7.62074358 Z M11.8965227,8.26474064 C11.6377722,8.50612061 11.3658141,8.76655717 11.0763977,9.04989234 L8.27815976,6.19159483 C8.29070436,6.17935039 8.29070436,6.17935039 11.1204918,9.00568667 L11.092535,9.03402479 C11.059055,9.06693205 11.059055,9.06693205 11.0290362,9.09636288 C10.9524208,9.17146373 10.9524208,9.17146373 10.8472246,9.27453793 C10.6176569,9.49940013 10.5221918,9.5928311 10.4594443,9.65397422 C10.2515274,9.85657491 10.0548051,10.0447248 9.86685914,10.2205786 L8.62900542,11.378791 L7.28362359,10.3474397 C6.16818133,9.49235695 5.20446056,9.10042575 4.12194631,9.10042575 L2.70404034,9.10042575 C1.22363449,9.10042575 0,7.91330159 0,6.41753102 L0,5.05051814 C0,3.55502679 1.22280274,2.36632352 2.70404034,2.36632352 L4.12053147,2.36632352 C7.07895659,2.36632352 9.48446113,3.36977054 11.7951536,5.25145997 L13.573903,6.69996685 L11.8965227,8.26474064 Z M24.0263938,5.7429708 L21.4076813,3.15858393 C20.7858589,2.78743053 20.27856,3.09022564 20.27856,3.83253244 L20.27856,5.04921826 L18.8604968,5.04990643 C12.0617953,5.06420509 10.0634903,13.251372 4.11990265,13.251372 L2.70404034,13.251372 C2.31480201,13.251372 2,13.557608 2,13.9355666 L2,15.3018913 C2,15.67985 2.31480201,15.9853978 2.70404034,15.9853978 L4.12194631,15.9853978 C11.7153952,15.9853978 13.5605043,7.78316756 18.8788111,7.78316756 L20.2798962,7.78316756 L20.2798962,9.00122971 C20.2798962,9.74284835 20.7886099,10.0463316 21.4090175,9.67517823 L24.02773,7.09079136 C24.3104248,6.81547097 24.4416288,6.60107725 24.4282418,6.3864719 C24.4158748,6.18821895 24.2801123,5.98978538 24.0263938,5.7429708 Z M24.8433337,6.56324447 C24.6876197,7.50097418 24.6859398,8.11788553 24.0263938,8.76016542 L22.6424586,11.2678558 L22.4357886,11.3914943 C20.7137162,12.4217091 18.8355436,11.5646292 18.3823534,9.82338997 C17.4620115,9.97599057 16.5565823,10.5756406 15.2403377,11.8398 C14.9204552,12.1470244 13.6995832,13.3659227 13.7592826,13.3069335 C10.5098964,16.5176618 7.9829156,17.9853978 4.12194631,17.9853978 L2.70404034,17.9853978 C1.22326956,17.9853978 0,16.7978932 0,15.3018913 L0,13.9355666 C0,12.4400753 1.22280274,11.251372 2.70404034,11.251372 L4.11990265,11.251372 C5.71818901,11.251372 6.9254769,10.5019179 9.16204741,8.32253394 C9.30166828,8.18648301 9.84223005,7.65654428 9.77589948,7.72148109 C13.0056039,4.55964041 15.1221538,3.18876921 18.368435,3.0599706 C18.7980669,1.28547896 20.6935107,0.403133228 22.4327304,1.44123879 L22.6403981,1.56519152 L24.4282418,4.36632352 C25.0153647,4.9388351 24.9990476,5.62551476 24.8433337,6.56324447 Z" id="Combined-Shape" fill="#FAFAFA" fill-rule="nonzero"></path>
                    <path d="M13.7656042,13.4976552 C13.7964628,13.467975 13.8273838,13.4378297 13.8583691,13.407213 C13.7995785,13.4653042 15.0192687,12.2475858 15.3379904,11.9414762 C15.4845091,11.8007554 15.6257364,11.6684676 15.7622763,11.54429 C16.6974482,12.1681607 17.7025647,12.5686302 18.8774749,12.5686302 L20.27856,12.5686302 L20.27856,11.3512562 C20.27856,10.6096376 20.7858589,10.3061543 21.4076813,10.6773077 L24.0263938,13.2616946 C24.571579,13.7913566 24.571579,14.0798531 24.0278086,14.6096681 L21.4090961,17.1940549 C20.7886885,17.5652083 20.2799748,17.2624132 20.2799748,16.5207946 L20.2799748,15.3027324 L18.8612828,15.3020443 C16.8038349,15.2974214 15.1860396,14.5453221 13.7656042,13.4976552 Z M10.5322503,6.80229043 C10.255204,7.06073795 9.97076609,7.33342306 9.67727871,7.62074358 C9.74345775,7.55595512 9.20310312,8.08569078 9.06366182,8.22156673 C8.86818366,8.41204673 8.68075379,8.59142121 8.50040635,8.76016542 C7.22985851,7.78618083 5.84097464,7.10042575 4.12194631,7.10042575 L2.70404034,7.10042575 C2.31480201,7.10042575 2,6.79487796 2,6.41753102 L2,5.05051814 C2,4.67255949 2.31480201,4.36632352 2.70404034,4.36632352 L4.12053147,4.36632352 C6.86213866,4.36632352 8.85463924,5.43614459 10.5322503,6.80229043 Z M24.0263938,5.7429708 C24.2801123,5.98978538 24.4158748,6.18821895 24.4282418,6.3864719 C24.4416288,6.60107725 24.3104248,6.81547097 24.02773,7.09079136 L21.4090175,9.67517823 C20.7886099,10.0463316 20.2798962,9.74284835 20.2798962,9.00122971 L20.2798962,7.78316756 L18.8788111,7.78316756 C13.5605043,7.78316756 11.7153952,15.9853978 4.12194631,15.9853978 L2.70404034,15.9853978 C2.31480201,15.9853978 2,15.67985 2,15.3018913 L2,13.9355666 C2,13.557608 2.31480201,13.251372 2.70404034,13.251372 L4.11990265,13.251372 C10.0634903,13.251372 12.0617953,5.06420509 18.8604968,5.04990643 L20.27856,5.04921826 L20.27856,3.83253244 C20.27856,3.09022564 20.7858589,2.78743053 21.4076813,3.15858393 L24.0263938,5.7429708 Z" id="Combined-Shape" fill="#F3B807"></path>
                </g>
            </g>
        </g>
    </g>
</svg>