<?xml version="1.0" encoding="UTF-8"?>
<svg width="48px" height="48px" viewBox="0 0 48 48" version="1.1" xmlns="http://www.w3.org/2000/svg" xmlns:xlink="http://www.w3.org/1999/xlink">
    <!-- Generator: Sketch 55.2 (78181) - https://sketchapp.com -->
    <title>emails-spam-filter</title>
    <desc>Created with Sketch.</desc>
    <g id="emails-spam-filter" stroke="none" stroke-width="1" fill="none" fill-rule="evenodd">
        <g id="Group-5" transform="translate(0.000000, 3.000000)">
            <g id="spam_filer_icon" transform="translate(0.000000, 0.500000)">
                <g id="catch_all_emails_icon">
                    <g id="Group-27-Copy" opacity="0.199999988" transform="translate(11.000000, 0.000000)">
                        <rect id="Rectangle-3" fill="#0091EA" x="0" y="0" width="29.023405" height="17.9813364"></rect>
                        <polygon id="Rectangle-9" fill="#80D8FF" points="0 0 29.023405 0 14.5117025 14.5233871"></polygon>
                    </g>
                    <g id="Group-26" transform="translate(0.000000, 5.000000)">
                        <rect id="Rectangle-3" fill="#0091EA" x="0" y="0" width="35.2427061" height="21.9771889"></rect>
                        <polygon id="Rectangle-9" fill="#80D8FF" points="0 0 35.2427061 0 17.6213531 17.7508065"></polygon>
                    </g>
                    <g id="Group-25" transform="translate(32.500000, 27.000000) rotate(-270.000000) translate(-32.500000, -27.000000) translate(25.500000, 22.500000)">
                        <g id="Group-30" transform="translate(0.370966, 0.329031)">
                            <g id="Group-29" transform="translate(6.951614, 0.000000)"></g>
                        </g>
                    </g>
                </g>
                <path d="M44.5341797,30.4206367 C44.5341797,36.8274189 41.8115343,41.0458555 36.5384727,41.0458555 C31.2664683,41.0458555 28.5439961,36.8271485 28.5439961,30.4206367 C28.5439961,24.7049009 31.4494572,21.5456367 36.5397031,21.5456367 C41.6289007,21.5456367 44.5341797,24.7051081 44.5341797,30.4206367 Z" id="Shape" stroke="#FAFAFA" stroke-width="2" fill-rule="nonzero"></path>
                <g id="spam" transform="translate(26.000000, 19.000000)" fill-rule="nonzero">
                    <g id="Group">
                        <g id="Shape">
                            <path d="M20.1642656,12.2960742 L20.1629531,12.2960742 L0.915140625,12.2960742 L0.913828125,12.2960742 C0.430582031,12.2960742 0.039703125,12.6870352 0.038390625,13.1715117 C0.039703125,13.6534453 0.430582031,14.0456367 0.913828125,14.0456367 L0.913828125,14.0456367 L20.1642656,14.0456367 L20.1642656,14.0456367 L20.1642656,14.0456367 C20.6475117,14.0456367 21.0397031,13.6534453 21.0397031,13.1701992 C21.0397031,12.6869531 20.6475117,12.2960742 20.1642656,12.2960742 Z" fill="#434A54"></path>
                            <path d="M5.41275,1.37049609 L8.05317188,5.78098828 L9.55532813,4.8825 L6.91490625,0.470777344 L6.91359375,0.472089844 C6.76109766,0.217054687 6.48292969,0.04528125 6.16374609,0.04528125 C5.6805,0.04528125 5.28962109,0.437472656 5.28962109,0.92071875 C5.28962109,1.08478125 5.33572266,1.23858984 5.41398047,1.36934766 L5.41275,1.37049609 Z" fill="#434A54"></path>
                            <path d="M15.6730547,1.37049609 L15.6717422,1.36918359 C15.7512305,1.23842578 15.797332,1.08461719 15.797332,0.920554687 C15.797332,0.437308594 15.4051406,0.0451171875 14.9218945,0.0451171875 C14.6027109,0.0451171875 14.324625,0.216890625 14.1720469,0.471925781 L14.1707344,0.470613281 L11.5303125,4.88233594 L13.0312383,5.78082422 L15.6730547,1.37049609 Z" fill="#434A54"></path>
                            <path d="M0.921539063,7.17289453 C0.936960937,7.28183203 1.34194922,9.82865625 3.98228906,10.8181992 L4.59621094,9.18011719 C2.94147656,8.55848438 2.66207812,6.97807031 2.65182422,6.91146094 L2.65313672,6.91785938 L2.65182422,6.91785938 C2.59030078,6.49490625 2.22624609,6.17063672 1.78664062,6.17063672 C1.30339453,6.17063672 0.912515625,6.56282813 0.912515625,7.04607422 C0.912515625,7.08963281 0.916371094,7.13196094 0.922769531,7.17297656 L0.921539063,7.17297656 L0.921539063,7.17289453 Z" fill="#434A54"></path>
                            <path d="M20.1553242,7.17289453 L20.1540117,7.17289453 C20.1604102,7.13187891 20.1642656,7.08955078 20.1642656,7.04599219 C20.1642656,6.56274609 19.7720742,6.17055469 19.2888281,6.17055469 C18.8492227,6.17055469 18.4864805,6.49482422 18.424957,6.91777734 L18.4236445,6.91777734 C18.4211016,6.93442969 18.1647539,8.54814844 16.4792578,9.18003516 L17.0944922,10.8181172 C19.7336016,9.82865625 20.1386719,7.28191406 20.1553242,7.17289453 Z" fill="#424242"></path>
                            <path d="M19.2798867,20.0435156 C19.2632344,19.9358906 18.8594766,17.3884102 16.2191367,16.3976367 L15.6052148,18.0369492 C17.2599492,18.6566953 17.5380352,20.2383398 17.5496016,20.3049492 L17.5482891,20.2972383 L17.5496016,20.2972383 C17.611125,20.7201914 17.9738672,21.0457734 18.4147852,21.0457734 C18.8967187,21.0457734 19.2889102,20.653582 19.2889102,20.1716484 C19.2889102,20.1280898 19.2850547,20.0845312 19.2786562,20.0435156 L19.2798867,20.0435156 Z" fill="#434A54"></path>
                            <path d="M1.79828906,20.0435156 L1.79960156,20.0435156 C1.79320312,20.0845312 1.78934766,20.1280898 1.78934766,20.1716484 C1.78934766,20.653582 2.18030859,21.0457734 2.66347266,21.0457734 C3.10307813,21.0457734 3.46713281,20.7201914 3.52865625,20.2972383 L3.52996875,20.2997812 C3.53251172,20.2818164 3.78885937,18.6694102 5.47435547,18.0368672 L4.85912109,16.3987852 C2.21869922,17.3884102 1.81494141,19.9358086 1.79828906,20.0435156 Z" fill="#434A54"></path>
                        </g>
                        <path d="M17.5341797,11.4206367 C17.5341797,16.7360156 15.5359805,21.0458555 10.5384727,21.0458555 C5.54227734,21.0458555 3.54399609,16.7360156 3.54399609,11.4206367 C3.54399609,6.10525781 6.14463281,3.54563672 10.5397031,3.54563672 C14.933543,3.54563672 17.5341797,6.10525781 17.5341797,11.4206367 Z" id="Shape" fill="#F14235"></path>
                    </g>
                </g>
            </g>
        </g>
    </g>
</svg>