<?xml version="1.0" encoding="UTF-8"?>
<svg width="48px" height="48px" viewBox="0 0 48 48" version="1.1" xmlns="http://www.w3.org/2000/svg" xmlns:xlink="http://www.w3.org/1999/xlink">
    <!-- Generator: Sketch 55.2 (78181) - https://sketchapp.com -->
    <title>files-error-logs</title>
    <desc>Created with Sketch.</desc>
    <defs>
        <path d="M41.9181287,25.5395282 L0,25.5395282 L0,2.55249798 C0,1.14270968 1.13178947,0 2.52810526,0 L39.3900234,0 C40.7863392,0 41.9181287,1.14270968 41.9181287,2.55249798 L41.9181287,25.5395282 Z" id="path-1"></path>
    </defs>
    <g id="files-error-logs" stroke="none" stroke-width="1" fill="none" fill-rule="evenodd">
        <g id="Group-28" transform="translate(3.000000, 3.000000)">
            <g id="error_logs_icon" transform="translate(0.000000, 0.500000)">
                <g id="error_pages_icon">
                    <g id="statistics_icon">
                        <g id="website_builder_icon-copy-3">
                            <g id="coding-(1)">
                                <path d="M28.7456842,38.0129516 L13.1730994,38.0129516 C13.0112398,38.0129516 12.9476257,37.7889395 13.0834503,37.6940444 L14.3872515,36.7651794 C15.7951111,35.7625806 16.4600702,33.9259294 16.0494854,32.1753286 L25.8698713,32.1753286 L25.8691345,32.1768165 C25.4593684,33.9273347 26.1249825,35.7647298 27.5328421,36.7666673 L28.8359064,37.694127 C28.9711579,37.7896835 28.9075439,38.0129516 28.7456842,38.0129516" id="Shape" fill="#D4D4D4" fill-rule="nonzero"></path>
                                <path d="M39.3900234,32.1753286 L2.52884211,32.1753286 C1.13252632,32.1753286 0,31.032619 0,29.6228306 L0,2.62102419 C0,1.21123589 1.13252632,0.0685262097 2.52884211,0.0685262097 L39.3900234,0.0685262097 C40.7863392,0.0685262097 41.9181287,1.21123589 41.9181287,2.62102419 L41.9181287,29.6228306 C41.9181287,31.032619 40.7863392,32.1753286 39.3900234,32.1753286" id="Shape" fill="#EFEFEF" fill-rule="nonzero"></path>
                                <g id="settings">
                                    <g id="Rectangle-path">
                                        <mask id="mask-2" fill="white">
                                            <use xlink:href="#path-1"></use>
                                        </mask>
                                        <use id="Mask" fill="#4A4A4A" fill-rule="nonzero" xlink:href="#path-1"></use>
                                        <polygon fill="#4A4A4A" fill-rule="nonzero" mask="url(#mask-2)" points="0 0 42.0249572 0 42.0249572 2.67317056 0 2.67317056"></polygon>
                                    </g>
                                </g>
                                <path d="M28.909345,40.9317218 L13.0093567,40.9317218 C12.2107836,40.9317218 11.5639181,40.2786149 11.5639181,39.4723367 C11.5639181,38.6660585 12.2107836,38.0129516 13.0093567,38.0129516 L28.909345,38.0129516 C29.7079181,38.0129516 30.3547836,38.6660585 30.3547836,39.4723367 C30.3547836,40.2786149 29.7079181,40.9317218 28.909345,40.9317218" id="Shape" fill="#EFEFEF" fill-rule="nonzero"></path>
                            </g>
                        </g>
                    </g>
                    <g id="browser-(3)" transform="translate(2.000000, 0.000000)" fill="#ECF0F1" fill-rule="nonzero">
                        <circle id="Oval" cx="1.33658528" cy="1.33658528" r="1"></circle>
                        <circle id="Oval" cx="3.3414632" cy="1.33658528" r="1"></circle>
                        <circle id="Oval" cx="5.34634112" cy="1.33658528" r="1"></circle>
                    </g>
                </g>
                <g id="Group-43" transform="translate(8.000000, 6.000000)">
                    <polygon id="Rectangle-13" fill="#F14235" transform="translate(13.435029, 13.435029) rotate(-135.000000) translate(-13.435029, -13.435029) " points="19.9350288 3.93502884 22.9350288 22.9350288 3.93502884 19.9350288"></polygon>
                    <path d="M14.1026936,10.944857 L12.9309764,10.944857 L12.5808081,4.79998779 L14.4461279,4.79998779 L14.1026936,10.944857 Z M12.5,12.8704103 C12.5,12.5726221 12.5875412,12.3462662 12.7626263,12.1913359 C12.9377113,12.0364055 13.1868671,11.9589415 13.510101,11.9589415 C13.8288456,11.9589415 14.0735121,12.0394236 14.2441077,12.2003902 C14.4147034,12.3613568 14.5,12.5846946 14.5,12.8704103 C14.5,13.156126 14.4135811,13.3824819 14.2407407,13.5494848 C14.0679004,13.7164876 13.8243562,13.7999878 13.510101,13.7999878 C13.1913564,13.7999878 12.943323,13.7195057 12.7659933,13.5585391 C12.5886635,13.3975725 12.5,13.1681985 12.5,12.8704103 Z" id="!" fill="#FFFFFF"></path>
                </g>
                <g id="Group-25" transform="translate(20.000000, 19.000000)">
                    <ellipse id="Oval" fill="#FFFFFF" fill-rule="nonzero" cx="11" cy="11.0727119" rx="11" ry="10.8135593"></ellipse>
                    <path d="M11,-0.740847458 C17.6235291,-0.740847458 23,4.54449683 23,11.0727119 C23,17.6009269 17.6235291,22.8862712 11,22.8862712 C4.37647092,22.8862712 -1,17.6009269 -1,11.0727119 C-1,4.54449683 4.37647092,-0.740847458 11,-0.740847458 Z" id="Path" stroke="#FAFAFA" stroke-width="2"></path>
                    <path d="M11,1.75067797 C16.2287931,1.75067797 20.4827586,5.93254237 20.4827586,11.0727119 C20.4827586,16.2128814 16.2287931,20.3947458 11,20.3947458 C5.7712069,20.3947458 1.51724138,16.2128814 1.51724138,11.0727119 C1.51724138,5.93254237 5.7712069,1.75067797 11,1.75067797 L11,1.75067797 Z M11,0.259152542 C4.92496552,0.259152542 0,5.10064407 0,11.0727119 C0,17.0447797 4.92496552,21.8862712 11,21.8862712 C17.0750345,21.8862712 22,17.0447797 22,11.0727119 C22,5.10064407 17.0750345,0.259152542 11,0.259152542 L11,0.259152542 Z" id="Shape" fill="#757575" fill-rule="nonzero"></path>
                    <g id="Group" transform="translate(2.275862, 2.237288)" fill="#757575" fill-rule="nonzero">
                        <path d="M8.72413793,0.213661017 C8.51475862,0.213661017 8.34482759,0.380338983 8.34482759,0.586542373 L8.34482759,0.959423729 C8.34482759,1.16562712 8.51475862,1.33230508 8.72413793,1.33230508 C8.93351724,1.33230508 9.10344828,1.16562712 9.10344828,0.959423729 L9.10344828,0.586542373 C9.10344828,0.380711864 8.93351724,0.213661017 8.72413793,0.213661017 Z" id="Shape"></path>
                        <path d="M8.72413793,16.2475593 C8.51475862,16.2475593 8.34482759,16.4142373 8.34482759,16.6204407 L8.34482759,16.993322 C8.34482759,17.1995254 8.51475862,17.3662034 8.72413793,17.3662034 C8.93351724,17.3662034 9.10344828,17.1995254 9.10344828,16.993322 L9.10344828,16.6204407 C9.10344828,16.4146102 8.93351724,16.2475593 8.72413793,16.2475593 Z" id="Shape"></path>
                        <path d="M17.0689655,8.41705085 L16.6896552,8.41705085 C16.4802759,8.41705085 16.3103448,8.58372881 16.3103448,8.7899322 C16.3103448,8.99613559 16.4802759,9.16281356 16.6896552,9.16281356 L17.0689655,9.16281356 C17.2783448,9.16281356 17.4482759,8.99613559 17.4482759,8.7899322 C17.4482759,8.58372881 17.2783448,8.41705085 17.0689655,8.41705085 Z" id="Shape"></path>
                        <path d="M0.75862069,8.41705085 L0.379310345,8.41705085 C0.169931034,8.41705085 0,8.58372881 0,8.7899322 C0,8.99613559 0.169931034,9.16281356 0.379310345,9.16281356 L0.75862069,9.16281356 C0.968,9.16281356 1.13793103,8.99613559 1.13793103,8.7899322 C1.13793103,8.58372881 0.968,8.41705085 0.75862069,8.41705085 Z" id="Shape"></path>
                        <path d="M14.3565172,2.72576271 L14.0883448,2.98938983 C13.9400345,3.13518644 13.9400345,3.37084746 14.0883448,3.51664407 C14.1623103,3.58935593 14.2594138,3.62589831 14.3565172,3.62589831 C14.4536207,3.62589831 14.5507241,3.58935593 14.6246897,3.51664407 L14.8928621,3.25301695 C15.0411724,3.10722034 15.0411724,2.87155932 14.8928621,2.72576271 C14.7445517,2.5799661 14.5048276,2.5799661 14.3565172,2.72576271 Z" id="Shape"></path>
                        <path d="M2.82358621,14.0635932 L2.55541379,14.3272203 C2.40710345,14.4730169 2.40710345,14.708678 2.55541379,14.8544746 C2.62937931,14.9271864 2.72648276,14.9637288 2.82358621,14.9637288 C2.92068966,14.9637288 3.0177931,14.9271864 3.09175862,14.8544746 L3.35993103,14.5908475 C3.50824138,14.4450508 3.50824138,14.2093898 3.35993103,14.0635932 C3.21162069,13.9177966 2.97151724,13.9177966 2.82358621,14.0635932 Z" id="Shape"></path>
                        <path d="M14.6246897,14.0635932 C14.4763793,13.9177966 14.2366552,13.9177966 14.0883448,14.0635932 C13.9400345,14.2093898 13.9400345,14.4450508 14.0883448,14.5908475 L14.3565172,14.8544746 C14.4304828,14.9271864 14.5275862,14.9637288 14.6246897,14.9637288 C14.7217931,14.9637288 14.8188966,14.9271864 14.8928621,14.8544746 C15.0411724,14.708678 15.0411724,14.4730169 14.8928621,14.3272203 L14.6246897,14.0635932 Z" id="Shape"></path>
                        <path d="M3.09175862,2.72576271 C2.94344828,2.5799661 2.70372414,2.5799661 2.55541379,2.72576271 C2.40710345,2.87155932 2.40710345,3.10722034 2.55541379,3.25301695 L2.82358621,3.51664407 C2.89755172,3.58935593 2.99465517,3.62589831 3.09175862,3.62589831 C3.18886207,3.62589831 3.28596552,3.58935593 3.35993103,3.51664407 C3.50824138,3.37084746 3.50824138,3.13518644 3.35993103,2.98938983 L3.09175862,2.72576271 Z" id="Shape"></path>
                    </g>
                    <path d="M9.86206897,11.4004746 L6.82758621,11.4004746 C6.6182069,11.4004746 6.44827586,11.2337966 6.44827586,11.0275932 C6.44827586,10.8213898 6.6182069,10.6547119 6.82758621,10.6547119 L9.86206897,10.6547119 C10.0714483,10.6547119 10.2413793,10.8213898 10.2413793,11.0275932 C10.2413793,11.2337966 10.0714483,11.4004746 9.86206897,11.4004746 Z" id="Shape" fill="#757575" fill-rule="nonzero"></path>
                    <path d="M11,10.2818305 C10.7906207,10.2818305 10.6206897,10.1151525 10.6206897,9.90894915 L10.6206897,5.80725424 C10.6206897,5.60105085 10.7906207,5.43437288 11,5.43437288 C11.2093793,5.43437288 11.3793103,5.60105085 11.3793103,5.80725424 L11.3793103,9.90894915 C11.3793103,10.1147797 11.2093793,10.2818305 11,10.2818305 Z" id="Shape" fill="#757575" fill-rule="nonzero"></path>
                    <path d="M11,12.5191186 C10.1632414,12.5191186 9.48275862,11.8501695 9.48275862,11.0275932 C9.48275862,10.2050169 10.1632414,9.5360678 11,9.5360678 C11.8367586,9.5360678 12.5172414,10.2050169 12.5172414,11.0275932 C12.5172414,11.8501695 11.8367586,12.5191186 11,12.5191186 Z M11,10.2818305 C10.5816207,10.2818305 10.2413793,10.6163051 10.2413793,11.0275932 C10.2413793,11.4388814 10.5816207,11.7733559 11,11.7733559 C11.4183793,11.7733559 11.7586207,11.4388814 11.7586207,11.0275932 C11.7586207,10.6163051 11.4183793,10.2818305 11,10.2818305 Z" id="Shape" fill="#757575" fill-rule="nonzero"></path>
                </g>
            </g>
        </g>
    </g>
</svg>