<?xml version="1.0" encoding="UTF-8"?>
<svg width="48px" height="48px" viewBox="0 0 48 48" version="1.1" xmlns="http://www.w3.org/2000/svg" xmlns:xlink="http://www.w3.org/1999/xlink">
    <!-- Generator: Sketch 55.2 (78181) - https://sketchapp.com -->
    <title>files-ftp-accounts</title>
    <desc>Created with Sketch.</desc>
    <g id="files-ftp-accounts" stroke="none" stroke-width="1" fill="none" fill-rule="evenodd">
        <g id="ftp_accounts_icon" transform="translate(3.000000, 3.000000)">
            <ellipse id="Oval-16" fill="#FFFFFF" cx="28.2222222" cy="28.25" rx="4.22222222" ry="4.2"></ellipse>
            <g id="databases_icon">
                <g id="Group-46">
                    <g id="Group-45">
                        <rect id="Rectangle-14" fill="#4A4A4A" x="0" y="0" width="37" height="37" rx="1.76190476"></rect>
                        <circle id="Oval" fill="#FFFFFF" fill-rule="nonzero" cx="6.06034483" cy="6.37931034" r="2.23275862"></circle>
                        <circle id="Oval" fill="#FFFFFF" fill-rule="nonzero" cx="31.2586207" cy="5.42241379" r="1"></circle>
                        <circle id="Oval" fill="#FFFFFF" fill-rule="nonzero" cx="28.7068966" cy="5.42241379" r="1"></circle>
                        <circle id="Oval" fill="#FFFFFF" fill-rule="nonzero" cx="32.5344828" cy="7.3362069" r="1"></circle>
                        <circle id="Oval" fill="#FFFFFF" fill-rule="nonzero" cx="29.9827586" cy="7.3362069" r="1"></circle>
                        <circle id="Oval" fill="#FFFFFF" fill-rule="nonzero" cx="26.1551724" cy="5.42241379" r="1"></circle>
                        <circle id="Oval" fill="#FFFFFF" fill-rule="nonzero" cx="27.4310345" cy="7.3362069" r="1"></circle>
                    </g>
                </g>
                <g id="Group-46-Copy" transform="translate(3.523810, 15.857143)" fill="#FFFFFF" fill-rule="nonzero">
                    <g id="Group-45">
                        <circle id="Oval" cx="2.5365353" cy="2.85550082" r="2.23275862"></circle>
                        <circle id="Oval" cx="27.7348112" cy="1.89860427" r="1"></circle>
                        <circle id="Oval" cx="25.183087" cy="1.89860427" r="1"></circle>
                        <circle id="Oval" cx="29.0106732" cy="3.81239737" r="1"></circle>
                        <circle id="Oval" cx="26.4589491" cy="3.81239737" r="1"></circle>
                        <circle id="Oval" cx="22.6313629" cy="1.89860427" r="1"></circle>
                        <circle id="Oval" cx="23.907225" cy="3.81239737" r="1"></circle>
                    </g>
                </g>
                <g id="Group-46-Copy-2" transform="translate(3.523810, 28.190476)" fill="#FFFFFF" fill-rule="nonzero">
                    <g id="Group-45">
                        <circle id="Oval" cx="2.5365353" cy="2.85550082" r="2.23275862"></circle>
                    </g>
                </g>
            </g>
            <g id="Group-34" transform="translate(20.000000, 20.000000)">
                <circle id="Oval-6" stroke="#FAFAFA" stroke-width="2" cx="11.0350122" cy="10.9850245" r="11.835"></circle>
                <path d="M17.9431771,19.312729 C17.6953497,18.8000594 17.2965179,18.3647941 16.7799926,18.0827808 L13.6963914,16.3994652 C13.2918304,16.1789657 13.1675074,15.7545123 13.1675074,15.2931998 L13.1675074,14.028604 C13.1675074,14.028604 14.2671801,12.9461742 14.6124851,11.4400282 C14.8986161,11.2549135 15.3350149,10.9346486 15.3350149,10.5694974 L15.3350149,9.18629712 C15.3350149,8.88192261 14.8227455,8.60932886 14.6124851,8.41913574 L14.6124851,6.4191593 C14.6124851,6.4191593 14.8761905,3.03450818 11,3.03450818 C7.27694196,3.03450818 7.38751488,6.4191593 7.38751488,6.4191593 L7.38751488,8.41913574 C7.17725446,8.60932886 6.66498512,8.88192261 6.66498512,9.18629712 L6.66498512,10.5694974 C6.66498512,10.9346486 7.10138393,11.2549954 7.38751488,11.4400282 C7.73290179,12.9461742 8.83249256,14.028604 8.83249256,14.028604 L8.83249256,15.2931998 C8.83249256,15.7545123 8.70825149,16.1789657 8.30360863,16.3994652 L5.22000744,18.0827808 C4.7034003,18.3647941 4.30456845,18.8000594 4.05682292,19.312729 C5.9374628,20.8853853 8.35713542,21.8340574 11,21.8340574 C13.6428646,21.8340574 16.0625372,20.8853853 17.9431771,19.312729 Z" id="Shape" fill="#FFFFFF" fill-rule="nonzero"></path>
                <path d="M21.8374554,10.9881353 C21.8374554,4.99828076 16.9851786,0.142213135 11,0.142213135 C5.01482143,0.142213135 0.162544643,4.99828076 0.162544643,10.9881353 C0.162544643,14.3323232 1.69280506,17.3004662 4.07049107,19.2888934 C4.31831845,18.787855 4.71133929,18.3604529 5.22000744,18.0828627 L8.30360863,16.3995471 C8.70816964,16.1790476 8.83249256,15.7545942 8.83249256,15.2932817 L8.83249256,14.0286859 C8.83249256,14.0286859 7.73281994,12.9462561 7.38751488,11.4401101 C7.10138393,11.2549954 6.66498512,10.9347305 6.66498512,10.5695793 L6.66498512,9.18637903 C6.66498512,8.88200452 7.17725446,8.60941077 7.38751488,8.41921765 L7.38751488,6.41924121 C7.38751488,6.41924121 7.27694196,3.03459009 11,3.03459009 C14.8761905,3.03459009 14.6124851,6.41924121 14.6124851,6.41924121 L14.6124851,8.41921765 C14.8227455,8.60941077 15.3350149,8.88200452 15.3350149,9.18637903 L15.3350149,10.5695793 C15.3350149,10.9347305 14.8986161,11.2550773 14.6124851,11.4401101 C14.2670982,12.9462561 13.1675074,14.0286859 13.1675074,14.0286859 L13.1675074,15.2932817 C13.1675074,15.7545942 13.2917485,16.1790476 13.6963914,16.3995471 L16.7799926,18.0828627 C17.2886607,18.3605348 17.6816815,18.787855 17.9295089,19.2888934 C20.3071949,17.3004662 21.8374554,14.3323232 21.8374554,10.9881353" id="Shape" fill="#757575" fill-rule="nonzero"></path>
            </g>
        </g>
    </g>
</svg>