<?xml version="1.0" encoding="UTF-8"?>
<svg width="48px" height="48px" viewBox="0 0 48 48" version="1.1" xmlns="http://www.w3.org/2000/svg" xmlns:xlink="http://www.w3.org/1999/xlink">
    <!-- Generator: Sketch 55.2 (78181) - https://sketchapp.com -->
    <title>files-backups</title>
    <desc>Created with Sketch.</desc>
    <g id="files-backups" stroke="none" stroke-width="1" fill="none" fill-rule="evenodd">
        <g id="Group-23" transform="translate(3.000000, 3.000000)" fill-rule="nonzero">
            <g id="backups_icon">
                <g id="files_icon-copy-2">
                    <path d="M33.9063579,7.41325307 C33.9063579,5.79085995 32.5795586,4.46352334 30.958008,4.46352334 L22.1128748,4.46352334 L18.4273956,0.0388452088 L5.15965408,0.0388452088 C3.90658449,0.0388452088 2.9483499,1.07129238 2.9483499,2.25118428 L2.9483499,7.41325307 L33.9063579,7.41325307 Z" id="Shape" fill="#A86A3F"></path>
                    <path d="M38.3288827,30.5078041 L35.3333843,30.5078041 L28.5310532,29.529574 L21.4371642,33.9610713 L2.21130417,33.9610713 C0.958234592,33.9610713 0,33.0023882 0,31.7487322 L0,9.6255086 C0,8.37185258 0.958234592,7.41316953 2.21130417,7.41316953 L36.117662,7.41316953 C37.297002,7.41316953 38.3288827,8.44561671 38.3288827,9.6255086 L38.3288827,30.5078041 Z" id="Combined-Shape" fill="#C47E4D"></path>
                    <path d="M39.0660119,10.3629828 C40.9087515,10.3629828 42.3091968,12.1328206 41.9407157,13.9026585 L38.3289662,31.011258 L38.3289662,10.3629828 L39.0660119,10.3629828 Z" id="Shape" fill="#A86A3F"></path>
                </g>
                <path d="M30.3601695,23.3584254 L30.3601695,15.57068 L43.2784325,28.6031543 L30.3601695,41.6356286 L30.3601695,33.7003349 C27.5661765,33.3950518 24.3158505,34.0519438 21.2008993,36.4118558 C19.465048,37.7269507 17.8885303,39.5153506 16.5114908,41.8370721 L15.1698641,44.0990867 L14.6696495,41.5171383 C14.6455234,41.3926072 14.6129019,41.1791449 14.5814198,40.886125 C14.2481631,37.7843437 14.7670108,34.1768374 16.8261641,30.7271064 C17.7695071,29.1467095 19.0001699,27.6978025 20.5416592,26.4108491 L20.5423276,26.4116497 C21.7591426,25.0256015 25.8946042,23.4570925 30.3601639,23.3584255 Z" id="Shape" stroke="#FAFAFA" stroke-width="2" fill="#8BC34A"></path>
            </g>
        </g>
    </g>
</svg>