<?xml version="1.0" encoding="UTF-8"?>
<svg width="48px" height="48px" viewBox="0 0 48 48" version="1.1" xmlns="http://www.w3.org/2000/svg" xmlns:xlink="http://www.w3.org/1999/xlink">
    <!-- Generator: Sketch 55.2 (78181) - https://sketchapp.com -->
    <title>git-index</title>
    <desc>Created with Sketch.</desc>
    <g id="git-index" stroke="none" stroke-width="1" fill="none" fill-rule="evenodd">
        <g id="Group-51" transform="translate(3.000000, 3.000000)" fill="#F14235" fill-rule="nonzero">
            <path d="M41.2076687,22.8706102 L22.870156,41.2077558 C21.8145827,42.2640814 20.1017785,42.2640814 19.0447883,41.2077558 L15.2372922,37.3994985 L20.0673149,32.569197 C21.1900329,32.9482584 22.4773441,32.6938444 23.3718436,31.7991443 C24.2717365,30.8988678 24.5238144,29.6004695 24.1351162,28.4738441 L28.7907184,23.8186979 C29.9173215,24.2070381 31.2162425,23.9560065 32.1161355,23.0548616 C33.3730969,21.7982409 33.3730969,19.761146 32.1161355,18.503474 C30.8582599,17.2457563 28.8216168,17.2457563 27.5631928,18.503474 C26.6178207,19.449779 26.3839344,20.839046 26.8633167,22.0039296 L22.5210864,26.3458804 L22.5210864,14.9201487 C22.8272822,14.7683961 23.1165204,14.5662727 23.3718436,14.3116759 C24.628805,13.0548266 24.628805,11.0179602 23.3718436,9.75919123 C22.1148822,8.50275338 20.0767764,8.50275338 18.8207292,9.75919123 C17.5637678,11.0179602 17.5637678,13.0548266 18.8207292,14.3116759 C19.1314043,14.6219915 19.4911695,14.8567509 19.8750227,15.013897 L19.8750227,26.545307 C19.4911695,26.7024532 19.1322728,26.935247 18.8207292,27.247711 C17.8687295,28.1994096 17.6396426,29.5969042 18.1279835,30.7662215 L13.3661566,35.5288285 L0.792072508,22.9555825 C-0.264024169,21.8983884 -0.264024169,20.1855503 0.792072508,19.1292703 L19.1304902,0.792088239 C20.1862463,-0.264029413 21.898502,-0.264029413 22.9558579,0.792088239 L41.2076687,19.0442981 C42.2641104,20.1007608 42.2641104,21.8144675 41.2076687,22.8706102" id="git_icon-copy"></path>
        </g>
    </g>
</svg>