                    <svg class="svg-inline--fa fa-w-14" version="1.1" id="Layer_1" xmlns="http://www.w3.org/2000/svg" xmlns:xlink="http://www.w3.org/1999/xlink" x="0px" y="0px"
                         viewBox="0 0 18 18" style="enable-background:new 0 0 18 18;" xml:space="preserve">
                    <style type="text/css">
                        .st0{fill:#FFFFFF;}
                    </style>
                    <g>
                        <path class="st0" d="M4.055,6.188H4.033H4.01c-0.034,0-0.068,0-0.113,0c-1.075,0-1.969,0.849-2.014,1.924
                            c-0.057,1.109,0.804,2.06,1.913,2.116c0.034,0,0.068,0,0.102,0c0.509,0,0.996-0.192,1.369-0.532l0.011-0.011l0.011-0.011
                            l4.085-3.463L4.055,6.188z"/>
                        <path class="st0" d="M11.649,6.199c-0.113,0-0.226,0-0.351,0c-0.102,0-0.204,0-0.317,0v0.011C10.959,6.222,9.171,7.75,9.159,9.787
                            c-0.011,1.177,0.6,2.309,1.788,3.372c0.226,0.011,0.464,0.011,0.702,0.011c1.924,0,3.486-1.562,3.486-3.486
                            S13.562,6.199,11.649,6.199z M12.294,9.753c-0.634,0-1.143-0.509-1.143-1.143s0.509-1.143,1.143-1.143
                            c0.634,0,1.143,0.509,1.143,1.143C13.437,9.244,12.928,9.753,12.294,9.753z"/>
                        <circle class="st0" cx="12" cy="8.327" r="0.362"/>
                        <g>
                            <path class="st0" d="M11.343,5.271c0.102,0,0.204,0,0.306,0c0.215,0,0.43,0.011,0.645,0.045c0.17-0.577,0.464-1.075,0.894-1.483
                                c0.192,0.068,0.419,0.079,0.634-0.011c0.464-0.181,0.702-0.702,0.521-1.177c-0.181-0.464-0.702-0.702-1.177-0.521
                                C12.758,2.284,12.532,2.703,12.6,3.11C11.977,3.698,11.547,4.423,11.343,5.271z"/>
                            <path class="st0" d="M16.379,3.608c-0.419-0.113-0.849,0.091-1.041,0.464c-0.985,0.124-1.867,0.577-2.603,1.335
                                c0.34,0.091,0.656,0.215,0.962,0.373c0.509-0.43,1.075-0.69,1.709-0.781c0.124,0.17,0.294,0.306,0.521,0.362
                                c0.487,0.124,0.985-0.158,1.109-0.645S16.866,3.732,16.379,3.608z"/>
                        </g>
                        <g>
                            <path class="st0" d="M3.24,11.077l-1.403,2.377l2.92-0.996C4.157,12.084,3.648,11.62,3.24,11.077z"/>
                        </g>
                        <path class="st0" d="M8.548,8.123L7.122,9.334c-0.26,1.041-0.023,2.184,0.702,3.418c0.532,0.136,1.109,0.238,1.731,0.306
                            c-0.883-1.03-1.324-2.128-1.313-3.282C8.231,9.176,8.356,8.621,8.548,8.123z"/>
                        <path class="st0" d="M5.9,10.375c-0.385,0.362-0.871,0.611-1.403,0.724c0.555,0.521,1.256,0.951,2.094,1.279
                            c-0.328-0.747-0.487-1.46-0.498-2.162L5.9,10.375z"/>
                    </g>
                    </svg>
