<?xml version="1.0" encoding="utf-8"?>
<!-- Generator: Adobe Illustrator 24.0.3, SVG Export Plug-In . SVG Version: 6.00 Build 0)  -->
<svg version="1.1" id="Layer_1" xmlns="http://www.w3.org/2000/svg" xmlns:xlink="http://www.w3.org/1999/xlink" x="0px" y="0px"
	 viewBox="0 0 80 80" style="enable-background:new 0 0 80 80;" xml:space="preserve">
<style type="text/css">
	.st0{filter:url(#filter-2);}
	.st1{fill-rule:evenodd;clip-rule:evenodd;}
	.st2{fill-rule:evenodd;clip-rule:evenodd;fill:#FF5C62;}
	.st3{fill-rule:evenodd;clip-rule:evenodd;fill:#FFFFFF;}
</style>
<filter  filterUnits="objectBoundingBox" height="165.0%" id="filter-2" width="165.0%" x="-32.5%" y="-17.5%">
	<feOffset  dx="0" dy="9" in="SourceAlpha" result="shadowOffsetOuter1"></feOffset>
	<feGaussianBlur  in="shadowOffsetOuter1" result="shadowBlurOuter1" stdDeviation="5"></feGaussianBlur>
	<feColorMatrix  in="shadowBlurOuter1" type="matrix" values="0 0 0 0 0   0 0 0 0 0   0 0 0 0 0  0 0 0 0.1 0"></feColorMatrix>
</filter>
<title>Group 8</title>
<desc>Created with Sketch.</desc>
<g>
	<g class="st0">
		<circle id="path-1_2_" class="st1" cx="40" cy="31" r="30"/>
	</g>
	<g>
		<circle id="path-1_1_" class="st2" cx="40" cy="31" r="30"/>
	</g>
	<g id="Group" transform="translate(16.000000, 14.000000)">
		<path id="Shape" class="st3" d="M38,33c0,0-4.7-1.9-8.5-3.3h-16C11.5,29.7,10,28,10,26V4.6c0-2,1.5-3.6,3.4-3.6h21.1
			C36.5,1,38,2.6,38,4.6V23h0V33z M33.9,21c-0.3-0.4-0.9-0.5-1.3-0.1c0,0-3,2.7-8.6,2.7c-5.5,0-8.5-2.6-8.6-2.7
			c-0.4-0.3-1-0.3-1.3,0.1c-0.2,0.2-0.2,0.5-0.2,0.7s0.1,0.5,0.3,0.7c0.1,0.1,3.5,3.1,9.8,3.1c6.2,0,9.6-3,9.8-3.1
			c0.2-0.2,0.3-0.4,0.3-0.7C34.1,21.5,34,21.2,33.9,21z"/>
	</g>
</g>
</svg>
