<?xml version="1.0" encoding="UTF-8"?>
<svg width="48px" height="48px" viewBox="0 0 48 48" version="1.1" xmlns="http://www.w3.org/2000/svg" xmlns:xlink="http://www.w3.org/1999/xlink">
    <!-- Generator: Sketch 55.2 (78181) - https://sketchapp.com -->
    <title>other-fix-file-ownership</title>
    <desc>Created with Sketch.</desc>
    <g id="other-fix-file-ownership" stroke="none" stroke-width="1" fill="none" fill-rule="evenodd">
        <g id="Group-63" transform="translate(3.000000, 3.000000)">
            <g id="fix_file_ownership_icon">
                <g id="file-(3)" fill-rule="nonzero">
                    <g id="Group-58" fill="#D4D4D4">
                        <polygon id="Shape" points="30 10.7586207 19.9565217 0.620689655 0.586956522 0.620689655 0.586956522 39 30 39"></polygon>
                        <polygon id="Shape" points="19.9565217 0.620689655 19.9565217 10.7586207 30 10.7586207"></polygon>
                    </g>
                    <g id="Group" transform="translate(5.608696, 8.586207)" fill="#757575">
                        <path d="M0.75326087,7.24137931 L19.5847826,7.24137931 C20.0005826,7.24137931 20.3380435,6.91768966 20.3380435,6.51724138 C20.3380435,6.1167931 20.0005826,5.79310345 19.5847826,5.79310345 L0.75326087,5.79310345 C0.33746087,5.79310345 0,6.1167931 0,6.51724138 C0,6.91768966 0.33746087,7.24137931 0.75326087,7.24137931 Z" id="Shape"></path>
                        <path d="M0.75326087,1.44827586 L8.28586957,1.44827586 C8.70166957,1.44827586 9.03913043,1.12458621 9.03913043,0.724137931 C9.03913043,0.323689655 8.70166957,0 8.28586957,0 L0.75326087,0 C0.33746087,0 0,0.323689655 0,0.724137931 C0,1.12458621 0.33746087,1.44827586 0.75326087,1.44827586 Z" id="Shape"></path>
                        <path d="M19.5847826,11.5862069 L0.75326087,11.5862069 C0.33746087,11.5862069 0,11.9098966 0,12.3103448 C0,12.7107931 0.33746087,13.0344828 0.75326087,13.0344828 L19.5847826,13.0344828 C20.0005826,13.0344828 20.3380435,12.7107931 20.3380435,12.3103448 C20.3380435,11.9098966 20.0005826,11.5862069 19.5847826,11.5862069 Z" id="Shape"></path>
                        <path d="M19.5847826,17.3793103 L0.75326087,17.3793103 C0.33746087,17.3793103 0,17.703 0,18.1034483 C0,18.5038966 0.33746087,18.8275862 0.75326087,18.8275862 L19.5847826,18.8275862 C20.0005826,18.8275862 20.3380435,18.5038966 20.3380435,18.1034483 C20.3380435,17.703 20.0005826,17.3793103 19.5847826,17.3793103 Z" id="Shape"></path>
                        <path d="M19.5847826,23.1724138 L0.75326087,23.1724138 C0.33746087,23.1724138 0,23.4961034 0,23.8965517 C0,24.297 0.33746087,24.6206897 0.75326087,24.6206897 L19.5847826,24.6206897 C20.0005826,24.6206897 20.3380435,24.297 20.3380435,23.8965517 C20.3380435,23.4961034 20.0005826,23.1724138 19.5847826,23.1724138 Z" id="Shape"></path>
                    </g>
                </g>
                <g id="Group-34" transform="translate(20.000000, 20.000000)">
                    <circle id="Oval-6" stroke="#FAFAFA" stroke-width="2" cx="11.0350122" cy="10.9850245" r="11.835"></circle>
                    <path d="M17.9431771,19.312729 C17.6953497,18.8000594 17.2965179,18.3647941 16.7799926,18.0827808 L13.6963914,16.3994652 C13.2918304,16.1789657 13.1675074,15.7545123 13.1675074,15.2931998 L13.1675074,14.028604 C13.1675074,14.028604 14.2671801,12.9461742 14.6124851,11.4400282 C14.8986161,11.2549135 15.3350149,10.9346486 15.3350149,10.5694974 L15.3350149,9.18629712 C15.3350149,8.88192261 14.8227455,8.60932886 14.6124851,8.41913574 L14.6124851,6.4191593 C14.6124851,6.4191593 14.8761905,3.03450818 11,3.03450818 C7.27694196,3.03450818 7.38751488,6.4191593 7.38751488,6.4191593 L7.38751488,8.41913574 C7.17725446,8.60932886 6.66498512,8.88192261 6.66498512,9.18629712 L6.66498512,10.5694974 C6.66498512,10.9346486 7.10138393,11.2549954 7.38751488,11.4400282 C7.73290179,12.9461742 8.83249256,14.028604 8.83249256,14.028604 L8.83249256,15.2931998 C8.83249256,15.7545123 8.70825149,16.1789657 8.30360863,16.3994652 L5.22000744,18.0827808 C4.7034003,18.3647941 4.30456845,18.8000594 4.05682292,19.312729 C5.9374628,20.8853853 8.35713542,21.8340574 11,21.8340574 C13.6428646,21.8340574 16.0625372,20.8853853 17.9431771,19.312729 Z" id="Shape" fill="#FFFFFF" fill-rule="nonzero"></path>
                    <path d="M21.8374554,10.9881353 C21.8374554,4.99828076 16.9851786,0.142213135 11,0.142213135 C5.01482143,0.142213135 0.162544643,4.99828076 0.162544643,10.9881353 C0.162544643,14.3323232 1.69280506,17.3004662 4.07049107,19.2888934 C4.31831845,18.787855 4.71133929,18.3604529 5.22000744,18.0828627 L8.30360863,16.3995471 C8.70816964,16.1790476 8.83249256,15.7545942 8.83249256,15.2932817 L8.83249256,14.0286859 C8.83249256,14.0286859 7.73281994,12.9462561 7.38751488,11.4401101 C7.10138393,11.2549954 6.66498512,10.9347305 6.66498512,10.5695793 L6.66498512,9.18637903 C6.66498512,8.88200452 7.17725446,8.60941077 7.38751488,8.41921765 L7.38751488,6.41924121 C7.38751488,6.41924121 7.27694196,3.03459009 11,3.03459009 C14.8761905,3.03459009 14.6124851,6.41924121 14.6124851,6.41924121 L14.6124851,8.41921765 C14.8227455,8.60941077 15.3350149,8.88200452 15.3350149,9.18637903 L15.3350149,10.5695793 C15.3350149,10.9347305 14.8986161,11.2550773 14.6124851,11.4401101 C14.2670982,12.9462561 13.1675074,14.0286859 13.1675074,14.0286859 L13.1675074,15.2932817 C13.1675074,15.7545942 13.2917485,16.1790476 13.6963914,16.3995471 L16.7799926,18.0828627 C17.2886607,18.3605348 17.6816815,18.787855 17.9295089,19.2888934 C20.3071949,17.3004662 21.8374554,14.3323232 21.8374554,10.9881353" id="Shape" fill="#757575" fill-rule="nonzero"></path>
                </g>
            </g>
        </g>
    </g>
</svg>