<?xml version="1.0" encoding="UTF-8"?>
<svg width="48px" height="48px" viewBox="0 0 48 48" version="1.1" xmlns="http://www.w3.org/2000/svg" xmlns:xlink="http://www.w3.org/1999/xlink">
    <!-- Generator: Sketch 55.2 (78181) - https://sketchapp.com -->
    <title>other-password-protect-dirs</title>
    <desc>Created with Sketch.</desc>
    <g id="other-password-protect-dirs" stroke="none" stroke-width="1" fill="none" fill-rule="evenodd">
        <g id="Group-57">
            <g id="Group-10" transform="translate(0.500000, 0.500000)">
                <g id="password_protected_directories_icon">
                    <g id="file_manager_icon" fill-rule="nonzero">
                        <path d="M37.942829,8.27525924 C37.942829,6.46421576 36.4580775,4.98253768 34.6434851,4.98253768 L24.7453598,4.98253768 L20.6211332,0.0433620936 L5.77389861,0.0433620936 C4.37165408,0.0433620936 3.29934394,1.19586127 3.29934394,2.51294989 L3.29934394,8.27525924 L37.942829,8.27525924 Z" id="Shape" fill="#A86A3F"></path>
                        <path d="M42.8918449,10.7447538 L42.8918449,35.4404452 C42.8918449,36.8398752 41.8195348,37.910033 40.4172903,37.910033 L2.47455467,37.910033 C1.07231014,37.910033 0,36.8398752 0,35.4404452 L0,10.7447538 C0,9.34532381 1.07231014,8.27516599 2.47455467,8.27516599 L40.4173837,8.27516599 C41.7371213,8.27516599 42.8918449,9.42766516 42.8918449,10.7447538" id="Shape" fill="#C47E4D"></path>
                        <path d="M43.7167276,11.5679808 C45.778841,11.5679808 47.346006,13.5436137 46.9336581,15.5192467 L42.8919384,34.6172182 L42.8919384,11.5679808 L43.7167276,11.5679808 Z" id="Shape" fill="#A86A3F"></path>
                    </g>
                    <g id="Group-5" transform="translate(29.000000, 24.799988)">
                        <path d="M15.2082767,6.0763477 L15.2082767,10.7377648 L13.0928959,10.7377648 L13.0928959,6.0763477 C13.0928959,5.02956903 12.6936313,4.04598977 11.9684609,3.30661797 C11.2438919,2.56601899 10.2800046,2.1592111 9.25418322,2.1592111 C7.13699849,2.1592111 5.41486925,3.91590942 5.41486925,6.0763477 L5.41486925,10.7377648 L3.29948844,10.7377648 L3.29948844,6.0763477 C3.29948844,2.72616508 5.97107371,0 9.25418322,0 C10.8452286,0 12.3406669,0.632607743 13.4645006,1.78001461 C14.5895368,2.92742148 15.2082767,4.45279766 15.2082767,6.0763477 Z" id="Shape" fill="#4A4A4A" fill-rule="nonzero"></path>
                        <rect id="Combined-Shape" fill="#8BC34A" x="0.5625" y="7.64207699" width="17.4146341" height="14.2702703" rx="1.22222222"></rect>
                        <path d="M16.2082767,6.64207699 L16.7549119,6.64207699 C17.9822114,6.64207699 18.9771341,7.63699977 18.9771341,8.86429922 L18.9771341,20.690125 C18.9771341,21.9174245 17.9822114,22.9123473 16.7549119,22.9123473 L1.78472222,22.9123473 C0.557422778,22.9123473 -0.4375,21.9174245 -0.4375,20.690125 L-0.4375,8.86429922 C-0.4375,7.63699977 0.557422778,6.64207699 1.78472222,6.64207699 L2.29948844,6.64207699 L2.29948844,6.0763477 C2.29948844,2.17835631 5.41421173,-1 9.25418322,-1 C11.1144959,-1 12.8672852,-0.25885037 14.1785337,1.07990273 C15.4872034,2.41459448 16.2082767,4.1914624 16.2082767,6.0763477 L16.2082767,6.64207699 Z M12.0928959,6.64207699 L12.0928959,6.0763477 C12.0928959,5.29059788 11.7957575,4.55866075 11.2536607,4.00594667 C10.7172134,3.45763132 10.0109797,3.1592111 9.25418322,3.1592111 C7.69369652,3.1592111 6.41486925,4.4638823 6.41486925,6.0763477 L6.41486925,6.64207699 L12.0928959,6.64207699 Z" id="Combined-Shape" stroke="#FAFAFA" stroke-width="2" fill-rule="nonzero"></path>
                        <path d="M10.0899931,15.2382761 L10.8885223,17.4011687 L7.61984409,17.4011687 L8.41777199,15.2382761 C7.99024619,14.9572535 7.70703289,14.4676114 7.70703289,13.9104748 C7.70703289,13.0385683 8.39973292,12.3317166 9.25418322,12.3317166 C10.1080322,12.3317166 10.8007322,13.0385683 10.8007322,13.9104748 C10.8007322,14.4676114 10.5175189,14.9572535 10.0899931,15.2382761 Z" id="Shape" fill="#FFFFFF" fill-rule="nonzero"></path>
                        <ellipse id="Oval-8" fill="#FAFAFA" cx="9.5" cy="5" rx="2.5" ry="2"></ellipse>
                    </g>
                </g>
            </g>
        </g>
    </g>
</svg>