<?xml version="1.0" encoding="UTF-8"?>
<svg width="48px" height="48px" viewBox="0 0 48 48" version="1.1" xmlns="http://www.w3.org/2000/svg" xmlns:xlink="http://www.w3.org/1999/xlink">
    <!-- Generator: Sketch 55.2 (78181) - https://sketchapp.com -->
    <title>other-hotlink-protection</title>
    <desc>Created with Sketch.</desc>
    <defs>
        <path d="M41.9181287,25.5395282 L0,25.5395282 L0,2.55249798 C0,1.14270968 1.13178947,0 2.52810526,0 L39.3900234,0 C40.7863392,0 41.9181287,1.14270968 41.9181287,2.55249798 L41.9181287,25.5395282 Z" id="path-1"></path>
    </defs>
    <g id="other-hotlink-protection" stroke="none" stroke-width="1" fill="none" fill-rule="evenodd">
        <g id="Group-61" transform="translate(3.000000, 3.000000)">
            <g id="hotlink_protection_icon" transform="translate(0.000000, 0.500000)">
                <g id="error_pages_icon">
                    <g id="statistics_icon">
                        <g id="website_builder_icon-copy-3">
                            <g id="coding-(1)">
                                <path d="M28.7456842,38.0129516 L13.1730994,38.0129516 C13.0112398,38.0129516 12.9476257,37.7889395 13.0834503,37.6940444 L14.3872515,36.7651794 C15.7951111,35.7625806 16.4600702,33.9259294 16.0494854,32.1753286 L25.8698713,32.1753286 L25.8691345,32.1768165 C25.4593684,33.9273347 26.1249825,35.7647298 27.5328421,36.7666673 L28.8359064,37.694127 C28.9711579,37.7896835 28.9075439,38.0129516 28.7456842,38.0129516" id="Shape" fill="#D4D4D4" fill-rule="nonzero"></path>
                                <path d="M39.3900234,32.1753286 L2.52884211,32.1753286 C1.13252632,32.1753286 0,31.032619 0,29.6228306 L0,2.62102419 C0,1.21123589 1.13252632,0.0685262097 2.52884211,0.0685262097 L39.3900234,0.0685262097 C40.7863392,0.0685262097 41.9181287,1.21123589 41.9181287,2.62102419 L41.9181287,29.6228306 C41.9181287,31.032619 40.7863392,32.1753286 39.3900234,32.1753286" id="Shape" fill="#EFEFEF" fill-rule="nonzero"></path>
                                <g id="settings">
                                    <g id="Rectangle-path">
                                        <mask id="mask-2" fill="white">
                                            <use xlink:href="#path-1"></use>
                                        </mask>
                                        <use id="Mask" fill="#4A4A4A" fill-rule="nonzero" xlink:href="#path-1"></use>
                                        <polygon fill="#4A4A4A" fill-rule="nonzero" mask="url(#mask-2)" points="0 0 42.0249572 0 42.0249572 2.67317056 0 2.67317056"></polygon>
                                    </g>
                                </g>
                                <path d="M28.909345,40.9317218 L13.0093567,40.9317218 C12.2107836,40.9317218 11.5639181,40.2786149 11.5639181,39.4723367 C11.5639181,38.6660585 12.2107836,38.0129516 13.0093567,38.0129516 L28.909345,38.0129516 C29.7079181,38.0129516 30.3547836,38.6660585 30.3547836,39.4723367 C30.3547836,40.2786149 29.7079181,40.9317218 28.909345,40.9317218" id="Shape" fill="#EFEFEF" fill-rule="nonzero"></path>
                            </g>
                        </g>
                    </g>
                    <g id="browser-(3)" transform="translate(2.000000, 0.000000)" fill="#ECF0F1" fill-rule="nonzero">
                        <circle id="Oval" cx="1.33658528" cy="1.33658528" r="1"></circle>
                        <circle id="Oval" cx="3.3414632" cy="1.33658528" r="1"></circle>
                        <circle id="Oval" cx="5.34634112" cy="1.33658528" r="1"></circle>
                    </g>
                </g>
                <g id="Group-5" transform="translate(24.000000, 19.000000)">
                    <path d="M15.2082767,6.0763477 L15.2082767,10.7377648 L13.0928959,10.7377648 L13.0928959,6.0763477 C13.0928959,5.02956903 12.6936313,4.04598977 11.9684609,3.30661797 C11.2438919,2.56601899 10.2800046,2.1592111 9.25418322,2.1592111 C7.13699849,2.1592111 5.41486925,3.91590942 5.41486925,6.0763477 L5.41486925,10.7377648 L3.29948844,10.7377648 L3.29948844,6.0763477 C3.29948844,2.72616508 5.97107371,0 9.25418322,0 C10.8452286,0 12.3406669,0.632607743 13.4645006,1.78001461 C14.5895368,2.92742148 15.2082767,4.45279766 15.2082767,6.0763477 Z" id="Shape" fill="#4A4A4A" fill-rule="nonzero"></path>
                    <rect id="Combined-Shape" fill="#8BC34A" x="0.5625" y="7.64207699" width="17.4146341" height="14.2702703" rx="1.22222222"></rect>
                    <path d="M16.2082767,6.64207699 L16.7549119,6.64207699 C17.9822114,6.64207699 18.9771341,7.63699977 18.9771341,8.86429922 L18.9771341,20.690125 C18.9771341,21.9174245 17.9822114,22.9123473 16.7549119,22.9123473 L1.78472222,22.9123473 C0.557422778,22.9123473 -0.4375,21.9174245 -0.4375,20.690125 L-0.4375,8.86429922 C-0.4375,7.63699977 0.557422778,6.64207699 1.78472222,6.64207699 L2.29948844,6.64207699 L2.29948844,6.0763477 C2.29948844,2.17835631 5.41421173,-1 9.25418322,-1 C11.1144959,-1 12.8672852,-0.25885037 14.1785337,1.07990273 C15.4872034,2.41459448 16.2082767,4.1914624 16.2082767,6.0763477 L16.2082767,6.64207699 Z M12.0928959,6.64207699 L12.0928959,6.0763477 C12.0928959,5.29059788 11.7957575,4.55866075 11.2536607,4.00594667 C10.7172134,3.45763132 10.0109797,3.1592111 9.25418322,3.1592111 C7.69369652,3.1592111 6.41486925,4.4638823 6.41486925,6.0763477 L6.41486925,6.64207699 L12.0928959,6.64207699 Z" id="Combined-Shape" stroke="#FAFAFA" stroke-width="2" fill-rule="nonzero"></path>
                    <path d="M10.0899931,15.2382761 L10.8885223,17.4011687 L7.61984409,17.4011687 L8.41777199,15.2382761 C7.99024619,14.9572535 7.70703289,14.4676114 7.70703289,13.9104748 C7.70703289,13.0385683 8.39973292,12.3317166 9.25418322,12.3317166 C10.1080322,12.3317166 10.8007322,13.0385683 10.8007322,13.9104748 C10.8007322,14.4676114 10.5175189,14.9572535 10.0899931,15.2382761 Z" id="Shape" fill="#FFFFFF" fill-rule="nonzero"></path>
                    <ellipse id="Oval-8" fill="#FAFAFA" cx="9.5" cy="5" rx="2.5" ry="2"></ellipse>
                </g>
                <g id="link" transform="translate(14.000000, 7.000000)" fill-rule="nonzero">
                    <path d="M13.0153696,0.961160156 C14.29193,2.24240625 14.29193,4.31995703 13.0153696,5.60150391 L10.3221673,8.30552734 C9.95958366,8.66952734 9.53323735,8.92983984 9.07902724,9.08706641 C8.38817899,9.32613281 7.63359533,9.32613281 6.94274708,9.08706641 C6.48850973,8.92983984 6.06219066,8.66952734 5.699607,8.30552734 C5.33732296,7.94152734 5.07772374,7.51351563 4.92108171,7.05753125 L4.97841634,7 C4.92108171,7.05753125 5.98856809,5.96506641 5.98856809,5.96506641 L7.00008171,7 C7.5573035,7.55969922 8.46422568,7.55969922 9.02174708,7 L9.07905447,6.94246875 L11.715249,4.29597656 C12.2724708,3.73657812 12.2724708,2.82611328 11.715249,2.26641406 C11.1577276,1.70701562 10.2508054,1.70701562 9.69358366,2.26641406 L7.05738911,4.91290625 L5.98922179,5.34898437 L4.92108171,4.91287891 C5.0776965,4.45719531 5.33699611,4.02888281 5.69957977,3.66488281 L8.39308171,0.961160156 C9.66964202,-0.320386719 11.7391089,-0.320386719 13.0153696,0.961160156 Z" id="Shape" fill="#FFFFFF"></path>
                    <path d="M7.05736187,4.91287891 C7.51127237,5.07010547 7.93761868,5.33071875 8.30020233,5.69471875 C8.66278599,6.05841797 8.92238521,6.48673047 9.079,6.94241406 L9.02169261,6.99994531 C8.46417121,7.55964453 7.55724903,7.55964453 7.00002724,6.99994531 C6.44250584,6.44054687 5.53558366,6.44054687 4.97836187,6.99994531 L4.92105447,7.05747656 L2.28485992,9.70396875 C1.72733852,10.263668 1.72733852,11.1741328 2.28485992,11.7335312 C2.84208171,12.2932305 3.74900389,12.2932305 4.30652529,11.7335312 L6.94271984,9.08703906 C7.63356809,9.32610547 8.38815175,9.32610547 9.079,9.08703906 C8.92238521,9.54305078 8.66278599,9.97103516 8.30020233,10.3350352 L5.607,13.0390586 C4.33043969,14.3203047 2.26097276,14.3203047 0.984412451,13.0390586 C-0.291848249,11.7575117 -0.291848249,9.67996094 0.984412451,8.39841406 L3.6779144,5.69469141 C4.04049805,5.33069141 4.46684436,5.07007812 4.92105447,4.91285156 C5.61192996,4.67383984 6.36651362,4.67383984 7.05736187,4.91287891 Z" id="Shape" fill="#C9C9C9"></path>
                </g>
            </g>
        </g>
    </g>
</svg>