<?xml version="1.0" encoding="UTF-8"?>
<svg width="48px" height="48px" viewBox="0 0 48 48" version="1.1" xmlns="http://www.w3.org/2000/svg" xmlns:xlink="http://www.w3.org/1999/xlink">
    <!-- Generator: Sketch 55.2 (78181) - https://sketchapp.com -->
    <title>other-ip-deny</title>
    <desc>Created with Sketch.</desc>
    <g id="other-ip-deny" stroke="none" stroke-width="1" fill="none" fill-rule="evenodd">
        <g id="Group-60" transform="translate(3.000000, 0.000000)">
            <g id="ip_deny_manager_icon" transform="translate(0.500000, 0.000000)">
                <g id="Group" transform="translate(0.000000, 16.163265)" fill="#D4D4D4" fill-rule="nonzero">
                    <path d="M9.65381328,26.8036531 L2.43460264,26.8036531 C1.10785188,26.8036531 0.028168806,25.712449 0.028168806,24.3715408 L0.028168806,17.0752959 C0.028168806,15.7343878 1.10785188,14.6431837 2.43460264,14.6431837 L35.3222288,14.6431837 C35.7650243,14.6431837 36.1244037,14.2799694 36.1244037,13.832449 L36.1244037,2.48271429 C36.1244037,2.03519388 35.7650243,1.67197959 35.3222288,1.67197959 L31.3115361,1.67197959 C30.8679228,1.67197959 30.5093612,1.30959184 30.5093612,0.861244898 C30.5093612,0.412897959 30.8679228,0.0505102041 31.3115361,0.0505102041 L35.3222288,0.0505102041 C36.6489796,0.0505102041 37.7286627,1.14171429 37.7286627,2.48262245 L37.7286627,13.8323571 C37.7286627,15.1732653 36.6489796,16.2644694 35.3222288,16.2644694 L2.43460264,16.2644694 C1.99180718,16.2644694 1.63242774,16.6276837 1.63242774,17.0752041 L1.63242774,24.371449 C1.63242774,24.8189694 1.99180718,25.1821837 2.43460264,25.1821837 L9.65381328,25.1821837 C10.0974265,25.1821837 10.4559882,25.5445714 10.4559882,25.9929184 C10.4559882,26.4412653 10.0974265,26.8036531 9.65381328,26.8036531" id="Shape"></path>
                </g>
                <path d="M31.3115361,17.8353367 L4.03886158,17.8353367 L4.03886158,1.62137755 C4.03886158,0.726428571 4.75762046,0 5.64312051,0 L29.7072771,0 C30.592868,0 31.3115361,0.726428571 31.3115361,1.62137755 L31.3115361,17.8353367 Z" id="Shape" fill="#4A4A4A" fill-rule="nonzero"></path>
                <g id="Group" transform="translate(12.272109, 3.358601)">
                    <ellipse id="Oval-10-Copy" fill="#F14235" cx="5.57823129" cy="5.59766764" rx="5.57823129" ry="5.59766764"></ellipse>
                    <rect id="Rectangle-17-Copy" fill="#FFFFFF" x="2.78911565" y="5.03790087" width="5.57823129" height="1.11953353"></rect>
                </g>
                <path d="M29.7072771,21.0780918 L5.64312051,21.0780918 C4.7575296,21.0780918 4.03886158,20.3516633 4.03886158,19.4567143 L4.03886158,17.8353367 L31.3115361,17.8353367 L31.3115361,19.4567143 C31.3115361,20.3517551 30.592868,21.0780918 29.7072771,21.0780918" id="Shape" fill="#EFEFEF" fill-rule="nonzero"></path>
                <path d="M23.9724717,25.9423163 L11.3869218,25.9423163 C10.6465365,25.9423163 10.2045589,25.1080714 10.6152782,24.4846837 L12.8620585,21.0780918 L22.487703,21.0780918 L24.7401171,24.4919388 C25.1492008,25.1121122 24.7096766,25.9423163 23.9724717,25.9423163" id="Shape" fill="#D4D4D4" fill-rule="nonzero"></path>
                <g id="Group-56" transform="translate(8.925170, 36.944606)" fill-rule="nonzero">
                    <path d="M28.8034926,10.0758017 L3.13507705,10.0758017 C1.80596374,10.0758017 0.728643211,8.98707726 0.728643211,7.6436895 L0.728643211,2.77946501 C0.728643211,1.4361691 1.80587287,0.34735277 3.13507705,0.34735277 L28.8034926,0.34735277 C30.1326059,0.34735277 31.2099264,1.43607726 31.2099264,2.77946501 L31.2099264,7.6436895 C31.2099264,8.98707726 30.1326059,10.0758017 28.8034926,10.0758017" id="Shape" fill="#4A4A4A"></path>
                    <path d="M12.7607215,6.83304665 L11.1564626,6.83304665 C10.7128493,6.83304665 10.3542877,6.47065889 10.3542877,6.02231195 L10.3542877,4.4009344 C10.3542877,3.95258746 10.7128493,3.59019971 11.1564626,3.59019971 L12.7607215,3.59019971 C13.2043348,3.59019971 13.5628964,3.95258746 13.5628964,4.4009344 L13.5628964,6.02231195 C13.5628964,6.47065889 13.2043348,6.83304665 12.7607215,6.83304665" id="Shape" fill="#ECF0F1"></path>
                    <path d="M6.34359491,6.83304665 L4.73933598,6.83304665 C4.29572272,6.83304665 3.93716108,6.47065889 3.93716108,6.02231195 L3.93716108,4.4009344 C3.93716108,3.95258746 4.29572272,3.59019971 4.73933598,3.59019971 L6.34359491,3.59019971 C6.78720818,3.59019971 7.14576982,3.95258746 7.14576982,4.4009344 L7.14576982,6.02231195 C7.14576982,6.47065889 6.78720818,6.83304665 6.34359491,6.83304665" id="Shape" fill="#F14235"></path>
                    <path d="M27.1992337,6.02231195 L16.7714143,6.02231195 C16.327801,6.02231195 15.9692394,5.6599242 15.9692394,5.21157726 C15.9692394,4.76323032 16.327801,4.40084257 16.7714143,4.40084257 L27.1992337,4.40084257 C27.6428469,4.40084257 28.0014086,4.76323032 28.0014086,5.21157726 C28.0014086,5.6599242 27.6427561,6.02231195 27.1992337,6.02231195" id="Shape" fill="#ECF0F1"></path>
                </g>
            </g>
        </g>
    </g>
</svg>