<?xml version="1.0" encoding="UTF-8"?>
<svg width="48px" height="48px" viewBox="0 0 48 48" version="1.1" xmlns="http://www.w3.org/2000/svg" xmlns:xlink="http://www.w3.org/1999/xlink">
    <!-- Generator: Sketch 55.2 (78181) - https://sketchapp.com -->
    <title>other-folder-index-manager</title>
    <desc>Created with Sketch.</desc>
    <g id="other-folder-index-manager" stroke="none" stroke-width="1" fill="none" fill-rule="evenodd">
        <g id="Group-62" transform="translate(3.000000, 3.000000)">
            <g id="folder_index_manager_icon">
                <g id="password_protected_directories_icon" fill-rule="nonzero">
                    <g id="file_manager_icon">
                        <path d="M33.9063579,7.41325307 C33.9063579,5.79085995 32.5795586,4.46352334 30.958008,4.46352334 L22.1128748,4.46352334 L18.4273956,0.0388452088 L5.15965408,0.0388452088 C3.90658449,0.0388452088 2.9483499,1.07129238 2.9483499,2.25118428 L2.9483499,7.41325307 L33.9063579,7.41325307 Z" id="Shape" fill="#A86A3F"></path>
                        <path d="M38.3288827,9.6255086 L38.3288827,31.7487322 C38.3288827,33.0023882 37.3706481,33.9610713 36.1175785,33.9610713 L2.21130417,33.9610713 C0.958234592,33.9610713 0,33.0023882 0,31.7487322 L0,9.6255086 C0,8.37185258 0.958234592,7.41316953 2.21130417,7.41316953 L36.117662,7.41316953 C37.297002,7.41316953 38.3288827,8.44561671 38.3288827,9.6255086" id="Shape" fill="#C47E4D"></path>
                        <path d="M39.1757719,27 L38.3289662,27 L38.3289662,10.3629828 L39.0660119,10.3629828 C40.9087515,10.3629828 42.3091968,12.1328206 41.9407157,13.9026585 L39.1757719,27 Z M38.3313428,31 L38.3289662,31.011258 L38.3289662,31 L38.3313428,31 Z" id="Combined-Shape" fill="#A86A3F"></path>
                    </g>
                </g>
                <g id="mysql_databases-copy-2" transform="translate(20.000000, 20.000000)">
                    <circle id="Oval-5" fill="#FAFAFA" cx="10.8160535" cy="10.8160535" r="4.63545151"></circle>
                    <path d="M10.9535719,13.4100736 C12.309548,13.4100736 13.4100736,12.309548 13.4100736,10.9535719 C13.4100736,10.9271072 13.4063691,10.8885378 13.3945999,10.8028578 C13.3926877,10.7889789 13.3926877,10.7889789 13.3906451,10.7742387 C13.3846058,10.7306639 13.3846058,10.7306639 13.3766412,10.6692988 C13.2728451,9.7799298 12.7073639,9.02585383 11.9051604,8.6875618 C11.605708,8.56147658 11.2842637,8.49552508 10.9535719,8.49552508 C9.59742597,8.49552508 8.49707023,9.59622055 8.49707023,10.9535719 C8.49707023,11.283825 8.56256867,11.6052114 8.68787225,11.9028082 C9.02398702,12.7028716 9.77636437,13.270039 10.6443039,13.3750888 C10.7012834,13.3812725 10.7012834,13.3812725 10.7505595,13.3874559 C10.7782951,13.3910321 10.7782951,13.3910321 10.8033058,13.394324 C10.8984918,13.4068462 10.9315693,13.4100736 10.9535719,13.4100736 Z M15.1639798,2.63860288 C15.4834678,2.63336799 15.7920934,2.53737903 16.0715954,2.34706529 L17.1866967,1.59333949 L17.8736513,1.16399289 L20.8073658,4.09770744 L20.3000237,4.78953758 L19.4842342,5.90197785 C18.7549869,6.89658199 19.3093689,8.31055981 20.5190048,8.54396434 L20.5182629,8.54382148 L22.632107,8.95004063 L22.632107,13.128694 L21.7850871,13.2598146 L20.4157597,13.4717877 C19.201756,13.6573679 18.5934295,15.0518862 19.2826373,16.0687825 L20.4918207,17.8499447 L17.5336636,20.8081018 L16.8416035,20.2993144 L16.0619423,19.7261202 C15.7606764,19.5058911 15.4228614,19.3965619 15.0760334,19.3965619 C14.2528821,19.3965619 13.5381026,19.9841227 13.4084199,20.8237884 L13.131785,22.632107 L8.95004063,22.632107 L8.79413586,21.8208248 L8.54398429,20.5191082 C8.38799891,19.7111599 7.68639098,19.1555184 6.88673579,19.1555184 C6.53924226,19.1555184 6.20111028,19.2644584 5.90378499,19.4824969 L4.09785506,20.8075134 L1.14028632,17.8499447 L1.60470715,17.1658393 L2.34975361,16.0683645 C2.5375464,15.7920408 2.62614487,15.4740441 2.62191346,15.1196396 C2.6150455,14.5790325 2.35374115,14.0755949 1.91491718,13.7657111 C1.69355481,13.6078978 1.46338471,13.5098623 1.21447807,13.4715002 L-1,13.128694 L-1,8.94901626 L-0.187522425,8.7939069 L0.150793426,8.72932071 L1.1131022,8.54396434 C2.32273813,8.31055981 2.87712008,6.89658199 2.14817166,5.9023852 L1.56323054,5.10543976 L0.824543352,4.0959006 L1.43255125,3.48989933 L1.89956212,3.02443168 L3.79649785,1.12749595 L4.48583351,1.61987857 L4.47577589,1.61309169 L5.88036261,2.56338964 C6.02780401,2.66315538 6.19333262,2.73609216 6.39062883,2.78980058 C6.55610564,2.83482828 6.69753048,2.85669565 6.81565886,2.85669565 C7.41471049,2.85669565 7.98238278,2.51539078 8.27843261,1.96863061 C8.38693012,1.76636983 8.44426949,1.62367796 8.46980814,1.49160695 L8.95072492,-1 L13.1311968,-1 L13.2615279,-0.151889334 L13.4718164,1.21653521 C13.5078178,1.45234407 13.5975693,1.67420971 13.7402376,1.8866376 C14.0471059,2.34694013 14.5659106,2.62905513 15.0992107,2.63573913 C15.1268725,2.63694303 15.147766,2.63785236 15.1639798,2.63860288 Z" id="Fill-15" stroke="#FAFAFA" stroke-width="2" fill="#757575"></path>
                </g>
            </g>
        </g>
    </g>
</svg>