<?xml version="1.0" encoding="UTF-8"?>
<svg width="48px" height="48px" viewBox="0 0 48 48" version="1.1" xmlns="http://www.w3.org/2000/svg" xmlns:xlink="http://www.w3.org/1999/xlink">
    <!-- Generator: Sketch 55.2 (78181) - https://sketchapp.com -->
    <title>other-reload-account</title>
    <desc>Created with Sketch.</desc>
    <g id="other-reload-account" stroke="none" stroke-width="1" fill="none" fill-rule="evenodd">
        <g id="Group-44" transform="translate(3.000000, 3.000000)" fill-rule="nonzero">
            <circle id="Combined-Shape" fill="#0091EA" cx="21" cy="21" r="21"></circle>
            <g id="refresh" transform="translate(9.947368, 6.631579)" fill="#FFFFFF">
                <path d="M0.109083413,15.3507304 C-0.0640648619,13.8321168 0.0802253676,12.3660706 0.472694792,11.011 C1.77707847,6.50772657 5.86914937,3.19598074 10.7230727,3.13757253 L10.7230727,0.19379846 C10.7230727,0.0302554557 10.925079,-0.0573568678 11.057826,0.0419370988 L17.0429847,4.49264313 C17.1411021,4.56857381 17.1411021,4.72043517 17.0429847,4.79052503 L11.0635976,9.24123107 C10.925079,9.34052503 10.7288443,9.25291271 10.7288443,9.0893697 L10.7288443,6.15143646 C7.53714443,6.20400385 4.81294489,8.19572401 3.64130823,11.011 C3.19689432,12.0740295 2.97180157,13.2480347 3.03528927,14.480448 C3.12186341,16.1742863 3.75096881,17.7337856 4.74368558,18.9954031 C5.27467363,19.6670976 5.14769823,20.6483556 4.46087673,21.1565071 C3.8086849,21.6412953 2.89677065,21.5069564 2.39464065,20.864466 C1.16528789,19.3108074 0.34571939,17.4183813 0.109083413,15.3507304 Z M17.3892813,9.69681515 C18.3877697,10.9525918 19.0168751,12.517932 19.0976776,14.2117702 C19.1611653,15.4500244 18.9303009,16.6240295 18.4916587,17.6812182 C17.320022,20.4964942 14.5958225,22.4940552 11.4041226,22.5407818 L11.4041226,19.6028485 C11.4041226,19.4393055 11.2021163,19.3516932 11.0693692,19.4509872 L5.08421053,23.9016932 C4.98609317,23.9776239 4.98609317,24.1294852 5.08421053,24.1995751 L11.0635976,28.6502811 C11.2021163,28.7495751 11.398351,28.6619628 11.398351,28.4984198 L11.398351,25.5546457 C16.2522743,25.5020783 20.3501168,22.1903325 21.6487289,17.6812182 C22.0411983,16.3261476 22.1797169,14.8601014 22.0123403,13.3414878 C21.7814759,11.273837 20.9619074,9.38141078 19.7325546,7.82775225 C19.224653,7.18526187 18.3185104,7.05092298 17.6663185,7.53571117 C16.9852687,8.04386264 16.8582933,9.02512067 17.3892813,9.69681515 Z" id="Shape"></path>
            </g>
        </g>
    </g>
</svg>