<?xml version="1.0" encoding="UTF-8"?>
<svg width="42px" height="42px" viewBox="0 0 42 42" version="1.1" xmlns="http://www.w3.org/2000/svg" xmlns:xlink="http://www.w3.org/1999/xlink">
    <!-- Generator: Sketch 55.1 (78136) - https://sketchapp.com -->
    <title>seo-icon</title>
    <desc>Created with Sketch.</desc>
    <g id="Page-1" stroke="none" stroke-width="1" fill="none" fill-rule="evenodd">
        <g id="Artboard-Copy" transform="translate(-943.000000, -860.000000)">
            <g id="seo-icon" transform="translate(943.000000, 860.000000)">
                <circle id="bg" fill="#4A4A4A" cx="21" cy="21" r="21"></circle>
                <polygon id="arrow" fill="#FFFFFF" fill-rule="nonzero" points="16 12 17.7929688 13.7929688 12 19.585938 13.4140625 21 19.207031 15.2070312 21 17 21 12"></polygon>
                <path d="M27,12 L30,12 L30,30 L27,30 L27,12 Z M22,20 L25,20 L25,30 L22,30 L22,20 Z M17,24 L20,24 L20,30 L17,30 L17,24 Z M12,26 L15,26 L15,30 L12,30 L12,26 Z" id="diagram" fill="#DE5040" fill-rule="nonzero"></path>
            </g>
        </g>
    </g>
</svg>