<?xml version="1.0" encoding="UTF-8"?>
<svg width="48px" height="48px" viewBox="0 0 48 48" version="1.1" xmlns="http://www.w3.org/2000/svg" xmlns:xlink="http://www.w3.org/1999/xlink">
    <!-- Generator: Sketch 55.2 (78181) - https://sketchapp.com -->
    <title>website-zyro-builder</title>
    <desc>Created with Sketch.</desc>
    <g id="website-zyro-builder" stroke="none" stroke-width="1" fill="none" fill-rule="evenodd">
        <g id="website_builder_icon" transform="translate(3.000000, 3.000000)" fill-rule="nonzero">
            <g id="coding-(1)">
                <path d="M28.7456842,38.0129516 L13.1730994,38.0129516 C13.0112398,38.0129516 12.9476257,37.7889395 13.0834503,37.6940444 L14.3872515,36.7651794 C15.7951111,35.7625806 16.4600702,33.9259294 16.0494854,32.1753286 L25.8698713,32.1753286 L25.8691345,32.1768165 C25.4593684,33.9273347 26.1249825,35.7647298 27.5328421,36.7666673 L28.8359064,37.694127 C28.9711579,37.7896835 28.9075439,38.0129516 28.7456842,38.0129516" id="Shape" fill="#D4D4D4"></path>
                <path d="M39.3900234,32.1753286 L2.52884211,32.1753286 C1.13252632,32.1753286 0,31.032619 0,29.6228306 L0,2.62102419 C0,1.21123589 1.13252632,0.0685262097 2.52884211,0.0685262097 L39.3900234,0.0685262097 C40.7863392,0.0685262097 41.9181287,1.21123589 41.9181287,2.62102419 L41.9181287,29.6228306 C41.9181287,31.032619 40.7863392,32.1753286 39.3900234,32.1753286" id="Shape" fill="#EFEFEF"></path>
                <path d="M41.9181287,25.5395282 L0,25.5395282 L0,2.55249798 C0,1.14270968 1.13178947,0 2.52810526,0 L39.3900234,0 C40.7863392,0 41.9181287,1.14270968 41.9181287,2.55249798 L41.9181287,25.5395282 Z" id="Shape" fill="#9460C1"></path>
                <path d="M28.909345,40.9317218 L13.0093567,40.9317218 C12.2107836,40.9317218 11.5639181,40.2786149 11.5639181,39.4723367 C11.5639181,38.6660585 12.2107836,38.0129516 13.0093567,38.0129516 L28.909345,38.0129516 C29.7079181,38.0129516 30.3547836,38.6660585 30.3547836,39.4723367 C30.3547836,40.2786149 29.7079181,40.9317218 28.909345,40.9317218" id="Shape" fill="#EFEFEF"></path>
            </g>
            <g id="artistic-brush" transform="translate(11.000000, 4.000000)" fill="#FFFFFF">
                <path d="M7.621,9.18765974 C7.254,9.59165974 7.164,9.88165974 6.683,10.6416597 C6.994,10.8586597 7.591,11.3596597 8.005,12.2226597 C8.832,11.7476597 9.218,11.6756597 9.656,11.3066597 C12.518,8.89665974 19.526,0.257659745 19.285,0.00765974456 C19.032,-0.257340255 10.141,6.42365974 7.621,9.18765974 Z M5.857,11.3126597 C4.614,11.0926597 3.387,11.8786597 2.568,13.8426597 C1.748,15.8066597 0.284,16.5926597 0,16.5446597 C1.528,17.0976597 6.188,18.5116597 7.346,13.1286597 C6.854,11.8376597 5.857,11.3126597 5.857,11.3126597 Z" id="Shape"></path>
            </g>
        </g>
    </g>
</svg>