<?xml version="1.0" encoding="UTF-8"?>
<svg width="48px" height="48px" viewBox="0 0 48 48" version="1.1" xmlns="http://www.w3.org/2000/svg" xmlns:xlink="http://www.w3.org/1999/xlink">
    <!-- Generator: Sketch 55.2 (78181) - https://sketchapp.com -->
    <title>website-import</title>
    <desc>Created with Sketch.</desc>
    <defs>
        <path d="M41.9181287,25.5395282 L0,25.5395282 L0,2.55249798 C0,1.14270968 1.13178947,0 2.52810526,0 L39.3900234,0 C40.7863392,0 41.9181287,1.14270968 41.9181287,2.55249798 L41.9181287,25.5395282 Z" id="path-1"></path>
    </defs>
    <g id="website-import" stroke="none" stroke-width="1" fill="none" fill-rule="evenodd">
        <g id="Group-8" transform="translate(3.000000, 3.000000)">
            <g id="import_website_icon">
                <g id="coding-(1)">
                    <path d="M28.7456842,38.0129516 L13.1730994,38.0129516 C13.0112398,38.0129516 12.9476257,37.7889395 13.0834503,37.6940444 L14.3872515,36.7651794 C15.7951111,35.7625806 16.4600702,33.9259294 16.0494854,32.1753286 L25.8698713,32.1753286 L25.8691345,32.1768165 C25.4593684,33.9273347 26.1249825,35.7647298 27.5328421,36.7666673 L28.8359064,37.694127 C28.9711579,37.7896835 28.9075439,38.0129516 28.7456842,38.0129516" id="Shape" fill="#D4D4D4" fill-rule="nonzero"></path>
                    <path d="M39.3900234,32.1753286 L2.52884211,32.1753286 C1.13252632,32.1753286 0,31.032619 0,29.6228306 L0,2.62102419 C0,1.21123589 1.13252632,0.0685262097 2.52884211,0.0685262097 L39.3900234,0.0685262097 C40.7863392,0.0685262097 41.9181287,1.21123589 41.9181287,2.62102419 L41.9181287,29.6228306 C41.9181287,31.032619 40.7863392,32.1753286 39.3900234,32.1753286" id="Shape" fill="#EFEFEF" fill-rule="nonzero"></path>
                    <g id="settings">
                        <mask id="mask-2" fill="white">
                            <use xlink:href="#path-1"></use>
                        </mask>
                        <use id="Mask" fill="#4A4A4A" fill-rule="nonzero" xlink:href="#path-1"></use>
                    </g>
                    <path d="M28.909345,40.9317218 L13.0093567,40.9317218 C12.2107836,40.9317218 11.5639181,40.2786149 11.5639181,39.4723367 C11.5639181,38.6660585 12.2107836,38.0129516 13.0093567,38.0129516 L28.909345,38.0129516 C29.7079181,38.0129516 30.3547836,38.6660585 30.3547836,39.4723367 C30.3547836,40.2786149 29.7079181,40.9317218 28.909345,40.9317218" id="Shape" fill="#EFEFEF" fill-rule="nonzero"></path>
                </g>
                <g id="Group-25" transform="translate(31.000000, 31.000000) rotate(-90.000000) translate(-31.000000, -31.000000) translate(20.000000, 20.000000)">
                    <ellipse id="Oval" stroke="#FAFAFA" stroke-width="2" fill="#FFFFFF" fill-rule="nonzero" cx="10.979206" cy="10.8605748" rx="11.979206" ry="11.8605748"></ellipse>
                    <path d="M10.979206,21.7211496 C4.91555798,21.7211496 -1.95399252e-14,16.8587046 -1.95399252e-14,10.8605748 C-1.95399252e-14,4.86244496 4.91555798,0 10.979206,0 C17.0428541,0 21.9584121,4.86244496 21.9584121,10.8605748 C21.9584121,16.8587046 17.0428541,21.7211496 10.979206,21.7211496 Z M4.60522284,8.94680897 L4.60522284,12.8514941 L12.506389,12.8514941 L12.506389,8.94680897 L4.60522284,8.94680897 Z M12.506389,6.40027514 L12.506389,11.0689205 L18.5026228,11.0689205 L12.506389,6.40027514 Z M12.506389,15.7375659 L18.5026228,11.0689205 L12.506389,11.0689205 L12.506389,15.7375659 Z" id="Combined-Shape" fill="#8BC34A" fill-rule="nonzero"></path>
                    <g id="Group-30" transform="translate(3.895846, 6.197285)">
                        <g id="Group-29" transform="translate(8.034022, 0.000000)"></g>
                    </g>
                </g>
            </g>
        </g>
    </g>
</svg>