<?xml version="1.0" encoding="UTF-8"?>
<svg width="48px" height="48px" viewBox="0 0 48 48" version="1.1" xmlns="http://www.w3.org/2000/svg" xmlns:xlink="http://www.w3.org/1999/xlink">
    <!-- Generator: Sketch 55.2 (78181) - https://sketchapp.com -->
    <title>website-error-pages</title>
    <desc>Created with Sketch.</desc>
    <defs>
        <path d="M41.9181287,25.5395282 L0,25.5395282 L0,2.55249798 C0,1.14270968 1.13178947,0 2.52810526,0 L39.3900234,0 C40.7863392,0 41.9181287,1.14270968 41.9181287,2.55249798 L41.9181287,25.5395282 Z" id="path-1"></path>
    </defs>
    <g id="website-error-pages" stroke="none" stroke-width="1" fill="none" fill-rule="evenodd">
        <g id="Group-11" transform="translate(3.000000, 3.000000)">
            <g id="error_pages_icon" transform="translate(0.000000, 0.500000)">
                <g id="statistics_icon">
                    <g id="website_builder_icon-copy-3">
                        <g id="coding-(1)">
                            <path d="M28.7456842,38.0129516 L13.1730994,38.0129516 C13.0112398,38.0129516 12.9476257,37.7889395 13.0834503,37.6940444 L14.3872515,36.7651794 C15.7951111,35.7625806 16.4600702,33.9259294 16.0494854,32.1753286 L25.8698713,32.1753286 L25.8691345,32.1768165 C25.4593684,33.9273347 26.1249825,35.7647298 27.5328421,36.7666673 L28.8359064,37.694127 C28.9711579,37.7896835 28.9075439,38.0129516 28.7456842,38.0129516" id="Shape" fill="#D4D4D4" fill-rule="nonzero"></path>
                            <path d="M39.3900234,32.1753286 L2.52884211,32.1753286 C1.13252632,32.1753286 0,31.032619 0,29.6228306 L0,2.62102419 C0,1.21123589 1.13252632,0.0685262097 2.52884211,0.0685262097 L39.3900234,0.0685262097 C40.7863392,0.0685262097 41.9181287,1.21123589 41.9181287,2.62102419 L41.9181287,29.6228306 C41.9181287,31.032619 40.7863392,32.1753286 39.3900234,32.1753286" id="Shape" fill="#EFEFEF" fill-rule="nonzero"></path>
                            <g id="settings">
                                <g id="Rectangle-path">
                                    <mask id="mask-2" fill="white">
                                        <use xlink:href="#path-1"></use>
                                    </mask>
                                    <use id="Mask" fill="#4A4A4A" fill-rule="nonzero" xlink:href="#path-1"></use>
                                    <polygon fill="#4A4A4A" fill-rule="nonzero" mask="url(#mask-2)" points="0 0 42.0249572 0 42.0249572 2.67317056 0 2.67317056"></polygon>
                                </g>
                            </g>
                            <path d="M28.909345,40.9317218 L13.0093567,40.9317218 C12.2107836,40.9317218 11.5639181,40.2786149 11.5639181,39.4723367 C11.5639181,38.6660585 12.2107836,38.0129516 13.0093567,38.0129516 L28.909345,38.0129516 C29.7079181,38.0129516 30.3547836,38.6660585 30.3547836,39.4723367 C30.3547836,40.2786149 29.7079181,40.9317218 28.909345,40.9317218" id="Shape" fill="#EFEFEF" fill-rule="nonzero"></path>
                        </g>
                    </g>
                </g>
                <g id="browser-(3)" transform="translate(2.000000, 0.000000)" fill="#ECF0F1" fill-rule="nonzero">
                    <circle id="Oval" cx="1.33658528" cy="1.33658528" r="1"></circle>
                    <circle id="Oval" cx="3.3414632" cy="1.33658528" r="1"></circle>
                    <circle id="Oval" cx="5.34634112" cy="1.33658528" r="1"></circle>
                </g>
                <g id="Group-8" transform="translate(13.000000, 6.000000)" fill-rule="nonzero">
                    <ellipse id="Oval" fill="#F14235" cx="7.77846175" cy="7.77649618" rx="7.77846175" ry="7.77649618"></ellipse>
                    <path d="M8.49806245,7.58071779 L11.2806912,4.79867628 C11.5341289,4.54529212 11.5341289,4.13572998 11.2806912,3.88234582 C11.0272536,3.62896165 10.617605,3.62896165 10.3641673,3.88234582 L7.58153857,6.66438733 L4.79890982,3.88234582 C4.54547217,3.62896165 4.13582358,3.62896165 3.88238593,3.88234582 C3.62894828,4.13572998 3.62894828,4.54529212 3.88238593,4.79867628 L6.66501468,7.58071779 L3.88238593,10.3627593 C3.62894828,10.6161435 3.62894828,11.0257056 3.88238593,11.2790898 C4.00878067,11.4054578 4.17471427,11.4689659 4.34064788,11.4689659 C4.50658148,11.4689659 4.67251508,11.4054578 4.79890982,11.2790898 L7.58153857,8.49704826 L10.3641673,11.2790898 C10.4905621,11.4054578 10.6564957,11.4689659 10.8224293,11.4689659 C10.9883629,11.4689659 11.1542965,11.4054578 11.2806912,11.2790898 C11.5341289,11.0257056 11.5341289,10.6161435 11.2806912,10.3627593 L8.49806245,7.58071779 Z" id="Shape" fill="#FFFFFF"></path>
                </g>
            </g>
        </g>
    </g>
</svg>