<?xml version="1.0" encoding="UTF-8"?>
<svg width="48px" height="48px" viewBox="0 0 48 48" version="1.1" xmlns="http://www.w3.org/2000/svg" xmlns:xlink="http://www.w3.org/1999/xlink">
    <!-- Generator: Sketch 55.2 (78181) - https://sketchapp.com -->
    <title>website-ppw-buy-visitors</title>
    <desc>Created with Sketch.</desc>
    <defs>
        <path d="M41.9181287,25.5395282 L0,25.5395282 L0,2.55249798 C0,1.14270968 1.13178947,0 2.52810526,0 L39.3900234,0 C40.7863392,0 41.9181287,1.14270968 41.9181287,2.55249798 L41.9181287,25.5395282 Z" id="path-1"></path>
    </defs>
    <g id="website-ppw-buy-visitors" stroke="none" stroke-width="1" fill="none" fill-rule="evenodd">
        <g id="Group-21" transform="translate(3.000000, 3.000000)">
            <g id="promote_website_icon" transform="translate(0.000000, 0.500000)">
                <g id="analyze_website_icon-copy">
                    <g id="statistics_icon-copy-2">
                        <g id="website_builder_icon-copy-3">
                            <g id="Group-39">
                                <g id="coding-(1)">
                                    <path d="M28.7456842,38.0129516 L13.1730994,38.0129516 C13.0112398,38.0129516 12.9476257,37.7889395 13.0834503,37.6940444 L14.3872515,36.7651794 C15.7951111,35.7625806 16.4600702,33.9259294 16.0494854,32.1753286 L25.8698713,32.1753286 L25.8691345,32.1768165 C25.4593684,33.9273347 26.1249825,35.7647298 27.5328421,36.7666673 L28.8359064,37.694127 C28.9711579,37.7896835 28.9075439,38.0129516 28.7456842,38.0129516" id="Shape" fill="#D4D4D4" fill-rule="nonzero"></path>
                                    <path d="M39.3900234,32.1753286 L2.52884211,32.1753286 C1.13252632,32.1753286 0,31.032619 0,29.6228306 L0,2.62102419 C0,1.21123589 1.13252632,0.0685262097 2.52884211,0.0685262097 L39.3900234,0.0685262097 C40.7863392,0.0685262097 41.9181287,1.21123589 41.9181287,2.62102419 L41.9181287,29.6228306 C41.9181287,31.032619 40.7863392,32.1753286 39.3900234,32.1753286" id="Shape" fill="#EFEFEF" fill-rule="nonzero"></path>
                                    <g id="settings">
                                        <g id="Rectangle-path">
                                            <mask id="mask-2" fill="white">
                                                <use xlink:href="#path-1"></use>
                                            </mask>
                                            <use id="Mask" fill="#4A4A4A" fill-rule="nonzero" xlink:href="#path-1"></use>
                                            <polygon fill="#4A4A4A" fill-rule="nonzero" mask="url(#mask-2)" points="0 0 42.0249572 0 42.0249572 2.67317056 0 2.67317056"></polygon>
                                        </g>
                                    </g>
                                    <path d="M29.3454269,40.9187702 L13.4454386,40.9187702 C12.6468655,40.9187702 12,40.2656633 12,39.4593851 C12,38.6531069 12.6468655,38 13.4454386,38 L29.3454269,38 C30.144,38 30.7908655,38.6531069 30.7908655,39.4593851 C30.7908655,40.2656633 30.144,40.9187702 29.3454269,40.9187702" id="Shape" fill="#EFEFEF" fill-rule="nonzero"></path>
                                </g>
                            </g>
                        </g>
                    </g>
                    <g id="browser-(3)-copy-2" transform="translate(2.000000, 0.000000)" fill="#ECF0F1" fill-rule="nonzero">
                        <circle id="Oval" cx="1.33658528" cy="1.33658528" r="1"></circle>
                        <circle id="Oval" cx="3.3414632" cy="1.33658528" r="1"></circle>
                        <circle id="Oval" cx="5.34634112" cy="1.33658528" r="1"></circle>
                    </g>
                </g>
                <g id="megaphone" transform="translate(10.000000, 4.500000)" fill-rule="nonzero">
                    <path d="M7.31674741,12.8826066 L1.45549477,12.8826066 L4.74497329,18.7113857 C4.80478199,18.8507988 5.04401679,18.9623293 5.402869,18.9623293 L9.94833023,18.9623293 C10.3669911,18.9623293 10.6660346,18.7950335 10.6062259,18.5998552 L7.31674741,12.8826066 Z" id="Shape" fill="#F3B807"></path>
                    <ellipse id="Oval" fill="#F3B807" cx="20.184858" cy="8.67761194" rx="2.81514196" ry="2.69402985"></ellipse>
                    <polygon id="Shape" fill="#ECF0F1" points="18.5015773 16.0507463 7.29905363 12.9029851 7.29905363 4.45223881 18.5015773 1.30447761"></polygon>
                    <g id="Group" fill="#D4D4D4">
                        <path d="M19.6624606,0.0567164179 L19.6044164,0.0567164179 C18.9949527,0.0567164179 18.5015773,0.53880597 18.5015773,1.13432836 L18.5015773,16.1925373 C18.5015773,16.7880597 18.9949527,17.2701493 19.6044164,17.2701493 L19.6624606,17.2701493 C20.2719243,17.2701493 20.7652997,16.7880597 20.7652997,16.1925373 L20.7652997,1.13432836 C20.7652997,0.53880597 20.2719243,0.0567164179 19.6624606,0.0567164179 Z" id="Shape"></path>
                        <path d="M1.66876972,4.45223881 C0.740063091,4.45223881 0.014511041,5.18955224 0.014511041,6.06865672 L0.014511041,11.2865672 C0.014511041,12.1940299 0.769085174,12.9029851 1.66876972,12.9029851 L7.29905363,12.9029851 L7.29905363,4.45223881 L1.66876972,4.45223881 Z" id="Shape"></path>
                    </g>
                </g>
            </g>
        </g>
    </g>
</svg>