<?xml version="1.0" encoding="UTF-8"?>
<svg width="64px" height="64px" viewBox="0 0 64 64" version="1.1" xmlns="http://www.w3.org/2000/svg" xmlns:xlink="http://www.w3.org/1999/xlink">
    <!-- Generator: Sketch 55.2 (78181) - https://sketchapp.com -->
    <title>website-learn-to-code</title>
    <desc>Created with Sketch.</desc>
    <g id="website-learn-to-code" stroke="none" stroke-width="1" fill="none" fill-rule="evenodd">
        <path d="M26.1368889,24.9219241 L26.1368889,18.7797921 L33.2706765,18.7797921 C34.6662716,18.7797921 35.6871111,19.039038 36.3318519,19.5575296 C36.9765926,20.0760213 37.3003062,20.8404641 37.3003062,21.8508581 C37.3003062,22.8612521 36.9765926,23.6256949 36.3318519,24.1441866 C35.6871111,24.6626783 34.6662716,24.9219241 33.2706765,24.9219241 L27.2947358,24.9219241 L26.1368889,24.9219241 Z M27.2947358,29.9074208 L33.5917037,29.9074208 C35.0155062,29.9074208 36.083358,30.2264926 36.7966025,30.8646362 C37.5071605,31.5027798 37.8631111,32.3270486 37.8631111,33.3374426 C37.8631111,34.3478366 37.5219358,35.1654581 36.8355556,35.790307 C36.1505185,36.4151559 35.0678914,36.7275804 33.5917037,36.7275804 L26.1368889,36.7275804 L26.1368889,29.9074208 L27.2947358,29.9074208 Z M49.6296296,43.7086053 L32,55.341431 L14.3703704,43.7086053 L14.3703704,29.9074208 L20.6968889,29.9074208 L20.6968889,40.6362098 C20.6968889,40.9286923 20.8043457,41.1812908 21.0192593,41.3940053 C21.2341728,41.6067198 21.4893827,41.7130771 21.7848889,41.7130771 L34.5991111,41.7130771 C36.0229136,41.7130771 37.2788148,41.4671259 38.3668148,40.9752236 C39.4548148,40.4833212 40.3614815,39.8385303 41.0868148,39.0408509 C41.8121481,38.2431714 42.3628642,37.345782 42.738963,36.3486826 C43.1150617,35.3515833 43.3031111,34.3478366 43.3031111,33.3374426 C43.3031111,31.768673 42.9538765,30.4724438 42.2554074,29.4487551 C41.5555951,28.4250665 40.7913086,27.6340343 39.9585185,27.0756587 C40.1465679,26.9693014 40.3950617,26.7698816 40.704,26.4773991 C41.0129383,26.1849166 41.3218765,25.8193135 41.6308148,25.3805898 C41.9397531,24.9418661 42.201679,24.4100798 42.4165926,23.7852308 C42.6315062,23.1603819 42.738963,22.4491177 42.738963,21.6514382 C42.738963,20.8537588 42.5844938,19.9962533 42.2755556,19.0789219 C41.9666173,18.1615905 41.4629136,17.3107324 40.7644444,16.5263476 C40.0659753,15.7419628 39.1391605,15.0905245 37.984,14.5720329 C36.8288395,14.0535412 35.3916049,13.7942954 33.6722963,13.7942954 L21.7848889,13.7942954 C21.4893827,13.7942954 21.2341728,13.9006526 21.0192593,14.1133672 C20.8043457,14.3260817 20.6968889,14.5786802 20.6968889,14.8711627 L20.6968889,24.9219241 L14.3703704,24.9219241 L14.3703704,7.6521634 L49.6296296,7.6521634 L49.6296296,43.7086053 Z M9.33333333,2.66666667 L9.33333333,46.3768431 L32,61.3333333 L54.6666667,46.3768431 L54.6666667,2.66666667 L9.33333333,2.66666667 Z" id="Fill-1" fill="#4A4A4A"></path>
    </g>
</svg>