<?xml version="1.0" encoding="UTF-8"?>
<svg width="48px" height="48px" viewBox="0 0 48 48" version="1.1" xmlns="http://www.w3.org/2000/svg" xmlns:xlink="http://www.w3.org/1999/xlink">
    <!-- Generator: Sketch 55.2 (78181) - https://sketchapp.com -->
    <title>website-ppw-earn-money</title>
    <desc>Created with Sketch.</desc>
    <g id="website-ppw-earn-money" stroke="none" stroke-width="1" fill="none" fill-rule="evenodd">
        <g id="Group-18" transform="translate(6.000000, 5.000000)">
            <g id="Group-24">
                <g id="earn_money_icon">
                    <g id="Group-11-Copy">
                        <g id="wallet-(1)">
                            <g id="Group-6">
                                <path d="M29.8253373,0.0170691057 L0.137985366,12.071565 C0.251363649,12.040748 0.367951456,12.0185813 0.490361189,12.0185813 L9.33962068,12.9454106 L21.9573025,12.9454106 L32.8395216,12.9454106 L31.1070568,12.9454106 L34.3456899,12.9454106 L29.8253373,0.0170691057 Z" id="Shape" fill="#8BC34A" fill-rule="nonzero"></path>
                                <path d="M2,11 L33.9560976,11 C35.0606671,11 35.9560976,11.8954305 35.9560976,13 L35.9560976,35.8780488 C35.9560976,36.9826183 35.0606671,37.8780488 33.9560976,37.8780488 L2,37.8780488 C0.8954305,37.8780488 1.3527075e-16,36.9826183 0,35.8780488 L0,13 C-1.3527075e-16,11.8954305 0.8954305,11 2,11 Z" id="Rectangle-5" fill="#C47E4D"></path>
                            </g>
                        </g>
                    </g>
                    <g id="Group-25" transform="translate(18.000000, 24.000000) rotate(-90.000000) translate(-18.000000, -24.000000) translate(8.000000, 14.000000)">
                        <g id="Group-40" transform="translate(0.059998, 0.479980)" fill-rule="nonzero">
                            <ellipse id="Oval" fill="#FFFFFF" cx="9.34000015" cy="9.53899526" rx="9.34000015" ry="9.33898305"></ellipse>
                            <path d="M9.34000015,18.8779783 C4.18166051,18.8779783 -2.13162821e-14,14.6967732 -2.13162821e-14,9.53899526 C-2.13162821e-14,4.38121734 4.18166051,0.200012207 9.34000015,0.200012207 C14.4983398,0.200012207 18.6800003,4.38121734 18.6800003,9.53899526 C18.6800003,14.6967732 14.4983398,18.8779783 9.34000015,18.8779783 Z M3.91765869,7.89335246 L3.91765869,11.2509821 L10.6391732,11.2509821 L10.6391732,7.89335246 L3.91765869,7.89335246 Z M10.6391732,5.70359393 L10.6391732,9.71815124 L15.7401637,9.71815124 L10.6391732,5.70359393 Z M10.6391732,13.7327085 L15.7401637,9.71815124 L10.6391732,9.71815124 L10.6391732,13.7327085 Z" id="Combined-Shape" fill="#8BC34A" transform="translate(9.340000, 9.538995) rotate(-180.000000) translate(-9.340000, -9.538995) "></path>
                        </g>
                        <g id="Group-30" transform="translate(3.370966, 5.329031)">
                            <g id="Group-29" transform="translate(6.951614, 0.000000)"></g>
                        </g>
                    </g>
                </g>
            </g>
        </g>
    </g>
</svg>