<?xml version="1.0" encoding="UTF-8"?>
<svg width="48px" height="48px" viewBox="0 0 48 48" version="1.1" xmlns="http://www.w3.org/2000/svg" xmlns:xlink="http://www.w3.org/1999/xlink">
    <!-- Generator: Sketch 55.2 (78181) - https://sketchapp.com -->
    <title>website-analyze-website</title>
    <desc>Created with Sketch.</desc>
    <defs>
        <path d="M41.9181287,25.5395282 L0,25.5395282 L0,2.55249798 C0,1.14270968 1.13178947,0 2.52810526,0 L39.3900234,0 C40.7863392,0 41.9181287,1.14270968 41.9181287,2.55249798 L41.9181287,25.5395282 Z" id="path-1"></path>
    </defs>
    <g id="website-analyze-website" stroke="none" stroke-width="1" fill="none" fill-rule="evenodd">
        <g id="Group-17" transform="translate(3.000000, 3.000000)">
            <g id="analyze_website_icon">
                <g id="statistics_icon-copy-2">
                    <g id="website_builder_icon-copy-3">
                        <g id="Group-39">
                            <g id="coding-(1)">
                                <path d="M28.7456842,38.0129516 L13.1730994,38.0129516 C13.0112398,38.0129516 12.9476257,37.7889395 13.0834503,37.6940444 L14.3872515,36.7651794 C15.7951111,35.7625806 16.4600702,33.9259294 16.0494854,32.1753286 L25.8698713,32.1753286 L25.8691345,32.1768165 C25.4593684,33.9273347 26.1249825,35.7647298 27.5328421,36.7666673 L28.8359064,37.694127 C28.9711579,37.7896835 28.9075439,38.0129516 28.7456842,38.0129516" id="Shape" fill="#D4D4D4" fill-rule="nonzero"></path>
                                <path d="M39.3900234,32.1753286 L2.52884211,32.1753286 C1.13252632,32.1753286 0,31.032619 0,29.6228306 L0,2.62102419 C0,1.21123589 1.13252632,0.0685262097 2.52884211,0.0685262097 L39.3900234,0.0685262097 C40.7863392,0.0685262097 41.9181287,1.21123589 41.9181287,2.62102419 L41.9181287,29.6228306 C41.9181287,31.032619 40.7863392,32.1753286 39.3900234,32.1753286" id="Shape" fill="#EFEFEF" fill-rule="nonzero"></path>
                                <g id="settings">
                                    <g id="Rectangle-path">
                                        <mask id="mask-2" fill="white">
                                            <use xlink:href="#path-1"></use>
                                        </mask>
                                        <use id="Mask" fill="#4A4A4A" fill-rule="nonzero" xlink:href="#path-1"></use>
                                        <polygon fill="#4A4A4A" fill-rule="nonzero" mask="url(#mask-2)" points="0 0 42.0249572 0 42.0249572 2.67317056 0 2.67317056"></polygon>
                                    </g>
                                </g>
                                <path d="M29.3454269,40.9187702 L13.4454386,40.9187702 C12.6468655,40.9187702 12,40.2656633 12,39.4593851 C12,38.6531069 12.6468655,38 13.4454386,38 L29.3454269,38 C30.144,38 30.7908655,38.6531069 30.7908655,39.4593851 C30.7908655,40.2656633 30.144,40.9187702 29.3454269,40.9187702" id="Shape" fill="#EFEFEF" fill-rule="nonzero"></path>
                            </g>
                            <g id="Group-33" transform="translate(20.000000, 20.000000)" fill-rule="nonzero" stroke="#FAFAFA" stroke-width="2">
                                <path d="M10.7035821,11.1168219 L18.475448,11.1168219 C19.5926787,11.1168219 20.4642811,12.0857815 20.3532656,13.1965847 C19.7636007,19.091885 14.47822,23.4286159 8.48862542,22.766131 C3.5843693,22.2237214 -0.391390813,18.2424321 -0.932849829,13.3325476 C-1.594047,7.33648282 2.73647722,2.04462433 8.62485367,1.45393783 L8.62495453,1.45392772 C9.73574106,1.34261403 10.7035821,2.21556161 10.7035821,3.33291805 L10.7035821,11.1168219 Z" id="Shape" fill="#F3B807"></path>
                                <path d="M10.7549417,0.931556813 C10.7549417,-0.207935589 11.7408871,-1.10343419 12.8754735,-0.990475488 C18.1616994,-0.464537707 22.3635746,3.73578197 22.8898472,9.02041438 C23.0028835,10.1551583 22.1071359,11.140793 20.9674836,11.140793 L12.6813906,11.140793 C11.6175849,11.140793 10.7549417,10.2784691 10.7549417,9.21468707 L10.7549417,0.931556813 Z" id="Shape" fill="#FFD54F"></path>
                            </g>
                        </g>
                    </g>
                </g>
                <g id="browser-(3)-copy-2" transform="translate(2.000000, 0.000000)" fill="#ECF0F1" fill-rule="nonzero">
                    <circle id="Oval" cx="1.33658528" cy="1.33658528" r="1"></circle>
                    <circle id="Oval" cx="3.3414632" cy="1.33658528" r="1"></circle>
                    <circle id="Oval" cx="5.34634112" cy="1.33658528" r="1"></circle>
                </g>
            </g>
        </g>
    </g>
</svg>