<?xml version="1.0" encoding="UTF-8"?>
<svg width="48px" height="48px" viewBox="0 0 48 48" version="1.1" xmlns="http://www.w3.org/2000/svg" xmlns:xlink="http://www.w3.org/1999/xlink">
    <!-- Generator: Sketch 55.2 (78181) - https://sketchapp.com -->
    <title>website-stats</title>
    <desc>Created with Sketch.</desc>
    <defs>
        <path d="M41.9181287,25.5395282 L0,25.5395282 L0,2.55249798 C0,1.14270968 1.13178947,0 2.52810526,0 L39.3900234,0 C40.7863392,0 41.9181287,1.14270968 41.9181287,2.55249798 L41.9181287,25.5395282 Z" id="path-1"></path>
    </defs>
    <g id="website-stats" stroke="none" stroke-width="1" fill="none" fill-rule="evenodd">
        <g id="Group-9" transform="translate(3.000000, 3.000000)">
            <g id="statistics_icon" transform="translate(0.000000, 0.500000)">
                <g id="website_builder_icon-copy-3">
                    <g id="coding-(1)">
                        <path d="M28.7456842,38.0129516 L13.1730994,38.0129516 C13.0112398,38.0129516 12.9476257,37.7889395 13.0834503,37.6940444 L14.3872515,36.7651794 C15.7951111,35.7625806 16.4600702,33.9259294 16.0494854,32.1753286 L25.8698713,32.1753286 L25.8691345,32.1768165 C25.4593684,33.9273347 26.1249825,35.7647298 27.5328421,36.7666673 L28.8359064,37.694127 C28.9711579,37.7896835 28.9075439,38.0129516 28.7456842,38.0129516" id="Shape" fill="#D4D4D4" fill-rule="nonzero"></path>
                        <path d="M39.3900234,32.1753286 L2.52884211,32.1753286 C1.13252632,32.1753286 0,31.032619 0,29.6228306 L0,2.62102419 C0,1.21123589 1.13252632,0.0685262097 2.52884211,0.0685262097 L39.3900234,0.0685262097 C40.7863392,0.0685262097 41.9181287,1.21123589 41.9181287,2.62102419 L41.9181287,29.6228306 C41.9181287,31.032619 40.7863392,32.1753286 39.3900234,32.1753286" id="Shape" fill="#EFEFEF" fill-rule="nonzero"></path>
                        <g id="settings">
                            <mask id="mask-2" fill="white">
                                <use xlink:href="#path-1"></use>
                            </mask>
                            <use id="Mask" fill="#4A4A4A" fill-rule="nonzero" xlink:href="#path-1"></use>
                        </g>
                        <path d="M28.909345,40.9317218 L13.0093567,40.9317218 C12.2107836,40.9317218 11.5639181,40.2786149 11.5639181,39.4723367 C11.5639181,38.6660585 12.2107836,38.0129516 13.0093567,38.0129516 L28.909345,38.0129516 C29.7079181,38.0129516 30.3547836,38.6660585 30.3547836,39.4723367 C30.3547836,40.2786149 29.7079181,40.9317218 28.909345,40.9317218" id="Shape" fill="#EFEFEF" fill-rule="nonzero"></path>
                    </g>
                </g>
                <g id="circular-graphic" transform="translate(5.000000, 3.000000)" fill-rule="nonzero">
                    <g id="Group-37">
                        <path d="M7.47728302,2.23997661 C3.17861635,2.67119298 -0.109402516,6.53592982 0.388930818,11.0550643 C0.789968553,14.6916257 3.74244025,17.6482456 7.37410063,18.0499064 C11.8871447,18.549076 15.7469182,15.2566199 16.1774717,10.9520702 C16.2202327,10.5242105 15.884522,10.1500585 15.455195,10.1500585 L9,10.1500585 C8.60141509,10.1500585 8.27821384,9.82642105 8.27821384,9.42729825 L8.27821384,2.96322807 C8.27821384,2.53332164 7.90456604,2.19715789 7.47728302,2.23997661 Z" id="Shape" fill="#F3B807"></path>
                        <path d="M9.72178616,1.51746199 L9.72178616,7.98185965 C9.72178616,8.38098246 10.0449874,8.70461988 10.4435723,8.70461988 L16.8991761,8.70461988 C17.3266226,8.70461988 17.6639686,8.33349708 17.6216164,7.90760234 C17.2483774,4.15322807 14.2668805,1.1677076 10.5176478,0.794046784 C10.0924088,0.751637427 9.72178616,1.08952047 9.72178616,1.51746199 Z" id="Shape" fill="#FFD54F"></path>
                        <path d="M30.8870629,5.44552047 L28.7217862,5.44552047 C28.3232013,5.44552047 28,5.12188304 28,4.72276023 L28,4.72276023 C28,4.32363743 28.3232013,4 28.7217862,4 L30.8870629,4 C31.2856478,4 31.6088491,4.32363743 31.6088491,4.72276023 L31.6088491,4.72276023 C31.6087673,5.12204678 31.2856478,5.44552047 30.8870629,5.44552047 Z" id="Shape" fill="#ECF0F1"></path>
                        <path d="M30.9393208,9.44552047 L23.7217862,9.44552047 C23.3232013,9.44552047 23,9.12188304 23,8.72276023 L23,8.72276023 C23,8.32363743 23.3232013,8 23.7217862,8 L30.9393208,8 C31.3379057,8 31.6611069,8.32363743 31.6611069,8.72276023 L31.6611069,8.72276023 C31.6611069,9.12204678 31.3379057,9.44552047 30.9393208,9.44552047 Z" id="Shape" fill="#ECF0F1"></path>
                        <path d="M30.9393208,12.4455205 L23.7217862,12.4455205 C23.3232013,12.4455205 23,12.121883 23,11.7227602 L23,11.7227602 C23,11.3236374 23.3232013,11 23.7217862,11 L30.9393208,11 C31.3379057,11 31.6611069,11.3236374 31.6611069,11.7227602 L31.6611069,11.7227602 C31.6611069,12.1220468 31.3379057,12.4455205 30.9393208,12.4455205 Z" id="Shape-Copy-2" fill="#ECF0F1"></path>
                        <path d="M30.9393208,15.4455205 L23.7217862,15.4455205 C23.3232013,15.4455205 23,15.121883 23,14.7227602 L23,14.7227602 C23,14.3236374 23.3232013,14 23.7217862,14 L30.9393208,14 C31.3379057,14 31.6611069,14.3236374 31.6611069,14.7227602 L31.6611069,14.7227602 C31.6611069,15.1220468 31.3379057,15.4455205 30.9393208,15.4455205 Z" id="Shape-Copy-2" fill="#ECF0F1"></path>
                        <ellipse id="Oval" fill="#ECF0F1" cx="24.8043836" cy="4.80681871" rx="1.80438365" ry="1.80681871"></ellipse>
                    </g>
                </g>
            </g>
        </g>
    </g>
</svg>