<?xml version="1.0" encoding="UTF-8"?>
<svg width="48px" height="48px" viewBox="0 0 48 48" version="1.1" xmlns="http://www.w3.org/2000/svg" xmlns:xlink="http://www.w3.org/1999/xlink">
    <!-- Generator: Sketch 55.2 (78181) - https://sketchapp.com -->
    <title>website-latest-visitor-report</title>
    <desc>Created with Sketch.</desc>
    <defs>
        <path d="M37.3950757,25.5395282 C36.1111201,23.9882964 34.1709745,23 32,23 C29.8290255,23 27.8888799,23.9882964 26.6049243,25.5395282 L0,25.5395282 L0,2.55249798 C0,1.14270968 1.13178947,0 2.52810526,0 L39.3900234,0 C40.7863392,0 41.9181287,1.14270968 41.9181287,2.55249798 L41.9181287,25.5395282 L37.3950757,25.5395282 Z" id="path-1"></path>
    </defs>
    <g id="website-latest-visitor-report" stroke="none" stroke-width="1" fill="none" fill-rule="evenodd">
        <g id="Group-10" transform="translate(3.000000, 3.000000)">
            <g id="latest_visitors_icon" transform="translate(0.000000, 0.500000)">
                <g id="website_builder_icon-copy-3">
                    <g id="coding-(1)">
                        <path d="M28.7456842,38.0129516 L13.1730994,38.0129516 C13.0112398,38.0129516 12.9476257,37.7889395 13.0834503,37.6940444 L14.3872515,36.7651794 C15.7951111,35.7625806 16.4600702,33.9259294 16.0494854,32.1753286 L25.8698713,32.1753286 L25.8691345,32.1768165 C25.4593684,33.9273347 26.1249825,35.7647298 27.5328421,36.7666673 L28.8359064,37.694127 C28.9711579,37.7896835 28.9075439,38.0129516 28.7456842,38.0129516" id="Shape" fill="#D4D4D4" fill-rule="nonzero"></path>
                        <path d="M38.6554069,32.1753286 C38.8790665,31.4906028 39,30.7594242 39,30 C39,26.1340068 35.8659932,23 32,23 C28.1340068,23 25,26.1340068 25,30 C25,30.7594242 25.1209335,31.4906028 25.3445931,32.1753286 L2.52884211,32.1753286 C1.13252632,32.1753286 0,31.032619 0,29.6228306 L0,2.62102419 C0,1.21123589 1.13252632,0.0685262097 2.52884211,0.0685262097 L39.3900234,0.0685262097 C40.7863392,0.0685262097 41.9181287,1.21123589 41.9181287,2.62102419 L41.9181287,29.6228306 C41.9181287,31.032619 40.7863392,32.1753286 39.3900234,32.1753286 L38.6554069,32.1753286 Z" id="Combined-Shape" fill="#EFEFEF" fill-rule="nonzero"></path>
                        <g id="settings">
                            <mask id="mask-2" fill="white">
                                <use xlink:href="#path-1"></use>
                            </mask>
                            <use id="Combined-Shape" fill="#4A4A4A" fill-rule="nonzero" xlink:href="#path-1"></use>
                            <path d="M27.5049618,26.6224746 C25.5671369,27.9744018 23.2122229,28.7686981 20.6704365,28.7686981 C17.7507465,28.7686981 15.0776265,27.7206578 13,25.9832745 C13.2736955,25.4169057 13.7143028,24.9360486 14.2850217,24.624496 L17.6916131,22.7648624 C18.13864,22.5212668 18.2758947,22.0523543 18.2758947,21.5427219 L18.2758947,20.1456666 C18.2758947,20.1456666 17.0611278,18.9498583 16.6795635,17.2859518 C16.363462,17.0815378 15.8813528,16.7276364 15.8813528,16.3242377 L15.8813528,14.7961548 C15.8813528,14.4598988 16.4472795,14.1587523 16.6795635,13.9486375 L16.6795635,11.7391746 C16.6795635,11.7391746 16.5574087,8 20.6704365,8 C24.9526365,8 24.6613095,11.7391746 24.6613095,11.7391746 L24.6613095,13.9486375 C24.8935935,14.1587523 25.4595203,14.4598988 25.4595203,14.7961548 L25.4595203,16.3242377 C25.4595203,16.7276364 24.9774111,17.0814473 24.6613095,17.2859518 C24.2798356,18.9498583 23.0649784,20.1456666 23.0649784,20.1456666 L23.0649784,21.5427219 C23.0649784,22.0523543 23.2023234,22.5212668 23.64926,22.7648624 L27.0558514,24.624496 C27.1112984,24.6547691 27.1655179,24.6866407 27.2184759,24.7200339 C27.0798611,24.9472985 27,25.214323 27,25.5 C27,25.9466395 27.1952085,26.3476856 27.5049618,26.6224746 Z" id="Combined-Shape" fill="#FFFFFF" fill-rule="nonzero" mask="url(#mask-2)"></path>
                        </g>
                        <path d="M28.909345,40.9317218 L13.0093567,40.9317218 C12.2107836,40.9317218 11.5639181,40.2786149 11.5639181,39.4723367 C11.5639181,38.6660585 12.2107836,38.0129516 13.0093567,38.0129516 L28.909345,38.0129516 C29.7079181,38.0129516 30.3547836,38.6660585 30.3547836,39.4723367 C30.3547836,40.2786149 29.7079181,40.9317218 28.909345,40.9317218" id="Shape" fill="#EFEFEF" fill-rule="nonzero"></path>
                    </g>
                </g>
                <path d="M22.6800752,28.1384778 C22.6800752,24.0769747 25.9561076,20.6922929 30.0720824,20.6922929 C34.1880572,20.6922929 37.4640896,23.9923361 37.4640896,28.1384778 C37.4640896,32.2846194 34.1880572,35.5846626 30.0720824,35.5846626 C25.9561076,35.5846626 22.6800752,32.1999808 22.6800752,28.1384778 M41.7480149,39.561527 L36.7079797,34.315371 C38.1359865,32.7077166 39.0599517,30.5076879 39.0599517,28.1384778 C39.0599517,23.0615031 35.0279997,19 29.9879645,19 C24.9479293,19 21,23.0615031 21,28.1384778 C21,33.2154525 25.031952,37.2769555 30.0719872,37.2769555 C32.0879633,37.2769555 34.0200117,36.6000383 35.5319461,35.4153854 L40.5719813,40.74618 C40.7400269,40.9154572 40.9920001,41 41.1599505,41 C41.3279961,41 41.5799693,40.9153614 41.7479197,40.74618 C42.0840109,40.4077214 42.0840109,39.9000815 41.7480149,39.561527" id="Shape" stroke="#FAFAFA" stroke-width="4" fill="#2196F3" fill-rule="nonzero"></path>
                <circle id="Oval-2" fill="#FAFAFA" cx="30.5" cy="28.5" r="8.5"></circle>
                <path d="M22.6800752,28.1384778 C22.6800752,24.0769747 25.9561076,20.6922929 30.0720824,20.6922929 C34.1880572,20.6922929 37.4640896,23.9923361 37.4640896,28.1384778 C37.4640896,32.2846194 34.1880572,35.5846626 30.0720824,35.5846626 C25.9561076,35.5846626 22.6800752,32.1999808 22.6800752,28.1384778 M41.7480149,39.561527 L36.7079797,34.315371 C38.1359865,32.7077166 39.0599517,30.5076879 39.0599517,28.1384778 C39.0599517,23.0615031 35.0279997,19 29.9879645,19 C24.9479293,19 21,23.0615031 21,28.1384778 C21,33.2154525 25.031952,37.2769555 30.0719872,37.2769555 C32.0879633,37.2769555 34.0200117,36.6000383 35.5319461,35.4153854 L40.5719813,40.74618 C40.7400269,40.9154572 40.9920001,41 41.1599505,41 C41.3279961,41 41.5799693,40.9153614 41.7479197,40.74618 C42.0840109,40.4077214 42.0840109,39.9000815 41.7480149,39.561527" id="Shape" fill="#2196F3" fill-rule="nonzero"></path>
            </g>
        </g>
    </g>
</svg>