<svg width="130" height="26" viewBox="0 0 130 26" fill="none" xmlns="http://www.w3.org/2000/svg">
<path fill-rule="evenodd" clip-rule="evenodd" d="M39.0966 7.71179H41.5353V18.513H39.0966V13.9307H35.001V18.513H32.5623V7.71179H35.001V11.8419H39.0966V7.71179Z" fill="white"/>
<path fill-rule="evenodd" clip-rule="evenodd" d="M47.2288 13.1048C47.2288 13.6344 47.2937 14.1123 47.424 14.5384C47.5543 14.9647 47.742 15.3309 47.9871 15.6373C48.2315 15.9442 48.5314 16.1802 48.8859 16.3463C49.24 16.513 49.6463 16.5963 50.1052 16.5963C50.553 16.5963 50.957 16.513 51.3168 16.3463C51.6759 16.1802 51.9784 15.9442 52.223 15.6373C52.4678 15.3309 52.6558 14.9647 52.7861 14.5384C52.9164 14.1123 52.9815 13.6344 52.9815 13.1048C52.9815 12.5745 52.9164 12.0939 52.7861 11.6626C52.6558 11.2315 52.4678 10.863 52.223 10.5561C51.9784 10.2497 51.6759 10.013 51.3168 9.84711C50.957 9.68082 50.553 9.59778 50.1052 9.59778C49.6463 9.59778 49.24 9.68343 48.8859 9.85474C48.5314 10.0263 48.2315 10.2654 47.9871 10.572C47.742 10.8784 47.5543 11.2472 47.424 11.6783C47.2937 12.1098 47.2288 12.5852 47.2288 13.1048ZM55.4986 13.1048C55.4986 14.0293 55.3603 14.8427 55.0846 15.5436C54.8081 16.2452 54.4302 16.8323 53.9511 17.3048C53.4717 17.778 52.901 18.1337 52.2393 18.3726C51.5777 18.6119 50.8662 18.7313 50.1057 18.7313C49.3656 18.7313 48.6677 18.6119 48.011 18.3726C47.3544 18.1337 46.7811 17.778 46.2915 17.3048C45.8014 16.8323 45.4162 16.2452 45.1347 15.5436C44.8534 14.8427 44.7124 14.0293 44.7124 13.1048C44.7124 12.1798 44.8584 11.3667 45.1502 10.6655C45.4418 9.96395 45.8355 9.37418 46.3306 8.89622C46.8252 8.41827 47.3986 8.05996 48.0502 7.82087C48.7011 7.58157 49.3866 7.46191 50.1057 7.46191C50.8454 7.46191 51.5436 7.58157 52.2004 7.82087C52.8568 8.05996 53.43 8.41827 53.9198 8.89622C54.4094 9.37418 54.7952 9.96395 55.0765 10.6655C55.3581 11.3667 55.4986 12.1798 55.4986 13.1048Z" fill="white"/>
<path fill-rule="evenodd" clip-rule="evenodd" d="M61.6306 16.6583C61.9745 16.6583 62.2584 16.63 62.4825 16.5725C62.7065 16.5156 62.8864 16.4378 63.0217 16.3384C63.157 16.2401 63.251 16.1233 63.3032 15.9882C63.3555 15.8533 63.3815 15.7024 63.3815 15.5361C63.3815 15.1831 63.2145 14.8891 62.8812 14.6556C62.5476 14.4216 61.9745 14.1698 61.1618 13.8991C60.8072 13.7749 60.4529 13.6317 60.0986 13.4709C59.7443 13.31 59.4264 13.1073 59.1451 12.863C58.864 12.6189 58.6345 12.3227 58.4575 11.9742C58.2802 11.6264 58.1917 11.2031 58.1917 10.7043C58.1917 10.2054 58.2854 9.75596 58.473 9.35603C58.6607 8.95588 58.9263 8.61588 59.2704 8.33495C59.6142 8.05423 60.0308 7.83912 60.5207 7.68808C61.0105 7.5377 61.5627 7.46185 62.1778 7.46185C62.9072 7.46185 63.5378 7.54031 64.0694 7.69593C64.6005 7.85176 65.0384 8.0235 65.3822 8.2105L64.679 10.1276C64.3765 9.97173 64.0403 9.83399 63.6707 9.71434C63.3006 9.59512 62.8551 9.53497 62.3343 9.53497C61.7504 9.53497 61.331 9.61604 61.0757 9.77689C60.8204 9.93795 60.6925 10.1849 60.6925 10.517C60.6925 10.7147 60.7397 10.8812 60.8335 11.0159C60.927 11.151 61.0601 11.2731 61.2319 11.3823C61.404 11.4913 61.602 11.5902 61.8263 11.6783C62.0499 11.7667 62.2975 11.8574 62.5688 11.9509C63.1312 12.159 63.6211 12.3641 64.0381 12.5668C64.4547 12.7695 64.8014 13.006 65.0777 13.276C65.3536 13.5461 65.5595 13.8632 65.6952 14.2269C65.8303 14.5909 65.8983 15.0322 65.8983 15.5514C65.8983 16.5594 65.5437 17.3414 64.8351 17.8972C64.1264 18.4534 63.0582 18.7315 61.6306 18.7315C61.1513 18.7315 60.7187 18.7027 60.3331 18.6456C59.9475 18.5881 59.6063 18.5181 59.3093 18.4351C59.0124 18.352 58.7569 18.2637 58.5432 18.1702C58.3296 18.0765 58.1499 17.9885 58.0039 17.905L58.692 15.9725C59.0146 16.1494 59.4133 16.3077 59.8879 16.4476C60.3618 16.5882 60.943 16.6583 61.6306 16.6583Z" fill="white"/>
<path fill-rule="evenodd" clip-rule="evenodd" d="M76.6415 7.71185V9.78497H73.3744V18.5131H70.9358V9.78497H67.6685V7.71185H76.6415Z" fill="white"/>
<path fill-rule="evenodd" clip-rule="evenodd" d="M79.3501 18.5133H81.7888V7.71185H79.3501V18.5133Z" fill="white"/>
<path fill-rule="evenodd" clip-rule="evenodd" d="M92.705 18.5131C92.0069 17.2767 91.2514 16.056 90.4383 14.8503C89.6252 13.6448 88.7603 12.5071 87.8435 11.4368V18.5131H85.436V7.71185H87.4212C87.7648 8.05447 88.1454 8.47532 88.5624 8.9742C88.9793 9.47308 89.4035 10.0057 89.8363 10.572C90.2687 11.1382 90.6986 11.7253 91.126 12.333C91.5531 12.9408 91.9544 13.5252 92.3297 14.0864V7.71185H94.7527V18.5131H92.705Z" fill="white"/>
<path fill-rule="evenodd" clip-rule="evenodd" d="M103.682 9.5822C102.547 9.5822 101.726 9.89648 101.221 10.525C100.715 11.1538 100.463 12.0134 100.463 13.1049C100.463 13.6343 100.525 14.1153 100.65 14.5464C100.775 14.9773 100.963 15.3486 101.213 15.6605C101.463 15.9724 101.775 16.2141 102.151 16.3856C102.526 16.5569 102.963 16.6426 103.464 16.6426C103.734 16.6426 103.967 16.6374 104.16 16.6271C104.352 16.6169 104.522 16.5962 104.667 16.5648V12.8087H107.106V18.1547C106.814 18.2691 106.345 18.391 105.699 18.5206C105.053 18.6503 104.256 18.7157 103.307 18.7157C102.495 18.7157 101.757 18.5908 101.096 18.3417C100.434 18.0919 99.8684 17.7286 99.3993 17.2504C98.9309 16.7727 98.5684 16.1853 98.3131 15.4892C98.0574 14.7935 97.9302 13.9985 97.9302 13.1049C97.9302 12.2006 98.0709 11.4005 98.3525 10.7042C98.6336 10.0083 99.0187 9.41809 99.509 8.93511C99.9989 8.45193 100.574 8.08577 101.236 7.83644C101.898 7.58689 102.604 7.46179 103.354 7.46179C103.865 7.46179 104.326 7.49601 104.738 7.56336C105.149 7.63114 105.503 7.70894 105.8 7.79743C106.098 7.88548 106.343 7.97637 106.536 8.07008C106.729 8.16358 106.866 8.23659 106.95 8.28847L106.246 10.2365C105.913 10.0599 105.53 9.90694 105.098 9.77683C104.665 9.64693 104.193 9.5822 103.682 9.5822Z" fill="white"/>
<path fill-rule="evenodd" clip-rule="evenodd" d="M110.518 18.5131V7.71185H117.834V9.75358H112.957V11.8731H117.287V13.8684H112.957V16.4714H118.194V18.5131H110.518Z" fill="white"/>
<path fill-rule="evenodd" clip-rule="evenodd" d="M124.45 9.66003C124.273 9.66003 124.114 9.66526 123.974 9.6755C123.833 9.68618 123.7 9.69664 123.575 9.70667V12.6367H124.263C125.179 12.6367 125.836 12.523 126.232 12.2941C126.628 12.0659 126.826 11.676 126.826 11.1251C126.826 10.595 126.625 10.2188 126.224 9.99479C125.823 9.77183 125.232 9.66003 124.45 9.66003ZM124.31 7.58691C125.936 7.58691 127.181 7.87504 128.046 8.45195C128.911 9.02863 129.344 9.92483 129.344 11.1408C129.344 11.899 129.169 12.5151 128.82 12.9879C128.471 13.4604 127.968 13.8322 127.312 14.102C127.531 14.3725 127.76 14.6815 127.999 15.0296C128.239 15.3779 128.476 15.7416 128.711 16.1208C128.945 16.5001 129.172 16.8948 129.391 17.305C129.609 17.7158 129.813 18.1183 130 18.513H127.274C127.075 18.1597 126.874 17.8014 126.67 17.4377C126.466 17.0741 126.257 16.7206 126.042 16.3776C125.829 16.0345 125.616 15.7102 125.407 15.4038C125.198 15.0969 124.988 14.8191 124.779 14.5693H123.576V18.513H121.137V7.86719C121.669 7.76389 122.218 7.69066 122.786 7.64946C123.354 7.60762 123.862 7.58691 124.31 7.58691Z" fill="white"/>
<path fill-rule="evenodd" clip-rule="evenodd" d="M0.000249566 12.1733V0.000497794L6.14397 3.27646V8.76088L14.277 8.76481L20.5204 12.1733H0.000249566ZM15.9401 7.75717V0L22.2495 3.19445V11.4224L15.9401 7.75717ZM15.9401 22.6353V17.1982L7.74434 17.1925C7.75199 17.2287 1.39733 13.7296 1.39733 13.7296L22.2495 13.8274V26L15.9401 22.6353ZM0 22.6353L0.000218583 14.6807L6.14394 18.2592V25.8296L0 22.6353Z" fill="white"/>
</svg>
