<?xml version="1.0" encoding="UTF-8"?>
<svg width="138px" height="28px" viewBox="0 0 138 28" version="1.1" xmlns="http://www.w3.org/2000/svg" xmlns:xlink="http://www.w3.org/1999/xlink">
    <!-- Generator: Sketch 47.1 (45422) - http://www.bohemiancoding.com/sketch -->
    <title>138x28</title>
    <desc>Created with Sketch.</desc>
    <defs></defs>
    <g id="Page-1" stroke="none" stroke-width="1" fill="none" fill-rule="evenodd">
        <g id="138x28" fill="#FFFFFF">
            <g id="Group-2" transform="translate(13.000000, 4.000000)">
                <path d="M7.89949153,8.15796606 L7.89949153,3.18245586 L11.3200847,3.18245586 L11.3200847,16.6632722 L7.89949153,16.6632722 L7.89949153,11.1432722 L3.42059322,11.1432722 L3.42059322,16.6632722 L0,16.6632722 L0,3.18245586 L3.42059322,3.18245586 L3.42059322,8.15796606 L7.89949153,8.15796606 Z M16.8194915,9.91347626 C16.8194915,10.5295787 16.8950972,11.0824209 17.0454521,11.5723804 C17.1945269,12.0581687 17.4077081,12.4729359 17.6845994,12.8182643 C17.9581124,13.1593795 18.2915319,13.4215015 18.6870686,13.606427 C19.082589,13.7913448 19.5396742,13.8844967 20.0605508,13.8844967 C20.5689959,13.8844967 21.0233083,13.7913126 21.4257821,13.6058709 C21.8272302,13.4209018 22.1633388,13.1589436 22.4365023,12.8182643 C22.7133936,12.4729359 22.9265748,12.0581687 23.0756496,11.5723804 C23.2260045,11.0824209 23.3016102,10.5295787 23.3016102,9.91347626 C23.3016102,9.29717197 23.2259547,8.74095947 23.0754191,8.24442871 C22.9263051,7.75258687 22.7131614,7.33495154 22.4365023,6.9899127 C22.1633388,6.64923344 21.8272302,6.38727524 21.4257821,6.20230616 C21.0233083,6.01686444 20.5689959,5.92368035 20.0605508,5.92368035 C19.5406339,5.92368035 19.0844828,6.01954686 18.6896201,6.2099263 C18.2929891,6.4011583 17.9586741,6.66687251 17.6845994,7.00868821 C17.4079403,7.35372705 17.1947966,7.77136238 17.0456825,8.26320422 C16.8951091,8.7598598 16.8194915,9.309784 16.8194915,9.91347626 Z M26.2995511,12.9376099 C25.953976,13.812129 25.4793508,14.547083 24.8756576,15.1403343 C24.2715277,15.7340147 23.5524418,16.180931 22.7206181,16.4802638 C21.894261,16.7776294 21.0071823,16.9261293 20.0605508,16.9261293 C19.1387834,16.9261293 18.2672456,16.777509 17.4471657,16.4800601 C16.6225141,16.180953 15.9011608,15.7346655 15.2850558,15.1420989 C14.6683088,14.5489148 14.1837706,13.8138195 13.8315569,12.9390067 C13.4795933,12.0648152 13.3044068,11.0559801 13.3044068,9.91347626 C13.3044068,8.76998667 13.4862598,7.76016264 13.8515876,6.88518422 C14.2164155,6.01140309 14.710025,5.27417594 15.3322721,4.67549421 C15.9544239,4.07690414 16.675556,3.62749686 17.4938404,3.32832485 C18.3076403,3.03079239 19.1636339,2.88204769 20.0605508,2.88204769 C20.9823183,2.88204769 21.8538561,3.030668 22.673936,3.32811689 C23.4990358,3.62738652 24.2207133,4.07713373 24.8369706,4.67636012 C25.4532317,5.27559019 25.9374734,6.01348626 26.2895448,6.8879458 C26.6415084,7.76213738 26.8166949,8.77097247 26.8166949,9.91347626 C26.8166949,11.0554848 26.6448375,12.0638216 26.2995511,12.9376099 Z M32.6090254,13.9595987 C33.0065238,13.9595987 33.3308965,13.9270766 33.5804377,13.8636552 C33.8241195,13.8017231 34.0143382,13.7195567 34.1515957,13.6199049 C34.2800311,13.526658 34.3646313,13.421595 34.4106609,13.3026955 C34.4628541,13.1678751 34.4894068,13.01487 34.4894068,12.8424559 C34.4894068,12.4966798 34.3276889,12.2130019 33.9850165,11.973626 C33.6049093,11.7080997 32.9300769,11.4124932 31.9634546,11.0923413 C31.5284628,10.9398124 31.0936472,10.7651104 30.6590013,10.5682505 C30.2101543,10.3649587 29.8066309,10.1086447 29.4491049,9.79948655 C29.0857041,9.4852484 28.789789,9.10439473 28.5620126,8.65845769 C28.3298355,8.20390514 28.2151695,7.65775462 28.2151695,7.02204769 C28.2151695,6.38788982 28.3356602,5.81262732 28.5775723,5.2985663 C28.8193601,4.78476928 29.1626498,4.3467424 29.6057923,3.9865271 C30.0461085,3.62860929 30.577272,3.3548586 31.1976055,3.16472263 C31.8134409,2.97596537 32.5045018,2.88204769 33.2704661,2.88204769 C34.1736361,2.88204769 34.9579416,2.97864389 35.6238168,3.17321701 C36.2813842,3.36536253 36.8257499,3.57783089 37.2577373,3.81192934 L37.436383,3.90873928 L36.4238919,6.65823272 L36.185666,6.53581306 C35.8321874,6.3541673 35.4378014,6.19318559 35.0024539,6.05307389 C34.580668,5.9173268 34.0661949,5.8485783 33.4594492,5.8485783 C32.7945846,5.8485783 32.3274124,5.93794624 32.0644334,6.10323966 C31.8263458,6.25288779 31.7113559,6.47437869 31.7113559,6.79674157 C31.7113559,6.98893409 31.7548525,7.14258348 31.8394374,7.2639678 C31.9338346,7.39943343 32.0713468,7.52533696 32.2539441,7.6407802 C32.4486067,7.76385146 32.6746377,7.87613266 32.9321059,7.97726099 C33.1996675,8.08235386 33.4957161,8.19071568 33.8249694,8.30400462 C34.5122156,8.55688635 35.1114215,8.80704426 35.6228804,9.05476037 C36.1487495,9.30945583 36.5886114,9.6084584 36.9415423,9.95248033 C37.3002415,10.3021249 37.5681706,10.7132002 37.7440316,11.1835958 C37.9184118,11.6500303 38.0044915,12.2092023 38.0044915,12.8612314 C38.0044915,14.1451004 37.5449023,15.1556703 36.6292458,15.8713956 C35.7248238,16.5783393 34.3834547,16.9261293 32.6090254,16.9261293 C32.0183815,16.9261293 31.4840424,16.8909514 31.0057327,16.8203133 C30.5302462,16.7500921 30.1080337,16.6636366 29.7387848,16.5606613 C29.3697151,16.4577359 29.0508159,16.3478163 28.7816485,16.2304131 C28.5162645,16.1146601 28.2916829,16.0047157 28.1074163,15.9001048 L27.9359477,15.8027594 L28.9263421,13.0297838 L29.1697306,13.1623876 C29.544341,13.3664843 30.0109313,13.5513018 30.569059,13.7158241 C31.1184348,13.8777666 31.7987277,13.9595987 32.6090254,13.9595987 Z M38.6659322,6.14898647 L38.6659322,3.18245586 L49.9860169,3.18245586 L49.9860169,6.14898647 L46.0362712,6.14898647 L46.0362712,16.6632722 L42.615678,16.6632722 L42.615678,6.14898647 L38.6659322,6.14898647 Z M54.8239831,3.18245586 L54.8239831,16.6632722 L51.4033898,16.6632722 L51.4033898,3.18245586 L54.8239831,3.18245586 Z M65.7094068,3.18245586 L69.1111017,3.18245586 L69.1111017,16.6632722 L66.2611003,16.6632722 L66.1933499,16.5437212 C65.3522988,15.0596203 64.4421652,13.5941605 63.462908,12.147292 C62.6089878,10.8856111 61.7073765,9.68583112 60.7580508,8.54789465 L60.7580508,16.6632722 L57.3752542,16.6632722 L57.3752542,3.18245586 L60.109417,3.18245586 L60.1786068,3.2511961 C60.599833,3.66968531 61.0643672,4.18177825 61.5726201,4.7877187 C62.0788456,5.39124214 62.5943934,6.03541755 63.1192994,6.72027284 C63.6440597,7.40493809 64.1655914,8.11463694 64.6839146,8.84939018 C65.040712,9.35517133 65.3825407,9.8475841 65.7094068,10.3266393 L65.7094068,3.18245586 Z M79.2405932,9.32204769 L82.6611864,9.32204769 L82.6611864,16.1566957 L82.5113353,16.2151832 C82.1428019,16.3590235 81.5643911,16.5090716 80.7707975,16.6680307 C79.9726891,16.8278941 78.9937417,16.9073538 77.8326695,16.9073538 C76.822359,16.9073538 75.9027735,16.7523952 75.0750421,16.4415846 C74.2432728,16.1292577 73.530572,15.6724385 72.9392288,15.071882 C72.3481959,14.4716407 71.8926891,13.7358448 71.5728001,12.8667304 C71.2541298,12.0009272 71.0954237,11.0162638 71.0954237,9.91347626 C71.0954237,8.79571677 71.2707348,7.80229156 71.6228001,6.93432469 C71.9747496,6.06664337 72.4586442,5.32927616 73.074238,4.72418858 C73.6900734,4.11886353 74.4143498,3.65977119 75.2451268,3.34781694 C76.0722623,3.03723011 76.9541264,2.88204769 77.8893644,2.88204769 C78.5189843,2.88204769 79.089184,2.92365465 79.6002216,3.00720303 C80.1071285,3.09007608 80.5450287,3.18604406 80.9144646,3.29551077 C81.2849602,3.40529147 81.5926681,3.51911914 81.8385115,3.6379415 C82.0785153,3.75394146 82.251646,3.84481242 82.3611756,3.9128236 L82.522796,4.01318 L81.515475,6.79311275 L81.2747229,6.66604424 C80.8858447,6.46079507 80.4370781,6.28184821 79.9283956,6.12962614 C79.4283653,5.97999323 78.8811698,5.90490483 78.2862288,5.90490483 C76.9790265,5.90490483 76.0552357,6.2574521 75.4940608,6.95292591 C74.9197304,7.66470354 74.6294068,8.64895818 74.6294068,9.91347626 C74.6294068,10.5306331 74.7021485,11.0877073 74.8468898,11.5850184 C74.9896914,12.075665 75.2024108,12.4954042 75.4847603,12.8460478 C75.7639085,13.1927158 76.112329,13.4609872 76.5326208,13.6523692 C76.9536331,13.8440794 77.4493681,13.9408232 78.0216525,13.9408232 C78.3452573,13.9408232 78.6214504,13.9346569 78.8498766,13.9223898 C78.9920117,13.9147568 79.12229,13.9023162 79.2405932,13.8851817 L79.2405932,9.32204769 Z" id="HOSTING-Copy" fill-rule="nonzero"></path>
                <path d="M95.0164783,19.7142857 L90.2394068,23 L90.2394068,19.7142857 L87.8744676,19.7142857 L87.8744676,19.7142857 C86.8322072,19.7142857 85.9872881,18.8693667 85.9872881,17.8271062 L85.9872881,1.88717949 L85.9872881,1.88717949 C85.9872881,0.844919036 86.8322072,6.35549349e-16 87.8744676,4.4408921e-16 L87.8744676,0 L109.612821,0 L109.612821,2.22044605e-16 C110.655081,-1.82084201e-15 111.5,0.844919036 111.5,1.88717949 L111.5,17.8271062 L111.5,17.8271062 C111.5,18.8693667 110.655081,19.7142857 109.612821,19.7142857 L95.0164783,19.7142857 Z M97.4373932,6.98336327 C97.4373932,6.43060948 97.3557534,5.93494097 97.1924712,5.49634286 C97.029189,5.05774475 96.7751983,4.68524235 96.4304915,4.37882449 C96.0857847,4.07240663 95.6473484,3.83508656 95.1151695,3.66685714 C94.5829906,3.49862773 93.9480139,3.41451429 93.2102203,3.41451429 C92.399857,3.41451429 91.6409086,3.57372902 90.9333525,3.89216327 C90.2257965,4.21059751 89.6059383,4.61614448 89.0737593,5.10881633 L90.4162949,6.98336327 C90.5009597,6.89924856 90.6279551,6.78809865 90.7972847,6.6499102 C90.9666144,6.51172176 91.1692022,6.37353538 91.4050542,6.23534694 C91.6409063,6.09715849 91.9009443,5.97699643 92.1851763,5.87485714 C92.4694082,5.77271786 92.7748018,5.72164898 93.1013661,5.72164898 C93.5488802,5.72164898 93.9238188,5.82979484 94.2261932,6.0460898 C94.5285676,6.26238475 94.6797525,6.63488715 94.6797525,7.16360816 C94.6797525,7.4039359 94.625326,7.64125597 94.5164712,7.87557551 C94.4076164,8.10989505 94.2564315,8.34421107 94.0629119,8.57853061 C93.8693923,8.81285015 93.6456386,9.05317428 93.3916441,9.2995102 C93.1376496,9.54584613 92.8655167,9.80719862 92.5752373,10.0835755 C92.200293,10.4440671 91.8223307,10.8045533 91.441339,11.1650449 C91.0603472,11.5255365 90.7186693,11.9130592 90.4162949,12.3276245 C90.1139205,12.7421898 89.8690009,13.1897935 89.6815288,13.670449 C89.4940567,14.1511044 89.400322,14.6798175 89.400322,15.2566041 L89.400322,15.6891918 C89.400322,15.8934704 89.4124168,16.0616973 89.4366068,16.1938776 L97.8183831,16.1938776 L97.8183831,13.9408163 L92.4119559,13.9408163 C92.4482409,13.8206525 92.5419755,13.6674458 92.6931627,13.4811918 C92.8443499,13.2949378 93.0167007,13.0936664 93.2102203,12.8773714 C93.40374,12.6610765 93.6063278,12.4477888 93.8179898,12.237502 C94.0296519,12.0272153 94.2261923,11.83796 94.4076169,11.6697306 C94.7583712,11.3452882 95.1151677,11.0028263 95.4780169,10.6423347 C95.8408662,10.2818431 96.1674257,9.90633665 96.4577051,9.51580408 C96.7479845,9.12527152 96.983833,8.71972455 97.1652576,8.29915102 C97.3466823,7.87857749 97.4373932,7.43998596 97.4373932,6.98336327 Z M107.179847,3.70290612 L104.621773,3.70290612 C104.075291,4.47712996 99.5265402,10.6494489 99.1064915,11.2010939 L99.1064915,13.4000816 L104.531061,13.4000816 L104.531061,16.1938776 L107.179847,16.1938776 L107.179847,13.4000816 L108.522383,13.4000816 L108.522383,11.2010939 L107.179847,11.2010939 L107.179847,3.70290612 Z M101.62954,11.1682334 L104.567214,6.90346873 L104.567214,11.1682334 L101.62954,11.1682334 Z" id="Combined-Shape"></path>
            </g>
        </g>
    </g>
</svg>