<?xml version="1.0" encoding="UTF-8"?>
<svg width="1000px" height="1000px" viewBox="0 0 1000 1000" version="1.1" xmlns="http://www.w3.org/2000/svg" xmlns:xlink="http://www.w3.org/1999/xlink">
    <!-- Generator: Sketch 61.2 (89653) - https://sketch.com -->
    <title>svg-hostinger-mail</title>
    <desc>Created with Sketch.</desc>
    <g id="Page-1" stroke="none" stroke-width="1" fill="none" fill-rule="evenodd">
        <g id="Artboard">
            <g id="svg-hostinger-mail">
                <rect id="Rectangle" fill="#6747C7" x="0" y="0" width="1000" height="1000"></rect>
                <path d="M329.00336,487.280272 L329.00336,300.006706 L423.438904,350.406136 L423.438904,434.781843 L548.45252,434.842198 L644.420159,487.280272 L329.00336,487.280272 Z M574.017683,419.341129 L574.017683,300 L671,349.145396 L671,475.729075 L574.017683,419.341129 Z M574.017683,648.235886 L574.017683,564.587787 L448.039788,564.500608 C448.157383,565.057211 350.479576,511.224276 350.479576,511.224276 L671,512.729788 L671,700 L574.017683,648.235886 Z M329,648.235886 L329.00336,525.856909 L423.438904,580.910348 L423.438904,697.377929 L329,648.235886 L329,648.235886 Z" id="Fill-15" fill="#FFFFFF"></path>
            </g>
        </g>
    </g>
</svg>